<svg width="30" height="30" viewBox="0 0 30 30" fill="none" xmlns="http://www.w3.org/2000/svg">
<path d="M25.7812 3.28125H4.21875C3.7002 3.28125 3.28125 3.7002 3.28125 4.21875V25.7812C3.28125 26.2998 3.7002 26.7188 4.21875 26.7188H25.7812C26.2998 26.7188 26.7188 26.2998 26.7188 25.7812V4.21875C26.7188 3.7002 26.2998 3.28125 25.7812 3.28125ZM10.2334 23.2529H6.75586V12.0674H10.2334V23.2529ZM8.49609 10.5381C8.09744 10.5381 7.70774 10.4199 7.37627 10.1984C7.0448 9.97691 6.78646 9.66211 6.6339 9.29381C6.48134 8.9255 6.44143 8.52023 6.5192 8.12923C6.59697 7.73824 6.78894 7.37909 7.07083 7.0972C7.35272 6.81531 7.71187 6.62334 8.10286 6.54557C8.49386 6.46779 8.89913 6.50771 9.26744 6.66027C9.63575 6.81282 9.95054 7.07117 10.172 7.40264C10.3935 7.73411 10.5117 8.12381 10.5117 8.52246C10.5088 9.63574 9.60645 10.5381 8.49609 10.5381ZM23.2529 23.2529H19.7783V17.8125C19.7783 16.5146 19.7549 14.8477 17.9707 14.8477C16.1631 14.8477 15.8848 16.2598 15.8848 17.7188V23.2529H12.4131V12.0674H15.7471V13.5967H15.7939C16.2568 12.7178 17.3906 11.7891 19.084 11.7891C22.6055 11.7891 23.2529 14.1064 23.2529 17.1182V23.2529Z" fill="#131414"/>
</svg>
