<svg width="200" height="195" viewBox="0 0 200 195" fill="none" xmlns="http://www.w3.org/2000/svg">
<path d="M113.304 5.93909H15.3985C13.5351 5.93909 12.0244 7.3719 12.0244 9.13937V138.653C12.0244 140.421 13.5351 141.854 15.3985 141.854H113.304C115.167 141.854 116.678 140.421 116.678 138.653V9.13937C116.678 7.3719 115.167 5.93909 113.304 5.93909Z" fill="#F5F5F5"/>
<path d="M192.783 14.0375L192.975 14.9798L191.007 25.0918C190.31 25.577 189.517 25.9223 188.675 26.1065C187.833 26.2907 186.96 26.3099 186.11 26.163L174.956 24.2073C174.956 24.2073 173.18 23.8294 173.677 21.647C173.677 21.647 173.761 20.4958 174.802 20.4202C174.802 20.4202 172.641 19.5846 172.88 18.0067C173.119 16.4288 174.347 16.4466 174.347 16.4466C174.347 16.4466 172.323 15.9621 172.534 14.1841C172.745 12.4062 173.836 12.4062 173.836 12.4062C173.836 12.4062 171.493 11.8639 172.07 9.89486C172.137 9.63326 172.258 9.38687 172.426 9.16999C172.594 8.95312 172.806 8.77009 173.049 8.63155C173.292 8.493 173.562 8.4017 173.843 8.36295C174.124 8.32421 174.41 8.33878 174.685 8.40584L182.618 9.79707L189.573 11.015C190.365 11.158 191.093 11.5222 191.665 12.0608C192.237 12.5993 192.626 13.2876 192.783 14.0375Z" fill="#EBEBEB"/>
<path d="M190.796 11.4501C190.796 11.4501 188.354 9.35215 187.516 7.07195C187.126 5.93515 186.93 4.74687 186.934 3.55163C186.934 3.46274 187.094 2.66266 187.211 2.01372C187.256 1.75691 187.194 1.49366 187.04 1.27851C186.886 1.06336 186.65 0.912808 186.382 0.858058C185.54 0.743133 184.683 0.92423 183.973 1.3672C183.262 1.81017 182.747 2.48439 182.525 3.26272C181.587 6.2941 182.389 8.36095 182.417 9.28104L182.44 10.2056L190.796 11.4501Z" fill="#EBEBEB"/>
<path d="M189.284 26.6115L197.072 27.9766L199.997 12.9627L192.209 11.5977L189.284 26.6115Z" fill="#EBEBEB"/>
<path d="M189.287 26.6033C189.287 26.6033 189.91 23.2385 190.716 19.0959C191.522 14.9533 192.202 11.5886 192.202 11.593C192.202 11.5975 191.579 14.9578 190.768 19.1048C189.957 23.2518 189.301 26.6077 189.287 26.6033Z" fill="#E0E0E0"/>
<path d="M197.076 27.9711C197.076 27.9711 197.699 24.6019 198.51 20.4593C199.32 16.3167 199.986 12.9564 200 12.9564C200.014 12.9564 199.377 16.3256 198.571 20.4682C197.765 24.6108 197.094 27.9711 197.076 27.9711Z" fill="#E0E0E0"/>
<path d="M194.292 15.5121C194.241 15.7853 194.277 16.0666 194.395 16.3206C194.512 16.5747 194.706 16.7899 194.953 16.9394C195.199 17.0888 195.487 17.1656 195.779 17.1602C196.072 17.1548 196.356 17.0673 196.596 16.9089C196.836 16.7505 197.021 16.5282 197.128 16.27C197.236 16.0118 197.26 15.7294 197.198 15.4582C197.136 15.1871 196.99 14.9395 196.78 14.7465C196.57 14.5536 196.304 14.4241 196.017 14.3742C195.824 14.3409 195.627 14.344 195.437 14.3832C195.246 14.4225 195.065 14.4971 194.905 14.6029C194.744 14.7086 194.608 14.8434 194.503 14.9994C194.397 15.1555 194.326 15.3297 194.292 15.5121Z" fill="white"/>
<path d="M180.772 9.48486C180.772 9.48486 181.63 9.60487 182.675 9.78711C183.72 9.96935 184.573 10.1338 184.549 10.1471C184.526 10.1605 183.692 10.0271 182.646 9.8449C181.601 9.66266 180.772 9.48486 180.772 9.48486Z" fill="#E0E0E0"/>
<path d="M174.155 16.491C174.155 16.491 174.704 16.5576 175.374 16.6732C175.781 16.7355 176.184 16.8171 176.583 16.9177C176.583 16.9177 176.034 16.851 175.364 16.731C174.957 16.6714 174.554 16.5912 174.155 16.491Z" fill="#E0E0E0"/>
<path d="M173.672 12.3395C173.672 12.3395 174.446 12.4462 175.397 12.6106C176.348 12.7751 177.117 12.9262 177.112 12.944C177.107 12.9618 176.339 12.8373 175.388 12.6684C174.436 12.4995 173.668 12.3573 173.672 12.3395Z" fill="#E0E0E0"/>
<path d="M174.295 20.3535C174.295 20.3535 175.069 20.4602 176.02 20.6247C176.971 20.7891 177.74 20.9402 177.735 20.9536C177.73 20.9669 176.962 20.8513 176.011 20.6824C175.059 20.5135 174.291 20.3669 174.295 20.3535Z" fill="#E0E0E0"/>
<path d="M193.964 12.3395C193.964 12.3395 195.06 12.5039 196.401 12.7395C197.741 12.9751 198.828 13.184 198.828 13.184C198.828 13.184 197.732 13.024 196.391 12.7884C195.051 12.5528 193.964 12.3573 193.964 12.3395Z" fill="white"/>
<path d="M173.26 14.9437C173.243 14.9177 173.23 14.8892 173.223 14.8592C173.199 14.7792 173.181 14.6974 173.171 14.6148C173.159 14.492 173.159 14.3685 173.171 14.2458C173.188 14.0946 173.223 13.9455 173.274 13.8014C173.328 13.6581 173.399 13.5209 173.485 13.3924C173.554 13.289 173.636 13.1936 173.729 13.108C173.79 13.0481 173.857 12.9945 173.93 12.9479L174.01 12.899C174.01 12.899 173.907 12.9835 173.762 13.1346C173.675 13.2234 173.598 13.3202 173.532 13.4235C173.451 13.5478 173.385 13.6806 173.335 13.8191C173.283 13.9632 173.246 14.1122 173.227 14.2636C173.216 14.3834 173.216 14.5039 173.227 14.6236C173.232 14.8192 173.269 14.9392 173.26 14.9437Z" fill="white"/>
<path d="M172.848 10.9382C172.781 10.8875 172.728 10.8218 172.693 10.7471C172.595 10.5737 172.545 10.3794 172.548 10.1826C172.555 9.9862 172.611 9.7942 172.712 9.62255C172.751 9.55052 172.807 9.48812 172.876 9.44031C172.876 9.44031 172.82 9.51587 172.754 9.64477C172.666 9.81253 172.617 9.99692 172.613 10.1845C172.609 10.3721 172.649 10.5582 172.731 10.7293C172.773 10.797 172.813 10.8668 172.848 10.9382Z" fill="white"/>
<path d="M173.841 19.264C173.753 19.2193 173.678 19.1553 173.621 19.0773C173.474 18.8966 173.397 18.6741 173.401 18.4462C173.406 18.2195 173.49 18.0009 173.64 17.8239C173.757 17.6905 173.86 17.6372 173.864 17.6461C173.797 17.7088 173.735 17.7756 173.677 17.8461C173.543 18.022 173.471 18.2335 173.471 18.4506C173.471 18.6677 173.543 18.8792 173.677 19.0551C173.757 19.1796 173.846 19.264 173.841 19.264Z" fill="white"/>
<path d="M174.732 23.0907C174.667 23.0353 174.615 22.967 174.582 22.8907C174.489 22.7092 174.44 22.5101 174.44 22.3084C174.44 22.1067 174.489 21.9076 174.582 21.7261C174.617 21.6507 174.668 21.5828 174.732 21.5261C174.732 21.5261 174.68 21.6106 174.619 21.7439C174.54 21.9227 174.5 22.1146 174.5 22.3084C174.5 22.5022 174.54 22.6941 174.619 22.8729C174.68 23.0107 174.741 23.0863 174.732 23.0907Z" fill="white"/>
<path d="M182.609 6.79157C182.586 6.73856 182.569 6.68346 182.558 6.62711C182.536 6.56152 182.519 6.49472 182.506 6.42709C182.506 6.34709 182.469 6.25819 182.455 6.15596C182.417 5.92348 182.397 5.68882 182.394 5.45367C182.389 5.15644 182.408 4.8593 182.45 4.56471C182.497 4.27879 182.566 3.99653 182.656 3.72018C182.73 3.4935 182.821 3.27217 182.928 3.0579C182.97 2.96901 183.017 2.889 183.054 2.81788L183.162 2.64009C183.193 2.58902 183.228 2.54001 183.265 2.49341C183.246 2.54821 183.219 2.60048 183.186 2.64898L183.087 2.83122C183.05 2.90233 183.008 2.98234 182.965 3.07568C182.881 3.25792 182.792 3.48461 182.708 3.73352C182.625 4.00981 182.56 4.29028 182.511 4.5736C182.471 4.85798 182.45 5.14454 182.45 5.43145C182.452 5.66472 182.467 5.89771 182.497 6.12929C182.497 6.23152 182.525 6.32042 182.539 6.39598C182.553 6.47154 182.567 6.54266 182.581 6.596C182.599 6.6599 182.608 6.72555 182.609 6.79157Z" fill="white"/>
<path d="M180.721 106.512L181.25 107.086L184.118 114.762C183.842 115.358 183.44 115.893 182.937 116.336C182.434 116.779 181.841 117.119 181.194 117.336L172.731 120.163C172.731 120.163 171.358 120.571 170.786 118.891C170.786 118.891 170.364 118.069 171.048 117.625C171.048 117.625 169.216 117.865 168.705 116.691C168.194 115.518 169.061 115.073 169.061 115.073C169.061 115.073 167.468 115.518 166.873 114.184C166.278 112.851 167.023 112.473 167.023 112.473C167.023 112.473 165.181 112.984 164.764 111.415C164.7 111.21 164.68 110.996 164.705 110.784C164.73 110.572 164.799 110.367 164.908 110.18C165.017 109.994 165.164 109.83 165.34 109.697C165.517 109.565 165.719 109.468 165.936 109.41L171.953 107.388L177.229 105.61C177.839 105.407 178.5 105.384 179.123 105.546C179.747 105.707 180.304 106.044 180.721 106.512Z" fill="#EBEBEB"/>
<path d="M178.298 105.494C178.298 105.494 175.749 104.974 174.207 103.716C173.463 103.084 172.83 102.342 172.332 101.52L171.864 100.36C171.788 100.167 171.637 100.008 171.441 99.9181C171.246 99.8278 171.021 99.8127 170.814 99.8759C170.188 100.116 169.677 100.565 169.376 101.138C169.075 101.711 169.005 102.369 169.179 102.987C169.811 105.414 171.212 106.543 171.615 107.157L172.018 107.779L178.298 105.494Z" fill="#EBEBEB"/>
<path d="M183.567 116.456L189.477 114.469L185.22 103.078L179.31 105.065L183.567 116.456Z" fill="#EBEBEB"/>
<path d="M183.57 116.442C183.57 116.442 182.595 113.9 181.419 110.753C180.242 107.606 179.301 105.05 179.315 105.05C179.329 105.05 180.289 107.593 181.466 110.74C182.642 113.887 183.584 116.438 183.57 116.442Z" fill="#E0E0E0"/>
<path d="M189.479 114.455C189.479 114.455 188.504 111.912 187.328 108.765C186.152 105.618 185.21 103.067 185.224 103.063C185.238 103.058 186.199 105.605 187.375 108.752C188.551 111.899 189.493 114.45 189.479 114.455Z" fill="#E0E0E0"/>
<path d="M182.361 106.957C182.439 107.163 182.58 107.344 182.766 107.474C182.952 107.605 183.174 107.681 183.405 107.692C183.637 107.703 183.866 107.648 184.065 107.536C184.264 107.423 184.423 107.257 184.522 107.059C184.621 106.86 184.656 106.639 184.623 106.421C184.589 106.204 184.489 106.001 184.334 105.838C184.179 105.675 183.976 105.559 183.752 105.505C183.528 105.451 183.291 105.461 183.073 105.534C182.78 105.634 182.541 105.839 182.407 106.106C182.274 106.373 182.257 106.679 182.361 106.957Z" fill="white"/>
<path d="M170.584 107.89C170.584 107.89 171.221 107.65 172.018 107.384C172.815 107.117 173.461 106.908 173.466 106.939C173.471 106.97 172.829 107.179 172.032 107.446C171.235 107.713 170.589 107.899 170.584 107.89Z" fill="#E0E0E0"/>
<path d="M168.977 115.184C168.977 115.184 169.38 115.024 169.891 114.856C170.197 114.742 170.51 114.646 170.828 114.567C170.53 114.692 170.225 114.804 169.914 114.9C169.607 115.011 169.295 115.106 168.977 115.184Z" fill="#E0E0E0"/>
<path d="M166.896 112.521C166.896 112.521 167.472 112.303 168.194 112.076C168.916 111.85 169.502 111.632 169.506 111.659C169.511 111.685 168.93 111.876 168.208 112.103C167.486 112.33 166.919 112.534 166.896 112.521Z" fill="#E0E0E0"/>
<path d="M170.683 117.78C170.683 117.78 171.259 117.562 171.981 117.336C172.702 117.109 173.288 116.891 173.293 116.922C173.298 116.954 172.716 117.14 171.995 117.367C171.273 117.594 170.687 117.794 170.683 117.78Z" fill="#E0E0E0"/>
<path d="M180.828 104.907C180.828 104.907 181.644 104.605 182.665 104.263C183.687 103.92 184.512 103.654 184.54 103.667C184.568 103.68 183.724 103.965 182.703 104.307C181.681 104.649 180.833 104.916 180.828 104.907Z" fill="white"/>
<path d="M167.716 114.459L167.656 114.415C167.606 114.369 167.561 114.32 167.52 114.268C167.458 114.189 167.407 114.104 167.365 114.015C167.312 113.905 167.273 113.79 167.248 113.672C167.225 113.555 167.216 113.436 167.22 113.317C167.227 113.219 167.245 113.123 167.271 113.028C167.288 112.964 167.311 112.901 167.342 112.841C167.342 112.801 167.374 112.779 167.379 112.779C167.384 112.779 167.342 112.877 167.304 113.032C167.283 113.126 167.27 113.221 167.267 113.317C167.265 113.433 167.274 113.549 167.295 113.664C167.32 113.777 167.356 113.889 167.402 113.997C167.445 114.084 167.493 114.169 167.548 114.25C167.646 114.384 167.721 114.455 167.716 114.459Z" fill="white"/>
<path d="M165.762 111.868C165.696 111.858 165.633 111.834 165.579 111.797C165.44 111.714 165.326 111.599 165.246 111.463C165.165 111.328 165.123 111.174 165.125 111.019C165.119 110.955 165.13 110.891 165.157 110.832C165.157 110.832 165.157 110.903 165.157 111.019C165.169 111.167 165.214 111.311 165.289 111.441C165.366 111.57 165.471 111.683 165.598 111.77C165.696 111.837 165.767 111.863 165.762 111.868Z" fill="white"/>
<path d="M169.914 117.197C169.834 117.198 169.756 117.181 169.684 117.148C169.509 117.079 169.362 116.957 169.267 116.801C169.177 116.642 169.144 116.459 169.173 116.281C169.182 116.208 169.209 116.137 169.253 116.077C169.253 116.077 169.225 116.157 169.211 116.285C169.19 116.456 169.226 116.629 169.314 116.779C169.403 116.927 169.537 117.046 169.698 117.121C169.825 117.174 169.914 117.188 169.914 117.197Z" fill="white"/>
<path d="M172.126 119.496C172.059 119.481 171.995 119.454 171.939 119.416C171.798 119.327 171.68 119.209 171.596 119.069C171.512 118.934 171.462 118.782 171.451 118.625C171.435 118.561 171.435 118.493 171.451 118.429C171.451 118.429 171.451 118.505 171.451 118.62C171.471 118.777 171.523 118.928 171.606 119.065C171.689 119.197 171.797 119.313 171.925 119.407C171.994 119.432 172.061 119.462 172.126 119.496Z" fill="white"/>
<path d="M170.729 105.365L170.622 105.267C170.58 105.231 170.541 105.192 170.504 105.152C170.458 105.103 170.406 105.05 170.354 104.987C170.233 104.846 170.122 104.698 170.022 104.543C169.899 104.346 169.791 104.141 169.698 103.929C169.61 103.716 169.539 103.496 169.487 103.272C169.443 103.089 169.413 102.903 169.398 102.716C169.398 102.64 169.398 102.565 169.398 102.503C169.398 102.44 169.398 102.387 169.398 102.343C169.395 102.297 169.395 102.251 169.398 102.205C169.405 102.251 169.405 102.297 169.398 102.343C169.398 102.387 169.398 102.44 169.398 102.503C169.398 102.565 169.398 102.636 169.398 102.716C169.398 102.872 169.45 103.058 169.497 103.263C169.653 103.886 169.944 104.471 170.35 104.983C170.401 105.05 170.448 105.103 170.49 105.152L170.603 105.276C170.648 105.302 170.691 105.331 170.729 105.365Z" fill="white"/>
<path d="M107.554 161.161H84.7369C81.2921 161.161 78.4995 163.81 78.4995 167.077V188.719C78.4995 191.987 81.2921 194.635 84.7369 194.635H107.554C110.999 194.635 113.792 191.987 113.792 188.719V167.077C113.792 163.81 110.999 161.161 107.554 161.161Z" fill="#E0E0E0"/>
<path d="M101.213 161.161H78.3961C74.9513 161.161 72.1587 163.81 72.1587 167.077V188.719C72.1587 191.987 74.9513 194.635 78.3961 194.635H101.213C104.658 194.635 107.451 191.987 107.451 188.719V167.077C107.451 163.81 104.658 161.161 101.213 161.161Z" fill="#EBEBEB"/>
<path d="M77.623 178.381L81.1752 175.007L88.0312 180.79L99.4844 169.886L102.784 173.256L87.5251 187.292L77.623 178.381Z" fill="white"/>
<path d="M26.0604 168.345H11.1534C7.70859 168.345 4.91602 170.994 4.91602 174.261V188.4C4.91602 191.668 7.70859 194.316 11.1534 194.316H26.0604C29.5052 194.316 32.2978 191.668 32.2978 188.4V174.261C32.2978 170.994 29.5052 168.345 26.0604 168.345Z" fill="#E0E0E0"/>
<path d="M21.1444 168.345H6.2374C2.79258 168.345 0 170.994 0 174.261V188.4C0 191.668 2.79258 194.316 6.2374 194.316H21.1444C24.5892 194.316 27.3818 191.668 27.3818 188.4V174.261C27.3818 170.994 24.5892 168.345 21.1444 168.345Z" fill="#EBEBEB"/>
<path d="M4.23633 181.706L6.99653 179.088L12.3154 183.573L21.1959 175.114L23.7592 177.732L11.9218 188.618L4.23633 181.706Z" fill="white"/>
</svg>
