<svg width="52" height="31" viewBox="0 0 52 31" fill="none" xmlns="http://www.w3.org/2000/svg">
<path d="M31.2111 0.4646H11.9693C8.52451 0.4646 5.73193 3.11332 5.73193 6.38069V24.6312C5.73193 27.8986 8.52451 30.5473 11.9693 30.5473H31.2111C34.6559 30.5473 37.4485 27.8986 37.4485 24.6312V6.38069C37.4485 3.11332 34.6559 0.4646 31.2111 0.4646Z" fill="#7E57C2"/>
<g opacity="0.3">
<path d="M31.2111 0.465332H11.9693C8.52451 0.465332 5.73193 3.11405 5.73193 6.38142V24.6319C5.73193 27.8993 8.52451 30.548 11.9693 30.548H31.2111C34.6559 30.548 37.4485 27.8993 37.4485 24.6319V6.38142C37.4485 3.11405 34.6559 0.465332 31.2111 0.465332Z" fill="black"/>
</g>
<path d="M25.5172 0.4646H6.27548C2.83066 0.4646 0.0380859 3.11332 0.0380859 6.38069V24.6312C0.0380859 27.8986 2.83066 30.5473 6.27548 30.5473H25.5172C28.962 30.5473 31.7546 27.8986 31.7546 24.6312V6.38069C31.7546 3.11332 28.962 0.4646 25.5172 0.4646Z" fill="#7E57C2"/>
<path d="M4.94482 15.9417L8.14085 12.9104L14.3033 18.1064L24.5896 8.30994L27.556 11.3369L13.844 23.9513L4.94482 15.9417Z" fill="white"/>
<path d="M47.866 11.3055H35.2928C33.1628 11.3055 31.436 12.9433 31.436 14.9637V26.8892C31.436 28.9095 33.1628 30.5473 35.2928 30.5473H47.866C49.9961 30.5473 51.7228 28.9095 51.7228 26.8892V14.9637C51.7228 12.9433 49.9961 11.3055 47.866 11.3055Z" fill="#263238"/>
<path d="M44.2249 11.3055H31.6517C29.5217 11.3055 27.7949 12.9433 27.7949 14.9637V26.8892C27.7949 28.9095 29.5217 30.5473 31.6517 30.5473H44.2249C46.355 30.5473 48.0817 28.9095 48.0817 26.8892V14.9637C48.0817 12.9433 46.355 11.3055 44.2249 11.3055Z" fill="#455A64"/>
<path d="M30.9346 21.2044L32.9778 19.2665L36.9189 22.5912L43.5031 16.324L45.401 18.2619L36.6284 26.3293L30.9346 21.2044Z" fill="white"/>
</svg>
