<svg width="120" height="90" viewBox="0 0 120 90" fill="none" xmlns="http://www.w3.org/2000/svg">
<path d="M106.73 67.7115H63.36C62.9872 67.7108 62.6299 67.5586 62.3662 67.2882C62.1026 67.0177 61.9542 66.6511 61.9536 66.2686V1.44261C61.9549 1.06056 62.1035 0.694571 62.3671 0.424652C62.6306 0.154733 62.9876 0.0028459 63.36 0.00219727H106.73C107.103 0.0028459 107.46 0.154733 107.723 0.424652C107.987 0.694571 108.136 1.06056 108.137 1.44261V66.2686C108.136 66.6511 107.988 67.0177 107.724 67.2882C107.461 67.5586 107.103 67.7108 106.73 67.7115ZM63.36 0.0637534C63.1826 0.0624553 63.0067 0.0971436 62.8424 0.165826C62.6781 0.234508 62.5286 0.33583 62.4026 0.463966C62.2766 0.592102 62.1765 0.744524 62.1081 0.912474C62.0397 1.08042 62.0043 1.26059 62.004 1.44261V66.2686C62.004 66.635 62.1459 66.9863 62.3984 67.2454C62.6509 67.5044 62.9933 67.6499 63.3504 67.6499H106.73C107.087 67.6499 107.43 67.5044 107.682 67.2454C107.935 66.9863 108.077 66.635 108.077 66.2686V1.44261C108.077 1.07626 107.935 0.724919 107.682 0.465871C107.43 0.206823 107.087 0.0612906 106.73 0.0612906L63.36 0.0637534Z" fill="#F0F0F0"/>
<path d="M56.7072 67.7116H13.3272C12.9544 67.711 12.597 67.5587 12.3334 67.2883C12.0698 67.0178 11.9214 66.6512 11.9208 66.2688V1.44275C11.9214 1.06028 12.0698 0.693657 12.3334 0.423206C12.597 0.152755 12.9544 0.000528952 13.3272 -0.00012207H56.7072C57.08 0.000528952 57.4373 0.152755 57.701 0.423206C57.9646 0.693657 58.1129 1.06028 58.1136 1.44275V66.2688C58.1129 66.6512 57.9646 67.0178 57.701 67.2883C57.4373 67.5587 57.08 67.711 56.7072 67.7116ZM13.3272 0.0638968C12.9705 0.0638963 12.6284 0.20909 12.376 0.467605C12.1235 0.726121 11.9814 1.07683 11.9808 1.44275V66.2688C11.9808 66.6351 12.1226 66.9865 12.3751 67.2455C12.6276 67.5045 12.9701 67.6501 13.3272 67.6501H56.7072C57.0643 67.6501 57.4067 67.5045 57.6592 67.2455C57.9117 66.9865 58.0536 66.6351 58.0536 66.2688V1.44275C58.0536 1.07641 57.9117 0.725062 57.6592 0.466014C57.4067 0.206967 57.0643 0.0614341 56.7072 0.0614341L13.3272 0.0638968Z" fill="#F0F0F0"/>
<path d="M120 82.7485H0V82.8095H120V82.7485Z" fill="#F0F0F0"/>
<path d="M83.6737 22.6797L82.6009 31.4428L75.1321 23.7803L83.6737 22.6797Z" fill="#F5F5F5"/>
<path d="M66.4919 42.4835L81.5975 26.9861L79.3919 24.7208L66.4919 37.9579V42.4835Z" fill="#F5F5F5"/>
<path d="M26.5151 55.1345C26.936 55.9641 27.1694 56.8802 27.1983 57.815C27.2272 58.7498 27.0507 59.6792 26.6819 60.5345C26.3131 61.3898 25.7615 62.149 25.0679 62.7559C24.3743 63.3628 23.5566 63.8018 22.6751 64.0404C21.6802 64.3107 20.6345 64.3166 19.6367 64.0577C19.4975 64.0207 19.3559 63.9789 19.2191 63.9321C18.6099 63.7245 18.0365 63.4195 17.5199 63.0285C17.4191 62.9521 17.3183 62.8709 17.2223 62.7822C16.611 62.2567 16.1069 61.6124 15.7391 60.8863C15.7055 60.8174 15.6719 60.7484 15.6407 60.677C15.2258 59.7727 15.0288 58.7792 15.0663 57.7804C15.1038 56.7816 15.3748 55.8067 15.8563 54.9378C16.3379 54.0689 17.016 53.3314 17.8335 52.7876C18.6509 52.2438 19.5838 51.9095 20.5535 51.8129C20.6999 51.7982 20.8463 51.7908 20.9927 51.7858C21.6269 51.7733 22.2592 51.8614 22.8671 52.0468C23.0015 52.0887 23.1335 52.133 23.2631 52.1823C23.7286 52.3623 24.171 52.5996 24.5807 52.8889C25.3348 53.4213 25.961 54.1227 26.4119 54.94C26.4455 54.9991 26.4815 55.0655 26.5151 55.1345Z" fill="#F5F5F5"/>
<path d="M25.5337 55.9175C25.4713 55.8091 25.4065 55.7033 25.3369 55.5998C25.0313 55.143 24.6533 54.7418 24.2185 54.413C23.7827 54.085 23.2958 53.8352 22.7785 53.6744C22.6469 53.6303 22.5131 53.5933 22.3777 53.5636C21.7467 53.419 21.0939 53.4056 20.4577 53.5242C20.2959 53.5534 20.1357 53.5912 19.9777 53.6374C19.3036 53.8369 18.6796 54.1837 18.1485 54.654C17.6173 55.1243 17.1917 55.7069 16.9007 56.3619C16.6098 57.0168 16.4605 57.7287 16.463 58.4484C16.4655 59.1682 16.6198 59.8789 16.9153 60.5317L16.8073 60.3298C16.5119 59.7483 16.3309 59.1127 16.2749 58.4595C16.2188 57.8062 16.2887 57.148 16.4806 56.5224C16.6725 55.8968 16.9826 55.3162 17.3932 54.8136C17.8038 54.311 18.3069 53.8962 18.8737 53.5931C19.4406 53.29 20.0601 53.1043 20.6968 53.0468C21.3336 52.9893 21.9752 53.061 22.5849 53.2579C23.1946 53.4548 23.7606 53.7729 24.2505 54.1942C24.7404 54.6154 25.1447 55.1316 25.4401 55.7131C25.4689 55.7796 25.5001 55.8584 25.5337 55.9175Z" fill="#E0E0E0"/>
<g opacity="0.3">
<path d="M23.3664 62.4326C23.316 62.4597 23.2656 62.4868 23.2128 62.5114C23.16 62.5385 23.1096 62.5631 23.0544 62.5853L23.016 62.6025C22.956 62.6296 22.8984 62.6517 22.8408 62.6739H22.8168C22.628 62.7465 22.4348 62.8065 22.2384 62.8536C22.1736 62.8684 22.1064 62.8856 22.0416 62.8955C21.9096 62.9226 21.7776 62.9423 21.6432 62.9571L21.5136 62.9694H21.444H21.3408C21.288 62.9694 21.2352 62.9694 21.18 62.9694C21.1248 62.9694 21.0432 62.9694 20.9736 62.9694C20.904 62.9694 20.8368 62.9694 20.7696 62.9571C20.7024 62.9447 20.6568 62.9571 20.6016 62.9423L20.4912 62.9275L20.4024 62.9152L20.3016 62.898L20.136 62.866L19.9944 62.8315H19.9632L19.7616 62.7773L19.5744 62.7158L19.464 62.6739L19.3536 62.632L19.248 62.5877L19.1352 62.536L19.0272 62.4843L18.9216 62.4301C18.8496 62.3932 18.7776 62.3538 18.7056 62.3095L18.6192 62.2578C18.5472 62.2135 18.48 62.1691 18.4104 62.1199L18.3144 62.051C18.2112 61.9771 18.1104 61.8958 18.0144 61.8047L17.9376 61.7358C17.88 61.6841 17.8248 61.6348 17.772 61.5807C17.7168 61.5265 17.664 61.4699 17.6112 61.4132L17.5392 61.3344L17.5056 61.295L17.4312 61.2089V61.1941C17.4028 61.1622 17.3764 61.1284 17.352 61.0931C17.3212 61.0571 17.2923 61.0193 17.2656 60.9799C17.2368 60.9429 17.2104 60.9035 17.184 60.8641C17.1576 60.8247 17.1408 60.8026 17.1216 60.7706L17.0808 60.709L17.028 60.6229L16.956 60.4997C16.6605 59.8469 16.5062 59.1362 16.5037 58.4164C16.5012 57.6967 16.6505 56.9849 16.9414 56.3299C17.2324 55.6749 17.658 55.0923 18.1892 54.622C18.7203 54.1517 19.3443 53.8049 20.0184 53.6054C20.1764 53.5592 20.3366 53.5214 20.4984 53.4922C21.1346 53.3736 21.7874 53.387 22.4184 53.5316C22.5538 53.5613 22.6876 53.5983 22.8192 53.6424C23.3365 53.8032 23.8234 54.053 24.2592 54.3811C24.694 54.7098 25.072 55.111 25.3776 55.5679C25.4472 55.6713 25.512 55.7771 25.5744 55.8855C26.104 57.0578 26.1698 58.3951 25.758 59.6161C25.3462 60.8371 24.4889 61.8468 23.3664 62.4326Z" fill="black"/>
</g>
<path d="M23.3664 62.4326C23.316 62.4597 23.2656 62.4867 23.2128 62.5114C23.16 62.5385 23.1096 62.5631 23.0544 62.5852L23.016 62.6025C22.956 62.6296 22.8984 62.6517 22.8408 62.6739H22.8168C22.628 62.7465 22.4348 62.8065 22.2384 62.8536C22.1736 62.8684 22.1064 62.8856 22.0416 62.8955C21.9096 62.9226 21.7776 62.9423 21.6432 62.957H21.5904H21.5112H21.4416H21.3384C21.2856 62.957 21.2328 62.957 21.1776 62.957C21.1224 62.957 21.0408 62.957 20.9712 62.957C20.9016 62.957 20.8344 62.957 20.7672 62.9447C20.7 62.9324 20.6544 62.9447 20.5992 62.93L20.4888 62.9152L20.4 62.9029L20.2992 62.8856L20.1336 62.8536L19.992 62.8192H19.9608L19.7592 62.765L19.572 62.7034L19.4616 62.6616L19.3512 62.6197L19.2456 62.5754L19.1328 62.5237L19.0248 62.472L18.9192 62.4178C18.8472 62.3809 18.7752 62.3415 18.7032 62.2972L18.6168 62.2455C18.5448 62.2011 18.4776 62.1568 18.408 62.1076L18.312 62.0386C18.2088 61.9648 18.108 61.8835 18.012 61.7924L17.9352 61.7235C17.8776 61.6718 17.8224 61.6225 17.7696 61.5683C17.7144 61.5142 17.6616 61.4575 17.6088 61.4009L17.5368 61.3221L17.5032 61.2827L17.4288 61.1965V61.1818C17.4004 61.1498 17.3739 61.1161 17.3496 61.0808C17.3187 61.0447 17.2899 61.0069 17.2632 60.9675C17.2344 60.9306 17.208 60.8912 17.1816 60.8518C17.1552 60.8124 17.1384 60.7903 17.1192 60.7583L17.0784 60.6967L17.0256 60.6105L16.9536 60.4874C16.6581 59.8346 16.5038 59.1239 16.5013 58.4041C16.4987 57.6843 16.6481 56.9725 16.939 56.3176C17.2299 55.6626 17.6556 55.08 18.1867 54.6097C18.7179 54.1394 19.3419 53.7926 20.016 53.5931C20.174 53.5469 20.3342 53.5091 20.496 53.4799C21.1321 53.3613 21.785 53.3747 22.416 53.5193C22.5514 53.549 22.6852 53.586 22.8168 53.6301C23.3341 53.7909 23.821 54.0407 24.2568 54.3687C24.6916 54.6975 25.0696 55.0987 25.3752 55.5555C25.4448 55.6589 25.5096 55.7648 25.572 55.8732C26.1054 57.0465 26.1735 58.3865 25.762 59.6104C25.3505 60.8343 24.4915 61.8462 23.3664 62.4326Z" fill="#F0F0F0"/>
<path d="M22.9968 60.2018L23.3688 60.9404L22.4592 61.4329L22.104 60.7312C21.5136 61.019 20.8664 61.1631 20.2128 61.1522L20.124 59.7536C20.7186 59.7783 21.3095 59.6461 21.84 59.3695C22.272 59.1381 22.3776 58.9633 22.2984 58.8057C22.0032 58.2221 19.7448 60.0245 18.8688 58.2985C18.4896 57.5598 18.7008 56.6389 19.68 55.9224L19.3152 55.2009L20.2248 54.7085L20.5824 55.4176C21.0565 55.2144 21.5662 55.113 22.08 55.1197L22.1952 56.4936C21.6968 56.4848 21.2034 56.5971 20.7552 56.8211C20.3088 57.0673 20.2344 57.2668 20.316 57.4268C20.5968 57.9833 22.8576 56.1957 23.724 57.8922C24.0936 58.5988 23.9064 59.4877 22.9968 60.2018Z" fill="#E0E0E0"/>
<path d="M22.8455 59.9704L23.2175 60.709L22.3103 61.2015L21.9527 60.5022C21.3614 60.7875 20.7148 60.9314 20.0615 60.9233L19.9751 59.5247C20.5645 59.5492 21.1504 59.4213 21.6791 59.1529C22.1111 58.9214 22.2191 58.7466 22.1375 58.5866C21.8399 57.9932 19.5863 59.798 18.7199 58.0744C18.3407 57.3358 18.5495 56.4173 19.5311 55.7008L19.1639 54.9794L20.0735 54.4869L20.4335 55.1936C20.9051 54.9852 21.4128 54.8763 21.9263 54.8735L22.0439 56.2499C21.5453 56.24 21.0517 56.3523 20.6039 56.5774C20.1599 56.8236 20.0831 57.0231 20.1647 57.1806C20.4455 57.7371 22.7063 55.9495 23.5727 57.6485C23.9423 58.3674 23.7599 59.2588 22.8455 59.9704Z" fill="#F5F5F5"/>
<path d="M100.205 35.2765C99.8916 36.4352 99.2582 37.4763 98.3811 38.2739C97.504 39.0715 96.4207 39.5917 95.2618 39.7716C94.1029 39.9515 92.918 39.7834 91.8502 39.2877C90.7823 38.792 89.8772 37.9897 89.2439 36.9779C89.1647 36.8523 89.0903 36.7317 89.0207 36.5913C88.712 36.0119 88.4942 35.3862 88.3751 34.7372C88.3535 34.6092 88.3343 34.491 88.3175 34.3507C88.2223 33.5386 88.2843 32.7152 88.4999 31.9278C88.5191 31.8539 88.5407 31.7801 88.5647 31.7062C88.8617 30.7521 89.3783 29.8855 90.0709 29.1797C90.7635 28.4739 91.6116 27.9496 92.5435 27.6513C93.4754 27.353 94.4636 27.2894 95.4245 27.4659C96.3855 27.6424 97.2908 28.0538 98.0639 28.6653C98.1791 28.7564 98.2919 28.8525 98.3999 28.9534C98.8744 29.3872 99.2794 29.8948 99.5999 30.4578C99.6695 30.581 99.7367 30.7041 99.7991 30.8346C100.02 31.2906 100.185 31.7727 100.291 32.2701C100.403 32.792 100.449 33.3267 100.426 33.8607C100.409 34.2624 100.354 34.6615 100.262 35.0524C100.243 35.1287 100.224 35.2026 100.205 35.2765Z" fill="#F5F5F5"/>
<path d="M98.9664 35.1607C98.9928 35.0376 99.0168 34.9144 99.0336 34.7913C99.1162 34.2439 99.1073 33.686 99.0072 33.1416C98.9095 32.5956 98.7229 32.0704 98.4552 31.5879C98.388 31.4648 98.3136 31.3417 98.2368 31.226C97.8709 30.6782 97.4026 30.2104 96.8592 29.8496C96.7224 29.7634 96.5832 29.6797 96.4392 29.6034C96.1506 29.4534 95.8484 29.333 95.5368 29.2439C94.3331 28.9003 93.0467 29.0455 91.9447 29.6494C90.8426 30.2532 90.0095 31.2693 89.6184 32.4867C89.6376 32.4128 89.6544 32.3389 89.6736 32.2651C90.0196 30.9917 90.8444 29.9114 91.9667 29.2619C93.089 28.6125 94.4168 28.447 95.658 28.8019C96.8992 29.1568 97.9522 30.0031 98.5852 31.1545C99.2183 32.3059 99.3796 33.6681 99.0336 34.9415L98.9664 35.1607Z" fill="#E0E0E0"/>
<g opacity="0.3">
<path d="M93.0482 38.4011L92.8826 38.3518L92.717 38.2952L92.6762 38.2804L92.5034 38.2115H92.477C92.2914 38.1315 92.111 38.0394 91.937 37.9357C91.8794 37.9013 91.8194 37.8668 91.7642 37.8298C91.649 37.756 91.541 37.6772 91.433 37.5959L91.3321 37.5147L91.277 37.4679L91.2002 37.3916C91.1594 37.3546 91.1186 37.3202 91.0802 37.2808L90.9314 37.1355C90.8834 37.0862 90.8354 37.0345 90.7898 36.9828C90.7442 36.9311 90.713 36.8991 90.677 36.8523C90.641 36.8056 90.629 36.7957 90.6074 36.7662L90.5498 36.6947L90.4874 36.611C90.4538 36.5667 90.4202 36.5199 90.389 36.4731C90.3578 36.4264 90.3338 36.3919 90.3074 36.3476L90.2882 36.3205L90.1777 36.1383L90.0842 35.9635C90.065 35.9265 90.0482 35.8896 90.0314 35.8551C90.0146 35.8207 89.9954 35.7813 89.9786 35.7443C89.9618 35.7074 89.9474 35.6754 89.9306 35.6384C89.9138 35.6015 89.897 35.5621 89.8826 35.5227L89.8393 35.4095C89.8249 35.3725 89.8106 35.3356 89.7986 35.2962C89.7698 35.2174 89.7433 35.1386 89.7193 35.05L89.6906 34.949C89.669 34.8702 89.6498 34.7865 89.6306 34.7028C89.6306 34.6634 89.6137 34.624 89.6065 34.5846C89.5801 34.4566 89.561 34.3384 89.5442 34.2005C89.5442 34.166 89.5442 34.1316 89.5442 34.0971C89.5442 34.0208 89.5298 33.9444 89.5274 33.8656C89.5274 33.7868 89.5274 33.7105 89.5274 33.6342V33.5258C89.5274 33.5061 89.5274 33.4889 89.5274 33.4717C89.5274 33.4544 89.5274 33.3953 89.5274 33.3559C89.5264 33.3502 89.5264 33.3444 89.5274 33.3387C89.5274 33.2968 89.5274 33.2525 89.5274 33.2107L89.5418 33.0679C89.5418 33.0186 89.5418 32.9718 89.5586 32.9251C89.5754 32.8783 89.5586 32.8512 89.5754 32.8118C89.5922 32.7724 89.5754 32.765 89.5754 32.7404C89.5754 32.7158 89.5874 32.6739 89.5946 32.6394L89.6234 32.4991C90.0145 31.2817 90.8475 30.2656 91.9496 29.6618C93.0517 29.0579 94.3381 28.9127 95.5418 29.2563C95.8533 29.3454 96.1556 29.4658 96.4442 29.6158C96.5882 29.6921 96.7274 29.7758 96.8642 29.862C97.4076 30.2228 97.8758 30.6907 98.2418 31.2384C98.3186 31.3541 98.393 31.4846 98.4602 31.6004C98.7278 32.0828 98.9144 32.608 99.0121 33.154C99.1122 33.6984 99.1212 34.2563 99.0386 34.8037C99.0218 34.9269 98.9978 35.05 98.9714 35.1731C98.5769 36.3885 97.7418 37.4016 96.6391 38.0025C95.5364 38.6035 94.2506 38.7462 93.0482 38.4011Z" fill="black"/>
</g>
<path d="M93.0482 38.4011L92.8826 38.3518L92.717 38.2952L92.6762 38.2804L92.5034 38.2115H92.477C92.2914 38.1315 92.111 38.0394 91.937 37.9357C91.8794 37.9013 91.8194 37.8668 91.7642 37.8298C91.649 37.756 91.541 37.6772 91.433 37.5959L91.3898 37.5615C91.3687 37.5464 91.3487 37.53 91.3298 37.5122L91.2746 37.4654L91.2002 37.3916C91.1594 37.3546 91.1186 37.3202 91.0802 37.2808L90.9314 37.1355C90.8834 37.0862 90.8354 37.0345 90.7898 36.9828C90.7442 36.9311 90.713 36.8991 90.677 36.8523C90.641 36.8056 90.629 36.7957 90.6074 36.7662L90.5498 36.6947L90.4874 36.611C90.4538 36.5667 90.4202 36.5199 90.389 36.4731C90.3578 36.4264 90.3338 36.3919 90.3074 36.3476L90.2882 36.3205L90.1777 36.1383L90.0842 35.9635C90.065 35.9265 90.0482 35.8896 90.0314 35.8551C90.0146 35.8207 89.9954 35.7813 89.9786 35.7443C89.9618 35.7074 89.9474 35.6754 89.9306 35.6384C89.9138 35.6015 89.897 35.5621 89.8826 35.5227L89.8393 35.4095C89.8249 35.3725 89.8106 35.3356 89.7986 35.2962C89.7698 35.2174 89.7433 35.1386 89.7193 35.05L89.6906 34.949C89.669 34.8702 89.6498 34.7865 89.6306 34.7028C89.6306 34.6634 89.6137 34.624 89.6065 34.5846C89.5801 34.4566 89.561 34.3384 89.5442 34.2005C89.5442 34.166 89.5442 34.1316 89.5442 34.0971C89.5442 34.0208 89.5298 33.9444 89.5274 33.8656C89.5274 33.7868 89.5274 33.7105 89.5274 33.6342V33.5258C89.5274 33.5061 89.5274 33.4889 89.5274 33.4717C89.5274 33.4544 89.5274 33.3953 89.5274 33.3559C89.5264 33.3502 89.5264 33.3444 89.5274 33.3387C89.5274 33.2968 89.5274 33.2525 89.5274 33.2107L89.5418 33.0679C89.5418 33.0186 89.5418 32.9718 89.5586 32.9251C89.5754 32.8783 89.5586 32.8512 89.5754 32.8118C89.5922 32.7724 89.5754 32.765 89.5754 32.7404C89.5754 32.7158 89.5874 32.6739 89.5946 32.6394L89.6234 32.4991C90.0145 31.2817 90.8475 30.2656 91.9496 29.6618C93.0517 29.0579 94.3381 28.9127 95.5418 29.2563C95.8533 29.3454 96.1556 29.4658 96.4442 29.6158C96.5882 29.6921 96.7274 29.7758 96.8642 29.862C97.4076 30.2228 97.8758 30.6907 98.2418 31.2384C98.3186 31.3541 98.393 31.4846 98.4602 31.6004C98.7278 32.0828 98.9144 32.608 99.0121 33.154C99.1122 33.6984 99.1212 34.2563 99.0386 34.8037C99.0218 34.9269 98.9978 35.05 98.9714 35.1731C98.5769 36.3885 97.7418 37.4016 96.6391 38.0025C95.5364 38.6035 94.2506 38.7462 93.0482 38.4011Z" fill="#F0F0F0"/>
<path d="M94.2625 36.5125L94.0465 37.3078L93.0577 37.0271L93.2665 36.2663C92.6434 36.0615 92.0744 35.7128 91.6033 35.2469L92.4697 34.1635C92.8835 34.5955 93.397 34.9131 93.9625 35.0869C94.4425 35.2198 94.6273 35.1681 94.6825 34.9958C94.8529 34.363 92.0041 34.0995 92.5225 32.2233C92.7433 31.4108 93.5017 30.8937 94.6945 31.0562L94.9081 30.2732L95.8945 30.5564L95.6857 31.3246C96.1721 31.5048 96.6173 31.7856 96.9937 32.1494L96.1633 33.2353C95.8078 32.8807 95.375 32.6182 94.9009 32.4695C94.4209 32.3316 94.2241 32.4326 94.1809 32.6049C94.0177 33.2082 96.8641 33.479 96.3601 35.3331C96.1297 36.1087 95.4001 36.6282 94.2625 36.5125Z" fill="#E0E0E0"/>
<path d="M94.3057 36.2392L94.0897 37.0345L93.1009 36.7538L93.3097 35.9905C92.6863 35.7875 92.1171 35.4395 91.6465 34.9736L92.5153 33.8902C92.9278 34.3226 93.4407 34.6403 94.0057 34.8136C94.4857 34.9465 94.6705 34.8948 94.7257 34.7225C94.8961 34.0897 92.0497 33.8262 92.5657 31.95C92.7865 31.1374 93.5449 30.6204 94.7401 30.7829L94.9513 29.9999L95.9401 30.283L95.7289 31.0513C96.2157 31.2321 96.6616 31.5127 97.0393 31.8761L96.1921 32.9595C95.8366 32.605 95.4038 32.3425 94.9297 32.1937C94.4497 32.0559 94.2529 32.1568 94.2097 32.3292C94.0465 32.9324 96.8929 33.2033 96.3889 35.0573C96.1729 35.8354 95.4433 36.3549 94.3057 36.2392Z" fill="#F5F5F5"/>
<path d="M36.492 13.5791L35.4168 22.3422L27.9504 14.6822L36.492 13.5791Z" fill="#F5F5F5"/>
<path d="M11.9856 40.8978L34.416 17.8856L32.2104 15.6228L11.9856 36.3721V40.8978Z" fill="#F5F5F5"/>
<path d="M21.12 6.29829C21.12 6.34183 21.1116 6.38494 21.0953 6.42513C21.079 6.46532 21.0551 6.5018 21.025 6.53247C20.9949 6.56314 20.9591 6.58739 20.9198 6.60383C20.8805 6.62027 20.8385 6.62856 20.796 6.62823H19.5192V7.94307C19.5123 8.02598 19.4752 8.10318 19.4155 8.15943C19.3557 8.21569 19.2775 8.24689 19.1964 8.24689C19.1153 8.24689 19.0372 8.21569 18.9774 8.15943C18.9176 8.10318 18.8806 8.02598 18.8736 7.94307V6.62823H17.592C17.5088 6.62569 17.4298 6.59014 17.3716 6.52907C17.3135 6.46799 17.2806 6.38616 17.28 6.30076C17.28 6.21325 17.3139 6.12933 17.3742 6.06745C17.4345 6.00558 17.5163 5.97081 17.6016 5.97081H18.8832V4.64366C18.8902 4.56076 18.9272 4.48356 18.987 4.42731C19.0468 4.37105 19.1249 4.33984 19.206 4.33984C19.2871 4.33984 19.3653 4.37105 19.4251 4.42731C19.4848 4.48356 19.5219 4.56076 19.5288 4.64366V5.9585H20.8104C20.8953 5.96171 20.9755 5.99925 21.0335 6.06291C21.0915 6.12657 21.1226 6.21119 21.12 6.29829Z" fill="#F5F5F5"/>
<path d="M102.127 9.35886C102.127 9.4024 102.119 9.4455 102.102 9.48569C102.086 9.52589 102.062 9.56237 102.032 9.59304C102.002 9.62371 101.966 9.64796 101.927 9.6644C101.888 9.68083 101.846 9.68912 101.803 9.6888H100.522V11.0036C100.525 11.0495 100.52 11.0957 100.505 11.1393C100.491 11.1829 100.468 11.223 100.437 11.2569C100.407 11.2909 100.37 11.318 100.329 11.3365C100.288 11.3551 100.244 11.3646 100.199 11.3646C100.154 11.3646 100.109 11.3551 100.068 11.3365C100.027 11.318 99.9903 11.2909 99.96 11.2569C99.9296 11.223 99.9065 11.1829 99.892 11.1393C99.8775 11.0957 99.872 11.0495 99.8759 11.0036V9.69126H98.5943C98.509 9.69126 98.4272 9.6565 98.3669 9.59462C98.3066 9.53275 98.2727 9.44883 98.2727 9.36132C98.2733 9.27402 98.3074 9.19047 98.3676 9.12873C98.4278 9.06699 98.5092 9.03203 98.5943 9.03138H99.8759V7.71654C99.8829 7.63364 99.9199 7.55644 99.9797 7.50018C100.039 7.44393 100.118 7.41272 100.199 7.41272C100.28 7.41272 100.358 7.44393 100.418 7.50018C100.478 7.55644 100.515 7.63364 100.522 7.71654V9.03138H101.803C101.888 9.03137 101.97 9.06571 102.031 9.12699C102.091 9.18827 102.126 9.27156 102.127 9.35886Z" fill="#F5F5F5"/>
<path d="M78.0001 52.6573C77.9994 52.7451 77.965 52.829 77.9043 52.8908C77.8436 52.9526 77.7616 52.9873 77.6761 52.9873H76.3921V54.3021C76.3959 54.348 76.3904 54.3942 76.376 54.4378C76.3615 54.4814 76.3384 54.5215 76.308 54.5554C76.2777 54.5894 76.2408 54.6165 76.1997 54.635C76.1586 54.6535 76.1142 54.6631 76.0693 54.6631C76.0244 54.6631 75.98 54.6535 75.9389 54.635C75.8978 54.6165 75.8609 54.5894 75.8305 54.5554C75.8002 54.5215 75.777 54.4814 75.7626 54.4378C75.7481 54.3942 75.7426 54.348 75.7465 54.3021V52.9873H74.4649C74.3793 52.9873 74.2973 52.9526 74.2366 52.8908C74.1759 52.829 74.1415 52.7451 74.1409 52.6573C74.1421 52.5698 74.1767 52.4863 74.2373 52.4246C74.2979 52.3629 74.3795 52.328 74.4649 52.3274H75.7465V51.0126C75.7534 50.9297 75.7905 50.8525 75.8502 50.7962C75.91 50.7399 75.9882 50.7087 76.0693 50.7087C76.1504 50.7087 76.2285 50.7399 76.2883 50.7962C76.3481 50.8525 76.3851 50.9297 76.3921 51.0126V52.3274H77.6737C77.7594 52.3274 77.8417 52.362 77.9028 52.4237C77.9639 52.4855 77.9988 52.5694 78.0001 52.6573Z" fill="#F5F5F5"/>
<path d="M102.509 20.6483C102.053 19.5551 100.901 17.5114 98.5199 16.955C96.3431 16.4453 94.6967 19.2695 93.3479 19.4763C91.9991 19.6831 92.1479 19.0602 89.4455 18.0211C87.1367 17.1298 85.5887 19.4443 85.0391 20.6483H102.509Z" fill="#F5F5F5"/>
<path d="M53.8222 8.01436C53.8222 8.01436 53.8222 5.5275 51.4414 5.42162C50.3014 5.37238 48.9118 6.32772 48.0334 4.81591C47.0134 3.06032 45.2302 2.01387 43.6246 2.69345C41.851 3.43213 40.8454 6.3228 39.1126 6.08643C37.3798 5.85005 34.0726 4.66817 32.3662 8.01436H53.8222Z" fill="#F5F5F5"/>
<path d="M59.3976 89.9999C87.4978 89.9999 110.278 89.3308 110.278 88.5053C110.278 87.6799 87.4978 87.0107 59.3976 87.0107C31.2973 87.0107 8.51758 87.6799 8.51758 88.5053C8.51758 89.3308 31.2973 89.9999 59.3976 89.9999Z" fill="#F0F0F0"/>
<path d="M88.7233 77.0658C89.2062 78.542 89.3085 80.1214 89.0202 81.6502C88.7319 83.179 88.0627 84.6052 87.0779 85.7901C86.0931 86.975 84.8261 87.8782 83.4002 88.4118C81.9743 88.9454 80.438 89.0913 78.9409 88.8353C78.2582 88.7153 77.5913 88.5145 76.9537 88.237C76.7593 88.1508 76.5673 88.0597 76.3801 87.9612C75.5511 87.5256 74.7952 86.957 74.1409 86.277C74.0113 86.1441 73.8865 86.0062 73.7665 85.8658C73.0091 84.9733 72.4302 83.9367 72.0625 82.8151C72.0289 82.7092 71.9953 82.6034 71.9665 82.495C71.5677 81.106 71.5007 79.639 71.7709 78.2178C72.0411 76.7966 72.6407 75.463 73.5191 74.3296C74.3974 73.1962 75.5287 72.2963 76.8174 71.7059C78.1061 71.1154 79.5143 70.8518 80.9233 70.9372C81.1369 70.952 81.3457 70.9717 81.5569 71.0013C82.4668 71.1266 83.3519 71.3975 84.1801 71.804C84.3601 71.8926 84.5401 71.9886 84.7153 72.0896C86.5076 73.1255 87.8874 74.7756 88.6129 76.7506C88.6513 76.854 88.6873 76.9599 88.7233 77.0658Z" fill="#407BFF"/>
<path d="M88.7233 77.0658C89.2062 78.542 89.3085 80.1214 89.0202 81.6502C88.7319 83.179 88.0627 84.6052 87.0779 85.7901C86.0931 86.975 84.8261 87.8782 83.4002 88.4118C81.9743 88.9454 80.438 89.0913 78.9409 88.8353C78.2582 88.7153 77.5913 88.5145 76.9537 88.237C76.7593 88.1508 76.5673 88.0597 76.3801 87.9612C75.5511 87.5256 74.7952 86.957 74.1409 86.277C74.0113 86.1441 73.8865 86.0062 73.7665 85.8658C73.0091 84.9733 72.4302 83.9367 72.0625 82.8151C72.0289 82.7092 71.9953 82.6034 71.9665 82.495C71.5677 81.106 71.5007 79.639 71.7709 78.2178C72.0411 76.7966 72.6407 75.463 73.5191 74.3296C74.3974 73.1962 75.5287 72.2963 76.8174 71.7059C78.1061 71.1154 79.5143 70.8518 80.9233 70.9372C81.1369 70.952 81.3457 70.9717 81.5569 71.0013C82.4668 71.1266 83.3519 71.3975 84.1801 71.804C84.3601 71.8926 84.5401 71.9886 84.7153 72.0896C86.5076 73.1255 87.8874 74.7756 88.6129 76.7506C88.6513 76.854 88.6873 76.9599 88.7233 77.0658Z" fill="#407BFF"/>
<path opacity="0.6" d="M87.1488 77.9571C87.084 77.7872 87.0144 77.6222 86.9376 77.4646C86.2573 76.0077 85.1197 74.8275 83.7072 74.1135C83.5272 74.0224 83.3448 73.9387 83.1576 73.8673C82.2869 73.5172 81.3565 73.3497 80.4216 73.3748C80.1881 73.3798 79.955 73.3971 79.7232 73.4265C79.2593 73.4865 78.8026 73.5946 78.36 73.7491C76.6481 74.3418 75.2241 75.5876 74.3832 77.2282C73.5422 78.8689 73.3489 80.7785 73.8432 82.5615L73.7352 82.2512C73.4305 81.3516 73.3026 80.3989 73.3589 79.4483C73.4152 78.4976 73.6546 77.5678 74.0633 76.7127C74.472 75.8575 75.0418 75.094 75.7399 74.4661C76.438 73.8383 77.2504 73.3586 78.1302 73.0549C79.0101 72.7511 79.9399 72.6293 80.8659 72.6964C81.7919 72.7635 82.6958 73.0183 83.5253 73.446C84.3547 73.8737 85.0934 74.4658 85.6984 75.1881C86.3035 75.9104 86.763 76.7486 87.0504 77.6542C87.0864 77.7478 87.12 77.8537 87.1488 77.9571Z" fill="black"/>
<g opacity="0.3">
<path d="M82.6322 86.7694C82.553 86.799 82.4738 86.8236 82.3922 86.8482L82.1522 86.9172L82.0922 86.9344L81.8282 86.996H81.7898C81.5047 87.0563 81.2161 87.0974 80.9258 87.1191C80.8274 87.1191 80.7314 87.1338 80.633 87.1338C80.4386 87.1338 80.2466 87.1338 80.0522 87.1338L79.865 87.1215H79.7642L79.6154 87.1043C79.5386 87.1043 79.4586 87.0944 79.3754 87.0748C79.277 87.06 79.181 87.0452 79.0826 87.023C78.9842 87.0009 78.8882 86.9837 78.7922 86.9615C78.6962 86.9393 78.6338 86.9221 78.5522 86.8975L78.3986 86.8532L78.2762 86.8162L78.1346 86.767L77.9066 86.6833C77.8394 86.6586 77.7746 86.6315 77.7098 86.602L77.6666 86.5848C77.5754 86.5429 77.4818 86.5035 77.3906 86.4592C77.2994 86.4149 77.2226 86.3755 77.1386 86.3287H77.1242L76.973 86.245L76.8266 86.1563L76.685 86.0702L76.5338 85.9717L76.3922 85.8732L76.253 85.7722C76.157 85.7008 76.0634 85.6269 75.9698 85.5482L75.857 85.4546C75.7658 85.3758 75.677 85.2937 75.5906 85.2084L75.4658 85.0877C75.3362 84.9572 75.2114 84.8193 75.0914 84.679L74.9954 84.5633C74.9258 84.4771 74.8586 84.3934 74.7914 84.3023V84.29C74.7266 84.2013 74.6618 84.1102 74.6018 84.0166L74.5154 83.8886L74.4746 83.8221C74.4458 83.7753 74.417 83.7286 74.3906 83.6818L74.3762 83.6596C74.345 83.6079 74.3138 83.5513 74.285 83.4971C74.2562 83.4429 74.2178 83.3765 74.189 83.3149C74.1602 83.2533 74.1242 83.1943 74.0954 83.1327C74.0666 83.0711 74.0498 83.0342 74.0258 82.9825C74.0018 82.9308 73.997 82.9185 73.985 82.8865C73.9634 82.8425 73.9441 82.7973 73.9274 82.751L73.8482 82.5565C73.3539 80.7736 73.5473 78.8639 74.3882 77.2233C75.2291 75.5826 76.6531 74.3369 78.365 73.7442C78.8076 73.5896 79.2644 73.4815 79.7282 73.4216C79.96 73.3921 80.1931 73.3749 80.4266 73.3699C81.3615 73.3448 82.2919 73.5122 83.1626 73.8623C83.3498 73.9362 83.5322 74.0199 83.7122 74.1086C85.1247 74.8226 86.2623 76.0028 86.9426 77.4597C87.0194 77.6222 87.089 77.7872 87.1538 77.9521C87.6499 79.7364 87.4569 81.6481 86.6148 83.2901C85.7728 84.9322 84.3465 86.1782 82.6322 86.7694Z" fill="black"/>
</g>
<g opacity="0.6">
<path d="M82.5887 83.4946L82.9607 84.6297L81.5567 85.1222L81.2015 84.0388C80.2943 84.3131 79.338 84.3712 78.4055 84.2087L78.5855 82.1872C79.4228 82.36 80.2891 82.3117 81.1031 82.0468C81.7703 81.8178 81.9623 81.5913 81.8831 81.3451C81.5879 80.4464 77.9687 82.5024 77.0951 79.8357C76.7159 78.6809 77.2127 77.4277 78.7751 76.6348L78.4103 75.5194L79.8143 75.027L80.1743 76.1227C80.8987 75.9324 81.6534 75.8963 82.3919 76.0168L82.2575 78.0088C81.5511 77.8821 80.8254 77.9302 80.1407 78.1491C79.4519 78.3953 79.3007 78.6662 79.3799 78.9099C79.6631 79.7693 83.2847 77.7231 84.1487 80.3602C84.5063 81.4658 84.0431 82.6969 82.5887 83.4946Z" fill="black"/>
</g>
<path d="M82.4256 83.1326L82.7976 84.2677L81.3912 84.7601L81.036 83.6767C80.1286 83.9504 79.1723 84.0077 78.24 83.8442L78.4224 81.8251C79.259 81.9957 80.124 81.9474 80.9376 81.6848C81.6072 81.4533 81.7992 81.2268 81.7176 80.983C81.4224 80.0819 77.8032 82.1403 76.9296 79.4712C76.5504 78.3164 77.0496 77.0631 78.6096 76.2703L78.24 75.1426L79.6464 74.6501L80.004 75.7434C80.7286 75.5544 81.483 75.5184 82.2216 75.6375L82.0872 77.6319C81.3809 77.5059 80.6555 77.5531 79.9704 77.7698C79.2816 78.016 79.1304 78.2869 79.212 78.5331C79.4928 79.3924 83.1144 77.3438 83.9784 79.9834C84.3408 81.0938 83.88 82.3225 82.4256 83.1326Z" fill="#407BFF"/>
<path d="M40.9296 39.812C40.6305 41.1275 40.0473 42.3573 39.2231 43.4107C38.3989 44.4642 37.3547 45.3143 36.1675 45.8985C34.9803 46.4827 33.6804 46.786 32.3638 46.786C31.0471 46.786 29.7472 46.4828 28.56 45.8986C27.8478 45.549 27.1856 45.1008 26.592 44.5666C26.0712 44.0978 25.6056 43.5681 25.2048 42.9883C25.0824 42.811 24.9648 42.6288 24.8592 42.4441C24.3768 41.6274 24.0236 40.7373 23.8128 39.8071C23.772 39.6224 23.736 39.4402 23.7048 39.2531C23.5155 38.0858 23.5531 36.8917 23.8152 35.7394C23.8392 35.6311 23.8656 35.5227 23.8968 35.4169C24.2667 34.0191 24.9593 32.7332 25.9161 31.6681C26.8728 30.603 28.0655 29.7899 29.3933 29.2977C30.721 28.8054 32.1448 28.6485 33.5442 28.8402C34.9436 29.0319 36.2774 29.5665 37.4328 30.3988C37.6056 30.5244 37.7736 30.645 37.9368 30.7928C38.6484 31.3885 39.2639 32.0957 39.7608 32.8881C39.8688 33.0605 39.9744 33.2378 40.0704 33.4175C40.7848 34.7447 41.162 36.235 41.1672 37.7511C41.1663 38.3295 41.1125 38.9066 41.0064 39.4747C40.9752 39.5928 40.9536 39.7036 40.9296 39.812Z" fill="#407BFF"/>
<path d="M40.9296 39.812C40.6305 41.1275 40.0473 42.3573 39.2231 43.4107C38.3989 44.4642 37.3547 45.3143 36.1675 45.8985C34.9803 46.4827 33.6804 46.786 32.3638 46.786C31.0471 46.786 29.7472 46.4828 28.56 45.8986C27.8478 45.549 27.1856 45.1008 26.592 44.5666C26.0712 44.0978 25.6056 43.5681 25.2048 42.9883C25.0824 42.811 24.9648 42.6288 24.8592 42.4441C24.3768 41.6274 24.0236 40.7373 23.8128 39.8071C23.772 39.6224 23.736 39.4402 23.7048 39.2531C23.5155 38.0858 23.5531 36.8917 23.8152 35.7394C23.8392 35.6311 23.8656 35.5227 23.8968 35.4169C24.2667 34.0191 24.9593 32.7332 25.9161 31.6681C26.8728 30.603 28.0655 29.7899 29.3933 29.2977C30.721 28.8054 32.1448 28.6485 33.5442 28.8402C34.9436 29.0319 36.2774 29.5665 37.4328 30.3988C37.6056 30.5244 37.7736 30.645 37.9368 30.7928C38.6484 31.3885 39.2639 32.0957 39.7608 32.8881C39.8688 33.0605 39.9744 33.2378 40.0704 33.4175C40.7848 34.7447 41.162 36.235 41.1672 37.7511C41.1663 38.3295 41.1125 38.9066 41.0064 39.4747C40.9752 39.5928 40.9536 39.7036 40.9296 39.812Z" fill="#407BFF"/>
<path opacity="0.6" d="M39.1318 39.7233C39.163 39.5461 39.1894 39.3663 39.2062 39.1866C39.3689 37.5796 39.0004 35.9632 38.1598 34.5969C38.0542 34.4213 37.9414 34.2514 37.8214 34.0873C37.2597 33.3194 36.5539 32.6748 35.7454 32.1913C35.5438 32.0707 35.3363 31.9605 35.1238 31.8614C34.2014 31.4297 33.1989 31.208 32.1851 31.2116C31.1712 31.2152 30.1702 31.4439 29.2507 31.8821C28.3313 32.3203 27.5152 32.9576 26.8586 33.7501C26.202 34.5426 25.7204 35.4716 25.447 36.4732C25.4686 36.3648 25.4902 36.2565 25.5142 36.1482C25.9807 34.3368 27.1163 32.783 28.6804 31.8161C30.2445 30.8491 32.1142 30.5451 33.8931 30.9684C35.6721 31.3916 37.2204 32.509 38.21 34.0836C39.1995 35.6581 39.5526 37.5662 39.1942 39.4032C39.187 39.5116 39.1582 39.6199 39.1318 39.7233Z" fill="black"/>
<g opacity="0.3">
<path d="M30.7799 44.7955C30.6983 44.7782 30.6191 44.7561 30.5399 44.7339L30.2999 44.6625L30.2399 44.6428L29.9831 44.5541L29.9471 44.5394C29.6737 44.4367 29.4068 44.3166 29.1479 44.1799C29.0615 44.1331 28.9751 44.0863 28.8911 44.0346C28.7207 43.9361 28.5575 43.8327 28.4111 43.7194L28.2599 43.6086L28.1759 43.5446L28.0583 43.4511C27.9983 43.4043 27.9383 43.355 27.8783 43.3009C27.8183 43.2467 27.7271 43.1704 27.6551 43.099C27.5831 43.0276 27.5087 42.9611 27.4391 42.8897C27.3695 42.8183 27.3263 42.7715 27.2711 42.7099C27.2159 42.6484 27.1967 42.6311 27.1631 42.5893C27.1295 42.5474 27.1055 42.5228 27.0767 42.4908L26.9807 42.3726L26.8295 42.1781C26.7863 42.1215 26.7431 42.0648 26.7047 42.0057L26.6759 41.9663C26.6183 41.8826 26.5607 41.7964 26.5055 41.7201C26.4503 41.6438 26.4047 41.5576 26.3567 41.4739V41.4616C26.3279 41.4123 26.2991 41.3606 26.2727 41.3089C26.2463 41.2572 26.2175 41.2055 26.1911 41.1538L26.1143 41.0036C26.0903 40.9494 26.0615 40.8953 26.0375 40.8411L25.9679 40.6786C25.9439 40.6269 25.9223 40.5727 25.9007 40.5185C25.8551 40.4077 25.8143 40.2945 25.7735 40.1763L25.7255 40.0359C25.6871 39.9202 25.6535 39.802 25.6247 39.6863C25.6079 39.6272 25.5935 39.5706 25.5791 39.5139C25.5359 39.3317 25.4999 39.1495 25.4687 38.9649L25.4471 38.8171C25.4303 38.7063 25.4183 38.5955 25.4063 38.4847V38.4675C25.4063 38.3567 25.3871 38.2434 25.3823 38.1326V37.9775V37.8839C25.3823 37.8298 25.3823 37.7731 25.3823 37.719V37.6943C25.3823 37.6303 25.3823 37.5688 25.3823 37.5047C25.3823 37.4407 25.3823 37.3669 25.3823 37.2979C25.3823 37.229 25.3823 37.16 25.3967 37.0935C25.4111 37.0271 25.3967 36.9827 25.4159 36.9286C25.4351 36.8744 25.4159 36.8572 25.4159 36.8227C25.4159 36.7882 25.4279 36.7267 25.4351 36.6774C25.4423 36.6282 25.4567 36.5395 25.4687 36.4706C25.7421 35.469 26.2237 34.54 26.8803 33.7475C27.5369 32.955 28.353 32.3178 29.2724 31.8796C30.1919 31.4414 31.1929 31.2126 32.2068 31.209C33.2206 31.2054 34.2231 31.4271 35.1455 31.8588C35.358 31.958 35.5655 32.0681 35.7671 32.1888C36.5756 32.6722 37.2814 33.3169 37.8431 34.0847C37.9631 34.2488 38.0759 34.4187 38.1815 34.5944C39.0187 35.9618 39.3838 37.5781 39.2183 39.184C39.2015 39.3637 39.1751 39.5435 39.1439 39.7208C38.6537 41.508 37.511 43.0327 35.9533 43.9778C34.3955 44.923 32.5427 45.2158 30.7799 44.7955Z" fill="black"/>
</g>
<g opacity="0.6">
<path d="M32.4192 41.9861L32.1552 43.1508L30.72 42.8085L30.96 41.6956C30.0497 41.444 29.2075 40.9825 28.4976 40.3463L29.6832 38.7236C30.3081 39.3198 31.0703 39.7434 31.8984 39.9548C32.5848 40.1197 32.8584 40.0311 32.9208 39.7775C33.1296 38.8541 28.9968 38.6572 29.616 35.9142C29.8848 34.7274 30.9504 33.9296 32.6832 34.0872L32.9424 32.9398L34.3824 33.2845L34.128 34.4098C34.8416 34.6381 35.5023 35.0134 36.0696 35.5129L34.9368 37.1355C34.3988 36.6492 33.7566 36.3 33.0624 36.1161C32.3568 35.9462 32.0832 36.1038 32.0256 36.3623C31.8264 37.2463 35.9568 37.4531 35.3448 40.164C35.0928 41.2819 34.08 42.0698 32.4192 41.9861Z" fill="black"/>
</g>
<path d="M32.4647 41.5774L32.2007 42.7445L30.7607 42.3998L31.0007 41.2869C30.0885 41.032 29.2454 40.5662 28.5359 39.9252L29.7215 38.3026C30.3464 38.8988 31.1086 39.3224 31.9367 39.5337C32.6231 39.6962 32.8967 39.6076 32.9591 39.3565C33.1679 38.4306 29.0351 38.2337 29.6543 35.4907C29.9231 34.3039 30.9887 33.5062 32.7215 33.6637L32.9807 32.5188L34.4207 32.8611L34.1663 33.9863C34.8799 34.2146 35.5406 34.5899 36.1079 35.0894L34.9751 36.7145C34.438 36.2264 33.7955 35.8762 33.1007 35.6926C32.3951 35.5252 32.1215 35.6926 32.0639 35.9389C31.8647 36.8203 35.9951 37.0272 35.3831 39.7381C35.1383 40.883 34.1159 41.6808 32.4647 41.5774Z" fill="#407BFF"/>
<path d="M100.824 68.337L103.411 70.9913L86.4985 88.3427H90.9145L105.619 73.2565L108.293 75.997L109.368 67.2339L100.824 68.337Z" fill="#407BFF"/>
<g opacity="0.3">
<path d="M100.824 68.337L103.411 70.9913L86.4985 88.3427H90.9145L105.619 73.2565L108.293 75.997L109.368 67.2339L100.824 68.337Z" fill="white"/>
</g>
<path d="M35.9112 60.5513L38.4984 63.2081L13.9968 88.3427H18.4104L40.7064 65.4734L43.38 68.2138L44.4552 59.4482L35.9112 60.5513Z" fill="#407BFF"/>
<g opacity="0.3">
<path d="M35.9112 60.5513L38.4984 63.2081L13.9968 88.3427H18.4104L40.7064 65.4734L43.38 68.2138L44.4552 59.4482L35.9112 60.5513Z" fill="white"/>
</g>
<path d="M46.272 13.6727L46.9704 13.4683L46.524 11.8777L45.7176 12.1239C45.4866 11.8557 45.1971 11.6473 44.8728 11.5158V10.6786H43.2599V11.5158C43.0069 11.6187 42.7743 11.768 42.5735 11.9565L41.8535 11.6019L41.1479 13.0793L41.8559 13.4338C41.8559 13.4929 41.8559 13.5545 41.8559 13.6136C41.8561 14.0006 41.9527 14.3812 42.1368 14.7191L41.6064 15.4012L42.8664 16.4329L43.3823 15.7705C43.6033 15.844 43.8341 15.8814 44.0664 15.8813C44.2361 15.881 44.4053 15.8603 44.5704 15.8198L45.0359 16.4919L46.3512 15.5341L45.8976 14.8792C46.1326 14.5222 46.2625 14.1034 46.272 13.6727ZM42.6143 13.6136C42.6144 13.3219 42.6985 13.0368 42.8562 12.7941C43.0139 12.5514 43.2381 12.3621 43.5006 12.2499C43.763 12.1377 44.0519 12.1078 44.3309 12.1638C44.6099 12.2198 44.8665 12.3593 45.0684 12.5647C45.2702 12.77 45.4083 13.0321 45.4652 13.3179C45.5221 13.6037 45.4953 13.9003 45.3881 14.1705C45.281 14.4406 45.0983 14.6722 44.8631 14.836C44.6279 14.9998 44.3506 15.0885 44.0664 15.0909C43.6835 15.0903 43.3164 14.9348 43.0445 14.6583C42.7727 14.3817 42.6181 14.0063 42.6143 13.6136Z" fill="#407BFF"/>
<path opacity="0.6" d="M46.272 13.6727L46.9704 13.4683L46.524 11.8777L45.7176 12.1239C45.4866 11.8557 45.1971 11.6473 44.8728 11.5158V10.6786H43.2599V11.5158C43.0069 11.6187 42.7743 11.768 42.5735 11.9565L41.8535 11.6019L41.1479 13.0793L41.8559 13.4338C41.8559 13.4929 41.8559 13.5545 41.8559 13.6136C41.8561 14.0006 41.9527 14.3812 42.1368 14.7191L41.6064 15.4012L42.8664 16.4329L43.3823 15.7705C43.6033 15.844 43.8341 15.8814 44.0664 15.8813C44.2361 15.881 44.4053 15.8603 44.5704 15.8198L45.0359 16.4919L46.3512 15.5341L45.8976 14.8792C46.1326 14.5222 46.2625 14.1034 46.272 13.6727ZM42.6143 13.6136C42.6144 13.3219 42.6985 13.0368 42.8562 12.7941C43.0139 12.5514 43.2381 12.3621 43.5006 12.2499C43.763 12.1377 44.0519 12.1078 44.3309 12.1638C44.6099 12.2198 44.8665 12.3593 45.0684 12.5647C45.2702 12.77 45.4083 13.0321 45.4652 13.3179C45.5221 13.6037 45.4953 13.9003 45.3881 14.1705C45.281 14.4406 45.0983 14.6722 44.8631 14.836C44.6279 14.9998 44.3506 15.0885 44.0664 15.0909C43.6835 15.0903 43.3164 14.9348 43.0445 14.6583C42.7727 14.3817 42.6181 14.0063 42.6143 13.6136Z" fill="white"/>
<path d="M81.0191 44.8373L81.7151 44.6329L81.2711 43.0546L80.4647 43.3008C80.2338 43.0326 79.9443 42.8242 79.6199 42.6927V41.8235H77.9999V42.6606C77.7466 42.7629 77.5139 42.9124 77.3135 43.1014L76.5935 42.7468L75.8879 44.2242L76.6079 44.5787C76.6079 44.6378 76.6079 44.6969 76.6079 44.7585C76.6069 45.1457 76.7036 45.5266 76.8887 45.864L76.3559 46.5461L77.6183 47.5778L78.1343 46.9154C78.3553 46.9889 78.5861 47.0263 78.8183 47.0262C78.9881 47.0258 79.1572 47.0051 79.3223 46.9647L79.7879 47.6368L81.1031 46.679L80.6399 46.0413C80.8762 45.6856 81.0078 45.2676 81.0191 44.8373ZM77.3615 44.7782C77.3639 44.4871 77.4501 44.2031 77.6092 43.9621C77.7683 43.721 77.9934 43.5336 78.256 43.4233C78.5186 43.313 78.8072 43.2848 79.0854 43.3422C79.3636 43.3996 79.6191 43.54 79.8197 43.7459C80.0204 43.9518 80.1573 44.2139 80.2132 44.4993C80.2692 44.7847 80.2417 45.0807 80.1342 45.3502C80.0267 45.6196 79.844 45.8505 79.609 46.0137C79.374 46.177 79.0973 46.2654 78.8135 46.2678C78.6224 46.2695 78.4329 46.2321 78.256 46.1578C78.0791 46.0835 77.9184 45.9738 77.7832 45.8352C77.6481 45.6965 77.5412 45.5317 77.4688 45.3502C77.3964 45.1687 77.3599 44.9743 77.3615 44.7782Z" fill="#407BFF"/>
<path opacity="0.6" d="M81.0191 44.8373L81.7151 44.6329L81.2711 43.0546L80.4647 43.3008C80.2338 43.0326 79.9443 42.8242 79.6199 42.6927V41.8235H77.9999V42.6606C77.7466 42.7629 77.5139 42.9124 77.3135 43.1014L76.5935 42.7468L75.8879 44.2242L76.6079 44.5787C76.6079 44.6378 76.6079 44.6969 76.6079 44.7585C76.6069 45.1457 76.7036 45.5266 76.8887 45.864L76.3559 46.5461L77.6183 47.5778L78.1343 46.9154C78.3553 46.9889 78.5861 47.0263 78.8183 47.0262C78.9881 47.0258 79.1572 47.0051 79.3223 46.9647L79.7879 47.6368L81.1031 46.679L80.6399 46.0413C80.8762 45.6856 81.0078 45.2676 81.0191 44.8373ZM77.3615 44.7782C77.3639 44.4871 77.4501 44.2031 77.6092 43.9621C77.7683 43.721 77.9934 43.5336 78.256 43.4233C78.5186 43.313 78.8072 43.2848 79.0854 43.3422C79.3636 43.3996 79.6191 43.54 79.8197 43.7459C80.0204 43.9518 80.1573 44.2139 80.2132 44.4993C80.2692 44.7847 80.2417 45.0807 80.1342 45.3502C80.0267 45.6196 79.844 45.8505 79.609 46.0137C79.374 46.177 79.0973 46.2654 78.8135 46.2678C78.6224 46.2695 78.4329 46.2321 78.256 46.1578C78.0791 46.0835 77.9184 45.9738 77.7832 45.8352C77.6481 45.6965 77.5412 45.5317 77.4688 45.3502C77.3964 45.1687 77.3599 44.9743 77.3615 44.7782Z" fill="white"/>
<path d="M98.0402 45.0687L96.965 53.8319L94.433 51.2342L69.4082 76.9056H43.661L32.5106 88.3427H28.0994L42.3674 73.7046H68.117L92.225 48.9689L89.4986 46.1718L98.0402 45.0687Z" fill="#407BFF"/>
<path d="M62.9905 68.3V71.9614L64.4305 72.0796L65.1361 68.6521L62.9905 68.3Z" fill="#FF8B7B"/>
<path d="M64.0129 71.7349C64.0129 71.7349 64.4665 70.8411 64.7329 70.9372C64.9993 71.0332 65.1097 72.1166 65.1097 72.1166C65.1097 72.1166 66.5497 72.609 66.9673 72.641C67.3849 72.673 67.7017 72.902 67.7545 73.717H62.7937C62.7937 73.717 62.8273 71.8802 62.8369 71.565C62.8465 71.2499 63.2833 71.6438 63.2833 71.6438L64.0129 71.7349Z" fill="#263238"/>
<path d="M62.8488 72.2619C62.9381 72.312 63.0164 72.3803 63.0789 72.4627C63.1414 72.5451 63.1867 72.6398 63.2121 72.7408C63.2376 72.8419 63.2425 72.9473 63.2267 73.0504C63.2108 73.1535 63.1745 73.2522 63.12 73.3403C63.1169 73.3447 63.1146 73.3497 63.1134 73.355C63.1122 73.3603 63.1121 73.3657 63.1131 73.3711C63.1141 73.3764 63.1161 73.3815 63.1191 73.386C63.1221 73.3905 63.1259 73.3943 63.1304 73.3972C63.1349 73.4001 63.1399 73.402 63.1451 73.4028C63.1503 73.4036 63.1557 73.4033 63.1608 73.4019C63.1659 73.4005 63.1707 73.398 63.1748 73.3946C63.1789 73.3912 63.1823 73.387 63.1848 73.3822C63.2449 73.2861 63.2853 73.1784 63.3035 73.0658C63.3217 72.9531 63.3173 72.8378 63.2906 72.7269C63.2638 72.6161 63.2153 72.512 63.1481 72.421C63.0808 72.33 62.9961 72.2541 62.8992 72.1979C62.8584 72.1732 62.8104 72.2422 62.8512 72.2668L62.8488 72.2619Z" fill="white"/>
<path d="M62.8417 73.424L66.7321 73.4659H67.6369C67.6873 73.4659 67.6993 73.3846 67.6489 73.3846L63.7561 73.3428H62.8513C62.8009 73.3428 62.7913 73.424 62.8513 73.424H62.8417Z" fill="white"/>
<path d="M64.8962 72.4365C64.9335 72.3775 64.9822 72.327 65.0393 72.288C65.0964 72.2491 65.1606 72.2226 65.2281 72.2101C65.2956 72.1977 65.3648 72.1995 65.4316 72.2156C65.4983 72.2317 65.5611 72.2616 65.6162 72.3036C65.6522 72.3356 65.7002 72.2642 65.6642 72.2346C65.4098 72.0204 65.0618 72.1115 64.829 72.3947C64.7954 72.4365 64.8578 72.4784 64.8938 72.4365H64.8962Z" fill="white"/>
<path d="M65.3066 72.5671C65.3443 72.5086 65.3933 72.4585 65.4504 72.42C65.5076 72.3815 65.5719 72.3554 65.6392 72.3432C65.7066 72.331 65.7757 72.333 65.8423 72.349C65.9089 72.3651 65.9716 72.3949 66.0266 72.4366C66.065 72.4686 66.113 72.3972 66.0746 72.3677C65.8202 72.151 65.4722 72.2445 65.2394 72.5277C65.2058 72.5696 65.2682 72.609 65.3042 72.5671H65.3066Z" fill="white"/>
<path d="M65.7314 72.7C65.7691 72.6415 65.8181 72.5915 65.8753 72.553C65.9325 72.5145 65.9967 72.4883 66.0641 72.4761C66.1314 72.4639 66.2005 72.4659 66.2671 72.4819C66.3337 72.498 66.3964 72.5278 66.4514 72.5695C66.4898 72.5991 66.5378 72.5301 66.4994 72.4981C66.245 72.2839 65.897 72.3775 65.6666 72.6606C65.6306 72.7025 65.693 72.7419 65.729 72.7H65.7314Z" fill="white"/>
<path d="M62.124 32.0138C62.1648 32.6663 62.0784 34.6731 62.1648 35.7491C62.3256 37.8026 62.544 40.4643 62.7168 43.1358C62.9184 46.2235 63.0624 49.3136 62.9904 51.4607C62.8056 56.9687 62.8464 69.4547 62.8464 69.4547H65.1768C65.1768 69.4547 67.9128 57.045 68.424 51.4607C68.8512 46.8292 68.6256 34.8996 68.5536 32.0089L62.124 32.0138Z" fill="#263238"/>
<path opacity="0.2" d="M62.1602 35.7492C62.321 37.8027 62.5394 40.4644 62.7122 43.1359C63.8594 39.6543 62.7938 34.3925 62.7938 34.3925L62.1602 35.7492Z" fill="black"/>
<path d="M62.645 69.5336H65.3786L65.5778 68.6398L62.573 68.6029L62.645 69.5336Z" fill="#407BFF"/>
<path d="M50.1288 67.6179L49.584 71.235L50.9904 71.5772L52.1976 68.3L50.1288 67.6179Z" fill="#FF8B7B"/>
<path d="M50.6404 71.171C50.6404 71.171 51.2212 70.3609 51.4708 70.4963C51.7204 70.6318 51.6676 71.7275 51.6676 71.7275C51.6676 71.7275 53.0284 72.4464 53.4268 72.5375C53.8252 72.6286 54.1132 72.9118 54.0436 73.7243L49.1404 72.9463C49.1404 72.9463 49.4476 71.1365 49.5028 70.8263C49.558 70.516 49.9324 70.974 49.9324 70.974L50.6404 71.171Z" fill="#263238"/>
<path d="M49.3993 71.5108C49.4792 71.5745 49.5456 71.6541 49.5944 71.7449C49.6433 71.8357 49.6735 71.9358 49.6834 72.0391C49.6933 72.1423 49.6826 72.2465 49.6519 72.3453C49.6212 72.4442 49.5712 72.5356 49.5049 72.6139C49.4737 72.6558 49.5289 72.7075 49.5625 72.6632C49.6364 72.5778 49.6925 72.4779 49.7274 72.3695C49.7622 72.2611 49.7751 72.1465 49.7652 72.0328C49.7553 71.9191 49.7229 71.8087 49.6698 71.7084C49.6168 71.608 49.5444 71.5198 49.4569 71.4493C49.4209 71.4173 49.3633 71.4788 49.3993 71.5108Z" fill="white"/>
<path d="M49.2194 72.6581L53.0594 73.3082L53.9522 73.4584C54.0026 73.4584 54.0242 73.3894 53.9738 73.382L50.1338 72.7295L49.241 72.5793C49.1906 72.5793 49.169 72.6483 49.2194 72.6581Z" fill="white"/>
<path d="M51.3963 72.0033C51.4422 71.9508 51.4982 71.9084 51.5607 71.8789C51.6233 71.8494 51.691 71.8333 51.7598 71.8317C51.8286 71.8301 51.897 71.843 51.9608 71.8695C52.0246 71.8961 52.0824 71.9357 52.1307 71.9861C52.1619 72.023 52.2195 71.9615 52.1883 71.9245C52.1313 71.868 52.0638 71.8238 51.9899 71.7945C51.916 71.7652 51.8371 71.7514 51.7579 71.754C51.6787 71.7565 51.6008 71.7753 51.5288 71.8092C51.4568 71.8432 51.3921 71.8916 51.3387 71.9516C51.2979 71.9885 51.3555 72.0402 51.3963 72.0033Z" fill="white"/>
<path d="M51.7827 72.1978C51.8287 72.1453 51.8847 72.1029 51.9472 72.0734C52.0097 72.0439 52.0775 72.0279 52.1463 72.0263C52.2151 72.0246 52.2835 72.0375 52.3473 72.064C52.4111 72.0906 52.4689 72.1303 52.5171 72.1806C52.5483 72.2175 52.6059 72.156 52.5747 72.119C52.3539 71.8728 51.9963 71.9048 51.7251 72.1486C51.6843 72.1855 51.7419 72.2348 51.7827 72.1978Z" fill="white"/>
<path d="M52.181 72.3947C52.2274 72.3423 52.2837 72.3001 52.3465 72.2708C52.4093 72.2414 52.4773 72.2256 52.5463 72.2242C52.6153 72.2228 52.6839 72.2359 52.7477 72.2627C52.8116 72.2895 52.8695 72.3294 52.9178 72.38C52.949 72.4144 53.0066 72.3529 52.9754 72.3184C52.7546 72.0722 52.397 72.1017 52.1258 72.3455C52.085 72.3824 52.1426 72.4317 52.181 72.3947Z" fill="white"/>
<path d="M58.332 51.9384C56.892 57.3554 52.0536 69.051 52.0536 69.051L49.7568 68.6423C49.7568 68.6423 52.1568 56.464 53.2512 51.0717C54.2448 46.2039 55.3368 35.0228 55.6896 31.6938L63.3936 32.4054C62.9832 35.2567 59.5272 47.4498 58.332 51.9384Z" fill="#263238"/>
<path d="M49.5432 68.6891L52.2384 69.1717L52.584 68.3247L49.584 67.7633L49.5432 68.6891Z" fill="#407BFF"/>
<path d="M55.241 31.6938C55.2098 32.041 55.901 32.8215 56.2394 32.8363L68.1986 33.0505C68.5586 33.0678 68.981 32.8043 68.969 32.4448C68.8466 28.094 67.8578 13.1285 67.529 12.1855C67.1186 11.0257 64.8434 10.6072 63.8498 10.5161C62.2804 10.4074 60.7056 10.4074 59.1362 10.5161C58.3706 10.553 57.6722 10.6219 57.0914 10.6958C56.8826 10.7222 56.681 10.7915 56.4989 10.8996C56.3168 11.0078 56.1578 11.1525 56.0314 11.3251C55.905 11.4977 55.8139 11.6947 55.7634 11.9043C55.713 12.1139 55.7043 12.3318 55.7378 12.5449C55.9959 14.2101 56.1641 15.8886 56.2418 17.5729C56.2418 17.6566 56.2418 17.7354 56.2418 17.8191C56.2682 18.3854 56.2946 18.9443 56.297 19.4983C56.297 19.6067 56.297 19.7199 56.297 19.8283C56.2538 25.4496 55.541 28.2098 55.241 31.6938Z" fill="white"/>
<path d="M60.0003 33.1072C58.4019 33.2081 54.1707 33.1072 54.1707 32.4227C54.1707 31.2802 55.6923 23.3788 55.8363 21.7981C55.8579 21.5518 55.8795 21.2293 55.9035 20.8378C55.9443 20.0991 55.9851 19.1659 56.0235 18.1515C56.1411 14.99 56.2371 11.1489 56.2371 11.1489C56.2371 11.1489 56.3307 10.2797 60.0507 10.4643C60.0507 10.4643 60.9771 15.1032 61.0107 19.1856C61.0443 23.268 60.5451 33.0727 60.0003 33.1072Z" fill="#407BFF"/>
<path d="M63.8401 10.5161C63.8401 10.5161 65.4793 14.9654 65.2993 21.7046C65.1193 28.4437 65.0377 33.351 65.0377 33.351C65.0377 33.351 68.9641 33.5972 69.3073 32.9989C69.4921 32.6714 69.0385 26.794 68.7793 23.3493C68.4841 19.427 67.8913 12.9857 67.6681 12.2126C67.2889 10.8756 63.8401 10.5161 63.8401 10.5161Z" fill="#407BFF"/>
<path d="M83.2994 9.413C82.1474 10.4521 80.9714 11.4493 79.7546 12.4096C79.1498 12.902 78.5306 13.36 77.8994 13.8253C77.5826 14.0568 77.261 14.2809 76.9274 14.5074C76.5938 14.7339 76.2578 14.9531 75.8354 15.1771C75.5757 15.3163 75.3011 15.4238 75.017 15.4972C74.7642 15.5589 74.5076 15.6025 74.249 15.6277C73.8071 15.6716 73.363 15.6856 72.9194 15.6696C72.1076 15.633 71.2984 15.5508 70.4954 15.4233C69.8162 15.3224 69.1514 15.1993 68.4914 15.0589L68.033 14.958C67.313 14.7979 66.6122 14.6133 65.897 14.4064L66.6026 11.2055C67.3356 11.4732 68.0884 11.6799 68.8538 11.8235C69.5738 11.9885 70.2938 12.1436 71.0018 12.2791C71.7098 12.4145 72.4202 12.5253 73.0922 12.5967C73.4054 12.6306 73.7204 12.6463 74.0354 12.6435C74.155 12.6411 74.2743 12.6321 74.393 12.6164C74.4759 12.606 74.5568 12.5828 74.633 12.5474C74.8994 12.4391 75.2258 12.2717 75.5402 12.1042C75.8546 11.9368 76.181 11.7472 76.5002 11.565C77.1506 11.2006 77.7986 10.8091 78.4514 10.4274C79.7522 9.65184 81.0698 8.87377 82.3874 8.11047L83.2994 9.413Z" fill="#407BFF"/>
<path opacity="0.2" d="M68.4914 15.0687L68.033 14.9678L67.793 13.2196L68.4914 15.0687Z" fill="black"/>
<path d="M85.1569 6.36719C85.1569 6.36719 85.3705 7.09109 85.2121 7.4752C85.0537 7.85931 84.3049 8.05136 84.3049 8.05136C84.3049 8.05136 84.7201 6.85964 85.1569 6.36719Z" fill="#FF8B7B"/>
<path opacity="0.2" d="M85.1569 6.36719C85.1569 6.36719 85.3705 7.09109 85.2121 7.4752C85.0537 7.85931 84.3049 8.05136 84.3049 8.05136C84.3049 8.05136 84.7201 6.85964 85.1569 6.36719Z" fill="black"/>
<path d="M85.0778 7.04679C84.804 7.3066 84.5772 7.61423 84.4082 7.95536C84.7634 8.07601 85.3394 7.78054 85.469 7.92828C85.5986 8.07601 85.229 8.32716 84.6506 8.62263C84.3458 8.77283 84.2402 9.12985 83.8346 9.27512C83.6602 9.33772 83.4812 9.38629 83.2994 9.4204C82.853 9.24804 82.3706 8.12033 82.3706 8.12033L83.4362 7.28563C83.4362 7.28563 84.4178 6.51987 84.833 6.36721C85.2482 6.21455 86.3306 5.49065 86.405 5.67532C86.5106 5.93386 85.7738 6.51987 85.0778 7.04679Z" fill="#FF8B7B"/>
<path opacity="0.2" d="M58.0298 15.4406L55.9058 20.8378C55.9466 20.0991 55.9874 19.1659 56.0258 18.1515L58.0298 15.4406Z" fill="black"/>
<path d="M63.9817 2.09282C63.5469 1.97881 63.0939 1.95779 62.6509 2.03107C62.2079 2.10435 61.7843 2.27036 61.4065 2.51878C60.9121 2.85119 60.4993 3.3264 60.5737 3.96412C60.7769 5.29211 61.0526 6.60736 61.3993 7.90371L66.0841 4.97118C66.0841 4.97118 66.7825 4.09462 65.6953 2.92752C65.3449 2.56064 64.6321 2.25779 63.9817 2.09282Z" fill="#263238"/>
<path d="M63.545 11.3655C63.4772 11.0578 63.461 10.7406 63.497 10.4273L63.725 9.56803V9.55079L62.3642 8.0242L61.4282 6.9679C61.481 8.07837 61.1522 9.43014 60.761 10.5874C60.8306 11.102 63.1898 12.4809 63.545 11.3655Z" fill="#FF8B7B"/>
<g opacity="0.2">
<path d="M63.725 9.56803L63.497 10.4274C62.981 10.1811 62.4434 9.65421 62.3234 9.08789C62.2394 8.67916 62.4218 8.29997 62.5826 8.28027L63.725 9.56803Z" fill="black"/>
</g>
<path d="M65.832 7.78296C65.7816 7.97009 65.724 8.1523 65.664 8.3345C65.1312 9.93496 63.2016 10.0581 62.0088 8.87374C61.9015 8.76552 61.8021 8.64949 61.7112 8.52656C60.9552 7.48995 61.152 6.69957 61.2816 4.9046C61.3091 4.4881 61.4393 4.08562 61.6601 3.73497C61.8809 3.38431 62.185 3.09701 62.5437 2.90005C62.9025 2.70309 63.3042 2.60295 63.711 2.60903C64.1179 2.6151 64.5166 2.72721 64.8696 2.9348C66.324 3.7892 66.336 5.91412 65.832 7.78296Z" fill="#FF8B7B"/>
<path d="M62.5898 3.74498C62.5898 3.74498 64.2842 5.04751 66.2522 4.45411C67.2506 4.15372 67.0826 2.05342 66.2978 1.64715C65.657 1.31475 65.1362 2.12236 65.1362 2.12236C64.494 1.76192 63.7637 1.60027 63.0338 1.657C61.7138 1.71609 61.1666 2.49662 61.1666 2.49662C60.968 2.49145 60.7734 2.55456 60.6138 2.67592C60.4542 2.79728 60.3388 2.96991 60.2858 3.16636C60.1082 3.78438 60.7658 4.9638 60.7658 4.9638L62.5898 3.74498Z" fill="#263238"/>
<path d="M64.0801 5.85256C64.0609 5.99291 64.1185 6.11602 64.2073 6.12833C64.2961 6.14064 64.3849 6.03723 64.4041 5.89688C64.4233 5.75653 64.3657 5.63342 64.2745 5.62111C64.1833 5.6088 64.0993 5.71222 64.0801 5.85256Z" fill="#263238"/>
<path d="M64.726 8.09074H64.774C64.7875 8.0889 64.7999 8.0817 64.8084 8.07067C64.8169 8.05964 64.8209 8.04565 64.8195 8.03165C64.819 8.02461 64.817 8.01777 64.8137 8.01155C64.8105 8.00533 64.806 7.99986 64.8006 7.99548C64.7952 7.99109 64.789 7.98789 64.7824 7.98607C64.7757 7.98424 64.7688 7.98383 64.7619 7.98487C64.6604 7.99394 64.5582 7.98181 64.4614 7.94919C64.3646 7.91658 64.2752 7.86416 64.1987 7.79512C64.1222 7.72607 64.0602 7.64183 64.0163 7.54748C63.9725 7.45313 63.9477 7.35064 63.9435 7.24619C63.943 7.23916 63.941 7.23232 63.9377 7.22609C63.9345 7.21987 63.93 7.2144 63.9246 7.21002C63.9192 7.20564 63.913 7.20243 63.9064 7.20061C63.8997 7.19878 63.8928 7.19838 63.886 7.19941C63.8724 7.20126 63.86 7.20846 63.8515 7.21949C63.843 7.23052 63.839 7.24451 63.8404 7.25851C63.8528 7.48841 63.9524 7.7042 64.1179 7.85973C64.2834 8.01526 64.5016 8.09817 64.726 8.09074Z" fill="#263238"/>
<path d="M61.2555 5.06703C61.2555 5.06703 61.7835 5.09658 61.8027 5.55948C61.8219 6.02238 61.7763 6.08394 61.7763 6.08394L62.4171 6.13072C62.4171 6.13072 62.0571 4.74448 62.5107 4.7691C62.9643 4.79372 62.3019 3.77189 62.9283 3.58969C63.5979 3.39517 65.3283 3.31391 66.0027 4.40223C65.8756 3.74392 65.5179 3.15618 64.9971 2.75006C64.1667 2.16897 62.4915 2.03847 61.8099 2.88056C61.1283 3.72265 61.2555 5.06703 61.2555 5.06703Z" fill="#263238"/>
<path d="M60.3745 5.98307C60.4412 6.43153 60.6775 6.83496 61.0321 7.10585C61.5121 7.45795 61.9441 7.07384 61.9921 6.50507C62.0257 5.99538 61.8217 5.19761 61.2721 5.06958C61.1501 5.04415 61.0238 5.05033 60.9047 5.08758C60.7856 5.12483 60.6775 5.19196 60.59 5.28289C60.5026 5.37383 60.4386 5.4857 60.4039 5.60839C60.3692 5.73108 60.3649 5.8607 60.3913 5.98553" fill="#FF8B7B"/>
<path d="M65.489 6.01992C65.4698 6.16027 65.5274 6.28338 65.6162 6.29569C65.705 6.308 65.7938 6.20459 65.813 6.06424C65.8322 5.92389 65.7722 5.80078 65.6834 5.78847C65.5946 5.77616 65.5058 5.87957 65.489 6.01992Z" fill="#263238"/>
<path d="M66.0003 5.67778C65.9887 5.67505 65.9779 5.66932 65.9691 5.66113C65.9603 5.65294 65.9537 5.64257 65.9499 5.631C65.94 5.57929 65.9192 5.53044 65.889 5.48789C65.8587 5.44534 65.8197 5.41014 65.7746 5.38477C65.6844 5.34471 65.5833 5.3386 65.489 5.36754C65.4804 5.37064 65.4712 5.37196 65.462 5.37141C65.4529 5.37086 65.4439 5.36845 65.4357 5.36433C65.4274 5.36021 65.42 5.35446 65.414 5.3474C65.4079 5.34035 65.4032 5.33213 65.4003 5.32322C65.3948 5.30524 65.3962 5.2858 65.4042 5.26887C65.4123 5.25194 65.4263 5.23879 65.4434 5.23211C65.5732 5.19079 65.7132 5.19954 65.8371 5.25674C65.896 5.29011 65.9478 5.3355 65.989 5.39012C66.0303 5.44474 66.0602 5.50744 66.0771 5.57437C66.08 5.58325 66.0811 5.59265 66.0804 5.60201C66.0797 5.61136 66.0771 5.62047 66.0729 5.62877C66.0686 5.63706 66.0627 5.64438 66.0556 5.65027C66.0485 5.65616 66.0403 5.66049 66.0315 5.66301C66.0226 5.67083 66.0118 5.67595 66.0003 5.67778Z" fill="#263238"/>
<path d="M63.7177 5.45375C63.7083 5.45596 63.6984 5.45596 63.6889 5.45375C63.6804 5.45027 63.6726 5.44504 63.6661 5.43837C63.6596 5.4317 63.6546 5.42373 63.6512 5.41496C63.6478 5.4062 63.6462 5.39681 63.6465 5.38739C63.6468 5.37796 63.649 5.36871 63.6529 5.36018C63.7114 5.23475 63.8119 5.1351 63.9361 5.07948C64.0006 5.05746 64.0687 5.04915 64.1364 5.05508C64.2041 5.06101 64.2699 5.08104 64.3297 5.11396C64.3382 5.11792 64.3457 5.12357 64.352 5.13057C64.3582 5.13757 64.3631 5.14578 64.3662 5.15473C64.3693 5.16367 64.3707 5.17316 64.3702 5.18265C64.3697 5.19214 64.3674 5.20143 64.3633 5.20999C64.3593 5.21841 64.3536 5.22592 64.3467 5.23209C64.3398 5.23826 64.3317 5.24297 64.323 5.24594C64.3143 5.24892 64.3051 5.2501 64.296 5.24942C64.2869 5.24875 64.2779 5.24622 64.2697 5.24199C64.2268 5.21812 64.1795 5.20341 64.1308 5.19876C64.0822 5.1941 64.0331 5.1996 63.9865 5.21491C63.8956 5.25477 63.8222 5.3275 63.7801 5.41928C63.7735 5.43005 63.7643 5.43889 63.7534 5.44493C63.7424 5.45097 63.7301 5.45401 63.7177 5.45375Z" fill="#263238"/>
<path d="M64.8627 6.04224C65.0286 6.431 65.1713 6.82981 65.2899 7.23643C65.3115 7.40386 64.7979 7.39893 64.7979 7.39893L64.8627 6.04224Z" fill="#FF5652"/>
<path d="M55.8603 11.5379C55.0515 12.9807 54.2907 14.4532 53.5491 15.933C53.1747 16.6716 52.8123 17.4103 52.4451 18.149L51.9051 19.257L51.6363 19.7987L51.5019 20.0621L51.4395 20.1853C51.4235 20.2165 51.4091 20.2485 51.3963 20.2813L51.3603 20.3699L51.3339 20.4389L51.2907 20.5694L51.2571 20.6851C51.1755 20.9756 51.1323 21.2046 51.0891 21.4361C51.0459 21.6675 51.0123 21.8842 50.9787 22.1034C50.9139 22.5392 50.8587 22.9627 50.8131 23.3886C50.7195 24.2381 50.6379 25.0777 50.5731 25.9198C50.4483 27.6015 50.3595 29.2759 50.3331 30.965C50.3302 31.1963 50.4101 31.4207 50.5577 31.5956C50.7052 31.7706 50.9102 31.884 51.1338 31.9143C51.3573 31.9447 51.584 31.8898 51.7708 31.7603C51.9576 31.6307 52.0916 31.4353 52.1475 31.2112C52.5387 29.5935 52.8939 27.9635 53.2515 26.3483C53.4363 25.5431 53.6091 24.7355 53.7963 23.9426C53.8923 23.5462 53.9835 23.1523 54.0819 22.7731C54.1299 22.581 54.1803 22.3939 54.2331 22.2191C54.2763 22.0637 54.3276 21.9109 54.3867 21.7611C54.3906 21.75 54.3954 21.7393 54.4011 21.7291C54.4011 21.7291 54.4011 21.7119 54.4011 21.7143V21.7316V21.7562C54.3932 21.7747 54.3844 21.7928 54.3747 21.8103L54.3987 21.7709L54.4467 21.6946L54.5403 21.5444L54.8715 20.9953L55.5123 19.9193C55.9299 19.1979 56.3475 18.4789 56.7507 17.755C57.5643 16.3072 58.3539 14.8496 59.0931 13.3599C59.2794 12.9256 59.3003 12.4354 59.1518 11.986C59.0033 11.5365 58.6961 11.1605 58.2908 10.9319C57.8855 10.7032 57.4114 10.6387 56.962 10.7508C56.5125 10.863 56.1204 11.1438 55.8627 11.5379H55.8603Z" fill="#407BFF"/>
<path d="M48.2881 35.6679V34.1241C48.2881 34.0986 48.298 34.0742 48.3155 34.0562C48.3331 34.0382 48.3569 34.0281 48.3817 34.0281H49.2001V33.7819H48.3841C48.295 33.7819 48.2095 33.8182 48.1465 33.8828C48.0835 33.9475 48.0481 34.0352 48.0481 34.1266V35.6679H48.2881Z" fill="#263238"/>
<path d="M53.9306 34.1118V35.668H54.1706V34.1241C54.1706 34.0327 54.1352 33.945 54.0721 33.8804C54.0091 33.8157 53.9237 33.7794 53.8346 33.7794H53.0186V34.0256H53.8346C53.8581 34.0255 53.8808 34.0341 53.8985 34.05C53.9162 34.0659 53.9276 34.0879 53.9306 34.1118Z" fill="#263238"/>
<path d="M57.3721 36.308V44.0887C57.3721 44.2624 57.3049 44.429 57.1851 44.5518C57.0654 44.6747 56.903 44.7437 56.7337 44.7437H45.7873C45.6182 44.743 45.4562 44.6738 45.3366 44.5511C45.217 44.4284 45.1496 44.2622 45.1489 44.0887V36.308C45.1496 36.1347 45.2171 35.9688 45.3368 35.8465C45.4564 35.7242 45.6184 35.6555 45.7873 35.6555H56.7337C56.8174 35.6552 56.9004 35.6718 56.9779 35.7045C57.0553 35.7371 57.1257 35.7851 57.185 35.8458C57.2443 35.9064 57.2914 35.9784 57.3235 36.0577C57.3556 36.1371 57.3721 36.2221 57.3721 36.308Z" fill="#263238"/>
<g opacity="0.5">
<path d="M57.3721 36.308V44.0887C57.3721 44.2624 57.3049 44.429 57.1851 44.5518C57.0654 44.6747 56.903 44.7437 56.7337 44.7437H45.7873C45.6182 44.743 45.4562 44.6738 45.3366 44.5511C45.217 44.4284 45.1496 44.2622 45.1489 44.0887V36.308C45.1496 36.1347 45.2171 35.9688 45.3368 35.8465C45.4564 35.7242 45.6184 35.6555 45.7873 35.6555H56.7337C56.8174 35.6552 56.9004 35.6718 56.9779 35.7045C57.0553 35.7371 57.1257 35.7851 57.185 35.8458C57.2443 35.9064 57.2914 35.9784 57.3235 36.0577C57.3556 36.1371 57.3721 36.2221 57.3721 36.308Z" fill="white"/>
</g>
<path d="M55.7665 35.6555H55.2817V44.7437H55.7665V35.6555Z" fill="#263238"/>
<path d="M47.2416 35.6555H46.7568V44.7437H47.2416V35.6555Z" fill="#263238"/>
<path d="M51.9937 31.5363C51.9937 31.5363 52.7761 33.3485 52.6897 33.7523C52.6033 34.1561 52.0729 33.4051 52.0729 33.4051L51.9937 31.5363Z" fill="#FF8B7B"/>
<path d="M53.2706 33.4766H48.8618V34.3063H53.2706V33.4766Z" fill="#263238"/>
<path opacity="0.3" d="M53.2706 33.4766H48.8618V34.3063H53.2706V33.4766Z" fill="white"/>
<path d="M50.3858 31.2605L49.7762 33.1072C49.6538 33.6341 51.3146 34.4048 51.9554 33.9493C52.4618 33.5923 52.025 31.4501 52.025 31.4501C51.7872 31.2847 51.5137 31.181 51.2282 31.1479C50.9426 31.1149 50.6536 31.1535 50.3858 31.2605Z" fill="#FF8B7B"/>
<path d="M49.7762 33.1072C49.649 33.6957 49.7235 34.848 50.6403 34.9686C50.8403 35.0018 51.0439 35.006 51.2451 34.9809C51.4256 35.0587 51.6256 35.076 51.8162 35.0302C52.277 34.88 52.1067 33.6907 52.1067 33.6907L49.7762 33.1072Z" fill="#FF8B7B"/>
<path d="M61.0441 9.68886C61.0441 9.68886 59.7385 9.40324 59.4553 10.5162V14.1923L60.2065 15.1551L59.6137 15.7608L59.5969 20.4858L60.9841 20.9783C61.0129 19.6634 61.2241 17.3046 60.9025 13.8156C60.7831 12.4393 60.8307 11.0531 61.0441 9.68886Z" fill="#407BFF"/>
<path opacity="0.3" d="M61.0441 9.68886C61.0441 9.68886 59.7385 9.40324 59.4553 10.5162V14.1923L60.2065 15.1551L59.6137 15.7608L59.5969 20.4858L60.9841 20.9783C61.0129 19.6634 61.2241 17.3046 60.9025 13.8156C60.7831 12.4393 60.8307 11.0531 61.0441 9.68886Z" fill="black"/>
<path d="M63.4968 10.4274C63.4968 10.4274 64.1088 11.0651 64.4136 12.5227C64.7184 13.9804 65.3352 20.3551 65.316 21.1652L66.6888 20.1089L66.132 15.0465L65.3184 14.5295L66.0024 13.6086C66.0024 13.6086 65.3736 11.2842 64.968 10.6908C64.5624 10.0974 63.624 9.95215 63.624 9.95215L63.4968 10.4274Z" fill="#407BFF"/>
<path opacity="0.3" d="M63.4968 10.4274C63.4968 10.4274 64.1088 11.0651 64.4136 12.5227C64.7184 13.9804 65.3352 20.3551 65.316 21.1652L66.6888 20.1089L66.132 15.0465L65.3184 14.5295L66.0024 13.6086C66.0024 13.6086 65.3736 11.2842 64.968 10.6908C64.5624 10.0974 63.624 9.95215 63.624 9.95215L63.4968 10.4274Z" fill="black"/>
</svg>
