<svg width="93" height="193" viewBox="0 0 93 193" fill="none" xmlns="http://www.w3.org/2000/svg">
<path d="M35.8143 170.851L35.4113 180.883C35.4113 180.883 46.0257 184.643 46.1475 186.501L25.603 186.461L25.5562 170.802L35.8143 170.851Z" fill="#263238"/>
<path d="M29.0613 180.024C28.8676 180.081 28.702 180.202 28.5952 180.366C28.4883 180.529 28.4475 180.724 28.4803 180.913C28.5314 181.102 28.6573 181.266 28.8317 181.369C29.0062 181.472 29.216 181.508 29.4175 181.469C29.6264 181.409 29.8044 181.278 29.9169 181.1C30.0295 180.923 30.0686 180.712 30.0267 180.509C29.9505 180.317 29.7994 180.161 29.6047 180.072C29.4101 179.984 29.1869 179.97 28.9817 180.033" fill="#E0E0E0"/>
<path d="M25.603 186.461L25.6639 184.883L45.3462 185.514C45.3462 185.514 46.2834 185.892 46.1569 186.501L25.603 186.461Z" fill="#455A64"/>
<path d="M35.7441 180.785C35.7441 180.879 35.2379 180.923 34.7459 181.23C34.2538 181.536 33.9867 181.932 33.893 181.892C33.7993 181.852 33.9539 181.305 34.5584 180.95C35.163 180.594 35.7675 180.696 35.7441 180.785Z" fill="white"/>
<path d="M37.8948 181.634C37.9183 181.727 37.4871 181.887 37.145 182.287C36.8029 182.687 36.7045 183.119 36.6014 183.114C36.4983 183.11 36.4421 182.572 36.8732 182.079C37.3044 181.585 37.8948 181.545 37.8948 181.634Z" fill="white"/>
<path d="M39.1134 184.083C39.0244 184.083 38.8838 183.639 39.1462 183.105C39.4087 182.572 39.8726 182.381 39.9148 182.461C39.957 182.541 39.6664 182.816 39.4462 183.247C39.2259 183.679 39.2165 184.074 39.1134 184.083Z" fill="white"/>
<path d="M35.5705 178.501C35.5284 178.589 35.0644 178.456 34.4974 178.501C33.9303 178.545 33.4898 178.705 33.4383 178.625C33.3867 178.545 33.8132 178.181 34.4786 178.181C35.1441 178.181 35.6174 178.416 35.5705 178.501Z" fill="white"/>
<path d="M10.6677 169.481L9.55706 181.611L11.5862 191.39C11.621 191.557 11.6191 191.73 11.5806 191.897C11.5421 192.064 11.4677 192.221 11.3622 192.36C11.2567 192.498 11.1223 192.614 10.9674 192.701C10.8124 192.788 10.6402 192.844 10.4615 192.865C10.254 192.891 10.043 192.869 9.8464 192.801C9.64981 192.733 9.47341 192.621 9.33212 192.474C7.50449 190.581 0.803148 183.585 0.939049 182.696C1.0937 181.673 1.22023 169.854 1.22023 169.854L10.6677 169.481Z" fill="#263238"/>
<path d="M10.4616 192.874L0.995398 181.895L0.9579 182.41C0.92907 182.854 1.06506 183.293 1.34218 183.651C2.09666 184.602 4.22891 187.206 9.3088 192.482C9.45462 192.633 9.63731 192.748 9.84078 192.816C10.0443 192.884 10.2623 192.904 10.4757 192.874H10.4616Z" fill="#455A64"/>
<g opacity="0.6">
<path d="M3.88187 178.145C4.03133 178.264 4.1292 178.432 4.15685 178.615C4.18451 178.799 4.14002 178.986 4.03183 179.14C3.91123 179.286 3.73649 179.383 3.5432 179.411C3.34991 179.439 3.15262 179.396 2.99148 179.291C2.8336 179.163 2.731 178.985 2.70333 178.79C2.67566 178.594 2.72486 178.396 2.84152 178.233C2.98347 178.094 3.17691 178.012 3.38132 178.004C3.58573 177.997 3.78525 178.064 3.9381 178.193" fill="white"/>
</g>
<path d="M7.89817 187.39C8.23121 187.026 8.63339 186.724 9.08379 186.501C9.56353 186.35 10.0698 186.289 10.574 186.323C10.574 186.292 10.4287 186.19 10.1335 186.132C9.74312 186.067 9.34122 186.108 8.9751 186.253C8.60898 186.397 8.29388 186.637 8.06687 186.945C7.89816 187.212 7.87005 187.39 7.89817 187.39Z" fill="white"/>
<path d="M8.69931 189.078C9.07939 188.91 9.46893 188.761 9.86618 188.633C10.2846 188.587 10.7054 188.561 11.1268 188.558C10.9376 188.43 10.7191 188.347 10.4892 188.315C10.2594 188.284 10.025 188.304 9.80526 188.376C9.03671 188.531 8.6337 189.042 8.69931 189.078Z" fill="white"/>
<path d="M6.34717 185.215C6.39872 185.278 7.06886 184.704 8.09514 184.402C9.12143 184.1 10.0118 184.18 10.0212 184.1C10.0306 184.02 9.10738 183.806 8.0108 184.149C7.33987 184.305 6.74982 184.683 6.34717 185.215Z" fill="white"/>
<path d="M6.36084 181.509C6.38896 181.584 7.11064 181.349 8.03383 181.371C8.95703 181.393 9.66933 181.651 9.70214 181.575C9.2035 181.279 8.62952 181.116 8.0412 181.104C7.45287 181.093 6.87218 181.232 6.36084 181.509Z" fill="white"/>
<path d="M6.59084 177.948C7.15838 177.809 7.74356 177.746 8.32943 177.761C9.29949 177.841 9.95087 178.335 9.99774 178.268C10.0446 178.201 9.88996 178.081 9.60878 177.903C9.23148 177.676 8.80276 177.536 8.35755 177.495C7.91375 177.45 7.46528 177.508 7.05008 177.663C6.73142 177.788 6.57209 177.921 6.59084 177.948Z" fill="white"/>
<path d="M8.35257 177.081C8.40443 176.939 8.42205 176.787 8.40412 176.637C8.38871 176.214 8.28518 175.799 8.09952 175.415C7.98989 175.12 7.78061 174.869 7.50436 174.699C7.40804 174.653 7.29916 174.635 7.19207 174.648C7.08498 174.662 6.98472 174.706 6.90452 174.775C6.75856 174.92 6.67361 175.111 6.66553 175.312C6.67147 175.72 6.82513 176.114 7.10073 176.427C7.37633 176.74 7.7571 176.954 8.17918 177.033C8.59901 177.099 9.03017 177.046 9.41807 176.879C9.80597 176.713 10.1332 176.442 10.3583 176.099C10.4147 176.012 10.4506 175.915 10.4635 175.814C10.4765 175.712 10.4662 175.61 10.4333 175.512C10.3902 175.418 10.3168 175.338 10.2233 175.286C10.1299 175.233 10.0213 175.21 9.91309 175.219C9.59369 175.265 9.29292 175.391 9.04145 175.584C8.67539 175.824 8.35792 176.125 8.1042 176.472C8 176.591 7.92335 176.729 7.87926 176.877C8.24419 176.441 8.6735 176.058 9.15392 175.739C9.37801 175.58 9.64077 175.478 9.91779 175.441C9.97682 175.434 10.0368 175.445 10.0884 175.473C10.14 175.501 10.1805 175.545 10.2036 175.597C10.2198 175.662 10.2219 175.729 10.2098 175.795C10.1977 175.861 10.1717 175.923 10.1333 175.979C9.92952 176.27 9.64182 176.499 9.3045 176.64C8.96718 176.78 8.59446 176.825 8.23073 176.77C7.8727 176.705 7.54849 176.527 7.31103 176.265C7.07357 176.002 6.93688 175.671 6.92327 175.326C6.92496 175.187 6.97805 175.053 7.07323 174.948C7.1157 174.907 7.17105 174.88 7.23102 174.871C7.29098 174.862 7.35235 174.872 7.40595 174.899C7.63779 175.043 7.81766 175.251 7.92144 175.495C8.16307 175.995 8.30904 176.532 8.35257 177.081Z" fill="white"/>
<path d="M45.7068 86.2552C46.6986 90.4122 47.0334 94.686 46.7003 98.9364C46.4941 101.639 36.8873 176.232 36.8873 176.232H23.9345L27.5757 106.124L26.5166 106.341C26.5166 106.341 19.4451 136.242 18.8686 141.082C18.3532 145.434 12.3876 177.05 12.3876 177.05L0.568848 177.166L4.31785 135.384L8.71824 95.2605L10.41 83.5616L45.7068 86.2552Z" fill="#263238"/>
<path d="M27.1069 101.368C27.1069 101.368 27.1304 101.404 27.1913 101.453C27.2849 101.519 27.3918 101.566 27.5053 101.591C27.7187 101.634 27.9395 101.632 28.1519 101.584C28.3642 101.536 28.5628 101.444 28.7331 101.315C28.9776 101.117 29.1779 100.875 29.322 100.602C29.466 100.33 29.551 100.033 29.5719 99.7283C29.6656 99.0615 29.6797 98.3459 29.7312 97.5858C29.8203 96.0657 29.8859 94.6923 29.9187 93.6966C29.9585 93.1594 29.9585 92.6203 29.9187 92.0831C29.8135 92.6126 29.7524 93.1491 29.7359 93.6877C29.6562 94.6834 29.5625 96.0524 29.4735 97.5725C29.4219 98.3281 29.4126 99.0615 29.3376 99.6971C29.3101 100.261 29.0531 100.794 28.6206 101.182C28.471 101.304 28.2964 101.396 28.1076 101.451C27.9189 101.506 27.7202 101.523 27.524 101.502C27.3809 101.47 27.2412 101.425 27.1069 101.368Z" fill="#455A64"/>
<path d="M8.06689 94.1545C8.17848 94.2158 8.30064 94.258 8.42773 94.2789C8.76713 94.3627 9.11373 94.4178 9.4634 94.4434C10.6256 94.5378 11.795 94.3722 12.8775 93.96C13.96 93.5477 14.9254 92.9003 15.6961 92.0698C15.928 91.8198 16.138 91.5522 16.3241 91.2698C16.4015 91.1682 16.4616 91.0557 16.5021 90.9364C16.4647 90.9364 16.1741 91.3542 15.5649 91.9498C14.7815 92.7249 13.833 93.3327 12.7825 93.7328C11.732 94.1329 10.6037 94.316 9.47277 94.27C8.59175 94.2434 8.06689 94.1145 8.06689 94.1545Z" fill="#455A64"/>
<path d="M40.547 91.0349C40.5434 91.4527 40.6098 91.8683 40.7438 92.2662C41.2906 94.235 42.5102 95.9764 44.2117 97.2177C44.549 97.489 44.9283 97.7094 45.3364 97.8711C45.3926 97.8044 43.6071 96.8399 42.2575 94.8842C40.9079 92.9284 40.6314 91.0083 40.547 91.0349Z" fill="#455A64"/>
<path d="M80.1132 69.9299L83.0843 70.8189L88.4828 67.9875L91.5476 76.0816L84.1996 77.7395L78.6323 77.1573L80.1132 69.9299Z" fill="#AE7461"/>
<path d="M45.5566 37.4377C45.5566 37.4377 48.5933 39.1668 51.1098 45.0429C56.0492 56.5995 59.1561 62.8222 59.1561 62.8222L81.8188 69.6006L80.0053 78.2236C80.0053 78.2236 57.0145 75.1834 53.9357 74.0899C49.718 72.592 46.597 64.7113 46.597 64.7113L45.5566 37.4377Z" fill="#E0E0E0"/>
<path d="M39.3054 11.547C39.8874 11.5674 40.4571 11.3859 40.9082 11.0366C41.3592 10.6873 41.6606 10.1941 41.756 9.64922C41.8514 9.10436 41.7341 8.54522 41.4263 8.07642C41.1184 7.60761 40.641 7.26127 40.0834 7.1022C40.4298 6.73018 40.6437 6.26404 40.6948 5.77006C40.7459 5.27608 40.6314 4.7794 40.3678 4.35064C40.1041 3.92189 39.7047 3.58288 39.2263 3.38183C38.7478 3.18077 38.2147 3.1279 37.7027 3.23074C37.6553 2.74419 37.4757 2.27762 37.1815 1.87653C36.8873 1.47544 36.4885 1.15354 36.024 0.942211C35.5595 0.730887 35.0452 0.637362 34.5312 0.67076C34.0173 0.704158 33.5212 0.863337 33.0915 1.13277C32.4882 0.714268 31.7548 0.4988 31.0078 0.520541C30.2607 0.542281 29.5427 0.799987 28.9676 1.25278C28.4634 1.19328 27.9524 1.28831 27.5093 1.52398C27.0661 1.75965 26.7141 2.12361 26.5047 2.56263C26.2952 3.00165 26.2394 3.49271 26.3452 3.964C26.4511 4.43529 26.7132 4.8621 27.0931 5.18202" fill="#263238"/>
<path d="M28.5737 3.50274H29.0985C31.6469 3.38065 34.1502 4.17381 36.1095 5.72414C38.0689 7.27447 39.3404 9.46812 39.6707 11.8679C40.308 16.4995 40.95 21.6199 41.0485 24.1135C41.2547 29.2784 35.8514 30.3363 35.8514 30.3363L36.6387 36.5146L23.4094 36.7502L21.0663 14.3126C20.2931 8.95656 22.9267 4.08501 28.5737 3.50274Z" fill="#AE7461"/>
<path d="M35.8987 30.3089C33.3785 30.424 30.8761 29.8534 28.6865 28.6643C28.6865 28.6643 30.561 32.3002 35.9643 31.5801L35.8987 30.3089Z" fill="#6F4439"/>
<path d="M37.7119 16.609C37.7249 16.8007 37.658 16.9896 37.5257 17.1351C37.3933 17.2805 37.2061 17.3709 37.0043 17.3868C36.8079 17.4068 36.6112 17.352 36.4575 17.2344C36.3037 17.1169 36.2054 16.9463 36.1842 16.7601C36.1737 16.5682 36.242 16.3799 36.3749 16.2349C36.5077 16.0898 36.6947 15.9993 36.8965 15.9823C36.9934 15.9724 37.0915 15.9808 37.185 16.007C37.2785 16.0332 37.3657 16.0767 37.4415 16.1349C37.5172 16.1932 37.5801 16.265 37.6265 16.3464C37.6729 16.4277 37.7019 16.517 37.7119 16.609Z" fill="#263238"/>
<path d="M38.6352 14.427C38.5415 14.5293 37.9322 14.1426 37.0934 14.1826C36.2546 14.2226 35.6875 14.6493 35.5704 14.5604C35.4532 14.4715 35.6125 14.3381 35.8703 14.1426C36.2198 13.8879 36.6437 13.742 37.084 13.7247C37.5192 13.7026 37.9505 13.8115 38.3165 14.0359C38.5836 14.2137 38.6774 14.3826 38.6352 14.427Z" fill="#263238"/>
<path d="M30.0923 16.8098C30.1 16.9065 30.0873 17.0037 30.0551 17.0957C30.0229 17.1878 29.9717 17.2728 29.9046 17.346C29.8375 17.4192 29.7557 17.479 29.6641 17.522C29.5724 17.565 29.4727 17.5903 29.3706 17.5965C29.2722 17.6089 29.1722 17.6024 29.0765 17.5774C28.9808 17.5523 28.8913 17.5093 28.8135 17.4508C28.7357 17.3924 28.6711 17.3196 28.6235 17.237C28.5759 17.1544 28.5463 17.0635 28.5365 16.9698C28.5247 16.7783 28.592 16.5901 28.7241 16.4449C28.8562 16.2997 29.0427 16.2089 29.2441 16.1919C29.3429 16.1776 29.4437 16.1823 29.5405 16.2059C29.6373 16.2295 29.728 16.2714 29.8072 16.3291C29.8865 16.3869 29.9526 16.4592 30.0016 16.5418C30.0506 16.6244 30.0814 16.7156 30.0923 16.8098Z" fill="#263238"/>
<path d="M30.4201 14.9648C30.3264 15.0626 29.7172 14.6759 28.883 14.7203C28.0488 14.7648 27.4537 15.1648 27.3553 15.0937C27.2569 15.0226 27.3974 14.8759 27.6552 14.6759C28.0047 14.4212 28.4286 14.2753 28.8689 14.2581C29.3047 14.2363 29.7364 14.3469 30.1014 14.5736C30.3685 14.747 30.4623 14.9292 30.4201 14.9648Z" fill="#263238"/>
<path d="M33.7613 20.7069C34.1965 20.5552 34.6499 20.4552 35.111 20.4091C35.3218 20.378 35.5233 20.3291 35.5515 20.1913C35.5572 19.9808 35.4968 19.7735 35.3781 19.5957C35.1484 19.1156 34.9095 18.6089 34.6658 18.0844C33.6723 15.9287 32.9412 14.1507 33.0349 14.1152C33.1287 14.0796 34.005 15.7953 34.9985 17.9511C35.2375 18.48 35.4671 18.9867 35.6827 19.4712C35.8309 19.7094 35.8857 19.9896 35.8373 20.2624C35.8102 20.3354 35.7656 20.4015 35.7071 20.4555C35.6485 20.5094 35.5776 20.5498 35.4999 20.5735C35.3832 20.6103 35.2619 20.6327 35.1391 20.6402C34.6847 20.7181 34.2217 20.7405 33.7613 20.7069Z" fill="#263238"/>
<path d="M30.9871 11.8758C30.884 12.0847 30.1576 11.8981 29.2719 11.9114C28.3862 11.9247 27.6552 12.1025 27.5615 11.9114C27.524 11.8136 27.6692 11.6225 27.9785 11.4669C28.3785 11.2514 28.8307 11.138 29.2907 11.138C29.7432 11.1314 30.1895 11.2387 30.5841 11.4491C30.8887 11.5914 31.0293 11.778 30.9871 11.8758Z" fill="#263238"/>
<path d="M38.5275 11.1564C38.3588 11.3431 37.6606 11.1875 36.8264 11.2186C35.9923 11.2498 35.3034 11.4142 35.13 11.2186C35.055 11.1298 35.1534 10.9431 35.4534 10.7742C35.8657 10.5404 36.3367 10.4161 36.8171 10.4141C37.2948 10.3933 37.7694 10.4963 38.1901 10.7119C38.4713 10.8808 38.5744 11.0631 38.5275 11.1564Z" fill="#263238"/>
<path d="M39.0241 9.50257C39.0241 9.50257 37.4167 6.33785 35.7437 5.66223C33.7052 4.84438 32.9601 6.95568 31.0575 6.5512C29.1548 6.14672 27.1866 5.35109 25.3215 6.83122C23.283 8.45359 24.3327 9.47146 24.3186 11.7694C24.2764 21.0814 22.6269 23.7927 21.8865 19.4412C21.8068 18.9656 20.3822 18.6501 20.0682 16.6365C19.6652 14.023 19.3887 10.8583 19.9089 8.94697C20.3494 7.35127 21.2351 6.22228 22.8659 4.94661C25.4386 2.9331 29.108 2.72419 31.6151 2.83975C34.1223 2.95532 39.0381 5.44443 39.0241 9.50257Z" fill="#263238"/>
<path d="M22.2004 19.2759C22.1837 19.0865 22.1267 18.9024 22.0328 18.7345C21.9389 18.5667 21.8101 18.4186 21.6541 18.2994C21.4982 18.1801 21.3183 18.0921 21.1254 18.0407C20.9326 17.9893 20.7307 17.9755 20.5321 18.0002C19.5199 18.138 18.4233 18.7381 18.592 20.7249C18.8966 24.2497 22.5613 23.2318 22.5613 23.134C22.5613 23.0362 22.341 20.7471 22.2004 19.2759Z" fill="#AE7461"/>
<path d="M21.6571 21.8688C21.6571 21.8688 21.5962 21.9177 21.4931 21.9754C21.3479 22.0444 21.1811 22.0602 21.0245 22.0199C20.6168 21.9132 20.2372 21.3487 20.1622 20.7176C20.1278 20.4173 20.1647 20.1136 20.27 19.8286C20.2952 19.7156 20.3489 19.6102 20.4264 19.5212C20.5039 19.4321 20.603 19.3623 20.7152 19.3174C20.7882 19.2937 20.8675 19.2945 20.94 19.3196C21.0125 19.3446 21.0737 19.3925 21.1135 19.4552C21.1697 19.553 21.151 19.6241 21.1744 19.6286C21.1979 19.633 21.2494 19.5619 21.2072 19.4197C21.1745 19.3355 21.1157 19.2626 21.0385 19.2108C20.9853 19.1773 20.9254 19.1545 20.8625 19.1438C20.7997 19.1331 20.7352 19.1347 20.673 19.1485C20.5228 19.189 20.3861 19.2654 20.2762 19.3705C20.1662 19.4756 20.0866 19.6058 20.045 19.7486C19.9133 20.0662 19.865 20.4094 19.9045 20.7487C19.9888 21.4554 20.4293 22.0821 20.9823 22.1977C21.0842 22.2178 21.1895 22.2154 21.2903 22.1907C21.391 22.1661 21.4845 22.1198 21.5634 22.0555C21.6571 21.9577 21.6571 21.8777 21.6571 21.8688Z" fill="#6F4439"/>
<path d="M21.9145 12.4368C22.3909 12.7663 22.9468 12.9772 23.5313 13.0501C23.8253 13.0777 24.1198 13.0027 24.3597 12.839C24.5995 12.6754 24.7682 12.4344 24.8341 12.1612C24.8669 11.9123 24.7872 11.6322 24.9465 11.4322C25.1059 11.2322 25.5183 11.25 25.8322 11.2678C26.9194 11.3255 28.1238 10.1299 28.3441 9.1209C28.4969 9.30409 28.7171 9.42562 28.9605 9.46108C29.2039 9.49653 29.4525 9.44328 29.6562 9.31203C29.9886 9.09601 30.2788 8.82679 30.5138 8.5164C30.649 8.31771 30.8331 8.1532 31.0503 8.03705C31.2674 7.92089 31.5111 7.85659 31.7603 7.84967C32.026 7.9224 32.2996 7.96565 32.5757 7.97857C33.0444 7.91635 33.274 7.36074 33.3255 6.89848C33.3771 6.43621 33.4052 5.89394 33.7942 5.62725C34.1831 5.36056 34.6705 5.48502 35.1251 5.52946C35.5796 5.57391 36.1514 5.44501 36.2451 5.01831C36.2592 4.90561 36.2486 4.79135 36.214 4.68272C36.1793 4.5741 36.1213 4.47346 36.0436 4.38714C35.7185 3.97589 35.2571 3.68036 34.7334 3.54813C34.2098 3.4159 33.6544 3.45466 33.1568 3.65818C32.9349 3.08498 32.54 2.58638 32.0215 2.22453C31.5029 1.86267 30.8835 1.65355 30.2405 1.62323C29.5975 1.5929 28.9593 1.7427 28.4054 2.05397C27.8515 2.36524 27.4064 2.82422 27.1256 3.37372C26.7124 3.05302 26.2238 2.8315 25.7011 2.72792C25.1785 2.62435 24.6372 2.64177 24.1232 2.7787C23.6092 2.91564 23.1375 3.16806 22.7481 3.51458C22.3588 3.86111 22.0632 4.29153 21.8864 4.7694C21.4246 4.67824 20.9448 4.71768 20.5064 4.88283C20.0681 5.04797 19.6905 5.33155 19.4205 5.69839C19.1505 6.06523 19 6.49918 18.9877 6.9464C18.9754 7.39362 19.1017 7.83443 19.3511 8.21415C19.0142 8.39256 18.7308 8.6494 18.5274 8.96045C18.3241 9.2715 18.2076 9.62653 18.189 9.99209C18.189 10.721 18.9997 11.4144 19.7354 11.1878C19.6566 11.3366 19.6096 11.4987 19.5968 11.6648C19.5841 11.8309 19.606 11.9978 19.6613 12.1558C19.7165 12.3139 19.8041 12.4601 19.9189 12.5861C20.0338 12.7121 20.1737 12.8154 20.3306 12.8901C20.4875 12.9648 20.6584 13.0095 20.8335 13.0216C21.0087 13.0336 21.1846 13.0129 21.3513 12.9605C21.5179 12.908 21.6721 12.825 21.8049 12.7161C21.9377 12.6071 22.0466 12.4745 22.1254 12.3256" fill="#263238"/>
<path d="M33.4896 4.70569C33.4896 4.70569 33.4896 4.72791 33.4896 4.77236C33.4896 4.81681 33.4896 4.87904 33.4896 4.96349C33.4502 5.20341 33.3711 5.43592 33.2553 5.65244C33.0704 6.00219 32.8025 6.30649 32.4726 6.54141C32.0412 6.85564 31.5124 7.02595 30.9684 7.0259L31.0293 6.92811C31.1572 7.24433 31.1488 7.5956 31.0059 7.90597C30.8531 8.22664 30.6544 8.52578 30.4154 8.79494C30.2998 8.95622 30.1663 9.10524 30.0171 9.23943C29.8486 9.36229 29.6505 9.44328 29.4406 9.47501C29.2228 9.51531 28.9978 9.50438 28.7854 9.44317C28.573 9.38196 28.3796 9.27233 28.2222 9.12386L28.3581 9.07941C28.3255 9.44526 28.2128 9.80064 28.0272 10.1228C27.8416 10.4451 27.5873 10.727 27.2803 10.9507C26.9398 11.218 26.5174 11.3739 26.0759 11.3952C25.6629 11.3965 25.2526 11.3319 24.8622 11.2041L24.9559 11.1552C24.7779 11.5846 24.4895 11.9651 24.1171 12.2619C23.9481 12.4137 23.7456 12.5279 23.5244 12.5963C23.3031 12.6647 23.0685 12.6856 22.8377 12.6575C22.4463 12.5957 22.0822 12.4276 21.7895 12.1736C21.4967 11.9196 21.2879 11.5905 21.1882 11.2263L21.2725 11.2618C20.8925 11.4777 20.4451 11.561 20.0072 11.4974C19.6789 11.4571 19.3656 11.3428 19.0934 11.164C18.9228 11.051 18.7739 10.9112 18.6529 10.7507C18.6099 10.6963 18.5752 10.6365 18.5498 10.5729C18.7079 10.7851 18.9046 10.9687 19.1309 11.1152C19.3969 11.28 19.7006 11.3821 20.0166 11.413C20.4328 11.4658 20.8554 11.3794 21.2116 11.1685L21.2819 11.1285V11.2041C21.3794 11.5458 21.5791 11.8535 21.8568 12.0901C22.1345 12.3267 22.4784 12.4821 22.8471 12.5375C23.058 12.5626 23.2721 12.5421 23.4734 12.4774C23.6747 12.4128 23.8579 12.3056 24.0093 12.1641C24.3561 11.8729 24.6217 11.505 24.7825 11.0929L24.806 11.0263H24.8809C25.2543 11.1507 25.6473 11.2138 26.0431 11.2129C26.4504 11.1948 26.8403 11.0513 27.1538 10.804C27.4468 10.5925 27.6895 10.3249 27.8664 10.0186C28.0432 9.71231 28.1501 9.37413 28.1801 9.02608V8.86162L28.3066 8.98163C28.4452 9.11253 28.6154 9.20932 28.8024 9.26355C28.9895 9.31778 29.1877 9.32781 29.3797 9.29277C29.5666 9.26574 29.7437 9.19552 29.8952 9.0883C30.0329 8.96748 30.157 8.83341 30.2654 8.68827C30.5022 8.43073 30.698 8.14172 30.8465 7.83041C30.9146 7.69192 30.9527 7.54183 30.9583 7.3891C30.9639 7.23636 30.9371 7.08412 30.8793 6.94144L30.8465 6.85699H30.9403C31.4596 6.86214 31.9665 6.70604 32.3836 6.41251C32.712 6.20026 32.9858 5.92076 33.185 5.59466C33.3398 5.31722 33.4429 5.01646 33.4896 4.70569Z" fill="#455A64"/>
<path d="M33.7241 23.4276C33.696 23.2943 32.7869 23.521 31.9434 22.9476C31.0999 22.3742 30.9405 21.4319 30.814 21.4586C30.6875 21.4852 30.6921 21.703 30.7906 22.0942C30.9238 22.5978 31.2389 23.0413 31.681 23.3476C32.1066 23.6415 32.6357 23.7673 33.1571 23.6988C33.5461 23.6365 33.7429 23.4854 33.7241 23.4276Z" fill="#263238"/>
<path d="M55.8104 56.062C55.726 55.7819 50.8805 43.2742 49.3387 40.5361C47.4876 37.2603 43.598 35.8113 41.1846 35.6468C38.7712 35.4823 12.95 37.4603 12.95 37.4603C12.95 37.4603 5.23638 39.096 4.25227 45.3899C3.11819 52.635 2.12939 69.2187 2.12939 69.2187L13.8825 63.5026L15.4055 59.8668L39.7272 65.0139L45.6647 56.7109L55.8104 56.062Z" fill="#E0E0E0"/>
<path d="M11.244 38.1947L21.3288 33.9765L22.4582 29.8517L34.2348 35.1322L36.6997 32.5453L37.7354 35.4611L40.3128 36.2612L46.344 46.3198V67.7529L47.5625 86.2434L46.2363 89.1592L35.4345 90.6705C34.2536 90.8349 33.0538 90.8349 31.8729 90.6705L9.94126 87.2791L9.37891 81.1585L11.722 64.317L11.244 38.1947Z" fill="#E0E0E0"/>
<path d="M22.4582 29.8517C22.4582 29.8517 23.7751 30.2117 27.1445 31.923C30.4576 33.5987 34.2207 35.1322 34.2207 35.1322L33.9348 40.1726L21.4038 34.2076" fill="#E0E0E0"/>
<path d="M36.6998 32.5453L34.2349 35.1322L35.5517 40.5371L37.7496 35.6522" fill="#E0E0E0"/>
<g opacity="0.3">
<path d="M34.2818 35.6868C34.3896 35.7669 35.0738 41.9096 35.0738 41.9096L22.5146 34.709L33.9491 40.1539L34.2818 35.6868Z" fill="black"/>
</g>
<path d="M34.1974 58.6804C34.0052 53.9689 34.7878 41.95 34.7878 41.95L36.428 41.6967C38.5165 50.2535 39.9263 58.9468 40.6456 67.7034C41.1142 73.4817 41.1142 80.2157 41.1142 80.2157L37.8339 86.9096L34.1974 80.2423C34.1974 80.2423 34.427 64.4098 34.1974 58.6804Z" fill="#455A64"/>
<path d="M10.4942 38.9309C10.4708 38.9531 10.8317 39.2198 11.3425 39.7176C12.6696 41.0209 13.5908 42.6469 14.0043 44.4158C14.1589 45.0915 14.1964 45.5226 14.2245 45.5182C14.2417 45.4181 14.2417 45.316 14.2245 45.2159C14.2072 44.9399 14.1712 44.6652 14.1167 44.3936C13.9496 43.4914 13.6333 42.6198 13.1795 41.8112C12.7216 41.0034 12.1334 40.2686 11.4362 39.6332C11.2279 39.4407 11.0055 39.2625 10.7707 39.0998C10.6857 39.0337 10.5929 38.977 10.4942 38.9309Z" fill="#263238"/>
<path d="M34.1976 37.54L35.3176 37.1266L36.3814 38.8556L36.5735 41.6959L35.0739 41.927L33.9492 40.1713L34.1976 37.54Z" fill="#455A64"/>
<path d="M46.3254 45.9945C46.2785 45.9945 46.2363 52.1462 46.2363 59.7291C46.2363 67.312 46.2785 73.4681 46.3254 73.4681C46.3722 73.4681 46.4144 67.3209 46.4144 59.7291C46.4144 52.1373 46.3722 45.9945 46.3254 45.9945Z" fill="#263238"/>
<path d="M34.1177 35.0876C34.3119 35.4397 34.5246 35.7824 34.755 36.1143C35.2682 36.9359 35.7374 37.7815 36.1609 38.6479C36.2031 38.7323 36.2452 38.8123 36.2827 38.8923L36.3624 39.0523L36.4421 38.8923C36.8512 38.0761 37.2004 37.234 37.4871 36.3721C37.5949 36.0476 37.6745 35.7809 37.7214 35.5943C37.7593 35.5007 37.7783 35.4012 37.7776 35.3009C37.7542 35.3009 37.623 35.6965 37.3746 36.3365C37.0549 37.1817 36.6905 38.0109 36.2827 38.8212H36.4421L36.3202 38.5767C35.8893 37.7043 35.3961 36.8608 34.8441 36.0521C34.6285 35.7454 34.4457 35.5009 34.3145 35.332C34.1833 35.1631 34.127 35.0787 34.1177 35.0876Z" fill="#263238"/>
<path d="M21.3291 33.9755C21.3829 34.0141 21.441 34.0469 21.5025 34.0733L22.0086 34.3266L23.8831 35.2467C25.4624 36.0245 27.6321 37.1358 30.0221 38.3581C31.4795 39.0959 32.862 39.7804 34.0663 40.3494L34.1788 40.4027V40.2649C34.1788 38.7848 34.2069 37.5402 34.2163 36.6379C34.2163 36.1934 34.2163 35.8734 34.2163 35.6156C34.2255 35.4943 34.2255 35.3725 34.2163 35.2511C34.1943 35.3715 34.1833 35.4934 34.1835 35.6156C34.1835 35.869 34.1601 36.2112 34.1413 36.6335C34.1179 37.5225 34.0851 38.7848 34.0429 40.2605L34.1554 40.1982C32.9604 39.616 31.5826 38.927 30.1205 38.1892C27.7258 36.9757 25.5514 35.8823 23.9581 35.1267C23.1614 34.7533 22.51 34.4555 22.0602 34.2377L21.5353 34.0155C21.469 33.9926 21.3995 33.9791 21.3291 33.9755Z" fill="#263238"/>
<path d="M44.8118 37.8646C44.7836 37.8646 44.9805 38.1935 45.2382 38.7536C45.5647 39.4556 45.8053 40.1908 45.9552 40.9449C46.099 41.7013 46.1493 42.471 46.1052 43.2384C46.0724 43.8296 46.0067 44.1896 46.0349 44.194C46.0741 44.1152 46.101 44.0314 46.1145 43.9451C46.1654 43.7146 46.203 43.4817 46.227 43.2473C46.3951 41.6844 46.0894 40.1085 45.346 38.7047C45.2382 38.4921 45.1145 38.2871 44.9758 38.0913C44.8774 37.9313 44.8211 37.8557 44.8118 37.8646Z" fill="#263238"/>
<path d="M35.3504 42.1107C35.3504 42.1507 35.6596 42.0218 35.983 41.8262C36.3064 41.6306 36.5547 41.4439 36.5266 41.4039C36.2939 41.451 36.0758 41.5483 35.8893 41.6884C35.5659 41.884 35.3222 42.0707 35.3504 42.1107Z" fill="#263238"/>
<path d="M34.8115 41.4173C35.1147 40.9626 35.369 40.4801 35.5707 39.9772C35.8251 39.5006 36.0306 39.002 36.1846 38.4882C35.876 38.9391 35.6199 39.4205 35.4207 39.9238C35.1637 40.4003 34.9595 40.9008 34.8115 41.4173Z" fill="#263238"/>
<path d="M9.17743 39.2513C9.17743 39.2513 5.29253 41.9183 4.80516 43.3717C4.31779 44.8252 2.25584 68.6584 1.89031 71.4942C1.52479 74.33 1.15926 79.6239 3.46958 81.3529C5.7799 83.0819 10.7567 84.3798 10.7567 84.3798L15.3539 75.379L12.9171 70.5386L15.3539 52.4481L9.17743 39.2513Z" fill="#E0E0E0"/>
<path d="M9.646 84.0594C9.72859 84.0517 9.81177 84.0517 9.89437 84.0594C10.1341 84.0581 10.3735 84.0433 10.6114 84.015C11.5027 83.9372 12.358 83.6433 13.0951 83.1616C14.1953 82.3874 15.0221 81.3149 15.4663 80.0857C16.0664 78.5325 16.371 76.8906 16.3661 75.2364L16.3895 75.2986L12.8186 70.6093L12.7905 70.5738V70.5293C12.7905 70.4093 12.8233 70.276 12.842 70.1471C13.5262 65.0755 14.1495 60.4795 14.6041 57.1326C14.829 55.4835 15.0118 54.1412 15.143 53.19C15.2039 52.7455 15.2508 52.381 15.2882 52.1143C15.3257 51.8476 15.3398 51.741 15.3445 51.741C15.3525 51.7731 15.3525 51.8066 15.3445 51.8387C15.3445 51.901 15.3445 51.9988 15.3445 52.1188C15.3164 52.3855 15.2836 52.7455 15.2414 53.1989C15.143 54.1323 14.9836 55.4835 14.7728 57.1503C14.3604 60.4884 13.7652 65.0933 13.081 70.1782C13.081 70.3071 13.0482 70.436 13.0295 70.556V70.476L16.5863 75.1697V75.2008V75.232C16.5854 76.912 16.268 78.5783 15.6491 80.1524C15.1775 81.4043 14.3142 82.4898 13.1747 83.2638C12.7455 83.5423 12.2704 83.7511 11.7689 83.8816L11.4502 83.9661L11.1503 84.015C10.9773 84.048 10.8018 84.0674 10.6254 84.0728C10.3853 84.0923 10.1439 84.0923 9.90375 84.0728C9.81758 84.0766 9.73121 84.0721 9.646 84.0594Z" fill="#263238"/>
<path d="M4.95039 72.1967C5.25015 71.917 5.59501 71.6844 5.97199 71.5078C7.74835 70.5652 9.7962 70.1867 11.8157 70.4277C12.2344 70.4594 12.6454 70.5523 13.0342 70.7032C10.2317 70.2481 7.35045 70.7792 4.93164 72.1967H4.95039Z" fill="#263238"/>
<path d="M35.4439 48.4786C35.4439 48.4786 35.6688 49.2698 36.0203 50.6654C36.8188 49.5781 37.8386 48.6532 39.0195 47.9452C39.0195 47.9452 45.0179 42.2914 46.9346 36.3486C48.3404 32.0327 47.9796 27.25 47.9796 27.25C47.9234 27.0233 47.4547 24.9965 47.0751 23.3385C46.9252 22.6853 47.0473 22.0023 47.4158 21.4325C47.7844 20.8626 48.3709 20.4498 49.0527 20.2805C52.0191 19.5204 60.0842 18.0403 61.9587 23.1696C64.7189 30.837 60.2529 39.1177 60.3044 41.4868C60.3044 41.9313 60.3044 42.3002 60.3044 42.5936C62.671 42.0736 64.5221 41.7046 64.5221 41.7402L80.0523 38.3043C80.0523 38.3043 85.1837 36.8286 86.9458 41.8202C88.7078 46.8118 82.7281 48.4875 82.7281 48.4875C82.7281 48.4875 85.5399 48.3675 86.2991 52.9056C87.0582 57.4438 81.9268 58.9151 81.9268 58.9151C81.9268 58.9151 85.0713 58.7239 85.8867 62.7465C86.6787 66.6624 81.5472 69.0226 81.2707 69.1471C81.6782 69.0503 82.0913 68.9761 82.5079 68.9249C82.2022 69.0314 81.889 69.1175 81.5706 69.1827C83.9653 69.4716 84.3121 72.174 84.3121 72.174C85.8539 77.7168 81.3551 78.8813 81.3551 78.8813L52.9845 85.1574C50.1585 85.7823 47.2078 85.681 44.4368 84.8641C44.7086 86.0108 44.8539 86.642 44.8445 86.642L25.0357 91.0291C24.9935 91.0291 22.8566 82.4994 20.2604 71.9651C17.6642 61.4309 15.5976 52.8523 15.6398 52.8523L35.4439 48.4786Z" fill="#7E57C2"/>
<g opacity="0.3">
<path d="M35.4439 48.4813C35.4439 48.4813 35.6688 49.2724 36.0203 50.6681C36.8188 49.5808 37.8386 48.6559 39.0195 47.9479C39.0195 47.9479 45.0179 42.294 46.9346 36.3513C48.3404 32.0353 47.9796 27.2527 47.9796 27.2527C47.9234 27.026 47.4547 24.9992 47.0751 23.3412C46.9252 22.688 47.0473 22.005 47.4158 21.4351C47.7844 20.8652 48.3709 20.4525 49.0527 20.2832C52.0191 19.5231 60.0842 18.043 61.9587 23.1723C64.7189 30.8397 60.2529 39.1204 60.3044 41.4895C60.3044 41.934 60.3044 42.3029 60.3044 42.5963C62.671 42.0762 64.5221 41.7073 64.5221 41.7429L80.0523 38.307C80.0523 38.307 85.1837 36.8313 86.9458 41.8229C88.7078 46.8144 82.7281 48.4902 82.7281 48.4902C82.7281 48.4902 85.5399 48.3701 86.2991 52.9083C87.0582 57.4465 81.9268 58.9178 81.9268 58.9178C81.9268 58.9178 85.0713 58.7266 85.8867 62.7492C86.6787 66.6651 81.5472 69.0253 81.2707 69.1498C81.6782 69.053 82.0913 68.9788 82.5079 68.9275C82.2022 69.0341 81.889 69.1202 81.5706 69.1853C83.9653 69.4743 84.3121 72.1767 84.3121 72.1767C85.8539 77.7194 81.3551 78.884 81.3551 78.884L52.9845 85.1601C50.1585 85.785 47.2078 85.6837 44.4368 84.8668C44.7086 86.0135 44.8539 86.6447 44.8445 86.6447L25.0357 91.0318C24.9935 91.0318 22.8566 82.5021 20.2604 71.9678C17.6642 61.4335 15.5976 52.855 15.6398 52.855L35.4439 48.4813Z" fill="black"/>
</g>
<path d="M39.2725 53.8305L38.8882 56.2751L45.224 81.9885C47.0788 83.1569 49.1661 83.9529 51.3575 84.3275C53.5488 84.702 55.7978 84.6473 57.9659 84.1665L86.3271 77.8859C86.3271 77.8859 90.8259 76.7214 89.2841 71.1787C89.2841 71.1787 88.9139 68.2362 86.2381 68.1562C86.2381 68.1562 91.6741 65.7737 90.8634 61.7512C90.0527 57.7286 86.9082 57.9242 86.9082 57.9242C86.9082 57.9242 92.0396 56.4485 91.2758 51.9103C90.5119 47.3721 87.7049 47.4921 87.7049 47.4921C87.7049 47.4921 93.6798 45.8342 91.9225 40.8248C90.1651 35.8155 85.029 37.309 85.029 37.309L64.8781 41.7538L47.2016 45.6697C45.1675 46.115 43.3225 47.1322 41.9078 48.5882C40.4931 50.0442 39.5746 51.8713 39.2725 53.8305Z" fill="#7E57C2"/>
<path d="M43.9868 46.9716C43.9868 46.9716 49.9852 41.3178 51.9019 35.375C53.3078 31.0591 52.9469 26.2809 52.9469 26.2809C52.8907 26.0498 52.4221 24.0229 52.0425 22.365C51.8926 21.7117 52.0146 21.0288 52.3832 20.4589C52.7517 19.889 53.3382 19.4763 54.0201 19.3069C57.0005 18.5424 62.3757 19.947 64.2267 25.0852C66.9869 32.7481 65.2155 38.1397 65.2624 40.5088L65.3093 42.8779L43.9868 46.9716Z" fill="#7E57C2"/>
<path d="M40.4285 47.4858L20.6235 51.8744L30.0246 90.0413L49.8297 85.6526L40.4285 47.4858Z" fill="#7E57C2"/>
<path d="M49.8262 85.6689C49.8684 85.6689 47.8018 77.1081 45.2056 66.5561C42.6094 56.004 40.4725 47.4788 40.4303 47.4877C40.3881 47.4966 42.4548 56.0484 45.051 66.6005C47.6472 77.1526 49.7747 85.6778 49.8262 85.6689Z" fill="#263238"/>
<path d="M30.0219 90.0481C30.064 90.0481 27.9927 81.4874 25.3965 70.9353C22.8003 60.3833 20.6634 51.8581 20.6212 51.867C20.5791 51.8758 22.6457 60.4277 25.2419 70.9798C27.8381 81.5318 29.975 90.0481 30.0219 90.0481Z" fill="#263238"/>
<path d="M35.589 57.7875C35.76 58.4825 35.71 59.2101 35.4452 59.8781C35.1804 60.5462 34.7127 61.1247 34.1013 61.5407C33.4898 61.9567 32.7621 62.1914 32.01 62.2152C31.258 62.2389 30.5154 62.0507 29.8761 61.6742C29.2369 61.2977 28.7296 60.7499 28.4185 60.1001C28.1074 59.4502 28.0065 58.7275 28.1284 58.0232C28.2503 57.3189 28.5896 56.6648 29.1035 56.1434C29.6173 55.622 30.2826 55.2568 31.0152 55.0939C31.9982 54.8767 33.032 55.0383 33.8896 55.5433C34.7471 56.0483 35.3583 56.8555 35.589 57.7875Z" fill="white"/>
<path d="M69.4942 40.7636C69.4942 40.7236 67.3151 41.1681 64.6533 41.7593C61.9916 42.3504 59.8359 42.8571 59.8452 42.8971C59.8546 42.9371 62.0244 42.4927 64.6861 41.9059C67.3479 41.3192 69.5036 40.8036 69.4942 40.7636Z" fill="#263238"/>
<path d="M87.3488 58.0137C87.3488 57.9737 85.943 58.2493 84.2465 58.6227C83.2085 58.8229 82.1823 59.0751 81.1724 59.3783C81.1724 59.4183 82.5782 59.1427 84.2747 58.7694C85.3121 58.5667 86.3382 58.3145 87.3488 58.0137Z" fill="#263238"/>
<path d="M88.0704 47.3107C88.0704 47.2707 86.0928 47.6752 83.6746 48.1997C81.2565 48.7242 79.3071 49.1998 79.3164 49.2442C79.3258 49.2887 81.294 48.8797 83.7121 48.3552C86.1302 47.8308 88.0797 47.3774 88.0704 47.3107Z" fill="#263238"/>
<path d="M87.4849 67.9291C87.4849 67.8891 85.5073 68.2892 83.0892 68.8181C80.6711 69.3471 78.7216 69.8182 78.731 69.8582C78.7404 69.8982 80.7086 69.4982 83.1267 68.9692C85.5448 68.4403 87.4943 67.9692 87.4849 67.9291Z" fill="#263238"/>
<g opacity="0.3">
<path d="M54.1888 21.1976C53.9077 21.4941 53.7158 21.8569 53.6334 22.2479C53.5509 22.6389 53.5809 23.0438 53.7202 23.42C54.0169 24.1689 54.379 24.893 54.8027 25.5847C55.6162 27.192 55.85 29.0083 55.4682 30.754C55.351 31.283 55.1964 31.8919 55.5525 32.3142C56.0586 32.9098 57.0756 32.5809 57.7176 32.1142C58.9124 31.2044 59.8107 29.992 60.3084 28.6176C60.806 27.2432 60.8827 25.7631 60.5293 24.349C60.2505 23.145 59.5461 22.0676 58.533 21.2954C57.4973 20.5665 55.9087 19.9086 54.1513 21.1843" fill="white"/>
</g>
<g opacity="0.3">
<path d="M86.8757 37.9875C86.1697 37.9111 85.4547 37.9824 84.7809 38.1964L72.8123 41.0767C71.5095 41.3923 69.0633 41.6723 69.0351 42.9346C68.7727 43.6236 69.3257 44.4059 70.038 44.6859C70.7794 44.9128 71.5726 44.9405 72.3296 44.7659C73.9276 44.5259 75.5068 44.1703 77.0861 43.8147C80.254 43.0946 83.4313 42.3568 86.4586 41.1478C86.9136 40.9917 87.338 40.7649 87.7145 40.4766C87.9022 40.3307 88.0531 40.1468 88.1561 39.9383C88.259 39.7299 88.3115 39.5023 88.3097 39.2721C88.245 38.9415 88.0712 38.6389 87.8135 38.408C87.5558 38.1772 87.2274 38.0299 86.8757 37.9875Z" fill="white"/>
</g>
<path d="M36.025 49.5996C36.025 49.5596 33.2132 50.1419 29.825 50.8975C26.4369 51.6531 23.6532 52.2976 23.6626 52.3376C23.672 52.3776 26.4463 51.7998 29.8625 51.0442C33.2788 50.2886 36.0343 49.6618 36.025 49.5996Z" fill="white"/>
<path d="M89.4574 53.9423C89.4948 53.8725 89.5201 53.7974 89.5324 53.72C89.5904 53.5137 89.6249 53.3021 89.6355 53.0889C89.6585 52.773 89.6475 52.4558 89.6027 52.1421C89.5392 51.7575 89.4324 51.3805 89.284 51.0176C89.1284 50.6568 88.9304 50.3138 88.6936 49.9953C88.4992 49.7363 88.2761 49.4979 88.0281 49.2841C87.8638 49.139 87.6848 49.0095 87.4939 48.8974C87.4293 48.8488 87.3564 48.8112 87.2783 48.7863C87.2783 48.8129 87.5548 48.9907 87.9531 49.3641C88.1826 49.582 88.3898 49.8201 88.5717 50.0753C88.7945 50.3881 88.9829 50.7217 89.1341 51.0709C89.278 51.4234 89.3863 51.788 89.4574 52.1599C89.5069 52.4657 89.5288 52.775 89.523 53.0844C89.509 53.6 89.4246 53.9334 89.4574 53.9423Z" fill="white"/>
<path d="M90.0061 43.6256C90.1697 43.4857 90.2979 43.3125 90.381 43.1189C90.6102 42.6637 90.7103 42.1597 90.6715 41.6566C90.6433 41.1541 90.4822 40.6665 90.2029 40.2387C90.0927 40.0613 89.9422 39.9095 89.7624 39.7942C89.739 39.7942 89.9124 39.9809 90.1045 40.3053C90.3542 40.7251 90.5001 41.1933 90.5309 41.6744C90.5645 42.1547 90.4844 42.6361 90.2966 43.0834C90.1326 43.4167 89.9826 43.6079 90.0061 43.6256Z" fill="white"/>
<path d="M88.5113 65.0547C88.7266 64.9305 88.908 64.76 89.0408 64.5568C89.3997 64.079 89.575 63.4989 89.5375 62.9132C89.5 62.3276 89.2519 61.7719 88.8346 61.3388C88.6778 61.1482 88.4754 60.9958 88.2441 60.8943C88.2441 60.8943 88.4691 61.0676 88.7503 61.3965C89.1163 61.83 89.3352 62.3584 89.3782 62.9122C89.4082 63.4677 89.2577 64.0185 88.9471 64.4902C88.7128 64.8591 88.4878 65.0369 88.5113 65.0547Z" fill="white"/>
<path d="M86.7115 75.0104C86.867 74.8573 86.9881 74.6759 87.0676 74.4771C87.2885 74.0035 87.3911 73.488 87.3675 72.9707C87.3439 72.4534 87.1948 71.9483 86.9318 71.4946C86.8347 71.303 86.6975 71.1321 86.5287 70.9923C86.5053 70.9923 86.6599 71.1968 86.8333 71.5435C87.0555 71.9928 87.1829 72.479 87.2082 72.9747C87.2296 73.4712 87.1468 73.9667 86.9645 74.4326C86.824 74.7926 86.6881 74.9971 86.7115 75.0104Z" fill="white"/>
<path d="M64.4472 34.0999C64.4999 33.9553 64.5391 33.8066 64.5643 33.6554C64.5971 33.5177 64.6346 33.3443 64.6674 33.1398C64.7002 32.9354 64.7424 32.6954 64.7611 32.4464C64.8302 31.8443 64.8537 31.2383 64.8314 30.633C64.7848 29.1438 64.4857 27.6715 63.9457 26.2726C63.726 25.7033 63.4645 25.1493 63.1631 24.6146C63.0413 24.3791 62.9101 24.1701 62.8023 24.0057C62.6945 23.8412 62.5914 23.6812 62.5024 23.5612C62.4217 23.4325 62.3275 23.3119 62.2212 23.2012C62.2862 23.3374 62.363 23.4682 62.4508 23.5923C62.5305 23.7168 62.6242 23.8679 62.7226 24.0368C62.821 24.2057 62.9522 24.4191 63.0647 24.6546C63.346 25.1929 63.5932 25.7465 63.8051 26.3126C64.0596 27.007 64.2647 27.7168 64.419 28.4372C64.5582 29.1614 64.6474 29.8933 64.6862 30.6285C64.7121 31.2213 64.6996 31.8151 64.6487 32.4064C64.6487 32.6642 64.6018 32.8954 64.5784 33.0954C64.5549 33.2954 64.5268 33.4732 64.5034 33.6154C64.4656 33.7744 64.4468 33.9369 64.4472 34.0999Z" fill="white"/>
<path d="M19.2247 79.136C19.2247 79.136 20.7806 77.9892 21.9381 77.9448C23.0956 77.9003 24.5999 78.3226 24.8998 78.1803C25.1997 78.0381 25.9073 77.4114 26.3572 77.9403C26.8071 78.4692 27.3647 80.3716 24.9513 80.8961H23.2924C23.2924 80.8961 23.4939 82.4696 23.8969 83.0874C24.2999 83.7053 29.9281 90.4259 29.9281 90.4259C29.9281 90.4259 30.631 91.097 30.2796 91.7593C29.9281 92.4216 28.4051 92.0438 28.4051 92.0438C28.4051 92.0438 27.3507 92.9328 26.1463 92.5194C25.5477 92.3281 24.9739 92.0731 24.4358 91.7593C24.0462 92.0416 23.5695 92.1945 23.0792 92.1945C22.5889 92.1945 22.1122 92.0416 21.7225 91.7593C20.3166 90.7592 15.6304 85.181 15.6304 85.181L17.308 78.9582L19.2247 79.136Z" fill="#AE7461"/>
<path d="M14.3419 75.4458L19.225 79.135L15.64 85.1845L8.48877 82.722C8.48877 82.722 8.69497 75.5747 14.3419 75.4458Z" fill="#AE7461"/>
<path d="M90.5072 67.2049C90.5072 67.2049 90.3526 65.547 89.3732 65.8714C88.3937 66.1959 87.9673 68.165 87.9673 68.165L90.5072 67.2049Z" fill="#AE7461"/>
<path d="M87.0065 68.8407C87.0065 68.8407 88.7076 67.0361 91.0695 67.1828C93.4313 67.3295 91.9458 69.2319 91.9458 69.2319C91.9458 69.2319 93.6984 70.2542 92.4144 71.721L92.2082 72.1121C92.2082 72.1121 93.6984 72.6455 92.1567 74.1568C92.3128 74.4273 92.3768 74.737 92.3399 75.0434C92.3029 75.3498 92.1669 75.6379 91.9505 75.868C91.1772 76.597 89.2512 75.6236 89.2512 75.6236C89.2512 75.6236 87.4751 76.0147 87.3205 75.3302C87.2586 75.1008 87.2644 74.8597 87.3371 74.6332C87.4099 74.4067 87.5467 74.2034 87.7328 74.0456C87.8875 73.9478 88.8154 73.6012 88.8154 73.6012C88.8154 73.6012 86.7581 73.8456 86.7066 73.3567C86.655 72.8678 86.4488 72.3299 87.9906 71.8454L88.8154 71.6365C88.8154 71.6365 86.6784 71.6988 86.6644 71.192C86.6503 70.6853 86.5519 70.5075 87.3205 70.1697C87.8061 69.9558 88.2758 69.7107 88.7263 69.4363C88.7263 69.4363 86.7019 69.8675 87.0065 68.8407Z" fill="#AE7461"/>
<path d="M86.6318 70.7483C87.4026 70.2064 88.2623 69.7889 89.1765 69.5126C90.1078 69.2958 91.0701 69.2238 92.0257 69.2993C91.7594 69.1945 91.4751 69.1372 91.1869 69.1304C89.7833 69.0158 88.3839 69.3903 87.2504 70.1838C87.0069 70.3313 86.7966 70.5231 86.6318 70.7483Z" fill="#6F4439"/>
<path d="M86.8661 73.5351C86.8661 73.5351 86.8192 73.4729 86.7677 73.3618C86.708 73.1976 86.708 73.0192 86.7677 72.855C86.8464 72.6063 87.0116 72.3901 87.2363 72.2417C87.5214 72.0637 87.8394 71.9385 88.1735 71.8727C89.0661 71.7189 89.9674 71.615 90.8728 71.5616C90.6107 71.4925 90.3385 71.4639 90.0668 71.4771C89.4141 71.472 88.763 71.5392 88.1267 71.6772C87.7641 71.7493 87.4211 71.8915 87.1191 72.095C86.867 72.2719 86.6906 72.5291 86.6224 72.8195C86.5933 72.9154 86.5845 73.0159 86.5966 73.1151C86.6086 73.2142 86.6413 73.3102 86.6927 73.3973C86.7958 73.5173 86.8614 73.544 86.8661 73.5351Z" fill="#6F4439"/>
<path d="M87.7331 75.681C87.7331 75.681 87.6581 75.6365 87.555 75.5432C87.4676 75.463 87.3989 75.3663 87.3535 75.2593C87.308 75.1523 87.2868 75.0374 87.2912 74.9221C87.2956 74.8068 87.3256 74.6937 87.3791 74.5901C87.4326 74.4865 87.5085 74.3948 87.6019 74.3208C87.9108 74.123 88.2509 73.973 88.6094 73.8764C89.2873 73.7432 89.9826 73.7087 90.6714 73.7741C90.9639 73.8102 91.2609 73.7952 91.5477 73.7297C91.2613 73.6789 90.9717 73.6462 90.6808 73.6319C89.9727 73.523 89.2495 73.5411 88.5485 73.6852C88.1634 73.7896 87.8003 73.9565 87.4754 74.1786C87.3285 74.2939 87.2223 74.449 87.1707 74.6231C87.1391 74.7697 87.1391 74.9209 87.1707 75.0676C87.189 75.1748 87.2294 75.2775 87.2898 75.3698C87.3501 75.4622 87.4291 75.5422 87.5222 75.6054C87.6394 75.6899 87.7331 75.6899 87.7331 75.681Z" fill="#6F4439"/>
<path d="M86.9788 68.9203C86.9788 68.9203 87.021 68.8581 87.1287 68.7648C87.2781 68.6369 87.4345 68.5167 87.5974 68.4047C88.1289 68.0283 88.7164 67.7287 89.3407 67.5158C89.9589 67.2931 90.6213 67.2021 91.2808 67.2491C91.5486 67.3066 91.813 67.3778 92.0728 67.4624C91.8624 67.2735 91.5956 67.1509 91.3089 67.1113C90.6244 67.0156 89.9255 67.0891 89.2797 67.3246C87.7333 67.8491 86.8523 68.8537 86.9788 68.9203Z" fill="#6F4439"/>
</svg>
