<svg width="101" height="155" viewBox="0 0 101 155" fill="none" xmlns="http://www.w3.org/2000/svg">
<path d="M94.4796 99.1055C95.5288 99.2553 96.4925 99.767 97.2037 100.552C98.1798 101.794 100.345 105.508 100.772 105.92C100.533 106.33 100.202 106.677 99.8051 106.936L98.6474 105.63C98.3614 105.394 98.2388 105.131 98.2524 105.902C98.266 106.673 98.375 107.467 98.3568 108.623C98.3568 109.53 98.5294 111.253 96.9676 112.994C95.5102 114.622 93.9439 115.406 92.8542 115.556C92.205 115.646 91.0654 115.497 91.1381 114.195C91.1744 113.511 91.4831 111.257 91.5921 110.01C91.701 108.763 94.4796 99.1055 94.4796 99.1055Z" fill="#263238"/>
<path d="M94.7871 99.3931C94.2713 98.936 93.8516 98.3812 93.5522 97.7608C93.2707 97.1895 91.8361 94.0291 90.1199 89.6446C87.9043 84.0085 84.2178 79.8461 83.0782 77.7287C81.7981 75.4251 80.7254 73.0125 79.8729 70.5193L75.3101 73.5663L69.2718 73.4574C69.2128 74.3643 69.5805 75.5432 70.2524 76.9307V76.9669C70.3115 77.0893 70.3796 77.2208 70.4477 77.3478C71.8097 79.9867 74.0797 83.1788 76.6449 86.4162L76.7039 86.4933L76.7947 86.6066C79.2645 89.7262 81.975 92.9001 84.3449 95.6478V95.5798C86.2499 97.7525 88.0006 100.055 89.5842 102.472C91.7271 105.977 91.5818 109.046 91.5954 110.919C91.5954 112.089 92.5035 112.311 93.7429 111.291C94.5186 110.682 95.1393 109.9 95.5543 109.006C95.9694 108.112 96.167 107.133 96.131 106.149C96.3989 102.145 96.0493 100.994 94.7871 99.3931Z" fill="#B16668"/>
<path d="M79.7376 73.6441L69.25 73.4491C69.25 73.5625 69.25 73.6849 69.25 73.8073C69.25 73.8526 69.25 73.9025 69.25 73.9479C69.25 73.9932 69.25 74.1111 69.2727 74.1972C69.2954 74.2834 69.2727 74.3197 69.309 74.3831L69.3499 74.6099C69.3499 74.6824 69.3907 74.7595 69.4089 74.8366L69.4634 75.0406C69.4634 75.0633 69.4634 75.0859 69.4861 75.1041C69.5088 75.1222 72.1375 76.9178 77.0454 77.7521C77.0454 77.7521 77.1952 85.569 78.4936 88.7248L79.951 90.4886C80.1826 85.8184 79.7376 73.6441 79.7376 73.6441Z" fill="#9A4A4D"/>
<path d="M87.0874 107.406C87.8645 108.209 88.3641 109.238 88.513 110.344C88.6583 112.036 88.4585 116.661 88.5902 117.286C88.1714 117.512 87.7039 117.631 87.2282 117.635L86.9649 115.776C86.8514 115.396 86.8922 115.092 86.4836 115.776C86.075 116.461 85.7345 117.264 85.0989 118.288C84.5904 119.1 83.814 120.769 81.5531 121.431C79.4464 122.052 77.703 121.843 76.7088 121.344C76.114 121.05 75.2378 120.243 76.0005 119.118C76.4046 118.52 77.8892 116.665 78.661 115.6C79.4328 114.534 87.0874 107.406 87.0874 107.406Z" fill="#263238"/>
<path d="M81.3497 107.351C81.4586 102.925 77.2908 82.7028 78.4122 73.2037L90.3028 73.0586C89.6608 75.8174 89.2493 78.6246 89.0724 81.4514C88.8772 84.0359 89.708 89.9485 88.5003 96.3417C87.8872 99.3248 87.4325 102.338 87.1383 105.369C87.1383 106.054 87.0657 107.505 87.0974 107.881C87.2881 110.067 86.9567 111.309 84.555 114.773C84.101 115.44 82.975 117.603 79.7516 118.024C78.1671 118.228 77.5224 117.494 78.1489 116.433C79.175 114.732 81.2453 111.772 81.3497 107.351Z" fill="#B16668"/>
<path d="M89.0722 81.4492C89.0495 82.4558 89.1085 83.4533 89.163 84.4554C89.2175 85.4575 89.2538 86.464 89.2856 87.4661C89.3378 89.4803 89.2651 91.4959 89.0676 93.5011C88.9632 94.5032 88.7998 95.4962 88.6136 96.4846L88.0688 99.4319C87.8902 100.417 87.7238 101.404 87.5694 102.393C87.4105 103.381 87.2516 104.37 87.1562 105.367C87.2787 103.363 87.506 101.367 87.8373 99.3865C88.1278 97.4005 88.5818 95.4508 88.7453 93.4603C88.8633 92.4719 88.9224 91.4698 88.9768 90.4723C89.0313 89.4748 89.0222 88.4727 89.0313 87.4706C89.0404 86.4686 89.0313 85.4665 88.995 84.4645C88.9587 83.4624 88.9768 82.4513 89.0722 81.4492Z" fill="#9A4A4D"/>
<path d="M78.2386 78.4906C78.1705 76.7264 78.2281 74.9597 78.4111 73.2037L90.3016 73.0586C89.9758 74.3755 89.7212 75.709 89.5389 77.0532C89.5389 77.0532 84.9716 79.3521 78.2386 78.4906Z" fill="#9A4A4D"/>
<path d="M69.4628 53.8826C69.7321 51.1542 70.1626 48.444 70.7522 45.7664C71.2062 43.7169 71.6602 41.9395 71.9826 40.3707C75.4376 42.6695 84.0274 42.8781 87.9819 40.2891C89.6208 42.5691 91.0219 45.0106 92.1633 47.5755C93.5253 50.7857 94.0837 52.7899 94.0202 56.7754C93.9612 60.4028 92.3313 71.1398 90.8421 75.7193C86.8241 77.9456 72.7362 77.4333 68.75 73.4522C68.7545 73.4477 68.9861 57.6596 69.4628 53.8826Z" fill="#455A64"/>
<path d="M73.1861 4.40829C73.1145 3.94964 73.1942 3.48018 73.4131 3.0707C73.9125 2.16386 75.0158 1.73765 76.0509 1.63336C76.6178 1.63544 77.1799 1.53084 77.708 1.32503C78.1711 1.09832 78.4889 0.644904 78.9429 0.354715C79.4683 0.0465602 80.0859 -0.0658818 80.6863 0.0373202C81.4019 0.124359 82.0721 0.433632 82.6023 0.92149C82.9985 1.32439 83.4882 1.62341 84.0279 1.79206C85.3218 2.16386 86.248 1.70137 87.4602 2.75331C87.8232 3.10065 88.1016 3.52651 88.2739 3.99815C88.4463 4.46978 88.5081 4.97462 88.4544 5.47383C89.3625 5.96806 90.6655 9.10119 89.0447 12.7286C88.2138 14.5785 87.1514 15.4491 85.8439 17.0315L84.5136 17.095C84.0233 15.9887 82.9019 16.2516 81.8531 16.0431C81.2085 15.7891 80.8362 15.1362 80.2233 14.8506C79.6423 14.6366 79.0263 14.5336 78.4072 14.5468C77.7078 14.563 77.0196 14.3686 76.4323 13.9891C76.0473 13.6125 75.7645 13.1445 75.6105 12.6288C75.4743 12.3069 75.2291 11.2277 75.6105 10.9602C75.0158 11.4136 73.8353 11.6494 73.1997 11.1824C73.0043 11.0349 72.8543 10.8356 72.7668 10.6071C72.6793 10.3786 72.6579 10.1302 72.7048 9.89015C72.735 9.79623 72.7518 9.69855 72.7548 9.59996C72.7422 9.50033 72.706 9.40515 72.6491 9.32234C72.5923 9.23952 72.5164 9.17148 72.4279 9.12387C72.2554 9.01504 72.0647 8.95156 71.8967 8.83821C71.6651 8.64865 71.4973 8.39262 71.4161 8.10474C71.3349 7.81685 71.3442 7.51101 71.4427 7.22857C71.6564 6.6696 72.0428 6.19315 72.5459 5.86831C72.8547 5.64613 73.2179 5.41489 73.2769 5.03401C73.2835 4.82174 73.2528 4.60995 73.1861 4.40829Z" fill="#263238"/>
<path d="M78.2579 21.3062L78.9481 21.1883C79.5383 21.0885 79.4565 20.4175 79.4838 19.828V18.9212C78.9549 18.9933 78.4169 18.9599 77.901 18.8229C77.385 18.6859 76.9015 18.4481 76.4782 18.1232C75.207 17.112 74.4534 15.0172 74.467 12.732C74.467 11.213 74.8393 10.4649 74.8029 10.1475C74.5805 8.12071 74.7212 7.75344 75.148 6.68337C75.9243 4.97397 78.04 4.26664 79.0479 6.02138C81.604 3.83589 84.6549 6.41585 84.6867 9.55352C84.4461 12.1562 85.2452 12.2468 85.7537 12.2423C86.4256 10.5964 88.0963 10.5465 88.8455 11.5531C89.5265 12.4599 89.5764 13.92 88.3914 15.2984C87.2065 16.6768 85.8853 15.8742 85.8581 15.6112C85.8581 15.6112 85.8172 19.1071 85.8218 19.8008C85.8263 20.4946 85.9216 20.9026 86.7979 21.1611L88.06 21.5147C88.06 21.5147 87.9965 21.6054 87.8648 21.7596C87.5697 22.1405 86.9205 22.9702 85.8263 24.3894C82.9308 25.5915 80.1333 27.0165 77.4589 28.6516C76.8528 27.1898 76.3373 25.6922 75.9153 24.1673C76.587 23.1294 77.3728 22.1698 78.2579 21.3062Z" fill="#B16668"/>
<path d="M80.9366 14.4648L78.9844 15.0815C79.0188 15.2123 79.0793 15.3347 79.1623 15.4415C79.2454 15.5483 79.3492 15.6372 79.4675 15.7029C79.5859 15.7685 79.7163 15.8096 79.851 15.8236C79.9856 15.8376 80.1217 15.8242 80.2511 15.7843C80.5136 15.695 80.7314 15.5079 80.8591 15.2621C80.9869 15.0162 81.0146 14.7306 80.9366 14.4648Z" fill="#9A4A4D"/>
<path d="M80.8095 14.9145C80.5495 14.9081 80.2953 14.9917 80.0901 15.1512C79.8848 15.3108 79.7412 15.5363 79.6836 15.7896C79.8685 15.8463 80.0662 15.8463 80.2511 15.7896C80.4366 15.7275 80.6012 15.6155 80.727 15.4659C80.8528 15.3163 80.9348 15.1349 80.9639 14.9417L80.8095 14.9145Z" fill="#F28F8F"/>
<path d="M75.416 9.0729L76.9188 8.59681C76.8923 8.49785 76.8459 8.40529 76.7826 8.32472C76.7193 8.24416 76.6402 8.17726 76.5502 8.12809C76.4602 8.07892 76.3612 8.0485 76.2591 8.03866C76.157 8.02882 76.054 8.03977 75.9563 8.07085C75.7546 8.13668 75.5861 8.27744 75.4855 8.46398C75.3849 8.65052 75.36 8.86854 75.416 9.0729Z" fill="#263238"/>
<path d="M82.6077 9.45376L81.123 8.87791C81.1578 8.7814 81.2117 8.69284 81.2813 8.61749C81.351 8.54214 81.4351 8.48152 81.5287 8.43924C81.6223 8.39695 81.7234 8.37386 81.8261 8.37133C81.9287 8.36879 82.0309 8.38687 82.1264 8.42449C82.322 8.50365 82.4803 8.65377 82.5695 8.84469C82.6588 9.03562 82.6724 9.25321 82.6077 9.45376Z" fill="#263238"/>
<path d="M77.218 10.5629C77.2282 10.7335 77.172 10.9014 77.0612 11.0315C76.9503 11.1616 76.7934 11.2439 76.6232 11.2612C76.5404 11.2706 76.4565 11.2633 76.3766 11.2396C76.2967 11.216 76.2223 11.1766 76.158 11.1238C76.0936 11.0709 76.0405 11.0056 76.0019 10.9319C75.9633 10.8581 75.9399 10.7774 75.9331 10.6944C75.9217 10.5236 75.9775 10.3551 76.0885 10.2247C76.1996 10.0943 76.3572 10.0123 76.5279 9.99615C76.6107 9.98676 76.6945 9.99409 76.7744 10.0177C76.8544 10.0413 76.9287 10.0807 76.9931 10.1336C77.0575 10.1865 77.1105 10.2517 77.1492 10.3255C77.1878 10.3992 77.2112 10.48 77.218 10.5629Z" fill="#263238"/>
<path d="M81.8849 10.8421C81.8953 11.016 81.8385 11.1873 81.7261 11.3206C81.6137 11.4539 81.4545 11.539 81.2811 11.5585C81.1961 11.5678 81.1101 11.56 81.0283 11.5354C80.9464 11.5108 80.8704 11.47 80.8047 11.4154C80.739 11.3608 80.685 11.2936 80.6459 11.2176C80.6069 11.1417 80.5836 11.0587 80.5774 10.9736C80.567 10.8001 80.624 10.6294 80.7365 10.4968C80.8489 10.3642 81.0082 10.28 81.1812 10.2617C81.2658 10.2523 81.3514 10.26 81.433 10.2843C81.5146 10.3086 81.5904 10.349 81.656 10.4031C81.7217 10.4573 81.7758 10.524 81.8151 10.5994C81.8544 10.6748 81.8781 10.7573 81.8849 10.8421Z" fill="#263238"/>
<path d="M79.4974 18.9283C81.9944 18.6835 84.3916 18.0215 85.0045 16.4844C84.9732 16.9322 84.8246 17.364 84.5736 17.7364C84.3226 18.1088 83.978 18.4088 83.5744 18.6064C82.315 19.2758 80.9147 19.6378 79.4883 19.6629L79.4974 18.9283Z" fill="#9A4A4D"/>
<path d="M76.9004 12.7024L79.1977 13.5503L79.4973 9.23828L76.9004 12.7024Z" fill="#9A4A4D"/>
<path d="M68.669 29.6652C65.9676 37.2509 64.7236 40.4248 64.7236 40.4248C64.7236 40.4248 56.0702 48.1647 54.6446 49.1895C53.219 50.2142 50.5585 51.8193 50.5585 51.8193C48.9377 52.9393 48.3611 53.633 47.948 54.6758C47.5348 55.7187 48.1659 57.5959 48.856 58.4166C49.5461 59.2373 50.1363 59.8267 51.0171 59.931C51.5862 60.0023 52.1626 59.9916 52.7287 59.8993C52.933 59.7995 53.1191 59.6544 53.3325 59.5728C53.5459 59.4912 53.8864 59.4685 54.1361 59.3461C54.5402 59.1511 54.749 58.6932 55.1168 58.4392C55.2984 58.3168 55.5072 58.2488 55.6843 58.1264C55.8309 58.026 55.961 57.9037 56.0702 57.7636C56.1735 57.6542 56.2536 57.5252 56.3059 57.3842C56.3581 57.2432 56.3814 57.0931 56.3744 56.943C56.3472 56.8195 56.3028 56.7005 56.2427 56.5893L56.0112 56.0996C55.9886 55.7706 56.0645 55.4423 56.2291 55.1565C56.506 54.7983 57.4458 53.633 57.4458 53.633L57.523 53.5786C58.0815 53.1252 58.4855 52.6717 58.9123 52.309C59.635 51.7231 60.4032 51.1954 61.2096 50.7311C65.4864 48.1421 68.1287 46.1651 69.745 45.1676C71.3612 44.1701 71.5928 43.1862 72.7868 41.1413C74.8163 37.6635 77.0636 32.5263 77.0636 32.5263L77.2407 20.887C72.2965 21.1998 70.4351 24.7002 68.669 29.6652Z" fill="#B16668"/>
<path d="M59.7789 44.6953L57.7949 46.3458C58.6626 46.8453 59.4023 47.5391 59.956 48.3726C60.4748 49.1804 60.821 50.0865 60.973 51.0341L63.1795 49.6739C63.1795 49.6739 63.1795 48.4814 62.0626 46.8083C61.4735 45.9386 60.6921 45.2157 59.7789 44.6953Z" fill="#BA68C8"/>
<path opacity="0.7" d="M59.7789 44.6953L57.7949 46.3458C58.6626 46.8453 59.4023 47.5391 59.956 48.3726C60.4748 49.1804 60.821 50.0865 60.973 51.0341L63.1795 49.6739C63.1795 49.6739 63.1795 48.4814 62.0626 46.8083C61.4735 45.9386 60.6921 45.2157 59.7789 44.6953Z" fill="white"/>
<path d="M77.2188 20.7344C74.3903 21.1152 72.3064 21.7047 70.6175 24.9603C68.9286 28.2158 64.6881 40.0229 64.6881 40.0229L58.8359 45.3188C59.7329 45.8229 60.4993 46.5294 61.0742 47.3819C61.6627 48.3037 62.0509 49.3387 62.2138 50.4198C62.2138 50.4198 67.907 46.7335 69.7912 45.5546C71.6753 44.3757 72.2474 43.1651 74.1633 39.71C76.0792 36.255 77.5457 33.4755 77.5457 33.4755L77.2188 20.7344Z" fill="#263238"/>
<path d="M78.9119 21.2031C78.9119 21.2031 77.7995 23.5156 78.5577 24.9121C82.2988 24.4859 85.4587 22.7493 86.7299 21.5795L89.8762 22.0737C89.8762 22.0737 91.9329 25.9958 91.2927 29.3284C90.6526 32.6611 87.9784 40.2921 87.9784 40.2921C84.419 45.4566 72.3015 42.727 71.9791 40.3737C71.9791 40.3737 71.6205 37.4446 71.3208 35.0324C71.3208 35.0324 69.6228 33.4047 69.5411 31.2283C69.4503 28.9611 70.3946 27.3424 72.7192 24.9846C74.0492 23.6042 75.5155 22.3616 77.0958 21.2757L78.9119 21.2031Z" fill="#BA68C8"/>
<path opacity="0.7" d="M78.9119 21.2031C78.9119 21.2031 77.7995 23.5156 78.5577 24.9121C82.2988 24.4859 85.4587 22.7493 86.7299 21.5795L89.8762 22.0737C89.8762 22.0737 91.9329 25.9958 91.2927 29.3284C90.6526 32.6611 87.9784 40.2921 87.9784 40.2921C84.419 45.4566 72.3015 42.727 71.9791 40.3737C71.9791 40.3737 71.6205 37.4446 71.3208 35.0324C71.3208 35.0324 69.6228 33.4047 69.5411 31.2283C69.4503 28.9611 70.3946 27.3424 72.7192 24.9846C74.0492 23.6042 75.5155 22.3616 77.0958 21.2757L78.9119 21.2031Z" fill="white"/>
<path opacity="0.3" d="M85.6801 34.5586C85.3677 35.4304 84.8099 36.1935 84.0738 36.7565C83.3378 37.3195 82.4547 37.6584 81.5305 37.7325C80.6423 37.8344 79.743 37.7002 78.9234 37.3435C78.1039 36.9868 77.3932 36.4203 76.8633 35.7012C76.8633 35.7012 77.5171 39.1835 81.6576 38.5714C85.7982 37.9592 85.6801 34.5586 85.6801 34.5586Z" fill="#BA68C8"/>
<path d="M85.8816 20.2461C85.8816 20.2461 82.7943 27.4237 81.7547 30.8879C80.715 34.352 81.2553 37.1179 81.6457 43.3887C81.9499 48.2131 82.4765 55.495 82.4765 55.495C82.4765 55.495 91.643 55.3635 94.4579 51.2827C93.7087 48.8841 91.357 43.2889 90.7531 41.7609C90.1493 40.2329 90.4444 38.8771 91.4205 35.3405C92.3967 31.8038 93.9766 29.8631 93.9312 27.2424C93.8813 26.2515 93.6302 25.2811 93.1931 24.3902C92.756 23.4993 92.1422 22.7064 91.3887 22.0598L85.8816 20.2461Z" fill="#37474F"/>
<path d="M79.3976 20.8355C79.367 20.9224 79.316 21.0007 79.2489 21.0638C79.1817 21.1269 79.1004 21.173 79.0117 21.1983C79.0117 21.1983 72.7918 27.1698 72.3605 33.3545C71.9292 39.5391 71.5387 53.0873 71.5387 53.0873C71.5387 53.0873 70.8622 52.7745 69.5456 51.3417C69.8271 48.5305 70.7987 37.4353 70.5354 36.1657C70.272 34.8961 67.2392 31.9987 70.0178 27.8681C72.7963 23.7374 77.2184 20.7403 77.2184 20.7403L79.4884 20.2461C79.4987 20.4467 79.4678 20.6473 79.3976 20.8355Z" fill="#37474F"/>
<path d="M76.3286 22.3469C75.9337 22.7051 75.5387 23.0633 75.1618 23.4351C74.3991 24.1742 73.6409 24.9178 72.8918 25.7022C72.5286 26.0922 72.1654 26.4821 71.8158 26.8811C71.6387 27.0806 71.4662 27.2847 71.2982 27.4978C71.0976 27.7086 70.943 27.9587 70.8442 28.2323C70.7761 28.5111 70.7591 28.7999 70.7943 29.0848C70.822 29.3578 70.8737 29.6278 70.9486 29.8918C71.0814 30.3817 71.2514 30.8607 71.4571 31.3247C71.0208 31.8383 70.667 32.4165 70.4084 33.0386C70.375 33.1291 70.3536 33.2236 70.3448 33.3197C70.3356 33.4147 70.3356 33.5104 70.3448 33.6054C70.3448 33.7822 70.3902 33.9545 70.4174 34.1268C70.4765 34.4669 70.5446 34.8069 70.6172 35.1425C70.9078 36.5027 71.2528 37.8222 71.6297 39.1507C71.3618 37.7904 71.0939 36.4302 70.8488 35.1016C70.7897 34.7616 70.7352 34.426 70.6898 34.086C70.6898 33.9182 70.6444 33.7505 70.6399 33.5872C70.6204 33.4339 70.6391 33.2782 70.6944 33.1338C70.9653 32.5217 71.3281 31.9544 71.7704 31.4516L71.8339 31.37L71.7931 31.2748C71.5852 30.7976 71.4151 30.3049 71.2846 29.8012C71.2195 29.5542 71.1739 29.3026 71.1484 29.0485C71.129 28.7995 71.1552 28.549 71.2256 28.3094C71.3084 28.0827 71.4332 27.8735 71.5933 27.6928C71.7568 27.4842 71.9248 27.2847 72.0973 27.0852C72.4378 26.6816 72.7964 26.2917 73.1506 25.9017C73.8634 25.1173 74.5852 24.3374 75.3207 23.5757C76.0562 22.8139 76.7826 22.0386 77.5635 21.3086C77.1277 21.6396 76.7236 21.9933 76.3286 22.3469Z" fill="#263238"/>
<path d="M87.2514 30.5751V28.0314C87.2287 25.7643 87.2015 23.538 87.1243 21.2891C87.0289 23.5562 86.9835 25.787 86.9427 28.0405V29.7272V30.5706V30.7792C86.952 30.8316 86.952 30.8854 86.9427 30.9379C86.9049 31.0477 86.8463 31.1493 86.7701 31.2371C86.3876 31.6129 85.9317 31.9062 85.4308 32.0986C84.9243 32.3191 84.4023 32.5025 83.869 32.6472L83.6829 32.6971L83.751 32.8694C84.0263 33.5492 84.2627 34.2441 84.4592 34.9506C84.5046 35.1275 84.5455 35.3043 84.5727 35.4811C84.6112 35.6399 84.6189 35.8046 84.5955 35.9663V36.0116L84.5637 36.0751L84.1324 36.9457C83.8055 37.6077 83.4695 38.2651 83.1517 38.9362L82.1211 40.9358L83.2107 38.9997C83.5739 38.3558 83.9235 37.7029 84.2776 37.05L84.541 36.5648L84.6726 36.3199L84.7725 36.134L84.7997 36.0479C84.8404 35.8459 84.8404 35.6378 84.7997 35.4358C84.7753 35.2478 84.7389 35.0615 84.6908 34.8781C84.5154 34.2144 84.3047 33.5606 84.0597 32.9193C84.5524 32.7852 85.0362 32.6201 85.508 32.4251C86.0627 32.2187 86.5627 31.8883 86.9699 31.4593C87.0811 31.3274 87.1617 31.1725 87.206 31.0059C87.2278 30.9214 87.2384 30.8346 87.2378 30.7474L87.2514 30.5751Z" fill="#263238"/>
<path d="M98.9691 39.1889C99.364 42.1543 99.4458 42.6576 99.2551 44.63C99.1143 46.1081 98.96 46.3575 98.4015 49.0508C97.8431 51.7442 96.4357 56.6592 96.4584 57.3756C96.5174 58.059 96.5174 58.7462 96.4584 59.4296C96.3821 60.2429 96.191 61.0412 95.8909 61.801C95.6866 62.3225 95.5549 62.8983 95.3143 63.4061C95.1008 63.7509 94.8545 64.0743 94.5788 64.3719C94.3064 64.7256 94.2111 65.179 93.8751 65.4964C93.294 66.0496 92.681 66.1312 92.1271 66.4032C91.8865 66.7524 91.487 67.496 91.2191 67.827C90.5336 68.6658 90.3792 67.2919 90.4019 66.8249C90.4438 66.3237 90.5382 65.8283 90.6834 65.3468C91.0328 64.1361 91.3147 62.9069 91.5278 61.665C91.5642 61.4428 91.832 60.5314 91.4688 60.536C91.4097 60.5443 91.3528 60.5642 91.3014 60.5946C91.2499 60.6249 91.205 60.6651 91.1692 60.7128C90.9195 60.9939 90.756 61.3431 90.5336 61.6469C90.3554 61.882 90.1596 62.1033 89.9479 62.3089C89.7815 62.4958 89.5813 62.6496 89.3577 62.7623C89.1216 62.862 88.259 62.93 88.2227 62.5265C88.2225 62.4603 88.238 62.395 88.2681 62.3361C88.4451 61.9234 88.6585 61.5199 88.8401 61.1073C89.0304 60.6938 89.1971 60.27 89.3395 59.8377C89.6217 58.5539 90.1456 57.3352 90.8831 56.2466C92.3451 54.2334 92.6493 42.3493 92.6493 42.3493L90.6879 34.1605C89.8649 31.9587 89.4809 29.6175 89.5574 27.2685C89.6846 23.3782 91.1419 22.3398 91.1419 22.3398C94.1611 23.5505 95.8046 24.4981 96.5901 27.2731C97.3755 30.048 98.7012 37.1939 98.9691 39.1889Z" fill="#B16668"/>
<path d="M92.1098 49.9158L91.8828 52.2464C91.8828 52.2464 92.9043 51.9653 95.0246 52.5593C96.6999 53.0354 97.2946 53.8606 97.2946 53.8606L97.844 51.5935C97.844 51.5935 96.0688 49.6982 92.1098 49.9158Z" fill="#BA68C8"/>
<path opacity="0.7" d="M92.1098 49.9158L91.8828 52.2464C91.8828 52.2464 92.9043 51.9653 95.0246 52.5593C96.6999 53.0354 97.2946 53.8606 97.2946 53.8606L97.844 51.5935C97.844 51.5935 96.0688 49.6982 92.1098 49.9158Z" fill="white"/>
<path d="M99.3736 41.3063C99.2874 40.6035 98.847 36.9172 97.7528 31.526C96.7177 26.4024 96.468 25.8311 95.5781 24.6522C94.829 23.6637 94.0526 22.9292 91.4103 22.0586C91.4103 22.0586 89.2583 23.3418 89.2084 26.7198C89.1584 29.939 90.5431 34.4279 90.5431 34.4279L92.4091 42.73L91.9551 50.9959C93.3943 50.4926 96.9084 51.2951 97.6575 52.7189C97.6575 52.7189 98.5655 49.3273 99.1239 46.702C99.5111 44.9303 99.5955 43.1061 99.3736 41.3063Z" fill="#263238"/>
<path d="M7.32027 71.4904L10.0761 61.2839C11.3473 56.0423 9.69473 49.4178 9.69473 49.4178C7.33842 49.6944 5.24998 50.7781 4.10588 53.748C2.96177 56.7179 1.29556 66.8972 0.896028 69.1144C0.537279 71.0276 0.4608 72.9829 0.669023 74.9182C0.873327 77.3894 2.11732 81.8238 2.61219 84.2451C2.83919 85.365 2.97993 86.4487 3.12976 87.5913C3.36406 88.7649 3.6796 89.9209 4.0741 91.0509C4.24254 91.5986 4.55631 92.0906 4.98212 92.4747C5.24544 92.724 5.61773 92.7694 5.89014 93.0052C6.16254 93.2409 6.18524 93.6263 6.54391 93.8258C6.90257 94.0253 7.40653 93.9392 7.75157 94.1659C8.08975 94.4427 8.44454 94.6986 8.81396 94.9322C9.15932 95.0469 9.47114 95.2447 9.72197 95.508C9.9399 95.771 10.1397 96.3514 10.5574 96.3287C10.975 96.3061 11.1249 95.8753 11.1657 95.4672C11.1862 94.7033 10.9601 93.953 10.521 93.3271C10.1421 92.6361 9.72219 91.9684 9.26343 91.3275C8.81109 90.7309 8.50059 90.0394 8.35541 89.3052C8.23282 88.8201 8.30546 88.2034 8.91384 88.5118C9.63571 88.879 10.3803 89.6181 11.2656 89.5047C11.8831 89.4322 11.9375 88.9516 11.6016 88.5344C11.0469 87.8475 10.5445 87.12 10.0988 86.358C9.64479 85.5827 9.27251 84.762 8.7958 84.0002C8.53663 83.604 8.2515 83.2253 7.94226 82.8667C7.10234 81.851 7.19769 80.527 7.15228 79.2937C7.06148 77.5662 7.24308 73.6985 7.32027 71.4904Z" fill="#FFA8A7"/>
<path d="M1.32812 79.3575L1.87294 81.8468C1.87294 81.8468 2.82181 82.4363 4.79221 82.1642C6.76262 81.8922 7.37553 81.2574 7.37553 81.2574L7.26203 78.6366L1.32812 79.3575Z" fill="#F0F0F0"/>
<path d="M8.97274 48.0702C5.54951 48.4873 4.34638 50.6093 3.3067 54.0825C2.23524 57.6464 1.08205 65.7445 0.791487 67.4312C0.344682 69.4714 0.175174 71.5623 0.287536 73.6476C0.530704 75.8513 0.902109 78.039 1.39986 80.1996C1.39986 80.1996 2.30788 80.7074 4.22834 80.6122C6.89792 80.4761 7.40641 79.6509 7.40641 79.6509L7.57893 71.5347L11.3881 58.8117L8.97274 48.0702Z" fill="#455A64"/>
<path d="M49.2579 135.192C49.5077 135.079 49.712 135.737 49.6529 136.099C49.4759 137.165 48.4998 138.575 46.7654 139.64C45.0311 140.706 41.2129 141.431 40.0915 141.762C38.9701 142.093 37.2403 143.331 36.1961 143.894C34.2893 144.914 32.732 144.8 31.8648 144.347C31.7113 144.243 31.5805 144.109 31.4806 143.953C31.3807 143.797 31.3137 143.623 31.2837 143.44C31.0567 142.633 31.0749 142.447 31.1611 142.424L49.2579 135.192Z" fill="#263238"/>
<path d="M30.6568 140.023C30.7577 141.035 30.9992 142.028 31.3741 142.974C31.5907 143.199 31.8546 143.373 32.1466 143.483C32.4387 143.594 32.7517 143.638 33.063 143.614C34.5113 143.614 35.7871 143.083 37.1219 142.253C37.9717 141.691 38.8963 141.25 39.8686 140.943C41.0354 140.621 43.6414 140.036 44.7946 139.66C45.8774 139.31 46.8739 138.735 47.7184 137.973C48.3631 137.347 49.2621 136.137 49.3256 135.434C49.1304 133.91 48.7263 133.099 47.7865 132.877C46.8467 132.654 45.5619 132.949 43.873 133.38C43.3645 133.507 42.7289 133.688 42.4565 133.747C41.4213 133.969 40.4634 134.201 39.687 134.418C39.0463 134.641 38.3621 134.711 37.6894 134.622C37.3788 134.584 37.0922 134.436 36.8812 134.205C36.6088 133.888 36.4272 133.348 36.1276 133.421C36.1276 133.421 30.7839 136.35 30.3389 136.554C29.894 136.758 30.4207 137.479 30.6568 140.023Z" fill="#37474F"/>
<path d="M42.8779 133.556C43.0953 133.64 43.292 133.77 43.4545 133.937C43.63 134.117 43.7824 134.318 43.9085 134.536C44.0765 134.812 43.7405 134.989 43.4908 134.694C43.3004 134.439 43.0793 134.207 42.8325 134.005C42.6619 133.868 42.4475 133.797 42.2287 133.806L41.9336 133.874C41.9608 133.62 42.6191 133.479 42.8779 133.556Z" fill="#FAFAFA"/>
<path d="M40.227 134.107C40.3187 134.065 40.4187 134.043 40.5198 134.043C40.621 134.043 40.7209 134.065 40.8127 134.107C41.0524 134.213 41.2583 134.382 41.4074 134.597C41.5961 134.858 41.7646 135.132 41.9114 135.418C41.9931 135.604 41.5527 135.744 41.4574 135.549C41.3199 135.295 41.1684 135.048 41.0033 134.81C40.9125 134.692 40.5266 134.257 40.2088 134.307L40.0726 134.343C40.0499 134.28 40.1226 134.203 40.177 134.166L40.227 134.107Z" fill="#FAFAFA"/>
<path d="M38.7204 134.568C38.8573 134.549 38.9962 134.581 39.1108 134.658C39.2578 134.767 39.3865 134.899 39.4922 135.048C39.679 135.327 39.8228 135.633 39.919 135.955C40.0007 136.2 39.5467 136.281 39.4649 136.118C39.3465 135.679 39.1148 135.279 38.793 134.957C38.6524 134.821 38.4788 134.722 38.2891 134.672C38.2891 134.622 38.3481 134.595 38.3935 134.586C38.4389 134.577 38.6477 134.568 38.7204 134.568Z" fill="#FAFAFA"/>
<path d="M28.2227 130.331C28.2227 130.331 29.9025 135.677 30.4155 136.897C30.579 137.286 31.3508 137.2 31.7776 137.246C32.3017 137.271 32.8177 137.386 33.303 137.586C34.5606 138.257 35.3461 138.243 35.3869 136.316C35.3787 136.228 35.389 136.139 35.4173 136.056C35.4455 135.972 35.4911 135.895 35.5511 135.83C35.611 135.765 35.6839 135.714 35.7652 135.678C35.8464 135.643 35.9341 135.626 36.0225 135.627C36.3735 135.633 36.7221 135.57 37.0486 135.441C37.0895 135.387 37.0486 135.319 36.985 135.278C36.7764 135.134 36.6003 134.947 36.4682 134.731C36.336 134.515 36.2507 134.273 36.2178 134.022C35.6957 131.755 35.4233 129.764 34.8557 126.953L28.2227 130.331Z" fill="#FFA8A7"/>
<path d="M24.1832 77.4516C24.1832 77.4516 26.7483 80.6754 28.2965 86.7059C29.6943 92.3161 30.7555 98.0045 31.4746 103.741C31.8468 106.307 32.1193 108.139 32.7821 112.809C33.3542 116.727 35.8104 131.191 35.8104 131.191C35.8104 131.191 34.0216 132.814 32.5188 133.413C31.1204 133.966 29.822 134.188 29.3089 133.966C29.3089 133.966 27.5837 129.318 25.4498 123.233C24.4195 120.426 23.5985 117.547 22.9937 114.618C22.7167 113.113 22.7848 110.438 22.8121 109.087L11.3438 90.4965C10.4136 89.3363 9.6903 88.0249 9.20538 86.6198C7.69807 82.6478 9.62308 76.9257 9.62308 76.9257L24.1832 77.4516Z" fill="#263238"/>
<path d="M12.8996 82.6718H26.9739C27.4996 83.9871 27.9394 85.3351 28.2905 86.7072C29.5947 91.8728 30.5983 97.1095 31.296 102.391C30.951 104.812 30.5651 107.292 30.2064 109.002C29.2575 113.509 28.6673 116.71 27.9364 118.555C27.2115 120.133 26.3518 121.646 25.3667 123.076C24.3627 120.333 23.5615 117.52 22.9695 114.661C22.6925 113.155 22.7607 110.48 22.7879 109.129L14.4704 95.6078L13.8212 91.4273C11.6874 87.7863 11.9234 85.0567 12.8996 82.6718Z" fill="black"/>
<path d="M6.29883 137.875C7.10243 136.515 7.82884 134.42 9.60402 129.129L16.2144 134.57L12.1283 141.394C11.9997 141.746 11.8995 142.109 11.8287 142.477C10.9524 143.792 6.29883 137.875 6.29883 137.875Z" fill="#FFA8A7"/>
<path d="M3.86562 140.757C3.86562 140.68 3.83838 140.04 3.86562 139.963C4.03815 139.279 4.44222 139.088 4.95979 138.703C5.48579 138.332 5.9672 137.901 6.39446 137.42C6.56698 137.166 6.59876 137.034 6.87116 136.921C7.22209 136.806 7.59446 136.773 7.96017 136.823C8.32588 136.874 8.67538 137.006 8.98231 137.211C10.4715 138.032 10.9255 139.025 10.8437 140.095C10.7756 140.916 10.7121 142.004 11.3976 142.489C11.6837 142.693 12.1377 141.383 12.1377 141.383C12.5599 142.131 11.9652 143.164 11.6564 144.674C11.4756 145.51 11.4602 146.372 11.611 147.214C11.7654 148.537 11.9379 148.533 12.6098 148.628C13.1864 148.705 14.8254 148.592 15.8242 149.322C16.2092 149.567 16.5113 149.922 16.6911 150.341C16.8709 150.76 16.92 151.223 16.8321 151.671C16.6505 152.178 15.1568 154.65 9.69965 153.729C8.11516 153.462 4.78726 150.845 4.8372 150.605C4.86671 150.355 4.86671 150.102 4.8372 149.852C4.8372 149.268 4.79634 148.683 4.77364 148.093C4.79195 147.534 4.76004 146.974 4.6783 146.42C4.5779 145.964 4.50963 145.502 4.47399 145.037L4.16073 141.509C4.11079 141.169 3.82476 141.092 3.86562 140.757Z" fill="#37474F"/>
<path d="M3.17981 140.528C2.63954 141.072 2.97096 142.659 3.69283 144.564C4.01064 145.412 4.60086 146.862 4.43287 148.409C4.26489 149.955 4.22857 150.676 4.6054 151.41C5.20015 152.544 8.37368 153.995 10.2442 154.448C9.1064 152.767 8.44876 150.807 8.3419 148.78C8.15575 145.366 7.88789 143.167 6.42144 141.653C4.54184 139.739 3.17981 140.528 3.17981 140.528Z" fill="black"/>
<path d="M16.8227 151.671C16.8227 151.671 15.724 153.82 11.5017 153.752C9.84001 153.725 8.95015 152.873 8.90929 150.22C8.85935 147.024 8.61418 143.795 7.62898 142.208C6.64378 140.621 5.0729 139.851 3.85616 139.964C3.56744 140.059 3.32563 140.26 3.17969 140.526C3.17969 140.526 4.39643 140.104 6.29419 141.755C7.69254 142.975 8.06937 145.518 8.05121 148.683C8.05121 150.043 7.96041 151.585 8.34178 152.619C8.5085 153.065 8.77771 153.466 9.1278 153.79C9.47789 154.114 9.89909 154.351 10.3576 154.482C12.6549 155.158 15.8057 154.029 16.5911 153.027C16.7253 152.831 16.8155 152.608 16.8555 152.374C16.8955 152.14 16.8843 151.901 16.8227 151.671Z" fill="#263238"/>
<path d="M11.748 148.051C11.9205 148.18 12.0412 148.366 12.0885 148.577C12.1097 148.846 12.0596 149.116 11.9433 149.359C11.8269 149.603 11.6484 149.811 11.4257 149.964C11.1714 150.132 10.9717 150.073 11.353 149.511C11.6124 149.068 11.7488 148.564 11.748 148.051Z" fill="#FAFAFA"/>
<path d="M11.5205 146.394C11.5205 146.394 11.6521 146.485 11.6885 146.929C11.6885 147.165 11.3525 148.126 10.9076 148.353C10.4626 148.58 10.7033 148.045 10.9076 147.782C11.2075 147.368 11.4164 146.895 11.5205 146.394Z" fill="#FAFAFA"/>
<path d="M11.6694 144.562C11.6694 144.562 11.8147 144.608 11.6694 145.22C11.4695 145.595 11.15 145.894 10.7614 146.068C10.4753 146.104 10.3346 145.95 10.6887 145.682C10.943 145.474 11.6149 144.862 11.6694 144.562Z" fill="#FAFAFA"/>
<path d="M15.289 77.4526C14.6171 78.1735 12.9508 80.5857 12.683 84.2992C12.5747 86.7227 13.3005 89.1101 14.7396 91.0643C15.2754 99.2939 15.2663 114.842 15.2663 114.842C13.4035 117.497 12.0206 120.457 11.1802 123.588C10.4402 126.023 7.70703 134.411 7.70703 134.411C12.1836 133.781 13.7408 138.986 13.7408 138.986C13.7408 138.986 18.4126 131.605 22.199 125.837C24.9776 121.602 26.8435 118.446 27.6789 115.948C28.4462 113.654 29.0001 110.874 29.7492 105.519C30.4983 100.164 31.2293 93.1047 31.597 87.8359C31.9648 82.5672 31.7514 74.9452 31.7514 74.9452L15.289 77.4526Z" fill="#263238"/>
<path d="M8.63672 83.9072C9.24128 83.6929 9.76675 83.3009 10.144 82.7827C10.3244 82.4133 10.4542 82.0214 10.5299 81.6174C10.6877 80.9423 10.9002 80.2811 11.1656 79.6405L11.5515 79.8219C11.2973 80.4407 11.0939 81.0791 10.9431 81.7308C10.8529 82.1791 10.7001 82.6126 10.4891 83.0185C10.0489 83.6521 9.40993 84.1212 8.67304 84.3515C8.65942 84.2019 8.6458 84.0523 8.63672 83.9072Z" fill="black"/>
<path d="M18.7122 88.6146C18.6221 88.6165 18.5322 88.6074 18.4443 88.5874C17.8269 88.4423 17.3502 88.0116 16.3922 86.7284C15.6703 85.7536 15.743 85.0553 15.8656 83.8945C15.911 83.4683 16.3196 81.174 16.365 80.5936L16.7736 80.8294C16.7418 81.4461 16.3196 83.5137 16.2878 83.9444C16.1652 85.0961 16.1107 85.6221 16.7418 86.4564C17.6226 87.6398 18.0448 88.0343 18.5579 88.1521C19.0709 88.27 21.1956 87.8937 21.7722 87.4766C22.0991 87.2317 22.6576 84.2573 22.9799 81.641L23.4021 81.6954C23.2387 83.0194 22.653 87.3768 22.0129 87.8438C21.4181 88.2655 19.5703 88.6464 18.7122 88.6146Z" fill="black"/>
<path d="M21.503 45.3262L20.7267 50.994L13.0176 50.604L13.8484 44.4647L21.503 45.3262Z" fill="#FFA8A7"/>
<path d="M24.5723 34.7225C25.1625 35.4752 26.974 37.5201 27.2963 38.0552L25.5665 39.1026L24.5723 34.7225Z" fill="#F28F8F"/>
<path d="M20.2863 29.0245C22.6653 28.7706 24.2135 30.4573 24.9036 35.5175C24.9308 35.717 25.2259 36.0299 25.4484 36.7871C26.4018 40.0381 25.8706 43.135 25.3167 43.9557C23.9547 45.062 22.402 45.4746 20.1819 45.2887C18.4884 45.1436 14.1662 44.6267 11.9734 42.346C9.39914 39.6436 8.11429 35.6082 9.93033 33.5043C12.5046 30.548 18.9697 29.1651 20.2863 29.0245Z" fill="#FFA8A7"/>
<path d="M25.3174 43.9572C25.0132 44.4106 22.834 45.526 21.4629 45.6167L21.59 44.5511C22.8532 44.5179 24.1066 44.3181 25.3174 43.9572Z" fill="#F28F8F"/>
<path d="M20.7552 37.8974C20.7294 37.9762 20.6825 38.0465 20.6195 38.1005C20.5565 38.1546 20.4798 38.1903 20.3979 38.2039C20.316 38.2174 20.2319 38.2083 20.1548 38.1774C20.0777 38.1466 20.0106 38.0952 19.9607 38.0289C19.7089 37.6618 19.4165 37.3241 19.089 37.0223C18.6773 36.6806 18.1528 36.5044 17.618 36.5281C15.6204 36.6777 16.1062 39.3076 17.0868 40.2235C18.694 41.7243 19.5476 40.4275 19.5476 40.4275C19.5476 40.4275 20.7008 42.9757 19.0209 44.4629C19.0209 44.4629 16.1198 45.7144 13.8407 45.007C12.216 43.7489 10.7884 42.2559 9.60476 40.5771C6.8807 36.8364 7.12587 32.9959 8.86927 31.9621C8.76938 30.6336 9.49125 28.6386 12.2199 27.4869C14.8168 26.3896 16.5602 26.4984 18.4398 26.58C20.3194 26.6617 22.6303 27.5413 24.3782 26.0858C24.5919 26.6118 24.6769 27.181 24.6264 27.7464C24.5759 28.3118 24.3912 28.857 24.0877 29.3368C24.37 29.2016 24.6946 29.1838 24.9901 29.2876C25.2855 29.3913 25.5276 29.608 25.6631 29.89C25.7985 30.172 25.8163 30.4962 25.7124 30.7913C25.6085 31.0863 25.3916 31.3281 25.1092 31.4634C25.2986 31.5664 25.4451 31.7334 25.5224 31.9344C25.5998 32.1355 25.603 32.3575 25.5314 32.5607C25.4554 32.7623 25.323 32.9378 25.1499 33.0664C24.9769 33.195 24.7705 33.2713 24.5553 33.2861C24.1602 33.3082 23.7638 33.2824 23.3749 33.209C22.8255 34.7416 21.1048 35.2812 20.0606 35.2132C20.0924 35.2132 20.2241 35.4263 20.2422 35.4535C20.2604 35.4807 20.3557 35.6258 20.4057 35.7165C20.505 35.8989 20.5871 36.0901 20.6508 36.2878C20.7801 36.6853 20.8295 37.1044 20.7961 37.5211C20.8055 37.648 20.7916 37.7755 20.7552 37.8974Z" fill="#263238"/>
<path d="M8.97302 48.0715C6.97084 49.1869 5.7314 52.3109 6.16725 56.8316C6.68028 62.2227 7.52927 63.388 8.13765 67.8859C8.48604 70.2167 8.65301 72.571 8.63705 74.9276C8.63705 77.0722 8.34649 81.4069 8.34649 81.4069C8.34649 81.4069 11.0251 84.7214 18.3846 85.1522C27.7736 85.7054 31.9368 83.4383 31.9368 83.4383C31.9368 83.4383 31.9913 73.7441 31.7689 67.691C31.4329 58.7132 31.4102 56.0879 30.0073 53.0319C29.5533 52.125 29.0584 50.1209 27.5284 49.7219C26.3162 49.4091 22.1938 48.4705 21.086 48.3027C19.27 48.7561 14.5619 48.806 13.3951 47.813V47.5546C11.6017 47.6498 8.97302 48.0715 8.97302 48.0715Z" fill="#37474F"/>
<path d="M11.878 47.6805C13.0766 46.6104 13.24 46.4653 13.5987 46.3202L13.5261 46.8598C13.5261 46.8598 13.7667 47.5036 16.0413 47.7303C19.9957 48.1248 21.2397 47.227 21.2397 47.227L21.2806 46.896C21.6622 46.874 22.0372 47.0027 22.3248 47.2542C22.9695 47.7077 24.4132 49.009 24.4132 49.009L23.3826 48.7823C23.3826 48.7823 21.0763 50.7909 15.4374 49.9929C11.5148 49.4171 11.878 47.6805 11.878 47.6805Z" fill="#263238"/>
<path d="M57.8886 53.2457C57.7059 53.3332 57.5141 53.4001 57.3165 53.4452C55.7077 53.9288 54.0005 53.985 52.3633 53.6084C52.2436 53.5921 52.1294 53.5484 52.0294 53.4807C51.9294 53.4131 51.8463 53.3234 51.7867 53.2185C51.745 53.0702 51.745 52.9133 51.7867 52.765L51.9774 51.6406C52.0756 51.1789 52.1107 50.7061 52.0818 50.235C52.0668 49.9365 51.948 49.6527 51.7458 49.4324C51.5325 49.2284 51.3781 49.1694 51.1193 49.3145C50.9538 49.5072 50.8426 49.7404 50.797 49.9901C50.4837 51.0148 49.9934 51.4501 49.4349 52.6472C48.8765 53.8442 48.477 54.6059 46.4975 56.2745C45.7983 56.864 39.0517 61.3664 39.0517 61.3664C39.0517 61.3664 38.2436 60.4324 34.2029 55.1863C31.4471 51.6043 30.6162 50.7609 27.9693 50.1987C27.9693 50.1987 24.8321 53.8805 27.1113 59.7568C27.9421 61.3347 32.7138 66.1954 34.5116 67.7506C37.4763 70.3124 39.1108 71.2374 41.2401 69.3058C43.5419 67.2201 45.3261 65.0391 47.2693 62.9035C48.9446 61.0898 49.671 60.4233 51.0149 59.9382C52.4925 59.3369 53.8596 58.4941 55.0601 57.4443C55.3141 57.2421 55.5388 57.0056 55.7275 56.7415C55.8955 56.4831 56.0044 56.1884 56.1815 55.9344C56.516 55.5459 56.8722 55.1765 57.2484 54.8281C57.5936 54.4623 57.824 54.0036 57.9113 53.5087C57.8931 53.4225 57.9249 53.3046 57.8886 53.2457Z" fill="#FFA8A7"/>
<path d="M44.8574 57.367L46.6417 56.043C47.5874 56.307 48.4072 56.9005 48.9526 57.7161C49.4942 58.5486 49.8518 59.4869 50.0014 60.4683L48.6393 61.6699L44.8574 57.367Z" fill="#F0F0F0"/>
<path d="M27.6366 49.7577C30.3288 50.3335 31.2686 50.6328 32.6307 52.2787C33.9927 53.9246 39.0322 61.0252 39.0322 61.0252L45.3883 56.8038C46.3259 57.1542 47.1532 57.7473 47.7855 58.5223C48.4821 59.401 48.8967 60.4694 48.975 61.5874C48.975 61.5874 44.8889 66.1216 42.4963 68.4704C40.1037 70.8191 38.9868 71.2725 36.408 69.5676C33.8292 67.8628 28.1677 62.1633 28.1677 62.1633C28.1677 62.1633 23.2735 55.3574 27.6366 49.7577Z" fill="#455A64"/>
<path d="M50.9922 59.9249C51.3229 59.8275 51.6129 59.6254 51.8185 59.349C52.0773 58.8593 52.4359 58.5601 52.5494 58.016C52.5811 57.8109 52.6313 57.609 52.6993 57.4129C52.8421 57.1114 53.0499 56.8451 53.3076 56.633C53.5392 56.4154 53.7208 56.1796 53.9705 55.9484C54.0885 55.8441 54.3065 55.7443 54.4472 55.8849C54.5011 55.6764 54.5901 55.4786 54.7105 55.3C54.8422 55.1186 55.2054 54.8012 55.4324 55.0098C55.492 55.0689 55.5385 55.14 55.5686 55.2184C55.7865 55.6718 55.9999 56.1252 56.2178 56.5786C56.278 56.6898 56.3223 56.8089 56.3495 56.9323C56.3566 57.0825 56.3333 57.2325 56.281 57.3735C56.2287 57.5145 56.1486 57.6436 56.0453 57.753C55.9362 57.893 55.806 58.0154 55.6594 58.1157C55.4823 58.2381 55.2735 58.3062 55.0919 58.4286C54.7241 58.678 54.5153 59.1359 54.1112 59.3354C53.8615 59.4578 53.5664 59.4624 53.3076 59.5621C53.0488 59.6619 52.9081 59.7888 52.7038 59.8886C52.138 59.9825 51.5615 59.9947 50.9922 59.9249Z" fill="#B16668"/>
<path d="M50.9922 59.9249C51.3229 59.8275 51.6129 59.6254 51.8185 59.349C52.0773 58.8593 52.4359 58.5601 52.5494 58.016C52.5811 57.8109 52.6313 57.609 52.6993 57.4129C52.8421 57.1114 53.0499 56.8451 53.3076 56.633C53.5392 56.4154 53.7208 56.1796 53.9705 55.9484C54.0885 55.8441 54.3065 55.7443 54.4472 55.8849C54.5011 55.6764 54.5901 55.4786 54.7105 55.3C54.8422 55.1186 55.2054 54.8012 55.4324 55.0098C55.492 55.0689 55.5385 55.14 55.5686 55.2184C55.7865 55.6718 55.9999 56.1252 56.2178 56.5786C56.278 56.6898 56.3223 56.8089 56.3495 56.9323C56.3566 57.0825 56.3333 57.2325 56.281 57.3735C56.2287 57.5145 56.1486 57.6436 56.0453 57.753C55.9362 57.893 55.806 58.0154 55.6594 58.1157C55.4823 58.2381 55.2735 58.3062 55.0919 58.4286C54.7241 58.678 54.5153 59.1359 54.1112 59.3354C53.8615 59.4578 53.5664 59.4624 53.3076 59.5621C53.0488 59.6619 52.9081 59.7888 52.7038 59.8886C52.138 59.9825 51.5615 59.9947 50.9922 59.9249Z" fill="#B16668"/>
<path d="M57.7922 50.3047C56.8842 50.9259 55.9988 50.8805 54.7594 50.8987C54.3616 50.8912 53.9638 50.9154 53.5699 50.9712C53.4254 50.9935 53.2838 51.0315 53.1477 51.0846C52.9859 51.1781 52.8338 51.2875 52.6936 51.411C52.0399 51.8645 51.1909 52.1229 50.7369 52.8166C50.4735 53.2157 50.3873 53.7235 50.1239 54.1134C50.0022 54.2713 49.89 54.4364 49.788 54.6076C49.7408 54.6958 49.7185 54.795 49.7233 54.8948C49.7281 54.9946 49.7599 55.0912 49.8152 55.1744C49.8785 55.2452 49.9579 55.2996 50.0468 55.3331C50.3655 55.4613 50.7194 55.4726 51.0456 55.3649C51.7084 55.1382 52.0989 54.458 52.6573 54.0454C53.0901 53.7394 53.5817 53.5264 54.1011 53.4197C54.3365 53.3512 54.5761 53.2982 54.8184 53.261C55.0117 53.2596 55.2048 53.2763 55.395 53.3109C56.2395 53.3834 57.7922 50.3047 57.7922 50.3047Z" fill="#B16668"/>
</svg>
