<svg width="200" height="134" viewBox="0 0 200 134" fill="none" xmlns="http://www.w3.org/2000/svg">
<path d="M199.078 134.009H0.3125V42.4185L15.5037 33.6448L26.9538 40.2648V62.3917L32.1159 59.4172V50.8022L37.7274 47.5195V14.6918L54.7891 4.85262L62.5073 9.29614V19.1172L69.7714 14.9322L77.4896 19.3802V38.0793L84.5222 42.1192V24.4358L92.2404 19.9923L101.793 25.5286V46.8394L110.691 41.7066V7.19227L122.141 0.585938L135.467 8.26688V36.2747L141.078 39.5121V50.8476L148.111 54.9012V16.3604L157.69 10.8378L169.159 17.4532V26.6621L174.77 29.8996V54.7742L181.785 58.855V42.2689L193.221 35.6625L199.06 39.0314L199.078 134.009ZM0.766509 133.556H198.624V39.2944L193.221 36.184L182.221 42.5319V59.6349L174.285 55.0599V30.1671L168.705 26.9297V17.7162L157.704 11.3683L148.578 16.6325V55.681L140.638 51.106V39.7705L135.026 36.5331V8.52533L122.141 1.11191L111.145 7.45979V41.9832L101.339 47.6374V25.7916L92.2086 20.5274L84.9445 24.7124V42.9037L76.9947 38.3377V19.6387L69.7306 15.4536L62.0124 19.9016V9.55913L54.7483 5.37406L38.1815 14.9548V47.7961L32.5654 51.0335V59.6485L26.4998 63.1625V40.4915L15.5037 34.1436L0.766509 42.6679V133.556Z" fill="#E0E0E0"/>
</svg>
