<svg width="208" height="123" viewBox="0 0 208 123" fill="none" xmlns="http://www.w3.org/2000/svg">
<path d="M118.751 120.713L118.746 123.003L208 71.5398V69.25L118.751 120.713Z" fill="#F0F0F0"/>
<path d="M208 69.2498L89.2855 0.796875L0 52.2873L118.751 120.713L208 69.2498Z" fill="#FAFAFA"/>
<path d="M89.2855 1.3474L207.051 69.2516L118.751 120.166L0.953421 52.2846L89.2855 1.3474ZM89.2855 0.798758L0 52.2846L118.751 120.715L208 69.2516L89.2855 0.785156V0.798758Z" fill="#EBEBEB"/>
<path d="M118.751 120.715L0 52.2891V54.5154L118.746 123.005L118.751 120.76V120.715Z" fill="#E0E0E0"/>
<path d="M37.2117 40.5062L15.9095 52.7894C15.3829 53.0932 15.3602 53.5693 15.8505 53.8549C16.1392 53.9932 16.4564 54.062 16.7765 54.0557C17.0966 54.0494 17.4108 53.9682 17.6938 53.8187L38.9959 41.5355C39.5226 41.2317 39.5498 40.7556 39.055 40.4745C38.7669 40.3345 38.4498 40.2643 38.1295 40.2698C37.8092 40.2753 37.4947 40.3563 37.2117 40.5062Z" fill="#E0E0E0"/>
<path d="M44.3541 44.624L23.0519 56.9071C22.5253 57.2109 22.498 57.687 22.9929 57.9727C23.2816 58.111 23.5987 58.1797 23.9189 58.1734C24.239 58.1671 24.5532 58.086 24.8362 57.9364L46.1383 45.6532C46.665 45.3495 46.6922 44.8734 46.1973 44.5922C45.9094 44.4518 45.5923 44.3815 45.2719 44.387C44.9515 44.3925 44.637 44.4737 44.3541 44.624Z" fill="#E0E0E0"/>
<path d="M32.8079 47.1469L19.4782 54.8551C18.9561 55.1589 18.9289 55.635 19.4192 55.9161C19.7071 56.0565 20.0243 56.1269 20.3447 56.1213C20.665 56.1158 20.9796 56.0346 21.2625 55.8844L34.5922 48.1989C35.1189 47.8951 35.1461 47.419 34.6512 47.1379C34.365 46.9943 34.0488 46.9203 33.7285 46.9219C33.4082 46.9235 33.0928 47.0006 32.8079 47.1469Z" fill="#E0E0E0"/>
<path d="M106.737 22.4599L37.1188 62.6012C36.5967 62.905 36.5695 63.3811 37.0598 63.6668C37.3485 63.8051 37.6657 63.8738 37.9858 63.8675C38.3059 63.8612 38.6201 63.78 38.9031 63.6305L108.521 23.4892C109.048 23.1854 109.075 22.7093 108.58 22.4282C108.292 22.2878 107.975 22.2174 107.655 22.223C107.334 22.2285 107.02 22.3097 106.737 22.4599Z" fill="#E0E0E0"/>
<path d="M110.306 24.518L40.6926 64.6593C40.1659 64.9631 40.1387 65.4392 40.6335 65.7203C40.9216 65.8603 41.2387 65.9305 41.559 65.9249C41.8793 65.9194 42.1938 65.8384 42.4768 65.6885L112.09 25.5472C112.617 25.2434 112.644 24.7673 112.149 24.4862C111.861 24.3462 111.544 24.276 111.224 24.2816C110.903 24.2871 110.589 24.3681 110.306 24.518Z" fill="#E0E0E0"/>
<path d="M113.879 26.5771L44.2609 66.7184C43.7343 67.0222 43.707 67.4983 44.2019 67.7794C44.4898 67.9198 44.807 67.9902 45.1274 67.9846C45.4477 67.9791 45.7623 67.8979 46.0452 67.7477L115.663 27.6064C116.185 27.3026 116.212 26.8265 115.722 26.5454C115.434 26.405 115.117 26.3346 114.797 26.3401C114.476 26.3457 114.162 26.4269 113.879 26.5771Z" fill="#E0E0E0"/>
<path d="M117.446 28.6374L47.8513 68.7787C47.3292 69.0825 47.3019 69.5586 47.7923 69.8442C48.0809 69.9825 48.3981 70.0513 48.7182 70.045C49.0383 70.0387 49.3525 69.9575 49.6355 69.8079L119.253 29.6666C119.78 29.3629 119.807 28.8867 119.312 28.6056C119.022 28.4614 118.7 28.3891 118.376 28.3946C118.051 28.4001 117.732 28.4834 117.446 28.6374Z" fill="#E0E0E0"/>
<path d="M124.654 32.7899L55.0402 72.9266C54.5136 73.2304 54.4863 73.7065 54.9812 73.9922C55.2696 74.1315 55.5869 74.2009 55.9072 74.1946C56.2275 74.1883 56.5418 74.1065 56.8245 73.9559L126.438 33.8191C126.964 33.5153 126.992 33.0392 126.497 32.7536C126.208 32.6142 125.891 32.5449 125.571 32.5512C125.25 32.5575 124.936 32.6393 124.654 32.7899Z" fill="#E0E0E0"/>
<path d="M128.213 34.8488L58.6086 74.9856C58.0819 75.2894 58.0547 75.7655 58.5496 76.0511C58.8379 76.1905 59.1552 76.2598 59.4755 76.2535C59.7959 76.2472 60.1102 76.1654 60.3928 76.0148L130.029 35.8781C130.556 35.5743 130.578 35.0982 130.088 34.8125C129.795 34.6679 129.472 34.5956 129.146 34.6019C128.82 34.6083 128.5 34.6929 128.213 34.8488Z" fill="#E0E0E0"/>
<path d="M131.795 36.9089L62.1774 77.0684C61.6553 77.3722 61.6281 77.8483 62.1184 78.1339C62.4076 78.2733 62.7256 78.3427 63.0467 78.3364C63.3677 78.3301 63.6828 78.2483 63.9662 78.0976L133.58 37.9382C134.115 37.6208 134.115 37.1674 133.661 36.8727C133.37 36.7295 133.048 36.6581 132.724 36.6644C132.399 36.6708 132.081 36.7546 131.795 36.9089Z" fill="#E0E0E0"/>
<path d="M135.364 38.9804L65.7512 79.1036C65.2245 79.4074 65.1973 79.8835 65.6921 80.1691C65.9805 80.3085 66.2978 80.3778 66.6181 80.3715C66.9384 80.3652 67.2527 80.2834 67.5354 80.1328L137.149 39.9961C137.675 39.6923 137.703 39.2162 137.208 38.9305C136.918 38.7932 136.6 38.7262 136.28 38.7349C135.96 38.7435 135.646 38.8277 135.364 38.9804Z" fill="#E0E0E0"/>
<path d="M142.572 43.1201L72.9545 83.2614C72.4278 83.5652 72.4051 84.0413 72.8954 84.3224C73.1834 84.4628 73.5005 84.5331 73.8209 84.5276C74.1413 84.5221 74.4558 84.4409 74.7387 84.2906L144.357 44.1493C144.883 43.8455 144.906 43.3695 144.416 43.0883C144.128 42.9479 143.811 42.8776 143.49 42.8831C143.17 42.8886 142.855 42.9698 142.572 43.1201Z" fill="#E0E0E0"/>
<path d="M146.141 45.1781L76.5231 85.3194C76.001 85.6232 75.9738 86.0993 76.4641 86.3804C76.753 86.5205 77.0708 86.5907 77.3918 86.5852C77.7129 86.5797 78.0281 86.4986 78.3119 86.3487L147.925 46.2074C148.452 45.9036 148.479 45.4275 147.984 45.1464C147.696 45.0063 147.379 44.9362 147.059 44.9417C146.739 44.9472 146.424 45.0282 146.141 45.1781Z" fill="#E0E0E0"/>
<path d="M117.449 65.8327L80.1247 87.3384C79.6026 87.6422 79.5754 88.1183 80.0657 88.404C80.3552 88.5423 80.673 88.6111 80.9939 88.6048C81.3148 88.5985 81.6297 88.5173 81.9135 88.3677L119.233 66.862C119.76 66.5627 119.787 66.0866 119.292 65.801C119.004 65.662 118.687 65.5924 118.367 65.598C118.047 65.6035 117.732 65.6839 117.449 65.8327Z" fill="#E0E0E0"/>
<path d="M111.809 104.838L143.481 86.5921C143.817 86.3972 143.835 86.0934 143.517 85.9075C143.332 85.8181 143.128 85.7736 142.922 85.7776C142.716 85.7815 142.514 85.8338 142.332 85.9302L110.66 104.189C110.32 104.384 110.302 104.693 110.62 104.874C110.807 104.962 111.012 105.005 111.219 104.999C111.425 104.993 111.628 104.937 111.809 104.838Z" fill="#E0E0E0"/>
<path d="M109.512 103.51L133.534 89.6719C133.87 89.477 133.888 89.1686 133.57 88.9873C133.385 88.8969 133.181 88.8518 132.975 88.8557C132.769 88.8596 132.567 88.9125 132.385 89.0099L108.363 102.848C108.023 103.043 108.005 103.352 108.323 103.533C108.509 103.622 108.714 103.666 108.92 103.662C109.127 103.658 109.329 103.606 109.512 103.51Z" fill="#E0E0E0"/>
<path d="M151.098 82.1926L182.77 63.9198C183.11 63.7248 183.124 63.421 182.811 63.2351C182.624 63.1461 182.42 63.1018 182.213 63.1057C182.007 63.1096 181.804 63.1617 181.621 63.2578L149.949 81.517C149.613 81.712 149.595 82.0203 149.913 82.2017C150.097 82.2942 150.301 82.3416 150.507 82.34C150.713 82.3385 150.915 82.2879 151.098 82.1926Z" fill="#E0E0E0"/>
<path d="M148.801 80.8619L172.823 67.0235C173.163 66.8286 173.177 66.5202 172.864 66.3389C172.678 66.2484 172.473 66.2033 172.266 66.2073C172.059 66.2112 171.856 66.2641 171.674 66.3616L147.652 80.1999C147.316 80.3949 147.298 80.7032 147.616 80.8846C147.802 80.9739 148.005 81.0184 148.211 81.0145C148.417 81.0106 148.619 80.9583 148.801 80.8619Z" fill="#E0E0E0"/>
<path d="M139.203 83.9949C136.661 84.3455 134.194 85.1114 131.902 86.262C131.73 86.1441 131.575 86.0217 131.448 85.9038C130.33 84.9636 129.362 83.8581 128.579 82.6256C128.551 82.485 128.52 82.3399 128.492 82.1994L127.975 79.5378C127.959 79.1009 127.849 78.6726 127.653 78.2818C127.531 78.1249 127.368 78.006 127.181 77.9393C126.994 77.8726 126.792 77.8609 126.599 77.9055C126.508 77.9055 126.368 77.9735 126.372 78.037C126.548 79.7208 127.122 81.3387 128.047 82.7571V82.8296C128.138 83.2831 128.225 83.7002 128.311 84.1309C128.444 84.4968 128.471 84.8931 128.388 85.2736C128.253 85.4905 128.061 85.6661 127.833 85.7813C127.605 85.8964 127.349 85.9467 127.094 85.9265C126.822 85.9578 126.547 85.9103 126.302 85.7897C126.056 85.6691 125.85 85.4805 125.709 85.2464C125.655 85.1058 125.169 85.1239 125.214 85.2464C125.319 85.5094 125.396 85.7678 125.478 86.0308L124.016 85.2328C123.866 85.1512 123.48 85.201 123.562 85.3461C123.812 85.7336 123.983 86.1665 124.066 86.62C124.148 87.0736 124.141 87.539 124.043 87.9896C122.943 87.0351 121.969 85.9458 121.142 84.7476C121.042 84.598 120.561 84.6433 120.602 84.8156C120.906 86.1759 121.228 87.5724 121.542 88.9508C121.7 89.6355 121.855 90.3111 121.996 90.9957C122.099 91.307 122.172 91.6273 122.213 91.9524L121.573 92.3787C121.16 92.0477 120.761 91.7076 120.393 91.3585C120.472 90.8522 120.472 90.3367 120.393 89.8304C120.348 88.2829 119.921 86.7705 119.149 85.4277C118.94 85.0859 118.707 84.7601 118.45 84.4529C118.175 84.1004 117.856 83.7849 117.501 83.5143C117.333 83.4086 117.142 83.3455 116.944 83.3305C116.746 83.3155 116.548 83.349 116.366 83.4282C116.228 83.4866 116.11 83.5854 116.029 83.7116C115.948 83.8379 115.907 83.9856 115.912 84.1355C115.959 84.8857 116.122 85.6243 116.393 86.3255C116.661 87.0858 117.01 87.8154 117.433 88.5019C118.103 89.5796 118.908 90.5671 119.83 91.4401C119.786 91.6821 119.663 91.9027 119.479 92.0669C119.296 92.2312 119.063 92.3297 118.817 92.3469L118.223 92.0295C118.082 91.9615 117.769 91.9887 117.769 92.1066C117.685 92.3715 117.658 92.6514 117.692 92.9273L116.189 92.6553C116.057 92.6326 115.83 92.6825 115.816 92.7732L115.644 94.0971C115.644 94.206 115.676 94.7274 115.449 94.7682C115.222 94.809 114.849 94.5506 114.722 94.478C114.595 94.4055 114.486 94.3284 114.377 94.2513C114.269 93.4997 113.871 92.8199 113.269 92.356C113.133 92.2381 112.72 92.3197 112.72 92.4603C112.721 92.9668 112.901 93.4567 113.229 93.8432C113.367 94.0066 113.519 94.1583 113.683 94.2966C113.715 94.702 113.649 95.1092 113.491 95.484C113.333 95.8588 113.088 96.1902 112.775 96.4504C112.584 96.6574 112.353 96.8239 112.097 96.94C111.84 97.0561 111.563 97.1193 111.281 97.126C111.15 97.12 111.02 97.0971 110.895 97.058C111.994 95.6342 112.153 93.9611 111.204 92.5238C111.017 92.2421 110.801 91.9807 110.559 91.7439C110.494 91.697 110.418 91.6681 110.338 91.6601C110.258 91.6521 110.178 91.6654 110.105 91.6985C108.87 92.2608 108.266 93.1404 108.244 94.0337C108.288 95.0338 108.722 95.9771 109.451 96.6635C109.663 96.8774 109.908 97.0551 110.178 97.1895C109.992 97.4094 109.79 97.6155 109.574 97.8061C109.028 98.2805 108.417 98.6731 107.758 98.9714C107.004 99.3743 106.156 99.5713 105.302 99.5427C104.217 99.4475 103.644 98.6585 103.268 98.1371C103.016 97.7863 102.813 97.4036 102.664 96.999C105.474 95.9562 107.59 94.3148 108.566 92.4648C109.156 91.3675 109.497 90.0526 108.97 88.9236C108.784 88.5618 108.506 88.255 108.165 88.0338C107.823 87.8126 107.429 87.6848 107.022 87.6631C106.181 87.5727 105.332 87.7454 104.593 88.1573C103.945 88.5151 103.396 89.0276 102.995 89.6491C102.584 90.2704 102.285 90.9597 102.114 91.6849C101.742 93.0019 101.609 94.3746 101.719 95.7385C101.766 96.1586 101.858 96.5723 101.996 96.9718L101.62 97.1078C101.229 97.2393 100.825 97.3572 100.407 97.466C100.185 97.525 100.485 97.6474 100.648 97.6066C101.138 97.4842 101.615 97.3482 102.078 97.194C102.133 97.3378 102.195 97.4786 102.264 97.6157C102.604 98.3222 103.118 98.9308 103.758 99.384C105.247 100.409 107.563 99.5336 108.82 98.8127C109.499 98.431 110.112 97.9426 110.636 97.3663H110.7C111.316 97.4952 111.957 97.4071 112.516 97.1169C112.949 96.9083 113.332 96.6073 113.636 96.2352C113.94 95.8631 114.159 95.4289 114.277 94.9632C114.294 94.8792 114.306 94.7945 114.314 94.7093C114.46 94.7853 114.612 94.8505 114.768 94.9042C115.335 95.1037 115.971 94.9858 116.066 94.5868C116.175 94.0423 116.247 93.4908 116.28 92.9364L117.81 93.2084C117.968 93.2356 118.2 93.1722 118.177 93.0633C118.137 92.8445 118.137 92.6201 118.177 92.4013C118.291 92.4646 118.412 92.5163 118.536 92.5555C118.752 92.5974 118.975 92.5865 119.185 92.5238C119.562 92.4454 119.899 92.2347 120.134 91.9298C120.164 91.8845 120.191 91.8376 120.216 91.7892C120.529 92.0749 120.861 92.3515 121.206 92.6235C117.922 94.8507 114.776 97.2733 111.785 99.8782C109.682 101.732 107.676 103.691 105.774 105.75C105.624 105.909 106.146 105.954 106.269 105.823C109.668 102.246 113.363 98.9625 117.315 96.006C118.677 94.9586 120.111 93.9339 121.573 92.9273H121.605C121.673 92.9674 121.75 92.9904 121.829 92.9944C121.908 92.9983 121.987 92.9831 122.059 92.95C122.251 92.8997 122.422 92.7919 122.551 92.6411C122.679 92.4902 122.758 92.3037 122.776 92.1066C125.246 90.4562 127.839 88.8647 130.563 87.3638C130.985 87.1281 131.425 86.9104 131.866 86.6746C132.188 86.8279 132.533 86.926 132.887 86.9648C133.606 87.0076 134.326 86.8963 134.998 86.6384C136.649 86.1269 138.178 85.2862 139.493 84.1672C139.593 84.0856 139.398 83.9677 139.203 83.9949ZM102.505 96.4322C102.272 95.2534 102.28 94.0396 102.528 92.8638C102.736 91.567 103.045 90.2249 104.139 89.0687C104.635 88.5249 105.289 88.1505 106.01 87.9986C106.421 87.8928 106.854 87.908 107.257 88.0423C107.66 88.1767 108.015 88.4245 108.28 88.7558C108.604 89.2567 108.739 89.856 108.661 90.4471C108.625 91.0046 108.49 91.5513 108.262 92.0613C107.422 93.952 105.392 95.6478 102.623 96.7678C102.568 96.6544 102.532 96.5637 102.505 96.4322ZM110.055 96.5365C109.447 95.948 109.043 95.1806 108.902 94.3465C108.848 93.882 108.943 93.4124 109.173 93.0051C109.403 92.5978 109.756 92.2737 110.182 92.0794C110.8 92.7069 111.168 93.5371 111.218 94.4155C111.268 95.2938 110.997 96.1604 110.455 96.8539C110.31 96.7607 110.175 96.6545 110.051 96.5365H110.055ZM116.865 85.9265C116.769 85.612 116.691 85.2927 116.629 84.9698C116.546 84.675 116.509 84.369 116.52 84.0629C116.524 83.985 116.546 83.9092 116.586 83.842C116.625 83.7748 116.681 83.7183 116.747 83.6775C116.988 83.5642 117.242 83.8725 117.356 83.9768C117.617 84.2265 117.861 84.493 118.087 84.7748C118.929 85.8483 119.484 87.1186 119.698 88.4657C119.827 89.2012 119.9 89.9454 119.916 90.6919C119.916 90.7554 119.916 90.8234 119.916 90.9005C118.514 89.5102 117.467 87.8045 116.861 85.9265H116.865ZM126.962 78.2184C127.23 78.3861 127.28 78.8985 127.303 79.0118L127.562 80.3177C127.598 80.5127 127.639 80.7076 127.675 80.9026C127.309 80.0492 127.065 79.1487 126.949 78.2274L126.962 78.2184ZM124.579 90.4607C123.957 90.8506 123.348 91.2451 122.74 91.6441C122.74 91.5806 122.717 91.5217 122.704 91.4628C122.536 90.7237 122.363 89.9801 122.195 89.241C121.941 88.1165 121.682 86.992 121.419 85.8676C122.204 86.7986 123.067 87.6616 123.998 88.4475C124.089 88.5246 124.411 88.5019 124.452 88.4022C124.759 87.5421 124.715 86.5957 124.329 85.7678L125.691 86.5023C125.809 86.5658 126.186 86.5568 126.145 86.4253C126.104 86.2938 126.027 86.0897 125.973 85.9265C126.437 86.1189 126.944 86.1876 127.444 86.126C128.62 85.9854 129.055 85.3779 128.987 84.7431C128.96 84.4529 128.91 84.1672 128.856 83.877C129.53 84.7742 130.319 85.5792 131.203 86.2711C131.297 86.3453 131.395 86.4134 131.498 86.4751L131.371 86.5341C128.942 87.7674 126.722 89.114 124.579 90.4743V90.4607ZM135.293 86.2076C134.624 86.5216 133.895 86.69 133.155 86.7018C132.854 86.679 132.56 86.6006 132.288 86.4706C134.278 85.4657 136.406 84.7598 138.603 84.3758C137.6 85.1619 136.478 85.7847 135.28 86.2212L135.293 86.2076Z" fill="#E0E0E0"/>
<path d="M160.946 59.5408C160.865 59.5726 160.806 59.6315 160.81 59.6859C161.068 61.8483 161.682 63.9532 162.626 65.9159C162.086 66.052 161.387 66.0293 161.055 65.7164C160.96 65.6257 160.601 65.6167 160.565 65.7482C160.529 65.8797 160.511 66.0112 160.479 66.1472L159.571 65.594C159.453 65.526 159.085 65.5396 159.117 65.6711L159.348 66.7774C158.987 66.5792 158.651 66.3371 158.35 66.0565C158.232 65.9386 157.809 65.9794 157.896 66.1336C158.085 66.5107 158.139 66.941 158.05 67.3533C157.516 66.9551 157.011 66.5203 156.538 66.052C156.447 65.9567 156.016 65.9567 156.061 66.1018C156.184 66.5159 156.264 66.9413 156.302 67.3714C156.302 67.5573 156.302 67.7432 156.302 67.9336C156.302 68.1241 156.347 68.3871 156.157 68.5594C155.866 68.8178 155.526 68.3599 155.412 68.2284C155.319 68.123 155.234 68.0108 155.158 67.8928C155.01 67.4396 154.831 66.9972 154.622 66.5689C154.622 66.5689 154.622 66.5689 154.622 66.5417C154.563 66.4147 154.123 66.4691 154.136 66.5961C154.206 67.0874 154.394 67.5544 154.686 67.9563C154.867 68.5184 154.992 69.0971 155.058 69.6839C154.572 70.0194 154.073 70.3595 153.573 70.695C153.563 70.6714 153.551 70.6487 153.537 70.627C153.401 70.3549 153.283 70.0783 153.174 69.7972C153.34 69.3753 153.44 68.9302 153.469 68.4778C153.506 67.5372 153.252 66.608 152.743 65.8162C152.851 65.463 152.924 65.1 152.96 64.7325C153.03 63.9246 152.843 63.1153 152.425 62.4201C152.157 61.9403 151.778 61.5312 151.32 61.2268C150.862 60.9224 150.338 60.7315 149.791 60.6699C147.108 60.289 144.915 61.7581 144.552 63.1591C144.098 64.8459 145.528 66.5462 146.582 68.0697C147.154 68.904 147.744 69.7337 148.289 70.5726C147.415 71.1948 146.492 71.7438 145.528 72.2139C144.901 72.5192 144.259 72.7916 143.603 73.0301C143.431 73.089 143.744 73.1888 143.88 73.1435C145.501 72.5755 147.046 71.8143 148.484 70.8764C149.014 71.6877 149.484 72.5363 149.891 73.4155C148.352 74.7486 147.217 76.1904 147.081 77.8681C147.015 78.6278 147.202 79.388 147.612 80.0309C147.835 80.38 148.638 81.6088 149.619 81.1599C149.81 81.055 149.968 80.8977 150.073 80.7065C150.215 80.5213 150.345 80.3275 150.463 80.1261C150.674 79.7777 150.847 79.4084 150.981 79.0243C151.249 78.2576 151.363 77.4456 151.317 76.6348C151.232 75.5254 150.941 74.4414 150.459 73.4382C151.377 72.6838 152.333 71.977 153.324 71.3207C153.468 71.6419 153.691 71.9212 153.973 72.1323C154.165 72.2552 154.387 72.3231 154.615 72.3287C154.844 72.3343 155.069 72.2774 155.267 72.1641C155.349 72.0998 155.415 72.0179 155.46 71.9244C155.506 71.831 155.53 71.7284 155.53 71.6245C155.557 71.4159 155.576 71.2028 155.585 70.9897C155.6 70.5872 155.587 70.1841 155.544 69.7836C155.83 69.5841 156.12 69.3846 156.397 69.176C156.602 69.0219 156.139 68.9266 155.971 69.0491C155.803 69.1715 155.653 69.2712 155.494 69.3846C155.462 69.1715 155.426 68.9584 155.38 68.7453C155.609 68.8791 155.877 68.9288 156.139 68.8858C156.879 68.7679 156.788 68.1422 156.788 67.8067C156.778 67.4411 156.737 67.077 156.665 66.7185C157.079 67.0928 157.513 67.4454 157.964 67.775C158.064 67.8475 158.368 67.8339 158.418 67.7296C158.552 67.3929 158.59 67.0255 158.527 66.6686C158.835 66.8748 159.16 67.0552 159.498 67.2082C159.621 67.2626 159.952 67.2082 159.911 67.1084L159.693 66.0656L160.465 66.519C160.57 66.5825 160.892 66.5825 160.919 66.4736C160.946 66.3648 160.983 66.2152 161.01 66.0882C161.56 66.2751 162.15 66.308 162.717 66.1835C163.068 66.8981 163.456 67.5943 163.879 68.2692C164.394 69.0821 164.954 69.8662 165.555 70.6179C165.695 70.7947 166.281 70.6587 166.14 70.4819C165.025 69.1013 164.066 67.602 163.28 66.0112C163.601 65.8849 163.878 65.6688 164.079 65.3888C164.279 65.1089 164.394 64.7771 164.411 64.4333C164.469 63.7127 164.384 62.9878 164.161 62.3C163.938 61.6123 163.582 60.9751 163.112 60.425C162.772 59.9988 162.004 59.1418 160.946 59.5408ZM150.55 78.3351C150.362 79.1808 149.994 79.9759 149.469 80.6657C149.419 80.7292 149.36 80.8743 149.269 80.9196C149.179 80.965 149.192 80.9604 149.065 80.9196C149.01 80.8969 148.958 80.8663 148.911 80.8289C148.725 80.6864 148.558 80.5203 148.416 80.3347C148.15 80.0192 147.941 79.6603 147.798 79.2737C147.244 77.7774 147.866 76.1859 149.001 74.8302C149.314 74.4675 149.649 74.1253 150.005 73.8054C150.645 75.2244 150.835 76.8051 150.55 78.3351ZM152.933 68.2692C152.935 68.5262 152.913 68.7828 152.865 69.0355C152.802 68.8224 152.747 68.582 152.702 68.3871C152.582 67.7903 152.532 67.1817 152.552 66.5734C152.792 67.1073 152.922 67.6841 152.933 68.2692ZM146.041 66.3966C145.102 64.9048 144.271 63.0594 146.214 61.6991C147.251 61.017 148.513 60.765 149.732 60.9963C150.279 61.1145 150.785 61.3745 151.198 61.7503C151.612 62.1261 151.919 62.6042 152.089 63.1365C152.386 63.9387 152.413 64.8158 152.166 65.6348C152.134 65.6348 152.111 65.6711 152.107 65.6938C152.102 65.7164 152.107 65.8116 152.107 65.8661C151.86 66.5991 151.5 67.289 151.04 67.911C150.361 68.8091 149.554 69.6021 148.643 70.2642C147.803 68.9765 146.863 67.6933 146.041 66.3966ZM148.865 70.5862C150.139 69.7175 151.221 68.5971 152.043 67.2943C152.097 68.1878 152.294 69.0667 152.629 69.897C152.573 70.1195 152.451 70.3204 152.281 70.4745C152.111 70.6286 151.898 70.7289 151.671 70.763C151.394 70.8129 151.671 70.967 151.884 70.9353C152.071 70.9122 152.252 70.8517 152.415 70.7574C152.578 70.6631 152.72 70.537 152.833 70.3867C152.924 70.5816 153.024 70.7766 153.128 70.9716C152.134 71.6517 151.149 72.3318 150.268 73.0573C149.855 72.2041 149.386 71.3787 148.865 70.5862ZM155.031 71.3706C155.031 71.5338 155.063 71.824 154.876 71.9782C154.559 72.2094 154.282 71.9147 154.154 71.7469C153.983 71.5218 153.831 71.2821 153.7 71.0305C154.086 70.7721 154.472 70.5136 154.849 70.2506L155.049 70.1101C155.072 70.5302 155.066 70.9514 155.031 71.3706ZM162.263 60.289C162.517 60.5503 162.745 60.8358 162.944 61.1414C163.328 61.731 163.592 62.3905 163.72 63.0821C163.893 63.7333 163.879 64.4199 163.68 65.0635C163.576 65.3255 163.391 65.5478 163.153 65.6983C162.611 64.5515 162.183 63.3549 161.873 62.1253C161.681 61.347 161.544 60.5561 161.464 59.7585C161.777 59.7721 162.154 60.1756 162.263 60.289Z" fill="#E0E0E0"/>
<path d="M170.204 64.7975C169.818 65.2509 169.695 65.7996 168.887 66.0852C168.566 66.2018 168.222 66.2391 167.884 66.1941C167.872 65.9971 167.818 65.805 167.726 65.6306C167.633 65.4562 167.504 65.3036 167.348 65.1829C167.21 65.0886 167.047 65.0381 166.88 65.0381C166.714 65.0381 166.55 65.0886 166.413 65.1829C166.163 65.4006 166.445 65.727 166.64 65.9265C166.847 66.1293 167.104 66.2746 167.384 66.3482C167.389 66.5359 167.35 66.7222 167.271 66.8923C167.248 66.9467 166.939 67.4591 166.817 67.4138C166.694 67.3684 166.458 67.45 166.626 67.5226C167.348 67.8309 167.793 66.8561 167.861 66.6157C167.876 66.5593 167.887 66.5017 167.893 66.4434C168.249 66.4747 168.609 66.4455 168.955 66.3573C169.936 66.1124 170.585 65.4187 170.676 64.8247C170.662 64.7068 170.281 64.7114 170.204 64.7975ZM166.98 65.6228C166.958 65.5865 166.799 65.2827 166.88 65.2918C166.88 65.2918 166.989 65.4323 166.998 65.4414C167.008 65.4504 167.085 65.5457 167.126 65.5955C167.204 65.7067 167.265 65.829 167.307 65.9583C167.18 65.8653 167.07 65.752 166.98 65.6228Z" fill="#E0E0E0"/>
<path d="M168.488 63.0987C168.342 63.1804 168.647 63.2803 168.765 63.2122C168.883 63.1441 168.619 63.0124 168.488 63.0987Z" fill="#E0E0E0"/>
<path opacity="0.2" d="M138.04 87.919L136.097 88.8259C140.637 91.9318 148.973 92.2401 154.712 89.5105L153.182 88.4767C148.51 90.694 141.723 90.4446 138.04 87.919ZM140.565 79.83C136.433 81.7979 135.734 85.2212 138.998 87.4611C142.263 89.701 148.278 89.9232 152.41 87.9553C156.541 85.9875 157.241 82.5641 153.972 80.3242C150.703 78.0843 144.692 77.8622 140.565 79.83ZM151.638 87.4293C148.047 89.1433 142.812 88.9483 139.97 86.9759C139.779 86.8459 139.597 86.7035 139.425 86.5497L152.346 87.0439C152.117 87.1842 151.881 87.3129 151.638 87.4293ZM153.3 86.3819L138.771 85.8424C137.745 84.405 138.104 82.7138 139.72 81.3716L154.194 81.9067C155.229 83.344 154.898 85.0353 153.3 86.3819ZM140.674 80.696C140.883 80.5736 141.101 80.4603 141.332 80.3469C144.923 78.633 150.158 78.8279 153 80.7777C153.176 80.8984 153.346 81.0286 153.509 81.1676L140.674 80.696ZM134.168 89.7645C139.539 93.4508 149.436 93.8135 156.228 90.5761C163.02 87.3387 164.173 81.7072 158.802 78.0209C153.431 74.3346 143.534 73.9718 136.742 77.2092C129.95 80.4467 128.797 86.0781 134.168 89.7645ZM157.831 78.4833C162.779 81.8795 161.717 87.0666 155.461 90.0501C149.205 93.0336 140.088 92.6981 135.139 89.302C130.191 85.9058 131.253 80.7187 137.509 77.7352C143.766 74.7517 152.882 75.0918 157.831 78.4833ZM139.807 79.3086C144.465 77.0914 151.248 77.3407 154.934 79.8663L156.873 78.9594C152.333 75.8535 143.997 75.5452 138.258 78.2748L139.807 79.3086Z" fill="#BA68C8"/>
<path d="M58.893 38.8797L57.5809 36.073C57.5703 36.0206 57.5628 35.9676 57.5582 35.9143C57.5582 35.8372 57.6036 35.7647 57.7307 35.6922L58.3663 35.3249C58.445 35.2848 58.5323 35.2645 58.6206 35.2659C58.7074 35.2645 58.7932 35.2848 58.8703 35.3249L64.9222 38.8162C64.951 38.8283 64.9757 38.8484 64.9934 38.8742C65.0111 38.8999 65.0211 38.9301 65.0221 38.9613C65.0205 38.9924 65.0104 39.0224 64.9927 39.048C64.9751 39.0736 64.9507 39.0938 64.9222 39.1064L64.164 39.5598C64.0858 39.6015 63.9985 39.6233 63.9098 39.6233C63.8211 39.6233 63.7338 39.6015 63.6555 39.5598L59.9962 37.4514L60.9042 39.3694C60.9165 39.4231 60.9165 39.4789 60.9042 39.5326C60.9042 39.5961 60.8543 39.6505 60.768 39.7004L60.2822 39.9815C60.1917 40.0317 60.0906 40.0596 59.9871 40.0631C59.8919 40.0683 59.7964 40.0683 59.7011 40.0631L56.3778 39.5508L60.0371 41.6592C60.0658 41.6719 60.0906 41.6921 60.109 41.7176C60.1273 41.7431 60.1386 41.773 60.1415 41.8043C60.1395 41.8358 60.1287 41.8662 60.1102 41.8918C60.0918 41.9175 60.0664 41.9374 60.0371 41.9493L59.2789 42.4028C59.201 42.445 59.1132 42.4654 59.0246 42.4617C58.9374 42.4665 58.8507 42.446 58.7749 42.4028L52.723 38.916C52.6935 38.9042 52.6682 38.8839 52.6504 38.8576C52.6326 38.8313 52.623 38.8003 52.623 38.7686C52.623 38.7369 52.6326 38.7059 52.6504 38.6796C52.6682 38.6534 52.6935 38.633 52.723 38.6212L53.3631 38.254C53.4772 38.1868 53.6076 38.1523 53.74 38.1542H54.0169L58.893 38.8797Z" fill="#BA68C8"/>
<path d="M69.8303 34.9249C69.9073 34.8848 69.9932 34.8645 70.08 34.8659C70.1683 34.8645 70.2556 34.8848 70.3342 34.9249L70.9971 35.3103C71.0267 35.3217 71.0524 35.3415 71.071 35.3673C71.0895 35.3931 71.1001 35.4237 71.1015 35.4554C71.0991 35.4868 71.088 35.5169 71.0696 35.5425C71.0512 35.5681 71.0261 35.5881 70.9971 35.6005L66.911 37.9719C66.8331 38.0141 66.7453 38.0345 66.6568 38.0308C66.5696 38.0356 66.4829 38.0151 66.4071 37.9719L60.3551 34.4851C60.3235 34.4754 60.2959 34.4558 60.2763 34.4293C60.2567 34.4028 60.2461 34.3707 60.2461 34.3377C60.2461 34.3047 60.2567 34.2726 60.2763 34.2461C60.2959 34.2196 60.3235 34.2 60.3551 34.1904L64.3913 31.8643C64.4691 31.8221 64.557 31.8017 64.6455 31.8054C64.7327 31.8006 64.8194 31.8211 64.8952 31.8643L65.5626 32.2497C65.5919 32.2616 65.6173 32.2816 65.6358 32.3072C65.6542 32.3329 65.6651 32.3633 65.667 32.3948C65.6641 32.4261 65.6529 32.456 65.6345 32.4815C65.6162 32.507 65.5913 32.5272 65.5626 32.5399L62.5389 34.2856L64.0281 35.1425L66.8429 33.5148C66.9217 33.4752 67.0089 33.455 67.0972 33.4558C67.1855 33.4544 67.2727 33.4747 67.3514 33.5148L68.0143 33.9002C68.0433 33.9125 68.0684 33.9326 68.0868 33.9581C68.1052 33.9837 68.1162 34.0138 68.1187 34.0453C68.1167 34.0768 68.1059 34.1072 68.0874 34.1328C68.0689 34.1585 68.0436 34.1785 68.0143 34.1904L65.1722 35.8045L66.7294 36.7114L69.8303 34.9249Z" fill="#BA68C8"/>
<path d="M68.5276 29.4572C69.2305 29.033 70.0274 28.7885 70.8476 28.7454C71.5894 28.7155 72.3246 28.8963 72.9678 29.2668C73.3418 29.4432 73.6422 29.7448 73.8168 30.1192C73.8704 30.2803 73.8798 30.4528 73.8438 30.6187C73.8079 30.7846 73.728 30.9378 73.6125 31.0624L77.2173 31.6518C77.2632 31.6579 77.3077 31.6716 77.349 31.6926C77.3722 31.7029 77.392 31.7198 77.4059 31.7411C77.4198 31.7624 77.4272 31.7873 77.4272 31.8128C77.4272 31.8382 77.4198 31.8631 77.4059 31.8844C77.392 31.9057 77.3722 31.9226 77.349 31.9329L76.5499 32.3863C76.4409 32.4547 76.3154 32.4923 76.1867 32.4952C76.0894 32.4961 75.9922 32.4885 75.8961 32.4725L72.4865 31.9238L71.2425 32.6402L73.4263 33.8962C73.4552 33.9096 73.4797 33.9306 73.4974 33.957C73.515 33.9834 73.525 34.0141 73.5262 34.0459C73.5243 34.0774 73.5134 34.1078 73.4949 34.1334C73.4765 34.1591 73.4511 34.179 73.4218 34.191L72.6636 34.6444C72.5878 34.6876 72.5011 34.7081 72.4139 34.7033C72.3254 34.707 72.2375 34.6866 72.1596 34.6444L66.1122 31.1576C66.0832 31.1452 66.0581 31.1252 66.0397 31.0996C66.0213 31.074 66.0103 31.0439 66.0078 31.0125C66.0098 30.9809 66.0206 30.9506 66.0391 30.9249C66.0575 30.8992 66.0829 30.8793 66.1122 30.8674L68.5276 29.4572ZM70.0712 31.9692L71.4332 31.1848C71.7101 31.0556 71.9424 30.8473 72.1006 30.5863C72.1869 30.3913 72.0552 30.1963 71.7056 29.9923C71.4009 29.8029 71.0401 29.7244 70.6841 29.7701C70.3201 29.838 69.9711 29.97 69.6535 30.16L68.2915 30.9445L70.0712 31.9692Z" fill="#BA68C8"/>
<path d="M74.3246 28.9231C74.0072 28.7412 73.7281 28.4994 73.5029 28.2113C73.3298 27.9923 73.2398 27.7193 73.2486 27.4404C73.2811 27.1411 73.4084 26.86 73.6119 26.6379C73.9051 26.3122 74.2522 26.0392 74.6379 25.8308C75.1221 25.5413 75.6449 25.3215 76.1906 25.1779C76.636 25.0629 77.0928 24.9975 77.5527 24.9829C77.9048 24.971 78.2572 25.0029 78.6014 25.0781C78.8332 25.1315 79.0596 25.2058 79.2779 25.3003C79.3596 25.3411 79.3959 25.391 79.3869 25.4454C79.3825 25.4774 79.3703 25.5078 79.3513 25.5339C79.3323 25.5601 79.307 25.5811 79.2779 25.595L78.5197 26.0484C78.4532 26.0867 78.3784 26.1084 78.3018 26.1119C78.2369 26.1191 78.1714 26.1191 78.1065 26.1119L77.8432 26.0757C77.6726 26.059 77.5008 26.059 77.3302 26.0757C77.0943 26.0986 76.8606 26.1395 76.631 26.1981C76.3471 26.2753 76.0751 26.3913 75.8229 26.5427C75.3689 26.8102 75.1055 27.1004 75.0783 27.4087C75.0511 27.717 75.2372 27.9982 75.6413 28.2521C75.8683 28.3972 76.118 28.5468 76.3859 28.7055C76.6537 28.8642 76.917 29.0047 77.1713 29.1317C77.6492 29.4075 78.195 29.5442 78.7467 29.5262C79.268 29.4963 79.7743 29.3407 80.2222 29.0728C80.4263 28.9608 80.6154 28.8237 80.7852 28.6647C80.9123 28.5506 81.0011 28.4002 81.0395 28.2339C81.0545 28.1546 81.0521 28.0731 81.0326 27.9948C81.013 27.9165 80.9766 27.8434 80.926 27.7805C80.7706 27.5932 80.5792 27.439 80.363 27.3271L80.2858 27.2818L79.1462 27.9437C79.0676 27.9838 78.9803 28.0041 78.892 28.0027C78.8037 28.0035 78.7166 27.9833 78.6377 27.9437L77.9749 27.5583C77.9459 27.546 77.9208 27.526 77.9024 27.5004C77.884 27.4748 77.8729 27.4446 77.8705 27.4132C77.8724 27.3817 77.8833 27.3513 77.9017 27.3257C77.9202 27.3 77.9456 27.2801 77.9749 27.2682L80.1269 26.0258C80.206 25.987 80.293 25.9668 80.3811 25.9668C80.4693 25.9668 80.5563 25.987 80.6354 26.0258L81.666 26.6198C81.9926 26.7958 82.2824 27.0329 82.5195 27.318C82.7096 27.5332 82.8131 27.811 82.8101 28.0979C82.7852 28.4028 82.6608 28.6912 82.456 28.9186C82.1559 29.2531 81.7994 29.5324 81.4027 29.7438C80.9557 30.0069 80.4765 30.2111 79.9771 30.3514C79.5228 30.4764 79.0544 30.5434 78.5833 30.5509C78.124 30.5579 77.6658 30.503 77.2212 30.3877C76.7917 30.2778 76.377 30.1164 75.9863 29.907L75.5777 29.6894C75.4324 29.6078 75.2826 29.5262 75.1237 29.4355L74.6697 29.1816L74.3246 28.9231Z" fill="#BA68C8"/>
<path d="M88.5087 24.1593C88.5867 24.1175 88.6744 24.0971 88.7629 24.1003C88.8514 24.0967 88.9393 24.1171 89.0171 24.1593L89.68 24.5402C89.7087 24.5529 89.7336 24.5731 89.7519 24.5986C89.7703 24.6241 89.7815 24.654 89.7844 24.6853C89.7825 24.7168 89.7716 24.7472 89.7532 24.7728C89.7347 24.7985 89.7093 24.8184 89.68 24.8304L85.5939 27.2017C85.5148 27.2406 85.4278 27.2607 85.3397 27.2607C85.2515 27.2607 85.1645 27.2406 85.0854 27.2017L79.038 23.7149C79.009 23.7026 78.9839 23.6825 78.9655 23.657C78.9471 23.6314 78.9361 23.6013 78.9336 23.5698C78.9355 23.5383 78.9464 23.5079 78.9649 23.4823C78.9833 23.4566 79.0087 23.4366 79.038 23.4247L83.0742 21.0942C83.1528 21.0541 83.2401 21.0338 83.3284 21.0352C83.4153 21.0338 83.5011 21.0541 83.5781 21.0942L84.2455 21.4796C84.274 21.4921 84.2984 21.5124 84.316 21.538C84.3337 21.5636 84.3438 21.5936 84.3454 21.6247C84.3444 21.6559 84.3344 21.6861 84.3167 21.7118C84.299 21.7375 84.2743 21.7576 84.2455 21.7698L81.2173 23.5154L82.7064 24.3724L85.5258 22.7492C85.6049 22.7103 85.6919 22.6901 85.7801 22.6901C85.8682 22.6901 85.9552 22.7103 86.0343 22.7492L86.6972 23.13C86.7287 23.1397 86.7563 23.1593 86.776 23.1858C86.7956 23.2123 86.8062 23.2444 86.8062 23.2774C86.8062 23.3104 86.7956 23.3425 86.776 23.369C86.7563 23.3955 86.7287 23.4151 86.6972 23.4247L83.8778 25.048L85.435 25.9548L88.5087 24.1593Z" fill="#BA68C8"/>
<path d="M87.2112 18.7002C87.9124 18.2716 88.71 18.0253 89.5312 17.9838C90.2717 17.9533 91.0055 18.1342 91.6468 18.5052C92.0203 18.6838 92.3215 18.9846 92.5004 19.3576C92.5545 19.5186 92.5641 19.6913 92.5281 19.8573C92.4922 20.0233 92.412 20.1765 92.2961 20.3007L95.9009 20.8902C95.9453 20.8989 95.9882 20.9142 96.028 20.9355C96.0521 20.945 96.0731 20.9611 96.0883 20.9819C96.1036 21.0028 96.1126 21.0276 96.1143 21.0534C96.1125 21.0786 96.104 21.1028 96.0896 21.1236C96.0752 21.1443 96.0555 21.1608 96.0326 21.1713L95.2335 21.6247C95.1245 21.6931 94.999 21.7307 94.8703 21.7336C94.7729 21.737 94.6754 21.7294 94.5797 21.7109L91.1701 21.1623L89.9261 21.8787L92.1054 23.1392C92.1354 23.1501 92.1614 23.1698 92.18 23.1956C92.1986 23.2215 92.209 23.2524 92.2098 23.2843C92.2073 23.3157 92.1963 23.3458 92.1779 23.3714C92.1595 23.397 92.1344 23.417 92.1054 23.4294L91.3472 23.8828C91.2702 23.9229 91.1843 23.9431 91.0975 23.9417C91.0092 23.9431 90.9219 23.9229 90.8432 23.8828L84.7913 20.3914C84.7625 20.3793 84.7378 20.3592 84.7201 20.3335C84.7024 20.3078 84.6924 20.2775 84.6914 20.2463C84.693 20.2153 84.7031 20.1853 84.7208 20.1597C84.7384 20.134 84.7628 20.1138 84.7913 20.1012L87.2112 18.7002ZM88.7548 21.2076L90.1168 20.4277C90.3916 20.2972 90.622 20.0891 90.7797 19.8292C90.8705 19.6342 90.7388 19.4347 90.3892 19.2352C90.0862 19.0418 89.7239 18.963 89.3677 19.013C89.0032 19.0789 88.6538 19.211 88.3371 19.403L86.9751 20.1829L88.7548 21.2076Z" fill="#BA68C8"/>
<path d="M51.0301 37.4037C50.9686 37.4404 50.8974 37.4577 50.8258 37.4536C50.7529 37.4571 50.6805 37.4397 50.617 37.4037L45.6683 34.5517C45.6463 34.543 45.6269 34.5288 45.6118 34.5106C45.5967 34.4924 45.5865 34.4707 45.582 34.4474C45.5835 34.4216 45.5918 34.3966 45.6062 34.3751C45.6206 34.3536 45.6404 34.3363 45.6638 34.325L47.9338 33.0237C48.2336 32.8447 48.56 32.7146 48.9008 32.6383C49.1987 32.5716 49.5036 32.5412 49.8089 32.5476C50.0671 32.5471 50.3245 32.576 50.5761 32.6337C50.7789 32.6879 50.9741 32.7671 51.1573 32.8695C51.289 32.9389 51.4073 33.031 51.5069 33.1416C51.5762 33.2175 51.6287 33.3071 51.6612 33.4046C51.6876 33.4756 51.7 33.551 51.6975 33.6267C51.6959 33.6762 51.6867 33.7251 51.6703 33.7718C51.9721 33.7395 52.2765 33.7395 52.5783 33.7718C52.9114 33.8097 53.233 33.9162 53.5227 34.0847C53.6974 34.1885 53.8514 34.3238 53.9767 34.4837C54.0894 34.6189 54.159 34.7847 54.1764 34.9598C54.1901 35.1424 54.1386 35.3239 54.0312 35.4722C53.8824 35.6811 53.6864 35.852 53.4591 35.9709L51.0301 37.4037ZM50.1675 33.5043C49.9782 33.3938 49.7597 33.3432 49.541 33.3592C49.2807 33.3819 49.0299 33.4675 48.81 33.6086L47.448 34.3885L48.6284 35.0686L49.9905 34.2887C50.2538 34.1346 50.3991 33.994 50.4445 33.8671C50.4899 33.7401 50.3401 33.6177 50.1494 33.5043H50.1675ZM50.903 36.3745L52.3195 35.5583C52.601 35.3951 52.7463 35.2455 52.7735 35.1049C52.8008 34.9643 52.6918 34.8328 52.4966 34.7195C52.2903 34.6046 52.056 34.5497 51.8201 34.5608C51.5386 34.5764 51.2655 34.6621 51.0256 34.8102L49.6091 35.6263L50.903 36.3745Z" fill="#BA68C8"/>
<path d="M54.8447 29.0028C54.9092 28.9699 54.9812 28.9542 55.0536 28.9575C55.1245 28.9542 55.195 28.9698 55.2579 29.0028L58.3996 30.8165C58.6728 30.9619 58.9173 31.1555 59.1215 31.3878C59.2865 31.5571 59.3789 31.784 59.3789 32.0203C59.3789 32.2566 59.2865 32.4835 59.1215 32.6528C58.8923 32.9109 58.6186 33.1259 58.3134 33.2876C57.9643 33.4873 57.5903 33.6398 57.2011 33.7411C56.84 33.8394 56.4675 33.8897 56.0933 33.8907C55.7312 33.8908 55.3708 33.842 55.0218 33.7456C54.676 33.6477 54.3436 33.5076 54.0321 33.3284L50.8903 31.5148C50.867 31.5035 50.8471 31.4862 50.8328 31.4647C50.8184 31.4431 50.8101 31.4182 50.8086 31.3923C50.8104 31.3672 50.8189 31.3429 50.8333 31.3222C50.8477 31.3015 50.8674 31.285 50.8903 31.2744L51.5123 30.9162C51.5761 30.8811 51.6483 30.8639 51.7212 30.8664C51.7925 30.8645 51.863 30.8817 51.9255 30.9162L55.0263 32.7299C55.2223 32.8412 55.4312 32.928 55.6483 32.9884C55.8436 33.0409 56.0454 33.0653 56.2476 33.0609C56.443 33.0562 56.6369 33.0257 56.8242 32.9702C57.0089 32.9119 57.1869 32.8344 57.3554 32.739C57.505 32.6534 57.6425 32.5482 57.764 32.4261C57.8545 32.3375 57.9122 32.2208 57.9275 32.0951C57.932 31.9675 57.8883 31.8428 57.8049 31.746C57.6785 31.5981 57.5242 31.4764 57.3509 31.3878L54.25 29.5968C54.2249 29.5882 54.2031 29.572 54.1877 29.5505C54.1722 29.529 54.1639 29.5031 54.1639 29.4766C54.1639 29.4501 54.1722 29.4243 54.1877 29.4028C54.2031 29.3812 54.2249 29.365 54.25 29.3565L54.8447 29.0028Z" fill="#BA68C8"/>
<path d="M57.9683 27.1244C58.2959 26.9301 58.6468 26.7778 59.0125 26.671C59.3375 26.5805 59.6705 26.5213 60.0068 26.4941C60.2918 26.4733 60.5782 26.4855 60.8603 26.5304C61.0738 26.5696 61.2803 26.6399 61.4732 26.739C61.5413 26.7707 61.5731 26.8115 61.564 26.8569C61.561 26.8829 61.5509 26.9076 61.5349 26.9283C61.5189 26.9491 61.4976 26.9651 61.4732 26.9748L60.9375 27.2876C60.8633 27.3336 60.7793 27.3616 60.6923 27.3693C60.6078 27.378 60.5226 27.378 60.4381 27.3693C60.2122 27.3377 59.983 27.3377 59.7571 27.3693C59.4612 27.4221 59.1779 27.5298 58.9217 27.6866C58.8007 27.7551 58.688 27.8373 58.5857 27.9315C58.5065 28.0014 58.4418 28.0861 58.3951 28.1809C58.3661 28.2568 58.3661 28.3407 58.3951 28.4167C58.4326 28.5012 58.4984 28.5701 58.5812 28.6116C58.6908 28.6772 58.813 28.7189 58.9399 28.734C59.0919 28.7482 59.2453 28.7375 59.3939 28.7023C59.5995 28.6595 59.8015 28.6003 59.9977 28.5255L60.8603 28.2126C61.1967 28.0882 61.5392 27.9808 61.8864 27.8907C62.1703 27.8187 62.4609 27.7761 62.7536 27.7637C63.0052 27.7531 63.2571 27.776 63.5027 27.8317C63.7356 27.8856 63.9591 27.9743 64.1655 28.0947C64.3654 28.1994 64.5332 28.3561 64.6513 28.5481C64.698 28.629 64.728 28.7184 64.7397 28.8111C64.7514 28.9037 64.7445 28.9978 64.7194 29.0877C64.6497 29.3141 64.525 29.5198 64.3562 29.6862C64.1183 29.9242 63.8477 30.1273 63.5526 30.2893C63.2644 30.4565 62.9602 30.5947 62.6446 30.7019C62.323 30.8101 61.9915 30.886 61.6548 30.9286C61.3367 30.967 61.015 30.967 60.6969 30.9286C60.4118 30.8988 60.1338 30.8206 59.8751 30.6974C59.8116 30.6611 59.7798 30.6248 59.7843 30.5749C59.789 30.5495 59.7997 30.5256 59.8155 30.5051C59.8313 30.4846 59.8517 30.4681 59.8751 30.457L60.4109 30.1487C60.4863 30.1036 60.5694 30.0729 60.656 30.058C60.7403 30.0449 60.826 30.0449 60.9103 30.058C61.0147 30.058 61.1237 30.0898 61.2417 30.0988C61.3684 30.1143 61.4964 30.1143 61.6231 30.0988C61.7776 30.075 61.9295 30.0371 62.0771 29.9855C62.2629 29.9171 62.4422 29.8322 62.6128 29.7316C62.7559 29.65 62.8925 29.5575 63.0214 29.455C63.1255 29.3793 63.2134 29.2838 63.2802 29.1739C63.3321 29.0966 63.3547 29.0033 63.3438 28.9109C63.331 28.86 63.3067 28.8128 63.2729 28.7727C63.2391 28.7326 63.1965 28.7008 63.1485 28.6796C63.0304 28.6148 62.8974 28.582 62.7626 28.5844C62.5903 28.5894 62.4194 28.6168 62.2541 28.666C62.0589 28.7204 61.8319 28.7975 61.5686 28.8927C61.3053 28.988 61.0011 29.1013 60.6606 29.2192C60.3634 29.3249 60.0602 29.4127 59.7525 29.4822C59.4944 29.539 59.2314 29.5709 58.9671 29.5774C58.7265 29.5797 58.4867 29.5492 58.2543 29.4867C58.0134 29.4223 57.7826 29.3247 57.5688 29.1965C57.3689 29.0935 57.2021 28.9364 57.0875 28.7431C56.9975 28.5817 56.97 28.3929 57.0103 28.2126C57.0663 28.0034 57.174 27.8117 57.3236 27.6549C57.5099 27.446 57.7274 27.2671 57.9683 27.1244Z" fill="#BA68C8"/>
<path d="M66.7385 28.3363C66.6769 28.373 66.6058 28.3903 66.5342 28.3862C66.4613 28.3896 66.3888 28.3723 66.3254 28.3363L61.3766 25.4843C61.3537 25.4738 61.334 25.4573 61.3196 25.4365C61.3052 25.4158 61.2967 25.3916 61.2949 25.3664C61.2964 25.3406 61.3047 25.3156 61.3191 25.2941C61.3335 25.2726 61.3533 25.2553 61.3766 25.244L61.9986 24.8903C62.0602 24.8537 62.1314 24.8363 62.2029 24.8404C62.2759 24.8365 62.3485 24.8538 62.4118 24.8903L67.3605 27.7423C67.415 27.7741 67.4468 27.8149 67.4422 27.8602C67.4409 27.8855 67.4326 27.91 67.4182 27.9308C67.4037 27.9516 67.3838 27.968 67.3605 27.9781L66.7385 28.3363Z" fill="#BA68C8"/>
<path d="M72.2424 25.1655C72.1612 25.2132 72.0687 25.2382 71.9745 25.2381H71.7657L66.4356 24.635L69.591 26.4487C69.6454 26.485 69.6772 26.5212 69.6772 26.5711C69.6746 26.5966 69.6652 26.621 69.65 26.6417C69.6349 26.6624 69.6145 26.6787 69.591 26.689L68.969 27.0472C68.9065 27.0817 68.836 27.099 68.7647 27.0971C68.6921 27.0974 68.6204 27.0803 68.5558 27.0472L63.6071 24.1952C63.5838 24.1839 63.5639 24.1666 63.5496 24.1451C63.5352 24.1236 63.5268 24.0986 63.5254 24.0728C63.5272 24.0476 63.5357 24.0234 63.5501 24.0026C63.5644 23.9819 63.5841 23.9654 63.6071 23.9549L64.1428 23.6465C64.2238 23.5977 64.3162 23.5711 64.4107 23.5695H64.6195L69.9496 24.1725L66.7943 22.3588C66.771 22.3487 66.751 22.3324 66.7366 22.3115C66.7221 22.2907 66.7138 22.2662 66.7125 22.2409C66.7143 22.2158 66.7228 22.1916 66.7372 22.1708C66.7516 22.1501 66.7713 22.1336 66.7943 22.1231L67.4163 21.7649C67.4787 21.7303 67.5492 21.7131 67.6206 21.715C67.6933 21.7131 67.7653 21.7303 67.8294 21.7649L72.7781 24.6169C72.8014 24.6272 72.8212 24.644 72.835 24.6654C72.8489 24.6867 72.8563 24.7116 72.8563 24.737C72.8563 24.7625 72.8489 24.7873 72.835 24.8087C72.8212 24.83 72.8014 24.8469 72.7781 24.8572L72.2424 25.1655Z" fill="#BA68C8"/>
<path d="M76.7916 21.4394C76.8557 21.4049 76.9277 21.3877 77.0004 21.3895C77.0718 21.3876 77.1423 21.4048 77.2047 21.4394L77.7496 21.7522C77.804 21.784 77.8358 21.8248 77.8313 21.8701C77.83 21.8954 77.8217 21.9199 77.8072 21.9407C77.7928 21.9615 77.7728 21.9779 77.7496 21.988L74.3854 23.9287C74.3229 23.9632 74.2524 23.9804 74.181 23.9785C74.1083 23.9804 74.0363 23.9632 73.9722 23.9287L69.0235 21.0767C69.0002 21.0663 68.9805 21.0495 68.9666 21.0281C68.9527 21.0068 68.9453 20.9819 68.9453 20.9565C68.9453 20.9311 68.9527 20.9062 68.9666 20.8848C68.9805 20.8635 69.0002 20.8467 69.0235 20.8363L72.3241 18.932C72.3897 18.9021 72.4609 18.8867 72.533 18.8867C72.605 18.8867 72.6763 18.9021 72.7418 18.932L73.2821 19.2494C73.3079 19.2566 73.3306 19.272 73.3467 19.2933C73.3629 19.3146 73.3716 19.3405 73.3716 19.3672C73.3716 19.394 73.3629 19.4199 73.3467 19.4412C73.3306 19.4625 73.3079 19.4779 73.2821 19.4851L70.8078 20.9134L72.0245 21.6162L74.3309 20.2877C74.3954 20.2543 74.467 20.2369 74.5397 20.2369C74.6124 20.2369 74.684 20.2543 74.7486 20.2877L75.2888 20.6006C75.3146 20.6078 75.3373 20.6232 75.3534 20.6445C75.3696 20.6657 75.3784 20.6917 75.3784 20.7184C75.3784 20.7452 75.3696 20.7711 75.3534 20.7924C75.3373 20.8137 75.3146 20.8291 75.2888 20.8363L72.9825 22.1649L74.2537 22.8994L76.7916 21.4394Z" fill="#BA68C8"/>
<path d="M75.3073 17.1221C75.6322 16.9255 75.9818 16.7731 76.347 16.6686C76.6711 16.5742 77.0044 16.5149 77.3412 16.4918C77.626 16.4695 77.9125 16.4801 78.1948 16.5235C78.4082 16.5566 78.6161 16.6192 78.8122 16.7095C78.8819 16.7427 78.9136 16.7835 78.9076 16.8319C78.9029 16.8573 78.8922 16.8813 78.8764 16.9018C78.8606 16.9223 78.8402 16.9387 78.8168 16.9498L78.2765 17.2581C78.2016 17.3034 78.1181 17.3327 78.0313 17.3442C77.9482 17.3507 77.8647 17.3507 77.7816 17.3442C77.5544 17.3105 77.3234 17.3105 77.0961 17.3442C76.8009 17.3943 76.5185 17.5021 76.2652 17.6616C76.1441 17.7304 76.0301 17.8109 75.9247 17.9019C75.8453 17.9735 75.7806 18.0597 75.7341 18.1559C75.7184 18.1924 75.7104 18.2317 75.7104 18.2715C75.7104 18.3112 75.7184 18.3506 75.7341 18.3871C75.7668 18.4732 75.832 18.5432 75.9157 18.5821C76.0276 18.647 76.1508 18.6901 76.2789 18.709C76.4309 18.724 76.5844 18.7132 76.7329 18.6773C76.9374 18.6302 77.1391 18.5711 77.3367 18.5005L78.2039 18.1876C78.5391 18.0599 78.8818 17.9524 79.2299 17.8657C79.5121 17.792 79.8012 17.748 80.0925 17.7342C80.3442 17.7236 80.5961 17.7465 80.8417 17.8022C81.0739 17.8581 81.2971 17.9467 81.5045 18.0652C81.7044 18.1699 81.8722 18.3265 81.9903 18.5186C82.0371 18.6003 82.0672 18.6904 82.0789 18.7838C82.0906 18.8772 82.0836 18.972 82.0584 19.0627C81.991 19.2888 81.8658 19.4935 81.6952 19.6567C81.4575 19.8963 81.187 20.1008 80.8916 20.2643C80.6022 20.4293 80.2983 20.5674 79.9836 20.6769C79.6603 20.7846 79.3273 20.8605 78.9893 20.9036C78.671 20.9398 78.3496 20.9398 78.0313 20.9036C77.7471 20.8739 77.4704 20.7941 77.2141 20.6678C77.146 20.6361 77.1142 20.5953 77.1188 20.5499C77.1243 20.5236 77.1358 20.4989 77.1523 20.4777C77.1688 20.4565 77.19 20.4393 77.2141 20.4275L77.7499 20.1192C77.8248 20.0739 77.9082 20.0446 77.995 20.033C78.0777 20.0198 78.162 20.0198 78.2447 20.033C78.3492 20.033 78.4581 20.0648 78.5762 20.0738C78.703 20.0847 78.8306 20.0847 78.9575 20.0738C79.1122 20.0489 79.2642 20.0094 79.4115 19.9559C79.5974 19.8893 79.7767 19.8059 79.9473 19.7066C80.0901 19.6245 80.2266 19.532 80.3559 19.43C80.4601 19.3531 80.5493 19.2578 80.6192 19.1488C80.6699 19.0694 80.6908 18.9747 80.6782 18.8813C80.6645 18.8315 80.6399 18.7853 80.6061 18.746C80.5724 18.7068 80.5303 18.6756 80.483 18.6546C80.3671 18.5883 80.2351 18.5553 80.1016 18.5594C79.9292 18.5597 79.7578 18.5856 79.5931 18.6365C79.3934 18.6954 79.1664 18.768 78.9076 18.8677L77.9996 19.1942C77.7024 19.2985 77.3991 19.3848 77.0915 19.4526C76.8342 19.5142 76.5707 19.5462 76.3061 19.5479C76.0515 19.5597 75.7964 19.5369 75.5479 19.4798C75.3081 19.4124 75.0777 19.3149 74.8624 19.1897C74.6614 19.0865 74.4932 18.9295 74.3766 18.7362C74.2865 18.5749 74.2591 18.386 74.2994 18.2057C74.3651 17.9999 74.4823 17.8142 74.6399 17.6662C74.8325 17.451 75.0577 17.2674 75.3073 17.1221Z" fill="#BA68C8"/>
<path d="M80.2681 14.2652C80.5952 14.0698 80.9461 13.9174 81.3123 13.8117C81.6372 13.7209 81.9702 13.6616 82.3066 13.6349C82.59 13.614 82.8749 13.6262 83.1556 13.6712C83.3703 13.705 83.5795 13.7675 83.7776 13.8571C83.8411 13.8888 83.8729 13.9296 83.8684 13.975C83.8647 14.0013 83.8545 14.0264 83.8386 14.0478C83.8228 14.0692 83.8018 14.0862 83.7776 14.0974L83.2418 14.4057C83.1676 14.4517 83.0836 14.4796 82.9967 14.4873C82.9123 14.4984 82.8268 14.4984 82.7424 14.4873C82.5164 14.4581 82.2875 14.4581 82.0614 14.4873C81.7661 14.5423 81.4832 14.6498 81.226 14.8047C81.105 14.8732 80.9923 14.9554 80.8901 15.0496C80.8083 15.1189 80.7431 15.2057 80.6994 15.3035C80.6703 15.3778 80.6703 15.4604 80.6994 15.5347C80.7341 15.6212 80.8007 15.691 80.8855 15.7297C80.9951 15.7953 81.1173 15.837 81.2442 15.8521C81.396 15.8685 81.5495 15.8593 81.6982 15.8249C81.9043 15.7779 82.1074 15.7189 82.3066 15.6481L83.1692 15.3307C83.5054 15.2056 83.8479 15.0982 84.1952 15.0088C84.4791 14.9365 84.7697 14.8939 85.0624 14.8818C85.3125 14.8714 85.5629 14.8943 85.807 14.9498C86.0395 15.0049 86.2628 15.0935 86.4698 15.2128C86.6718 15.3163 86.8414 15.4731 86.9602 15.6662C87.0501 15.8327 87.0744 16.0268 87.0283 16.2103C86.9564 16.4355 86.8301 16.6395 86.6605 16.8043C86.4244 17.0444 86.1536 17.2477 85.8569 17.4074C85.5697 17.5766 85.2654 17.7149 84.9489 17.82C84.6278 17.9298 84.2961 18.0058 83.9592 18.0467C83.6411 18.0874 83.3192 18.0874 83.0012 18.0467C82.7157 18.019 82.4374 17.9407 82.1794 17.8154C82.1113 17.7837 82.0841 17.7429 82.0886 17.693C82.0933 17.6676 82.104 17.6436 82.1198 17.6231C82.1356 17.6026 82.156 17.5862 82.1794 17.5751L82.7152 17.2668C82.7892 17.2197 82.8731 17.1902 82.9603 17.1807C83.0447 17.1696 83.1302 17.1696 83.2146 17.1807C83.3228 17.1998 83.4319 17.2135 83.5415 17.2215C83.6697 17.2368 83.7992 17.2368 83.9274 17.2215C84.0819 17.1979 84.2339 17.1599 84.3814 17.1081C84.5684 17.0426 84.748 16.9575 84.9171 16.8542C85.0615 16.7741 85.1997 16.6832 85.3303 16.5821C85.4118 16.5023 85.4807 16.4106 85.5346 16.3101C85.5844 16.2319 85.6068 16.1394 85.5981 16.0471C85.585 15.9969 85.5606 15.9505 85.5268 15.9112C85.493 15.8719 85.4506 15.8408 85.4029 15.8204C85.286 15.7521 85.1524 15.7175 85.017 15.7206C84.8446 15.7253 84.6737 15.7527 84.5085 15.8022C84.3133 15.8567 84.0817 15.9337 83.823 16.029C83.5642 16.1242 83.2554 16.2375 82.9149 16.3554C82.6255 16.461 82.3298 16.5488 82.0296 16.6184C81.7722 16.6795 81.5087 16.7114 81.2442 16.7136C81.0035 16.7162 80.7637 16.6857 80.5314 16.6229C80.291 16.5591 80.0604 16.463 79.8458 16.3373C79.6463 16.2338 79.4796 16.0768 79.3646 15.8839C79.272 15.7234 79.2444 15.5336 79.2874 15.3534C79.3426 15.1452 79.4505 14.9547 79.6007 14.8002C79.7926 14.5869 80.018 14.4062 80.2681 14.2652Z" fill="#BA68C8"/>
</svg>
