<svg width="28" height="28" viewBox="0 0 28 28" fill="none" xmlns="http://www.w3.org/2000/svg">
<path fill-rule="evenodd" clip-rule="evenodd" d="M18.3459 25.6666V16.6308H21.3792L21.833 13.1098H18.3447V10.8616C18.3447 9.84192 18.6282 9.14659 20.0912 9.14659H21.9555V5.99659C21.0527 5.9005 20.1452 5.85377 19.2372 5.85659C16.5492 5.85659 14.7094 7.49809 14.7094 10.5116V13.1098H11.6667V16.6308H14.7082V25.6666H3.62137C2.90971 25.6666 2.33337 25.0903 2.33337 24.3786V3.62125C2.33337 2.90959 2.90971 2.33325 3.62137 2.33325H24.3787C25.0904 2.33325 25.6667 2.90959 25.6667 3.62125V24.3786C25.6667 25.0903 25.0904 25.6666 24.3787 25.6666H18.3459Z" fill="#131414"/>
</svg>
