<svg width="37" height="33" viewBox="0 0 37 33" fill="none" xmlns="http://www.w3.org/2000/svg">
<path d="M35.5674 14.6273L33.7876 13.3532C33.6796 13.2622 33.5978 13.144 33.5507 13.0109C33.5036 12.8778 33.4929 12.7346 33.5198 12.596C33.6002 12.2058 33.6518 11.8102 33.6741 11.4125C33.6741 11.1541 34.001 10.8321 34.3915 10.6871L35.9169 10.1157C36.3119 9.97065 36.5753 9.66232 36.5117 9.43108L35.8579 7.06423C35.7944 6.83298 35.4039 6.68789 35.0407 6.74683L33.32 6.99621C33.1541 7.03117 32.9821 7.02507 32.8191 6.97844C32.6561 6.93181 32.507 6.84607 32.3847 6.72869C32.1458 6.36687 31.877 6.02561 31.5811 5.7085C31.493 5.59275 31.438 5.45526 31.422 5.31071C31.406 5.16616 31.4296 5.01998 31.4903 4.88781L32.303 3.07413C32.3656 2.94618 32.3789 2.7997 32.3404 2.66259C32.3019 2.52548 32.2143 2.40729 32.0942 2.33052L29.9967 1.15162C29.8538 1.09355 29.6953 1.08667 29.548 1.13213C29.4007 1.17759 29.2736 1.2726 29.1885 1.401L28.0717 2.87462C27.9632 3.00692 27.8233 3.10988 27.6646 3.17406C27.5059 3.23823 27.3337 3.26155 27.1636 3.24189C26.8356 3.17435 26.5035 3.12891 26.1694 3.10587C26.011 3.10457 25.8552 3.06515 25.7153 2.99096C25.5754 2.91676 25.4555 2.80998 25.3658 2.67965L24.5077 0.630189C24.4214 0.408013 24.0264 0.308263 23.6314 0.412549L21.7609 0.888635C21.3659 0.988388 21.0754 1.26951 21.1162 1.50983L21.4658 3.67264C21.5021 3.91296 21.2343 4.26662 20.8983 4.49333C20.6895 4.63389 20.4897 4.78352 20.2945 4.94675C20.1632 5.06886 20.0036 5.15643 19.8301 5.20155C19.6565 5.24667 19.4744 5.24792 19.3002 5.2052L17.3616 4.37091C17.2186 4.32039 17.0625 4.32179 16.9205 4.37487C16.7785 4.42794 16.6598 4.52928 16.5852 4.6611L15.4774 6.52919C15.3962 6.64758 15.3607 6.79132 15.3774 6.93385C15.3941 7.07638 15.4619 7.20806 15.5682 7.30454L17.3479 8.57412C17.4564 8.66583 17.5384 8.78476 17.5854 8.91866C17.6325 9.05256 17.643 9.19657 17.6158 9.33586C17.5347 9.72577 17.4846 10.1215 17.466 10.5193C17.466 10.7777 17.1391 11.0997 16.7441 11.2448L15.2096 11.8025C14.8191 11.9476 14.5512 12.2559 14.6148 12.4871L15.2777 14.854C15.3412 15.0852 15.7317 15.2303 16.0949 15.1714L17.8201 14.922C17.9819 14.8913 18.1486 14.8995 18.3065 14.946C18.4645 14.9925 18.609 15.076 18.7281 15.1895C18.9671 15.5513 19.2359 15.8926 19.5317 16.2097C19.6195 16.3248 19.6743 16.4615 19.6903 16.6052C19.7063 16.749 19.6829 16.8944 19.6225 17.0259L18.8099 18.8396C18.7475 18.9668 18.7344 19.1126 18.7729 19.2489C18.8114 19.3853 18.8989 19.5027 19.0187 19.5786L21.1162 20.7621C21.259 20.8201 21.4176 20.827 21.5649 20.7815C21.7122 20.7361 21.8392 20.6411 21.9244 20.5127L23.0639 19.0572C23.174 18.9196 23.3183 18.8133 23.4825 18.7488C23.6466 18.6844 23.8247 18.6641 23.9992 18.6899C24.326 18.7556 24.6565 18.801 24.9889 18.826C25.1478 18.8256 25.3043 18.8638 25.4451 18.9373C25.5858 19.0107 25.7066 19.1172 25.7971 19.2476L26.6279 21.3107C26.7142 21.5329 27.1092 21.6326 27.5041 21.5283L29.3747 21.0749C29.7696 20.9706 30.0602 20.694 30.0194 20.4537L29.6698 18.2909C29.6334 18.0506 29.9013 17.6969 30.2373 17.4657C30.4465 17.3253 30.648 17.174 30.8411 17.0123C30.9726 16.8905 31.1322 16.8032 31.3057 16.7581C31.4792 16.713 31.6612 16.7115 31.8354 16.7538L33.774 17.5881C33.9175 17.6373 34.0737 17.6348 34.2156 17.581C34.3574 17.5271 34.4758 17.4254 34.5504 17.2934L35.6582 15.4298C35.7471 15.3093 35.7872 15.1596 35.7704 15.0108C35.7535 14.8619 35.681 14.725 35.5674 14.6273ZM29.6652 13.267C29.0122 14.3306 27.9703 15.0986 26.7602 15.4083C25.5501 15.7181 24.2667 15.5453 23.182 14.9265C22.6452 14.6355 22.1728 14.2394 21.7929 13.7618C21.4131 13.2841 21.1336 12.7349 20.9712 12.1469C20.8089 11.5589 20.767 10.9442 20.8481 10.3397C20.9292 9.73513 21.1315 9.15313 21.4431 8.62852C22.0953 7.56405 23.1372 6.79532 24.3477 6.48548C25.5582 6.17564 26.8419 6.34909 27.9264 6.969C28.4671 7.25834 28.9435 7.65412 29.3269 8.13244C29.7102 8.61076 29.9925 9.16171 30.1567 9.75201C30.3209 10.3423 30.3636 10.9597 30.2823 11.567C30.2009 12.1742 29.9972 12.7587 29.6834 13.2852L29.6652 13.267Z" fill="#F0F0F0"/>
<path d="M15.8141 19.7275L14.3613 20.317C14.2635 20.3464 14.1596 20.3497 14.06 20.3267C13.9605 20.3036 13.8687 20.2549 13.7938 20.1855C13.5953 19.9876 13.3829 19.8043 13.1582 19.6368C13.0731 19.5416 13.0134 19.4263 12.9849 19.3019C12.9563 19.1774 12.9597 19.0477 12.9947 18.9249L13.2354 17.7823C13.2989 17.4876 13.2127 17.211 13.0492 17.1611L11.3422 16.6533C11.1787 16.6034 10.9517 16.7712 10.8337 17.0251L10.3161 18.1541C10.2734 18.2661 10.2039 18.366 10.1137 18.4451C10.0235 18.5241 9.91528 18.5799 9.79852 18.6076C9.49368 18.6134 9.1899 18.6452 8.8905 18.7028C8.78617 18.7119 8.68131 18.6927 8.587 18.6472C8.4927 18.6017 8.41246 18.5316 8.35477 18.4443L7.57387 17.2564C7.51941 17.1703 7.43564 17.1069 7.33801 17.0777C7.24039 17.0486 7.13549 17.0556 7.04268 17.0977L5.51721 17.9184C5.4275 17.9828 5.36275 18.0761 5.33381 18.1826C5.30487 18.2892 5.31352 18.4024 5.3583 18.5033L5.81231 19.7411C5.85234 19.8608 5.86084 19.9887 5.83699 20.1126C5.81313 20.2365 5.75773 20.3521 5.67611 20.4484C5.51518 20.6232 5.36363 20.8063 5.2221 20.9971C5.16025 21.0926 5.07651 21.172 4.97783 21.2288C4.87914 21.2855 4.76834 21.318 4.65459 21.3235L3.08372 21.0334C2.91573 21.0016 2.70689 21.2057 2.62971 21.4868L2.20294 22.8017C2.11213 23.0783 2.17116 23.3594 2.33006 23.4319L3.75111 24.0486C3.91001 24.1166 4.02352 24.4159 4.0326 24.7061C4.03718 24.8865 4.05082 25.0666 4.07346 25.2456C4.09759 25.3717 4.08943 25.5018 4.04974 25.6239C4.01006 25.746 3.94013 25.856 3.84645 25.9439L2.59793 26.8009C2.5111 26.8668 2.45094 26.9617 2.42843 27.0683C2.40592 27.1748 2.42257 27.2859 2.47534 27.3812L3.16998 28.7823C3.21443 28.8736 3.28825 28.9473 3.37961 28.9917C3.47098 29.036 3.57461 29.0485 3.67393 29.0272L5.1313 28.4377C5.22793 28.4066 5.33113 28.402 5.43015 28.4244C5.52917 28.4467 5.62038 28.4951 5.69427 28.5647C5.89836 28.7634 6.11688 28.9468 6.34805 29.1133C6.43509 29.2075 6.49629 29.3225 6.52573 29.4472C6.55516 29.5719 6.55182 29.7021 6.51603 29.8252L6.2754 30.9678C6.21184 31.2625 6.2754 31.5391 6.46155 31.589L8.16408 32.1013C8.32753 32.1512 8.55453 31.9835 8.66804 31.725L9.17653 30.5869C9.22064 30.475 9.29114 30.3753 9.38203 30.2964C9.47291 30.2175 9.58152 30.1616 9.69864 30.1335C10.0035 30.1277 10.3073 30.0958 10.6067 30.0383C10.7109 30.0296 10.8156 30.0491 10.9098 30.0945C11.004 30.14 11.0843 30.2098 11.1424 30.2967L11.9233 31.4847C11.9777 31.5707 12.0615 31.6341 12.1591 31.6633C12.2568 31.6925 12.3617 31.6854 12.4545 31.6434L13.9799 30.8272C14.0692 30.7614 14.1332 30.667 14.1613 30.5597C14.1894 30.4525 14.1799 30.3389 14.1343 30.2378L13.6803 29C13.6395 28.8801 13.631 28.7516 13.6558 28.6274C13.6805 28.5033 13.7375 28.3878 13.821 28.2926C13.9833 28.119 14.1349 27.9358 14.2751 27.744C14.3374 27.649 14.4213 27.57 14.5199 27.5132C14.6185 27.4565 14.729 27.4237 14.8426 27.4175L16.4134 27.7077C16.5814 27.7394 16.7948 27.5399 16.8674 27.2543L17.2942 25.9394C17.385 25.6628 17.326 25.3817 17.1671 25.3091L15.7188 24.6925C15.5554 24.6244 15.4464 24.3252 15.4373 24.035C15.4327 23.8546 15.4191 23.6745 15.3965 23.4954C15.3723 23.3694 15.3805 23.2392 15.4202 23.1172C15.4599 22.9951 15.5298 22.885 15.6235 22.7972L16.872 21.9447C16.9592 21.878 17.0192 21.782 17.0409 21.6744C17.0626 21.5668 17.0445 21.4551 16.99 21.3598L16.3363 19.9678C16.2949 19.87 16.2184 19.7911 16.1218 19.7467C16.0252 19.7022 15.9155 19.6954 15.8141 19.7275ZM12.745 22.7699C13.1395 23.5746 13.2052 24.5009 12.9281 25.353C12.6511 26.2051 12.053 26.9162 11.2604 27.3359C10.877 27.5479 10.4549 27.6809 10.019 27.7272C9.58322 27.7734 9.14254 27.7319 8.72306 27.6051C8.30359 27.4782 7.91383 27.2687 7.57686 26.9888C7.23988 26.709 6.96253 26.3644 6.76119 25.9756C6.3667 25.171 6.30104 24.2447 6.57811 23.3926C6.85517 22.5404 7.45323 21.8294 8.24581 21.4097C8.62925 21.1977 9.05136 21.0646 9.48719 21.0184C9.92301 20.9722 10.3637 21.0137 10.7832 21.1405C11.2027 21.2673 11.5924 21.4769 11.9294 21.7568C12.2664 22.0366 12.5437 22.3812 12.745 22.7699Z" fill="#F0F0F0"/>
<path d="M12.2501 4.2555L10.9743 4.7724C10.8892 4.79942 10.7984 4.80315 10.7114 4.78321C10.6243 4.76328 10.5442 4.7204 10.4794 4.65905C10.3 4.48415 10.1072 4.32345 9.90285 4.17841C9.82746 4.09593 9.77451 3.99551 9.74907 3.88675C9.72364 3.77799 9.72656 3.66454 9.75756 3.55723L9.98003 2.55517C10.0345 2.29672 9.98003 2.05187 9.81658 2.01106L8.33651 1.55764C8.19123 1.51684 7.99147 1.66194 7.8825 1.88865L7.42849 2.88617C7.39119 2.98512 7.33038 3.07354 7.2513 3.14383C7.17221 3.21413 7.07722 3.26419 6.97448 3.28971C6.7033 3.29442 6.43298 3.32172 6.16635 3.37133C6.07742 3.37657 5.98867 3.35839 5.90899 3.3186C5.82931 3.27881 5.7615 3.21881 5.71234 3.14462L4.98592 2.11082C4.93914 2.03752 4.86784 1.98318 4.78471 1.95744C4.70158 1.9317 4.612 1.93624 4.53191 1.97026L3.19712 2.68666C3.1177 2.74242 3.0602 2.82407 3.03451 2.91757C3.00883 3.01108 3.01656 3.1106 3.05638 3.19903L3.46499 4.28724C3.50099 4.39136 3.50903 4.50309 3.48832 4.61129C3.46761 4.71948 3.41886 4.82037 3.34695 4.90389C3.20238 5.05555 3.06742 5.21607 2.94288 5.38451C2.88883 5.46878 2.8152 5.53876 2.72824 5.5885C2.64129 5.63823 2.54359 5.66625 2.44347 5.67017L1.08144 5.41626C0.936155 5.38905 0.75001 5.56588 0.672828 5.81073L0.295999 6.96242C0.218818 7.20727 0.268759 7.45211 0.409502 7.51106L1.67619 8.05516C1.81693 8.1141 1.91681 8.37709 1.92136 8.63101C1.92136 8.7897 1.92136 8.94387 1.95768 9.08443C1.97898 9.19462 1.97228 9.30839 1.93817 9.41533C1.90407 9.52227 1.84365 9.61896 1.76245 9.69655L0.659209 10.4447C0.585934 10.5054 0.535632 10.5893 0.516641 10.6825C0.49765 10.7757 0.511109 10.8726 0.554787 10.9571L1.17678 12.1722C1.21307 12.2572 1.27939 12.3259 1.36312 12.3652C1.44684 12.4045 1.54211 12.4117 1.63079 12.3853L2.90656 11.8684C2.99155 11.8404 3.08259 11.8362 3.16983 11.8562C3.25706 11.8761 3.33715 11.9196 3.40143 11.9818C3.58174 12.1474 3.7745 12.299 3.97802 12.4352C4.05342 12.5186 4.10632 12.6198 4.13174 12.7293C4.15716 12.8388 4.15425 12.9529 4.1233 13.0609L3.90992 14.063C3.85998 14.3214 3.90992 14.5617 4.0779 14.6071L5.55797 15.0605C5.70326 15.1058 5.90302 14.9608 6.01198 14.734L6.46599 13.7365C6.5033 13.6376 6.5641 13.5491 6.64319 13.4789C6.72227 13.4086 6.81726 13.3585 6.92 13.333C7.1927 13.3285 7.46455 13.3012 7.73268 13.2514C7.82174 13.2452 7.91083 13.2629 7.99067 13.3028C8.07052 13.3427 8.13821 13.4032 8.18669 13.4781L8.87224 14.5164C8.91907 14.5896 8.99065 14.6436 9.07397 14.6686C9.15729 14.6935 9.24681 14.6878 9.32625 14.6524L10.661 13.936C10.7398 13.8797 10.7967 13.798 10.8224 13.7048C10.848 13.6115 10.8407 13.5122 10.8018 13.4237L10.3932 12.34C10.3567 12.2359 10.3484 12.1241 10.3692 12.0158C10.3899 11.9075 10.4389 11.8066 10.5112 11.7233C10.6558 11.5701 10.7908 11.4081 10.9153 11.2382C10.9701 11.155 11.044 11.0861 11.1309 11.0372C11.2178 10.9883 11.3151 10.9608 11.4147 10.9571L12.7767 11.2064C12.922 11.2336 13.1082 11.0568 13.1853 10.8165L13.5622 9.6648C13.6393 9.41996 13.5894 9.17511 13.4487 9.11163L12.182 8.57206C12.0973 8.50196 12.0306 8.4128 11.9871 8.3119C11.9437 8.21101 11.9249 8.10125 11.9323 7.99168C11.9323 7.83752 11.9323 7.67882 11.9005 7.53826C11.8796 7.42737 11.8865 7.31305 11.9206 7.20547C11.9547 7.09788 12.0148 7.00037 12.0957 6.92161L13.1899 6.178C13.2646 6.11839 13.3163 6.03474 13.3362 5.9413C13.3561 5.84786 13.3429 5.75044 13.2988 5.66564L12.7041 4.46861C12.6695 4.38229 12.6034 4.31229 12.5191 4.27274C12.4349 4.23318 12.3387 4.22703 12.2501 4.2555ZM9.5578 6.92161C9.9041 7.62604 9.96222 8.43744 9.71984 9.18392C9.47747 9.93041 8.95365 10.5533 8.25933 10.9208C7.92389 11.1075 7.5543 11.2249 7.17252 11.2661C6.79073 11.3073 6.40455 11.2714 6.03692 11.1606C5.6693 11.0498 5.32773 10.8663 5.03253 10.621C4.73733 10.3757 4.49452 10.0737 4.31853 9.73281C3.97244 9.02905 3.91446 8.21835 4.15686 7.4726C4.39927 6.72686 4.923 6.10474 5.61699 5.73818C5.95191 5.5534 6.32044 5.43739 6.70092 5.39697C7.08139 5.35654 7.46611 5.39252 7.83246 5.50279C8.1988 5.61306 8.53936 5.79538 8.83411 6.03905C9.12885 6.28271 9.37182 6.58278 9.54872 6.92161H9.5578Z" fill="#F0F0F0"/>
</svg>
