<svg width="44" height="38" viewBox="0 0 44 38" fill="none" xmlns="http://www.w3.org/2000/svg">
<path d="M2.17486 21.598L3.5959 23.5341C3.69364 23.6757 3.8389 23.7778 4.00542 23.8219C4.17194 23.866 4.34875 23.8491 4.50392 23.7744L6.55151 22.6499C6.73813 22.5839 6.93823 22.5651 7.13391 22.5951C7.3296 22.6252 7.51478 22.7032 7.67291 22.8222C7.90446 22.9764 8.12692 23.1215 8.38571 23.2529C8.7807 23.4661 9.11667 23.8288 9.09851 24.1008L8.94868 26.5221C8.94868 26.7896 9.2801 27.0662 9.72503 27.1342L11.8362 27.4607C12.2902 27.5287 12.7079 27.3791 12.7805 27.1252L13.4752 24.7628C13.5617 24.6101 13.6834 24.4803 13.8303 24.3841C13.9772 24.2879 14.1449 24.2281 14.3196 24.2097C14.6832 24.1471 15.0425 24.0623 15.3956 23.9557C15.5852 23.9088 15.7838 23.9121 15.9718 23.9654C16.1597 24.0187 16.3305 24.1201 16.4671 24.2595L17.8518 25.7649C17.9592 25.8946 18.1075 25.984 18.2725 26.0186C18.4374 26.0532 18.6092 26.0309 18.7598 25.9553L20.9482 24.4228C21.072 24.3258 21.1557 24.1866 21.1834 24.0319C21.211 23.8772 21.1806 23.7177 21.098 23.5839L20.0038 21.6841C19.9241 21.5462 19.8822 21.3899 19.8822 21.2307C19.8822 21.0715 19.9241 20.9151 20.0038 20.7773C20.2951 20.397 20.5547 19.9937 20.7802 19.5712C20.9014 19.4285 21.0559 19.3178 21.2301 19.249C21.4044 19.1802 21.5929 19.1554 21.779 19.1767L23.704 19.2674C24.158 19.2674 24.5258 19.0905 24.5757 18.814L25.0297 16.1342C25.0751 15.8713 24.7482 15.5629 24.3033 15.4405L22.5599 14.9871C22.3646 14.9506 22.182 14.8648 22.0294 14.7378C21.8768 14.6108 21.7593 14.4469 21.6882 14.2616C21.6233 13.8269 21.5246 13.3979 21.3931 12.9784C21.3501 12.8273 21.3472 12.6676 21.3846 12.515C21.422 12.3624 21.4984 12.2221 21.6065 12.1079L23.4225 10.5209C23.5267 10.4006 23.584 10.2469 23.584 10.0879C23.584 9.92886 23.5267 9.77515 23.4225 9.65486L22.0605 7.70969C21.964 7.56652 21.8187 7.46323 21.6517 7.41902C21.4847 7.37482 21.3073 7.39271 21.1525 7.46937L19.1049 8.59839C18.9179 8.66378 18.7176 8.68185 18.5219 8.65099C18.3262 8.62013 18.1412 8.5413 17.9835 8.42156C17.7519 8.2674 17.5295 8.12684 17.2707 7.99534C16.8757 7.7777 16.5397 7.41497 16.5579 7.14745L16.7077 4.72619C16.7077 4.45413 16.3763 4.18208 15.9313 4.11407L13.8202 3.7876C13.3662 3.71506 12.9485 3.86468 12.8759 4.1186L12.1812 6.48092C12.0956 6.63434 11.9741 6.76479 11.827 6.86112C11.68 6.95744 11.5118 7.01679 11.3368 7.0341C10.9722 7.09883 10.6115 7.18359 10.2562 7.28801C10.0676 7.33424 9.8703 7.33098 9.68335 7.27854C9.4964 7.22611 9.32621 7.12628 9.1893 6.98875L7.80458 5.4834C7.69765 5.35302 7.5493 5.26305 7.38415 5.22841C7.219 5.19378 7.04697 5.21655 6.89656 5.29296L4.70823 6.82099C4.58438 6.91796 4.50063 7.05711 4.47299 7.21184C4.44536 7.36658 4.47577 7.52605 4.55841 7.65981L5.65256 9.56418C5.73226 9.70204 5.77422 9.85842 5.77422 10.0176C5.77422 10.1768 5.73226 10.3332 5.65256 10.471C5.36324 10.8533 5.10515 11.2581 4.88075 11.6817C4.75811 11.8238 4.60267 11.934 4.42787 12.0027C4.25306 12.0714 4.06414 12.0966 3.8774 12.0761L1.95693 11.9854C1.50292 11.9854 1.13063 12.1623 1.08522 12.4389L0.631215 15.1231C0.585814 15.3861 0.908164 15.6944 1.35763 15.8123L3.10103 16.2657C3.29596 16.3013 3.47848 16.3863 3.6311 16.5126C3.78373 16.6388 3.90136 16.802 3.97273 16.9867C4.03762 17.4229 4.13628 17.8534 4.26784 18.2744C4.31 18.4249 4.3125 18.5837 4.27511 18.7354C4.23773 18.8871 4.16172 19.0267 4.05445 19.1404L2.23841 20.7319C2.1251 20.8444 2.05627 20.994 2.04459 21.1531C2.03291 21.3122 2.07918 21.4702 2.17486 21.598ZM9.80222 11.4912C10.9313 10.691 12.3282 10.3617 13.6963 10.5733C15.0645 10.785 16.2962 11.5209 17.1299 12.6248C17.5267 13.1718 17.8094 13.793 17.9611 14.4513C18.1129 15.1096 18.1306 15.7916 18.0133 16.4569C17.896 17.1221 17.646 17.7571 17.2782 18.324C16.9105 18.8909 16.4324 19.3783 15.8723 19.7571C14.7425 20.5551 13.3463 20.883 11.9788 20.6714C10.6113 20.4599 9.37974 19.7255 8.54462 18.6235C8.14785 18.0764 7.8652 17.4553 7.71345 16.797C7.56171 16.1387 7.54395 15.4567 7.66126 14.7914C7.77856 14.1262 8.02853 13.4912 8.39631 12.9243C8.76409 12.3574 9.24219 11.87 9.80222 11.4912Z" fill="#F0F0F0"/>
<path d="M23.3597 26.7531L23.1463 28.4625C23.1284 28.5818 23.1531 28.7036 23.2162 28.8064C23.2794 28.9093 23.3768 28.9866 23.4914 29.0247L25.1122 29.4464C25.2426 29.5036 25.3566 29.5924 25.4439 29.7049C25.5311 29.8174 25.5888 29.9498 25.6116 30.0903C25.657 30.2852 25.7115 30.4757 25.775 30.6661C25.8315 30.7918 25.8565 30.9293 25.8478 31.0667C25.8391 31.2042 25.797 31.3375 25.7251 31.4551L24.4539 32.643C24.3131 32.7745 24.3585 33.0964 24.5583 33.3458L25.4981 34.5564C25.6979 34.8104 25.9884 34.9419 26.1564 34.8466L27.6819 33.9398C27.8019 33.9024 27.9291 33.894 28.053 33.9153C28.177 33.9366 28.294 33.9869 28.3947 34.0622C28.6157 34.2102 28.8462 34.3435 29.0848 34.4612C29.2053 34.5312 29.3057 34.6309 29.3765 34.7508C29.4472 34.8707 29.4859 35.0067 29.4888 35.1459V36.615C29.4792 36.737 29.5125 36.8585 29.5829 36.9587C29.6533 37.0588 29.7566 37.1313 29.8747 37.1636L31.768 37.4402C31.8809 37.4526 31.9945 37.4222 32.0861 37.355C32.1777 37.2879 32.2408 37.1888 32.2628 37.0775L32.6306 35.5494C32.6592 35.4404 32.7163 35.341 32.796 35.2613C32.8758 35.1816 32.9754 35.1245 33.0846 35.096C33.4239 35.0408 33.758 34.9574 34.0834 34.8466C34.212 34.8364 34.3412 34.856 34.461 34.904C34.5807 34.952 34.6877 35.027 34.7735 35.1232L35.7315 36.1208C35.9494 36.3429 36.249 36.4336 36.3989 36.3157L37.9697 35.1504C38.1241 35.0371 38.1059 34.697 37.9334 34.434L37.2524 33.3322C37.169 33.2179 37.1161 33.0842 37.0986 32.9438C37.0811 32.8034 37.0997 32.6609 37.1525 32.5297C37.3355 32.2715 37.4965 31.9985 37.6338 31.7135C37.6846 31.6126 37.7614 31.527 37.8564 31.4656C37.9514 31.4042 38.061 31.3693 38.174 31.3644L39.9129 31.4324C40.0333 31.4324 40.1488 31.3846 40.2339 31.2996C40.3191 31.2145 40.3669 31.0992 40.3669 30.979L40.5803 29.265C40.5973 29.1459 40.5722 29.0245 40.5092 28.9218C40.4462 28.8192 40.3493 28.7417 40.2352 28.7028L38.6099 28.2856C38.4797 28.2281 38.3659 28.1392 38.2787 28.0268C38.1915 27.9144 38.1337 27.7821 38.1105 27.6418C38.0687 27.4469 38.0156 27.2547 37.9516 27.0659C37.8959 26.9395 37.871 26.8017 37.8789 26.6638C37.8868 26.5258 37.9272 26.3918 37.997 26.2725L39.2727 25.089C39.4135 24.953 39.3681 24.6356 39.1683 24.3817L38.2285 23.1756C38.0288 22.9171 37.7337 22.7902 37.5702 22.8854L36.0447 23.7922C35.9245 23.8301 35.7968 23.8384 35.6727 23.8163C35.5486 23.7942 35.4317 23.7424 35.3319 23.6653C35.1093 23.52 34.8789 23.3868 34.6418 23.2663C34.5206 23.198 34.4192 23.0994 34.3475 22.9802C34.2759 22.8609 34.2365 22.7252 34.2332 22.5862V21.1171C34.2431 20.9957 34.2105 20.8746 34.1409 20.7745C34.0714 20.6745 33.9692 20.6016 33.8519 20.5684L31.9541 20.2873C31.8412 20.2763 31.7283 20.3079 31.6375 20.3758C31.5468 20.4438 31.4848 20.5433 31.4638 20.6546L31.096 22.1826C31.0658 22.2908 31.0081 22.3894 30.9286 22.4688C30.8491 22.5482 30.7504 22.6058 30.642 22.636C30.3014 22.6897 29.9657 22.7716 29.6387 22.8809C29.5054 22.8969 29.3702 22.8791 29.2456 22.8292C29.1211 22.7793 29.0111 22.6988 28.9259 22.5952L27.9634 21.6249C27.75 21.4027 27.4503 21.312 27.296 21.4254L25.7251 22.5907C25.5753 22.704 25.5889 23.0441 25.766 23.3116L26.447 24.4089C26.53 24.5243 26.5824 24.659 26.5991 24.8001C26.6157 24.9413 26.5962 25.0844 26.5423 25.216C26.3627 25.4763 26.2018 25.749 26.0611 26.0321C26.0104 26.1328 25.9335 26.218 25.8384 26.2787C25.7433 26.3393 25.6336 26.3732 25.5208 26.3767L23.7865 26.3087C23.6724 26.3156 23.5651 26.3651 23.486 26.4475C23.4069 26.5298 23.3618 26.639 23.3597 26.7531ZM32.3173 25.2296C33.2999 25.3686 34.1897 25.8841 34.7982 26.667C35.4067 27.4499 35.686 28.4386 35.5771 29.4237C35.5129 29.9035 35.3531 30.3657 35.1073 30.7829C34.8614 31.2001 34.5345 31.5639 34.1456 31.8529C33.7568 32.142 33.314 32.3503 32.8433 32.4658C32.3725 32.5812 31.8834 32.6014 31.4048 32.5251C30.4219 32.3862 29.5317 31.8708 28.9224 31.088C28.3132 30.3053 28.0328 29.3165 28.1404 28.331C28.2046 27.8507 28.3645 27.3882 28.6106 26.9706C28.8568 26.5531 29.1842 26.189 29.5735 25.9C29.9629 25.6109 30.4062 25.4026 30.8775 25.2875C31.3487 25.1723 31.8383 25.1527 32.3173 25.2296Z" fill="#F0F0F0"/>
<path d="M26.1146 5.1587L25.4336 6.8953C25.3832 7.0156 25.3769 7.14982 25.416 7.27427C25.455 7.39871 25.5368 7.50537 25.6469 7.57543L27.236 8.45053C27.3573 8.54628 27.4531 8.67045 27.5149 8.81202C27.5767 8.9536 27.6025 9.10822 27.5901 9.26216C27.5765 9.47656 27.5765 9.69161 27.5901 9.90601C27.615 10.0539 27.6042 10.2055 27.5583 10.3483C27.5125 10.4911 27.4331 10.6209 27.3268 10.7267L25.6742 11.6335C25.488 11.7378 25.4517 12.087 25.5925 12.3998L26.2553 13.9188C26.3961 14.2407 26.673 14.4584 26.8682 14.3994L28.7115 13.8734C28.8474 13.8665 28.983 13.892 29.107 13.948C29.231 14.004 29.3398 14.0888 29.4243 14.1954C29.6165 14.4099 29.8227 14.6114 30.0418 14.7984C30.1507 14.903 30.2306 15.034 30.2736 15.1787C30.3166 15.3233 30.3212 15.4767 30.2869 15.6236L29.8738 17.1607C29.8315 17.286 29.8338 17.422 29.8801 17.5459C29.9264 17.6697 30.0139 17.7739 30.128 17.8409L32.0439 18.6389C32.159 18.6782 32.2845 18.6746 32.3971 18.6288C32.5098 18.5829 32.602 18.4979 32.6569 18.3895L33.4559 16.8796C33.5131 16.7685 33.5995 16.6752 33.7059 16.6096C33.8124 16.5441 33.9347 16.5089 34.0597 16.5078C34.4314 16.5395 34.805 16.5395 35.1766 16.5078C35.3213 16.5267 35.4589 16.5814 35.5771 16.667C35.6952 16.7525 35.7901 16.8661 35.8531 16.9975L36.5931 18.2943C36.7566 18.589 37.0471 18.7477 37.2424 18.6842L39.1991 17.8817C39.3898 17.8001 39.4579 17.46 39.349 17.1154L38.9313 15.7823C38.874 15.6389 38.8544 15.4832 38.8743 15.3301C38.8941 15.1769 38.9528 15.0314 39.0448 14.9072C39.3044 14.685 39.5458 14.4424 39.7667 14.1818C39.8473 14.0891 39.9513 14.0197 40.0678 13.9806C40.1844 13.9416 40.3092 13.9343 40.4295 13.9596L42.2455 14.4946C42.3677 14.5158 42.4933 14.4921 42.5993 14.428C42.7053 14.3638 42.7845 14.2634 42.8221 14.1455L43.5032 12.4089C43.5536 12.2886 43.5598 12.1544 43.5208 12.0299C43.4817 11.9055 43.3999 11.7988 43.2898 11.7288L41.7007 10.8537C41.5779 10.7603 41.4809 10.6372 41.4189 10.496C41.3569 10.3547 41.3321 10.2001 41.3466 10.0466C41.3603 9.83066 41.3603 9.61409 41.3466 9.39818C41.3239 9.04905 41.4238 8.68178 41.6099 8.58203L43.2625 7.67519C43.4487 7.5709 43.4804 7.22177 43.3397 6.90891L42.6814 5.38994C42.5407 5.06802 42.2637 4.85037 42.0685 4.90932L40.2207 5.43982C40.0848 5.44679 39.9492 5.42122 39.8252 5.36522C39.7012 5.30922 39.5924 5.22442 39.5079 5.1179C39.3146 4.90448 39.1084 4.70308 38.8904 4.51485C38.7814 4.41031 38.7015 4.27928 38.6586 4.13461C38.6156 3.98994 38.611 3.83659 38.6452 3.68962L39.0584 2.15252C39.1006 2.02723 39.0984 1.89125 39.0521 1.7674C39.0058 1.64356 38.9183 1.53939 38.8042 1.47239L36.8792 0.665304C36.7636 0.625331 36.6373 0.629101 36.5244 0.675903C36.4114 0.722705 36.3195 0.809283 36.2662 0.919218L35.4672 2.42458C35.4101 2.53565 35.3236 2.62901 35.2172 2.69454C35.1107 2.76008 34.9884 2.79529 34.8634 2.79638C34.4917 2.76465 34.1181 2.76465 33.7465 2.79638C33.6023 2.77434 33.4655 2.71791 33.3477 2.63188C33.23 2.54585 33.1347 2.43275 33.07 2.30215L32.33 1.00537C32.162 0.710646 31.876 0.551948 31.6807 0.615427L29.724 1.42252C29.5333 1.4996 29.4652 1.83967 29.5696 2.18427L29.9918 3.52185C30.0483 3.66469 30.0674 3.8195 30.0476 3.97177C30.0277 4.12403 29.9695 4.26878 29.8783 4.39242C29.6187 4.61465 29.3773 4.85725 29.1564 5.1179C29.0758 5.21053 28.9718 5.27997 28.8553 5.31903C28.7387 5.35809 28.6139 5.36535 28.4936 5.34007L26.6776 4.80503C26.557 4.7876 26.4341 4.81362 26.3309 4.87842C26.2278 4.94322 26.1511 5.04258 26.1146 5.1587ZM35.9212 5.94765C36.9152 6.35628 37.7111 7.13496 38.1407 8.11905C38.5703 9.10314 38.5998 10.2155 38.223 11.2209C38.0284 11.7086 37.7375 12.1522 37.3678 12.5254C36.9981 12.8987 36.5571 13.1939 36.0709 13.3935C35.5847 13.5931 35.0633 13.6931 34.5376 13.6876C34.012 13.682 33.4928 13.571 33.011 13.3611C32.0178 12.9516 31.2229 12.1726 30.7942 11.1886C30.3655 10.2046 30.3367 9.09266 30.7137 8.08779C30.9079 7.60028 31.1982 7.15676 31.5675 6.78358C31.9368 6.41041 32.3775 6.11521 32.8633 5.91555C33.3491 5.71589 33.8702 5.61584 34.3955 5.62135C34.9208 5.62687 35.4397 5.73783 35.9212 5.94765Z" fill="#F0F0F0"/>
</svg>
