<svg width="120" height="90" viewBox="0 0 120 90" fill="none" xmlns="http://www.w3.org/2000/svg">
<path d="M103.066 62.7804C104.003 62.4818 104.8 61.9866 105.36 61.3561C105.919 60.7257 106.216 59.9878 106.213 59.2339C106.25 57.1056 104.091 55.358 101.387 55.3323C98.6835 55.3066 96.4662 57.0115 96.4315 59.1398C96.4028 59.9008 96.6801 60.651 97.2283 61.2956C97.7766 61.9402 98.5711 62.4502 99.5114 62.7612C91.9852 63.5505 92.2457 69.6061 92.2457 69.6061L110.045 69.7793C110.045 69.7793 110.511 63.6596 103.066 62.7804Z" fill="#E0E0E0"/>
<path d="M3.29712 50.9711L4.35658 50.8064L5.98341 48.0642L5.53762 46.5049C5.53762 46.5049 7.15287 46.1754 7.54655 48.2503C7.94023 50.3252 7.99812 49.7711 7.99812 49.7711C7.99812 49.7711 11.4718 49.2385 11.8278 49.4161C12.0854 49.5444 12.9104 52.0792 13.3446 53.4567C13.4633 53.7872 13.4289 54.1376 13.2469 54.4519C13.0648 54.7663 12.7457 55.0266 12.3402 55.1914C12.2254 55.2345 12.1039 55.2668 11.9783 55.2877C11.1099 55.4225 6.5334 55.5957 6.5334 55.5957L4.70395 55.8823L3.29712 50.9711Z" fill="#E0E0E0"/>
<path d="M0.144775 51.0178L2.33028 56.267L4.14236 55.9825L2.64001 50.7397L0.144775 51.0178Z" fill="#E0E0E0"/>
<path d="M42.7894 21.4785H30.2322C29.9696 21.4785 29.7178 21.5556 29.5321 21.6928C29.3465 21.83 29.2422 22.016 29.2422 22.2101V28.3598C29.2422 28.5538 29.3465 28.7399 29.5321 28.8771C29.7178 29.0142 29.9696 29.0913 30.2322 29.0913H36.8437L39.9873 31.4122V29.0999H42.7894C42.9839 29.0993 43.1702 29.0418 43.3074 28.94C43.4447 28.8382 43.5218 28.7003 43.5218 28.5566V22.0304C43.5233 21.9585 43.5055 21.8871 43.4694 21.8203C43.4333 21.7536 43.3797 21.6928 43.3116 21.6414C43.2434 21.5901 43.1622 21.5493 43.0726 21.5213C42.9829 21.4933 42.8867 21.4788 42.7894 21.4785Z" fill="#EBEBEB"/>
<path d="M39.3624 25.9686C39.7701 25.9686 40.1006 25.7244 40.1006 25.4231C40.1006 25.1219 39.7701 24.8777 39.3624 24.8777C38.9547 24.8777 38.6243 25.1219 38.6243 25.4231C38.6243 25.7244 38.9547 25.9686 39.3624 25.9686Z" fill="#FAFAFA"/>
<path d="M35.7004 25.4231C35.6999 25.5316 35.7429 25.6378 35.8241 25.7282C35.9053 25.8185 36.021 25.8891 36.1566 25.9308C36.2921 25.9725 36.4413 25.9835 36.5853 25.9624C36.7294 25.9414 36.8617 25.8892 36.9655 25.8125C37.0693 25.7358 37.1399 25.638 37.1684 25.5316C37.1969 25.4252 37.182 25.3149 37.1256 25.2147C37.0691 25.1146 36.9737 25.0291 36.8514 24.9691C36.7291 24.9091 36.5854 24.8773 36.4386 24.8777C36.2428 24.8777 36.0551 24.9352 35.9166 25.0374C35.7782 25.1397 35.7004 25.2785 35.7004 25.4231Z" fill="#FAFAFA"/>
<path d="M33.5179 25.9686C33.9256 25.9686 34.2561 25.7244 34.2561 25.4231C34.2561 25.1219 33.9256 24.8777 33.5179 24.8777C33.1103 24.8777 32.7798 25.1219 32.7798 25.4231C32.7798 25.7244 33.1103 25.9686 33.5179 25.9686Z" fill="#FAFAFA"/>
<path d="M117.459 8.40689C117.399 8.18707 117.236 7.98997 116.998 7.8505C116.76 7.71102 116.464 7.63817 116.16 7.64483C115.857 7.65149 115.567 7.73724 115.341 7.88689C115.115 8.03654 114.968 8.24045 114.926 8.46251C114.881 8.241 114.731 8.03842 114.503 7.89055C114.275 7.74269 113.984 7.65907 113.681 7.65446C113.378 7.64985 113.083 7.72456 112.847 7.86538C112.611 8.00619 112.45 8.20406 112.393 8.42401C112.333 8.75026 112.445 9.08108 112.705 9.34807C112.965 9.61059 113.268 9.84777 113.609 10.0539C114.072 10.3577 114.497 10.6422 114.958 10.9459C115.415 10.64 115.803 10.3513 116.26 10.0454C116.599 9.83735 116.901 9.59796 117.157 9.33309C117.415 9.06433 117.523 8.73273 117.459 8.40689Z" fill="#E0E0E0"/>
<path d="M78.3107 89.9438L69.4731 65.8882L43.1776 65.7021C40.5724 72.6989 39.0237 81.6251 38.3203 89.9438" fill="#FF725E"/>
<path d="M49.1205 83.4966C49.3808 83.6049 49.6605 83.6855 49.9513 83.7362C50.3013 83.7842 50.6626 83.7601 50.9953 83.6666C51.3281 83.573 51.6196 83.4135 51.8379 83.2056C52.0561 82.9977 52.1927 82.7494 52.2327 82.488C52.2726 82.2265 52.2144 81.962 52.0644 81.7234C51.9289 81.527 51.7542 81.3467 51.5462 81.1886C51.5462 81.1886 51.6302 81.2164 51.7489 81.2934C51.9189 81.4052 52.0593 81.5394 52.1628 81.6891C52.3175 81.914 52.3913 82.1644 52.377 82.4164C52.3606 82.7269 52.2139 83.0259 51.9573 83.272C51.6965 83.516 51.3409 83.6951 50.9384 83.7854C50.6112 83.8581 50.2641 83.8669 49.931 83.811C49.7091 83.7739 49.4982 83.7072 49.3086 83.6143C49.1784 83.5479 49.1147 83.5094 49.1205 83.4966Z" fill="#FAFAFA"/>
<path d="M57.9435 77.5726C57.7962 77.5077 57.6252 77.4786 57.4543 77.4891C57.3683 77.5012 57.2875 77.5283 57.2185 77.5681C57.1495 77.6079 57.0944 77.6593 57.0577 77.718C57.0144 77.7893 57.0013 77.8686 57.0204 77.9454C57.0395 78.0222 57.0897 78.093 57.1645 78.1482C57.2392 78.2035 57.335 78.2406 57.4389 78.2547C57.5429 78.2688 57.6503 78.2591 57.7467 78.2271C57.8264 78.2003 57.8962 78.1596 57.9501 78.1086C58.004 78.0576 58.0405 77.9977 58.0564 77.934C58.0701 77.8078 58.0307 77.6816 57.9435 77.5726C57.9435 77.5726 57.9956 77.5875 58.0564 77.6474C58.1397 77.7336 58.1769 77.8395 58.1606 77.9447C58.1501 78.0246 58.1117 78.101 58.0493 78.1666C57.9869 78.2322 57.9026 78.2847 57.8046 78.3191C57.683 78.362 57.5465 78.376 57.4137 78.3591C57.281 78.3423 57.1586 78.2955 57.0633 78.2251C56.9681 78.1547 56.9047 78.0643 56.8819 77.9662C56.8592 77.8681 56.8781 77.7672 56.9361 77.6774C56.9831 77.6052 57.0543 77.5431 57.143 77.497C57.2317 77.4509 57.3349 77.4225 57.4427 77.4143C57.5851 77.4022 57.7285 77.4297 57.8451 77.4913C57.9232 77.534 57.9493 77.5704 57.9435 77.5726Z" fill="#FAFAFA"/>
<path d="M63.1829 87.2646C63.0354 87.2002 62.8645 87.171 62.6937 87.1812C62.6076 87.1929 62.5265 87.2198 62.4575 87.2597C62.3884 87.2995 62.3334 87.3511 62.2972 87.41C62.2538 87.4813 62.2408 87.5606 62.2598 87.6374C62.2789 87.7143 62.3291 87.785 62.4039 87.8402C62.4787 87.8955 62.5744 87.9326 62.6784 87.9467C62.7824 87.9608 62.8897 87.9512 62.9861 87.9191C63.0656 87.892 63.1351 87.8513 63.189 87.8003C63.2428 87.7493 63.2795 87.6896 63.2958 87.6261C63.3101 87.4998 63.2707 87.3734 63.1829 87.2646C63.1829 87.2646 63.235 87.2796 63.2958 87.3394C63.3785 87.425 63.4156 87.5301 63.4 87.6346C63.3875 87.7137 63.3476 87.7891 63.2843 87.8536C63.2209 87.918 63.1362 87.9693 63.0382 88.0025C62.9167 88.0454 62.7801 88.0594 62.6474 88.0426C62.5146 88.0258 62.3922 87.9789 62.297 87.9086C62.2017 87.8382 62.1384 87.7477 62.1156 87.6496C62.0928 87.5515 62.1117 87.4506 62.1698 87.3608C62.2163 87.2884 62.2874 87.2261 62.3762 87.18C62.4649 87.1339 62.5684 87.1055 62.6764 87.0977C62.8188 87.0857 62.9621 87.1132 63.0787 87.1747C63.1627 87.2261 63.1887 87.2603 63.1829 87.2646Z" fill="#FAFAFA"/>
<path d="M42.6882 81.5979C42.6882 81.6086 42.5811 81.6086 42.3987 81.6471C42.1444 81.7029 41.9218 81.8185 41.7648 81.9765C41.6384 82.1035 41.5619 82.2538 41.5438 82.4109C41.5257 82.5679 41.5666 82.7257 41.6622 82.8666C41.7577 83.0076 41.9041 83.1263 42.0851 83.2096C42.2661 83.293 42.4748 83.3378 42.6882 83.3391C42.9017 83.3382 43.1108 83.2937 43.2923 83.2105C43.4737 83.1272 43.6205 83.0086 43.7164 82.8675C43.8123 82.7265 43.8535 82.5687 43.8355 82.4114C43.8175 82.2541 43.741 82.1036 43.6145 81.9765C43.4564 81.8184 43.2328 81.7027 42.9776 81.6471C42.7982 81.6086 42.6882 81.6086 42.6882 81.5979C42.788 81.5798 42.8923 81.5798 42.9921 81.5979C43.272 81.6415 43.5221 81.7566 43.6984 81.923C43.8313 82.047 43.9194 82.1939 43.9543 82.3499C43.9893 82.506 43.9699 82.666 43.8982 82.815C43.8096 82.9995 43.6458 83.1592 43.4294 83.2722C43.213 83.3851 42.9546 83.4457 42.6896 83.4457C42.4247 83.4457 42.1662 83.3851 41.9498 83.2722C41.7334 83.1592 41.5697 82.9995 41.4811 82.815C41.4093 82.666 41.39 82.506 41.4249 82.3499C41.4598 82.1939 41.5479 82.047 41.6808 81.923C41.8558 81.7565 42.105 81.6413 42.3842 81.5979C42.484 81.5795 42.5884 81.5795 42.6882 81.5979Z" fill="#FAFAFA"/>
<path d="M62.0742 81.7795C62.0742 81.7795 61.9642 81.7795 61.7847 81.8287C61.5296 81.8843 61.306 82 61.1479 82.1581C61.0184 82.2851 60.9394 82.4363 60.9197 82.5947C60.9 82.7531 60.9405 82.9124 61.0366 83.0547C61.1326 83.197 61.2805 83.3168 61.4635 83.4005C61.6465 83.4841 61.8575 83.5285 62.0727 83.5285C62.288 83.5285 62.499 83.4841 62.682 83.4005C62.865 83.3168 63.0129 83.197 63.1089 83.0547C63.205 82.9124 63.2455 82.7531 63.2258 82.5947C63.2061 82.4363 63.1271 82.2851 62.9976 82.1581C62.8412 81.9997 62.6183 81.8839 62.3637 81.8287C62.1813 81.7902 62.0742 81.7902 62.0742 81.7795C62.1742 81.7622 62.2782 81.7622 62.3781 81.7795C62.6578 81.8222 62.908 81.9366 63.0844 82.1025C63.2161 82.2269 63.3032 82.3739 63.3376 82.5298C63.372 82.6857 63.3527 82.8455 63.2813 82.9944C63.1934 83.1792 63.0301 83.3392 62.8139 83.4524C62.5977 83.5656 62.3392 83.6264 62.0742 83.6264C61.8092 83.6264 61.5507 83.5656 61.3345 83.4524C61.1183 83.3392 60.955 83.1792 60.8671 82.9944C60.7957 82.8455 60.7763 82.6857 60.8108 82.5298C60.8452 82.3739 60.9322 82.2269 61.0639 82.1025C61.2404 81.9366 61.4906 81.8222 61.7702 81.7795C61.8702 81.7622 61.9742 81.7622 62.0742 81.7795Z" fill="#FAFAFA"/>
<path d="M44.2458 87.4458C44.5704 87.4458 44.8335 87.2514 44.8335 87.0116C44.8335 86.7718 44.5704 86.5774 44.2458 86.5774C43.9213 86.5774 43.6582 86.7718 43.6582 87.0116C43.6582 87.2514 43.9213 87.4458 44.2458 87.4458Z" fill="#FAFAFA"/>
<path d="M54.9358 75.0785C55.2603 75.0785 55.5234 74.8841 55.5234 74.6443C55.5234 74.4045 55.2603 74.2101 54.9358 74.2101C54.6112 74.2101 54.3481 74.4045 54.3481 74.6443C54.3481 74.8841 54.6112 75.0785 54.9358 75.0785Z" fill="#FAFAFA"/>
<path d="M66.5146 78.0064C66.8392 78.0064 67.1023 77.812 67.1023 77.5722C67.1023 77.3323 66.8392 77.1379 66.5146 77.1379C66.1901 77.1379 65.927 77.3323 65.927 77.5722C65.927 77.812 66.1901 78.0064 66.5146 78.0064Z" fill="#FAFAFA"/>
<path d="M52.8372 76.9939C52.8081 77.0404 52.7732 77.0848 52.733 77.1266L52.4059 77.4881L51.1988 78.7907L51.1525 78.8399L51.1033 78.7907C50.5909 78.2816 49.9859 77.6806 49.3317 77.026H49.4475L48.5096 77.9479L47.6586 78.8036L47.5949 78.8656L47.537 78.8014L45.9218 77.026H46.0173L44.5005 78.3094L44.0749 78.6581C44.0263 78.7011 43.972 78.7406 43.9128 78.7757C43.9519 78.7281 43.9965 78.683 44.046 78.641L44.4484 78.2752L45.9247 76.9747L45.9768 76.9298L46.0231 76.979C46.5036 77.4987 47.0594 78.0955 47.6586 78.7458H47.5399L48.3881 77.903L49.3317 76.9747L49.3896 76.9148L49.4504 76.9747L51.1872 78.7522H51.0888L52.3393 77.4688L52.6925 77.1201C52.7332 77.0736 52.7818 77.0312 52.8372 76.9939Z" fill="#FAFAFA"/>
<path d="M58.6613 85.3943C58.6501 85.445 58.6307 85.4946 58.6034 85.5419C58.5484 85.6467 58.4819 85.7836 58.3979 85.9483L57.6279 87.4199L57.5961 87.4777L57.5324 87.4371L55.26 86.021L55.3758 85.9996C55.1732 86.3419 54.9648 86.6991 54.7506 87.0692L54.1716 88.0317L54.1282 88.1023L54.053 88.051C53.2714 87.5162 52.5535 87.0221 51.9282 86.5964L52.0238 86.5836L50.944 88.0809C50.8196 88.2499 50.7154 88.3868 50.6343 88.4937C50.6016 88.5438 50.5619 88.5911 50.5156 88.6349C50.5377 88.5816 50.5668 88.53 50.6025 88.4809L50.8919 88.0531C51.1496 87.6745 51.5027 87.159 51.9253 86.5365L51.963 86.4831L52.0238 86.5237L54.1629 87.9654L54.0472 87.9847L54.6116 87.0221C54.8287 86.6563 55.0372 86.2991 55.2398 85.9526L55.2803 85.8841L55.3556 85.9333L57.6105 87.3665L57.515 87.3836C57.8537 86.7847 58.1316 86.2884 58.3342 85.9269L58.5687 85.5269C58.5931 85.4804 58.6241 85.4359 58.6613 85.3943Z" fill="#FAFAFA"/>
<path d="M68.6278 81.5973C68.6899 81.6201 68.7481 81.6481 68.8015 81.6807L69.2734 81.9395L70.9697 82.8978L71.0362 82.9342L70.9668 82.9684L68.4918 84.1855V84.0978L69.7018 84.8401L70.7931 85.5117L70.8741 85.5609L70.7844 85.5994L68.3007 86.701V86.6304L69.9449 87.8154L70.3965 88.1491C70.4531 88.1854 70.5027 88.2271 70.5441 88.2732C70.4828 88.2415 70.4248 88.2064 70.3705 88.1684L69.8986 87.8518L68.2139 86.6967L68.156 86.6561L68.2255 86.624L70.6947 85.5053V85.5951L69.6034 84.9256C69.1865 84.6711 68.7842 84.4208 68.3934 84.1834L68.3181 84.1342L68.4021 84.0957L70.8915 82.8957V82.9663C70.2055 82.562 69.641 82.224 69.227 81.978L68.7726 81.7021C68.6771 81.6358 68.6221 81.6016 68.6278 81.5973Z" fill="#FAFAFA"/>
<g opacity="0.2">
<path d="M39.2463 81.9552L74.6573 80.0044L73.8902 77.9125H39.9266L39.2463 81.9552Z" fill="black"/>
</g>
<path d="M57.845 88.1306C57.8045 88.1306 57.7958 86.321 57.8277 84.09C57.8595 81.859 57.9232 80.0494 57.9637 80.0515C58.0043 80.0537 58.0129 81.859 57.9811 84.09C57.9493 86.321 57.8856 88.1306 57.845 88.1306Z" fill="#263238"/>
<path d="M65.241 88.1299C65.1876 88.0372 65.145 87.9413 65.1137 87.8433C65.0355 87.6294 64.9342 87.3705 64.8242 87.0518C64.5753 86.3845 64.225 85.4647 63.8226 84.4508C63.4203 83.4369 63.0324 82.5256 62.7516 81.8647L62.4216 81.0818C62.3759 80.9871 62.3411 80.8898 62.3174 80.7909C62.3841 80.8782 62.4375 80.9708 62.4766 81.0668C62.5692 81.2486 62.6995 81.5117 62.8529 81.839C63.1597 82.4957 63.5592 83.4048 63.9674 84.4208C64.3755 85.4369 64.7026 86.3588 64.9255 87.0326C65.0384 87.3684 65.1252 87.6422 65.1802 87.8326C65.2149 87.9298 65.2353 88.0295 65.241 88.1299Z" fill="#263238"/>
<path d="M94.7205 56.4025L89.4551 58.9373V19.8722H94.7205V56.4025Z" fill="#F5F5F5"/>
<path d="M89.4263 54.1174C91.8405 48.6436 90.7607 42.5282 93.4325 37.0929C93.6873 36.571 93.9825 36.0362 93.9073 35.4908C93.8116 35.0183 93.5296 34.5771 93.0968 34.2223C92.622 33.7945 91.9128 33.4138 91.1023 33.4544C90.7718 33.4803 90.456 33.5689 90.1856 33.7117C89.9152 33.8546 89.6995 34.0467 89.5594 34.2694C89.3365 34.6882 89.2378 35.1376 89.27 35.587C89.2265 37.249 89.2381 38.9111 89.2526 40.5709C89.2815 44.7535 89.3114 48.9338 89.3423 53.1121" fill="#E0E0E0"/>
<path d="M89.406 29.8463V28.4003L94.6715 27.2859V28.9543L89.406 29.8463Z" fill="#E0E0E0"/>
<path d="M25.5834 35.8501C25.5834 35.8501 25.2042 33.6768 25.375 32.9089C25.5574 32.0918 27.4013 30.3613 27.4013 30.3613C27.3752 30.2864 27.0713 30.0982 26.1276 30.3613C25.184 30.6244 24.854 31.1143 23.9595 31.5848L19.3801 29.4865L17.8806 33.0287L21.7711 37.5549L25.5834 35.8501Z" fill="#FFAD9D"/>
<path d="M45.8148 27.5398C43.4498 29.251 45.7221 31.9141 44.2053 33.6339C43.2877 34.6756 41.3106 35.1804 40.8967 36.3825C40.6882 36.9793 40.9227 37.6039 41.0472 38.2114C41.1717 38.8189 41.1427 39.5205 40.5435 39.9483C40.2408 40.1241 39.9226 40.2849 39.5912 40.4296C38.6648 40.9323 38.3522 41.8691 38.4564 42.7141C38.5606 43.559 39.0064 44.3547 39.3248 45.1718C40.2022 47.4937 40.0077 49.9653 38.7719 52.1964C39.315 52.1984 39.8515 52.1091 40.341 51.9353C40.8305 51.7615 41.26 51.5078 41.5972 51.1932C41.5711 51.76 41.5422 52.3247 41.5132 52.8916C42.5322 52.9386 43.5164 52.5343 44.1966 51.9718C44.8411 51.3851 45.3319 50.7149 45.644 49.9953C47.2484 46.8016 47.7769 43.3673 47.184 39.9889" fill="#263238"/>
<path d="M65.3308 22.6506C66.6815 24.132 67.2472 25.9289 66.92 27.6987C66.7318 28.6934 66.2658 29.7265 66.7289 30.672C67.1255 31.4848 68.1763 32.1479 68.1271 33.0121C68.0605 33.996 66.5581 34.6613 66.425 35.641C66.2368 36.9992 68.7031 37.9126 68.6771 39.2773C68.6626 39.981 67.9794 40.5607 67.5192 41.1725C67.0589 41.7842 66.836 42.6698 67.5771 43.1083L58.9856 42.6548L60.514 22.8068L65.3308 22.6506Z" fill="#263238"/>
<path d="M90.4654 39.5596H90.3699L90.7491 38.6248L91.9619 35.0526C92.015 34.8929 91.9849 34.7242 91.8777 34.58C91.7705 34.4358 91.5939 34.3266 91.383 34.274L90.5146 34.2526L87.5301 33.2195C87.4003 33.1821 87.2608 33.1667 87.1219 33.1744C86.9829 33.1821 86.8481 33.2128 86.7273 33.2641C86.6065 33.3154 86.5028 33.386 86.4238 33.4709C86.3448 33.5557 86.2926 33.6525 86.271 33.7542C86.161 34.4109 85.556 36.1735 84.9133 35.5553C84.9133 35.5425 84.8815 35.5296 84.867 35.5147C83.9639 34.597 82.8407 34.1008 82.3747 34.1136C82.2751 34.1201 82.1801 34.1476 82.1011 34.1929C82.0221 34.2382 81.9624 34.2994 81.9291 34.3691C81.8958 34.4387 81.8904 34.514 81.9135 34.5859C81.9365 34.6578 81.9871 34.7233 82.0592 34.7746C82.1058 34.8189 82.1639 34.8559 82.2299 34.8837C82.2589 34.8943 82.2936 34.9157 82.3255 34.9307C82.7242 35.1934 83.0851 35.4858 83.4023 35.8034C83.6925 36.0824 83.9148 36.3965 84.0594 36.7318C84.2186 37.104 84.3489 37.427 84.427 37.7029L84.1954 39.5275" fill="#FFAD9D"/>
<path d="M82.4993 23.3776C82.4993 23.3776 85.9729 22.8835 91.001 19.5273C96.0291 16.1712 98.4809 11.6129 99.0772 11.6407C99.6735 11.6685 102.316 10.8365 106.971 18.9134C111.626 26.9904 109.599 28.8 108.612 28.7637C107.625 28.7273 100.979 27.2086 96.7788 27.4802C92.5786 27.7519 87.1366 29.2449 87.1366 29.2449L82.4993 23.3776Z" fill="#455A64"/>
<path d="M74.9643 27.5699L76.0845 29.2555L76.5853 30.0105C76.9159 30.5099 77.4934 30.8965 78.1985 31.0903C78.9036 31.2842 79.6825 31.2705 80.3745 31.0523L87.8804 29.294L83.8278 21.9015L76.3016 24.6822C75.6094 24.9367 75.0807 25.3826 74.8304 25.9231C74.58 26.4637 74.6282 27.0554 74.9643 27.5699Z" fill="#263238"/>
<path d="M79.1472 30.3208L81.3848 33.7989L82.5803 33.5849L90.1355 38.3978L92.4165 35.3154C92.4165 35.3154 87.9008 33.7646 87.1019 32.5347C86.3029 31.3047 87.29 31.0588 87.29 31.0588L85.2087 29.2085L79.1472 30.3208Z" fill="#263238"/>
<path d="M106.566 19.0418C109.038 23.4161 109.99 27.2877 108.687 27.6877C107.385 28.0877 104.328 24.8706 101.853 20.4963C99.3781 16.122 98.4286 12.2504 99.7312 11.8525C101.034 11.4547 104.091 14.6675 106.566 19.0418Z" fill="#263238"/>
<path d="M74.2349 29.9571L76.267 29.5314L75.0888 27.7539L73.5518 28.417L74.2349 29.9571Z" fill="#455A64"/>
<path d="M85.9237 29.8457L80.4122 32.2842L79.7725 31.2917L85.9237 29.8457Z" fill="#455A64"/>
<path d="M75.0888 27.7539L76.267 29.5314L75.8501 29.6191L74.9036 27.8331L75.0888 27.7539Z" fill="#455A64"/>
<path d="M76.461 28.1882C76.4899 28.2374 77.5059 27.9743 78.7304 27.5893C79.9549 27.2043 80.9304 26.8642 80.9014 26.815C80.8725 26.7658 79.8593 27.0289 78.632 27.4139C77.4046 27.7989 76.4349 28.139 76.461 28.1882Z" fill="#455A64"/>
<path d="M75.882 27.1315C75.911 27.1807 76.8315 26.9176 77.9373 26.5411C79.0431 26.1646 79.9173 25.8245 79.8854 25.7775C79.8536 25.7304 78.936 25.9914 77.8302 26.3678C76.7244 26.7443 75.8531 27.0844 75.882 27.1315Z" fill="#455A64"/>
<path d="M77.1987 29.2985C77.1987 29.3242 77.4506 29.2878 77.8356 29.2087C78.0266 29.1702 78.2553 29.1188 78.51 29.0611C78.7648 29.0033 79.0224 28.9092 79.3003 28.8215C80.4176 28.4664 81.2745 28.1135 81.2484 28.0707C81.2224 28.0279 80.3047 28.2846 79.199 28.6461C78.9095 28.7317 78.6634 28.8279 78.4232 28.8964C78.1829 28.9648 77.96 29.0247 77.7777 29.0803C77.4129 29.1915 77.19 29.2728 77.1987 29.2985Z" fill="#455A64"/>
<path d="M101.219 17.9687C101.219 17.9687 104.288 16.651 105.819 19.6949C107.35 22.7387 104.163 23.1665 104.163 23.1665C102.856 21.545 101.865 19.7951 101.219 17.9687Z" fill="#455A64"/>
<path d="M98.1509 14.3143C98.1607 14.5086 98.1937 14.7019 98.2493 14.8919C98.3304 15.2619 98.4433 15.7988 98.6111 16.4576C98.7269 16.7828 98.8514 17.1378 98.9875 17.5272C99.0569 17.7197 99.1264 17.9165 99.1988 18.1197C99.2364 18.2202 99.274 18.3336 99.3117 18.4277C99.3493 18.5218 99.4072 18.6416 99.4535 18.74C99.6561 19.1678 99.8674 19.5956 100.085 20.0512C100.14 20.1646 100.195 20.2801 100.252 20.3956C100.31 20.5111 100.386 20.6223 100.452 20.7357C100.588 20.9646 100.742 21.1956 100.872 21.4287C101.002 21.6619 101.161 21.8929 101.295 22.1196C101.367 22.233 101.428 22.3485 101.509 22.4555C101.59 22.5624 101.671 22.6694 101.749 22.7763L102.664 23.9934C102.739 24.0918 102.806 24.1881 102.884 24.2801L103.124 24.5474L103.584 25.0565L104.415 25.9678C104.971 26.4961 105.437 26.9132 105.758 27.202C105.916 27.3555 106.091 27.4986 106.282 27.6298C106.154 27.4601 106.006 27.299 105.839 27.1485C105.529 26.8405 105.092 26.4084 104.56 25.8758C104.314 25.5956 104.047 25.2875 103.761 24.9581C103.619 24.7934 103.471 24.6244 103.315 24.449L103.083 24.1817C103.008 24.0918 102.942 23.9934 102.869 23.8972C102.58 23.51 102.29 23.1015 101.975 22.6801L101.737 22.3635C101.656 22.2565 101.598 22.1496 101.526 22.0277L101.109 21.341C100.967 21.11 100.82 20.8811 100.69 20.6544C100.623 20.541 100.545 20.4405 100.49 20.3164C100.435 20.1924 100.377 20.0876 100.322 19.9763C100.098 19.5257 99.8848 19.0922 99.6822 18.6758C99.633 18.571 99.5751 18.4619 99.5317 18.3678C99.4882 18.2737 99.4564 18.1539 99.4159 18.0619C99.3406 17.8608 99.2653 17.6662 99.193 17.478C99.0482 17.1001 98.9141 16.75 98.7906 16.4277L98.3535 14.879C98.3091 14.6867 98.2412 14.4977 98.1509 14.3143Z" fill="#263238"/>
<path d="M83.1505 38.792L81.6395 48.7042L74.0988 43.1428C74.0988 43.1428 70.0635 49.346 70.0085 49.5962C69.9709 49.7652 74.2406 52.8839 77.4132 54.6828C79.1298 55.6582 81.4484 57.1662 83.5876 56.9117C87.1539 56.4839 89.2728 54.7491 89.5825 52.0882L90.9488 38.9374L83.1505 38.792Z" fill="#FF725E"/>
<path d="M43.6756 48.0026L38.1438 45.286C39.6577 39.0037 51.9371 38.3748 51.9371 38.3748L61.287 38.2529C61.287 38.2529 68.2169 37.5556 72.501 41.1149C76.9328 44.794 80.2762 47.6988 80.2762 47.6988L74.1973 52.6058L68.2487 49.1555C69.1633 50.1318 69.6668 51.286 69.6961 52.4732C69.6961 54.5181 67.6321 56.4731 67.6321 56.4731L67.1169 59.9662L69.4066 66.7362L42.923 66.7897C44.7264 64.6742 46.0203 62.8432 47.6268 59.7159L45.1519 53.1363L43.6756 48.0026Z" fill="#FF725E"/>
<path d="M44.0778 40.2456L30.6637 45.4905L25.8093 35.6917L19.8867 37.7729L24.0754 50.2456C24.909 52.7247 28.4608 54.2156 31.7058 53.3322C31.8158 53.3023 31.9229 53.2702 32.03 53.236L46.5672 48.5857L44.0778 40.2456Z" fill="#FF725E"/>
<path d="M53.008 47.949C52.7129 47.9822 52.4255 48.0455 52.154 48.1372C51.8384 48.2584 51.5738 48.4412 51.3891 48.6658C51.2045 48.8904 51.1068 49.1482 51.1068 49.411C51.1068 49.6738 51.2045 49.9316 51.3891 50.1562C51.5738 50.3809 51.8384 50.5637 52.154 50.6848C52.4255 50.7765 52.7129 50.8399 53.008 50.8731C52.9267 50.8849 52.8432 50.8849 52.7619 50.8731C52.5353 50.8608 52.3136 50.818 52.1077 50.7469C51.7978 50.64 51.5305 50.4756 51.3319 50.2699C51.0876 50.0163 50.9563 49.7127 50.9563 49.4014C50.9563 49.0901 51.0876 48.7865 51.3319 48.533C51.5306 48.3278 51.7979 48.1641 52.1077 48.0581C52.3131 47.9859 52.535 47.9431 52.7619 47.9319C52.8447 47.9256 52.9283 47.9314 53.008 47.949Z" fill="#FAFAFA"/>
<path d="M62.459 51.3567C62.5956 51.5526 62.7701 51.7328 62.9771 51.8915C63.2098 52.0533 63.4918 52.1715 63.7992 52.2358C64.1759 52.3139 64.5757 52.3056 64.9459 52.212C65.316 52.1185 65.6389 51.944 65.8718 51.7118C66.0626 51.5231 66.1879 51.3028 66.2366 51.0701C66.2674 50.8504 66.2557 50.6285 66.2018 50.4113C66.2464 50.4637 66.2778 50.5217 66.2945 50.5824C66.3511 50.745 66.3678 50.9138 66.3437 51.0808C66.3062 51.3313 66.1826 51.5706 65.9847 51.776C65.7392 52.0288 65.3932 52.2189 64.9948 52.3197C64.5964 52.4205 64.1653 52.4271 63.7616 52.3385C63.4307 52.2689 63.1309 52.1352 62.8932 51.9514C62.7343 51.8313 62.6067 51.6906 62.5169 51.5364C62.4823 51.4798 62.4626 51.4188 62.459 51.3567Z" fill="#FAFAFA"/>
<path d="M55.6769 62.5137C55.937 62.6224 56.2167 62.703 56.5077 62.7533C56.8575 62.8005 57.2182 62.7759 57.5504 62.6821C57.8826 62.5882 58.1736 62.4288 58.3916 62.2211C58.6096 62.0135 58.7462 61.7656 58.7866 61.5045C58.8271 61.2434 58.7697 60.9791 58.6208 60.7404C58.4853 60.544 58.3106 60.3638 58.1026 60.2057C58.1026 60.2057 58.1837 60.2335 58.3053 60.3105C58.4751 60.4219 58.6146 60.5562 58.7163 60.7062C58.8734 60.9305 58.9482 61.1812 58.9334 61.4335C58.917 61.744 58.7703 62.043 58.5137 62.2891C58.2529 62.5331 57.8973 62.7122 57.4947 62.8025C57.1676 62.8752 56.8205 62.884 56.4874 62.8281C56.2655 62.791 56.0546 62.7243 55.865 62.6314C55.7348 62.565 55.6711 62.5201 55.6769 62.5137Z" fill="#FAFAFA"/>
<path d="M83.5095 45.356C83.7702 45.4634 84.0498 45.5433 84.3403 45.5935C84.6898 45.6405 85.05 45.6158 85.3818 45.522C85.7136 45.4282 86.0043 45.2691 86.2221 45.0617C86.44 44.8544 86.5768 44.6069 86.6176 44.3462C86.6584 44.0854 86.6016 43.8214 86.4534 43.5828C86.3183 43.3855 86.1436 43.2045 85.9353 43.0459C86.0111 43.0712 86.0798 43.1068 86.1379 43.1507C86.3077 43.263 86.4472 43.398 86.549 43.5486C86.706 43.7721 86.7809 44.0221 86.7661 44.2737C86.7486 44.5855 86.5997 44.8855 86.3402 45.1317C86.0807 45.3779 85.7235 45.5581 85.3187 45.647C84.9921 45.718 84.6463 45.7261 84.3142 45.6705C84.092 45.6353 83.8808 45.5693 83.6919 45.4758C83.622 45.4442 83.5602 45.4036 83.5095 45.356Z" fill="#FAFAFA"/>
<path d="M86.022 55.3606C85.9578 55.1454 85.8526 54.938 85.7094 54.7446C85.5427 54.5421 85.311 54.3731 85.0349 54.2526C84.7981 54.1497 84.5345 54.0852 84.2615 54.0631C83.9884 54.0411 83.7122 54.0621 83.4509 54.1248C83.1897 54.1874 82.9494 54.2903 82.7459 54.4267C82.5424 54.563 82.3804 54.7297 82.2705 54.9157C82.1652 55.1219 82.099 55.3378 82.0736 55.5574C82.0485 55.4987 82.0387 55.437 82.0447 55.3756C82.0476 55.2073 82.0907 55.0408 82.1721 54.8836C82.2931 54.6503 82.4923 54.4435 82.751 54.2825C82.9788 54.1434 83.2452 54.0432 83.5314 53.9889C83.8177 53.9346 84.1166 53.9276 84.4068 53.9685C84.6971 54.0093 84.9716 54.097 85.2108 54.2252C85.4499 54.3535 85.6478 54.5191 85.7904 54.7104C85.9024 54.857 85.9751 55.0182 86.0047 55.1852C86.0257 55.2423 86.0316 55.3019 86.022 55.3606Z" fill="#FAFAFA"/>
<path d="M65.5593 42.7849C65.7529 42.95 65.9771 43.094 66.2251 43.2127C66.501 43.3321 66.8118 43.4004 67.1312 43.4117C67.4056 43.421 67.6796 43.3872 67.935 43.3125C68.1905 43.2378 68.4216 43.124 68.6131 42.9784C68.8046 42.8329 68.9521 42.6589 69.046 42.4681C69.1398 42.2773 69.1778 42.074 69.1574 41.8716C69.1224 41.6505 69.0444 41.4344 68.9259 41.2299C68.9849 41.2726 69.0322 41.3235 69.0648 41.3796C69.1726 41.5283 69.2404 41.691 69.2645 41.8587C69.3053 42.1088 69.2575 42.3623 69.1256 42.5946C68.9621 42.8816 68.6816 43.1239 68.3231 43.2876C67.9646 43.4513 67.5459 43.5283 67.1254 43.5079C66.7849 43.4914 66.4559 43.4104 66.1701 43.2726C65.98 43.1809 65.8142 43.0641 65.6809 42.9282C65.5883 42.8491 65.5506 42.7892 65.5593 42.7849Z" fill="#FAFAFA"/>
<path d="M39.264 48.1223C39.4571 48.2877 39.6813 48.4317 39.9298 48.5501C40.235 48.6841 40.5842 48.7538 40.9393 48.7515C41.2944 48.7491 41.6419 48.6749 41.9439 48.5369C42.2459 48.3988 42.4909 48.2022 42.6523 47.9685C42.8137 47.7347 42.8852 47.4728 42.8592 47.211C42.8235 46.9901 42.7455 46.7741 42.6276 46.5693C42.685 46.6139 42.732 46.6652 42.7666 46.7212C42.8714 46.87 42.9391 47.0316 42.9663 47.1982C43.0062 47.4491 42.9573 47.7034 42.8245 47.9362C42.6612 48.2229 42.3811 48.4648 42.0232 48.6285C41.6652 48.7922 41.2472 48.8695 40.8271 48.8495C40.4866 48.8331 40.1576 48.752 39.8719 48.6142C39.6817 48.5225 39.5159 48.4058 39.3827 48.2699C39.3016 48.1843 39.2553 48.1244 39.264 48.1223Z" fill="#FAFAFA"/>
<path d="M28.5911 48.5158C28.7292 48.3194 28.8268 48.1089 28.8806 47.8912C28.9279 47.6308 28.8777 47.3658 28.7353 47.1251C28.5928 46.8844 28.3637 46.6771 28.0729 46.526C27.7821 46.3749 27.4407 46.2856 27.086 46.268C26.7312 46.2503 26.3767 46.305 26.0611 46.426C25.8027 46.5361 25.5677 46.6738 25.3635 46.8345C25.3635 46.8345 25.3954 46.7725 25.4938 46.6805C25.6367 46.5492 25.8127 46.4395 26.0119 46.3575C26.3078 46.2314 26.643 46.1643 26.9846 46.1628C27.4057 46.1619 27.817 46.2568 28.1627 46.4345C28.5059 46.6142 28.7649 46.8684 28.9037 47.1618C29.0174 47.3998 29.0463 47.6554 28.9877 47.904C28.9469 48.0694 28.8665 48.228 28.7503 48.3725C28.6693 48.4709 28.6085 48.5201 28.5911 48.5158Z" fill="#FAFAFA"/>
<path d="M58.5136 49.8571C58.3673 49.7924 58.1972 49.7633 58.0273 49.7737C57.941 49.7851 57.8597 49.8119 57.7906 49.8518C57.7215 49.8917 57.6666 49.9434 57.6308 50.0026C57.5874 50.0738 57.5744 50.1531 57.5934 50.2299C57.6125 50.3068 57.6627 50.3775 57.7375 50.4328C57.8123 50.488 57.908 50.5251 58.012 50.5392C58.116 50.5533 58.2233 50.5437 58.3197 50.5116C58.3992 50.4849 58.4686 50.4442 58.5221 50.3931C58.5756 50.3421 58.6114 50.2822 58.6265 50.2186C58.6437 50.0922 58.604 49.9651 58.5136 49.8571C58.5136 49.8571 58.5686 49.8721 58.6294 49.932C58.7115 50.0185 58.7485 50.1241 58.7336 50.2293C58.7226 50.309 58.684 50.3852 58.6217 50.4508C58.5593 50.5163 58.4753 50.5689 58.3776 50.6036C58.256 50.6452 58.1202 50.6581 57.9883 50.6408C57.8565 50.6235 57.735 50.5767 57.6403 50.5067C57.5457 50.4367 57.4823 50.347 57.4588 50.2495C57.4354 50.1521 57.453 50.0517 57.5092 49.9619C57.5564 49.8894 57.6281 49.8271 57.7173 49.7811C57.8065 49.735 57.9103 49.7066 58.0186 49.6988C58.161 49.6868 58.3044 49.7142 58.421 49.7758C58.4934 49.8186 58.5194 49.8528 58.5136 49.8571Z" fill="#FAFAFA"/>
<path d="M67.8058 46.5049C67.6596 46.4381 67.4877 46.4088 67.3166 46.4215C67.2302 46.4327 67.1489 46.4594 67.0797 46.4993C67.0105 46.5392 66.9557 46.5911 66.9201 46.6503C66.8776 46.7215 66.8653 46.8005 66.8848 46.8769C66.9043 46.9533 66.9546 47.0236 67.0292 47.0784C67.1038 47.1333 67.1991 47.1702 67.3026 47.1843C67.406 47.1984 67.5129 47.1889 67.609 47.1573C67.6887 47.1305 67.7585 47.0898 67.8125 47.0388C67.8664 46.9878 67.9028 46.9279 67.9187 46.8642C67.9328 46.7387 67.8933 46.613 67.8058 46.5049C67.8058 46.5049 67.8579 46.5199 67.9187 46.5776C68.0021 46.6638 68.0392 46.7697 68.0229 46.8749C68.0115 46.9548 67.9729 47.0313 67.9106 47.0971C67.8483 47.1629 67.7645 47.216 67.6669 47.2514C67.5454 47.2929 67.4095 47.3059 67.2777 47.2886C67.1458 47.2713 67.0243 47.2245 66.9296 47.1545C66.835 47.0845 66.7716 46.9948 66.7482 46.8973C66.7247 46.7999 66.7423 46.6995 66.7985 46.6097C66.8454 46.5375 66.9167 46.4754 67.0053 46.4293C67.094 46.3833 67.1972 46.3548 67.3051 46.3466C67.4478 46.3352 67.5912 46.3634 67.7074 46.4257C67.7856 46.4685 67.8116 46.5049 67.8058 46.5049Z" fill="#FAFAFA"/>
<path d="M87.9791 40.9438C87.8328 40.8791 87.6628 40.8499 87.4928 40.8603C87.4061 40.8716 87.3243 40.8983 87.2547 40.9382C87.1851 40.9781 87.1297 41.0299 87.0934 41.0892C87.05 41.1605 87.037 41.2398 87.056 41.3166C87.0751 41.3935 87.1254 41.4642 87.2001 41.5194C87.2749 41.5747 87.3706 41.6118 87.4746 41.6259C87.5786 41.64 87.6859 41.6304 87.7823 41.5983C87.862 41.5715 87.9318 41.5309 87.9858 41.4798C88.0397 41.4288 88.0761 41.3689 88.092 41.3053C88.1082 41.1789 88.0686 41.0521 87.9791 40.9438C87.9791 40.9438 88.0341 40.9587 88.092 41.0186C88.1754 41.1048 88.2125 41.2107 88.1963 41.316C88.1857 41.3958 88.1474 41.4722 88.085 41.5378C88.0226 41.6034 87.9382 41.6559 87.8402 41.6903C87.7187 41.7332 87.5821 41.7472 87.4494 41.7303C87.3166 41.7135 87.1942 41.6667 87.099 41.5963C87.0037 41.5259 86.9404 41.4355 86.9176 41.3374C86.8948 41.2393 86.9137 41.1384 86.9718 41.0486C87.019 40.9761 87.0907 40.9138 87.1799 40.8677C87.2691 40.8216 87.3729 40.7933 87.4813 40.7855C87.6237 40.7735 87.767 40.8009 87.8836 40.8625C87.9589 40.901 87.9849 40.9438 87.9791 40.9438Z" fill="#FAFAFA"/>
<path d="M65.2177 57.0487C65.0713 56.984 64.9013 56.9548 64.7314 56.9652C64.6449 56.977 64.5634 57.0039 64.4939 57.0438C64.4244 57.0836 64.3689 57.1351 64.3319 57.1941C64.2885 57.2654 64.2755 57.3447 64.2946 57.4215C64.3136 57.4983 64.3639 57.5691 64.4386 57.6243C64.5134 57.6796 64.6091 57.7167 64.7131 57.7308C64.8171 57.7449 64.9244 57.7353 65.0208 57.7032C65.1006 57.6764 65.1704 57.6357 65.2243 57.5847C65.2782 57.5337 65.3147 57.4738 65.3306 57.4102C65.3443 57.2839 65.3049 57.1577 65.2177 57.0487C65.2177 57.0487 65.2727 57.0636 65.3306 57.1235C65.4139 57.2097 65.451 57.3156 65.4348 57.4209C65.4242 57.5007 65.3859 57.5771 65.3235 57.6427C65.2611 57.7083 65.1768 57.7608 65.0787 57.7952C64.9572 57.8381 64.8207 57.8521 64.6879 57.8352C64.5552 57.8184 64.4327 57.7716 64.3375 57.7012C64.2423 57.6308 64.1789 57.5404 64.1561 57.4423C64.1333 57.3442 64.1523 57.2433 64.2103 57.1535C64.2577 57.0811 64.3295 57.0189 64.4187 56.9729C64.5079 56.9268 64.6115 56.8984 64.7198 56.8904C64.8612 56.8789 65.0034 56.9063 65.1193 56.9674C65.1974 57.0102 65.2235 57.0465 65.2177 57.0487Z" fill="#FAFAFA"/>
<path d="M33.8595 49.8569C33.7132 49.7922 33.5431 49.7631 33.3732 49.7735C33.2865 49.7847 33.2047 49.8114 33.1351 49.8513C33.0655 49.8912 33.0101 49.9431 32.9737 50.0023C32.9304 50.0736 32.9174 50.1529 32.9364 50.2297C32.9555 50.3066 33.0057 50.3773 33.0805 50.4326C33.1552 50.4878 33.251 50.5249 33.355 50.539C33.4589 50.5531 33.5663 50.5435 33.6627 50.5114C33.7424 50.4846 33.8122 50.444 33.8661 50.393C33.9201 50.3419 33.9565 50.282 33.9724 50.2184C33.9861 50.0922 33.9467 49.9659 33.8595 49.8569C33.8595 49.8569 33.9145 49.8719 33.9724 49.9318C34.0558 50.0179 34.0929 50.1239 34.0766 50.2291C34.0661 50.3089 34.0277 50.3853 33.9654 50.4509C33.903 50.5165 33.8186 50.5691 33.7206 50.6034C33.599 50.6463 33.4625 50.6603 33.3297 50.6435C33.197 50.6266 33.0746 50.5798 32.9793 50.5094C32.8841 50.4391 32.8207 50.3486 32.798 50.2505C32.7752 50.1524 32.7941 50.0515 32.8522 49.9617C32.8994 49.8892 32.971 49.8269 33.0603 49.7809C33.1495 49.7348 33.2533 49.7064 33.3616 49.6986C33.5031 49.6871 33.6453 49.7145 33.7611 49.7756C33.8393 49.8184 33.8653 49.8526 33.8595 49.8569Z" fill="#FAFAFA"/>
<path d="M51.031 59.7815C51.031 59.7815 50.921 59.7815 50.7415 59.8307C50.486 59.8858 50.2621 60.0015 50.1047 60.1601C49.9752 60.2872 49.8962 60.4384 49.8765 60.5967C49.8568 60.7551 49.8973 60.9144 49.9933 61.0567C50.0894 61.1991 50.2372 61.3188 50.4203 61.4025C50.6033 61.4862 50.8143 61.5305 51.0295 61.5305C51.2448 61.5305 51.4557 61.4862 51.6388 61.4025C51.8218 61.3188 51.9697 61.1991 52.0657 61.0567C52.1618 60.9144 52.2022 60.7551 52.1826 60.5967C52.1629 60.4384 52.0839 60.2872 51.9544 60.1601C51.7965 60.0024 51.5743 59.8862 51.3204 59.8286C51.1381 59.7901 51.031 59.7901 51.031 59.7815C51.1259 59.7634 51.2255 59.7634 51.3204 59.7815C51.599 59.8247 51.8481 59.939 52.0239 60.1045C52.1568 60.2285 52.2448 60.3754 52.2798 60.5314C52.3147 60.6874 52.2954 60.8475 52.2236 60.9965C52.135 61.181 51.9712 61.3407 51.7548 61.4536C51.5384 61.5666 51.28 61.6272 51.0151 61.6272C50.7501 61.6272 50.4917 61.5666 50.2753 61.4536C50.0589 61.3407 49.8951 61.181 49.8065 60.9965C49.7347 60.8475 49.7154 60.6874 49.7503 60.5314C49.7853 60.3754 49.8733 60.2285 50.0062 60.1045C50.1831 59.9389 50.4331 59.8246 50.7126 59.7815C50.8166 59.7595 50.9269 59.7595 51.031 59.7815Z" fill="#FAFAFA"/>
<path d="M78.4176 47.9486C78.4176 47.9593 78.3076 47.9593 78.1282 47.9978C77.8726 48.0529 77.6488 48.1686 77.4913 48.3272C77.3766 48.4419 77.3025 48.5759 77.2757 48.7171C77.2489 48.8583 77.2703 49.0022 77.3379 49.1358C77.3926 49.2536 77.4814 49.3612 77.5982 49.4511C77.7151 49.5409 77.857 49.6108 78.0142 49.6559C78.1714 49.701 78.34 49.7202 78.5082 49.7121C78.6765 49.704 78.8403 49.6689 78.9883 49.6092C79.1363 49.5495 79.2648 49.4666 79.3649 49.3663C79.465 49.2661 79.5343 49.1509 79.5679 49.0288C79.6015 48.9067 79.5986 48.7806 79.5594 48.6595C79.5202 48.5383 79.4457 48.4249 79.341 48.3272C79.184 48.1692 78.9614 48.0536 78.7071 47.9978C78.5247 47.9593 78.4176 47.9593 78.4176 47.9486C78.5174 47.9302 78.6218 47.9302 78.7216 47.9486C79.0008 47.992 79.25 48.1072 79.425 48.2737C79.5579 48.3977 79.646 48.5446 79.6809 48.7006C79.7158 48.8567 79.6965 49.0167 79.6247 49.1657C79.5361 49.3502 79.3724 49.5099 79.156 49.6229C78.9396 49.7358 78.6811 49.7964 78.4162 49.7964C78.1512 49.7964 77.8928 49.7358 77.6764 49.6229C77.46 49.5099 77.2962 49.3502 77.2076 49.1657C77.1359 49.0167 77.1165 48.8567 77.1515 48.7006C77.1864 48.5446 77.2745 48.3977 77.4074 48.2737C77.5834 48.1071 77.8336 47.9919 78.1137 47.9486C78.2135 47.9305 78.3178 47.9305 78.4176 47.9486Z" fill="#FAFAFA"/>
<path d="M49.0424 53.3138C49.124 53.2553 49.2272 53.2158 49.339 53.2003C49.4508 53.1848 49.5664 53.194 49.6711 53.2268C49.7759 53.2595 49.8653 53.3144 49.9282 53.3844C49.9911 53.4545 50.0246 53.5367 50.0246 53.6208C50.0246 53.7049 49.9911 53.7871 49.9282 53.8572C49.8653 53.9272 49.7759 53.9821 49.6711 54.0148C49.5664 54.0476 49.4508 54.0568 49.339 54.0413C49.2272 54.0258 49.124 53.9863 49.0424 53.9278C48.9868 53.8879 48.9426 53.8402 48.9124 53.7874C48.8822 53.7347 48.8667 53.678 48.8667 53.6208C48.8667 53.5636 48.8822 53.5069 48.9124 53.4542C48.9426 53.4014 48.9868 53.3537 49.0424 53.3138Z" fill="#FAFAFA"/>
<path d="M27.4043 50.5986C27.7288 50.5986 27.9919 50.4041 27.9919 50.1643C27.9919 49.9245 27.7288 49.7301 27.4043 49.7301C27.0797 49.7301 26.8167 49.9245 26.8167 50.1643C26.8167 50.4041 27.0797 50.5986 27.4043 50.5986Z" fill="#FAFAFA"/>
<path d="M87.8806 47.6839C88.2051 47.6839 88.4682 47.4895 88.4682 47.2497C88.4682 47.0098 88.2051 46.8154 87.8806 46.8154C87.5561 46.8154 87.293 47.0098 87.293 47.2497C87.293 47.4895 87.5561 47.6839 87.8806 47.6839Z" fill="#FAFAFA"/>
<path d="M65.6259 40.2478C65.7075 40.1892 65.8107 40.1498 65.9225 40.1343C66.0343 40.1188 66.1499 40.128 66.2546 40.1607C66.3594 40.1935 66.4488 40.2483 66.5117 40.3184C66.5745 40.3885 66.6081 40.4707 66.6081 40.5548C66.6081 40.6388 66.5745 40.721 66.5117 40.7911C66.4488 40.8612 66.3594 40.916 66.2546 40.9488C66.1499 40.9815 66.0343 40.9907 65.9225 40.9752C65.8107 40.9598 65.7075 40.9203 65.6259 40.8617C65.5703 40.8218 65.5261 40.7741 65.4959 40.7214C65.4657 40.6687 65.4502 40.612 65.4502 40.5548C65.4502 40.4975 65.4657 40.4408 65.4959 40.3881C65.5261 40.3354 65.5703 40.2877 65.6259 40.2478Z" fill="#FAFAFA"/>
<path d="M52.1713 64.9002C52.2529 64.8416 52.3561 64.8021 52.4679 64.7866C52.5797 64.7711 52.6953 64.7803 52.8001 64.8131C52.9048 64.8458 52.9942 64.9007 53.0571 64.9707C53.12 65.0408 53.1535 65.123 53.1535 65.2071C53.1535 65.2912 53.12 65.3734 53.0571 65.4435C52.9942 65.5135 52.9048 65.5684 52.8001 65.6011C52.6953 65.6339 52.5797 65.6431 52.4679 65.6276C52.3561 65.6121 52.2529 65.5726 52.1713 65.5141C52.1157 65.4742 52.0715 65.4265 52.0413 65.3737C52.0112 65.321 51.9956 65.2644 51.9956 65.2071C51.9956 65.1499 52.0112 65.0932 52.0413 65.0405C52.0715 64.9877 52.1157 64.94 52.1713 64.9002Z" fill="#FAFAFA"/>
<path d="M61.1768 55.1781C61.1486 55.2243 61.1137 55.268 61.0726 55.3086L60.7484 55.6722L59.5384 56.9727L59.4921 57.0241L59.4429 56.9749L57.6713 55.2102H57.79L56.8492 56.1407C56.5597 56.4294 56.2703 56.7096 55.9982 56.9813L55.9374 57.0433L55.8795 56.9792L54.2613 55.2038H54.354L52.8371 56.4872L52.4087 56.8358C52.3622 56.879 52.3087 56.9177 52.2495 56.9513C52.286 56.9037 52.3297 56.8592 52.3798 56.8187L52.7821 56.453L54.2613 55.1524L54.3105 55.1075L54.3569 55.1567L55.9953 56.9214H55.8737L56.7247 56.0808L57.6655 55.1503L57.7263 55.0925L57.7842 55.1524L59.521 56.9278H59.4255L60.676 55.6444L61.0263 55.2957C61.1247 55.2145 61.171 55.1738 61.1768 55.1781Z" fill="#FAFAFA"/>
<path d="M67.004 62.4667C66.9922 62.5176 66.9718 62.5672 66.9432 62.6143C66.8911 62.7212 66.8216 62.856 66.7376 63.0207C66.5466 63.3886 66.2832 63.8891 65.9677 64.4923L65.9387 64.5501L65.8721 64.5095L63.5998 63.0934L63.7156 63.0742C63.5158 63.4164 63.3045 63.7715 63.0903 64.1437L62.5114 65.1041L62.4709 65.1747L62.3927 65.1234L60.268 63.6688L60.3664 63.656L59.2838 65.1533L58.9856 65.5618C58.953 65.6119 58.9132 65.6592 58.8669 65.703C58.8873 65.6493 58.9164 65.5975 58.9538 65.549L59.2433 65.1212C59.5009 64.7447 59.854 64.2271 60.2767 63.6046L60.3114 63.5533L60.3722 63.5939L62.5143 65.0335L62.3956 65.0528L62.9745 64.0902C63.1887 63.7244 63.4001 63.3672 63.6027 63.0207L63.6403 62.9544L63.7185 63.0014L65.9706 64.4346L65.8779 64.4517C66.2137 63.8528 66.4916 63.3565 66.6971 62.995C66.7926 62.8324 66.8679 62.6998 66.9316 62.595C66.9506 62.5508 66.9748 62.5078 67.004 62.4667Z" fill="#FAFAFA"/>
<path d="M71.8408 43.5107C71.9041 43.5317 71.9642 43.5575 72.0203 43.5877L72.5095 43.8295L74.2636 44.7257L74.3331 44.7621L74.2665 44.7984L71.8697 46.1011V46.0134L73.126 46.7107L74.2579 47.3524L74.3418 47.3974L74.255 47.4401L71.8466 48.6294V48.5567L73.566 49.6818L74.035 50.0006C74.0935 50.0355 74.1469 50.0749 74.1942 50.1182C74.128 50.0912 74.0667 50.0582 74.0118 50.0198L73.5197 49.7225L71.7655 48.6252L71.7047 48.5867L71.7713 48.5524L74.1652 47.3503V47.4401L73.0305 46.8091L71.7771 46.1097L71.696 46.0647L71.7771 46.022L74.1884 44.7385V44.8091L72.4516 43.8808L72.0116 43.6156C71.9507 43.5843 71.8936 43.5492 71.8408 43.5107Z" fill="#FAFAFA"/>
<path d="M79.04 53.4291C79.0537 53.3789 79.0751 53.3301 79.1037 53.2836L79.3208 52.8772C79.5235 52.5157 79.7984 52.0216 80.1313 51.4184L80.1632 51.3606L80.2269 51.4034L82.4587 52.8537L82.3429 52.8729C82.5542 52.5328 82.7742 52.1799 82.9971 51.8162C83.2026 51.4911 83.3995 51.1745 83.5934 50.8622L83.6368 50.7938L83.7121 50.8472L85.7963 52.3339L85.6979 52.3446L86.821 50.8622C86.9513 50.6954 87.0555 50.5606 87.1394 50.4558C87.1731 50.4059 87.2149 50.3592 87.2639 50.3168C87.2406 50.3697 87.2095 50.4207 87.1713 50.4686L86.8818 50.8964L85.8079 52.3938L85.7702 52.4472L85.7094 52.4045L83.6079 50.9328L83.7266 50.9157L83.1476 51.8697C82.9218 52.2312 82.7018 52.5841 82.4876 52.9242L82.4471 52.9906L82.3718 52.9414L80.1603 51.4761L80.2529 51.459L79.3845 52.905L79.1414 53.2986C79.1134 53.3444 79.0795 53.3881 79.04 53.4291Z" fill="#FAFAFA"/>
<path d="M33.1619 47.1997C33.1764 47.1495 33.1987 47.1007 33.2284 47.0542L33.4427 46.65L34.2561 45.189L34.285 45.1334L34.3487 45.174L36.5805 46.6264L36.4647 46.6435L37.1218 45.589L37.7152 44.635L37.7587 44.5644L37.8339 44.6179L39.9181 46.1045L39.8197 46.1152L40.9428 44.6329C41.0731 44.4682 41.1802 44.3334 41.2613 44.2264C41.2959 44.177 41.3377 44.1304 41.3857 44.0874C41.3631 44.1406 41.332 44.1915 41.2931 44.2393L41.0036 44.6671L39.9297 46.1644L39.8921 46.2157L39.8313 46.1751L37.7326 44.7013L37.8484 44.6842C37.6573 44.9922 37.4605 45.3131 37.2695 45.6382L36.6124 46.6927L36.5689 46.7612L36.4966 46.712L34.2821 45.2446L34.3805 45.2211C34.0274 45.8136 33.7321 46.3056 33.5121 46.6649C33.4108 46.8254 33.3298 46.9558 33.2661 47.0607C33.2397 47.1102 33.2046 47.1569 33.1619 47.1997Z" fill="#FAFAFA"/>
<path d="M53.9863 44.6377C54.0404 44.6062 54.0975 44.5776 54.1571 44.5522L54.6608 44.3276L56.5076 43.5361L56.58 43.504L56.5974 43.5661C56.7624 44.1864 56.9592 44.9222 57.1763 45.7222L57.0721 45.6837L58.4586 45.1404L59.7178 44.6527L59.8105 44.6163V44.6912C59.9668 45.4698 60.0999 46.1885 60.2389 46.8088L60.152 46.7746C61.0205 46.4987 61.7383 46.2719 62.2623 46.1029L62.8412 45.9233C62.909 45.9002 62.9798 45.8823 63.0525 45.8698C62.9911 45.9015 62.9251 45.928 62.8557 45.9489L62.2768 46.15L60.1868 46.858L60.1144 46.8816V46.8238C59.9813 46.2013 59.8249 45.4848 59.66 44.7083L59.77 44.7489L58.5136 45.2388L57.1213 45.78L57.0345 45.8142L57.0142 45.7415C56.8116 44.9415 56.6263 44.2056 56.4671 43.5832L56.5568 43.6131L54.6955 44.3661L54.1745 44.5693C54.1161 44.5981 54.0528 44.6211 53.9863 44.6377Z" fill="#FAFAFA"/>
<path d="M61.1219 39.5484C61.1826 37.6233 61.2926 35.5634 61.2926 35.5634C61.2926 35.5634 65.2526 35.1934 65.4234 32.2094C65.5536 29.9356 65.6058 26.3635 65.626 24.787C65.6275 24.5578 65.5293 24.3342 65.3458 24.1494C65.1624 23.9645 64.9034 23.8281 64.6071 23.7603L58.0187 22.2629L52.4754 25.2875L52.3451 39.4458C52.3277 41.2468 53.9198 42.357 56.3543 42.357C58.7395 42.3612 61.0698 41.311 61.1219 39.5484Z" fill="#FFAD9D"/>
<path d="M61.3014 35.5637C59.4251 35.5269 57.6041 35.086 56.062 34.2953C56.062 34.2953 57.2923 36.4707 61.2349 36.2953L61.3014 35.5637Z" fill="#E88B79"/>
<path d="M60.9365 32.0856C60.972 32.0292 60.9865 31.9668 60.9785 31.9048C60.9705 31.8429 60.9404 31.7836 60.8912 31.7331C60.842 31.6826 60.7755 31.6426 60.6985 31.6174C60.6215 31.5921 60.5368 31.5825 60.4531 31.5894C60.4322 31.4531 60.3431 31.3275 60.2034 31.2373C60.0636 31.147 59.8832 31.0987 59.6976 31.1017C59.5122 31.1124 59.3367 31.1678 59.1981 31.2594C59.0595 31.351 58.9655 31.4737 58.9305 31.6086C58.9041 31.745 58.931 31.884 59.0079 32.0094C59.0848 32.1349 59.2086 32.2415 59.3647 32.3167C59.523 32.3888 59.7024 32.4317 59.8878 32.4417C60.0732 32.4518 60.2592 32.4287 60.43 32.3744C60.5664 32.3371 60.6874 32.2744 60.7812 32.1923C60.8751 32.1102 60.9385 32.0116 60.9655 31.906" fill="#E88B79"/>
<path d="M64.1177 27.6212C64.1201 27.7279 64.0655 27.831 63.9659 27.9083C63.8662 27.9855 63.7294 28.0307 63.5851 28.0341C63.5141 28.039 63.4425 28.0334 63.3745 28.0174C63.3066 28.0014 63.2437 27.9755 63.1896 27.9412C63.1356 27.9068 63.0915 27.8647 63.0599 27.8175C63.0284 27.7702 63.0101 27.7188 63.0061 27.6661C63.0045 27.559 63.0596 27.4557 63.1597 27.3782C63.2597 27.3006 63.3968 27.2551 63.5417 27.2512C63.6126 27.2465 63.6842 27.2525 63.752 27.2687C63.8198 27.2849 63.8824 27.3111 63.9362 27.3457C63.99 27.3802 64.0338 27.4224 64.065 27.4698C64.0962 27.5171 64.1141 27.5686 64.1177 27.6212Z" fill="#263238"/>
<path d="M64.7922 27.2788C64.7227 27.3322 64.303 27.1012 63.7067 27.1034C63.1104 27.1055 62.6733 27.3173 62.6096 27.2702C62.5459 27.2231 62.6472 27.1504 62.8383 27.0563C63.0933 26.9255 63.3963 26.8554 63.7067 26.8552C64.0199 26.8552 64.3246 26.9303 64.5751 27.0691C64.7748 27.1568 64.8269 27.2531 64.7922 27.2788Z" fill="#263238"/>
<path d="M61.0928 30.6316C61.4073 30.558 61.7332 30.5142 62.0625 30.5011C62.216 30.4904 62.352 30.4668 62.3839 30.3898C62.3984 30.2735 62.3629 30.1568 62.2825 30.0562L61.8339 29.2005C61.2057 27.9792 60.7541 26.976 60.8207 26.9567C60.8873 26.9374 61.4489 27.9128 62.0741 29.1342L62.5054 29.9898C62.6024 30.1258 62.6301 30.2829 62.5836 30.4326C62.5619 30.4723 62.5282 30.5078 62.485 30.5363C62.4418 30.5649 62.3904 30.5857 62.3347 30.5973C62.2507 30.6142 62.164 30.6228 62.077 30.623C61.7506 30.6548 61.4202 30.6577 61.0928 30.6316Z" fill="#263238"/>
<path d="M59.3389 30.9345C59.4344 30.9345 59.4373 31.4093 59.9902 31.7494C60.5431 32.0896 61.2349 32.0361 61.2378 32.1024C61.2378 32.1323 61.0844 32.1965 60.7949 32.2008C60.4156 32.2057 60.0463 32.111 59.7528 31.9334C59.4695 31.7637 59.2877 31.5187 59.2462 31.2511C59.2202 31.05 59.2925 30.9323 59.3389 30.9345Z" fill="#263238"/>
<path d="M59.2317 27.0589C59.168 27.1744 58.6672 27.0888 58.0738 27.1166C57.4804 27.1444 56.9738 27.2578 56.9159 27.1466C56.8841 27.0931 56.9796 26.9861 57.188 26.8813C57.4511 26.7529 57.756 26.679 58.0709 26.6674C58.3816 26.6535 58.6913 26.7039 58.9654 26.8129C59.1593 26.9027 59.2577 27.0033 59.2317 27.0589Z" fill="#263238"/>
<path d="M64.9254 26.1985C64.798 26.299 64.2972 26.1985 63.698 26.1985C63.0988 26.1985 62.5922 26.2648 62.4765 26.16C62.4243 26.1087 62.5025 26.0103 62.7254 25.914C63.0322 25.7961 63.3757 25.7401 63.7212 25.7514C64.0658 25.7523 64.4038 25.8218 64.6996 25.9525C64.9109 26.0466 64.9804 26.1493 64.9254 26.1985Z" fill="#263238"/>
<path d="M59.0609 27.9169C59.0377 27.9169 58.9683 27.8378 58.7975 27.7501C58.5753 27.6376 58.3076 27.5847 58.0391 27.6003C57.7672 27.6216 57.5062 27.6906 57.2778 27.8014C57.0954 27.8848 56.9883 27.949 56.9883 27.9362C56.9883 27.9233 57.052 27.842 57.2285 27.7372C57.4585 27.5959 57.7411 27.5094 58.0391 27.4891C58.1898 27.4795 58.3417 27.4921 58.4858 27.5262C58.63 27.5604 58.7635 27.6154 58.8785 27.688C59.0377 27.8057 59.0754 27.9126 59.0609 27.9169Z" fill="#263238"/>
<path d="M57.0199 28.9262C56.9996 28.9518 56.9128 28.9411 56.8289 28.9026C56.7449 28.8641 56.6928 28.8128 56.716 28.7871C56.7391 28.7615 56.8231 28.77 56.907 28.8085C56.991 28.847 57.0431 28.9005 57.0199 28.9262Z" fill="#E88B79"/>
<path d="M58.0536 28.9802C58.0102 28.9802 57.9899 28.9181 58.0015 28.8518C58.0131 28.7855 58.0594 28.732 58.0999 28.7363C58.1404 28.7406 58.1636 28.7984 58.152 28.8668C58.1404 28.9353 58.0941 28.9845 58.0536 28.9802Z" fill="#E88B79"/>
<path d="M57.4888 30.2487C57.4512 30.2359 57.4483 30.1824 57.4888 30.1311C57.5293 30.0798 57.5785 30.0455 57.6162 30.0584C57.6538 30.0712 57.6567 30.1225 57.6162 30.176C57.5756 30.2295 57.538 30.2616 57.4888 30.2487Z" fill="#E88B79"/>
<path d="M64.118 28.8573C64.0948 28.883 64.0283 28.8809 63.9704 28.8573C63.9125 28.8338 63.8835 28.7846 63.9067 28.7589C63.9298 28.7333 63.9964 28.7354 64.0543 28.7589C64.1122 28.7825 64.1412 28.8317 64.118 28.8573Z" fill="#E88B79"/>
<path d="M64.7748 28.7877C64.74 28.7727 64.7458 28.7129 64.7921 28.6551C64.8385 28.5974 64.9021 28.5631 64.9398 28.5781C64.9774 28.5931 64.9687 28.653 64.9224 28.7107C64.8761 28.7685 64.8095 28.8027 64.7748 28.7877Z" fill="#E88B79"/>
<path d="M64.332 30.0575C64.2915 30.0575 64.2741 29.9783 64.2944 29.8906C64.3146 29.8029 64.361 29.7388 64.4044 29.7452C64.4478 29.7516 64.4623 29.8243 64.442 29.9099C64.4217 29.9955 64.3725 30.0618 64.332 30.0575Z" fill="#E88B79"/>
<path d="M64.1179 34.7401C64.1179 34.7401 64.2424 34.7764 64.4682 34.8235C64.785 34.8902 65.1161 34.9112 65.4437 34.8855C65.9283 34.8435 66.3884 34.7053 66.7753 34.4855C67.2442 34.2184 67.576 33.8412 67.716 33.416C67.8483 32.9891 67.808 32.5428 67.6002 32.1326C67.4304 31.7946 67.1204 31.5049 66.7145 31.3048C66.4383 31.1724 66.1259 31.087 65.7997 31.0545C65.5682 31.0331 65.4379 31.0545 65.435 31.0331C65.4656 31.0246 65.4978 31.0196 65.5305 31.0182C65.622 31.012 65.7141 31.012 65.8055 31.0182C66.1479 31.0348 66.4797 31.1126 66.7724 31.2449C67.2085 31.4455 67.5439 31.746 67.7276 32.1005C67.9596 32.5317 68.0061 33.0053 67.8608 33.4567C67.7181 33.9105 67.3635 34.3127 66.8592 34.5925C66.4507 34.8194 65.9644 34.9572 65.4553 34.9903C65.1146 35.0096 64.7723 34.9753 64.4508 34.8898C64.3277 34.8564 64.2146 34.8055 64.1179 34.7401Z" fill="#FF725E"/>
<g opacity="0.2">
<path d="M58.5801 54.6028C58.6611 54.6306 58.4701 55.1076 57.7725 55.7065C57.3555 56.0551 56.8671 56.3532 56.3251 56.5899C54.9885 57.1888 53.3925 57.387 51.8644 57.1439C51.2545 57.0482 50.6686 56.883 50.1275 56.6541C49.2041 56.2584 48.8133 55.8541 48.877 55.7985C48.9407 55.7429 49.456 56.0124 50.3649 56.2926C51.5251 56.6651 52.8066 56.7809 54.0541 56.6259C55.3016 56.471 56.4615 56.0521 57.3932 55.4199C58.1169 54.9493 58.4788 54.5578 58.5801 54.6028Z" fill="black"/>
</g>
<g opacity="0.2">
<path d="M44.075 49.3818C44.075 49.3818 49.1262 58.0941 48.857 59.2342C48.5878 60.3743 45.0505 64.0855 45.0505 64.0855L47.6267 59.7155C46.2066 56.3176 45.0211 52.8686 44.075 49.3818Z" fill="black"/>
</g>
<path d="M82.6876 51.1703C82.1146 50.4196 81.7339 49.5973 81.5645 48.7446C81.6079 48.7446 81.8047 49.2922 82.1144 49.9596C82.4242 50.627 82.7223 51.1553 82.6876 51.1703Z" fill="#263238"/>
<path d="M83.301 50.5694C82.9147 50.2906 82.5807 49.9747 82.3081 49.6303C81.9935 49.3061 81.7412 48.9512 81.5583 48.5758C81.596 48.5608 81.952 49.0228 82.4268 49.5704C82.9015 50.118 83.3444 50.548 83.301 50.5694Z" fill="#263238"/>
<path d="M64.8616 58.4017C64.7471 58.4803 64.6242 58.5519 64.494 58.6156L63.4664 59.1247L60.0709 60.8359L56.6841 62.5728L55.6564 63.0969C55.5347 63.1653 55.4049 63.2254 55.2686 63.2766C55.3777 63.1979 55.4959 63.1263 55.6217 63.0627C55.8562 62.9279 56.2006 62.7397 56.6233 62.5087C57.4743 62.0466 58.6496 61.422 59.984 60.744C61.3185 60.0659 62.5227 59.4606 63.4085 59.0477C63.8514 58.8338 64.2103 58.667 64.4621 58.5515C64.59 58.4942 64.7235 58.4441 64.8616 58.4017Z" fill="#263238"/>
<path d="M29.2771 47.756C29.3827 47.3447 29.5588 46.9451 29.801 46.5667C29.9991 46.1745 30.2647 45.8028 30.5913 45.4608C30.6289 45.4758 30.3018 45.9785 29.94 46.6095C29.7466 47 29.5253 47.3827 29.2771 47.756Z" fill="#263238"/>
<path d="M30.2325 48.7079C30.2047 48.5467 30.2047 48.3835 30.2325 48.2223C30.2325 47.9229 30.2817 47.5079 30.3569 47.0544C30.4322 46.601 30.5248 46.1988 30.6088 45.8972C30.6399 45.7359 30.6972 45.5778 30.7796 45.4266C30.7794 45.589 30.7571 45.751 30.713 45.9101C30.658 46.2052 30.5798 46.6138 30.5046 47.0673C30.4293 47.5207 30.3772 47.9229 30.3367 48.2266C30.3257 48.3894 30.2908 48.5508 30.2325 48.7079Z" fill="#263238"/>
<path d="M57.9841 20.5089C58.5642 21.2868 58.7855 22.1832 58.6147 23.0623C58.444 23.9415 57.8903 24.7557 57.0376 25.3816C56.1691 25.9976 54.9765 26.4169 54.4323 27.2147C53.8534 28.0532 54.1631 29.0671 54.5771 29.9548C54.991 30.8425 55.5149 31.758 55.3384 32.6885C55.1213 33.8457 53.8679 34.7783 53.6015 35.9291C53.0921 38.1302 56.2965 40.0724 55.9173 42.2885C55.7552 43.2596 54.9244 44.0853 54.2036 44.9066C53.4829 45.728 52.8287 46.6842 53.0776 47.6467C53.1963 48.1024 53.7202 48.5024 53.6565 48.9708C53.4221 50.8446 49.8355 51.0949 49.3145 50.7676C49.9687 49.8457 49.1958 48.4147 49.1176 48.3419C49.0029 48.7501 48.7177 49.1214 48.3023 49.4035C47.8868 49.6856 47.362 49.8642 46.8019 49.9141C46.9422 49.1974 46.864 48.4666 46.5732 47.7751C46.3578 48.0388 46.0673 48.2648 45.7219 48.4372C45.3765 48.6097 44.9844 48.7246 44.573 48.774C45.2514 46.168 44.8258 43.4708 43.3543 41.05C42.8361 40.2072 42.1761 39.3388 42.344 38.4147C42.564 37.2254 44.0809 36.4168 44.7872 35.3388C45.589 34.1259 45.3198 32.6971 45.0998 31.3559C44.8798 30.0147 44.7698 28.5431 45.8119 27.4351C46.4487 26.7591 47.4561 26.2907 47.9684 25.5591C48.4461 24.8811 48.4258 24.0746 48.7153 23.341C49.2421 22.0105 50.5621 20.5089 52.3337 20.0554C54.1052 19.6019 56.861 19.1634 57.9754 20.5089" fill="#263238"/>
<path d="M45.3137 45.9812C44.8795 46.9052 44.4453 47.8635 44.5322 48.8389C44.619 49.8143 45.4006 50.8261 46.6771 51.0977C47.1606 51.2004 47.7279 51.2068 48.0695 51.4806C48.2002 51.6013 48.2863 51.7449 48.3193 51.8975C48.3523 52.0502 48.331 52.2065 48.2577 52.3512C48.1061 52.6392 47.8866 52.905 47.6092 53.1362C48.4058 52.8583 49.0786 52.4183 49.5487 51.8678C49.66 52.2433 49.6451 52.6332 49.5054 53.0035C49.3656 53.3738 49.1052 53.7131 48.7469 53.9918C49.7224 54.0196 50.5734 53.5234 51.2653 53.0122C52.84 51.8443 54.16 50.302 53.966 48.6614C53.7721 47.0207 52.1047 45.6047 52.1105 43.9555C52.1105 43.3138 52.3681 42.7085 52.4 42.0775C52.4318 41.4464 52.2118 40.747 51.4997 40.3983" fill="#263238"/>
<path d="M57.5817 20.6222C58.0083 20.254 58.5518 19.9696 59.1635 19.7945C59.7753 19.6194 60.4362 19.5591 61.0872 19.619C62.3972 19.7532 63.5945 20.239 64.4508 20.9837C65.2979 21.7271 65.8995 22.6059 66.2079 23.5506C66.3274 23.8266 66.3736 24.1172 66.344 24.4062C66.3288 24.5497 66.2685 24.6885 66.168 24.8118C66.0675 24.9351 65.9296 25.0393 65.765 25.1163C65.5832 25.18 65.3838 25.2112 65.1826 25.2075C64.9815 25.2038 64.7844 25.1652 64.6072 25.095C64.255 24.9535 63.9354 24.7715 63.6606 24.5559C63.5717 24.8408 63.3583 25.0961 63.0533 25.2823C62.7484 25.4686 62.369 25.5755 61.9736 25.5864C61.5783 25.5974 61.189 25.5118 60.8661 25.3429C60.5432 25.1741 60.3045 24.9313 60.1869 24.6522C59.9731 25.0344 59.5983 25.3557 59.1181 25.5682C58.6379 25.7808 58.0778 25.8734 57.5208 25.8324C56.9638 25.7914 56.4395 25.6188 56.0255 25.3404C55.6116 25.0619 55.33 24.6923 55.2225 24.2864C55.0228 23.542 55.4367 22.7762 56.0157 22.1474C56.5946 21.5185 57.3443 20.988 57.9406 20.3698" fill="#263238"/>
<path d="M42.6797 40.4533C42.7578 40.3853 42.8303 40.3138 42.8968 40.2394C43.0734 40.0215 43.1785 39.7761 43.2036 39.5228C43.232 39.1213 43.199 38.7188 43.1052 38.3228C43.0596 38.0704 43.048 37.8154 43.0705 37.5613C43.1038 37.2733 43.2202 36.994 43.412 36.7421C43.8086 36.2094 44.5062 35.7731 45.2647 35.3602C45.6439 35.1463 46.0375 34.9324 46.4225 34.6907C46.8104 34.4453 47.1341 34.1496 47.3778 33.818C47.6116 33.4616 47.7296 33.0697 47.7223 32.6736C47.712 32.2572 47.6481 31.8425 47.5312 31.4351C47.4212 31.018 47.2881 30.5902 47.2417 30.1517C47.163 29.6996 47.2033 29.2406 47.3604 28.7998C47.4488 28.5767 47.5877 28.3662 47.7715 28.1774C47.9564 27.9948 48.1757 27.8327 48.4228 27.6961C48.9112 27.4485 49.4251 27.2297 49.9599 27.0416C50.4676 26.8657 50.9277 26.6229 51.3175 26.325C51.6664 26.0244 51.8781 25.6501 51.9225 25.2555C51.9891 24.8704 51.9717 24.4876 51.9862 24.1132C51.9872 23.751 52.0594 23.3907 52.2004 23.0437C52.4656 22.4138 52.9615 21.8504 53.6332 21.4159C54.1841 21.0556 54.8492 20.8039 55.5669 20.6844C56.1088 20.5972 56.6714 20.6097 57.2053 20.7207C57.5416 20.7919 57.8521 20.9176 58.1143 21.0886C58.1812 21.1334 58.2432 21.182 58.2995 21.2341C58.3371 21.2683 58.3574 21.2876 58.3545 21.2897C58.3516 21.2919 58.2735 21.217 58.094 21.1058C57.8291 20.9452 57.5214 20.8279 57.1908 20.7614C56.6648 20.6607 56.1136 20.6556 55.5843 20.7464C54.8846 20.8681 54.2382 21.1191 53.7056 21.4758C53.0523 21.9025 52.5723 22.455 52.3191 23.0715C52.1841 23.4142 52.1159 23.7692 52.1164 24.1261C52.1249 24.5108 52.1066 24.8956 52.0614 25.279C52.0121 25.6931 51.7895 26.0856 51.4246 26.402C51.024 26.7097 50.5513 26.9611 50.0293 27.1442C49.5021 27.329 48.995 27.5435 48.5125 27.7859C48.2774 27.9158 48.0688 28.07 47.893 28.2437C47.7199 28.4223 47.5888 28.6211 47.5052 28.8319C47.3537 29.2588 47.3153 29.7034 47.3923 30.141C47.4473 30.5688 47.5804 30.9966 47.6817 31.4244C47.7993 31.8383 47.8632 32.2594 47.8728 32.6822C47.8783 33.0949 47.7534 33.5029 47.5081 33.8736C47.2553 34.2154 46.9198 34.5199 46.5181 34.772C46.1389 35.0244 45.7394 35.2362 45.3602 35.4437C44.5989 35.8501 43.9128 36.2757 43.5249 36.7891C43.3371 37.0306 43.2216 37.299 43.1863 37.5763C43.1602 37.8258 43.168 38.0766 43.2094 38.3249C43.2979 38.7257 43.3222 39.1328 43.2818 39.5378C43.2498 39.7955 43.1336 40.0436 42.9431 40.2608C42.8709 40.3356 42.7818 40.4007 42.6797 40.4533Z" fill="#455A64"/>
<path d="M49.6067 45.3621C49.5587 45.2807 49.5209 45.1962 49.4938 45.1097C49.4317 44.8568 49.4445 44.597 49.5315 44.3482C49.6742 43.9599 49.8591 43.5808 50.0844 43.2145C50.313 42.7867 50.5996 42.269 50.4867 41.6894C50.4153 41.3897 50.2627 41.1037 50.038 40.8487C49.7925 40.568 49.5278 40.2967 49.2449 40.0359C48.9381 39.7532 48.675 39.4462 48.4604 39.1204C48.1199 38.5644 47.9683 37.9554 48.0187 37.3463C48.0692 36.7371 48.3202 36.1463 48.7499 35.6252C49.3665 34.883 50.3478 34.3418 51.2046 33.7151C51.6344 33.4103 52.0029 33.0617 52.2988 32.6798C52.4362 32.4922 52.5431 32.2933 52.6172 32.0873C52.6833 31.8834 52.7154 31.6744 52.7128 31.4648C52.6838 30.6242 52.2293 29.852 52.0788 29.0712C51.9848 28.6993 52.0044 28.3166 52.1361 27.9509C52.2678 27.5853 52.5083 27.246 52.8401 26.9579C53.4176 26.466 54.0827 26.0342 54.8172 25.6744C55.4142 25.3809 55.9786 25.0526 56.5048 24.6926C56.9017 24.4215 57.2361 24.1043 57.4948 23.7536C57.706 23.4509 57.8273 23.1183 57.8509 22.7782C57.8605 22.8665 57.8605 22.9552 57.8509 23.0434C57.8141 23.2974 57.716 23.5444 57.5614 23.7728C57.3084 24.1327 56.9758 24.4588 56.5772 24.7375C56.0544 25.1054 55.4908 25.4402 54.8925 25.7386C54.1728 26.0952 53.5205 26.5211 52.953 27.0049C52.6342 27.2837 52.4038 27.6116 52.2786 27.9647C52.1534 28.3178 52.1366 28.6871 52.2293 29.0456C52.3799 29.8092 52.8401 30.5792 52.8749 31.452C52.8768 31.668 52.8437 31.8834 52.7764 32.0937C52.6986 32.3086 52.5868 32.5161 52.4435 32.7118C52.1409 33.1059 51.7637 33.466 51.3233 33.7814C50.4549 34.4231 49.4823 34.9514 48.886 35.6701C48.4685 36.1765 48.2241 36.7503 48.1736 37.3421C48.1232 37.9339 48.2683 38.5258 48.5965 39.0669C48.8054 39.387 49.0617 39.689 49.3607 39.9674C49.6502 40.2455 49.9223 40.5107 50.1509 40.791C50.3809 41.0563 50.5365 41.3531 50.6083 41.6637C50.7183 42.2733 50.4115 42.7974 50.177 43.2252C49.9457 43.5874 49.7522 43.9621 49.5981 44.346C49.5074 44.589 49.4867 44.8433 49.5373 45.0925C49.572 45.2744 49.6154 45.3599 49.6067 45.3621Z" fill="#455A64"/>
<path d="M64.7749 24.2097C64.7489 24.2097 64.691 23.8567 64.5492 23.2941C64.4647 22.9669 64.3367 22.6466 64.1671 22.338C63.9611 21.9627 63.6436 21.6264 63.2379 21.354C62.8241 21.0903 62.3129 20.9242 61.7702 20.877C61.3235 20.8337 60.871 20.8337 60.4242 20.877C59.6571 20.9498 59.1882 21.0332 59.1824 21.0139C59.2863 20.98 59.395 20.9549 59.5066 20.9391C59.8039 20.8803 60.1054 20.8339 60.4097 20.8C60.8647 20.7419 61.3284 20.7304 61.7876 20.7658C62.3574 20.8129 62.8944 20.9867 63.3276 21.2642C63.7513 21.5477 64.0802 21.8998 64.2886 22.2931C64.4557 22.6097 64.5751 22.939 64.6447 23.2749C64.7084 23.5594 64.7373 23.7925 64.7547 23.953C64.7741 24.0377 64.7809 24.1238 64.7749 24.2097Z" fill="#455A64"/>
<path d="M60.9657 24.8366C60.9694 24.6099 60.9907 24.3835 61.0293 24.1585C61.1084 23.6203 61.0485 23.076 60.8528 22.5543C60.7378 22.272 60.5478 22.0095 60.2941 21.7821C60.0839 21.5988 59.8273 21.4476 59.5386 21.3372C59.2631 21.2438 58.9705 21.1811 58.6702 21.1511C58.751 21.1335 58.8361 21.1299 58.9191 21.1404C59.1485 21.1527 59.3731 21.1954 59.582 21.2666C59.8928 21.3724 60.17 21.5254 60.3954 21.7158C60.6684 21.9503 60.8724 22.2242 60.9946 22.52C61.1974 23.055 61.2448 23.6155 61.1336 24.165C61.0988 24.3789 61.0583 24.5436 61.0265 24.6591C61.0207 24.7205 61.0001 24.7806 60.9657 24.8366Z" fill="#455A64"/>
<path d="M94.6714 16.4938V8.54517H19.3831V78.1941H94.6714V54.3867L89.406 56.9535V65.993H24.9206V16.4104H89.406V20.5259C90.9691 19.7665 93.2588 17.9334 94.6714 16.4938Z" fill="#F5F5F5"/>
<path d="M26.9237 12.4432C27.0674 12.3963 27.1893 12.3191 27.2743 12.2214C27.3592 12.1236 27.4034 12.0096 27.4013 11.8935C27.4077 11.8174 27.3929 11.7412 27.3579 11.6695C27.3229 11.5978 27.2684 11.5321 27.1977 11.4766C27.1271 11.421 27.0418 11.3768 26.9471 11.3465C26.8524 11.3163 26.7504 11.3007 26.6472 11.3007C26.5441 11.3007 26.442 11.3163 26.3473 11.3465C26.2526 11.3768 26.1674 11.421 26.0967 11.4766C26.0261 11.5321 25.9716 11.5978 25.9365 11.6695C25.9015 11.7412 25.8868 11.8174 25.8931 11.8935C25.8906 12.0105 25.9348 12.1255 26.0203 12.2241C26.1057 12.3226 26.2287 12.4003 26.3737 12.4475C26.1371 12.4682 25.9141 12.5402 25.7328 12.6544C25.5515 12.7686 25.4199 12.9199 25.3547 13.0892C25.6271 13.3143 25.9981 13.4612 26.4026 13.5042H26.8687C27.2805 13.4616 27.6572 13.3095 27.9281 13.0764C27.8644 12.9092 27.7349 12.7598 27.556 12.6471C27.3772 12.5343 27.1571 12.4634 26.9237 12.4432Z" fill="#455A64"/>
<path d="M26.6428 13.5228C26.6428 13.5228 26.7962 13.5228 27.0538 13.465C27.4191 13.3882 27.7398 13.2243 27.9657 12.9987C28.1308 12.8341 28.2379 12.6418 28.2773 12.439C28.3167 12.2363 28.2872 12.0294 28.1915 11.8372C28.0734 11.6029 27.8613 11.4009 27.5834 11.2582C27.3056 11.1156 26.9753 11.0391 26.637 11.0391C26.2987 11.0391 25.9684 11.1156 25.6906 11.2582C25.4127 11.4009 25.2006 11.6029 25.0825 11.8372C24.9884 12.0299 24.9602 12.2368 25.0006 12.4395C25.041 12.6421 25.1487 12.8343 25.3141 12.9987C25.5408 13.2238 25.8627 13.3864 26.2288 13.4607C26.4894 13.5121 26.6428 13.5078 26.6428 13.5185C26.6428 13.5292 26.6052 13.5185 26.5328 13.5185C26.4264 13.5194 26.3204 13.5101 26.2173 13.4907C25.8301 13.4275 25.485 13.2664 25.2418 13.0351C25.0719 12.877 24.9549 12.6916 24.9002 12.4939C24.8402 12.2638 24.8642 12.0261 24.9697 11.8051C25.0864 11.5597 25.3002 11.3458 25.5833 11.1912C25.8875 11.024 26.2565 10.9337 26.6356 10.9337C27.0146 10.9337 27.3836 11.024 27.6878 11.1912C27.9719 11.3451 28.1859 11.5592 28.3015 11.8051C28.409 12.0257 28.434 12.2637 28.3738 12.4939C28.3237 12.6938 28.2084 12.8818 28.038 13.0415C27.7943 13.2723 27.4511 13.4345 27.0654 13.5014C26.9618 13.5186 26.8561 13.5279 26.7499 13.5292C26.6804 13.527 26.6428 13.527 26.6428 13.5228Z" fill="#455A64"/>
<path d="M89.3801 10.9581C89.3806 11.0131 89.3591 11.067 89.3182 11.1129C89.2774 11.1589 89.219 11.1948 89.1504 11.2163C89.0819 11.2377 89.0063 11.2437 88.9332 11.2333C88.8601 11.223 88.7927 11.1969 88.7397 11.1583C88.6867 11.1197 88.6503 11.0704 88.6352 11.0166C88.6202 10.9627 88.627 10.9067 88.655 10.8558C88.6829 10.8048 88.7307 10.7611 88.7923 10.7302C88.8538 10.6993 88.9264 10.6826 89.0008 10.6821C89.0503 10.6819 89.0993 10.6888 89.1451 10.7025C89.1909 10.7162 89.2326 10.7364 89.2678 10.7621C89.303 10.7877 89.331 10.8182 89.3503 10.8518C89.3696 10.8854 89.3797 10.9216 89.3801 10.9581Z" fill="#455A64"/>
<path d="M89.38 11.9557C89.3812 12.0108 89.3601 12.0649 89.3196 12.1111C89.2791 12.1573 89.2209 12.1936 89.1524 12.2154C89.0839 12.2372 89.0083 12.2434 88.935 12.2333C88.8617 12.2233 88.7941 12.1974 88.7408 12.1589C88.6874 12.1204 88.6508 12.071 88.6355 12.0171C88.6202 11.9632 88.6268 11.9071 88.6547 11.856C88.6826 11.8049 88.7303 11.7611 88.7919 11.7301C88.8536 11.6991 88.9263 11.6823 89.0008 11.6819C89.1001 11.6813 89.1957 11.7098 89.2667 11.7611C89.3378 11.8124 89.3785 11.8823 89.38 11.9557Z" fill="#455A64"/>
<path d="M89.4059 12.9543C89.407 13.0094 89.386 13.0635 89.3455 13.1098C89.305 13.156 89.2468 13.1923 89.1783 13.2141C89.1098 13.2358 89.0341 13.2421 88.9608 13.232C88.8875 13.2219 88.82 13.196 88.7666 13.1575C88.7133 13.119 88.6767 13.0697 88.6614 13.0158C88.646 12.9619 88.6527 12.9058 88.6806 12.8547C88.7084 12.8036 88.7562 12.7598 88.8178 12.7288C88.8794 12.6978 88.9521 12.681 89.0267 12.6806C89.126 12.68 89.2216 12.7084 89.2926 12.7597C89.3637 12.811 89.4044 12.881 89.4059 12.9543Z" fill="#455A64"/>
<path d="M63.4722 12.2802C63.4722 12.3123 56.0502 12.3358 46.9001 12.3358C37.7499 12.3358 30.3279 12.3123 30.3279 12.2802C30.3279 12.2481 37.747 12.2246 46.903 12.2246C56.0589 12.2246 63.4722 12.2503 63.4722 12.2802Z" fill="#263238"/>
<path d="M36.6237 72.1113L35.8595 71.861C35.4553 72.0187 34.9922 72.0741 34.5413 72.0187C34.0904 71.9633 33.6765 71.8001 33.363 71.5543C33.0495 71.3085 32.8537 70.9935 32.8057 70.6575C32.7576 70.3216 32.8599 69.9833 33.0969 69.6945C33.3339 69.4057 33.6925 69.1822 34.1178 69.0583C34.5431 68.9345 35.0116 68.9171 35.4515 69.0088C35.8915 69.1005 36.2786 69.2963 36.5536 69.5661C36.8286 69.836 36.9762 70.165 36.974 70.5027C36.9781 70.8867 36.7905 71.2583 36.4472 71.5466L36.6237 72.1113ZM34.8377 69.0589C34.5282 69.0503 34.2203 69.0957 33.9389 69.1913C33.6575 69.2869 33.4105 69.4302 33.2178 69.6094C33.0252 69.7886 32.8923 69.9988 32.83 70.223C32.7676 70.4472 32.7775 70.6791 32.8589 70.9C32.9403 71.1208 33.0908 71.3244 33.2984 71.4943C33.506 71.6642 33.7647 71.7956 34.0537 71.8779C34.3428 71.9602 34.6539 71.9911 34.9621 71.9681C35.2703 71.9451 35.5668 71.8689 35.8277 71.7455L35.8595 71.7327L36.4211 71.9166L36.2938 71.5081L36.3198 71.4888C36.5773 71.2789 36.7465 71.0182 36.8067 70.7384C36.867 70.4586 36.8157 70.172 36.6591 69.9134C36.5026 69.6548 36.2475 69.4355 35.9251 69.2822C35.6027 69.129 35.2269 69.0484 34.8435 69.0503L34.8377 69.0589Z" fill="#263238"/>
<path d="M41.5275 71.8652L40.6591 70.2909L39.012 69.1786L42.9893 69.153L41.5275 71.8652ZM39.3796 69.2984L40.7777 70.2481L41.5246 71.5914L42.7693 69.2813L39.3796 69.2984Z" fill="#263238"/>
<path d="M42.8378 69.1711L40.6724 70.2142L40.7514 70.3038L42.9169 69.2607L42.8378 69.1711Z" fill="#263238"/>
<path d="M89.2205 71.914L87.5589 70.7097L86.0131 71.8755L85.9697 68.391L89.1771 68.3696L89.2205 71.914ZM87.5589 70.5579L87.611 70.5964L89.0584 71.6659L89.0207 68.4851L86.1058 68.5044L86.1434 71.6231L87.5589 70.5579Z" fill="#263238"/>
<path d="M30.3655 69.5226C30.3081 69.3116 30.1513 69.1224 29.9229 68.9889C29.6945 68.8553 29.4094 68.7859 29.1183 68.7931C28.8272 68.8003 28.549 68.8836 28.3332 69.0281C28.1174 69.1727 27.978 69.3691 27.9398 69.5825C27.8957 69.3701 27.7514 69.1762 27.5323 69.035C27.3132 68.8938 27.0335 68.8145 26.7428 68.8112C26.4521 68.8078 26.1692 68.8807 25.9443 69.0168C25.7194 69.1529 25.5669 69.3434 25.514 69.5547C25.4528 69.8657 25.5565 70.1822 25.8035 70.4381C26.0517 70.6898 26.3437 70.9164 26.6719 71.1119L27.9658 71.9675C28.4029 71.6723 28.7734 71.3964 29.2105 71.1012C29.5384 70.9013 29.8302 70.6713 30.079 70.4167C30.3261 70.1568 30.4287 69.8367 30.3655 69.5226Z" fill="#FF725E"/>
<path d="M19.383 34.8559C19.7043 35.0249 19.8403 35.1276 20.1558 35.303C20.3027 35.3996 20.4828 35.4646 20.6763 35.4906C20.8699 35.5166 21.0694 35.5028 21.2529 35.4506C21.6235 35.3094 21.745 34.9522 21.69 34.6442C21.635 34.3361 21.4469 34.0538 21.3629 33.7522C21.4881 33.7875 21.6255 33.7915 21.754 33.7637C21.8826 33.7359 21.9954 33.6778 22.075 33.5982C22.15 33.5155 22.2017 33.4225 22.2271 33.3248C22.2524 33.227 22.2509 33.1265 22.2227 33.0292C22.1704 32.8366 22.0827 32.6502 21.9621 32.4752C22.0577 32.5864 22.3182 32.5458 22.405 32.4303C22.4718 32.3052 22.4718 32.166 22.405 32.041C22.3225 31.7155 22.1062 31.4167 21.7856 31.1853C21.6224 31.0725 21.4145 31.0013 21.1924 30.9825C20.9704 30.9636 20.746 30.998 20.5524 31.0805C20.2629 31.2303 19.7303 31.4506 19.6435 31.7073C19.3395 32.6099 19.4437 33.9404 19.354 34.8687" fill="#E0E0E0"/>
<path d="M88.5116 32.552C88.6718 32.6014 88.8 32.6946 88.8695 32.8121C88.9391 32.9297 88.9446 33.0625 88.885 33.183C88.6447 33.6643 88.2568 34.4172 87.9674 34.875C87.8847 35.0259 87.7638 35.1638 87.6113 35.2814C87.5359 35.3456 87.4352 35.3908 87.3233 35.4108C87.2114 35.4307 87.0939 35.4243 86.9871 35.3925C86.8803 35.3607 86.7897 35.3051 86.7277 35.2334C86.6658 35.1617 86.6357 35.0775 86.6416 34.9926C86.6389 34.8203 86.6832 34.6493 86.7719 34.4899C86.9774 34.0407 87.3276 33.3691 87.6403 32.8236C87.7083 32.7035 87.8373 32.6078 87.9996 32.557C88.1619 32.5062 88.3446 32.5044 88.5087 32.552H88.5116Z" fill="#FFAD9D"/>
<path d="M89.4667 33.4379C89.6314 33.4865 89.7633 33.5812 89.8338 33.7014C89.9043 33.8216 89.9076 33.9576 89.843 34.0796C89.6028 34.5609 89.2149 35.3138 88.9254 35.7716C88.8407 35.9222 88.719 36.06 88.5665 36.178C88.4915 36.2427 88.391 36.2883 88.279 36.3085C88.1671 36.3287 88.0494 36.3224 87.9425 36.2905C87.8357 36.2586 87.7451 36.2027 87.6836 36.1307C87.622 36.0587 87.5927 35.9742 87.5996 35.8892C87.5976 35.7171 87.6408 35.5464 87.727 35.3865C87.9325 34.9395 88.2857 34.2657 88.5954 33.7202C88.6634 33.6001 88.7924 33.5044 88.9547 33.4536C89.117 33.4028 89.2997 33.401 89.4638 33.4486L89.4667 33.4379Z" fill="#FFAD9D"/>
<path d="M90.3611 34.0003C90.5005 34.0422 90.6123 34.1226 90.6728 34.2244C90.7334 34.3263 90.7379 34.4415 90.6854 34.5457C90.4769 34.9628 90.1411 35.6152 89.8893 36.011C89.8176 36.1417 89.7136 36.2614 89.5825 36.3639C89.5174 36.42 89.4302 36.4596 89.3331 36.4771C89.2359 36.4946 89.1338 36.4892 89.0411 36.4615C88.9484 36.4339 88.8698 36.3854 88.8163 36.323C88.7628 36.2606 88.7372 36.1874 88.743 36.1136C88.7419 35.9671 88.7793 35.8218 88.853 35.6858C89.0325 35.2965 89.3364 34.7147 89.5998 34.242C89.6284 34.1893 89.6709 34.1414 89.7248 34.1009C89.7787 34.0605 89.843 34.0284 89.9138 34.0065C89.9847 33.9846 90.0607 33.9734 90.1375 33.9734C90.2143 33.9734 90.2903 33.9847 90.3611 34.0067V34.0003Z" fill="#FFAD9D"/>
<path d="M91.5133 34.1883C91.6541 34.2303 91.7669 34.3114 91.8276 34.4142C91.8882 34.517 91.8918 34.6333 91.8375 34.7381C91.6291 35.1552 91.2933 35.8076 91.0386 36.2097C90.9669 36.341 90.8617 36.4608 90.7288 36.5627C90.6618 36.6134 90.5774 36.6498 90.4846 36.6679C90.3919 36.686 90.2942 36.6851 90.202 36.6653C90.1096 36.6346 90.0309 36.5851 89.9751 36.5226C89.9192 36.4602 89.8885 36.3873 89.8865 36.3124C89.8865 36.1658 89.9248 36.0205 89.9994 35.8846C90.1759 35.4932 90.4828 34.9092 90.7462 34.4343C90.7745 34.3809 90.817 34.3323 90.8711 34.2913C90.9253 34.2503 90.9901 34.2177 91.0617 34.1956C91.1333 34.1734 91.2101 34.1621 91.2877 34.1624C91.3653 34.1626 91.442 34.1743 91.5133 34.1969V34.1883Z" fill="#FFAD9D"/>
<path d="M87.6836 35.301C87.7855 34.9897 87.936 34.6882 88.1323 34.4026C88.2809 34.1022 88.4751 33.8151 88.7112 33.547C88.6112 33.8584 88.4616 34.16 88.2654 34.4454C88.1165 34.7461 87.9213 35.0332 87.6836 35.301Z" fill="#E88B79"/>
<path d="M88.7173 36.0369C88.8347 35.6831 89.0005 35.3391 89.2123 35.0101C89.3768 34.6678 89.5882 34.3388 89.8433 34.0283C89.7264 34.3812 89.5616 34.7245 89.3512 35.0529C89.1868 35.3963 88.9744 35.7261 88.7173 36.0369Z" fill="#E88B79"/>
<path d="M89.8025 36.1324C89.9285 35.827 90.0872 35.5294 90.2772 35.2426C90.4195 34.9406 90.5938 34.6474 90.7983 34.3656C90.6244 34.9966 90.2862 35.5967 89.8025 36.1324Z" fill="#E88B79"/>
<path d="M94.6714 16.4948C94.6714 16.4948 94.6714 16.3258 94.6714 15.9878C94.6714 15.6499 94.6714 15.1472 94.6714 14.4905C94.6714 13.1558 94.6714 11.1686 94.6569 8.55684L94.683 8.57609L19.3946 8.60604L19.4612 8.55684C19.4612 25.068 19.4612 44.2786 19.4612 64.6614V78.2057L19.3859 78.1523H94.6743L94.6135 78.1972C94.6135 62.8796 94.6337 50.2508 94.6395 41.4487C94.6395 37.0508 94.6395 33.6091 94.6569 31.2648C94.6569 30.0947 94.6569 29.1985 94.6569 28.5931C94.6569 27.9878 94.6569 27.6798 94.6569 27.6798C94.6569 27.6798 94.6569 27.9899 94.6569 28.5931C94.6569 29.1963 94.6569 30.0904 94.6569 31.2648C94.6569 33.6177 94.6569 37.0401 94.6569 41.4487C94.6569 50.2508 94.6743 62.8796 94.6858 78.1972V78.2442H94.6222H19.3338H19.2585V64.6507C19.2585 44.2572 19.2585 25.0573 19.2585 8.54615V8.49695H19.3251L94.6135 8.52689H94.6424V8.54615C94.6424 11.1579 94.6424 13.1451 94.6424 14.4798C94.6424 15.1472 94.6424 15.6463 94.6424 15.9771C94.6772 16.3258 94.6714 16.4948 94.6714 16.4948Z" fill="#263238"/>
<path d="M17.8459 32.7935C17.8854 32.7414 17.9387 32.6958 18.0028 32.6594C18.0668 32.6231 18.1401 32.5967 18.2183 32.5819C18.2966 32.5671 18.378 32.5642 18.4578 32.5733C18.5376 32.5825 18.6141 32.6035 18.6825 32.6352C19.1717 32.8641 19.7015 33.1058 20.1617 33.3261C20.3718 33.4073 20.5533 33.5238 20.6914 33.6662C20.7563 33.738 20.7833 33.8249 20.7673 33.9105C20.7513 33.996 20.6934 34.0743 20.6046 34.1304C20.4945 34.1699 20.3732 34.1893 20.2508 34.1871C20.1284 34.1848 20.0085 34.161 19.9012 34.1175C19.8288 34.0962 18.6767 33.5828 18.037 33.2962C17.9228 33.2473 17.839 33.1674 17.8033 33.0735C17.7676 32.9796 17.7829 32.8792 17.8459 32.7935Z" fill="#FFAD9D"/>
<path d="M17.707 31.6167C17.7496 31.5549 17.8097 31.5006 17.8832 31.4575C17.9566 31.4143 18.0418 31.3832 18.1328 31.3664C18.2239 31.3496 18.3188 31.3474 18.4111 31.3599C18.5034 31.3725 18.591 31.3995 18.668 31.4392C19.2267 31.7301 19.8259 32.0381 20.3585 32.3162C20.6006 32.4239 20.8072 32.57 20.9635 32.744C21.0374 32.8326 21.0672 32.9375 21.0476 33.0406C21.0281 33.1437 20.9604 33.2385 20.8564 33.3087C20.7296 33.3553 20.5887 33.3771 20.4473 33.3718C20.3058 33.3666 20.1686 33.3345 20.0488 33.2787C19.9677 33.2531 18.6535 32.5985 17.9241 32.2349C17.7911 32.1692 17.6955 32.0697 17.6555 31.9553C17.6155 31.8409 17.6338 31.7196 17.707 31.6146V31.6167Z" fill="#FFAD9D"/>
<path d="M17.9504 30.6205C17.9938 30.5592 18.0545 30.5054 18.1284 30.4629C18.2023 30.4204 18.2877 30.3901 18.3788 30.3741C18.4699 30.3581 18.5646 30.3567 18.6565 30.3701C18.7484 30.3834 18.8353 30.4112 18.9115 30.4515C19.4643 30.7467 20.0693 31.0633 20.5875 31.3456C20.826 31.4545 21.0296 31.6005 21.1838 31.7734C21.256 31.8634 21.2836 31.9692 21.262 32.0726C21.2403 32.176 21.1707 32.2706 21.0651 32.3403C20.9376 32.3849 20.7968 32.4048 20.656 32.398C20.5152 32.3913 20.3791 32.3582 20.2604 32.3018C20.1793 32.274 18.8767 31.6066 18.153 31.2323C18.0218 31.1649 17.9287 31.0643 17.8914 30.9495C17.854 30.8348 17.875 30.7139 17.9504 30.6098V30.6205Z" fill="#FFAD9D"/>
<path d="M18.0804 29.4741C18.1266 29.4035 18.1933 29.3412 18.2756 29.2917C18.3579 29.2422 18.4538 29.2066 18.5568 29.1874C18.6597 29.1683 18.767 29.166 18.8713 29.1808C18.9755 29.1955 19.0741 29.227 19.1601 29.273C19.7883 29.6088 20.4714 29.966 21.0648 30.289C21.3397 30.4138 21.5732 30.5827 21.748 30.7831C21.8317 30.886 21.8656 31.0068 21.8441 31.1258C21.8225 31.2448 21.7467 31.3548 21.6293 31.4377C21.3745 31.5767 21.0127 31.4997 20.7232 31.4013C20.6306 31.3692 19.1485 30.612 18.3264 30.1906C18.1762 30.1127 18.0687 29.9975 18.0236 29.8661C17.9784 29.7346 17.9986 29.5955 18.0804 29.4741Z" fill="#FFAD9D"/>
<path d="M20.9231 31.5321C20.506 31.3845 20.1119 31.2038 19.7478 30.9931C19.3558 30.8118 18.991 30.6003 18.6594 30.3621C19.0765 30.5097 19.4706 30.6904 19.8347 30.9011C20.2281 31.0809 20.5932 31.2925 20.9231 31.5321Z" fill="#E88B79"/>
<path d="M20.5554 32.4242C20.1581 32.2972 19.7821 32.1364 19.4352 31.945C19.0604 31.783 18.7117 31.5899 18.396 31.3696C18.7942 31.4976 19.1711 31.6591 19.5191 31.8509C19.893 32.0122 20.2407 32.2045 20.5554 32.4242Z" fill="#E88B79"/>
<path d="M20.5814 33.5492C20.1843 33.4209 19.8084 33.2594 19.4611 33.0679C19.0866 32.9073 18.7388 32.7149 18.4248 32.4946C18.8222 32.6216 19.1981 32.7824 19.5451 32.9738C19.9193 33.1355 20.267 33.3285 20.5814 33.5492Z" fill="#E88B79"/>
<path d="M89.406 20.5268C89.406 20.5268 89.406 20.4391 89.406 20.2615C89.406 20.084 89.406 19.823 89.406 19.4765C89.406 18.7834 89.406 17.7653 89.406 16.4113L89.4292 16.4284L24.9439 16.4626L25.0133 16.4113C25.0133 25.4294 25.0133 35.331 25.0133 45.6839C25.0133 52.6999 25.0133 59.5063 25.0133 65.9875L24.941 65.934L89.4263 65.9576L89.3858 65.9875C89.3858 61.825 89.4003 58.5501 89.406 56.317C89.406 55.2004 89.406 54.3448 89.406 53.7673C89.406 53.4785 89.406 53.2603 89.406 53.1127C89.406 52.9651 89.406 52.8988 89.406 52.8988C89.406 52.8988 89.406 52.9715 89.406 53.1127C89.406 53.2539 89.406 53.4785 89.406 53.7673C89.406 54.3448 89.406 55.2004 89.406 56.317C89.406 58.5501 89.406 61.825 89.4234 65.9875V66.0175H89.3829L24.8976 66.041H24.8252V65.9875C24.8252 59.5063 24.8252 52.6999 24.8252 45.6839C24.8252 35.331 24.8252 25.4294 24.8252 16.4113V16.3578H24.8947L89.38 16.392H89.4031V16.4113C89.4031 17.7546 89.4031 18.7834 89.4031 19.4765C89.4031 19.823 89.4031 20.084 89.4031 20.2615C89.4031 20.4391 89.406 20.5268 89.406 20.5268Z" fill="#263238"/>
<path d="M89.4061 33.438C89.3655 33.438 89.3308 32.3685 89.3308 31.0509C89.3308 29.7332 89.3655 28.6637 89.4061 28.6637C89.4466 28.6637 89.4813 29.7332 89.4813 31.0509C89.4813 32.3685 89.4495 33.438 89.4061 33.438Z" fill="#263238"/>
<path d="M119.971 89.9444C119.971 89.9765 93.143 90 60.0508 90C26.9585 90 0.130371 89.9765 0.130371 89.9444C0.130371 89.9123 26.9498 89.8888 60.0508 89.8888C93.1517 89.8888 119.971 89.9145 119.971 89.9444Z" fill="#263238"/>
<path d="M81.0894 2.38195C81.3877 2.28685 81.6416 2.12913 81.8197 1.92836C81.9977 1.72758 82.0921 1.49259 82.091 1.25254C82.1095 1.0946 82.0838 0.935527 82.0154 0.785267C81.947 0.635007 81.8373 0.496789 81.6934 0.379248C81.5494 0.261708 81.3742 0.167372 81.1786 0.102135C80.9831 0.0368984 80.7714 0.00216226 80.5569 9.77662e-05C80.3424 -0.00196673 80.1296 0.0286854 79.9318 0.0901373C79.734 0.151589 79.5555 0.242521 79.4075 0.357251C79.2594 0.47198 79.1449 0.608042 79.0713 0.756935C78.9976 0.905827 78.9662 1.06435 78.9792 1.2226C78.9699 1.4647 79.0578 1.70343 79.232 1.90863C79.4061 2.11382 79.6586 2.2763 79.9576 2.37553C77.5579 2.6258 77.6418 4.55092 77.6418 4.55092L83.3068 4.60654C83.3068 4.60654 83.4602 2.65575 81.0894 2.38195Z" fill="#455A64"/>
<path d="M114.932 52.5179H115.47L116.645 51.3094V50.5158C116.645 50.5158 117.476 50.4773 117.378 51.5169C117.279 52.5564 117.378 52.2912 117.378 52.2912C117.378 52.2912 119.143 52.2912 119.291 52.4088C119.439 52.5265 119.444 53.7885 119.465 54.4923C119.476 54.6617 119.41 54.8291 119.278 54.9678C119.146 55.1065 118.955 55.2087 118.735 55.258C118.673 55.2707 118.609 55.2772 118.544 55.2773C118.104 55.2773 115.852 55.012 115.852 55.012H114.923L114.932 52.5179Z" fill="#455A64"/>
<path d="M113.391 52.2998L113.724 55.0206H114.645V52.3554L113.391 52.2998Z" fill="#455A64"/>
<path d="M15.3825 5.5999C15.2971 5.27933 15.0605 4.99157 14.7148 4.78785C14.3691 4.58413 13.9368 4.47768 13.4949 4.48743C13.0529 4.49719 12.63 4.62253 12.3014 4.84113C11.9728 5.05974 11.7598 5.35742 11.7005 5.68118C11.6386 5.35685 11.4227 5.05934 11.0912 4.84189C10.7597 4.62443 10.3344 4.50121 9.89122 4.49426C9.44806 4.48732 9.01602 4.5971 8.67237 4.80398C8.32872 5.01085 8.09588 5.30132 8.0155 5.62343C7.92669 6.09745 8.08842 6.57853 8.46707 6.96674C8.84149 7.35177 9.28121 7.69971 9.77548 8.00203C10.4557 8.42983 11.0752 8.85764 11.7468 9.28545C12.4097 8.84053 12.977 8.42983 13.6428 7.97636C14.136 7.67455 14.5739 7.32652 14.9454 6.94107C15.3183 6.5519 15.4747 6.07183 15.3825 5.5999Z" fill="#455A64"/>
<path d="M107.388 79.5939C106.742 80.272 105.495 80.0474 104.913 79.6346C104.331 79.2218 104.088 78.6185 103.865 78.0453C103.356 76.7383 102.843 75.3651 103.222 74.0325C103.314 73.629 103.553 73.2517 103.914 72.9416C104.098 72.7888 104.332 72.6743 104.594 72.6098C104.857 72.5452 105.137 72.5327 105.408 72.5737C106.039 72.6977 106.433 73.1533 106.713 73.5875C107.549 74.8683 107.986 76.2707 107.993 77.6923C107.993 78.3533 107.892 79.0485 107.388 79.5939Z" fill="#FF725E"/>
<g opacity="0.2">
<path d="M107.388 79.5939C106.742 80.272 105.495 80.0474 104.913 79.6346C104.331 79.2218 104.088 78.6185 103.865 78.0453C103.356 76.7383 102.843 75.3651 103.222 74.0325C103.314 73.629 103.553 73.2517 103.914 72.9416C104.098 72.7888 104.332 72.6743 104.594 72.6098C104.857 72.5452 105.137 72.5327 105.408 72.5737C106.039 72.6977 106.433 73.1533 106.713 73.5875C107.549 74.8683 107.986 76.2707 107.993 77.6923C107.993 78.3533 107.892 79.0485 107.388 79.5939Z" fill="black"/>
</g>
<path d="M104.977 83.0309C103.898 82.6572 102.686 82.5485 101.517 82.7208C100.892 82.7978 100.238 82.9347 99.8095 83.2833C99.3811 83.632 99.303 84.2459 99.7922 84.5454C100.108 84.7035 100.489 84.7746 100.869 84.7464C101.784 84.7464 102.797 84.6202 103.529 85.0266C103.946 85.2577 104.224 85.6427 104.722 85.7582C104.971 85.8007 105.232 85.7819 105.466 85.7047C105.699 85.6275 105.893 85.496 106.016 85.3304C106.255 84.9917 106.308 84.5978 106.163 84.2309C106.104 83.977 105.966 83.7366 105.76 83.5285C105.554 83.3203 105.286 83.1501 104.977 83.0309Z" fill="#FF725E"/>
<path d="M109.154 80.5673C108.824 80.2483 108.604 79.8748 108.513 79.479C108.422 79.0832 108.463 78.6771 108.633 78.2956C108.985 77.5327 109.616 76.8567 110.456 76.3427C111.407 75.7153 112.516 75.232 113.719 74.9202C114.183 74.7803 114.683 74.7175 115.183 74.7363C115.434 74.7465 115.677 74.802 115.892 74.8978C116.107 74.9936 116.287 75.1269 116.416 75.286C116.758 75.7694 116.431 76.3555 116.075 76.8347C115.446 77.6792 114.729 78.486 113.93 79.2475C113.29 79.8593 112.552 80.4625 111.574 80.7448C110.595 81.0272 109.579 80.9887 109.061 80.4881" fill="#FF725E"/>
<path d="M107.431 89.8328C107.395 89.7323 107.375 89.6288 107.373 89.5248C107.341 89.3002 107.307 89.0179 107.26 88.6842C107.205 88.2691 107.12 87.8564 107.005 87.4478C106.855 86.9511 106.652 86.464 106.398 85.9911C106.146 85.5187 105.807 85.0745 105.39 84.6714C105.049 84.3445 104.614 84.0778 104.117 83.8906C103.779 83.7673 103.418 83.6836 103.046 83.6425C102.905 83.6388 102.765 83.6244 102.629 83.5997C102.769 83.5887 102.911 83.5887 103.051 83.5997C103.439 83.6216 103.818 83.694 104.172 83.8136C104.695 83.9961 105.154 84.2664 105.512 84.6029C105.949 85.0104 106.301 85.4639 106.557 85.9484C106.817 86.4275 107.018 86.9229 107.159 87.4286C107.268 87.8419 107.342 88.2598 107.382 88.6799C107.419 89.0371 107.431 89.3216 107.44 89.5355C107.45 89.6346 107.448 89.7342 107.431 89.8328Z" fill="#263238"/>
<path d="M107.353 89.1851C107.342 89.1384 107.342 89.0907 107.353 89.0439V88.6439C107.353 88.2889 107.353 87.7755 107.33 87.1466C107.286 85.8782 107.139 84.1242 106.852 82.199C106.565 80.2739 106.183 78.5392 105.836 77.2943C105.752 76.9841 105.671 76.7039 105.593 76.4579C105.515 76.2119 105.454 75.998 105.393 75.8269C105.332 75.6558 105.298 75.5338 105.266 75.429C105.246 75.3832 105.234 75.3358 105.231 75.2878C105.26 75.3307 105.283 75.3759 105.298 75.4226C105.341 75.5253 105.393 75.6558 105.46 75.814C105.526 75.9723 105.601 76.1948 105.685 76.4408C105.769 76.6868 105.865 76.9648 105.955 77.2771C106.43 78.8974 106.786 80.5354 107.023 82.1841C107.312 84.1092 107.44 85.8718 107.451 87.1445C107.451 87.7862 107.451 88.2974 107.419 88.6418C107.419 88.8086 107.396 88.9434 107.388 89.0503C107.382 89.096 107.37 89.1412 107.353 89.1851Z" fill="#263238"/>
<path d="M107.341 85.7963C107.324 85.654 107.324 85.5108 107.341 85.3685C107.362 85.0926 107.414 84.6969 107.518 84.2092C107.646 83.6401 107.816 83.0767 108.027 82.5215C108.281 81.8403 108.601 81.1734 108.983 80.5258C109.648 79.3362 110.599 78.2455 111.791 77.3065C111.998 77.1459 112.219 76.9945 112.451 76.8531C112.552 76.7889 112.642 76.7269 112.74 76.6777L112.995 76.5472C113.148 76.4603 113.311 76.383 113.481 76.3162C112.921 76.6428 112.388 76.9942 111.886 77.3686C110.734 78.3153 109.809 79.4004 109.151 80.5771C108.771 81.22 108.45 81.8811 108.19 82.5557C107.971 83.1063 107.791 83.6645 107.648 84.2284C107.527 84.7097 107.457 85.1012 107.417 85.3749C107.405 85.5166 107.38 85.6574 107.341 85.7963Z" fill="#263238"/>
<path d="M9.46011 76.3403C9.93171 76.399 10.3824 76.5273 10.7853 76.7177C11.1882 76.9081 11.535 77.1566 11.8048 77.4483C12.3408 78.0358 12.6883 78.706 12.8209 79.4077C13.1103 80.7553 12.6327 82.2826 11.9525 83.5531C10.0941 82.9114 9.10406 81.3114 8.66986 80.4751C7.98671 79.1574 7.83329 76.4644 9.45432 76.3403" fill="#455A64"/>
<path d="M14.6962 85.448C14.4174 85.1107 14.2642 84.7249 14.252 84.3298C14.2398 83.9346 14.3691 83.5441 14.6267 83.1977C14.8923 82.8546 15.2477 82.5541 15.6721 82.3135C16.0965 82.073 16.5815 81.8973 17.0988 81.7967C17.5735 81.6983 18.1206 81.6619 18.523 81.8715C18.7044 81.9781 18.8438 82.1186 18.9268 82.2785C19.0098 82.4384 19.0333 82.6118 18.9948 82.7806C18.9146 83.1169 18.7148 83.4314 18.4159 83.6919C17.4491 84.6159 16.2825 85.3795 14.702 85.448" fill="#455A64"/>
<path d="M14.2246 89.7127C14.1887 89.6201 14.1683 89.5245 14.1638 89.4282C14.1377 89.2464 14.1059 88.9812 14.0827 88.6518C13.9971 87.793 14.0682 86.9297 14.2941 86.0849C14.5307 85.2292 15.078 84.4373 15.8775 83.794C16.1207 83.6019 16.3971 83.4344 16.6996 83.2956C16.8052 83.2387 16.9224 83.1947 17.0469 83.1652C16.6685 83.3781 16.3133 83.6127 15.9846 83.8668C15.2399 84.513 14.7282 85.2878 14.4967 86.1192C14.2785 86.9503 14.1882 87.797 14.2275 88.6432C14.2573 88.9994 14.2563 89.3566 14.2246 89.7127Z" fill="#263238"/>
<path d="M9.89136 78.3761C9.98647 78.5177 10.0649 78.6652 10.1258 78.8167C10.2648 79.1012 10.4558 79.5183 10.6816 80.036C11.139 81.0691 11.7411 82.5066 12.349 84.1001C12.9568 85.6937 13.4605 87.1547 13.7963 88.2114C13.9642 88.7418 14.0858 89.1696 14.1813 89.467C14.2338 89.6202 14.2715 89.7761 14.2942 89.9333C14.2194 89.7923 14.1604 89.6471 14.1176 89.499L13.6689 88.2563C13.2926 87.2039 12.7658 85.7536 12.1579 84.1579C11.55 82.5622 10.974 81.1226 10.5513 80.0809C10.3516 79.5804 10.1837 79.1633 10.0564 78.8467C9.98323 78.6936 9.92803 78.5362 9.89136 78.3761Z" fill="#263238"/>
<path d="M12.2215 86.7185C11.7589 85.9571 11.0573 85.2882 10.1747 84.7674C9.29218 84.2465 8.25423 83.8888 7.14707 83.7238C6.5855 83.6447 5.89077 83.6554 5.57814 84.0105C5.26551 84.3655 5.53472 84.8404 5.86761 85.1848C6.5903 85.8903 7.57885 86.4223 8.70923 86.7142C9.83961 87.0061 11.0615 87.0448 12.2215 86.8254" fill="#455A64"/>
<path d="M7.76653 84.9371C7.89026 84.933 8.01414 84.9423 8.13416 84.9649C8.27904 84.9799 8.42223 85.0028 8.56257 85.0334C8.74994 85.066 8.93455 85.1067 9.11546 85.1553C9.59116 85.2778 10.0489 85.4355 10.4818 85.6259C11.0101 85.8625 11.5022 86.1408 11.9494 86.4558C12.3845 86.777 12.7726 87.1312 13.1073 87.5125C13.379 87.8262 13.6069 88.1594 13.7875 88.5072C13.8596 88.6392 13.9214 88.7742 13.9728 88.9114C14.0175 89.0136 14.0523 89.1179 14.077 89.2237C14.1104 89.3129 14.127 89.405 14.1262 89.4975C14.0857 89.4975 13.9844 89.1189 13.6515 88.5478C13.4604 88.2136 13.2288 87.8929 12.9596 87.5895C12.6188 87.2215 12.2311 86.8784 11.8017 86.5649C11.3654 86.2582 10.8893 85.9838 10.3804 85.7457C9.96209 85.5543 9.52129 85.391 9.06336 85.258C8.27889 85.0291 7.74916 84.9671 7.76653 84.9371Z" fill="#263238"/>
<path d="M106.904 40.3613C106.916 40.3847 106.925 40.4091 106.93 40.434C106.946 40.5047 106.954 40.5763 106.953 40.6479C106.938 40.9255 106.827 41.1955 106.632 41.433C106.321 41.7896 105.938 42.1091 105.497 42.3805L103.896 43.495L103.853 43.5271L103.807 43.495L102.244 42.4682C101.702 42.1089 101.065 41.7239 100.764 41.1485C100.662 40.9738 100.612 40.7848 100.619 40.5946C100.625 40.4044 100.688 40.2175 100.802 40.0469C100.919 39.8866 101.08 39.7464 101.276 39.6358C101.472 39.5251 101.697 39.4465 101.937 39.4052C102.163 39.3706 102.396 39.3729 102.621 39.4121C102.845 39.4513 103.055 39.5263 103.236 39.6319C103.577 39.8234 103.805 40.1045 103.873 40.4169H103.749C103.8 40.1899 103.935 39.9779 104.14 39.8042C104.344 39.6305 104.61 39.5021 104.907 39.433C105.136 39.3842 105.377 39.3752 105.611 39.4068C105.846 39.4383 106.067 39.5095 106.259 39.6148C106.505 39.7449 106.698 39.9235 106.814 40.1303C106.856 40.2017 106.882 40.2775 106.892 40.3549C106.892 40.3549 106.864 40.2757 106.78 40.141C106.656 39.9474 106.465 39.7813 106.227 39.6597C106.045 39.5626 105.835 39.4982 105.613 39.4715C105.391 39.4447 105.164 39.4564 104.95 39.5057C104.673 39.5717 104.426 39.6928 104.236 39.8559C104.046 40.0189 103.92 40.2175 103.873 40.4298L103.812 40.7399L103.749 40.4298C103.681 40.1433 103.468 39.8868 103.152 39.7132C102.987 39.6166 102.795 39.5482 102.59 39.5131C102.385 39.4779 102.172 39.4769 101.966 39.51C101.747 39.5478 101.542 39.6197 101.365 39.7207C101.187 39.8218 101.041 39.9498 100.935 40.0961C100.831 40.2522 100.775 40.4232 100.769 40.5972C100.764 40.7712 100.809 40.944 100.903 41.1035C101.193 41.6447 101.798 42.0212 102.351 42.387L103.908 43.4223H103.818L105.434 42.3185C105.873 42.0568 106.257 41.7483 106.574 41.403C106.77 41.1757 106.89 40.9166 106.921 40.6479C106.927 40.464 106.892 40.3634 106.904 40.3613Z" fill="#263238"/>
<path d="M98.5706 36.8339C98.5706 36.8339 98.5706 36.8874 98.5706 36.9879C98.5706 37.0884 98.5706 37.2403 98.5706 37.4328C98.5706 37.8221 98.5706 38.3932 98.5706 39.1248C98.5706 40.59 98.5879 42.7012 98.5995 45.3044L98.5445 45.2638H105.906H105.972V45.313C105.972 46.1301 105.972 47.0007 105.972 47.8969L105.854 47.8606L109.348 45.2745L109.371 45.2595H119.942L119.867 45.3151C119.867 42.3205 119.867 39.4692 119.867 36.8446L119.936 36.8959L104.537 36.8724L100.125 36.8574H98.9469H98.6429H98.5358H98.9324H100.09L104.487 36.8424L119.931 36.8168H120V36.8681C120 39.4927 120 42.344 120 45.3387V45.3943H109.429L109.481 45.3793L105.981 47.9632L105.859 48.051V47.9247C105.859 47.0285 105.859 46.1579 105.859 45.3408L105.926 45.39H98.5648H98.5098V45.3494C98.5098 42.7376 98.5329 40.6157 98.5387 39.1462C98.5387 38.4189 98.5387 37.8628 98.5387 37.4628C98.5387 37.2745 98.5387 37.1291 98.5387 37.035C98.5387 36.9408 98.5706 36.8339 98.5706 36.8339Z" fill="#263238"/>
<path d="M110.369 41.2106H109.466V41.8523H109.255V41.2106H108.352V41.0587H109.255V40.417H109.466V41.0587H110.369V41.2106Z" fill="#263238"/>
<path d="M111.735 39.9039V42.3617H111.492V40.0665H110.679V39.9039H111.735Z" fill="#263238"/>
<path d="M112.575 41.1334C112.575 40.3634 113.114 39.8864 113.878 39.8864C114.642 39.8864 115.18 40.3634 115.18 41.1334C115.18 41.9035 114.642 42.3805 113.878 42.3805C113.114 42.3805 112.575 41.9013 112.575 41.1334ZM114.937 41.1334C114.937 40.4489 114.506 40.0511 113.878 40.0511C113.25 40.0511 112.818 40.4489 112.818 41.1334C112.818 41.8179 113.25 42.2136 113.878 42.2136C114.506 42.2136 114.937 41.8179 114.937 41.1334Z" fill="#263238"/>
<path d="M115.701 41.1334C115.701 40.3634 116.24 39.8864 117.004 39.8864C117.768 39.8864 118.306 40.3634 118.306 41.1334C118.306 41.9035 117.768 42.3805 117.004 42.3805C116.24 42.3805 115.701 41.9013 115.701 41.1334ZM118.063 41.1334C118.063 40.4489 117.632 40.0511 117.004 40.0511C116.376 40.0511 115.944 40.4489 115.944 41.1334C115.944 41.8179 116.376 42.2136 117.004 42.2136C117.632 42.2136 118.063 41.8179 118.063 41.1334Z" fill="#263238"/>
<path d="M0 16.9478H23.4037V26.2119H11.8741L8.04728 29.0375V26.2119H0V16.9478Z" fill="#FF725E"/>
<path d="M3.96582 21.3241C3.96582 21.3241 3.96582 21.3883 3.98898 21.5038C4.01214 21.6193 4.01792 21.7904 4.03819 21.9936C4.07582 22.4214 4.13082 23.0268 4.1945 23.7583L4.13371 23.7198L5.04265 23.6813C5.81554 23.7327 6.68105 23.8054 7.59288 23.831C7.6465 23.8322 7.70009 23.8279 7.75209 23.8182C7.80449 23.8132 7.85596 23.8039 7.90551 23.7904C8.00695 23.7608 8.09871 23.7156 8.17472 23.6578C8.33826 23.5397 8.44068 23.3831 8.46419 23.215C8.47415 23.1275 8.47415 23.0395 8.46419 22.9519C8.46419 22.8599 8.44393 22.7701 8.43524 22.6781C8.41498 22.4942 8.39182 22.3081 8.37156 22.1198C8.3513 21.9316 8.31656 21.692 8.28182 21.4781C8.26156 21.3754 8.24419 21.2642 8.21525 21.1722C8.20867 21.149 8.19996 21.1261 8.18919 21.1038C8.18919 21.1038 8.18919 21.1038 8.18919 21.091C8.18919 21.0781 8.18919 21.091 8.16604 21.091C8.10304 21.0803 8.03924 21.0725 7.97499 21.0674C7.43986 21.046 6.90355 21.046 6.36843 21.0674L6.43211 21.0268C6.43335 21.0353 6.43335 21.0439 6.43211 21.0524V21.0696L6.40895 21.0845C6.40211 21.0894 6.39388 21.0931 6.38487 21.0953C6.37585 21.0975 6.36628 21.0982 6.35685 21.0974H6.31921V21.0845V21.0653C6.31831 21.0575 6.31831 21.0496 6.31921 21.0418C6.31679 21.0161 6.31679 20.9904 6.31921 20.9648V20.8193C6.31921 20.7252 6.31921 20.6311 6.31921 20.5391C6.33384 20.3631 6.33384 20.1867 6.31921 20.0107C6.30309 19.8496 6.2335 19.6938 6.11659 19.5573C6.06099 19.4984 5.98693 19.4503 5.90074 19.4171C5.81454 19.384 5.71876 19.3668 5.62159 19.3669L5.6737 19.322C5.69106 19.6043 5.70554 19.861 5.72001 20.0984V20.1113C5.24239 20.6482 4.87476 21.0567 4.6345 21.3262H4.24371H4.10766C4.1477 21.3201 4.18837 21.3166 4.22924 21.3156L4.6316 21.2899H4.61423C4.84292 21.0161 5.19317 20.6011 5.65343 20.0557V20.0771C5.63606 19.8396 5.6158 19.5829 5.59264 19.3027V19.2599H5.64764C5.76461 19.2556 5.88121 19.2728 5.98686 19.3102C6.09251 19.3475 6.18387 19.4038 6.25264 19.4738C6.38566 19.6212 6.46538 19.7913 6.48421 19.968C6.50546 20.1486 6.51223 20.33 6.50448 20.5113C6.50448 20.6011 6.50448 20.6931 6.50448 20.7872V20.9262C6.50448 20.9476 6.50448 20.9712 6.50448 20.9904C6.50559 20.9939 6.50559 20.9976 6.50448 21.0011C6.50448 21.0011 6.50448 21.0011 6.48421 21.0011C6.46395 21.0011 6.44948 21.0246 6.45237 21.0182C6.45527 21.0118 6.45237 21.0033 6.42921 21.0054L6.40027 20.9926V20.9541H6.44948C6.99229 20.9315 7.53638 20.9315 8.0792 20.9541C8.15453 20.9592 8.22912 20.9692 8.30209 20.984C8.3288 20.9906 8.35413 21 8.37735 21.0118C8.3971 21.0282 8.41278 21.047 8.42367 21.0674C8.43566 21.094 8.44533 21.1212 8.45261 21.1487C8.48445 21.2557 8.50472 21.3626 8.52208 21.4674C8.55972 21.6813 8.58577 21.8952 8.61471 22.1091C8.64366 22.323 8.65524 22.4835 8.6784 22.6696L8.70445 22.9434C8.7162 23.0373 8.7162 23.1318 8.70445 23.2257C8.67793 23.4173 8.56472 23.5967 8.38314 23.7348C8.29241 23.8017 8.18403 23.8541 8.06472 23.8888C7.94667 23.92 7.82246 23.9366 7.69709 23.938C6.765 23.9081 5.91106 23.831 5.13528 23.7712L4.22634 23.8032H4.17134V23.7605C4.13082 23.0182 4.09898 22.4086 4.07292 21.968C4.07292 21.769 4.05845 21.6086 4.05556 21.4845C4.01747 21.4338 3.98736 21.3799 3.96582 21.3241Z" fill="white"/>
<path d="M2.44613 21.1701C2.54872 21.1594 2.65226 21.1544 2.75586 21.1552C2.96428 21.1552 3.27691 21.1423 3.67348 21.1381H3.7198V21.1744C3.78059 21.7905 3.85296 22.6889 3.92243 23.6878V23.7755V23.8332H3.84717L2.94691 23.8653H2.87744V23.8161C2.73271 23.0461 2.61981 22.3723 2.54455 21.891C2.50981 21.6771 2.48087 21.491 2.45771 21.3413C2.44236 21.2792 2.43653 21.2161 2.44034 21.153C2.46517 21.2235 2.4845 21.2949 2.49824 21.3669C2.53297 21.5181 2.57639 21.7042 2.6285 21.9252C2.73271 22.3979 2.87744 23.0461 3.02507 23.7905L2.94691 23.7455L3.84717 23.7092L3.7748 23.7669V23.6792C3.70533 22.6803 3.65033 21.7819 3.62138 21.1637L3.67348 21.2001C3.30296 21.2001 3.00191 21.1808 2.78771 21.1744C2.67383 21.1775 2.5598 21.1761 2.44613 21.1701Z" fill="white"/>
<path d="M12.9044 21.7327H11.9144V22.4428H11.6829V21.7327H10.6929V21.568H11.6829V20.8535H11.9144V21.568H12.9044V21.7327Z" fill="white"/>
<path d="M14.4069 20.3041V22.9928H14.1174V20.4816H13.249V20.3041H14.4069Z" fill="white"/>
<path d="M15.3159 21.6491C15.3159 20.8063 15.8949 20.2844 16.7401 20.2844C17.5854 20.2844 18.1643 20.8063 18.1643 21.6491C18.1643 22.4919 17.5854 23.0117 16.7401 23.0117C15.8949 23.0117 15.3159 22.4898 15.3159 21.6491ZM17.898 21.6491C17.898 20.8983 17.4262 20.4662 16.7401 20.4662C16.0541 20.4662 15.5822 20.894 15.5822 21.6491C15.5822 22.4042 16.057 22.832 16.7401 22.832C17.4233 22.832 17.898 22.3978 17.898 21.6491Z" fill="white"/>
<path d="M18.749 21.6491C18.749 20.8063 19.328 20.2844 20.1732 20.2844C21.0185 20.2844 21.5974 20.8063 21.5974 21.6491C21.5974 22.4919 21.0185 23.0117 20.1732 23.0117C19.328 23.0117 18.749 22.4898 18.749 21.6491ZM21.334 21.6491C21.334 20.8983 20.8593 20.4662 20.1761 20.4662C19.493 20.4662 19.0182 20.894 19.0182 21.6491C19.0182 22.4042 19.4901 22.832 20.1761 22.832C20.8622 22.832 21.3195 22.3978 21.3195 21.6491H21.334Z" fill="white"/>
</svg>
