<svg width="28" height="30" viewBox="0 0 28 30" fill="none" xmlns="http://www.w3.org/2000/svg">
<path d="M13.0703 29.2921C12.4528 28.9475 12.4483 28.3852 13.0703 28.0134C13.4121 27.8348 13.7913 27.7392 14.177 27.7344C14.5628 27.7297 14.9443 27.816 15.2904 27.9862C15.9078 28.3308 15.9169 28.8931 15.2904 29.2649C14.9482 29.4425 14.5691 29.5375 14.1836 29.5422C13.798 29.5469 13.4167 29.4613 13.0703 29.2921Z" fill="#263238"/>
<path d="M15.658 28.9183H15.4037C15.3283 28.7801 15.2128 28.6678 15.0723 28.5964C14.7892 28.4566 14.4768 28.3861 14.161 28.3908C13.8452 28.3956 13.5351 28.4754 13.2563 28.6236C13.1188 28.6982 13.0067 28.8118 12.9339 28.9501H12.6797L12.9793 29.4035C13.0542 29.5103 13.1539 29.5975 13.2699 29.6574C13.5527 29.7979 13.8649 29.8692 14.1807 29.8652C14.4965 29.8613 14.8068 29.7823 15.0859 29.6347C15.1987 29.57 15.2963 29.4819 15.372 29.3763L15.658 28.9183Z" fill="#263238"/>
<path d="M12.5345 28.8893C11.6265 28.3769 11.6265 27.529 12.5345 26.9985C13.0398 26.7363 13.5998 26.5964 14.1692 26.5901C14.7386 26.5838 15.3015 26.7113 15.8125 26.9623C16.7205 27.4746 16.7205 28.3225 15.8125 28.853C15.3072 29.1153 14.7472 29.2552 14.1778 29.2615C13.6084 29.2678 13.0455 29.1403 12.5345 28.8893Z" fill="#455A64"/>
<path d="M12.4724 28.5807C11.528 28.0502 11.5189 27.1705 12.4497 26.6219C12.9741 26.3479 13.556 26.2018 14.1478 26.1955C14.7397 26.1892 15.3246 26.3229 15.8547 26.5856C16.7991 27.1161 16.8082 27.9958 15.8547 28.5444C15.3334 28.8154 14.7555 28.9598 14.1679 28.9661C13.5802 28.9724 12.9994 28.8404 12.4724 28.5807Z" fill="#37474F"/>
<path d="M12.4264 28.2431C11.4548 27.6989 11.4457 26.7966 12.4037 26.2299C12.9415 25.9516 13.5371 25.8034 14.1428 25.7971C14.7484 25.7908 15.347 25.9266 15.8905 26.1936C16.8621 26.7422 16.8711 27.64 15.9132 28.2068C15.3758 28.4864 14.78 28.6354 14.1741 28.6417C13.5682 28.6481 12.9694 28.5115 12.4264 28.2431Z" fill="#455A64"/>
<path d="M12.3763 27.9026C11.3866 27.3449 11.373 26.4199 12.3763 25.8395C12.9279 25.5534 13.5393 25.401 14.1608 25.3947C14.7823 25.3884 15.3966 25.5284 15.9539 25.8032C16.9437 26.3609 16.9573 27.2859 15.9539 27.8663C15.402 28.1514 14.7908 28.3031 14.1694 28.3094C13.5481 28.3157 12.9339 28.1764 12.3763 27.9026Z" fill="#37474F"/>
<path d="M12.3452 27.562C11.3282 26.9862 11.3191 26.043 12.3225 25.4491C12.8863 25.1552 13.5118 24.9987 14.1478 24.9924C14.7838 24.9861 15.4122 25.1301 15.9818 25.4128C16.9988 25.9841 17.0079 26.9272 16.0045 27.5212C15.4407 27.8147 14.8155 27.9714 14.1797 27.9785C13.544 27.9856 12.9154 27.8429 12.3452 27.562Z" fill="#455A64"/>
<path d="M12.2855 27.216C11.2413 26.6311 11.2322 25.6653 12.2629 25.0577C12.84 24.7574 13.48 24.5972 14.1308 24.5901C14.7815 24.583 15.4248 24.7292 16.0084 25.0169C17.0481 25.6018 17.0572 26.5721 16.0311 27.1797C15.4536 27.4793 14.8135 27.6387 14.1627 27.645C13.5119 27.6513 12.8688 27.5043 12.2855 27.216Z" fill="#37474F"/>
<path d="M16.8833 24.7177C16.8597 24.4745 16.7709 24.2422 16.6263 24.0451C16.4817 23.8481 16.2866 23.6935 16.0615 23.5978C15.4507 23.2955 14.777 23.1416 14.0953 23.1487C13.4136 23.1558 12.7433 23.3236 12.1389 23.6386C11.9156 23.739 11.7235 23.8977 11.5828 24.098C11.4422 24.2983 11.3583 24.5327 11.3398 24.7767C11.3398 24.9354 11.3398 25.5565 11.3398 25.7152C11.3631 25.9597 11.4522 26.1933 11.5977 26.3913C11.7432 26.5893 11.9396 26.7442 12.1661 26.8397C12.7765 27.1409 13.4493 27.2942 14.1301 27.2871C14.8108 27.28 15.4803 27.1128 16.0843 26.7989C16.3082 26.6981 16.5008 26.5387 16.6414 26.3376C16.7821 26.1364 16.8657 25.901 16.8833 25.6563C16.9105 25.4976 16.906 24.8764 16.8833 24.7177Z" fill="#BA68C8"/>
<path d="M13.9333 5.84832C11.7253 5.86987 9.61617 6.76594 8.06936 8.33965C6.52254 9.91337 5.66456 12.036 5.68391 14.2411C5.75202 20.852 11.2228 21.8949 11.2546 24.5564C11.2795 24.8092 11.3718 25.0506 11.5219 25.2556C11.672 25.4606 11.8745 25.6215 12.1081 25.7217C12.7442 26.0371 13.446 26.1979 14.1561 26.1908C14.8662 26.1837 15.5646 26.009 16.1942 25.6809C16.4256 25.5753 16.6246 25.4099 16.7706 25.2019C16.9167 24.9939 17.0045 24.7507 17.0251 24.4975C16.9978 21.8314 22.446 20.6797 22.3779 14.0688C22.3491 11.8605 21.4434 9.75394 19.8598 8.21238C18.2763 6.67083 16.1445 5.82048 13.9333 5.84832Z" fill="#BA68C8"/>
<g style="mix-blend-mode:screen" opacity="0.7">
<path d="M13.9333 5.84832C11.7253 5.86987 9.61617 6.76594 8.06936 8.33965C6.52254 9.91337 5.66456 12.036 5.68391 14.2411C5.75202 20.852 11.2228 21.8949 11.2546 24.5564C11.2795 24.8092 11.3718 25.0506 11.5219 25.2556C11.672 25.4606 11.8745 25.6215 12.1081 25.7217C12.7442 26.0371 13.446 26.1979 14.1561 26.1908C14.8662 26.1837 15.5646 26.009 16.1942 25.6809C16.4256 25.5753 16.6246 25.4099 16.7706 25.2019C16.9167 24.9939 17.0045 24.7507 17.0251 24.4975C16.9978 21.8314 22.446 20.6797 22.3779 14.0688C22.3491 11.8605 21.4434 9.75394 19.8598 8.21238C18.2763 6.67083 16.1445 5.82048 13.9333 5.84832Z" fill="white"/>
</g>
<path d="M12.4392 25.5734C11.4948 25.0429 11.4857 24.1633 12.4165 23.6101C12.9416 23.3379 13.5236 23.1932 14.1152 23.1877C14.7068 23.1821 15.2914 23.316 15.8215 23.5784C16.7659 24.1089 16.775 24.9885 15.8215 25.5371C15.2999 25.807 14.7221 25.9509 14.1347 25.9572C13.5472 25.9635 12.9665 25.8321 12.4392 25.5734Z" fill="#BA68C8"/>
<path opacity="0.55" d="M12.4392 25.5734C11.4948 25.0429 11.4857 24.1633 12.4165 23.6101C12.9416 23.3379 13.5236 23.1932 14.1152 23.1877C14.7068 23.1821 15.2914 23.316 15.8215 23.5784C16.7659 24.1089 16.775 24.9885 15.8215 25.5371C15.2999 25.807 14.7221 25.9509 14.1347 25.9572C13.5472 25.9635 12.9665 25.8321 12.4392 25.5734Z" fill="white"/>
<path opacity="0.25" d="M16.2445 25.2087C16.126 25.3324 15.9899 25.4378 15.8404 25.5216C15.3164 25.7944 14.7354 25.9399 14.1445 25.9462C13.5536 25.9525 12.9695 25.8195 12.4399 25.5578C12.2888 25.4783 12.1509 25.3758 12.0312 25.2541C12.1478 25.1289 12.2825 25.0219 12.4308 24.9367C12.9556 24.6637 13.5374 24.5182 14.129 24.5119C14.7206 24.5056 15.3054 24.6387 15.8359 24.9004C15.9857 24.9838 16.1232 25.0875 16.2445 25.2087Z" fill="#BA68C8"/>
<path d="M16.2445 25.2087C16.126 25.3324 15.9899 25.4378 15.8404 25.5216C15.3164 25.7944 14.7354 25.9399 14.1445 25.9462C13.5536 25.9525 12.9695 25.8195 12.4399 25.5578C12.2888 25.4783 12.1509 25.3758 12.0312 25.2541C12.1478 25.1289 12.2825 25.0219 12.4308 24.9367C12.9556 24.6637 13.5374 24.5182 14.129 24.5119C14.7206 24.5056 15.3054 24.6387 15.8359 24.9004C15.9857 24.9838 16.1232 25.0875 16.2445 25.2087Z" fill="#BA68C8"/>
<path opacity="0.35" d="M16.2445 25.2087C16.126 25.3324 15.9899 25.4378 15.8404 25.5216C15.3164 25.7944 14.7354 25.9399 14.1445 25.9462C13.5536 25.9525 12.9695 25.8195 12.4399 25.5578C12.2888 25.4783 12.1509 25.3758 12.0312 25.2541C12.1478 25.1289 12.2825 25.0219 12.4308 24.9367C12.9556 24.6637 13.5374 24.5182 14.129 24.5119C14.7206 24.5056 15.3054 24.6387 15.8359 24.9004C15.9857 24.9838 16.1232 25.0875 16.2445 25.2087Z" fill="white"/>
<path opacity="0.35" d="M20.5172 10.161C19.9905 9.37654 19.1552 8.74175 18.1927 9.16797C18.0894 9.2158 17.992 9.27512 17.9021 9.3448C17.7447 9.48522 17.6258 9.66345 17.5566 9.86262C17.4875 10.0618 17.4705 10.2753 17.5071 10.4829C17.6342 11.29 18.4151 11.7842 18.8691 12.4054C19.3719 13.0891 19.7485 13.8568 19.9815 14.6725C20.0466 14.9688 20.1424 15.2575 20.2675 15.534C20.3479 15.6737 20.4776 15.7786 20.6312 15.828C20.7848 15.8775 20.9513 15.868 21.0983 15.8015C21.249 15.6999 21.3747 15.5655 21.4659 15.4085C21.5571 15.2514 21.6115 15.0757 21.625 14.8947C21.8967 13.2326 21.4984 11.5306 20.5172 10.161ZM20.7397 16.3411C20.5911 16.3375 20.4455 16.3826 20.3251 16.4693C20.2046 16.5561 20.1158 16.6799 20.0723 16.8217C20.0335 16.945 20.0215 17.0751 20.0372 17.2033C20.0528 17.3316 20.0958 17.455 20.1631 17.5653C20.2409 17.6821 20.3613 17.7639 20.4986 17.7936C20.6359 17.8232 20.7794 17.7982 20.8986 17.724C21.0188 17.645 21.1175 17.5372 21.1857 17.4106C21.2538 17.2839 21.2893 17.1423 21.289 16.9985C21.2949 16.8429 21.2444 16.6903 21.1469 16.5687C21.0493 16.4472 20.9112 16.3648 20.7578 16.3365L20.7397 16.3411Z" fill="white"/>
<path d="M15.113 25.3818H15.0131C14.9813 22.4164 15.1357 20.5574 15.5261 19.1654C15.6247 18.8062 15.7569 18.457 15.9211 18.1225C15.2278 17.8999 14.5901 17.532 14.0506 17.0434C13.5197 17.5437 12.8882 17.9255 12.1982 18.1633C12.3714 18.4933 12.5113 18.8396 12.6159 19.1971C13.0336 20.5574 13.2288 22.4346 13.2606 25.3999H13.1607C13.1335 22.4482 12.9383 20.5982 12.5251 19.2243C12.4191 18.8666 12.2777 18.5203 12.1029 18.1906C12.012 18.2177 11.9195 18.2389 11.8259 18.254C10.8589 18.4263 10.2914 18.1543 10.0825 17.8414C10.0097 17.7361 9.9707 17.6112 9.9707 17.4832C9.9707 17.3552 10.0097 17.2303 10.0825 17.125C10.1535 17.0205 10.2539 16.9392 10.3711 16.8916C10.4883 16.844 10.6169 16.8321 10.7408 16.8575C11.1631 16.9164 11.6943 17.2746 12.1437 18.0772C12.8208 17.8456 13.4401 17.4714 13.9598 16.9799C13.8567 16.8807 13.7639 16.7713 13.6828 16.6535C13.4986 16.4333 13.3766 16.168 13.3295 15.885C13.2824 15.602 13.3119 15.3116 13.415 15.0438C13.4708 14.9342 13.5559 14.8422 13.6609 14.778C13.7659 14.7137 13.8866 14.6797 14.0097 14.6797C14.1328 14.6797 14.2536 14.7137 14.3585 14.778C14.4635 14.8422 14.5486 14.9342 14.6045 15.0438C14.7133 15.3091 14.7492 15.5986 14.7085 15.8824C14.6678 16.1661 14.552 16.4339 14.3729 16.658C14.2913 16.777 14.2002 16.8892 14.1005 16.9935C14.6433 17.4716 15.2828 17.8273 15.9756 18.0364C16.4296 17.2293 16.929 16.8575 17.3376 16.7895C17.4609 16.7611 17.5898 16.7702 17.7078 16.8154C17.8259 16.8606 17.9278 16.94 18.0005 17.0434C18.0776 17.1449 18.1215 17.2677 18.1264 17.395C18.1313 17.5224 18.0968 17.6481 18.0277 17.7553C17.8234 18.0727 17.265 18.3583 16.2934 18.2087C16.2026 18.2087 16.1072 18.1724 16.0164 18.1497C15.8478 18.4828 15.7139 18.8322 15.6169 19.1926C15.231 20.5891 15.0676 22.4255 15.113 25.3818ZM16.0664 18.0636L16.3115 18.1135C17.2196 18.2586 17.7644 17.9956 17.9505 17.7054C18.0135 17.6166 18.0473 17.5104 18.0473 17.4016C18.0473 17.2928 18.0135 17.1866 17.9505 17.0978C17.8874 17.0093 17.7992 16.9417 17.6972 16.9037C17.5952 16.8657 17.4842 16.8591 17.3785 16.8847C16.9835 16.9618 16.4795 17.2973 16.0664 18.0636ZM10.6183 16.9436C10.5292 16.9411 10.441 16.9609 10.3617 17.0013C10.2823 17.0417 10.2145 17.1014 10.1643 17.1749C10.1022 17.2649 10.0689 17.3716 10.0689 17.4809C10.0689 17.5903 10.1022 17.697 10.1643 17.787C10.3595 18.0727 10.8907 18.322 11.8123 18.1588C11.8949 18.145 11.9768 18.1268 12.0575 18.1044C11.6035 17.3472 11.1177 17.0071 10.7408 16.9527L10.6183 16.9436ZM14.0188 14.7672C13.913 14.7682 13.8096 14.7989 13.7205 14.8558C13.6313 14.9127 13.5601 14.9936 13.5148 15.0892C13.4243 15.3418 13.4005 15.6135 13.4459 15.878C13.4912 16.1425 13.6041 16.3909 13.7736 16.599C13.8532 16.7112 13.9429 16.8159 14.0415 16.9119C14.139 16.8145 14.2272 16.7083 14.3048 16.5945C14.4702 16.3822 14.5783 16.1311 14.6189 15.8652C14.6594 15.5993 14.631 15.3274 14.5364 15.0756C14.4873 14.9822 14.4135 14.904 14.3231 14.8497C14.2326 14.7953 14.1289 14.7668 14.0233 14.7672H14.0188Z" fill="#455A64"/>
<path d="M14.1609 4.36962C14.0778 4.36962 13.9982 4.33666 13.9394 4.27799C13.8807 4.21932 13.8477 4.13974 13.8477 4.05676V0.941766C13.8477 0.85879 13.8807 0.779213 13.9394 0.72054C13.9982 0.661868 14.0778 0.628906 14.1609 0.628906C14.244 0.628906 14.3237 0.661868 14.3824 0.72054C14.4412 0.779213 14.4742 0.85879 14.4742 0.941766V4.05676C14.4742 4.09785 14.4661 4.13853 14.4503 4.17649C14.4346 4.21445 14.4115 4.24894 14.3824 4.27799C14.3533 4.30704 14.3188 4.33009 14.2808 4.34581C14.2428 4.36153 14.2021 4.36962 14.1609 4.36962Z" fill="#BA68C8"/>
<path d="M19.2858 5.75105C19.2302 5.75096 19.1756 5.73693 19.1269 5.71024C19.0882 5.68924 19.0544 5.66046 19.0274 5.62572C19.0005 5.59098 18.9811 5.55104 18.9704 5.50842C18.9598 5.4658 18.9581 5.42143 18.9655 5.37812C18.9728 5.33481 18.9892 5.29351 19.0134 5.25682L20.5706 2.5363C20.6121 2.46414 20.6807 2.41143 20.7612 2.38974C20.8416 2.36806 20.9274 2.37919 20.9997 2.42067C21.0719 2.46216 21.1247 2.53061 21.1464 2.61097C21.1681 2.69133 21.157 2.777 21.1154 2.84916L19.5582 5.54701C19.5378 5.60395 19.5011 5.65365 19.4527 5.68992C19.4042 5.7262 19.3462 5.74746 19.2858 5.75105Z" fill="#BA68C8"/>
<path d="M23.0274 9.50676C22.9724 9.50718 22.9183 9.49316 22.8705 9.4661C22.8227 9.43904 22.7828 9.3999 22.755 9.3526C22.7135 9.28029 22.7021 9.19459 22.7234 9.114C22.7446 9.0334 22.7967 8.96439 22.8685 8.92185L25.5698 7.36208C25.6056 7.34154 25.6451 7.32823 25.686 7.32293C25.7269 7.31762 25.7685 7.32041 25.8083 7.33115C25.8482 7.34189 25.8855 7.36035 25.9182 7.3855C25.9509 7.41064 25.9783 7.44198 25.9989 7.4777C26.0194 7.51343 26.0328 7.55285 26.0381 7.59372C26.0434 7.63459 26.0406 7.6761 26.0298 7.71589C26.0191 7.75568 26.0006 7.79296 25.9754 7.82561C25.9502 7.85826 25.9189 7.88564 25.8831 7.90618L23.1863 9.46595C23.1376 9.49264 23.0829 9.50667 23.0274 9.50676Z" fill="#BA68C8"/>
<path d="M27.5085 14.6304H24.3894C24.3064 14.6304 24.2267 14.5974 24.1679 14.5387C24.1092 14.4799 24.0762 14.4003 24.0762 14.3172C24.0762 14.2341 24.1092 14.1544 24.1679 14.0957C24.2267 14.0369 24.3064 14.0039 24.3894 14.0039H27.5085C27.5916 14.0039 27.6713 14.0369 27.73 14.0957C27.7888 14.1544 27.8218 14.2341 27.8218 14.3172C27.8218 14.4003 27.7888 14.4799 27.73 14.5387C27.6713 14.5974 27.5916 14.6304 27.5085 14.6304Z" fill="#BA68C8"/>
<path d="M25.7051 21.3022C25.6496 21.3021 25.5949 21.2881 25.5462 21.2614L22.8222 19.7061C22.7835 19.6851 22.7497 19.6564 22.7227 19.6216C22.6958 19.5869 22.6764 19.5469 22.6657 19.5043C22.6551 19.4617 22.6534 19.4173 22.6608 19.374C22.6682 19.3307 22.6845 19.2894 22.7087 19.2527C22.7504 19.1814 22.8187 19.1294 22.8987 19.1082C22.9786 19.0869 23.0637 19.0981 23.1354 19.1394L25.8595 20.6946C25.8957 20.7144 25.9276 20.7413 25.9532 20.7736C25.9788 20.8059 25.9977 20.8431 26.0087 20.8828C26.0197 20.9225 26.0226 20.9641 26.0173 21.005C26.0119 21.0458 25.9984 21.0852 25.9775 21.1208C25.9529 21.1729 25.9145 21.2173 25.8665 21.2492C25.8185 21.2812 25.7627 21.2995 25.7051 21.3022Z" fill="#BA68C8"/>
<path d="M2.55244 21.2628C2.49714 21.2623 2.44292 21.2474 2.39515 21.2196C2.34737 21.1918 2.3077 21.152 2.28004 21.1041C2.23877 21.0325 2.22754 20.9475 2.24881 20.8676C2.27007 20.7878 2.3221 20.7196 2.39354 20.6779L5.08128 19.1181C5.11684 19.0935 5.15711 19.0766 5.19956 19.0683C5.24201 19.06 5.28572 19.0606 5.32793 19.07C5.37014 19.0795 5.40994 19.0975 5.44482 19.123C5.47971 19.1486 5.50891 19.1811 5.53061 19.2184C5.5523 19.2558 5.56602 19.2972 5.57089 19.3402C5.57575 19.3831 5.57166 19.4266 5.55888 19.4678C5.5461 19.5091 5.5249 19.5473 5.49661 19.5799C5.46833 19.6126 5.43358 19.6391 5.39455 19.6577L2.69773 21.2175C2.6542 21.2452 2.60405 21.2609 2.55244 21.2628Z" fill="#BA68C8"/>
<path d="M3.89113 14.5842H0.772078C0.694912 14.5749 0.623818 14.5377 0.572243 14.4796C0.520669 14.4214 0.492188 14.3464 0.492188 14.2687C0.492188 14.1909 0.520669 14.1159 0.572243 14.0578C0.623818 13.9996 0.694912 13.9624 0.772078 13.9531H3.89113C3.93227 13.9531 3.973 13.9612 4.01101 13.977C4.04902 13.9927 4.08355 14.0158 4.11264 14.0449C4.14173 14.074 4.1648 14.1085 4.18055 14.1465C4.19629 14.1845 4.2044 14.2253 4.2044 14.2664C4.2044 14.3075 4.19629 14.3483 4.18055 14.3863C4.1648 14.4243 4.14173 14.4588 4.11264 14.4879C4.08355 14.517 4.04902 14.5401 4.01101 14.5558C3.973 14.5716 3.93227 14.5797 3.89113 14.5797V14.5842Z" fill="#BA68C8"/>
<path d="M5.27544 9.46624C5.21989 9.46615 5.16525 9.45212 5.11654 9.42543L2.39249 7.8702C2.35384 7.8492 2.31999 7.82043 2.29306 7.78569C2.26613 7.75094 2.24672 7.711 2.23605 7.66838C2.22538 7.62576 2.22369 7.58139 2.23108 7.53808C2.23847 7.49477 2.25478 7.45347 2.27898 7.41678C2.32071 7.34543 2.38901 7.29347 2.46897 7.27223C2.54892 7.25099 2.63405 7.26221 2.70575 7.30342L5.42981 8.85866C5.48992 8.89275 5.53704 8.94573 5.56385 9.00936C5.59066 9.07299 5.59565 9.14369 5.57804 9.21045C5.56042 9.2772 5.52119 9.33626 5.46646 9.37843C5.41173 9.42059 5.34457 9.4435 5.27544 9.44357V9.46624Z" fill="#BA68C8"/>
<path d="M9.03536 5.72878C8.98006 5.72829 8.92583 5.71339 8.87806 5.68555C8.83028 5.65772 8.79061 5.61792 8.76296 5.57008L7.20116 2.89944C7.15902 2.82728 7.1473 2.74137 7.16859 2.66058C7.18987 2.5798 7.24242 2.51077 7.31466 2.46869C7.38691 2.4266 7.47294 2.41489 7.55383 2.43615C7.63471 2.45741 7.70383 2.50989 7.74597 2.58204L9.30777 5.30256C9.34904 5.37418 9.36027 5.45919 9.339 5.53904C9.31774 5.61889 9.26571 5.6871 9.19426 5.72878C9.14233 5.74352 9.0873 5.74352 9.03536 5.72878Z" fill="#BA68C8"/>
</svg>
