<svg width="25" height="24" viewBox="0 0 25 24" fill="none" xmlns="http://www.w3.org/2000/svg">
<path d="M20.45 21C18.3667 21 16.3043 20.55 14.263 19.65C12.2217 18.75 10.3673 17.4667 8.7 15.8C7.03333 14.1333 5.75 12.2833 4.85 10.25C3.95 8.21667 3.5 6.15 3.5 4.05V3H9.4L10.325 8.025L7.475 10.9C7.84167 11.55 8.25 12.1667 8.7 12.75C9.15 13.3333 9.63333 13.875 10.15 14.375C10.6333 14.8583 11.1627 15.321 11.738 15.763C12.3133 16.205 12.934 16.6173 13.6 17L16.5 14.1L21.5 15.125V21H20.45Z" fill="white"/>
</svg>
