<svg width="40" height="40" viewBox="0 0 40 40" fill="none" xmlns="http://www.w3.org/2000/svg">
<g opacity="0.9" clip-path="url(#clip0_1_2988)">
<path fill-rule="evenodd" clip-rule="evenodd" d="M13.8217 21.1783C13.5093 20.8657 13.3337 20.4419 13.3337 19.9999C13.3337 19.558 13.5093 19.1342 13.8217 18.8216L23.2501 9.39328C23.5644 9.08968 23.9854 8.92169 24.4224 8.92549C24.8594 8.92929 25.2774 9.10457 25.5864 9.41358C25.8954 9.7226 26.0707 10.1406 26.0745 10.5776C26.0783 11.0146 25.9103 11.4356 25.6067 11.7499L17.3567 19.9999L25.6067 28.2499C25.9103 28.5643 26.0783 28.9853 26.0745 29.4223C26.0707 29.8593 25.8954 30.2773 25.5864 30.5863C25.2774 30.8953 24.8594 31.0706 24.4224 31.0744C23.9854 31.0782 23.5644 30.9102 23.2501 30.6066L13.8217 21.1783Z" fill="white"/>
</g>
<defs>
<clipPath id="clip0_1_2988">
<rect width="40" height="40" fill="white" transform="matrix(0 -1 1 0 0 40)"/>
</clipPath>
</defs>
</svg>
