<svg width="40" height="40" viewBox="0 0 40 40" fill="none" xmlns="http://www.w3.org/2000/svg">
<g opacity="0.9" clip-path="url(#clip0_1_2995)">
<path fill-rule="evenodd" clip-rule="evenodd" d="M26.1783 18.8217C26.4907 19.1343 26.6663 19.5581 26.6663 20.0001C26.6663 20.442 26.4907 20.8658 26.1783 21.1784L16.7499 30.6067C16.4356 30.9103 16.0146 31.0783 15.5776 31.0745C15.1406 31.0707 14.7226 30.8954 14.4136 30.5864C14.1046 30.2774 13.9293 29.8594 13.9255 29.4224C13.9217 28.9854 14.0897 28.5644 14.3933 28.2501L22.6433 20.0001L14.3933 11.7501C14.0897 11.4357 13.9217 11.0147 13.9255 10.5777C13.9293 10.1407 14.1046 9.72271 14.4136 9.41369C14.7226 9.10468 15.1406 8.9294 15.5776 8.9256C16.0146 8.9218 16.4356 9.08979 16.7499 9.39339L26.1783 18.8217Z" fill="white"/>
</g>
<defs>
<clipPath id="clip0_1_2995">
<rect width="40" height="40" fill="white" transform="matrix(0 1 -1 0 40 0)"/>
</clipPath>
</defs>
</svg>
