<svg width="39" height="65" viewBox="0 0 39 65" fill="none" xmlns="http://www.w3.org/2000/svg">
<path d="M19.694 51.8148C19.694 51.8148 17.7398 39.0803 17.9038 31.6663C18.0678 24.2523 17.9038 15.9182 17.9038 15.9182H18.8036C18.8036 15.9182 18.1944 30.6306 18.8598 39.5026C19.5253 48.3745 21.2685 51.8148 21.2685 51.8148H19.7033" fill="#263238"/>
<path d="M25.5144 1.58888C25.3736 1.13739 25.0867 0.73933 24.6943 0.451C24.1226 0.108747 23.3728 0.250982 22.7355 0.451C20.0175 1.36219 17.604 6.17151 16.5074 8.70063L20.1159 20.2572C26.6344 14.5189 27.7638 6.99825 25.5144 1.58888Z" fill="#455A64"/>
<path d="M24.4833 0.940674C24.4715 0.992554 24.4542 1.04318 24.4318 1.0918L24.2537 1.50961C24.0944 1.87409 23.8741 2.39859 23.607 3.05642C23.0775 4.38988 22.398 6.19893 21.7934 8.26578C21.1889 10.3326 20.7765 12.2306 20.5188 13.5996C20.3876 14.293 20.2938 14.853 20.2329 15.2397C20.2001 15.422 20.1767 15.5687 20.1532 15.6842C20.1474 15.7373 20.1348 15.7895 20.1158 15.8398C20.1105 15.7866 20.1105 15.733 20.1158 15.6798C20.1158 15.5598 20.1439 15.4131 20.1626 15.2353C20.2095 14.8441 20.2891 14.2796 20.4063 13.5818C20.7118 11.7717 21.1232 9.97914 21.6388 8.21243C22.1626 6.4462 22.7884 4.70861 23.5133 3.00752C23.7945 2.35413 24.0288 1.83408 24.2068 1.4785C24.2865 1.30959 24.3521 1.17625 24.4084 1.06513C24.4284 1.02114 24.4536 0.979406 24.4833 0.940674Z" fill="#263238"/>
<path d="M18.5132 23.0225C16.87 22.1354 15.4949 20.8625 14.5199 19.3259C13.545 17.7894 13.0029 16.0409 12.9459 14.2484C12.8194 11.6881 13.6489 9.1768 14.5861 6.77214C14.6434 6.55433 14.7794 6.36246 14.9704 6.22987C15.1256 6.17421 15.2933 6.15724 15.4573 6.18059C15.6214 6.20394 15.7765 6.26682 15.9076 6.36322C18.3632 7.69668 19.8535 10.2258 20.6501 12.8038C21.216 14.5121 21.4042 16.3127 21.2031 18.0932C20.8934 19.9665 19.955 21.6952 18.5272 23.0225" fill="#455A64"/>
<path d="M18.5131 23.0209C18.5071 22.9692 18.5071 22.917 18.5131 22.8653C18.5131 22.7498 18.5131 22.6031 18.5131 22.4208C18.5131 22.0386 18.5131 21.483 18.4616 20.794C18.3659 19.0057 18.1562 17.2245 17.8336 15.4602C17.4587 13.3934 17.0042 11.5443 16.6667 10.2064L16.2684 8.6196C16.2262 8.44625 16.1887 8.30401 16.1653 8.17511C16.1436 8.13544 16.1264 8.09373 16.1138 8.05066C16.1379 8.09756 16.1567 8.14671 16.17 8.19733C16.2028 8.30845 16.245 8.45069 16.3012 8.6196C16.4137 8.99297 16.5636 9.50857 16.7698 10.1931C17.1307 11.5265 17.604 13.3756 17.9836 15.4513C18.3061 17.2146 18.5018 18.9967 18.5694 20.7851C18.5694 21.4696 18.5694 22.0297 18.5694 22.4119L18.5459 22.8564C18.5419 22.9123 18.5308 22.9675 18.5131 23.0209Z" fill="#263238"/>
<g opacity="0.3">
<path d="M18.5132 23.0227C16.87 22.1356 15.4949 20.8627 14.5199 19.3262C13.545 17.7896 13.0029 16.0411 12.9459 14.2486C12.8194 11.6884 13.6489 9.17705 14.5861 6.77239C14.6434 6.55458 14.7794 6.3627 14.9704 6.23011C15.1256 6.17446 15.2933 6.15749 15.4573 6.18083C15.6214 6.20418 15.7765 6.26707 15.9076 6.36347C18.3632 7.69692 19.8535 10.226 20.6501 12.804C21.216 14.5123 21.4042 16.313 21.2031 18.0934C20.8934 19.9667 19.955 21.6954 18.5272 23.0227" fill="black"/>
</g>
<path d="M22.3325 42.5084C25.6598 43.2062 28.4246 45.4331 31.616 46.5087C33.7435 47.2243 36.1476 47.4777 37.844 48.8867C37.4363 47.9133 36.4709 47.2643 35.5337 46.7087C32.8831 45.139 30.0532 43.8596 27.0984 42.8951C25.5848 42.4017 23.9446 42.0061 22.4122 42.3928" fill="#455A64"/>
<path d="M17.52 45.3265C13.3492 45.2598 8.95817 41.8907 4.80615 41.6906C9.15031 40.3572 15.369 41.4462 17.52 45.3265Z" fill="#455A64"/>
<path d="M19.146 35.8314C21.2949 35.1576 23.5874 35.0048 25.8145 35.3869C28.0297 35.7724 30.207 36.3329 32.3237 37.0626C32.1082 35.6891 30.9179 34.6579 29.8353 33.7468C29.0319 33.0331 28.1577 32.3945 27.2251 31.8399C26.2859 31.2821 25.1981 30.9906 24.09 30.9998C23.4252 31.0407 22.776 31.2081 22.1809 31.4922C21.5859 31.7763 21.0574 32.1712 20.6269 32.6533C19.7848 33.5265 19.2651 34.6357 19.146 35.8136" fill="#455A64"/>
<path d="M10.584 31.4666C7.95975 29.3376 3.98111 29.5465 0.527344 29.622C6.07148 32.1279 11.3 35.2189 16.1138 38.8362C16.2638 36.5204 13.9019 34.1513 10.584 31.4666Z" fill="#455A64"/>
<g opacity="0.3">
<path d="M10.584 31.467C7.95975 29.3379 3.98111 29.5468 0.527344 29.6224C6.07148 32.1283 11.3 35.2192 16.1138 38.8366C16.2638 36.5208 13.9019 34.1517 10.584 31.467Z" fill="black"/>
</g>
<path d="M20.3312 28.5299C21.6131 27.6881 22.9639 26.9449 24.3708 26.3075C25.7485 25.7119 27.0419 24.7651 28.3728 24.0851C30.1067 23.1961 31.6063 21.9604 33.195 20.8581C34.7836 19.7558 36.5269 18.7601 38.4717 18.4668C36.8707 18.1973 35.2252 18.2886 33.6683 18.7335C32.1173 19.1762 30.6053 19.7336 29.1461 20.4003C27.0982 21.2893 25.0175 22.1782 23.3398 23.5917C21.6621 25.0051 20.1531 26.4142 20.3312 28.5388" fill="#455A64"/>
<path d="M31.5412 45.3261L31.4099 45.2728L31.0444 45.0905C30.7304 44.9349 30.2806 44.6994 29.7135 44.4282C29.4323 44.286 29.1184 44.1393 28.7763 43.9838C28.4342 43.8282 28.078 43.6726 27.6937 43.5126C26.8644 43.1616 26.0054 42.8776 25.1257 42.6636C24.2525 42.4355 23.3337 42.4142 22.4498 42.6014C22.0639 42.681 21.6848 42.788 21.3158 42.9214C20.5336 43.2195 19.8286 43.6744 19.2491 44.2549C19.0101 44.4994 18.893 44.6505 18.8789 44.6416C18.9003 44.6011 18.9254 44.5624 18.9539 44.526C19.0325 44.4196 19.1169 44.3173 19.2069 44.2193C19.5373 43.8541 19.9207 43.5353 20.3457 43.2726C20.6414 43.0873 20.9553 42.9295 21.283 42.8014C21.6556 42.659 22.0395 42.5446 22.4311 42.4592C23.3353 42.2599 24.2777 42.2782 25.1725 42.5125C26.0617 42.7281 26.9289 43.0182 27.764 43.3793C28.1483 43.5437 28.5138 43.7037 28.8466 43.8682C29.1793 44.0326 29.4933 44.1749 29.7838 44.3127C30.3462 44.5971 30.7914 44.8416 31.096 45.0194L31.4474 45.2194C31.5037 45.295 31.5458 45.3216 31.5412 45.3261Z" fill="#263238"/>
<path d="M14.4035 43.3651C14.4946 43.3747 14.5833 43.3987 14.6659 43.4362C14.8984 43.5158 15.1254 43.6094 15.3454 43.7162C16.8126 44.4242 18.0259 45.5286 18.832 46.8899C18.9529 47.0949 19.0593 47.3072 19.1507 47.5255C19.1918 47.6028 19.2217 47.685 19.2397 47.7699C19.2163 47.7699 19.0616 47.4455 18.7383 46.9432C18.3184 46.2925 17.8129 45.695 17.234 45.1653C16.6507 44.6432 15.9985 44.195 15.2939 43.8318C14.755 43.5207 14.3941 43.3873 14.4035 43.3651Z" fill="#263238"/>
<path d="M5.17627 31.2664L5.35435 31.3152L5.85109 31.4842L6.64307 31.7597C6.95236 31.8708 7.28508 32.0309 7.65998 32.2042C9.61683 33.0644 11.4435 34.1691 13.0913 35.489C13.9976 36.214 14.8509 36.9966 15.6453 37.8314C16.2833 38.521 16.8824 39.2421 17.4402 39.9916C17.9088 40.6316 18.279 41.165 18.5274 41.5295L18.8133 41.974C18.847 42.0221 18.8767 42.0727 18.9023 42.1251C18.8588 42.0844 18.8195 42.0397 18.7851 41.9918C18.7148 41.8984 18.6071 41.7606 18.4758 41.5784C18.2134 41.2184 17.8432 40.6894 17.3558 40.0671C16.8685 39.4449 16.2592 38.707 15.5423 37.9336C14.7551 37.1014 13.9113 36.3189 13.0164 35.5912C11.3757 34.2813 9.56834 33.1719 7.63655 32.2887C7.26165 32.1287 6.93362 31.9597 6.62901 31.8442L5.85109 31.5464L5.3356 31.3419C5.27953 31.3228 5.22605 31.2974 5.17627 31.2664Z" fill="#263238"/>
<path d="M25.4019 33.6099C25.2897 33.6086 25.1781 33.5952 25.0692 33.5699L24.6896 33.5032C24.5396 33.4766 24.3662 33.4721 24.1741 33.4543C23.1853 33.3742 22.1928 33.5606 21.3108 33.9922C20.8263 34.2312 20.385 34.5418 20.0033 34.9122C19.6847 35.2079 19.4032 35.5375 19.1645 35.8946C18.9479 36.2263 18.7569 36.5724 18.5928 36.9302C18.6048 36.8246 18.6332 36.7212 18.6771 36.6235C18.7826 36.351 18.9161 36.089 19.0755 35.8412C19.3073 35.4699 19.5858 35.1266 19.9049 34.8189C20.2921 34.4346 20.7433 34.1132 21.2405 33.8677C22.1448 33.4199 23.1706 33.2417 24.1835 33.3566C24.3756 33.3832 24.5537 33.3877 24.7036 33.4232L25.0832 33.5166C25.1928 33.5363 25.2997 33.5676 25.4019 33.6099Z" fill="#263238"/>
<path d="M29.5962 21.2758C29.5476 21.3121 29.494 21.342 29.4369 21.3647L28.9683 21.6047C28.5652 21.8136 27.9795 22.1203 27.2718 22.5159C26.5642 22.9115 25.7394 23.4048 24.8584 24.0049C23.8949 24.6435 22.9918 25.3603 22.1591 26.1473C21.7304 26.551 21.3601 27.0068 21.0579 27.503C20.7814 28.0008 20.5237 28.4808 20.28 28.9431C19.8496 29.7581 19.4632 30.5933 19.1225 31.4456C18.8971 32.0268 18.7093 32.6206 18.5601 33.2235C18.4523 33.6458 18.4148 33.8858 18.4008 33.8813C18.3867 33.8769 18.4008 33.8236 18.4008 33.708C18.4008 33.5924 18.443 33.4235 18.4898 33.2102C18.6174 32.6063 18.7913 32.0121 19.01 31.4322C19.3357 30.5704 19.7144 29.7274 20.1441 28.9076C20.3831 28.4409 20.6408 27.9564 20.9126 27.4585C21.2205 26.9493 21.5987 26.4814 22.0373 26.0673C22.8768 25.2742 23.7895 24.5543 24.7647 23.916C25.6551 23.3204 26.4939 22.8359 27.2062 22.4448C27.9186 22.0536 28.5137 21.7691 28.9261 21.5558L29.3947 21.3424C29.4588 21.3126 29.5265 21.2902 29.5962 21.2758Z" fill="#263238"/>
<path d="M17.8994 33.2545C17.8613 33.1459 17.833 33.0343 17.815 32.9211C17.7681 32.6767 17.7072 32.37 17.6322 32.0055C17.4349 31.0013 17.172 30.0096 16.8449 29.0363C16.5072 28.0668 16.1098 27.117 15.6546 26.1916L15.2469 25.3427C15.1911 25.2424 15.1471 25.1366 15.1157 25.0271C15.1891 25.1174 15.2505 25.2159 15.2985 25.3205C15.411 25.5116 15.5656 25.7961 15.7671 26.1472C16.7493 27.9831 17.4214 29.954 17.7588 31.9877C17.8244 32.3789 17.8712 32.6944 17.8947 32.9122C17.9078 33.0259 17.9094 33.1405 17.8994 33.2545Z" fill="#263238"/>
<path d="M17.5995 24.2523C17.4666 22.7539 17.0036 21.2987 16.2405 19.9808C15.21 18.1698 13.7741 16.5946 12.0335 15.3661C10.2929 14.1375 8.28989 13.2852 6.16504 12.869L15.4954 26.0569L16.6997 28.4126C17.4612 27.1528 17.7765 25.6946 17.5995 24.2523Z" fill="#455A64"/>
<path d="M30.9788 50.2416H9.28613V53.8863H30.9788V50.2416Z" fill="#7E57C2"/>
<path d="M10.9072 53.1667L12.7536 64.4789H27.1544L29.357 53.1667H10.9072Z" fill="#7E57C2"/>
<path d="M30.9695 53.8918C30.9695 53.9318 26.0723 53.9674 20.0411 53.9674C14.0099 53.9674 9.11279 53.9318 9.11279 53.8918C9.11279 53.8518 14.0052 53.8207 20.0411 53.8207C26.077 53.8207 30.9695 53.834 30.9695 53.8918Z" fill="#263238"/>
</svg>
