<svg width="159" height="105" viewBox="0 0 159 105" fill="none" xmlns="http://www.w3.org/2000/svg">
<path opacity="0.2" d="M101.685 74.9545C92.6273 80.6903 85.0817 85.2743 81.1636 85.4104C78.0627 85.5101 76.7552 83.6602 76.5554 82.0551C76.4783 81.4198 76.248 80.8127 75.8842 80.286C75.5205 79.7592 75.0341 79.3285 74.4669 79.0308C71.4796 77.3032 65.3868 77.9834 60.942 80.5633C56.4972 83.1433 55.2987 86.6301 58.286 88.3576C59.1396 88.8428 60.7332 89.4594 63.5344 89.5546C66.3356 89.6499 69.5137 90.4343 69.3684 92.2072C69.096 95.1816 62.3631 98.9223 50.754 104.88C48.484 103.561 46.3819 102.314 44.5432 101.189C37.6831 97.0452 33.1657 94.3201 28.789 94.5513C25.0344 94.7508 22.9232 97.0089 22.2422 98.8815C21.7613 100.107 20.8646 101.124 19.7088 101.756C16.6851 103.511 11.3868 103.298 7.90459 101.276C4.42234 99.2533 4.05005 96.2063 7.07375 94.4743C7.92729 93.98 9.48454 93.3271 12.0679 93.0188C15.314 92.6243 19.2321 91.4046 19.5772 89.2463C20.0312 86.68 14.3288 83.5332 6.4563 79.1758C4.5086 78.1058 2.47917 76.9949 0.417969 75.7979L3.46891 73.9842C13.8703 67.8403 17.7021 65.1878 22.2967 65.0654C25.3703 64.9657 26.6915 66.8156 26.8913 68.4207C26.968 69.0538 27.1967 69.6589 27.558 70.1847C27.9192 70.7104 28.4023 71.1413 28.9661 71.4405C31.9671 73.168 38.0463 72.4924 42.5047 69.9125C46.963 67.3325 48.1525 63.8412 45.1515 62.1136C44.298 61.6194 42.7135 61.0164 39.9123 60.9075C37.111 60.7987 33.933 60.0279 34.0919 58.255C34.3507 55.1446 40.902 51.3721 51.4487 45.922L53.7187 47.2415C63.2802 52.7822 69.0733 56.124 74.249 55.8564C77.9901 55.6615 80.1148 53.4034 80.7958 51.5263C81.2707 50.3017 82.163 49.2837 83.3156 48.6516C86.3438 46.9014 91.6558 47.1236 95.1199 49.1322C98.5839 51.1409 98.9835 54.206 95.9598 55.9335C95.1062 56.4278 93.549 57.0807 90.9657 57.3754C87.7286 57.7744 83.8241 59.0077 83.4563 61.1524C83.0023 64.0044 89.1496 67.727 97.9302 72.8008L101.685 74.9545Z" fill="black"/>
<path opacity="0.2" d="M138.67 54.6987C138.497 56.857 142.143 57.7729 145.316 57.8726C147.836 57.986 149.243 58.5165 149.988 58.9336C152.617 60.4526 151.468 63.5721 147.427 65.8936C143.387 68.2151 138.002 68.8771 135.374 67.3582C134.875 67.0905 134.45 66.7059 134.133 66.2375C133.817 65.7691 133.619 65.231 133.557 64.6694C133.349 62.833 131.778 60.7337 128.023 60.8335C123.71 60.9559 118.312 64.8054 110.171 69.7794C107.851 71.2077 105.218 72.8128 102.412 74.4678L100.46 73.3479C91.2846 68.07 84.0432 63.8986 84.4881 61.1055C84.7832 59.3145 88.2064 58.2898 91.0349 57.9316C93.8634 57.5734 95.6567 56.8479 96.6329 56.2766C100.092 54.2906 99.7701 50.8355 95.9019 48.6319C92.0337 46.4283 86.0817 46.2106 82.6221 48.1785C81.3183 48.8888 80.3047 50.0326 79.7573 51.4114C79.1762 53.0528 77.3874 55.0161 74.2865 55.1884C69.5512 55.4468 63.8715 52.1641 54.4826 46.7366L52.4668 45.5623C55.3952 44.0705 58.2146 42.6876 60.7207 41.4815C69.306 37.2873 74.9766 34.5124 75.1854 32.0458C75.358 29.883 71.7168 28.9716 68.5387 28.8492C66.019 28.7494 64.6116 28.2189 63.8715 27.8018C61.2383 26.2828 62.3869 23.1588 66.414 20.8418C70.441 18.5248 75.8528 17.8537 78.4861 19.3727C78.9833 19.6416 79.4081 20.0265 79.7243 20.4947C80.0404 20.9628 80.2387 21.5004 80.3021 22.0615C80.5155 23.8752 82.0955 25.9972 85.8365 25.9019C90.0406 25.775 92.6693 23.8888 100.156 18.7561C102.603 17.0784 105.15 15.3509 107.874 13.5508C109.94 14.7478 111.96 15.8587 113.917 16.9288C121.317 21.0096 127.16 24.2606 126.775 26.564C126.493 28.3414 123.07 29.3797 120.241 29.7379C117.413 30.0961 115.597 30.8216 114.634 31.3793C111.161 33.3789 111.497 36.8203 115.361 39.0511C119.224 41.282 125.195 41.4724 128.668 39.4728C129.966 38.7601 130.975 37.6166 131.519 36.2399C131.962 35.1429 132.718 34.2 133.693 33.5285C134.668 32.857 135.819 32.4864 137.003 32.4629C140.908 32.2544 145.33 34.9205 151.986 38.9559C153.852 40.0895 155.967 41.3591 158.274 42.6921C156.113 43.803 154.015 44.8504 152.063 45.8388C142.474 50.6768 138.892 52.0371 138.67 54.6987Z" fill="black"/>
<path d="M75.1894 19.4275C75.3619 17.2692 71.7162 16.3578 68.5427 16.2309C66.023 16.1357 64.6155 15.6052 63.871 15.1835C63.4578 14.9869 63.1072 14.68 62.858 14.2966C62.6087 13.9133 62.4707 13.4685 62.459 13.0116V24.2746C62.4713 24.7307 62.6091 25.1748 62.8573 25.5579C63.1056 25.941 63.4547 26.2484 63.8664 26.4464C64.1571 26.6102 64.4608 26.7498 64.7744 26.8636C71.0625 23.7486 75.0124 21.4815 75.1894 19.4275Z" fill="#37474F"/>
<path d="M74.2852 42.5811V53.8486C77.386 53.6763 79.1794 51.7129 79.756 50.0716V38.8086C79.1794 40.45 77.386 42.4088 74.2852 42.5811Z" fill="#455A64"/>
<path d="M54.482 34.1353L52.4707 32.9609V44.2284L54.482 45.4028C63.8709 50.8438 69.5551 54.113 74.2859 53.8546V42.5825C69.5551 42.8455 63.8709 39.5627 54.482 34.1353Z" fill="#263238"/>
<path d="M95.905 36.0082C92.0504 33.7774 86.0848 33.5915 82.6252 35.5775C81.3209 36.2885 80.3061 37.4319 79.7559 38.8104V50.0779C80.3061 48.6994 81.3209 47.556 82.6252 46.845C84.5003 45.7704 87.1154 45.3351 89.7305 45.5165C90.1845 45.4303 90.6112 45.3623 91.0335 45.3124C93.9028 44.9678 95.6553 44.2242 96.6314 43.6574C100.091 41.6715 99.7686 38.23 95.905 36.0082Z" fill="#37474F"/>
<path d="M114.652 18.7517C115.619 18.194 117.399 17.4549 120.264 17.1103C123.128 16.7657 126.515 15.7274 126.797 13.9364C126.813 13.865 126.821 13.7919 126.819 13.7188V25.0044C126.826 25.0707 126.826 25.1376 126.819 25.2039C126.579 26.7228 124.054 27.6932 121.562 28.1692C119.406 28.0489 117.304 27.4477 115.41 26.41C111.519 24.1882 111.188 20.7513 114.652 18.7517Z" fill="#37474F"/>
<path d="M100.46 60.6948C91.5481 55.5667 84.461 51.4813 84.4746 48.7109V59.983C84.4746 62.7579 91.5572 66.8387 100.46 71.9623L102.403 73.0868V61.8148L100.46 60.6948Z" fill="#263238"/>
<path d="M147.432 53.2417C143.404 55.5768 138.006 56.2297 135.373 54.7107L135.191 65.8739L135.373 65.9782C138.006 67.4972 143.404 66.8443 147.432 64.5137C150.01 63.031 151.404 61.2219 151.395 59.712V48.5352C151.359 50.0269 149.974 51.7907 147.432 53.2417Z" fill="#455A64"/>
<path d="M133.544 52.0347C133.335 50.1938 131.769 48.099 128.01 48.1987V59.4662C131.769 59.3665 133.335 61.4658 133.544 63.3022C133.603 63.8301 133.782 64.3377 134.067 64.7857C134.353 65.2338 134.738 65.6104 135.192 65.8867L135.374 54.7235C134.873 54.4574 134.445 54.0735 134.126 53.6051C133.807 53.1366 133.608 52.5976 133.544 52.0347Z" fill="#37474F"/>
<path d="M110.161 57.125C107.832 58.5579 105.208 60.163 102.402 61.8134V73.0854C105.208 71.4305 107.85 69.8253 110.161 68.3971C118.302 63.4094 123.7 59.5735 128.008 59.4511V48.1836C123.7 48.306 118.302 52.1556 110.161 57.125Z" fill="#455A64"/>
<path d="M158.314 30.0625V41.33C156.153 42.4409 154.051 43.4883 152.098 44.4767C151.063 44.9936 150.101 45.4743 149.197 45.9186C147.951 45.4801 146.641 45.2459 145.32 45.2249C142.142 45.1115 138.51 44.2001 138.673 42.0509C138.896 39.3984 142.478 38.0382 152.098 33.2138C154.06 32.2208 156.153 31.1779 158.314 30.0625Z" fill="#455A64"/>
<path d="M138.67 42.0615C138.497 44.2198 142.143 45.1311 145.316 45.2354C147.836 45.3442 149.244 45.8747 149.988 46.2964C152.617 47.8154 151.468 50.9349 147.428 53.2564C143.387 55.5779 138.002 56.2399 135.374 54.721C134.875 54.4533 134.45 54.0687 134.133 53.6003C133.817 53.1319 133.619 52.5938 133.558 52.0322C133.349 50.1958 131.778 48.0965 128.023 48.1962C123.71 48.3187 118.312 52.1682 110.171 57.1422C107.851 58.5705 105.218 60.1756 102.412 61.8306L100.474 60.7061C91.2983 55.4238 84.0569 51.2568 84.5018 48.4638C84.7969 46.6728 88.2201 45.648 91.0486 45.2898C93.8771 44.9316 95.6704 44.2062 96.6465 43.6348C100.106 41.6489 99.7837 38.1938 95.9156 35.9856C92.0474 33.7775 86.0953 33.5689 82.6358 35.5549C81.332 36.2652 80.3184 37.409 79.771 38.7878C79.1899 40.4292 77.4011 42.3925 74.3002 42.5648C69.5649 42.8232 63.8852 39.5405 54.4963 34.113L52.4805 32.9387C55.4088 31.4469 58.2282 30.064 60.7344 28.8579C69.3197 24.6637 74.9903 21.8888 75.1991 19.4177C75.3716 17.2594 71.7305 16.348 68.5524 16.2437C66.0327 16.144 64.6252 15.6135 63.8852 15.1918C61.2519 13.6774 62.4006 10.5533 66.4276 8.23631C70.4547 5.91933 75.8665 5.24827 78.4998 6.76723C78.997 7.03615 79.4217 7.42106 79.7379 7.88921C80.0541 8.35736 80.2524 8.89488 80.3158 9.45601C80.5292 11.2697 82.1091 13.3917 85.8502 13.2919C90.0543 13.1695 92.683 11.2833 100.17 6.15058C102.617 4.47292 105.164 2.74539 107.888 0.945312C109.954 2.14234 111.974 3.25322 113.931 4.32329C121.331 8.40408 127.174 11.6551 126.788 13.9585C126.507 15.7359 123.084 16.7742 120.255 17.1324C117.427 17.4906 115.611 18.2161 114.648 18.7738C111.175 20.7734 111.511 24.2148 115.374 26.4457C119.238 28.6765 125.208 28.8669 128.681 26.8673C129.98 26.1546 130.989 25.0111 131.533 23.6345C131.974 22.5334 132.731 21.5867 133.708 20.9126C134.685 20.2384 135.839 19.8667 137.026 19.8439C140.931 19.6353 145.353 22.3014 152.008 26.3323C153.874 27.4704 155.99 28.74 158.297 30.073C156.135 31.1839 154.038 32.2313 152.086 33.2198C142.474 38.0351 138.892 39.3908 138.67 42.0615Z" fill="#455A64"/>
<path d="M107.927 2.00101C109.743 3.03481 111.487 4.00513 113.198 4.94371L113.516 5.11601C117.253 7.18815 120.476 8.97009 122.778 10.5571C125.743 12.602 125.956 13.5088 125.902 13.8126C125.747 14.7829 123.218 15.8394 120.154 16.2112C117.089 16.583 115.241 17.372 114.202 17.9705C112.358 19.0269 111.346 20.5323 111.346 22.2009C111.346 24.069 112.649 25.8963 114.928 27.2112C117.312 28.5016 119.985 29.1648 122.696 29.1382C124.939 29.1931 127.158 28.6749 129.143 27.6329C130.629 26.8161 131.78 25.503 132.394 23.9239C132.893 22.5636 134.423 20.895 137.075 20.7499C137.202 20.7499 137.329 20.7499 137.461 20.7499C141.02 20.7499 145.438 23.4206 151.535 27.0978C152.852 27.9004 154.522 28.9115 156.402 30.0133L153.446 31.5051L151.676 32.4119C150.314 33.0875 149.106 33.6906 147.989 34.2256C140.725 37.8258 138.001 39.1724 137.751 41.9655C137.722 42.3329 137.769 42.7024 137.89 43.0505C138.011 43.3987 138.204 43.7178 138.455 43.9877C140.035 45.7606 143.749 46.0735 145.265 46.1279C147.59 46.2276 148.865 46.6947 149.524 47.0665C149.797 47.1862 150.032 47.38 150.202 47.626C150.371 47.872 150.468 48.1603 150.482 48.4585C150.482 49.66 149.12 51.2289 146.963 52.4576C144.579 53.824 141.889 54.5679 139.141 54.6205C137.988 54.6737 136.841 54.4317 135.808 53.9176C135.433 53.7234 135.112 53.4389 134.874 53.0899C134.636 52.7408 134.489 52.3381 134.446 51.9181C134.201 49.7734 132.435 47.2705 128.258 47.2705H127.981C124.117 47.3793 119.623 50.1815 113.398 54.0718C112.213 54.8064 110.987 55.5681 109.68 56.3661C106.956 58.0528 104.613 59.463 102.393 60.7779L100.913 59.9209C96.4682 57.3637 92.2867 54.9333 89.3901 52.9111C85.7217 50.322 85.3041 49.1114 85.3812 48.6262C85.5492 47.6378 88.0236 46.604 91.1426 46.2231C94.1663 45.8558 96.0459 45.0578 97.0856 44.4548C98.9243 43.3983 99.9368 41.8975 99.9368 40.2289C99.9368 38.3608 98.6292 36.538 96.3592 35.2413C93.9746 33.9492 91.2994 33.2859 88.5865 33.3142C86.354 33.259 84.1443 33.7741 82.1668 34.8105C80.6779 35.6309 79.5219 36.9441 78.898 38.524C78.4167 39.8843 76.9003 41.5483 74.2353 41.698H73.7586C69.3638 41.698 63.9338 38.5558 54.9399 33.355L54.3633 33.0195C56.7877 31.7998 59.1077 30.6617 61.119 29.6869C70.2945 25.2025 75.8379 22.4956 76.1013 19.503C76.1291 19.1365 76.0809 18.7681 75.9599 18.421C75.8388 18.0738 75.6474 17.7553 75.3976 17.4853C73.8267 15.717 70.1083 15.3905 68.5874 15.3316C66.2674 15.2409 64.9917 14.7739 64.3379 14.4247C64.0633 14.3056 63.8276 14.1121 63.6575 13.8661C63.4873 13.6201 63.3896 13.3314 63.3754 13.0327C63.3754 11.8312 64.7374 10.2669 66.8803 9.0381C69.2695 7.67242 71.9642 6.92867 74.7165 6.87528C75.8686 6.82247 77.0153 7.06274 78.049 7.57355C78.4234 7.77013 78.7436 8.05583 78.9811 8.40538C79.2187 8.75493 79.3663 9.15757 79.411 9.57767C79.6562 11.7178 81.4223 14.2207 85.5946 14.2207H85.8716C90.2164 14.0937 92.8906 12.2619 100.037 7.36044L100.677 6.90702C102.602 5.58757 105.135 3.86004 107.941 2.01915M107.909 0.953611C105.185 2.76729 102.625 4.48123 100.191 6.15888C92.6772 11.2735 90.0439 13.1597 85.8443 13.2821H85.5946C82.0306 13.2821 80.5188 11.2281 80.3099 9.44164C80.2465 8.88051 80.0483 8.34299 79.7321 7.87484C79.4159 7.4067 78.9911 7.02178 78.4939 6.75286C77.3231 6.16453 76.0216 5.88365 74.712 5.9367C71.802 5.98668 68.9513 6.76625 66.4218 8.20381C62.3947 10.5208 61.2461 13.6448 63.8793 15.1593C64.6194 15.581 66.0268 16.1115 68.5466 16.2112C71.7246 16.3336 75.3567 17.245 75.1933 19.3851C74.9844 21.8563 69.2911 24.6312 60.7285 28.8254C58.2224 30.0451 55.403 31.428 52.4746 32.9061L54.4904 34.0805C63.5343 39.3084 69.1368 42.5459 73.7677 42.5459H74.2943C77.3952 42.3736 79.184 40.4103 79.7651 38.7689C80.3126 37.3901 81.3261 36.2463 82.6299 35.536C84.4708 34.5845 86.5237 34.1164 88.5956 34.1757C91.1486 34.148 93.6662 34.7723 95.9097 35.9894C99.7779 38.2112 100.1 41.6526 96.6407 43.6386C95.6646 44.2099 93.9166 44.949 91.0427 45.2936C88.1689 45.6382 84.791 46.6539 84.4959 48.4675C84.0419 51.2425 91.3061 55.4094 100.468 60.7099L102.407 61.8344C105.212 60.1794 107.855 58.5743 110.166 57.146C118.306 52.1584 123.704 48.3224 128.017 48.2H128.272C131.845 48.2 133.347 50.2449 133.552 52.0405C133.614 52.6021 133.811 53.1402 134.128 53.6086C134.444 54.077 134.87 54.4616 135.368 54.7293C136.536 55.3199 137.836 55.6024 139.145 55.55C142.051 55.4995 144.897 54.7198 147.422 53.2829C151.462 50.9613 152.611 47.8418 149.982 46.3229C149.238 45.9012 147.83 45.3707 145.311 45.2619C142.132 45.1485 138.5 44.2371 138.664 42.0879C138.886 39.4354 142.468 38.0797 152.093 33.2553C154.046 32.2668 156.143 31.2194 158.304 30.1086C155.998 28.7755 153.882 27.5059 152.021 26.3678C145.597 22.4367 141.261 19.8431 137.461 19.8431H137.007C135.822 19.8666 134.671 20.2371 133.696 20.9086C132.721 21.5801 131.965 22.523 131.522 23.6201C130.978 24.9967 129.97 26.1402 128.671 26.853C126.824 27.8151 124.761 28.2911 122.678 28.2359C120.125 28.2636 117.608 27.6393 115.364 26.4222C111.5 24.1914 111.164 20.7499 114.638 18.7504C115.6 18.1927 117.362 17.4536 120.245 17.109C123.128 16.7644 126.496 15.726 126.778 13.935C127.164 11.6317 121.33 8.39878 113.92 4.29986C111.968 3.22978 109.943 2.1189 107.877 0.921875L107.909 0.953611Z" fill="#37474F"/>
<path d="M101.685 62.3021C92.6273 68.0378 85.0817 72.6219 81.1636 72.7579C78.0627 72.8577 76.7552 71.0077 76.5554 69.4026C76.4791 68.7671 76.2491 68.1597 75.8852 67.6328C75.5214 67.1059 75.0346 66.6754 74.4669 66.3783C71.4796 64.6508 65.3868 65.3309 60.942 67.9109C56.4972 70.4908 55.2987 73.9776 58.286 75.7052C59.1396 76.1858 60.7332 76.8024 63.5344 76.9022C66.3356 77.0019 69.5137 77.7773 69.3684 79.5547C69.096 82.5291 62.3631 86.2653 50.754 92.2278C48.484 90.9083 46.3819 89.6614 44.5432 88.5369C37.6831 84.3927 33.1657 81.6676 28.789 81.8989C25.0344 82.0984 22.9232 84.3564 22.2422 86.229C21.7613 87.4542 20.8646 88.4717 19.7088 89.1037C16.6851 90.8585 11.3868 90.6454 7.90459 88.6231C4.42234 86.6008 4.05005 83.5539 7.07375 81.8218C7.92729 81.3276 9.48454 80.6746 12.0679 80.3663C15.314 79.9718 19.2321 78.7521 19.5772 76.5939C20.0312 74.0275 14.3288 70.8808 6.4563 66.5234C4.5086 65.4533 2.47917 64.3424 0.417969 63.1454L3.46891 61.3317C13.8703 55.1879 17.7021 52.5354 22.2967 52.4084C25.3703 52.3132 26.6915 54.1632 26.8913 55.7683C26.968 56.4013 27.1967 57.0064 27.558 57.5322C27.9192 58.058 28.4023 58.4888 28.9661 58.788C31.9671 60.5156 38.0463 59.84 42.5047 57.26C46.963 54.68 48.1525 51.1887 45.1515 49.4612C44.298 48.967 42.7135 48.3639 39.9123 48.2551C37.111 48.1463 33.933 47.3754 34.0919 45.6026C34.3507 42.4921 40.902 38.7196 51.4487 33.2695L53.7187 34.589C63.2802 40.1298 69.0733 43.4715 74.249 43.204C77.9901 43.009 80.1148 40.751 80.7958 38.8738C81.2707 37.6492 82.163 36.6312 83.3156 35.9991C86.3438 34.2489 91.6558 34.4711 95.1199 36.4798C98.5839 38.4884 98.9835 41.5535 95.9598 43.3037C95.1062 43.798 93.549 44.4509 90.9657 44.7456C87.7286 45.1401 83.8241 46.3779 83.4563 48.5226C83.0023 51.3746 89.1496 55.0972 97.9302 60.171L101.685 62.3021Z" fill="#FAFAFA"/>
<path d="M51.3947 34.2916L53.2471 35.3617C62.6542 40.8027 68.3293 44.0991 73.6185 44.0991C73.841 44.0991 74.0725 44.0991 74.2813 44.0991C78.4719 43.8769 80.8599 41.306 81.6363 39.1704C82.0386 38.1467 82.7893 37.2974 83.7565 36.7718C85.2034 36.0238 86.8181 35.6585 88.4464 35.7108C90.6192 35.6886 92.7617 36.2208 94.6709 37.257C96.2146 38.1638 97.0999 39.2611 97.1044 40.3176C97.1089 41.374 96.2373 42.0587 95.4927 42.5121C94.7481 42.9655 93.268 43.5641 90.8345 43.8406C89.0185 44.0583 83.1164 45.0331 82.5352 48.3748C81.9677 51.8208 87.8335 55.3983 97.4585 60.9527L99.9102 62.3629C91.6654 67.5636 84.6328 71.7532 81.1187 71.8847H80.9099C78.5854 71.8847 77.5911 70.5607 77.4412 69.3274C77.3495 68.5517 77.0711 67.8096 76.63 67.1645C76.1888 66.5195 75.598 65.9906 74.9079 65.623C73.4159 64.847 71.7496 64.4661 70.0681 64.5166C66.7054 64.5678 63.4096 65.4628 60.484 67.1192C57.4603 68.8604 55.726 71.064 55.726 73.1679C55.726 74.5281 56.4705 75.707 57.8371 76.4915C59.2037 77.2759 61.1378 77.7248 63.4941 77.8064C65.7641 77.8971 67.7073 78.414 68.3066 79.0896C68.3584 79.1381 68.399 79.1973 68.4257 79.263C68.4523 79.3288 68.4644 79.3996 68.4609 79.4704C68.2294 82.005 60.6838 86.0994 50.7546 91.1913C48.8205 90.0714 46.8864 88.9242 44.9841 87.7589C38.2284 83.6782 33.7655 80.9576 29.289 80.9576C29.0983 80.9576 28.9076 80.9576 28.7169 80.9576C24.5264 81.1753 22.1383 83.7462 21.3665 85.8773C20.9563 86.9029 20.1998 87.753 19.2281 88.2804C17.7803 89.0308 16.164 89.3976 14.5337 89.3459C12.3703 89.3823 10.2331 88.869 8.32281 87.8542C6.78372 86.9473 5.8984 85.8546 5.8984 84.7981C5.8984 83.7416 6.7701 83.0343 7.50105 82.6126C8.23201 82.1909 9.71662 81.5652 12.132 81.275C13.948 81.0529 19.8955 80.078 20.4267 76.7408C20.967 73.5397 15.6551 70.6015 6.85182 65.7273L6.53855 65.555C5.1175 64.7751 3.65559 63.9725 2.17552 63.1292L2.84291 62.7301L3.88714 62.109L7.47835 59.9779C15.0376 55.4709 18.4881 53.4169 22.2791 53.3126H22.4834C24.8034 53.3126 25.7931 54.6366 25.9429 55.8654C26.0319 56.6408 26.3081 57.3831 26.7478 58.0284C27.1875 58.6736 27.7776 59.2026 28.4672 59.5698C29.9724 60.343 31.652 60.7147 33.3433 60.6489C36.7068 60.5997 40.0035 59.7029 42.9274 58.0418C45.9511 56.3006 47.6855 54.1016 47.6855 51.9977C47.6855 50.6374 46.9318 49.4585 45.5743 48.6741C44.2168 47.8897 42.31 47.4408 39.9128 47.3456C37.6428 47.264 35.7178 46.7516 35.1139 46.0669C35.0596 46.0178 35.018 45.9562 34.9927 45.8875C34.9674 45.8188 34.9592 45.745 34.9686 45.6725C35.1956 42.9519 42.8139 38.7397 51.3947 34.3007M51.3947 33.2669C40.8435 38.7079 34.2967 42.4895 34.0379 45.5999C33.879 47.3728 37.0662 48.1527 39.8583 48.2524C42.6505 48.3522 44.2441 48.9643 45.0931 49.4585C48.0986 51.1861 46.9091 54.691 42.4507 57.2574C39.6715 58.8349 36.5397 59.6894 33.3433 59.7421C31.8162 59.8036 30.2987 59.4743 28.9348 58.7854C28.371 58.4862 27.888 58.0553 27.5267 57.5295C27.1655 57.0038 26.9368 56.3986 26.86 55.7656C26.6648 54.2013 25.4072 52.4058 22.497 52.4058H22.2654C17.6709 52.5327 13.839 55.1852 3.43766 61.3291L0.386719 63.1428C2.44792 64.3398 4.47281 65.4507 6.42505 66.5207C14.2976 70.8781 19.9772 74.0248 19.5459 76.5912C19.2009 78.7495 15.2828 79.9692 12.0366 80.3637C9.46692 80.672 7.90966 81.3249 7.0425 81.8191C4.0188 83.5603 4.37747 86.6209 7.87334 88.6204C9.91702 89.7371 12.2133 90.3116 14.5427 90.289C16.3325 90.3404 18.1054 89.9313 19.6912 89.1011C20.847 88.469 21.7436 87.4516 22.2246 86.2264C22.9056 84.3538 25.0167 82.0957 28.7714 81.8962C28.9485 81.8962 29.121 81.8962 29.2981 81.8962C33.5113 81.8962 37.9242 84.5669 44.5255 88.5479C46.3416 89.6724 48.4527 90.9193 50.7364 92.2387C62.35 86.2763 69.0829 82.5401 69.3508 79.5656C69.4961 77.7882 66.3089 77.0265 63.5168 76.9131C60.7246 76.7998 59.122 76.1967 58.2684 75.7161C55.281 73.9886 56.4524 70.4882 60.9244 67.9218C63.7079 66.3386 66.847 65.4838 70.05 65.4371C71.5736 65.3757 73.0878 65.7034 74.4493 66.3892C75.017 66.6863 75.5037 67.1169 75.8676 67.6438C76.2314 68.1707 76.4614 68.7781 76.5378 69.4136C76.733 70.9779 77.977 72.7734 80.9099 72.7734H81.146C85.0641 72.6374 92.6097 68.0533 101.667 62.3175L97.908 60.1593C89.1275 55.0855 82.962 51.3629 83.4342 48.5109C83.8019 46.3662 87.7064 45.1284 90.9435 44.7339C93.5359 44.4392 95.0932 43.7862 95.9376 43.292C98.9613 41.5418 98.5936 38.4812 95.0977 36.468C93.0569 35.3612 90.7687 34.7887 88.4464 34.804C86.6587 34.753 84.8877 35.1604 83.3025 35.9874C82.1499 36.6195 81.2576 37.6375 80.7828 38.8621C80.1018 40.7393 77.977 42.9973 74.2359 43.1923C74.0316 43.1923 73.8273 43.1923 73.6185 43.1923C68.5971 43.1923 62.8902 39.8959 53.7056 34.5773L51.4356 33.2578L51.3947 33.2669Z" fill="#BA68C8"/>
<path d="M6.42959 77.7783C4.47735 76.7082 2.44792 75.5973 0.386719 74.4003V63.1328C2.44792 64.3298 4.47281 65.4362 6.42959 66.5108C14.2976 70.8682 19.9772 74.0104 19.5459 76.5767C19.2009 78.7395 15.2828 79.9592 12.0366 80.3537C11.7551 80.3855 11.4873 80.4263 11.233 80.4671C9.76202 79.6237 8.14575 78.7305 6.42959 77.7783Z" fill="#BA68C8"/>
<path opacity="0.2" d="M6.42959 77.7783C4.47735 76.7082 2.44792 75.5973 0.386719 74.4003V63.1328C2.44792 64.3298 4.47281 65.4362 6.42959 66.5108C14.2976 70.8682 19.9772 74.0104 19.5459 76.5767C19.2009 78.7395 15.2828 79.9592 12.0366 80.3537C11.7551 80.3855 11.4873 80.4263 11.233 80.4671C9.76202 79.6237 8.14575 78.7305 6.42959 77.7783Z" fill="black"/>
<path d="M37.38 59.2313C35.4868 58.8595 33.9432 58.1068 34.0567 56.8599V45.7148C34.0567 47.4016 37.1576 48.1497 39.8816 48.2404C42.6874 48.3538 44.2673 48.9568 45.1209 49.451C48.1219 51.1786 46.9369 54.6835 42.474 57.2499C40.8895 58.1518 39.183 58.8207 37.4073 59.2358L37.38 59.2313Z" fill="#BA68C8"/>
<path opacity="0.1" d="M37.38 59.2313C35.4868 58.8595 33.9432 58.1068 34.0567 56.8599V45.7148C34.0567 47.4016 37.1576 48.1497 39.8816 48.2404C42.6874 48.3538 44.2673 48.9568 45.1209 49.451C48.1219 51.1786 46.9369 54.6835 42.474 57.2499C40.8895 58.1518 39.183 58.8207 37.4073 59.2358L37.38 59.2313Z" fill="black"/>
<path d="M7.86867 88.6224C5.95729 87.5251 4.98571 86.1149 4.99025 84.7773V96.0176C4.99025 97.3779 5.94367 98.7744 7.86413 99.8762C11.36 101.903 16.6583 102.112 19.6684 100.361V89.103C16.681 90.8577 11.3827 90.6446 7.86867 88.6224Z" fill="#BA68C8"/>
<path opacity="0.1" d="M7.86867 88.6224C5.95729 87.5251 4.98571 86.1149 4.99025 84.7773V96.0176C4.99025 97.3779 5.94367 98.7744 7.86413 99.8762C11.36 101.903 16.6583 102.112 19.6684 100.361V89.103C16.681 90.8577 11.3827 90.6446 7.86867 88.6224Z" fill="black"/>
<path d="M19.709 89.1052V100.377C20.8611 99.7419 21.7554 98.7253 22.2378 97.5025V86.2305C21.757 87.4543 20.8623 88.4714 19.709 89.1052Z" fill="#BA68C8"/>
<path d="M19.709 89.1052V100.377C20.8611 99.7419 21.7554 98.7253 22.2378 97.5025V86.2305C21.757 87.4543 20.8623 88.4714 19.709 89.1052Z" fill="#BA68C8"/>
<path d="M44.5392 88.5351C37.6837 84.3908 33.1618 81.6612 28.7851 81.897C25.0304 82.0965 22.9193 84.3545 22.2383 86.2271V97.4992C22.9193 95.622 25.0304 93.364 28.7851 93.1645C33.1618 92.9332 37.6837 95.6583 44.5392 99.8026C46.3553 100.927 48.4664 102.174 50.7501 103.493V92.2259C48.4664 90.9019 46.378 89.6686 44.5392 88.5351Z" fill="#BA68C8"/>
<path opacity="0.2" d="M44.5392 88.5351C37.6837 84.3908 33.1618 81.6612 28.7851 81.897C25.0304 82.0965 22.9193 84.3545 22.2383 86.2271V97.4992C22.9193 95.622 25.0304 93.364 28.7851 93.1645C33.1618 92.9332 37.6837 95.6583 44.5392 99.8026C46.3553 100.927 48.4664 102.174 50.7501 103.493V92.2259C48.4664 90.9019 46.378 89.6686 44.5392 88.5351Z" fill="black"/>
<path d="M50.75 92.2278V103.495C62.3636 97.5373 69.0965 93.7966 69.3644 90.8222V79.5547C69.0965 82.5291 62.3499 86.2653 50.75 92.2278Z" fill="#BA68C8"/>
<path d="M83.4529 48.4941C83.8252 46.3449 87.7297 45.1116 90.9622 44.7171C93.5592 44.4224 95.1164 43.7694 95.9563 43.2752C97.3184 42.4772 98.0039 41.4162 98.0039 40.3008V51.532C98.0039 52.6565 97.3547 53.7402 95.9654 54.5427C95.1164 55.0369 93.5592 55.6899 90.9713 55.9846C86.0862 52.9421 83.1215 50.5027 83.4529 48.4941Z" fill="#BA68C8"/>
<path opacity="0.2" d="M83.4529 48.4941C83.8252 46.3449 87.7297 45.1116 90.9622 44.7171C93.5592 44.4224 95.1164 43.7694 95.9563 43.2752C97.3184 42.4772 98.0039 41.4162 98.0039 40.3008V51.532C98.0039 52.6565 97.3547 53.7402 95.9654 54.5427C95.1164 55.0369 93.5592 55.6899 90.9713 55.9846C86.0862 52.9421 83.1215 50.5027 83.4529 48.4941Z" fill="black"/>
<path d="M74.4717 66.3803C71.4798 64.6528 65.3915 65.3329 60.9423 67.9129C56.493 70.4928 55.2989 73.9796 58.2863 75.7072C59.1398 76.1878 60.7334 76.8044 63.5347 76.9042C64.3776 76.9351 65.217 77.0306 66.0453 77.1899C69.296 76.4281 72.5331 76.5324 74.4717 77.6433C75.0382 77.9402 75.5239 78.3702 75.8869 78.8963C76.25 79.4223 76.4795 80.0287 76.5556 80.6631V69.4046C76.4802 68.7695 76.251 68.1622 75.8879 67.6353C75.5249 67.1084 75.0388 66.6776 74.4717 66.3803Z" fill="#BA68C8"/>
<path opacity="0.2" d="M74.4717 66.3803C71.4798 64.6528 65.3915 65.3329 60.9423 67.9129C56.493 70.4928 55.2989 73.9796 58.2863 75.7072C59.1398 76.1878 60.7334 76.8044 63.5347 76.9042C64.3776 76.9351 65.217 77.0306 66.0453 77.1899C69.296 76.4281 72.5331 76.5324 74.4717 77.6433C75.0382 77.9402 75.5239 78.3702 75.8869 78.8963C76.25 79.4223 76.4795 80.0287 76.5556 80.6631V69.4046C76.4802 68.7695 76.251 68.1622 75.8879 67.6353C75.5249 67.1084 75.0388 66.6776 74.4717 66.3803Z" fill="black"/>
<path d="M81.1641 72.7573V84.0248C85.0822 83.8887 92.6278 79.3047 101.685 73.5689V62.2969C92.6278 68.0372 85.0822 72.6213 81.1641 72.7573Z" fill="#BA68C8"/>
<path d="M76.5566 69.4023V80.6698C76.7564 82.275 78.064 84.1249 81.1648 84.0252V72.7577C78.064 72.8574 76.7564 71.0075 76.5566 69.4023Z" fill="#BA68C8"/>
<path opacity="0.1" d="M76.5566 69.4023V80.6698C76.7564 82.275 78.064 84.1249 81.1648 84.0252V72.7577C78.064 72.8574 76.7564 71.0075 76.5566 69.4023Z" fill="black"/>
<path d="M102.402 61.8148V73.0868L101.685 72.6697V62.2954L97.9301 60.1371C91.5377 56.4463 86.5345 53.4673 84.4688 51.0234V48.7109C84.4688 51.4813 91.5422 55.5667 100.454 60.6948L102.402 61.8148Z" fill="#263238"/>
<path d="M152.098 33.2099C154.05 32.2215 156.148 31.1741 158.309 30.0632C156.002 28.7302 153.887 27.4606 152.021 26.3225C145.351 22.2916 140.929 19.6255 137.038 19.834C135.854 19.8575 134.703 20.2281 133.728 20.8996C132.753 21.5711 131.997 22.514 131.554 23.611C131.01 24.9876 130.002 26.1312 128.703 26.8439C125.23 28.8435 119.264 28.6576 115.396 26.4222C111.528 24.1869 111.196 20.7499 114.669 18.7504C115.632 18.1927 117.393 17.4536 120.276 17.109C123.159 16.7644 126.528 15.726 126.81 13.935C127.196 11.6317 121.362 8.39878 113.952 4.29986C112 3.22978 109.975 2.1189 107.909 0.921875C105.185 2.73556 102.625 4.44948 100.191 6.12714C92.6772 11.2735 90.0439 13.1597 85.8443 13.2821C82.1033 13.3819 80.5233 11.2735 80.3099 9.44618C80.2465 8.88505 80.0483 8.34753 79.7321 7.87938C79.4159 7.41124 78.9911 7.02631 78.4939 6.75739C75.8606 5.23844 70.4625 5.8959 66.4218 8.22648C62.3811 10.5571 61.2461 13.6675 63.8793 15.1819C64.6194 15.6036 66.0268 16.1341 68.5466 16.2339C71.7246 16.3563 75.3567 17.2677 75.1933 19.4078C74.9844 21.879 69.2911 24.6539 60.7285 28.848C58.2224 30.0677 55.403 31.4507 52.4746 32.9288L54.4904 34.1032C63.8793 39.5442 69.559 42.8134 74.2943 42.5549C77.3952 42.3826 79.184 40.4193 79.7651 38.7779C80.3126 37.3992 81.3261 36.2553 82.6299 35.5451C86.0895 33.5591 92.0552 33.7314 95.9097 35.9758C99.7643 38.2202 100.1 41.639 96.6407 43.625C95.6646 44.1963 93.9166 44.9354 91.0427 45.28C88.1689 45.6246 84.791 46.6403 84.4959 48.4539C84.0419 51.2289 91.3061 55.3958 100.468 60.6963L102.407 61.8208C105.212 60.1658 107.855 58.5607 110.166 57.1324C118.306 52.1448 123.704 48.3088 128.017 48.1864C131.772 48.0867 133.343 50.186 133.552 52.0224C133.614 52.5839 133.811 53.1221 134.128 53.5905C134.444 54.0588 134.87 54.4434 135.368 54.7111C137.996 56.2301 143.395 55.5772 147.422 53.2466C151.449 50.916 152.611 47.8055 149.982 46.2866C149.238 45.8649 147.83 45.3344 145.311 45.2256C142.132 45.1122 138.5 44.2009 138.664 42.0516C138.891 39.3901 142.473 38.0343 152.098 33.2099Z" fill="#FAFAFA"/>
<path d="M107.927 2.00101C109.743 3.03481 111.487 4.00513 113.198 4.94371L113.516 5.11601C117.253 7.18815 120.476 8.97009 122.778 10.5571C125.743 12.602 125.956 13.5088 125.902 13.8126C125.747 14.7829 123.218 15.8394 120.154 16.2112C117.089 16.583 115.241 17.372 114.202 17.9705C112.358 19.0269 111.346 20.5323 111.346 22.2009C111.346 24.069 112.649 25.8963 114.928 27.2112C117.312 28.5016 119.985 29.1648 122.696 29.1382C124.939 29.1931 127.158 28.6749 129.143 27.6329C130.629 26.8161 131.78 25.503 132.394 23.9239C132.893 22.5636 134.423 20.895 137.075 20.7499C137.202 20.7499 137.329 20.7499 137.461 20.7499C141.02 20.7499 145.438 23.4206 151.535 27.0978C152.852 27.9004 154.522 28.9115 156.402 30.0133L153.451 31.5051L151.676 32.4119C150.314 33.0875 149.106 33.6906 147.989 34.2256C140.725 37.8258 138.001 39.1724 137.751 41.9655C137.722 42.3329 137.769 42.7024 137.89 43.0505C138.011 43.3987 138.204 43.7178 138.455 43.9877C140.035 45.7606 143.749 46.0735 145.265 46.1279C147.59 46.2276 148.865 46.6947 149.524 47.0665C149.797 47.1862 150.032 47.38 150.202 47.626C150.371 47.872 150.468 48.1603 150.482 48.4585C150.482 49.66 149.12 51.2289 146.963 52.4576C144.579 53.824 141.889 54.5679 139.141 54.6205C137.988 54.6737 136.841 54.4317 135.808 53.9176C135.433 53.7234 135.112 53.4389 134.874 53.0899C134.636 52.7408 134.489 52.3381 134.446 51.9181C134.201 49.7734 132.435 47.2705 128.262 47.2705H127.981C124.117 47.3793 119.623 50.1815 113.398 54.0718C112.213 54.8064 110.987 55.5681 109.68 56.3661C106.956 58.0574 104.613 59.4675 102.393 60.7779L100.913 59.9209C96.4682 57.3637 92.2867 54.9333 89.3901 52.9111C85.7217 50.322 85.3041 49.1114 85.3812 48.6262C85.5492 47.6378 88.0236 46.604 91.1426 46.2231C94.1663 45.8558 96.0459 45.0578 97.0856 44.4548C98.9243 43.3983 99.9368 41.8975 99.9368 40.2289C99.9368 38.3608 98.6292 36.538 96.3592 35.2413C93.9746 33.9492 91.2994 33.2859 88.5865 33.3142C86.354 33.259 84.1443 33.7741 82.1668 34.8105C80.6779 35.6309 79.5219 36.9441 78.898 38.524C78.4167 39.8843 76.9003 41.5483 74.2353 41.698C74.0764 41.698 73.9175 41.698 73.754 41.698C69.3638 41.698 63.9338 38.5558 54.9399 33.355L54.3633 33.024C56.7877 31.7998 59.1077 30.6617 61.119 29.6869C70.2945 25.2025 75.8379 22.4956 76.1013 19.503C76.1291 19.1365 76.0809 18.7681 75.9599 18.421C75.8388 18.0738 75.6474 17.7553 75.3976 17.4853C73.8267 15.7215 70.1083 15.3905 68.5874 15.3316C66.2674 15.2409 64.9917 14.7739 64.3379 14.4247C64.0633 14.3056 63.8276 14.1121 63.6575 13.8661C63.4873 13.6201 63.3896 13.3314 63.3754 13.0327C63.3754 11.8312 64.7374 10.2669 66.8803 9.0381C69.2695 7.67242 71.9642 6.92867 74.7165 6.87528C75.8686 6.82247 77.0153 7.06274 78.049 7.57355C78.4234 7.77013 78.7436 8.05583 78.9811 8.40538C79.2187 8.75493 79.3663 9.15757 79.411 9.57767C79.6562 11.7178 81.4223 14.2207 85.5946 14.2207H85.8716C90.2164 14.0937 92.8906 12.2619 100.037 7.36044L100.677 6.90702C102.602 5.58757 105.135 3.86004 107.941 2.01915M107.909 0.953611C105.185 2.76729 102.625 4.48123 100.191 6.15888C92.6772 11.2735 90.0439 13.1597 85.8443 13.2821H85.5946C82.0306 13.2821 80.5188 11.2281 80.3099 9.44164C80.2465 8.88051 80.0483 8.34299 79.7321 7.87484C79.4159 7.4067 78.9911 7.02178 78.4939 6.75286C77.3231 6.16453 76.0216 5.88365 74.712 5.9367C71.802 5.98668 68.9513 6.76625 66.4218 8.20381C62.3947 10.5208 61.2461 13.6448 63.8793 15.1593C64.6194 15.581 66.0268 16.1115 68.5466 16.2112C71.7246 16.3336 75.3567 17.245 75.1933 19.3851C74.9844 21.8563 69.2911 24.6312 60.7285 28.8254C58.2224 30.0451 55.403 31.428 52.4746 32.9061L54.4904 34.0805C63.5343 39.3084 69.1368 42.5459 73.7631 42.5459C73.9447 42.5459 74.1173 42.5459 74.2943 42.5459C77.3952 42.3736 79.184 40.4103 79.7651 38.7689C80.3126 37.3901 81.3261 36.2463 82.6299 35.536C84.4708 34.5845 86.5237 34.1164 88.5956 34.1757C91.1486 34.148 93.6662 34.7723 95.9097 35.9894C99.7779 38.2112 100.1 41.6526 96.6407 43.6386C95.6646 44.2099 93.9166 44.949 91.0427 45.2936C88.1689 45.6382 84.791 46.6539 84.4959 48.4675C84.0419 51.2425 91.3061 55.4094 100.468 60.7099L102.407 61.8344C105.212 60.1794 107.855 58.5743 110.166 57.146C118.306 52.1584 123.704 48.3224 128.017 48.2H128.272C131.845 48.2 133.347 50.2449 133.552 52.0405C133.614 52.6021 133.811 53.1402 134.128 53.6086C134.444 54.077 134.87 54.4616 135.368 54.7293C136.536 55.3199 137.836 55.6024 139.145 55.55C142.051 55.4995 144.897 54.7198 147.422 53.2829C151.462 50.9613 152.611 47.8418 149.982 46.3229C149.238 45.9012 147.83 45.3707 145.311 45.2619C142.132 45.1485 138.5 44.2371 138.664 42.0879C138.886 39.4354 142.468 38.0797 152.093 33.2553C154.046 32.2668 156.143 31.2194 158.304 30.1086C155.998 28.7755 153.882 27.5059 152.016 26.3678C145.597 22.4412 141.256 19.8431 137.461 19.8431H137.007C135.822 19.8666 134.671 20.2371 133.696 20.9086C132.721 21.5801 131.965 22.523 131.522 23.6201C130.978 24.9967 129.97 26.1402 128.671 26.853C126.824 27.8151 124.761 28.2911 122.678 28.2359C120.125 28.2636 117.608 27.6393 115.364 26.4222C111.5 24.1914 111.164 20.7499 114.638 18.7504C115.6 18.1927 117.362 17.4536 120.245 17.109C123.128 16.7644 126.496 15.726 126.778 13.935C127.164 11.6317 121.33 8.39878 113.92 4.29986C111.968 3.22978 109.943 2.1189 107.877 0.921875L107.909 0.953611Z" fill="#455A64"/>
</svg>
