<svg width="93" height="49" viewBox="0 0 93 49" fill="none" xmlns="http://www.w3.org/2000/svg">
<path opacity="0.15" d="M22.6101 44.2375C26.6962 42.3105 30.7096 40.1567 34.9274 38.6015C38.3779 37.3183 42.0009 36.4069 45.1971 34.5796C46.3979 33.95 47.4468 33.0665 48.2707 31.9906C48.6772 31.4491 48.9561 30.8229 49.0866 30.1587C49.2171 29.4945 49.1958 28.8095 49.0244 28.1547C48.5114 26.5088 47.0267 25.9647 45.4559 25.8876C41.5832 25.7289 37.7377 26.7309 34.1646 28.2635C30.5916 29.7961 27.2864 31.841 23.9858 33.8768C20.9222 35.8378 17.6044 37.371 14.1247 38.4337C10.4517 39.531 6.66074 40.4333 3.28745 42.315C2.40222 42.7383 1.65238 43.3993 1.12182 44.2239C0.0594411 46.1419 1.83916 48.1278 3.6779 48.5269C5.8943 48.9463 8.17071 48.9371 10.3836 48.4996C14.6649 47.7606 18.6648 46.1011 22.6101 44.2375Z" fill="black"/>
<path opacity="0.15" d="M92.0506 2.07742C91.0972 0.925732 89.4582 0.422447 87.7511 0.671828C86.0441 0.921209 84.4732 1.79631 82.9568 2.65327C80.4461 4.07701 77.9355 5.49622 75.5519 7.13307C74.3261 7.98097 72.8278 8.78805 71.8199 9.908C71.1526 10.6607 70.4579 11.495 70.349 12.497C70.1447 14.2382 71.6338 15.2175 73.1048 15.5848C74.2981 15.8521 75.5327 15.8798 76.7369 15.6664C79.7878 15.213 82.639 13.88 85.2995 12.3973C87.8011 11.0098 90.3844 9.64048 91.9871 7.16934C92.5381 6.40234 92.8537 5.49168 92.8951 4.54857C92.9112 3.65164 92.6124 2.77735 92.0506 2.07742Z" fill="black"/>
</svg>
