<svg width="361" height="334" viewBox="0 0 361 334" fill="none" xmlns="http://www.w3.org/2000/svg">
<path d="M53.2198 305.884C123.517 342.605 237.483 342.605 307.78 305.884C378.077 269.162 378.069 209.629 307.78 172.907C237.491 136.185 123.517 136.185 53.2198 172.907C-17.0775 209.629 -17.0691 269.162 53.2198 305.884Z" fill="#EBF1FF"/>
<path d="M308.745 215.376C322.446 215.376 333.553 210.083 333.553 203.554C333.553 197.026 322.446 191.733 308.745 191.733C295.043 191.733 283.936 197.026 283.936 203.554C283.936 210.083 295.043 215.376 308.745 215.376Z" fill="#E6E6E6"/>
<path d="M52.7833 284.532C65.3447 284.532 75.5278 279.679 75.5278 273.692C75.5278 267.706 65.3447 262.853 52.7833 262.853C40.2219 262.853 30.0388 267.706 30.0388 273.692C30.0388 279.679 40.2219 284.532 52.7833 284.532Z" fill="#E6E6E6"/>
<path d="M221.651 305.371C234.722 305.371 245.318 300.319 245.318 294.087C245.318 287.855 234.722 282.803 221.651 282.803C208.58 282.803 197.984 287.855 197.984 294.087C197.984 300.319 208.58 305.371 221.651 305.371Z" fill="#E6E6E6"/>
<path d="M104.179 251.376C117.25 251.376 127.846 246.324 127.846 240.092C127.846 233.86 117.25 228.808 104.179 228.808C91.1075 228.808 80.5112 233.86 80.5112 240.092C80.5112 246.324 91.1075 251.376 104.179 251.376Z" fill="#E6E6E6"/>
<path d="M243.456 175.961C244.035 169.006 259.976 142.914 264.85 138.87C269.724 134.826 278.332 124.607 274.624 118.802C270.916 112.996 260.018 115.58 249.782 133.677C241.845 147.712 239.379 178.754 239.379 178.754L243.456 175.961Z" fill="#407BFF"/>
<path d="M241.275 175.306H241.208C241.154 175.298 241.102 175.279 241.055 175.251C241.008 175.222 240.967 175.184 240.935 175.14C240.903 175.095 240.88 175.045 240.868 174.991C240.856 174.938 240.855 174.882 240.864 174.828C245.369 145.699 254.942 127.527 270.127 119.271C270.225 119.218 270.34 119.206 270.447 119.237C270.5 119.253 270.55 119.279 270.593 119.313C270.636 119.348 270.671 119.391 270.698 119.439C270.724 119.488 270.741 119.541 270.747 119.596C270.753 119.651 270.748 119.706 270.732 119.759C270.717 119.812 270.691 119.862 270.656 119.905C270.621 119.948 270.579 119.983 270.53 120.01C255.588 128.131 246.158 146.11 241.686 174.962C241.669 175.059 241.618 175.146 241.543 175.209C241.468 175.271 241.373 175.306 241.275 175.306Z" fill="white"/>
<path d="M245.058 142.218C245.058 142.218 257.853 120.102 268.449 109.976C274.322 104.363 277.929 100.747 277.61 96.5021C277.376 93.2804 274.699 91.5605 268.944 92.9784C257.475 95.7973 251.326 107.417 247.366 120.429C244.555 129.591 245.058 142.218 245.058 142.218Z" fill="#407BFF"/>
<path opacity="0.2" d="M245.058 142.218C245.058 142.218 257.853 120.102 268.449 109.976C274.322 104.363 277.929 100.747 277.61 96.5021C277.376 93.2804 274.699 91.5605 268.944 92.9784C257.475 95.7973 251.326 107.417 247.366 120.429C244.555 129.591 245.058 142.218 245.058 142.218Z" fill="black"/>
<path d="M246.543 138.585H246.485C246.374 138.567 246.275 138.505 246.209 138.414C246.143 138.323 246.115 138.21 246.132 138.099C250.688 109.356 268.004 98.5328 273.206 95.8985C273.305 95.8487 273.42 95.8402 273.525 95.8748C273.63 95.9094 273.718 95.9842 273.768 96.083C273.794 96.1319 273.81 96.1854 273.814 96.2404C273.819 96.2954 273.812 96.3508 273.795 96.4033C273.778 96.4558 273.75 96.5042 273.714 96.5458C273.678 96.5873 273.633 96.6211 273.583 96.6452C268.474 99.2376 251.46 109.876 246.963 138.233C246.947 138.332 246.896 138.422 246.819 138.487C246.742 138.552 246.644 138.587 246.543 138.585Z" fill="white"/>
<path d="M71.6181 38.5046L65.7957 35.1487C63.6395 33.8651 60.4431 34.1168 56.869 36.1806C51.9275 39.0331 47.6991 45.963 45.9624 51.7771L41.8347 49.4028C39.7121 47.9765 36.8009 47.7249 33.5876 49.6209C27.1024 53.3627 21.842 61.6517 21.842 68.1286C21.842 74.2782 25.6342 78.1962 30.2989 80.7131L34.888 83.3643L34.9468 82.7099C35.8696 83.0203 36.7841 83.2972 37.6734 83.5489L45.2241 85.5456L52.7749 74.8068C59.9816 64.5798 68.5643 50.4767 68.5643 41.1641C68.5643 40.8117 68.5475 40.4678 68.514 40.1322L70.108 40.9711L71.6181 38.5046Z" fill="#F28F8F"/>
<path d="M71.6181 38.5046L65.7957 35.1487C63.6395 33.8651 60.4431 34.1168 56.869 36.1806C51.9275 39.0331 47.6991 45.963 45.9624 51.7771L41.8347 49.4028C39.7121 47.9765 36.8009 47.7249 33.5876 49.6209C27.1024 53.3627 21.842 61.6517 21.842 68.1286C21.842 74.2782 25.6342 78.1962 30.2989 80.7131L34.888 83.3643L34.9468 82.7099C35.8696 83.0203 36.7841 83.2972 37.6734 83.5489L45.2241 85.5456L52.7749 74.8068C59.9816 64.5798 68.5643 50.4767 68.5643 41.1641C68.5643 40.8117 68.5475 40.4678 68.514 40.1322L70.108 40.9711L71.6181 38.5046Z" fill="#E6E6E6"/>
<path d="M51.2059 88.9688L43.6552 86.9636C36.4317 85.0508 27.8154 80.8308 27.8154 71.577C27.8154 65.0917 33.0758 56.8027 39.561 53.0609C45.5261 49.6127 50.4676 53.2958 51.1975 58.6316C51.9526 52.4401 56.8774 43.0604 62.8424 39.6206C69.3193 35.8788 74.588 38.1021 74.588 44.5789C74.588 53.8076 65.997 67.9945 58.7986 78.23L51.2059 88.9688Z" fill="#F0F0F0"/>
<path d="M124.649 40.0736C124.659 39.6528 124.6 39.2333 124.473 38.8319L128.995 33.6555L123.206 30.4003C122.661 30.0227 121.872 29.9808 120.815 30.5932L110.748 36.4241L109.397 37.2043C109.635 36.0415 109.798 34.8645 109.884 33.6806C109.884 33.1856 109.926 32.7074 109.926 32.2376L110.11 32.3383L113.466 28.3783L107.727 25.1483C105.789 23.8815 102.434 26.2809 102.434 27.2289C102.434 28.3783 102.929 34.3602 102.434 36.0717C101.939 37.7832 96.7705 49.6043 96.7705 49.6043V74.2532L115.647 63.3466C118.164 61.9036 119.842 58.8497 119.842 56.7775C119.87 55.8513 119.698 54.93 119.339 54.076C120.941 53.1531 122.544 49.8056 122.544 48.3794C122.544 46.2316 121.805 45.6779 121.805 45.6779C122.627 44.9789 123.302 44.1235 123.79 43.1614C124.279 42.1992 124.571 41.1496 124.649 40.0736Z" fill="#FAFAFA"/>
<path d="M102.803 77.6092L96.8374 74.161L96.8123 49.5205L102.786 52.9686L102.803 77.6092Z" fill="#E6E6E6"/>
<path d="M128.584 51.7181C128.584 53.1443 126.99 56.4918 125.388 57.4147C125.737 58.2772 125.902 59.2029 125.874 60.1329C125.874 62.1884 124.155 65.259 121.68 66.6853L102.803 77.5919V54.0001V52.9597C102.803 52.9597 107.988 41.1303 108.474 39.4188C108.961 37.7073 108.474 31.7338 108.474 30.5844C108.474 29.435 113.164 26.3141 114.649 29.586C116.134 32.858 116.26 36.1971 115.396 40.543L126.806 33.9487C129.214 32.556 130.162 34.5527 130.162 36.1132C130.085 37.9053 129.442 39.6268 128.324 41.0296C128.324 41.0296 130.598 40.3584 130.598 43.4123C130.534 44.4836 130.255 45.531 129.778 46.4924C129.301 47.4537 128.635 48.3093 127.821 49.0082C127.821 49.0082 128.584 49.5871 128.584 51.7181Z" fill="#F0F0F0"/>
<path d="M91.8458 87.2575L100.093 82.5006L100.068 53.8246L91.8458 58.5815V87.2575Z" fill="#F0F0F0"/>
<path d="M91.8459 87.2568L85.8724 83.817V55.1327L91.8459 58.5808V87.2568Z" fill="#E6E6E6"/>
<path d="M94.1027 50.3762L100.068 53.8244L91.8459 58.5813L85.8724 55.1332L94.1027 50.3762Z" fill="#F5F5F5"/>
<path d="M108.449 39.4278C107.962 41.1057 102.777 52.9688 102.777 52.9688L96.8207 49.6129C96.8207 49.6129 101.989 37.7918 102.484 36.0803C102.979 34.3688 102.484 28.387 102.484 27.2376L108.457 30.5934C108.449 31.7428 108.952 37.7247 108.449 39.4278Z" fill="#E6E6E6"/>
<path d="M316.724 76.9369L313.955 71.7353L316.178 65.3088V61.3741L309.366 65.3088V69.2436L312.294 74.3277C312.339 74.4073 312.41 74.4693 312.495 74.5039L316.724 76.9369Z" fill="#407BFF"/>
<path opacity="0.1" d="M316.724 76.9369L313.955 71.7353L316.178 65.3088V61.3741L309.366 65.3088V69.2436L312.294 74.3277C312.339 74.4073 312.41 74.4693 312.495 74.5039L316.724 76.9369Z" fill="black"/>
<path d="M300.918 52.5148L319.677 41.6082C320.311 41.2895 321.011 41.1235 321.72 41.1235C322.429 41.1235 323.129 41.2895 323.763 41.6082L325.441 42.573C326.038 42.9593 326.534 43.4816 326.89 44.0971C327.246 44.7125 327.451 45.4035 327.488 46.1135V61.3156C327.449 62.0251 327.243 62.7153 326.888 63.3305C326.532 63.9456 326.036 64.4682 325.441 64.856L306.665 75.7626C306.031 76.0814 305.331 76.2474 304.622 76.2474C303.912 76.2474 303.213 76.0814 302.579 75.7626L300.901 74.7978C300.306 74.4101 299.812 73.8872 299.457 73.272C299.103 72.6567 298.899 71.9664 298.862 71.2574V56.0385C298.906 55.3313 299.114 54.6442 299.471 54.0322C299.828 53.4202 300.324 52.9005 300.918 52.5148Z" fill="#407BFF"/>
<path opacity="0.3" d="M300.918 52.5148L319.677 41.6082C320.311 41.2895 321.011 41.1235 321.72 41.1235C322.429 41.1235 323.129 41.2895 323.763 41.6082L325.441 42.573C326.038 42.9593 326.534 43.4816 326.89 44.0971C327.246 44.7125 327.451 45.4035 327.488 46.1135V61.3156C327.449 62.0251 327.243 62.7153 326.888 63.3305C326.532 63.9456 326.036 64.4682 325.441 64.856L306.665 75.7626C306.031 76.0814 305.331 76.2474 304.622 76.2474C303.912 76.2474 303.213 76.0814 302.579 75.7626L300.901 74.7978C300.306 74.4101 299.812 73.8872 299.457 73.272C299.103 72.6567 298.899 71.9664 298.862 71.2574V56.0385C298.906 55.3313 299.114 54.6442 299.471 54.0322C299.828 53.4202 300.324 52.9005 300.918 52.5148Z" fill="white"/>
<path d="M306.673 75.7455C305.54 76.3915 304.625 75.8713 304.625 74.5625V59.3604C304.665 58.651 304.87 57.9607 305.226 57.3456C305.582 56.7304 306.077 56.2078 306.673 55.82L325.449 44.9134C326.581 44.259 327.496 44.7875 327.496 46.0963V61.2984C327.457 62.0079 327.251 62.6982 326.895 63.3133C326.54 63.9284 326.044 64.4511 325.449 64.8389" fill="#407BFF"/>
<path d="M298.879 71.2408C298.916 71.9498 299.12 72.6401 299.474 73.2554C299.828 73.8706 300.323 74.3935 300.918 74.7812L302.596 75.746C303.171 76.035 303.802 76.1987 304.445 76.2261C305.089 76.2536 305.731 76.1443 306.329 75.9054C305.373 76.2746 304.651 75.7292 304.651 74.5631V59.361C304.678 58.6494 304.886 57.9565 305.255 57.3474L299.5 53.9915C299.134 54.6014 298.929 55.2943 298.904 56.0051L298.879 71.2408Z" fill="#407BFF"/>
<path opacity="0.1" d="M298.879 71.2408C298.916 71.9498 299.12 72.6401 299.474 73.2554C299.828 73.8706 300.323 74.3935 300.918 74.7812L302.596 75.746C303.171 76.035 303.802 76.1987 304.445 76.2261C305.089 76.2536 305.731 76.1443 306.329 75.9054C305.373 76.2746 304.651 75.7292 304.651 74.5631V59.361C304.678 58.6494 304.886 57.9565 305.255 57.3474L299.5 53.9915C299.134 54.6014 298.929 55.2943 298.904 56.0051L298.879 71.2408Z" fill="black"/>
<path d="M313.636 71.7106L316.564 76.7864C316.607 76.8579 316.67 76.9157 316.745 76.9532C316.819 76.9907 316.903 77.0065 316.986 76.9986C317.069 76.9907 317.149 76.9595 317.215 76.9086C317.281 76.8578 317.332 76.7892 317.361 76.7109L320.457 67.7759V63.8411L313.636 67.7759V71.7106Z" fill="#407BFF"/>
<path d="M316.069 66.5171L313.972 65.9633C311.975 65.4348 309.593 64.2854 309.593 61.7098C309.693 60.6604 310.039 59.6494 310.604 58.7588C311.168 57.8683 311.934 57.1231 312.839 56.5837C313.136 56.3713 313.485 56.2425 313.848 56.2108C314.212 56.179 314.577 56.2455 314.906 56.4032C315.236 56.5609 315.516 56.8041 315.719 57.1074C315.923 57.4107 316.041 57.7629 316.061 58.1274C316.271 56.4494 317.63 53.8151 319.283 52.8586C321.078 51.8267 322.529 52.4391 322.529 54.2345C322.529 56.8018 320.155 60.7114 318.158 63.5471L316.069 66.5171Z" fill="white"/>
<path d="M38.7058 116.864L57.4819 105.999C58.1146 105.676 58.8147 105.508 59.5248 105.508C60.235 105.508 60.9351 105.676 61.5677 105.999L63.2457 106.955C63.839 107.345 64.3326 107.868 64.6867 108.483C65.0409 109.098 65.2456 109.787 65.2843 110.496V125.698C65.2456 126.407 65.0409 127.096 64.6867 127.711C64.3326 128.326 63.839 128.849 63.2457 129.238L44.4947 140.103C43.8605 140.426 43.1591 140.594 42.4476 140.594C41.7361 140.594 41.0346 140.426 40.4005 140.103L38.7226 139.147C38.1196 138.757 37.618 138.23 37.2591 137.609C36.9002 136.987 36.6944 136.289 36.6587 135.573V120.404C36.6958 119.694 36.9006 119.003 37.2565 118.388C37.6123 117.772 38.109 117.25 38.7058 116.864Z" fill="#407BFF"/>
<path opacity="0.3" d="M38.7058 116.864L57.4819 105.999C58.1146 105.676 58.8147 105.508 59.5248 105.508C60.235 105.508 60.9351 105.676 61.5677 105.999L63.2457 106.955C63.839 107.345 64.3326 107.868 64.6867 108.483C65.0409 109.098 65.2456 109.787 65.2843 110.496V125.698C65.2456 126.407 65.0409 127.096 64.6867 127.711C64.3326 128.326 63.839 128.849 63.2457 129.238L44.4947 140.103C43.8605 140.426 43.1591 140.594 42.4476 140.594C41.7361 140.594 41.0346 140.426 40.4005 140.103L38.7226 139.147C38.1196 138.757 37.618 138.23 37.2591 137.609C36.9002 136.987 36.6944 136.289 36.6587 135.573V120.404C36.6958 119.694 36.9006 119.003 37.2565 118.388C37.6123 117.772 38.109 117.25 38.7058 116.864Z" fill="white"/>
<path d="M54.5034 141.303L51.7348 136.092L53.9665 129.666V125.731L47.1456 129.7V133.634L50.082 138.668C50.1264 138.746 50.1939 138.807 50.275 138.844L54.5034 141.303Z" fill="#407BFF"/>
<path opacity="0.1" d="M54.5034 141.303L51.7348 136.092L53.9665 129.666V125.731L47.1456 129.7V133.634L50.082 138.668C50.1264 138.746 50.1939 138.807 50.275 138.844L54.5034 141.303Z" fill="black"/>
<path d="M44.4946 140.103C43.362 140.757 42.4475 140.229 42.4475 138.92V123.718C42.4865 123.009 42.6923 122.32 43.048 121.707C43.4038 121.093 43.8994 120.572 44.4946 120.186L63.2791 109.279C64.4034 108.633 65.3178 109.162 65.3178 110.462V125.664C65.279 126.373 65.0743 127.062 64.7202 127.677C64.3661 128.292 63.8725 128.815 63.2791 129.205" fill="#407BFF"/>
<path d="M36.6587 135.573C36.6978 136.282 36.9035 136.973 37.2591 137.588C37.6148 138.203 38.1104 138.726 38.7058 139.113L40.3837 140.07C40.9609 140.358 41.5922 140.522 42.2368 140.551C42.8814 140.58 43.5249 140.473 44.1255 140.238C43.1607 140.598 42.4476 140.053 42.4476 138.887V123.718C42.4722 123.008 42.6772 122.315 43.0432 121.705L37.2963 118.391C36.9273 119 36.7194 119.693 36.6922 120.404L36.6587 135.573Z" fill="#407BFF"/>
<path opacity="0.1" d="M36.6587 135.573C36.6978 136.282 36.9035 136.973 37.2591 137.588C37.6148 138.203 38.1104 138.726 38.7058 139.113L40.3837 140.07C40.9609 140.358 41.5922 140.522 42.2368 140.551C42.8814 140.58 43.5249 140.473 44.1255 140.238C43.1607 140.598 42.4476 140.053 42.4476 138.887V123.718C42.4722 123.008 42.6772 122.315 43.0432 121.705L37.2963 118.391C36.9273 119 36.7194 119.693 36.6922 120.404L36.6587 135.573Z" fill="black"/>
<path d="M51.4247 136.068L54.3527 141.101C54.3947 141.173 54.4564 141.232 54.5305 141.27C54.6047 141.308 54.6882 141.324 54.7712 141.316C54.8541 141.308 54.9331 141.276 54.9987 141.225C55.0643 141.174 55.1138 141.105 55.1413 141.026L58.2371 132.091V128.156L51.4247 132.091V136.068Z" fill="#407BFF"/>
<path d="M46.7597 126.99C46.1938 127.354 45.7238 127.849 45.3894 128.433C45.055 129.017 44.866 129.673 44.8385 130.346C44.8385 131.571 45.6775 132.024 46.7597 131.453C47.3219 131.085 47.789 130.589 48.1229 130.006C48.4568 129.422 48.648 128.769 48.681 128.097C48.6894 126.872 47.8504 126.344 46.7597 126.99Z" fill="white"/>
<path d="M53.8494 122.888C53.2848 123.254 52.8153 123.75 52.4798 124.333C52.1443 124.917 51.9524 125.572 51.9198 126.244C51.9198 127.469 52.7588 127.964 53.8494 127.351C54.4116 126.983 54.8787 126.487 55.2126 125.904C55.5465 125.321 55.7377 124.667 55.7707 123.995C55.7707 122.771 54.9065 122.276 53.8494 122.888Z" fill="white"/>
<path d="M60.93 118.793C60.3679 119.161 59.9008 119.657 59.5669 120.241C59.233 120.824 59.0418 121.478 59.0088 122.149C59.0088 123.374 59.8478 123.827 60.93 123.257C61.496 122.892 61.966 122.397 62.3004 121.813C62.6348 121.229 62.8237 120.573 62.8513 119.901C62.8513 118.667 61.9955 118.172 60.93 118.793Z" fill="white"/>
<path d="M237.801 6.73174L156.237 53.7979C155.18 54.4878 154.3 55.417 153.669 56.5102C153.038 57.6033 152.673 58.8298 152.604 60.0902V240.628C152.604 242.944 154.231 243.883 156.237 242.725L237.801 195.659C238.858 194.969 239.738 194.04 240.369 192.947C241 191.854 241.365 190.627 241.434 189.367V8.82916C241.434 6.51361 239.806 5.57396 237.801 6.73174Z" fill="#37474F"/>
<path d="M156.237 53.7977L237.802 6.73155C239.597 5.69962 241.082 6.34562 241.376 8.14941C241.21 7.01454 240.806 5.92763 240.19 4.96022C239.574 3.99281 238.76 3.16685 237.802 2.5367L234.84 0.858765C233.714 0.287595 232.47 -0.0100708 231.207 -0.0100708C229.945 -0.0100708 228.7 0.287595 227.575 0.858765L146.01 47.8998C144.937 48.5691 144.053 49.502 143.443 50.6097L153.67 56.4825C154.284 55.384 155.167 54.4601 156.237 53.7977Z" fill="#455A64"/>
<path d="M142.377 234.722C142.445 235.982 142.809 237.209 143.44 238.303C144.071 239.396 144.952 240.325 146.01 241.014L148.971 242.692C149.995 243.208 151.117 243.501 152.262 243.552C153.408 243.602 154.551 243.409 155.616 242.985C153.938 243.631 152.604 242.667 152.604 240.594V60.0648C152.646 58.7991 153.013 57.5654 153.67 56.4825L143.443 50.6097C142.788 51.6934 142.421 52.9266 142.377 54.1921V234.722Z" fill="#263238"/>
<path d="M158.191 76.2826L235.847 31.4732C237.046 30.7768 238.028 31.339 238.028 32.7316V169.408C237.985 170.164 237.765 170.9 237.386 171.555C237.007 172.211 236.48 172.769 235.847 173.184L158.191 217.985C156.992 218.681 156.01 218.119 156.01 216.726V80.0579C156.05 79.3012 156.269 78.5648 156.648 77.9087C157.027 77.2526 157.556 76.6954 158.191 76.2826Z" fill="#FAFAFA"/>
<path d="M196.197 37.2698C195.826 37.5134 195.517 37.8408 195.296 38.2255C195.074 38.6102 194.946 39.0415 194.922 39.4847C194.922 40.3237 195.492 40.6341 196.197 40.223C196.569 39.9804 196.878 39.6533 197.1 39.2684C197.322 38.8835 197.449 38.4517 197.472 38.0081C197.472 37.1943 196.902 36.8671 196.197 37.2698Z" fill="#263238"/>
<path d="M184.124 50.2568C183.387 50.7468 182.776 51.4028 182.339 52.1722C181.902 52.9416 181.651 53.8028 181.607 54.6866C181.607 56.3142 182.748 56.977 184.124 56.1632C184.869 55.6784 185.49 55.0245 185.934 54.2547C186.379 53.485 186.636 52.6211 186.683 51.7334C186.683 50.1058 185.534 49.443 184.124 50.2568Z" fill="#263238"/>
<path d="M190.375 49.7031C190.375 50.7938 191.214 51.2049 192.195 50.626L208.975 40.9191C209.492 40.593 209.926 40.1498 210.241 39.6251C210.556 39.1004 210.743 38.5091 210.787 37.8988C210.787 36.8165 209.948 36.4054 208.975 36.9843L192.195 46.6912C191.677 47.015 191.241 47.4564 190.925 47.9797C190.609 48.5029 190.42 49.0934 190.375 49.7031Z" fill="#263238"/>
<path d="M148.032 81.6846C148.629 82.071 149.125 82.5933 149.481 83.2087C149.837 83.8241 150.042 84.5152 150.079 85.2251C150.079 86.5255 149.165 87.054 148.032 86.408C147.438 86.0175 146.944 85.4929 146.59 84.8765C146.236 84.26 146.031 83.5691 145.993 82.8592C146.01 81.5588 146.908 81.0386 148.032 81.6846Z" fill="#37474F"/>
<path d="M148.032 97.4322C148.627 97.82 149.123 98.3426 149.478 98.9578C149.834 99.5729 150.04 100.263 150.079 100.973C150.079 102.281 149.164 102.81 148.032 102.156C147.447 101.769 146.96 101.251 146.609 100.644C146.258 100.037 146.053 99.3569 146.01 98.6571C146.01 97.3147 146.908 96.7862 148.032 97.4322Z" fill="#37474F"/>
<path d="M147.402 81.996C147.998 82.3838 148.493 82.9064 148.849 83.5216C149.205 84.1367 149.41 84.827 149.45 85.5364C149.45 86.8452 148.535 87.3738 147.402 86.7194C146.808 86.3306 146.313 85.8077 145.958 85.1928C145.602 84.5779 145.396 83.8881 145.355 83.1789C145.355 81.8785 146.278 81.35 147.402 81.996Z" fill="#455A64"/>
<path d="M147.403 97.7514C147.998 98.1392 148.494 98.6618 148.849 99.277C149.205 99.8921 149.411 100.582 149.45 101.292C149.45 102.601 148.535 103.129 147.403 102.475C146.808 102.086 146.313 101.563 145.958 100.948C145.602 100.333 145.396 99.6435 145.355 98.9343C145.355 97.6255 146.278 97.097 147.403 97.7514Z" fill="#455A64"/>
<path d="M197.019 201.616C195.553 202.573 194.333 203.863 193.458 205.381C192.583 206.898 192.079 208.601 191.985 210.349C191.985 213.571 194.242 214.872 197.019 213.269C198.486 212.31 199.706 211.018 200.58 209.499C201.455 207.981 201.959 206.277 202.053 204.527C202.061 201.305 199.805 200.005 197.019 201.616Z" fill="#263238"/>
<path d="M174.291 216.037C173.578 216.037 173.503 215.198 173.503 214.896V78.2281C173.547 77.5456 173.747 76.8825 174.089 76.2903C174.431 75.6981 174.905 75.1927 175.474 74.8135L253.129 30.0041C253.361 29.8655 253.623 29.7849 253.893 29.7692C254.606 29.7692 254.681 30.5578 254.681 30.9018V167.578C254.638 168.26 254.438 168.922 254.096 169.513C253.753 170.104 253.279 170.608 252.71 170.985L175.055 215.794C174.825 215.939 174.563 216.023 174.291 216.037Z" fill="white" stroke="#407BFF" stroke-width="0.502438" stroke-miterlimit="10"/>
<path d="M253.893 30.1891C254.212 30.1891 254.262 30.6338 254.262 30.9023V167.579C254.22 168.187 254.039 168.778 253.734 169.306C253.428 169.833 253.006 170.284 252.5 170.624L174.845 215.434C174.678 215.539 174.488 215.602 174.291 215.618C173.973 215.618 173.922 215.165 173.922 214.897V78.2285C173.964 77.6202 174.145 77.0296 174.45 76.5018C174.756 75.974 175.178 75.5229 175.684 75.1831L253.339 30.3737C253.504 30.2649 253.695 30.2012 253.893 30.1891ZM253.893 29.3502C253.548 29.3617 253.213 29.4629 252.92 29.6438L175.265 74.4532C174.629 74.866 174.1 75.4232 173.721 76.0793C173.342 76.7354 173.124 77.4718 173.083 78.2285V214.897C173.083 215.887 173.578 216.457 174.291 216.457C174.636 216.442 174.972 216.338 175.265 216.155L252.92 171.354C253.555 170.941 254.083 170.383 254.462 169.727C254.841 169.071 255.06 168.335 255.101 167.579V30.9023C255.101 29.9207 254.606 29.3502 253.893 29.3502Z" fill="#407BFF" stroke="#407BFF" stroke-width="0.502438" stroke-miterlimit="10"/>
<path d="M255.076 30.9025C255.076 29.5098 254.103 28.9477 252.895 29.644L175.24 74.4534C174.604 74.8662 174.075 75.4234 173.696 76.0795C173.317 76.7356 173.099 77.472 173.058 78.2287V89.429L255.076 42.1027V30.9025Z" fill="#407BFF"/>
<path opacity="0.1" d="M255.076 30.9025C255.076 29.5098 254.103 28.9477 252.895 29.644L175.24 74.4534C174.604 74.8662 174.075 75.4234 173.696 76.0795C173.317 76.7356 173.099 77.472 173.058 78.2287V89.429L255.076 42.1027V30.9025Z" fill="black"/>
<path d="M181.641 77.0377C181.503 76.9855 181.354 76.9682 181.208 76.9872C181.062 77.0062 180.922 77.061 180.802 77.1467C180.371 77.4331 180.011 77.8153 179.752 78.2636C179.493 78.7119 179.341 79.214 179.309 79.7308C179.288 79.8795 179.307 80.0311 179.364 80.1698C179.422 80.3085 179.516 80.4293 179.636 80.5194C179.774 80.576 179.924 80.595 180.071 80.5743C180.219 80.5537 180.358 80.4942 180.475 80.4019C180.904 80.1156 181.261 79.7342 181.518 79.2875C181.776 78.8409 181.927 78.3408 181.96 77.8263C181.982 77.6784 181.964 77.5272 181.908 77.3886C181.852 77.2499 181.76 77.1288 181.641 77.0377Z" fill="white"/>
<path d="M183.411 74.1763L183.226 74.2854V73.9078C183.226 73.3793 182.857 73.1612 182.388 73.4296L178.864 75.4599C178.622 75.6168 178.419 75.8283 178.274 76.0775C178.128 76.3266 178.043 76.6065 178.025 76.8946V77.2805L177.832 77.3896C177.51 77.5988 177.242 77.8811 177.049 78.2135C176.857 78.5459 176.746 78.9189 176.724 79.3024V82.717C176.724 83.4218 177.219 83.7154 177.832 83.363L183.394 80.1498C183.717 79.9392 183.985 79.6555 184.178 79.3216C184.37 78.9878 184.481 78.6133 184.502 78.2285V74.7972C184.519 74.1092 184.024 73.824 183.411 74.1763ZM180.793 80.9552C180.522 81.1208 180.213 81.2133 179.896 81.2237C179.69 81.2256 179.488 81.1735 179.309 81.0726C179.092 80.9262 178.917 80.7248 178.804 80.4889C178.69 80.253 178.642 79.9912 178.663 79.7303C178.692 79.1016 178.872 78.4892 179.187 77.9446C179.502 77.4 179.944 76.9391 180.475 76.6009C180.688 76.4473 180.939 76.3551 181.201 76.3344C181.463 76.3137 181.725 76.3652 181.96 76.4835C182.177 76.629 182.351 76.8306 182.463 77.0669C182.576 77.3032 182.622 77.5654 182.597 77.8258C182.568 78.4534 182.389 79.0649 182.075 79.6092C181.761 80.1535 181.322 80.615 180.793 80.9552ZM183.31 76.3996C183.025 76.559 182.799 76.3996 182.799 76.0976C182.807 75.9193 182.858 75.7457 182.947 75.5911C183.036 75.4365 183.161 75.3052 183.31 75.2083C183.596 75.0405 183.831 75.2082 183.831 75.5019C183.824 75.6789 183.777 75.852 183.692 76.0077C183.608 76.1635 183.489 76.2976 183.344 76.3996H183.31Z" fill="white"/>
<path d="M250.613 34.3508L245.184 37.4801C244.87 37.6851 244.608 37.9613 244.42 38.2863C244.232 38.6113 244.123 38.9761 244.102 39.351V42.7069C244.102 43.3865 244.589 43.6717 245.184 43.3277L248.414 41.4652L249.681 42.7321C249.711 42.7597 249.748 42.778 249.788 42.785C249.828 42.7919 249.869 42.7871 249.907 42.7711C249.944 42.7551 249.976 42.7286 249.998 42.6949C250.021 42.6612 250.033 42.6216 250.034 42.581V40.5256L250.613 40.19C250.932 39.9878 251.199 39.7129 251.391 39.3877C251.584 39.0625 251.696 38.6963 251.72 38.3191V34.9632C251.72 34.2836 251.208 34.0068 250.613 34.3508Z" fill="white"/>
<path d="M183.537 87.4318C186.373 85.821 188.672 87.1298 188.672 90.3682C188.57 92.1394 188.052 93.8617 187.16 95.3952C186.268 96.9287 185.026 98.2302 183.537 99.1942C180.693 100.872 178.394 99.5214 178.394 96.2578C178.49 94.4841 179.006 92.7586 179.9 91.2238C180.794 89.6891 182.041 88.3893 183.537 87.4318Z" fill="#407BFF"/>
<path d="M193.755 83.4803L210.795 73.6476C211.802 73.0687 212.615 73.4798 212.615 74.562C212.571 75.1732 212.383 75.7653 212.067 76.2902C211.75 76.815 211.315 77.2577 210.795 77.5823L193.755 87.4151C192.757 87.994 191.943 87.5828 191.943 86.5006C191.987 85.8903 192.174 85.299 192.489 84.7743C192.804 84.2496 193.238 83.8063 193.755 83.4803Z" fill="#407BFF"/>
<g opacity="0.7">
<path d="M193.755 83.4806L210.795 73.6478C211.802 73.069 212.615 73.48 212.615 74.5623C212.571 75.1735 212.383 75.7656 212.067 76.2904C211.75 76.8153 211.315 77.258 210.795 77.5826L193.755 87.4153C192.757 87.9942 191.943 87.5831 191.943 86.5009C191.987 85.8906 192.174 85.2992 192.489 84.7746C192.804 84.2499 193.238 83.8066 193.755 83.4806Z" fill="white"/>
</g>
<path d="M193.185 90.4524L204.872 83.7407C205.56 83.3463 206.113 83.6232 206.113 84.3699C206.083 84.7885 205.955 85.1941 205.74 85.5541C205.524 85.914 205.227 86.2183 204.872 86.4421L193.185 93.1539C192.497 93.5482 191.943 93.2629 191.943 92.5163C191.974 92.099 192.102 91.6948 192.318 91.3362C192.534 90.9777 192.831 90.675 193.185 90.4524Z" fill="#407BFF"/>
<g opacity="0.7">
<path d="M193.185 90.4532L204.872 83.7415C205.56 83.3472 206.113 83.624 206.113 84.3707C206.083 84.7893 205.955 85.1949 205.74 85.5549C205.524 85.9149 205.227 86.2191 204.872 86.443L193.185 93.1547C192.497 93.549 191.943 93.2638 191.943 92.5171C191.974 92.0998 192.102 91.6956 192.318 91.3371C192.534 90.9786 192.831 90.6758 193.185 90.4532Z" fill="white"/>
</g>
<path d="M183.537 175.642C186.373 174.031 188.672 175.348 188.672 178.578C188.57 180.349 188.052 182.071 187.16 183.605C186.268 185.138 185.026 186.44 183.537 187.404C180.693 189.082 178.394 187.731 178.394 184.467C178.492 182.694 179.009 180.969 179.903 179.435C180.797 177.901 182.042 176.601 183.537 175.642Z" fill="#407BFF"/>
<path d="M193.755 171.698L210.795 161.857C211.802 161.278 212.615 161.689 212.615 162.771C212.571 163.382 212.383 163.975 212.067 164.499C211.75 165.024 211.315 165.467 210.795 165.792L193.755 175.633C192.757 176.212 191.943 175.8 191.943 174.71C191.989 174.101 192.176 173.511 192.491 172.988C192.806 172.465 193.239 172.023 193.755 171.698Z" fill="#407BFF"/>
<g opacity="0.7">
<path d="M193.755 171.698L210.795 161.857C211.802 161.278 212.615 161.69 212.615 162.772C212.571 163.383 212.383 163.975 212.067 164.5C211.75 165.025 211.315 165.467 210.795 165.792L193.755 175.633C192.757 176.212 191.943 175.801 191.943 174.71C191.989 174.102 192.176 173.512 192.491 172.989C192.806 172.466 193.239 172.024 193.755 171.698Z" fill="white"/>
</g>
<path d="M193.185 178.662L204.872 171.95C205.56 171.556 206.113 171.832 206.113 172.579C206.083 172.998 205.955 173.403 205.74 173.763C205.524 174.123 205.227 174.427 204.872 174.651L193.185 181.363C192.497 181.757 191.943 181.472 191.943 180.734C191.973 180.315 192.1 179.909 192.316 179.549C192.532 179.189 192.83 178.885 193.185 178.662Z" fill="#407BFF"/>
<g opacity="0.7">
<path d="M193.185 178.661L204.872 171.949C205.56 171.555 206.113 171.832 206.113 172.578C206.083 172.997 205.955 173.402 205.74 173.762C205.524 174.122 205.227 174.427 204.872 174.65L193.185 181.362C192.497 181.757 191.943 181.471 191.943 180.733C191.973 180.314 192.1 179.908 192.316 179.548C192.532 179.188 192.83 178.884 193.185 178.661Z" fill="white"/>
</g>
<path d="M181.943 104.077L246.468 66.8265C247.475 66.2476 248.289 66.7174 248.289 67.8752V132.316C248.254 132.948 248.072 133.563 247.755 134.111C247.439 134.659 246.998 135.125 246.468 135.471L181.943 172.939C180.936 173.518 180.131 173.048 180.131 171.891V107.223C180.163 106.593 180.344 105.979 180.659 105.432C180.974 104.886 181.414 104.421 181.943 104.077Z" fill="#F5F5F5"/>
<path d="M205.627 118.834C205.463 118.593 205.235 118.401 204.969 118.28C204.703 118.158 204.409 118.112 204.119 118.146C203.829 118.179 203.553 118.292 203.322 118.471C203.091 118.65 202.913 118.889 202.808 119.162L180.156 162.184V171.891C180.156 173.049 180.995 173.518 181.968 172.939L246.493 135.664C247.023 135.318 247.464 134.852 247.781 134.304C248.097 133.756 248.28 133.141 248.314 132.51V111.032L236.057 89.2606C235.377 88.0441 234.429 88.1196 233.934 89.42L217.616 132.669L205.627 118.834Z" fill="#407BFF"/>
<g opacity="0.3">
<path d="M205.627 118.834C205.463 118.593 205.235 118.401 204.969 118.28C204.703 118.158 204.409 118.112 204.119 118.146C203.829 118.179 203.553 118.292 203.322 118.471C203.091 118.65 202.913 118.889 202.808 119.162L180.156 162.184V171.891C180.156 173.049 180.995 173.518 181.968 172.939L246.493 135.664C247.023 135.318 247.464 134.852 247.781 134.304C248.097 133.756 248.28 133.141 248.314 132.51V111.032L236.057 89.2606C235.377 88.0441 234.429 88.1196 233.934 89.42L217.616 132.669L205.627 118.834Z" fill="white"/>
</g>
<path d="M186.935 121.511C192.623 118.247 197.246 110.294 197.246 103.75C197.246 100.394 196.037 98.0951 194.116 97.0379L181.943 104.06C181.414 104.405 180.974 104.869 180.659 105.416C180.344 105.963 180.163 106.576 180.131 107.206V122.425C181.943 123.239 184.317 122.987 186.935 121.511Z" fill="#407BFF"/>
<g opacity="0.6">
<path d="M186.934 121.511C192.623 118.248 197.245 110.294 197.245 103.75C197.245 100.395 196.037 98.0958 194.116 97.0387L181.943 104.061C181.414 104.405 180.974 104.87 180.659 105.417C180.344 105.963 180.163 106.577 180.13 107.207V122.426C181.943 123.24 184.317 122.988 186.934 121.511Z" fill="white"/>
</g>
<path d="M181.943 192.622L246.468 155.363C247.475 154.784 248.289 155.195 248.289 156.286C248.243 156.896 248.054 157.486 247.738 158.009C247.422 158.533 246.987 158.974 246.468 159.298L181.943 196.557C180.936 197.135 180.131 196.724 180.131 195.634C180.173 195.024 180.36 194.433 180.675 193.91C180.99 193.386 181.424 192.945 181.943 192.622Z" fill="#407BFF"/>
<g opacity="0.6">
<path d="M181.943 192.621L246.468 155.362C247.475 154.784 248.288 155.195 248.288 156.285C248.243 156.895 248.054 157.485 247.738 158.009C247.422 158.532 246.986 158.973 246.468 159.297L181.943 196.556C180.936 197.135 180.13 196.724 180.13 195.633C180.173 195.023 180.36 194.433 180.675 193.909C180.99 193.386 181.424 192.944 181.943 192.621Z" fill="white"/>
</g>
<path d="M181.943 200.491L246.468 163.258C247.475 162.679 248.289 163.09 248.289 164.181C248.243 164.79 248.054 165.381 247.738 165.904C247.422 166.427 246.987 166.869 246.468 167.193L181.943 204.451C180.936 205.03 180.131 204.619 180.131 203.528C180.17 202.915 180.355 202.319 180.67 201.791C180.985 201.263 181.421 200.818 181.943 200.491Z" fill="#407BFF"/>
<g opacity="0.6">
<path d="M181.943 200.491L246.468 163.257C247.475 162.679 248.288 163.09 248.288 164.18C248.243 164.79 248.054 165.38 247.738 165.904C247.422 166.427 246.986 166.868 246.468 167.192L181.943 204.451C180.936 205.03 180.13 204.619 180.13 203.528C180.17 202.914 180.355 202.319 180.67 201.791C180.985 201.263 181.421 200.817 181.943 200.491Z" fill="white"/>
</g>
<path d="M191.893 69.0003L237.927 42.4469C239.337 41.608 240.444 42.2959 240.444 43.9151C240.401 44.7944 240.15 45.6509 239.713 46.4148C239.275 47.1788 238.664 47.8286 237.927 48.3113L191.901 74.7892C190.492 75.6282 189.385 74.957 189.385 73.363C189.432 72.4903 189.684 71.6409 190.12 70.8832C190.555 70.1256 191.163 69.4806 191.893 69.0003Z" fill="#FAFAFA"/>
<path d="M327.144 119.363L330.407 125.345L325.331 129.699L320.675 122.325L327.144 119.363Z" fill="#F28F8F"/>
<path d="M314.895 106.032C318.133 106.032 321.699 107.24 322.924 109.782L327.958 120.219C327.958 120.219 325.097 124.414 320.558 124.112L314.895 106.032Z" fill="#E0E0E0"/>
<path d="M326.891 126.276C327.84 124.514 328.074 124.43 328.637 124.044C329.199 123.658 332.655 123.147 334.09 123.021C335.768 122.878 336.38 123.189 335.91 124.64C334.618 128.301 333.036 131.852 331.179 135.261C330.726 135.857 330.642 136.411 328.737 136.604C326.967 136.771 324.744 136.872 324.089 136.906C323.435 136.939 322.529 137.115 323.108 135.186C323.857 133.006 324.725 130.869 325.709 128.784C326.438 127.182 326.891 126.276 326.891 126.276Z" fill="#407BFF"/>
<path d="M289.088 185.633C288.249 185.214 287.771 186.237 287.041 187.06C286.414 187.664 285.925 188.397 285.606 189.207C285.43 190.172 286.311 191.724 287.284 192.563C288.257 193.402 289.382 194.015 289.734 195.86C289.825 196.707 290.153 197.511 290.682 198.18C291.211 198.848 291.917 199.352 292.721 199.636C294.818 200.542 297.629 200.248 298.593 199.636C299.718 198.906 298.686 198.1 297.109 195.835C295.045 192.882 293.434 190.801 293.434 188.008L289.088 185.633Z" fill="#263238"/>
<path d="M290.74 183.208L289.062 185.725C288.7 186.239 288.557 186.876 288.664 187.496C288.771 188.116 289.119 188.668 289.633 189.031L289.683 189.073C290.199 189.379 290.806 189.495 291.399 189.402C291.992 189.309 292.533 189.011 292.93 188.561L295.581 185.675L290.74 183.208Z" fill="#FFA8A7"/>
<path d="M321.9 134.683C322.009 137.854 321.112 150.665 318.922 156.328C316.732 161.991 315.465 165.515 314.777 166.698C314.089 167.881 294.239 187.194 294.239 187.194C294.239 187.194 290.883 186.951 290.338 183.687C290.338 183.687 298.468 169.861 300.23 167.025C301.991 164.189 308.233 159.844 308.233 159.844L307.663 135.044L321.9 134.683Z" fill="#37474F"/>
<path d="M292.494 131.595C292.494 131.05 294.172 124.783 295.011 121.888L301.161 124.003L299.717 128.567L294.306 134.162C293.733 134.048 293.225 133.718 292.888 133.24C292.551 132.763 292.41 132.174 292.494 131.595Z" fill="#FFA8A7"/>
<path d="M317.527 202.175L321.724 201.22L320.334 195.109L316.137 196.064L317.527 202.175Z" fill="#FFA8A7"/>
<path d="M321.9 134.683H301.765C301.325 137.623 301.073 140.587 301.01 143.559C300.85 152.285 308.972 168.133 308.972 168.133C308.582 171.659 308.758 175.225 309.492 178.695C311.27 185.642 316.12 197.413 316.12 197.413C316.12 197.413 319.165 197.841 320.667 196.087C320.667 196.087 317.982 172.202 317.261 166.086C316.48 159.458 314.467 147.368 314.467 147.368C315.796 146.044 317.001 144.6 318.066 143.056C319.934 140.569 321.239 137.707 321.892 134.666" fill="#37474F"/>
<path d="M308.25 106.208C304.391 107.139 299.13 108.347 297.612 112.525C296.093 116.703 293.904 124.111 293.904 124.111C294.743 125.58 299.399 126.796 301.018 125.949L301.773 123.432V134.657C304.793 137.946 315.314 139.473 321.908 134.657V113.683C321.908 110.327 320.046 106.3 314.903 106.007L308.25 106.208Z" fill="#EBEBEB"/>
<path d="M301.773 123.457L303.711 117.358L301.773 126.184V123.457Z" fill="#E0E0E0"/>
<path d="M306.798 89.0683C306.452 89.0298 306.101 89.0702 305.773 89.1864C305.445 89.3026 305.147 89.4917 304.902 89.7395C304.063 90.5785 304.256 92.1138 304.902 95.6626L307.419 95.9479L306.798 89.0683Z" fill="#263238"/>
<path d="M321.489 88.0447C322.018 88.0503 322.542 87.9504 323.032 87.7511C323.804 87.3064 324.006 88.1873 323.578 88.9508C323.298 89.4979 322.883 89.9641 322.372 90.3049C321.861 90.6457 321.271 90.8496 320.658 90.8972C320.658 90.7882 319.937 88.9256 319.937 88.9256L321.489 88.0447Z" fill="#263238"/>
<path d="M307.981 95.9476C307.612 96.1742 307.075 95.4526 306.614 94.9744C306.433 94.766 306.203 94.6071 305.943 94.5128C305.684 94.4185 305.405 94.392 305.133 94.4357C304.861 94.4794 304.604 94.5919 304.388 94.7625C304.171 94.9331 304.002 95.1562 303.896 95.4107C303.132 97.0215 304.869 99.1693 305.892 99.874C306.176 100.122 306.531 100.274 306.907 100.307C307.282 100.34 307.659 100.253 307.981 100.059L308.25 106.225C308.702 107.213 309.391 108.073 310.256 108.731C311.121 109.388 312.135 109.821 313.208 109.992C316.832 110.479 316.086 107.475 314.886 106.032V103.792C315.793 103.984 316.725 104.029 317.646 103.926C318.116 103.8 319.24 102.441 319.97 100.914C321.518 97.857 321.862 94.3302 320.935 91.0313C319.635 85.5108 313.703 85.3431 310.171 87.5663C306.639 89.7896 307.981 95.9476 307.981 95.9476Z" fill="#FFA8A7"/>
<path d="M307.981 96.5767C307.797 96.5767 307.084 95.3937 306.614 94.9742C305.968 94.387 306.798 89.1015 306.798 89.1015C306.62 88.5334 306.584 87.9302 306.694 87.345C306.804 86.7598 307.056 86.2106 307.428 85.7456C308.703 84.4032 311.169 84.6298 312.973 84.571C315.192 84.5797 317.39 84.1373 319.433 83.2706C322.001 82.1548 322.193 82.0289 322.504 83.1532C322.752 84.0822 322.783 85.056 322.593 85.9988C322.404 86.9416 322 87.8282 321.413 88.5897L320.574 89.9488C320.574 89.9488 319.794 90.6032 317.403 90.8968C315.012 91.1905 310.935 89.8985 310.423 89.8314C309.726 89.7391 309.584 90.4102 309.206 92.2476C308.887 93.8332 308.619 96.5683 307.981 96.5767Z" fill="#263238"/>
<path d="M306.807 89.4875L304.542 88.271C304.614 88.123 304.715 87.9909 304.839 87.8821C304.962 87.7733 305.106 87.69 305.262 87.637C305.418 87.584 305.583 87.5623 305.747 87.5732C305.912 87.5841 306.072 87.6273 306.22 87.7005C306.531 87.8636 306.766 88.1413 306.876 88.4749C306.985 88.8085 306.961 89.1717 306.807 89.4875Z" fill="#263238"/>
<path d="M314.886 103.792C313.342 103.496 311.829 103.061 310.364 102.491C309.678 102.129 309.114 101.571 308.745 100.889C308.922 101.574 309.236 102.216 309.668 102.777C310.506 103.876 314.886 104.681 314.886 104.681V103.792Z" fill="#F28F8F"/>
<path d="M314.996 95.8304C314.998 96.0115 314.929 96.1861 314.803 96.3165C314.677 96.4468 314.505 96.5224 314.324 96.5268C314.234 96.5246 314.145 96.5047 314.062 96.4681C313.98 96.4315 313.905 96.3789 313.843 96.3135C313.78 96.248 313.732 96.171 313.699 96.0866C313.667 96.0023 313.651 95.9124 313.653 95.822C313.651 95.641 313.72 95.4664 313.846 95.336C313.971 95.2057 314.143 95.1301 314.324 95.1257C314.415 95.1279 314.504 95.1478 314.586 95.1844C314.669 95.221 314.744 95.2736 314.806 95.339C314.868 95.4045 314.917 95.4815 314.95 95.5659C314.982 95.6502 314.998 95.7401 314.996 95.8304Z" fill="#263238"/>
<path d="M314.282 93.288L312.848 94.127C312.793 94.0297 312.759 93.9226 312.746 93.8118C312.734 93.701 312.743 93.5889 312.774 93.4819C312.806 93.3749 312.858 93.2752 312.928 93.1886C312.998 93.102 313.085 93.0303 313.183 92.9776C313.372 92.881 313.59 92.8594 313.794 92.9169C313.998 92.9745 314.172 93.1071 314.282 93.288Z" fill="#263238"/>
<path d="M314.584 100.335L316.119 100.914C316.044 101.116 315.893 101.28 315.7 101.374C315.506 101.467 315.284 101.483 315.079 101.418C314.975 101.379 314.88 101.321 314.799 101.246C314.718 101.171 314.653 101.08 314.607 100.98C314.561 100.879 314.535 100.77 314.531 100.66C314.527 100.549 314.545 100.439 314.584 100.335Z" fill="#F28F8F"/>
<path d="M320.986 93.8505L319.677 92.8437C319.808 92.6739 320 92.5609 320.212 92.5282C320.424 92.4954 320.641 92.5453 320.818 92.6675C320.907 92.7337 320.982 92.817 321.039 92.9125C321.096 93.008 321.133 93.1138 321.149 93.2239C321.165 93.334 321.158 93.4461 321.13 93.5536C321.102 93.6612 321.053 93.7621 320.986 93.8505Z" fill="#263238"/>
<path d="M320.583 95.6371C320.585 95.8182 320.516 95.9928 320.39 96.1231C320.264 96.2535 320.092 96.3291 319.911 96.3335C319.821 96.3313 319.732 96.3113 319.649 96.2747C319.567 96.2381 319.492 96.1856 319.43 96.1202C319.368 96.0547 319.319 95.9776 319.286 95.8933C319.254 95.809 319.238 95.7191 319.24 95.6287C319.238 95.4477 319.307 95.2731 319.433 95.1427C319.559 95.0124 319.73 94.9368 319.911 94.9324C320.093 94.9389 320.265 95.0164 320.391 95.148C320.516 95.2797 320.585 95.4553 320.583 95.6371Z" fill="#263238"/>
<path d="M317.42 95.5536L316.791 99.547L318.997 99.287L317.42 95.5536Z" fill="#F28F8F"/>
<path d="M321.246 199.183L321.112 198.579C321.548 198.663 323.436 201.792 325.306 203.151C327.354 204.636 329.124 205.517 330.038 206.188C331.263 207.086 329.493 208.923 326.481 209.091C324.988 209.167 322.286 208.714 321.447 207.917C320.608 207.12 320.004 205.802 319.333 205.232C318.662 204.661 317.328 204.158 316.866 203.428C316.619 202.703 316.531 201.933 316.606 201.171C316.606 200.383 316.665 199.493 316.934 199.535L317.034 199.988C317.812 200.385 318.678 200.579 319.551 200.55C320.281 200.517 321.598 200.357 321.246 199.183Z" fill="#263238"/>
<path d="M316.74 162.024C316.74 162.024 314.953 149.331 314.475 147.368C315.911 146.584 317.246 145.629 318.452 144.523C317.62 145.713 316.712 146.848 315.733 147.921L316.74 162.024Z" fill="#263238"/>
<path d="M305.96 161.58C305.96 161.58 308.107 166.924 308.98 168.107C308.98 168.107 308.762 172.184 308.787 173.007L307.663 173.988C307.633 172.144 307.802 170.301 308.166 168.493C307.18 166.276 306.44 163.958 305.96 161.58Z" fill="#263238"/>
<path d="M299.742 128.566C299.742 128.566 316.664 130.378 318.653 129.766C320.641 129.153 323.309 127.182 324.71 126.343C326.111 125.504 327.177 125.454 327.177 125.798C327.177 126.142 325.952 128.012 325.675 128.793C325.398 129.573 326.992 129.573 329.098 129.086C331.204 128.6 332.043 127.408 332.588 128.096C333.133 128.784 331.422 132.291 327.932 133.608C324.442 134.926 321.849 134.045 318.963 134.171C316.077 134.296 298.299 135.429 294.297 134.171C294.192 133.529 294.265 132.871 294.509 132.268C294.753 131.666 295.159 131.143 295.682 130.756C296.891 129.785 298.267 129.043 299.742 128.566Z" fill="#FFA8A7"/>
<path d="M205.929 209.401C205.971 208.856 207.003 202.983 207.708 199.694L214.612 201.809L213.505 206.415L207.766 211.969C207.188 211.86 206.675 211.532 206.332 211.054C205.99 210.576 205.845 209.984 205.929 209.401Z" fill="#FFA8A7"/>
<path d="M221.064 159.684H224.42C226.896 159.684 229.271 160.668 231.022 162.419C232.774 164.17 233.757 166.545 233.757 169.022V192.815H211.726V169.022C211.726 166.545 212.71 164.17 214.461 162.419C216.212 160.668 218.587 159.684 221.064 159.684Z" fill="#263238"/>
<path d="M239.328 197.06L242.592 203.042L237.508 207.387L232.86 200.013L239.328 197.06Z" fill="#F28F8F"/>
<path d="M227.079 183.721C230.318 183.721 233.884 184.929 235.108 187.471L240.142 197.907C240.142 197.907 237.281 202.102 232.743 201.809L227.079 183.721Z" fill="#455A64"/>
<path d="M229.697 287.224C230.812 288.715 232.064 290.097 233.439 291.352C233.66 291.529 233.835 291.756 233.951 292.015C234.093 292.451 234.278 293.5 232.34 293.927C231.357 294.143 230.34 294.144 229.357 293.931C228.374 293.719 227.449 293.297 226.643 292.694C225.225 291.553 225.393 289.548 224.084 288.231C223.111 287.266 221.794 286.888 221.064 285.714C220.552 284.875 220.829 283.877 221.291 282.643C221.752 281.41 222.079 280.286 222.524 280.445L222.373 281.066C222.834 282.048 225.729 282.668 227.147 282.199C227.91 283.917 228.761 285.594 229.697 287.224Z" fill="#263238"/>
<path d="M230.838 288.667C230.444 288.206 230.058 287.736 229.697 287.224C228.955 285.989 228.291 284.708 227.709 283.39C227.33 282.605 227.264 281.705 227.524 280.873L228.48 277.643L223.447 276.485L222.356 281.007C222.121 282.039 222.868 283.063 224.235 284.556C225.603 286.049 227.18 289.338 228.43 290.269C229.68 291.201 230.704 291.293 231.341 290.974C231.979 290.655 232.138 290.362 230.838 288.667Z" fill="#FFA8A7"/>
<path d="M216.156 290.068V289.355C216.441 290.194 217.733 293.768 219.697 295.564C221.265 296.982 223.396 298.634 223.933 300.22C224.47 301.806 220.972 302.426 219.512 302.166C217.564 301.84 215.778 300.882 214.428 299.44C213.589 298.408 213.052 297.183 212.448 296.369C211.844 295.555 210.468 294.691 210.149 293.718C210.048 292.841 210.143 291.953 210.426 291.117C210.661 290.278 210.904 289.28 211.206 289.355V289.943C211.924 290.502 212.813 290.798 213.723 290.782C214.411 290.782 216.164 290.622 216.156 290.068Z" fill="#263238"/>
<path d="M221.114 296.814L219.696 295.555C218.382 294.162 217.355 292.522 216.676 290.731C216.333 289.904 216.156 289.017 216.156 288.122V285.294H211.206V289.892V290.018C211.441 291.05 213.723 293.785 215.007 295.572C216.059 297.108 217.664 298.178 219.487 298.559C221.374 298.81 222.356 298.223 221.114 296.814Z" fill="#FFA8A7"/>
<path d="M212.188 213.085C208.354 221.474 212.33 251.015 212.33 251.015C212.213 252.382 210.652 255.058 210.082 261.082C209.394 268.163 211.156 285.932 211.156 285.932C211.914 286.377 212.769 286.628 213.647 286.664C214.525 286.699 215.399 286.517 216.19 286.134C216.19 286.134 220.913 259.362 221.802 252.323L224.638 229.738L228.833 251.778C227.71 253.505 226.782 255.351 226.064 257.282C225.066 260.394 223.044 278.13 223.044 278.13C223.726 278.754 224.542 279.213 225.429 279.474C226.316 279.734 227.251 279.788 228.162 279.632C228.162 279.632 237.852 255.302 238.288 250.335C238.548 247.357 234.202 211.893 234.202 211.893L212.188 213.085Z" fill="#37474F"/>
<path d="M224.604 229.705L225.276 224.855C225.276 224.855 230.553 223.765 232.944 221.5C231.293 223.435 229.134 224.87 226.71 225.644L226.006 230.326L226.845 241.173L224.604 229.705Z" fill="#263238"/>
<path d="M219 183.947C217.588 184.291 216.27 184.947 215.145 185.867C214.019 186.788 213.115 187.949 212.498 189.266C211.592 191.268 211.508 193.545 212.263 195.609L215.644 205.534C215.644 205.534 214.042 209.418 212.171 213.084C220.787 217.892 231.534 215.366 234.127 211.86C234.236 211.113 234.085 207.757 234.295 203.948C234.513 199.879 235.075 195.282 234.437 192.773C233.246 188.1 231.023 183.721 226.601 183.721L219 183.947Z" fill="#455A64"/>
<path d="M217.683 183.947C214.747 184.358 210.434 184.954 208.941 191.934C207.448 198.915 207.003 201.473 207.003 201.473C207.96 202.413 209.101 203.145 210.354 203.624C211.607 204.104 212.945 204.32 214.285 204.259L215.804 198.889L217.683 183.947Z" fill="#455A64"/>
<path d="M219.353 189.837C218.846 189.837 218.344 189.737 217.876 189.543C217.407 189.349 216.982 189.065 216.624 188.706C216.265 188.348 215.981 187.922 215.787 187.454C215.593 186.986 215.493 186.484 215.493 185.977V174.744H219.353V189.837Z" fill="#263238"/>
<path d="M230.142 164.139C231.308 164.827 232.743 167.755 232.6 173.888C232.483 179.09 230.796 180.382 229.949 180.751C229.102 181.12 227.474 180.894 225.888 180.625V183.746C225.888 183.746 228.078 186.263 227.944 187.731C227.81 189.199 224.773 189.501 222.717 188.1C221.393 187.14 220.256 185.946 219.361 184.577V177.026C219.194 177.23 218.988 177.4 218.755 177.524C218.522 177.649 218.267 177.725 218.004 177.75C217.741 177.775 217.475 177.748 217.223 177.67C216.971 177.591 216.736 177.464 216.534 177.294C214.78 176.128 214.713 173.25 215.737 172.26C216.76 171.271 218.95 171.556 219.361 172.982C221.435 172.891 223.453 172.286 225.234 171.22C226.554 170.513 227.688 169.502 228.541 168.271C229.395 167.04 229.943 165.624 230.142 164.139Z" fill="#FFA8A7"/>
<path d="M226.794 172.587C226.795 172.716 226.759 172.841 226.69 172.949C226.62 173.057 226.52 173.142 226.403 173.194C226.286 173.246 226.155 173.261 226.029 173.24C225.903 173.218 225.785 173.16 225.692 173.072C225.598 172.984 225.532 172.871 225.503 172.746C225.473 172.621 225.481 172.49 225.525 172.37C225.569 172.249 225.648 172.144 225.751 172.068C225.854 171.992 225.978 171.948 226.106 171.941C226.194 171.938 226.281 171.952 226.364 171.983C226.446 172.014 226.521 172.06 226.585 172.12C226.649 172.181 226.701 172.253 226.736 172.333C226.772 172.413 226.792 172.5 226.794 172.587Z" fill="#263238"/>
<path d="M226.971 176.992L228.489 177.478C228.462 177.58 228.415 177.676 228.35 177.76C228.285 177.843 228.204 177.912 228.111 177.963C228.018 178.014 227.916 178.046 227.811 178.056C227.706 178.067 227.6 178.056 227.499 178.024C227.295 177.953 227.126 177.806 227.028 177.614C226.929 177.421 226.909 177.199 226.971 176.992Z" fill="#F28F8F"/>
<path d="M232.155 170.574L230.838 169.659C230.893 169.57 230.966 169.493 231.052 169.432C231.138 169.372 231.236 169.33 231.339 169.309C231.442 169.288 231.548 169.288 231.651 169.309C231.753 169.33 231.851 169.372 231.937 169.433C232.114 169.558 232.235 169.747 232.275 169.959C232.316 170.172 232.273 170.392 232.155 170.574Z" fill="#263238"/>
<path d="M231.853 172.109C231.865 172.286 231.806 172.46 231.69 172.594C231.573 172.727 231.409 172.809 231.232 172.822C231.056 172.825 230.886 172.759 230.758 172.638C230.63 172.518 230.553 172.352 230.544 172.176C230.54 172.09 230.553 172.004 230.581 171.923C230.61 171.842 230.655 171.768 230.712 171.704C230.77 171.64 230.84 171.588 230.917 171.551C230.995 171.514 231.079 171.493 231.165 171.488C231.251 171.484 231.337 171.497 231.418 171.525C231.499 171.554 231.574 171.599 231.638 171.656C231.702 171.714 231.754 171.784 231.791 171.861C231.828 171.939 231.849 172.023 231.853 172.109Z" fill="#263238"/>
<path d="M228.766 171.74L228.875 175.674L230.947 175.028L228.766 171.74Z" fill="#F28F8F"/>
<path d="M225.888 180.625C224.21 180.407 220.771 179.417 220.234 178.057C220.447 178.747 220.869 179.354 221.442 179.794C222.465 180.675 225.888 181.673 225.888 181.673V180.625Z" fill="#F28F8F"/>
<path d="M239.068 203.964C240.016 202.203 240.251 202.127 240.822 201.741C241.392 201.355 244.84 200.835 246.275 200.709C247.953 200.567 248.565 200.877 248.096 202.337C246.787 205.994 245.194 209.542 243.33 212.95C242.877 213.554 242.785 214.108 240.889 214.292C238.993 214.477 236.887 214.561 236.233 214.603C235.578 214.645 234.672 214.804 235.259 212.874C236.007 210.695 236.873 208.558 237.852 206.473C238.615 204.887 239.068 203.964 239.068 203.964Z" fill="#407BFF"/>
<path d="M213.505 206.449C213.505 206.449 228.85 208.068 230.838 207.455C232.827 206.843 235.494 204.855 236.929 204.032C238.364 203.21 239.396 203.143 239.396 203.479C239.396 203.814 238.171 205.702 237.886 206.474C237.6 207.246 239.211 207.254 241.309 206.767C243.406 206.281 244.253 205.089 244.807 205.777C245.361 206.465 243.641 209.972 240.151 211.289C236.661 212.607 234.068 211.734 231.182 211.852C228.296 211.969 211.768 213.261 207.766 212.003C207.661 211.361 207.734 210.703 207.978 210.1C208.222 209.498 208.628 208.975 209.151 208.588C210.445 207.591 211.925 206.864 213.505 206.449Z" fill="#FFA8A7"/>
<path d="M214.612 202.505C215.271 200.722 215.831 198.904 216.29 197.06C216.29 197.06 216.013 201.112 214.872 203.285L214.612 202.505Z" fill="#37474F"/>
<path d="M90.4528 152.612L87.7262 158.502L92.802 162.848L97.1898 155.439L90.4528 152.612Z" fill="#F28F8F"/>
<path d="M102.97 139.138C99.7319 139.138 96.1663 140.354 94.9414 142.888C93.7165 145.421 89.9076 153.333 89.9076 153.333C89.9076 153.333 92.7685 157.528 97.3073 157.226L102.97 139.138Z" fill="#37474F"/>
<path d="M117.015 232.591H112.535V239.11H117.015V232.591Z" fill="#FFA8A7"/>
<path d="M101.263 224.526L96.7858 224.68L97.0099 231.195L101.487 231.041L101.263 224.526Z" fill="#FFA8A7"/>
<path d="M116.713 168.946C116.713 173.225 117.266 200.877 117.266 200.877C117.375 202.102 118.525 204.376 118.273 209.099C117.937 215.518 117.384 233.346 117.384 233.346C117.384 233.346 115.286 235.426 112.35 233.346C112.35 233.346 108.289 209.116 107.492 202.757C106.788 197.211 105.605 182.135 105.605 182.135L101.452 199.879C101.452 199.879 102.182 204.074 102.349 206.994C102.517 209.913 101.586 226.953 101.586 226.953C100.86 227.406 100.028 227.661 99.1733 227.693C98.3183 227.726 97.4696 227.534 96.7115 227.137C96.7115 227.137 93.1207 202.287 92.6593 199.627C92.1979 196.968 95.8054 168.946 95.8054 168.946H116.713Z" fill="#37474F"/>
<path d="M109.976 139.339H110.043C111.965 139.823 113.67 140.935 114.886 142.5C116.102 144.064 116.76 145.991 116.755 147.972V168.947C113.617 172.361 102.677 173.98 95.7803 168.947V147.133C95.7803 143.652 97.7183 139.457 103.063 139.146L109.976 139.339Z" fill="#455A64"/>
<path d="M111.486 121.495C111.846 121.454 112.21 121.496 112.551 121.617C112.893 121.737 113.203 121.934 113.457 122.191C114.296 123.03 114.129 124.666 113.457 128.349L110.84 128.651L111.486 121.495Z" fill="#263238"/>
<path d="M96.2079 120.471C95.6462 120.473 95.0899 120.361 94.5719 120.144C93.733 119.682 93.5568 120.597 93.9931 121.385C94.2854 121.955 94.7189 122.44 95.2521 122.794C95.7853 123.148 96.4003 123.359 97.0385 123.407C97.0385 123.298 97.7852 121.369 97.7852 121.369L96.2079 120.471Z" fill="#263238"/>
<path d="M110.252 128.651C110.647 128.886 111.2 128.139 111.679 127.636C111.866 127.418 112.106 127.251 112.377 127.153C112.647 127.054 112.938 127.027 113.222 127.073C113.506 127.119 113.773 127.238 113.998 127.417C114.223 127.597 114.398 127.831 114.506 128.097C115.345 129.775 113.491 132.007 112.434 132.737C112.137 132.995 111.766 133.153 111.374 133.188C110.983 133.222 110.59 133.132 110.252 132.93L109.976 139.339C109.506 140.368 108.789 141.264 107.889 141.947C106.988 142.631 105.933 143.081 104.816 143.257C101.049 143.769 101.829 140.665 103.062 139.138V136.806C102.123 137.01 101.157 137.061 100.202 136.957C99.7066 136.823 98.5237 135.405 97.777 133.819C96.938 132.04 95.5202 128.886 96.7786 123.542C98.1293 117.795 104.329 117.619 107.97 119.934C111.612 122.25 110.252 128.651 110.252 128.651Z" fill="#FFA8A7"/>
<path d="M110.252 129.305C110.454 129.305 111.192 128.08 111.679 127.627C112.35 127.015 111.486 121.486 111.486 121.486C111.486 121.486 112.165 119.397 110.84 118.004C109.514 116.612 106.939 116.847 105.059 116.78C102.753 116.794 100.469 116.334 98.3475 115.429C95.6795 114.271 95.4782 114.137 95.151 115.303C94.8921 116.269 94.8596 117.282 95.0561 118.263C95.2525 119.243 95.6726 120.166 96.2836 120.958L97.6092 121.444C97.6092 121.444 98.3223 122.082 100.814 122.384C103.112 122.554 105.42 122.512 107.71 122.258C108.432 122.157 108.549 122.854 108.977 124.775C109.313 126.453 109.598 129.297 110.252 129.305Z" fill="#263238"/>
<path d="M111.477 121.931L113.835 120.664C113.76 120.505 113.654 120.364 113.523 120.248C113.391 120.132 113.238 120.043 113.072 119.988C112.905 119.934 112.729 119.913 112.555 119.928C112.38 119.943 112.211 119.994 112.056 120.076C111.74 120.252 111.504 120.543 111.396 120.888C111.289 121.233 111.318 121.606 111.477 121.931Z" fill="#263238"/>
<path d="M103.071 136.805C104.679 136.503 106.255 136.051 107.778 135.455C108.494 135.079 109.08 134.493 109.456 133.777C109.273 134.489 108.947 135.157 108.499 135.74C107.61 136.881 103.063 137.72 103.063 137.72L103.071 136.805Z" fill="#F28F8F"/>
<path d="M103.91 127.778C103.913 127.917 103.957 128.052 104.037 128.166C104.117 128.28 104.229 128.367 104.358 128.418C104.488 128.468 104.629 128.479 104.765 128.45C104.901 128.42 105.025 128.351 105.121 128.251C105.218 128.151 105.283 128.024 105.308 127.888C105.332 127.751 105.316 127.61 105.261 127.482C105.206 127.354 105.115 127.246 104.998 127.17C104.881 127.094 104.745 127.055 104.606 127.057C104.418 127.061 104.24 127.139 104.11 127.274C103.979 127.409 103.907 127.59 103.91 127.778Z" fill="#263238"/>
<path d="M104.648 125.144L106.15 125.983C106.254 125.777 106.276 125.539 106.21 125.317C106.145 125.096 105.997 124.908 105.798 124.792C105.699 124.738 105.591 124.704 105.48 124.693C105.368 124.681 105.256 124.693 105.149 124.725C105.041 124.758 104.942 124.812 104.856 124.884C104.77 124.956 104.699 125.044 104.648 125.144Z" fill="#263238"/>
<path d="M103.96 132.519L102.366 133.123C102.401 133.229 102.457 133.328 102.531 133.413C102.604 133.498 102.694 133.567 102.795 133.616C102.896 133.665 103.006 133.694 103.118 133.7C103.23 133.706 103.343 133.689 103.448 133.651C103.665 133.567 103.839 133.401 103.935 133.189C104.03 132.977 104.04 132.737 103.96 132.519Z" fill="#F28F8F"/>
<path d="M97.6762 125.722L99.027 124.665C98.962 124.574 98.8793 124.496 98.7837 124.437C98.6881 124.377 98.5815 124.338 98.4704 124.321C98.3593 124.303 98.2458 124.309 98.1368 124.336C98.0277 124.364 97.9253 124.413 97.8356 124.481C97.6544 124.628 97.5367 124.838 97.507 125.07C97.4773 125.301 97.5379 125.535 97.6762 125.722Z" fill="#263238"/>
<path d="M98.0961 127.585C98.0939 127.773 98.1657 127.954 98.2961 128.089C98.4264 128.224 98.6048 128.303 98.7925 128.307C98.9824 128.303 99.1629 128.223 99.2948 128.087C99.4267 127.95 99.4995 127.767 99.4972 127.577C99.508 127.479 99.4979 127.379 99.4676 127.285C99.4373 127.19 99.3875 127.104 99.3214 127.03C99.2553 126.956 99.1744 126.897 99.084 126.857C98.9936 126.816 98.8957 126.796 98.7967 126.796C98.6976 126.796 98.5997 126.816 98.5093 126.857C98.4189 126.897 98.338 126.956 98.2719 127.03C98.2058 127.104 98.156 127.19 98.1257 127.285C98.0954 127.379 98.0853 127.479 98.0961 127.577V127.585Z" fill="#263238"/>
<path d="M101.661 126.923L101.426 131.126L99.2366 130.38L101.661 126.923Z" fill="#F28F8F"/>
<path d="M112.535 236.895V236.249C112.107 236.434 111.108 240.234 109.338 241.854C107.92 243.137 105.982 244.631 105.504 246.048C105.026 247.466 108.189 248.364 109.506 248.129C111.041 247.861 113.701 246.778 114.364 245.78C115.026 244.782 115.345 243.305 115.882 242.567C116.419 241.828 117.677 241.015 117.971 240.167C118.057 239.375 117.969 238.573 117.711 237.818C117.501 237.029 117.283 236.14 117.015 236.232C117.015 236.325 117.015 236.719 117.015 236.719C116.378 237.222 115.586 237.489 114.775 237.474C114.129 237.524 112.526 237.399 112.535 236.895Z" fill="#263238"/>
<path d="M96.9715 229.806C96.7366 229.806 96.5436 230.141 96.0319 230.695C95.268 231.472 94.3771 232.114 93.3975 232.591C91.7196 233.43 88.4644 234.722 86.9878 235.385C86.0733 235.804 86.1488 236.912 87.0633 237.549C87.9778 238.187 90.3185 238.64 93.0787 238.019C94.5805 237.684 96.5436 236.299 97.7769 236.341C99.0102 236.383 101.334 236.4 102.249 235.771C103.163 235.142 102.802 233.791 102.542 232.633C102.282 231.475 101.854 229.445 101.435 229.529V229.923C100.898 230.762 98.1545 231.073 96.9715 230.477V229.806Z" fill="#263238"/>
<path d="M90.9814 159.391C90.0333 157.621 89.7984 157.546 89.2279 157.16C88.6574 156.774 85.2093 156.254 83.7746 156.136C82.0967 155.993 81.4842 156.304 81.954 157.755C83.2532 161.413 84.8353 164.964 86.6858 168.377C87.1389 168.972 87.2312 169.526 89.1272 169.711C91.0233 169.895 93.1291 169.979 93.7835 170.021C94.4379 170.063 95.344 170.222 94.7567 168.293C94.0072 166.114 93.1419 163.977 92.1643 161.891C91.4764 160.306 90.9814 159.391 90.9814 159.391Z" fill="#407BFF"/>
<path d="M125.371 164.71C125.329 164.156 123.693 157.897 122.854 155.003L116.713 157.117L118.156 161.672L123.559 167.268C124.131 167.156 124.639 166.828 124.976 166.351C125.314 165.875 125.455 165.287 125.371 164.71Z" fill="#FFA8A7"/>
<path d="M118.131 161.672C118.131 161.672 101.2 163.485 99.2118 162.872C97.2234 162.26 94.5555 160.271 93.1209 159.449C91.6862 158.627 90.6543 158.56 90.6543 158.904C90.6543 159.248 91.8792 161.119 92.1644 161.891C92.4497 162.662 90.8389 162.671 88.7414 162.184C86.644 161.698 85.7967 160.506 85.2429 161.194C84.6892 161.882 86.4091 165.389 89.8992 166.706C93.3893 168.023 95.9817 167.151 98.8678 167.268C101.754 167.386 119.532 168.527 123.534 167.268C123.64 166.628 123.567 165.971 123.322 165.37C123.078 164.769 122.672 164.247 122.149 163.862C120.951 162.898 119.59 162.157 118.131 161.672Z" fill="#FFA8A7"/>
<path d="M111.394 139.818C114.053 140.699 119.33 141.143 121.033 146.899C122.737 152.654 123.592 156.387 123.592 156.387C122.586 157.73 118.558 159.282 116.713 158.703L111.394 139.818Z" fill="#455A64"/>
<path d="M116.713 158.703L114.892 152.243L116.713 161.338V158.703Z" fill="#37474F"/>
<path d="M78.5237 172.277C78.4398 172.386 77.7267 173.569 77.7267 173.569L74.4464 178.267L71.2499 183.058C71.1492 183.204 71.0048 183.314 70.8375 183.373C70.6701 183.432 70.4885 183.436 70.3186 183.385L70.1005 183.31C68.993 182.899 67.3319 182.202 65.1254 181.187C63.3552 180.348 63.4475 180.105 63.4475 179.803C63.4244 179.563 63.4244 179.321 63.4475 179.081C63.8082 178.393 64.924 176.673 66.4258 174.5C69.0937 170.624 70.3774 168.905 71.1744 167.789C71.2881 167.626 71.4559 167.509 71.648 167.458C71.84 167.407 72.0438 167.426 72.2231 167.512C73.6577 167.99 76.569 169.24 78.0959 169.861H78.163C78.9852 170.306 78.5321 172.244 78.5237 172.277Z" fill="#407BFF"/>
<path d="M78.6074 172.126L77.7684 173.569L74.5635 178.359L71.2076 183.032C71.1069 183.178 70.9625 183.288 70.7952 183.347C70.6279 183.406 70.4463 183.41 70.2764 183.359L70.0582 183.284C68.9508 182.873 67.2896 182.176 65.0832 181.161C63.3129 180.322 63.4052 180.079 63.4052 179.777C63.3822 179.537 63.3822 179.295 63.4052 179.056C65.0832 179.794 70.3938 182.311 70.57 182.218C70.9895 182.017 74.5887 176.245 76.5015 173.3C77.458 171.832 77.8858 171.211 78.1795 170.708C78.2334 170.648 78.2736 170.577 78.2971 170.499C78.3207 170.422 78.3271 170.341 78.3159 170.261C78.3047 170.181 78.2762 170.105 78.2324 170.037C78.1885 169.969 78.1304 169.912 78.062 169.869H77.9949C78.1833 169.968 78.3459 170.11 78.4697 170.284C78.5935 170.457 78.6751 170.657 78.708 170.867C78.7995 171.068 78.8383 171.289 78.8207 171.509C78.803 171.73 78.7296 171.942 78.6074 172.126Z" fill="#407BFF"/>
<path opacity="0.1" d="M78.6074 172.126L77.7684 173.569L74.5635 178.359L71.2076 183.032C71.1069 183.178 70.9625 183.288 70.7952 183.347C70.6279 183.406 70.4463 183.41 70.2764 183.359L70.0582 183.284C68.9508 182.873 67.2896 182.176 65.0832 181.161C63.3129 180.322 63.4052 180.079 63.4052 179.777C63.3822 179.537 63.3822 179.295 63.4052 179.056C65.0832 179.794 70.3938 182.311 70.57 182.218C70.9895 182.017 74.5887 176.245 76.5015 173.3C77.458 171.832 77.8858 171.211 78.1795 170.708C78.2334 170.648 78.2736 170.577 78.2971 170.499C78.3207 170.422 78.3271 170.341 78.3159 170.261C78.3047 170.181 78.2762 170.105 78.2324 170.037C78.1885 169.969 78.1304 169.912 78.062 169.869H77.9949C78.1833 169.968 78.3459 170.11 78.4697 170.284C78.5935 170.457 78.6751 170.657 78.708 170.867C78.7995 171.068 78.8383 171.289 78.8207 171.509C78.803 171.73 78.7296 171.942 78.6074 172.126Z" fill="black"/>
<path d="M71.2162 168.887L77.1057 171.354L70.8303 180.683L64.9742 177.99L71.2162 168.887Z" fill="#FAFAFA"/>
<path d="M69.5634 201.398C71.1742 200.936 73.6072 194.946 75.4362 188.15C77.2651 181.355 78.2299 179.853 78.2887 177.714C78.3474 175.574 78.1964 172.764 78.1964 172.764L75.0083 177.42C74.87 176.522 74.5866 175.652 74.1693 174.844C73.7582 174.005 72.9864 173.343 72.3571 173.846C72.0216 174.114 72.9109 175.264 72.7179 177.831C72.7021 178.854 72.8035 179.876 73.0199 180.877L67.0968 195.223L69.5634 201.398Z" fill="#FFA8A7"/>
<path d="M45.7283 171.648C43.8574 171.119 42.2717 172.117 41.3908 175.096C39.8466 180.703 38.7248 186.419 38.0349 192.194C37.7832 194.266 37.498 196.783 39.4779 196.976C40.9881 197.127 45.3507 196.288 46.1142 195.533C47.1377 194.543 46.9532 190.55 46.9532 190.55H44.6879C44.6879 190.55 45.1745 187.403 45.3172 186.447C45.8205 183.234 46.5672 179.182 46.5672 179.182L45.7283 171.648Z" fill="#F28F8F"/>
<path d="M56.7105 168.702L55.9471 175.423L49.3192 176.194L50.2756 167.276L56.7105 168.702Z" fill="#FFA8A7"/>
<path d="M42.5234 158.895C43.0688 152.687 46.433 150.136 49.0338 149.516C54.2858 148.282 59.4706 150.044 61.6184 153.71C62.11 154.858 62.3635 156.094 62.3635 157.343C62.3635 158.592 62.11 159.828 61.6184 160.976C60.4774 163.577 42.5486 158.878 42.5486 158.878" fill="#263238"/>
<path d="M61.9455 162.234C61.9455 162.234 62.8935 164.793 62.6419 164.986C62.2462 165.129 61.8291 165.202 61.4086 165.204L61.9455 162.234Z" fill="#FFA8A7"/>
<path d="M59.1182 154.146C60.3683 155.22 62.4741 157.167 61.912 162.536C61.2912 168.09 59.9488 169.592 59.0427 170.129C58.4387 170.489 55.7624 169.86 54.5207 169.13C52.977 168.216 49.554 165.858 48.5137 162.679C47.2804 158.937 47.9012 154.473 50.6027 153.307C51.9773 152.716 53.4794 152.483 54.9686 152.629C56.4578 152.776 57.8855 153.298 59.1182 154.146Z" fill="#FFA8A7"/>
<path d="M60.6621 154.29C60.689 155.774 60.3808 157.246 59.7606 158.595C59.1404 159.945 58.2241 161.137 57.0797 162.084C57.0797 162.084 56.2995 160.062 54.5628 160.523C52.8262 160.984 52.8849 163.275 54.1266 164.517C54.4485 164.871 54.865 165.127 55.3272 165.253C55.7894 165.38 56.2781 165.372 56.7358 165.23C56.4882 166.817 55.7453 168.285 54.6132 169.425C52.8065 169.84 50.9194 169.738 49.1683 169.129C47.4172 168.521 45.8731 167.431 44.7133 165.985C40.8792 161.379 42.0118 154.063 48.0021 151.907C50.1201 151.057 52.4368 150.83 54.6796 151.252C56.9224 151.674 58.998 152.728 60.6621 154.29Z" fill="#263238"/>
<path d="M48.522 269.807L51.3829 273.784C50.0797 274.374 48.6598 274.66 47.23 274.623C44.6711 274.724 43.9664 273.885 43.8741 273.683C43.4378 272.752 44.1174 271.082 44.3019 269.648L48.522 269.807Z" fill="#263238"/>
<path d="M51.2066 271.863C51.2066 271.863 54.6715 271.636 57.0794 271.334C59.4872 271.032 61.3749 272.173 60.8128 273.188C60.2507 274.203 58.9251 275 56.8696 275.705C55.1162 276.301 53.002 276.729 51.1646 277.274C49.3273 277.819 48.0772 278.49 47.0117 278.113C45.8204 277.702 45.3338 277.224 45.4093 276.36C45.6692 275.128 45.9912 273.909 46.3741 272.71L51.2066 271.863Z" fill="#263238"/>
<path d="M43.8743 265.797C43.8743 265.797 44.3021 269.404 44.3357 270.184C44.3693 270.965 47.8594 271.208 48.5305 269.79L48.6396 265.377L43.8743 265.797Z" fill="#F28F8F"/>
<path d="M47.3894 268.02L46.1729 273.498C46.1729 273.498 46.0471 274.161 48.908 274.589C51.7689 275.017 56.2322 273.096 56.9957 272.71C57.7591 272.324 57.8346 271.544 55.0409 271.695C52.2471 271.846 51.2487 271.862 51.2487 271.862L52.1632 269.429L47.3894 268.02Z" fill="#FFA8A7"/>
<path d="M43.8743 194.678C41.4832 198.394 39.218 201.666 38.7314 205.844C37.7079 214.67 41.0637 224.755 41.7769 231.282C40.4203 233.139 39.6359 235.353 39.52 237.65C39.52 240.351 43.8743 265.797 43.8743 265.797C43.8743 265.797 47.0372 266.762 48.6312 265.378L51.6264 218.563L50.0491 212.867L43.8743 194.678Z" fill="#455A64"/>
<path d="M51.6262 218.563L50.0489 212.866C47.0804 212.094 44.2156 210.967 41.5166 209.51C41.5166 209.51 43.1358 212.447 47.7585 214.057L50.1664 221.382L50.3761 238.161L51.6262 218.563Z" fill="#37474F"/>
<path d="M43.8743 194.678C42.599 196.758 39.5368 200.332 40.1912 203.755C40.9798 207.95 43.2115 210.828 50.0491 212.867L56.4588 236.081C56.4588 236.081 53.1029 239.21 52.1046 242.18C51.1062 245.15 47.3895 268.02 47.3895 268.02C47.3895 268.02 48.5305 269.883 52.1381 269.43C52.1381 269.43 64.7227 240.745 65.5616 238.9C66.6351 237.011 67.0121 234.805 66.6271 232.666C66.2244 229.663 61.9457 196.758 61.9457 196.758L43.8743 194.678Z" fill="#455A64"/>
<path d="M42.7077 173.728C42.9649 173.044 43.4495 172.469 44.0803 172.099C44.7111 171.729 45.4499 171.588 46.1727 171.698C50.6444 172.915 57.5994 174.517 58.9166 174.903C58.9166 174.903 58.3209 183.519 63.4722 186.556C63.2289 188.478 61.9201 196.758 61.9201 196.758C61.9201 196.758 55.7285 199.762 50.636 198.285C45.5434 196.808 43.8319 194.678 43.8319 194.678L46.3488 190.525C45.8035 189.174 43.6977 184.585 42.3386 180.323C41.867 178.131 41.9945 175.853 42.7077 173.728Z" fill="#FAFAFA"/>
<path d="M45.728 188.889C47.8461 190.163 50.0658 191.26 52.3643 192.169C50.2752 192.115 48.233 191.538 46.4244 190.491L45.728 188.889Z" fill="#E0E0E0"/>
<path d="M63.3636 185.91C61.5335 185.071 60.028 183.657 59.0764 181.883C59.2307 183.246 59.698 184.555 60.4416 185.708C61.1853 186.86 62.1853 187.825 63.3636 188.528V185.91Z" fill="#E0E0E0"/>
<path d="M58.9587 174.903C61.7693 175.742 63.5143 176.01 65.0329 177.37C67.0296 179.165 69.0935 189.316 69.513 191.414C70.2429 195.047 71.0483 198.822 70.2597 200.517C69.6892 201.742 66.585 202.656 65.2258 198.696C64.9406 197.857 64.8819 197.471 64.6302 196.716C63.3465 192.924 61.4169 185.675 61.4169 185.675C61.4169 185.675 57.6164 183.578 58.9587 174.903Z" fill="#FFA8A7"/>
<path d="M45.3338 151.907C44.3354 152.486 42.5316 153.048 41.4074 158.291C40.4921 162.69 39.9477 167.158 39.7798 171.648C39.8217 173.275 43.1944 177.797 50.3089 177.369C57.4233 176.942 60.0074 172.772 60.0074 172.772C60.0074 172.772 56.5089 171.346 56.7857 165.221C56.7857 165.221 55.5524 167.646 52.1714 166.429C48.7903 165.213 45.3338 151.907 45.3338 151.907Z" fill="#263238"/>
</svg>
