<svg width="162" height="38" viewBox="0 0 162 38" fill="none" xmlns="http://www.w3.org/2000/svg">
<path d="M20.7595 11.9599C23.6208 13.6074 25.7447 16.2832 26.6979 19.4413L27.0521 20.8877C27.6392 24.0983 26.9953 27.4119 25.2483 30.17C23.5013 32.9281 20.7791 34.9287 17.6227 35.7742C14.4664 36.6197 11.1071 36.2481 8.21256 34.7333C5.318 33.2185 3.10013 30.6714 1.9998 27.5984L1.57757 26.1746C0.998238 23.7056 1.15491 21.1213 2.02827 18.7401C2.90163 16.3589 4.45352 14.285 6.49267 12.7739C8.53182 11.2627 10.9691 10.3805 13.5042 10.2359C16.0392 10.0912 18.5613 10.6905 20.7595 11.9599Z" fill="white"/>
<path d="M2.00525 16.1919C0.236683 19.2593 -0.312504 22.8788 0.466678 26.3318C1.24586 29.7848 3.29646 32.8191 6.21152 34.8325C9.12657 36.8458 12.693 37.6911 16.203 37.2005C19.7131 36.7098 22.9101 34.9192 25.1597 32.184L29.5001 32.846C29.6637 32.8716 29.8312 32.8469 29.9805 32.7753C30.1297 32.7037 30.2536 32.5884 30.3359 32.4449C30.4181 32.3013 30.4547 32.1362 30.4408 31.9714C30.427 31.8066 30.3633 31.6499 30.2583 31.522L27.5024 28.1123C28.736 24.7934 28.6749 21.1326 27.3313 17.8566C25.9877 14.5806 23.4597 11.929 20.2493 10.4281C17.0389 8.92714 13.3808 8.68668 10.0011 9.75443C6.62136 10.8222 3.76723 13.12 2.00525 16.1919ZM20.7422 11.9433C23.6063 13.5867 25.7349 16.2591 26.6943 19.4157L27.0484 20.8621C27.6392 24.0705 27.0001 27.3835 25.258 30.143C23.5159 32.9025 20.7983 34.9068 17.6449 35.7576C14.4915 36.6085 11.133 36.2437 8.23646 34.7358C5.33992 33.2279 3.11722 30.6871 2.00979 27.6181L1.58302 26.1898C1.00164 23.722 1.15545 21.1383 2.02554 18.7568C2.89562 16.3752 4.44401 14.2996 6.48008 12.7856C8.51616 11.2716 10.9511 10.3853 13.4851 10.2356C16.0191 10.086 18.5417 10.6796 20.7422 11.9433Z" fill="#455A64"/>
<path d="M12.2751 30.6858C11.9954 30.6855 11.7187 30.6283 11.4618 30.5176C11.205 30.4069 10.9735 30.245 10.7815 30.0419L6.1551 25.1042C5.78484 24.7073 5.58759 24.1798 5.60674 23.6378C5.6259 23.0957 5.8599 22.5834 6.25725 22.2136C6.65461 21.8438 7.18278 21.6468 7.72557 21.666C8.26835 21.6851 8.7813 21.9188 9.15156 22.3156L12.1571 25.5213L19.2533 16.5255C19.5965 16.1253 20.0814 15.8732 20.6065 15.822C21.1316 15.7709 21.6562 15.9245 22.0704 16.2509C22.4846 16.5773 22.7563 17.051 22.8287 17.5729C22.901 18.0949 22.7684 18.6245 22.4586 19.051L13.8778 29.9331C13.6956 30.1635 13.4658 30.352 13.2042 30.4857C12.9425 30.6195 12.6551 30.6955 12.3614 30.7084L12.2751 30.6858Z" fill="#BA68C8"/>
<path d="M152.446 2.01603C149.363 0.832416 145.944 0.866464 142.884 2.11124L141.522 2.74603C138.644 4.30238 136.458 6.88562 135.402 9.98027C134.346 13.0749 134.498 16.4534 135.826 19.4415C137.154 22.4296 139.562 24.8076 142.569 26.101C145.575 27.3943 148.96 27.5079 152.046 26.4191L153.408 25.8523C155.696 24.75 157.61 23.0033 158.915 20.8275C160.22 18.6517 160.86 16.1421 160.754 13.6079C160.648 11.0737 159.802 8.62582 158.32 6.56602C156.838 4.50622 154.785 2.92455 152.414 2.01603H152.446Z" fill="white"/>
<path d="M152.868 0.992329C149.752 -0.209968 146.31 -0.272232 143.152 0.816565C139.995 1.90536 137.325 4.07497 135.615 6.94121H131.229C131.063 6.94091 130.901 6.99084 130.764 7.08443C130.627 7.17802 130.522 7.31087 130.462 7.46549C130.402 7.62011 130.39 7.78924 130.428 7.95061C130.466 8.11198 130.553 8.25801 130.676 8.36948L133.917 11.3167C133.377 13.9514 133.602 16.6855 134.566 19.1966C135.53 21.7078 137.193 23.8914 139.359 25.49C141.524 27.0887 144.102 28.0357 146.789 28.2196C149.475 28.4035 152.158 27.8165 154.522 26.5278C156.886 25.2392 158.831 23.3025 160.129 20.9462C161.427 18.5899 162.024 15.9121 161.849 13.2284C161.673 10.5447 160.733 7.96696 159.14 5.79904C157.546 3.63112 155.365 1.96336 152.854 0.992329H152.868ZM159.914 18.8526C158.723 21.9301 156.401 24.4374 153.421 25.8624L152.059 26.4337C148.972 27.5084 145.593 27.383 142.594 26.0824C139.595 24.7818 137.196 22.4013 135.875 19.4146C134.554 16.4278 134.406 13.0538 135.463 9.9637C136.519 6.8736 138.702 4.29396 141.576 2.738L142.938 2.10321C145.291 1.16415 147.867 0.931095 150.35 1.43263C152.833 1.93416 155.115 3.14848 156.918 4.92667C158.72 6.70487 159.963 8.96966 160.495 11.4433C161.028 13.917 160.826 16.492 159.914 18.8526Z" fill="#455A64"/>
<path d="M145.808 21.6245C145.53 21.6245 145.254 21.5678 144.998 21.4579C144.742 21.348 144.511 21.1871 144.319 20.9852L139.679 16.0565C139.335 15.6582 139.159 15.1427 139.186 14.6176C139.214 14.0925 139.443 13.5982 139.827 13.238C140.211 12.8777 140.719 12.6793 141.245 12.684C141.772 12.6888 142.276 12.8963 142.653 13.2634L145.668 16.4374L152.759 7.42791C152.925 7.21742 153.13 7.04154 153.363 6.9103C153.597 6.77907 153.854 6.69506 154.12 6.66306C154.386 6.63106 154.656 6.6517 154.914 6.72381C155.172 6.79592 155.413 6.91807 155.624 7.08331C155.835 7.24854 156.011 7.45362 156.142 7.68683C156.274 7.92003 156.358 8.1768 156.39 8.44248C156.422 8.70816 156.401 8.97753 156.329 9.23523C156.257 9.49293 156.134 9.7339 155.969 9.94439L147.411 20.8265C147.229 21.0575 146.999 21.2467 146.738 21.3812C146.476 21.5158 146.189 21.5926 145.895 21.6064L145.808 21.6245Z" fill="#BA68C8"/>
</svg>
