<svg width="180" height="180" viewBox="0 0 180 180" fill="none" xmlns="http://www.w3.org/2000/svg">
<path d="M28.1573 20.7782C28.1663 18.5396 27.6743 16.3291 26.7195 14.319C25.7648 12.309 24.3732 10.5538 22.6533 9.19031C20.9334 7.82684 18.9316 6.89195 16.8041 6.45856C14.6766 6.02516 12.4808 6.10498 10.3881 6.69178C8.29539 7.27858 6.36227 8.3565 4.73949 9.84148C3.11672 11.3265 1.84817 13.1784 1.03277 15.2527C0.217365 17.3271 -0.122839 19.5679 0.038684 21.8004C0.200207 24.0328 0.859092 26.1966 1.96395 28.1229L2.00632 28.1746C2.5456 29.117 3.21969 29.7652 3.90534 30.7752L12.0792 41.9492C12.3157 42.2736 12.6221 42.5369 12.974 42.7181C13.326 42.8994 13.7139 42.9938 14.1073 42.9938C14.5006 42.9938 14.8885 42.8994 15.2405 42.7181C15.5924 42.5369 15.8988 42.2736 16.1353 41.9492L24.1474 30.9581C24.877 30.0697 25.5585 29.1405 26.1889 28.1746L26.2197 28.1348C27.4923 25.9061 28.1615 23.3653 28.1573 20.7782ZM14.0784 27.1089C12.8526 27.1089 11.6543 26.7336 10.635 26.0306C9.61582 25.3275 8.82144 24.3283 8.35234 23.1591C7.88324 21.99 7.76051 20.7035 7.99965 19.4624C8.23879 18.2213 8.82908 17.0812 9.69585 16.1864C10.5626 15.2916 11.667 14.6822 12.8692 14.4354C14.0715 14.1885 15.3177 14.3152 16.4502 14.7995C17.5827 15.2837 18.5506 16.1038 19.2316 17.156C19.9127 18.2082 20.2762 19.4452 20.2762 20.7106C20.2767 21.551 20.1167 22.3832 19.8054 23.1598C19.4941 23.9363 19.0376 24.6418 18.462 25.236C17.8864 25.8303 17.2029 26.3015 16.4508 26.6229C15.6986 26.9443 14.8924 27.1094 14.0784 27.1089Z" fill="#F5F5F5"/>
<path d="M180 108.922C180.002 107.937 179.783 106.965 179.361 106.082C178.939 105.198 178.326 104.427 177.568 103.828C176.81 103.229 175.929 102.819 174.993 102.628C174.057 102.438 173.091 102.473 172.17 102.731C171.249 102.989 170.398 103.463 169.683 104.116C168.969 104.768 168.41 105.582 168.049 106.494C167.689 107.406 167.537 108.392 167.605 109.374C167.674 110.357 167.961 111.31 168.445 112.159V112.183C168.683 112.581 168.984 112.895 169.284 113.328L172.886 118.255C172.99 118.398 173.126 118.515 173.281 118.595C173.436 118.675 173.608 118.716 173.781 118.716C173.955 118.716 174.126 118.675 174.282 118.595C174.437 118.515 174.573 118.398 174.677 118.255L178.217 113.412C178.54 113.019 178.841 112.607 179.118 112.179V112.159C179.689 111.182 179.994 110.064 180 108.922ZM173.795 111.706C173.255 111.706 172.727 111.54 172.278 111.231C171.829 110.921 171.478 110.481 171.272 109.965C171.065 109.45 171.011 108.883 171.116 108.336C171.222 107.79 171.482 107.287 171.864 106.893C172.246 106.499 172.732 106.23 173.262 106.121C173.792 106.013 174.341 106.068 174.84 106.282C175.339 106.495 175.766 106.857 176.066 107.32C176.366 107.784 176.526 108.329 176.526 108.886C176.526 109.257 176.456 109.624 176.319 109.967C176.182 110.31 175.981 110.622 175.728 110.884C175.474 111.147 175.173 111.355 174.841 111.497C174.51 111.64 174.154 111.713 173.795 111.714V111.706Z" fill="#F5F5F5"/>
<path d="M158.595 159.452C164.663 153.188 164.663 143.031 158.595 136.766C152.527 130.502 142.688 130.502 136.62 136.766C130.552 143.031 130.552 153.188 136.62 159.452C142.688 165.717 152.527 165.717 158.595 159.452Z" fill="#F5F5F5"/>
<path d="M147.614 161.464C145.056 161.465 142.554 160.682 140.427 159.216C138.299 157.749 136.641 155.664 135.661 153.224C134.681 150.784 134.425 148.099 134.923 145.508C135.422 142.918 136.654 140.538 138.463 138.67C140.271 136.802 142.576 135.53 145.085 135.015C147.595 134.499 150.196 134.763 152.559 135.774C154.923 136.784 156.943 138.496 158.365 140.692C159.786 142.888 160.545 145.47 160.545 148.111C160.542 151.651 159.179 155.045 156.755 157.548C154.33 160.052 151.043 161.46 147.614 161.464ZM147.614 137.044C145.494 137.044 143.421 137.693 141.658 138.909C139.895 140.125 138.521 141.854 137.71 143.876C136.899 145.898 136.686 148.123 137.1 150.27C137.514 152.417 138.535 154.389 140.034 155.936C141.533 157.484 143.443 158.538 145.523 158.965C147.602 159.392 149.758 159.173 151.716 158.335C153.675 157.498 155.35 156.079 156.527 154.259C157.705 152.439 158.334 150.3 158.334 148.111C158.331 145.177 157.201 142.364 155.191 140.289C153.181 138.214 150.456 137.047 147.614 137.044Z" fill="white"/>
<path d="M147.526 152.674C146.584 152.674 145.662 152.385 144.879 151.845C144.095 151.304 143.484 150.535 143.124 149.636C142.763 148.737 142.669 147.748 142.853 146.794C143.037 145.84 143.491 144.963 144.158 144.275C144.825 143.587 145.674 143.119 146.599 142.93C147.523 142.741 148.482 142.839 149.352 143.212C150.223 143.584 150.967 144.216 151.49 145.025C152.013 145.834 152.292 146.786 152.291 147.759C152.29 149.063 151.788 150.313 150.894 151.235C150.001 152.156 148.789 152.674 147.526 152.674ZM147.526 145.118C147.022 145.118 146.529 145.273 146.109 145.562C145.69 145.851 145.363 146.263 145.17 146.744C144.977 147.225 144.927 147.754 145.025 148.264C145.124 148.775 145.366 149.244 145.723 149.612C146.08 149.981 146.534 150.231 147.029 150.333C147.523 150.434 148.036 150.382 148.502 150.183C148.968 149.984 149.366 149.646 149.646 149.213C149.927 148.781 150.076 148.272 150.076 147.751C150.073 147.054 149.803 146.388 149.325 145.896C148.848 145.404 148.201 145.127 147.526 145.126V145.118Z" fill="white"/>
<path d="M147.527 147.762H141.506L142.558 149.678L128.386 156.383L128.864 157.206L143.082 150.577L144.056 152.482L147.527 147.762Z" fill="#E0E0E0"/>
<path d="M128.386 156.381L128.236 156.23C127.871 155.863 127.418 155.602 126.923 155.475C126.428 155.347 125.909 155.358 125.42 155.507L119.769 157.205L122.916 158.632L121.653 162.104L126.957 160.171C127.539 159.956 128.038 159.553 128.382 159.023C128.725 158.492 128.894 157.862 128.864 157.224L128.386 156.381Z" fill="#E0E0E0"/>
<path d="M59.813 159.746L59.9285 159.707L60.2637 159.607L61.5502 159.209L66.369 157.814L66.3228 157.897C66.0763 157.042 65.7989 156.088 65.5062 155.062V155.018L65.5447 154.982C66.8793 153.828 68.015 152.448 68.9036 150.903C69.3987 150.031 69.7771 149.095 70.0284 148.119C70.2921 147.081 70.3536 146 70.2094 144.938C69.8599 142.629 68.7399 140.519 67.0431 138.973C65.2087 137.319 62.9188 136.3 60.4948 136.058C58.675 135.899 56.8488 136.276 55.2291 137.148C53.6683 137.932 52.3198 139.103 51.304 140.556C50.3682 141.925 49.7874 143.518 49.6168 145.184C49.5937 145.582 49.5359 145.98 49.5437 146.377C49.5514 146.775 49.5629 147.173 49.5745 147.538C49.6356 148.285 49.7646 149.024 49.9597 149.745C50.1511 150.423 50.4092 151.079 50.7301 151.702C51.0442 152.282 51.416 152.827 51.8394 153.328C52.612 154.222 53.5232 154.978 54.5358 155.563C56.0133 156.428 57.6324 157.005 59.3122 157.265H59.3392V157.289L59.7244 159.094C59.7629 159.293 59.7937 159.448 59.813 159.559C59.8322 159.671 59.8438 159.718 59.8438 159.722C59.8255 159.677 59.8125 159.628 59.8053 159.579L59.6974 159.126L59.2814 157.305L59.3161 157.337C57.6177 157.099 55.9778 156.534 54.4819 155.67C53.4552 155.084 52.5309 154.325 51.747 153.424C51.3071 152.917 50.9198 152.364 50.5914 151.773C50.2562 151.141 49.9851 150.475 49.7825 149.785C49.5893 149.052 49.4604 148.303 49.3973 147.546L49.3626 146.353C49.3626 145.956 49.4127 145.558 49.4358 145.16C49.6039 143.46 50.1929 141.834 51.1461 140.436C52.1785 138.952 53.5509 137.756 55.1405 136.953C56.799 136.06 58.67 135.675 60.5333 135.843C63.0054 136.085 65.341 137.125 67.2087 138.814C68.089 139.613 68.8212 140.571 69.3697 141.641C69.516 141.897 69.6447 142.162 69.7549 142.437C69.8739 142.694 69.9744 142.959 70.0553 143.232C70.1362 143.51 70.2248 143.781 70.298 144.055C70.3712 144.329 70.3943 144.616 70.4444 144.894C70.5876 145.982 70.5208 147.089 70.2479 148.151C69.989 149.142 69.6002 150.092 69.0923 150.974C68.1863 152.533 67.031 153.922 65.6757 155.082L65.7026 155.002L66.5 157.838L66.5192 157.901L66.4576 157.921L61.5849 159.257L60.3022 159.603L59.9786 159.687L59.813 159.746Z" fill="#E0E0E0"/>
<path d="M66.9981 159.75C65.9042 160.174 64.7864 160.528 63.6508 160.812C62.5334 161.165 61.3962 161.448 60.2457 161.659C61.3408 161.24 62.4584 160.887 63.593 160.601C64.7107 160.248 65.8478 159.964 66.9981 159.75Z" fill="#E0E0E0"/>
<path d="M65.4931 163.008C65.149 163.259 64.7536 163.425 64.3375 163.493C63.9363 163.627 63.5109 163.665 63.0933 163.604C63.4794 163.453 63.8795 163.344 64.2874 163.278C64.6797 163.147 65.0835 163.057 65.4931 163.008Z" fill="#E0E0E0"/>
<path d="M61.1876 159.375C61.1699 159.339 61.1569 159.302 61.1491 159.263C61.126 159.176 61.099 159.064 61.0605 158.925C60.9835 158.61 60.8756 158.176 60.7369 157.625C60.4596 156.476 60.0667 154.841 59.5813 152.825C59.3387 151.811 59.0767 150.702 58.811 149.513C58.7542 149.219 58.6402 148.94 58.4758 148.694C58.4064 148.572 58.2968 148.481 58.1673 148.436C58.0378 148.392 57.897 148.397 57.7709 148.451C57.6513 148.534 57.5549 148.647 57.4914 148.781C57.4278 148.914 57.3994 149.062 57.4088 149.211C57.4181 149.529 57.54 149.833 57.7517 150.065C57.9793 150.308 58.2604 150.49 58.571 150.596C58.8816 150.702 59.2124 150.729 59.5351 150.674C59.8736 150.621 60.1939 150.481 60.467 150.268C60.7401 150.055 60.9574 149.775 61.099 149.453C61.4137 148.783 61.4927 148.021 61.3224 147.298C61.2568 146.932 61.0895 146.593 60.8409 146.324C60.7222 146.201 60.5681 146.122 60.402 146.099C60.2358 146.075 60.0667 146.108 59.9203 146.192C59.7943 146.309 59.709 146.465 59.6776 146.637C59.6463 146.809 59.6707 146.987 59.747 147.143C59.916 147.467 60.1627 147.741 60.4634 147.938C61.0312 148.404 61.7148 148.695 62.4356 148.777C62.7792 148.809 63.1252 148.756 63.4449 148.622C63.7466 148.477 64.0107 148.261 64.2153 147.99C64.4214 147.727 64.545 147.405 64.5696 147.067C64.5824 146.905 64.563 146.742 64.5127 146.589C64.4623 146.435 64.3821 146.293 64.2769 146.172C64.1866 146.056 64.0665 145.969 63.9303 145.919C63.7941 145.87 63.6473 145.861 63.5065 145.894C63.3689 145.946 63.2446 146.029 63.1432 146.138C63.0417 146.247 62.9657 146.378 62.921 146.522C62.7322 147.107 62.8979 147.759 62.9672 148.36C63.1521 149.553 63.3524 150.69 63.5566 151.712C63.9418 153.748 64.2769 155.398 64.5041 156.555C64.612 157.116 64.7006 157.557 64.7622 157.871C64.7853 158.015 64.8085 158.126 64.8239 158.217C64.8276 158.257 64.8276 158.297 64.8239 158.337C64.808 158.3 64.7964 158.261 64.7892 158.221C64.7661 158.134 64.7391 158.023 64.7045 157.883C64.6313 157.569 64.535 157.132 64.4078 156.575C64.1575 155.438 63.7992 153.791 63.3948 151.744C63.1945 150.722 62.9749 149.6 62.7785 148.387C62.7361 148.081 62.686 147.775 62.6552 147.453C62.6102 147.12 62.6365 146.78 62.7322 146.459C62.7867 146.286 62.8785 146.129 63.0006 145.999C63.1228 145.869 63.2721 145.769 63.4372 145.707C63.6155 145.66 63.8032 145.666 63.9784 145.724C64.1536 145.783 64.3092 145.891 64.4271 146.037C64.5484 146.178 64.6412 146.342 64.7001 146.52C64.759 146.699 64.7827 146.887 64.7699 147.075C64.7482 147.455 64.6137 147.819 64.3847 148.117C64.1555 148.42 63.858 148.66 63.518 148.817C63.1679 148.964 62.7892 149.024 62.4125 148.992C61.6534 148.905 60.9329 148.6 60.3325 148.113C60.0024 147.888 59.7364 147.577 59.5621 147.21C59.4513 147.014 59.4154 146.782 59.4615 146.559C59.5076 146.337 59.6323 146.14 59.8113 146.007C59.9903 145.875 60.2107 145.816 60.4296 145.842C60.6485 145.868 60.85 145.977 60.995 146.149C61.2713 146.448 61.4585 146.824 61.5343 147.23C61.7153 148.003 61.6294 148.818 61.2916 149.533C61.1333 149.883 60.8938 150.188 60.5941 150.421C60.2945 150.653 59.944 150.806 59.5736 150.865C59.2182 150.924 58.8541 150.892 58.5131 150.773C58.1721 150.654 57.8644 150.451 57.6168 150.181C57.3739 149.912 57.2366 149.559 57.2317 149.191C57.2215 149.007 57.2598 148.823 57.3426 148.66C57.4253 148.497 57.5494 148.36 57.7016 148.264C57.784 148.223 57.8734 148.2 57.9647 148.195C58.0559 148.19 58.1472 148.204 58.2332 148.236C58.3894 148.304 58.5231 148.418 58.6184 148.562C58.794 148.833 58.9182 149.135 58.9843 149.453C59.2578 150.646 59.512 151.759 59.7547 152.777L60.8332 157.585C60.9526 158.142 61.0489 158.579 61.1183 158.897C61.1452 159.037 61.1684 159.148 61.1876 159.239C61.1957 159.284 61.1957 159.33 61.1876 159.375Z" fill="#E0E0E0"/>
<path d="M66.7312 161.234C65.8552 161.597 64.9538 161.891 64.0348 162.113C63.1297 162.404 62.2054 162.627 61.2691 162.781C62.1451 162.418 63.0464 162.125 63.9655 161.902C64.8708 161.612 65.795 161.389 66.7312 161.234Z" fill="#E0E0E0"/>
<path d="M171.439 179.603C171.439 179.659 134.68 179.707 89.3423 179.707C44.0048 179.707 7.23785 179.659 7.23785 179.603C7.23785 179.548 43.9894 179.5 89.3423 179.5C134.695 179.5 171.439 179.544 171.439 179.603Z" fill="#263238"/>
<path d="M164.655 19.6406H14.1011V29.5978H164.655V19.6406Z" fill="#E0E0E0"/>
<path d="M164.628 38.7461H14.0738V125.911H164.628V38.7461Z" fill="white"/>
<path d="M14.1011 29.5228H34.7746L36.82 23.3672H70.332L72.3774 29.5228H164.655V38.9552H14.1011V29.5228Z" fill="#EBEBEB"/>
<path d="M19.0692 23.6144C19.0692 23.8456 19.0028 24.0717 18.8784 24.2639C18.7539 24.4562 18.577 24.606 18.3701 24.6945C18.1632 24.783 17.9355 24.8062 17.7158 24.7611C17.4961 24.7159 17.2943 24.6046 17.136 24.4411C16.9776 24.2776 16.8697 24.0693 16.826 23.8425C16.7823 23.6157 16.8048 23.3806 16.8905 23.167C16.9762 22.9534 17.1213 22.7708 17.3076 22.6423C17.4938 22.5139 17.7128 22.4453 17.9367 22.4453C18.0856 22.4448 18.2331 22.4747 18.3707 22.5332C18.5083 22.5918 18.6334 22.6779 18.7387 22.7866C18.8439 22.8952 18.9273 23.0243 18.984 23.1664C19.0408 23.3085 19.0697 23.4607 19.0692 23.6144Z" fill="#263238"/>
<path d="M22.5731 23.6144C22.5731 23.8456 22.5067 24.0717 22.3823 24.2639C22.2578 24.4562 22.081 24.606 21.874 24.6945C21.6671 24.783 21.4394 24.8062 21.2197 24.7611C21 24.7159 20.7982 24.6046 20.6399 24.4411C20.4815 24.2776 20.3736 24.0693 20.3299 23.8425C20.2862 23.6157 20.3087 23.3806 20.3944 23.167C20.4801 22.9534 20.6252 22.7708 20.8115 22.6423C20.9977 22.5139 21.2167 22.4453 21.4406 22.4453C21.5895 22.4448 21.737 22.4747 21.8746 22.5332C22.0123 22.5918 22.1373 22.6779 22.2426 22.7866C22.3478 22.8952 22.4312 23.0243 22.488 23.1664C22.5447 23.3085 22.5736 23.4607 22.5731 23.6144Z" fill="#263238"/>
<path d="M26.0731 23.6144C26.0731 23.8456 26.0067 24.0717 25.8823 24.2639C25.7578 24.4562 25.581 24.606 25.374 24.6945C25.1671 24.783 24.9394 24.8062 24.7197 24.7611C24.5 24.7159 24.2982 24.6046 24.1399 24.4411C23.9815 24.2776 23.8736 24.0693 23.8299 23.8425C23.7862 23.6157 23.8087 23.3806 23.8944 23.167C23.9801 22.9534 24.1252 22.7708 24.3115 22.6423C24.4977 22.5139 24.7167 22.4453 24.9406 22.4453C25.0895 22.4448 25.237 22.4747 25.3746 22.5332C25.5122 22.5918 25.6373 22.6779 25.7426 22.7866C25.8478 22.8952 25.9312 23.0243 25.9879 23.1664C26.0447 23.3085 26.0736 23.4607 26.0731 23.6144Z" fill="#263238"/>
<path d="M148.015 37.0811H44.7248C43.9647 37.0811 43.2358 36.7694 42.6983 36.2146C42.1609 35.6598 41.8589 34.9072 41.8589 34.1226C41.8589 33.3379 42.1609 32.5854 42.6983 32.0306C43.2358 31.4758 43.9647 31.1641 44.7248 31.1641H148.015C148.775 31.1641 149.504 31.4758 150.042 32.0306C150.579 32.5854 150.881 33.3379 150.881 34.1226C150.881 34.9072 150.579 35.6598 150.042 36.2146C149.504 36.7694 148.775 37.0811 148.015 37.0811Z" fill="#FAFAFA"/>
<path d="M47.1939 34.5132V35.5152H46.7047V34.5927C46.7047 34.3104 46.5776 34.195 46.3619 34.195C46.1462 34.195 45.9536 34.3461 45.9536 34.6643V35.5311H45.4644V33.1055H45.9536V33.9485C46.1008 33.8103 46.294 33.7362 46.4929 33.7417C46.5907 33.735 46.6887 33.7507 46.7799 33.7878C46.8711 33.8249 46.9532 33.8824 47.0202 33.9562C47.0873 34.03 47.1377 34.1182 47.1677 34.2145C47.1977 34.3108 47.2067 34.4128 47.1939 34.5132Z" fill="#E0E0E0"/>
<path d="M48.7316 35.4309C48.6167 35.5067 48.4826 35.5454 48.3464 35.5422C48.2627 35.5541 48.1775 35.5462 48.0973 35.5192C48.017 35.4921 47.9437 35.4467 47.8829 35.3862C47.8221 35.3257 47.7754 35.2518 47.7462 35.17C47.7171 35.0882 47.7063 35.0006 47.7146 34.9139V34.1981H47.4527V33.8005H47.7146V33.375H48.2038V33.8005H48.6237V34.1981H48.2038V34.9139C48.1997 34.9442 48.2022 34.975 48.2111 35.0041C48.2201 35.0333 48.2354 35.0599 48.2558 35.0821C48.2761 35.1043 48.3011 35.1214 48.3288 35.1322C48.3565 35.143 48.3862 35.1473 48.4157 35.1446C48.4867 35.1454 48.5559 35.1216 48.6121 35.077L48.7316 35.4309Z" fill="#E0E0E0"/>
<path d="M50.048 35.4309C49.9328 35.5058 49.7989 35.5445 49.6628 35.5422C49.5791 35.5541 49.494 35.5462 49.4137 35.5192C49.3334 35.4921 49.2601 35.4467 49.1993 35.3862C49.1385 35.3257 49.0918 35.2518 49.0626 35.17C49.0335 35.0882 49.0227 35.0006 49.031 34.9139V34.1981H48.7691V33.8005H49.031V33.375H49.5202V33.8005H49.944V34.1981H49.5202V34.9139C49.5168 34.944 49.5198 34.9746 49.5291 35.0034C49.5383 35.0321 49.5536 35.0585 49.5738 35.0805C49.594 35.1025 49.6187 35.1196 49.646 35.1307C49.6734 35.1418 49.7028 35.1465 49.7321 35.1446C49.8043 35.1454 49.8747 35.1217 49.9324 35.077L50.048 35.4309Z" fill="#E0E0E0"/>
<path d="M52.1807 34.6424C52.1877 34.7599 52.1709 34.8777 52.1313 34.9881C52.0918 35.0986 52.0303 35.1993 51.9509 35.2839C51.8716 35.3685 51.776 35.435 51.6703 35.4793C51.5646 35.5236 51.4511 35.5446 51.3371 35.5411C51.2426 35.5457 51.1483 35.5292 51.0606 35.4929C50.9729 35.4565 50.8938 35.4011 50.8286 35.3303V36.1256H50.3394V33.7397H50.8171V33.9425C50.8836 33.8662 50.966 33.8062 51.0579 33.7669C51.1499 33.7277 51.2493 33.7103 51.3486 33.7159C51.4641 33.7137 51.5788 33.7367 51.6851 33.7834C51.7914 33.8301 51.887 33.8994 51.9655 33.9869C52.0441 34.0744 52.1038 34.178 52.1409 34.2909C52.178 34.4039 52.1915 34.5237 52.1807 34.6424ZM51.6838 34.6424C51.6763 34.5564 51.6448 34.4745 51.5931 34.4067C51.5414 34.3389 51.4717 34.288 51.3925 34.2603C51.3133 34.2326 51.228 34.2293 51.147 34.2507C51.066 34.2721 50.9928 34.3174 50.9362 34.381C50.8797 34.4446 50.8423 34.5237 50.8285 34.6089C50.8148 34.694 50.8253 34.7814 50.8587 34.8605C50.8922 34.9396 50.9473 35.007 51.0171 35.0544C51.087 35.1018 51.1687 35.1272 51.2523 35.1275C51.3126 35.1284 51.3723 35.1161 51.4276 35.0915C51.4829 35.0669 51.5325 35.0305 51.5733 34.9847C51.614 34.9389 51.6449 34.8847 51.6639 34.8257C51.683 34.7667 51.6897 34.7043 51.6838 34.6424Z" fill="#E0E0E0"/>
<path d="M52.3882 34.056C52.3967 33.9783 52.4326 33.9065 52.4891 33.8544C52.5456 33.8023 52.6187 33.7734 52.6944 33.7734C52.7702 33.7734 52.8433 33.8023 52.8998 33.8544C52.9563 33.9065 52.9922 33.9783 53.0007 34.056C53.0055 34.1005 53.0012 34.1456 52.988 34.1882C52.9748 34.2309 52.9531 34.2702 52.9242 34.3036C52.8953 34.337 52.8599 34.3637 52.8203 34.3819C52.7807 34.4002 52.7378 34.4097 52.6944 34.4097C52.6511 34.4097 52.6082 34.4002 52.5686 34.3819C52.529 34.3637 52.4936 34.337 52.4647 34.3036C52.4358 34.2702 52.414 34.2309 52.4009 34.1882C52.3877 34.1456 52.3834 34.1005 52.3882 34.056ZM52.3882 35.2212C52.3967 35.1434 52.4326 35.0716 52.4891 35.0195C52.5456 34.9674 52.6187 34.9386 52.6944 34.9386C52.7702 34.9386 52.8433 34.9674 52.8998 35.0195C52.9563 35.0716 52.9922 35.1434 53.0007 35.2212C53.0055 35.2657 53.0012 35.3107 52.988 35.3534C52.9748 35.396 52.9531 35.4353 52.9242 35.4687C52.8953 35.5021 52.8599 35.5288 52.8203 35.5471C52.7807 35.5654 52.7378 35.5748 52.6944 35.5748C52.6511 35.5748 52.6082 35.5654 52.5686 35.5471C52.529 35.5288 52.4936 35.5021 52.4647 35.4687C52.4358 35.4353 52.414 35.396 52.4009 35.3534C52.3877 35.3107 52.3834 35.2657 52.3882 35.2212Z" fill="#E0E0E0"/>
<path d="M54.2037 32.7812H54.6428L53.6028 35.8392H53.1675L54.2037 32.7812Z" fill="#E0E0E0"/>
<path d="M55.2115 32.7812H55.6467L54.6106 35.8392H54.1714L55.2115 32.7812Z" fill="#E0E0E0"/>
<path d="M147.921 54.4198H57.928C56.5805 54.4198 55.2882 53.8672 54.3353 52.8835C53.3825 51.8999 52.8472 50.5658 52.8472 49.1747C52.8482 47.784 53.3839 46.4505 54.3365 45.4671C55.2891 44.4837 56.5808 43.9307 57.928 43.9297H147.921C149.268 43.9307 150.56 44.4837 151.513 45.4671C152.465 46.4505 153.001 47.784 153.002 49.1747C153.002 50.5658 152.467 51.8999 151.514 52.8835C150.561 53.8672 149.269 54.4198 147.921 54.4198Z" fill="#FAFAFA"/>
<path d="M147.925 54.4233C148.643 54.4074 149.35 54.2424 150.005 53.9382C150.649 53.632 151.225 53.1913 151.696 52.6437C152.166 52.0961 152.522 51.4537 152.74 50.757C152.922 50.1353 152.993 49.4843 152.948 48.8363C152.9 48.1109 152.706 47.4039 152.378 46.7606C152.011 46.0558 151.493 45.4466 150.864 44.9791C150.177 44.4678 149.375 44.1449 148.534 44.0406C148.086 44.0011 147.638 43.9878 147.189 44.0009H145.787H132.848L57.9393 44.0287C57.0398 44.0314 56.1576 44.2841 55.3855 44.7604C54.6268 45.228 54.0022 45.8956 53.5759 46.6947C53.1497 47.4937 52.937 48.3955 52.9597 49.3074C52.9825 50.2193 53.2398 51.1085 53.7053 51.8839C54.1709 52.6593 54.8279 53.2928 55.6089 53.7195C56.3803 54.1322 57.2402 54.3374 58.1088 54.316H83.2159L116.894 54.3398L139.62 54.3716H145.783H147.389C147.752 54.3716 147.936 54.3716 147.936 54.3716H147.389H145.783H139.62L116.894 54.4074L83.2159 54.4273H63.3243H58.1088C57.2076 54.4513 56.3154 54.2378 55.5164 53.807C54.4936 53.2486 53.6812 52.3528 53.2088 51.2624C52.7364 50.172 52.6312 48.9497 52.91 47.7904C53.1887 46.6311 53.8354 45.6015 54.7469 44.8657C55.6584 44.1299 56.7822 43.7302 57.9393 43.7305L132.868 43.8617H145.806H147.208C147.662 43.8503 148.116 43.8649 148.568 43.9054C149.424 44.0153 150.239 44.3478 150.937 44.8717C151.549 45.3243 152.056 45.9116 152.421 46.591C152.786 47.2705 153 48.0251 153.048 48.8005C153.089 49.4586 153.013 50.1189 152.825 50.749C152.65 51.2991 152.39 51.8161 152.054 52.28C151.532 53.0112 150.835 53.5906 150.032 53.9621C149.542 54.1842 149.023 54.3277 148.491 54.3876C148.11 54.4233 147.925 54.4233 147.925 54.4233Z" fill="#263238"/>
<path d="M59.9918 50.2953L60.1805 49.8579C60.4188 50.0265 60.7005 50.1179 60.9894 50.1204C61.3245 50.1204 61.4594 50.005 61.4594 49.85C61.4594 49.3767 60.038 49.7028 60.038 48.7644C60.038 48.3349 60.3731 47.9691 61.0703 47.9691C61.367 47.9632 61.6598 48.0401 61.9177 48.1917L61.7444 48.6371C61.5391 48.5108 61.3054 48.4423 61.0665 48.4383C60.7313 48.4383 60.6004 48.5695 60.6004 48.7286C60.6004 49.1938 62.0217 48.8717 62.0217 49.7983C62.0217 50.2198 61.6828 50.5936 60.9856 50.5936C60.6325 50.602 60.2855 50.4978 59.9918 50.2953Z" fill="#E0E0E0"/>
<path d="M64.2024 49.7364H62.781C62.8093 49.8587 62.8794 49.9663 62.9786 50.0394C63.0777 50.1125 63.199 50.1461 63.3203 50.134C63.4071 50.1368 63.4935 50.1213 63.5743 50.0885C63.6551 50.0557 63.7285 50.0062 63.7902 49.9432L64.0791 50.2692C63.9322 50.4151 63.7488 50.5157 63.5494 50.5597C63.3501 50.6037 63.1429 50.5893 62.951 50.5182C62.7592 50.4471 62.5904 50.3221 62.4637 50.1573C62.337 49.9924 62.2575 49.7943 62.234 49.5853C62.2323 49.4507 62.2573 49.3171 62.3075 49.1928C62.3576 49.0685 62.4319 48.9562 62.5257 48.8627C62.6196 48.7692 62.731 48.6965 62.853 48.6491C62.9751 48.6017 63.1053 48.5806 63.2355 48.5872C63.3654 48.5804 63.4953 48.6017 63.6167 48.6498C63.7381 48.6979 63.8485 48.7717 63.9406 48.8665C64.0328 48.9612 64.1047 49.0748 64.1518 49.2C64.1988 49.3252 64.22 49.4591 64.2139 49.5932C64.2139 49.629 64.2062 49.6887 64.2024 49.7364ZM62.7733 49.4063H63.6978C63.678 49.2947 63.6208 49.1938 63.5364 49.1211C63.4519 49.0485 63.3455 49.0087 63.2355 49.0087C63.1256 49.0087 63.0191 49.0485 62.9347 49.1211C62.8502 49.1938 62.7931 49.2947 62.7733 49.4063Z" fill="#E0E0E0"/>
<path d="M66.1854 49.4339V50.5433H65.6769V50.3008C65.6134 50.3947 65.5267 50.4694 65.4257 50.5169C65.3248 50.5645 65.2133 50.5832 65.103 50.5712C64.6638 50.5712 64.4019 50.3167 64.4019 49.9826C64.4019 49.6486 64.6369 49.4021 65.207 49.4021H65.6422C65.6422 49.1635 65.4997 49.0044 65.207 49.0044C65.0133 49.0027 64.8242 49.0654 64.6677 49.1834L64.4712 48.7857C64.7125 48.6267 64.994 48.5451 65.2802 48.5511C65.8387 48.575 66.1854 48.8493 66.1854 49.4339ZM65.6422 49.9309V49.7321H65.2571C65.0028 49.7321 64.9219 49.8276 64.9219 49.9588C64.9219 50.09 65.0375 50.1934 65.2262 50.1934C65.3138 50.2023 65.4018 50.1815 65.4769 50.1342C65.5519 50.0868 65.61 50.0155 65.6422 49.9309Z" fill="#E0E0E0"/>
<path d="M67.8503 48.5725V49.0894H67.727C67.6587 49.0836 67.5899 49.0936 67.5258 49.1186C67.4616 49.1436 67.4036 49.183 67.356 49.234C67.3085 49.2851 67.2725 49.3464 67.2507 49.4135C67.2289 49.4807 67.2219 49.552 67.2301 49.6223V50.5408H66.6832V48.6003H67.2032V48.8548C67.2816 48.7581 67.3812 48.6821 67.4938 48.633C67.6063 48.584 67.7285 48.5632 67.8503 48.5725Z" fill="#E0E0E0"/>
<path d="M68.0191 49.5716C68.0192 49.4333 68.047 49.2966 68.1008 49.17C68.1545 49.0434 68.2331 48.9297 68.3315 48.836C68.4299 48.7422 68.546 48.6705 68.6726 48.6253C68.7991 48.5802 68.9334 48.5625 69.0668 48.5735C69.2386 48.5593 69.4105 48.5987 69.5602 48.6866C69.71 48.7745 69.8306 48.9069 69.9066 49.0666L69.4828 49.3012C69.444 49.2207 69.384 49.1531 69.3098 49.106C69.2356 49.0589 69.1501 49.0342 69.063 49.0348C68.9251 49.0348 68.7928 49.0913 68.6953 49.192C68.5978 49.2927 68.543 49.4292 68.543 49.5716C68.543 49.714 68.5978 49.8505 68.6953 49.9512C68.7928 50.0519 68.9251 50.1084 69.063 50.1084C69.1503 50.1099 69.2362 50.0856 69.3106 50.0384C69.3849 49.9912 69.4447 49.9231 69.4828 49.842L69.9066 50.0806C69.8292 50.2388 69.7082 50.3697 69.5587 50.4568C69.4092 50.5439 69.238 50.5832 69.0668 50.5697C68.9334 50.5807 68.7991 50.563 68.6726 50.5178C68.546 50.4727 68.4299 50.4009 68.3315 50.3072C68.2331 50.2135 68.1545 50.0997 68.1008 49.9731C68.047 49.8465 68.0192 49.7098 68.0191 49.5716Z" fill="#E0E0E0"/>
<path d="M72.1286 49.4339V50.5434H71.5816V49.5174C71.5816 49.2033 71.443 49.0601 71.1964 49.0601C70.9499 49.0601 70.7458 49.2272 70.7458 49.585V50.5434H70.1988V47.8672H70.7458V48.8056C70.8255 48.7282 70.9193 48.6679 71.0218 48.6283C71.1243 48.5887 71.2335 48.5706 71.3428 48.575C71.4522 48.5663 71.5621 48.5829 71.6645 48.6237C71.7668 48.6645 71.8591 48.7284 71.9344 48.8108C72.0097 48.8931 72.0663 48.9918 72.0999 49.0996C72.1335 49.2075 72.1433 49.3217 72.1286 49.4339Z" fill="#E0E0E0"/>
<path d="M73.4761 50.2171C73.4761 50.1243 73.5118 50.0353 73.5754 49.9697C73.639 49.9041 73.7252 49.8672 73.8151 49.8672C73.905 49.8672 73.9912 49.9041 74.0548 49.9697C74.1184 50.0353 74.1541 50.1243 74.1541 50.2171C74.1541 50.3099 74.1184 50.3989 74.0548 50.4646C73.9912 50.5302 73.905 50.5671 73.8151 50.5671C73.7252 50.5671 73.639 50.5302 73.5754 50.4646C73.5118 50.3989 73.4761 50.3099 73.4761 50.2171Z" fill="#E0E0E0"/>
<path d="M74.3903 50.2171C74.391 50.148 74.4116 50.0807 74.4493 50.0237C74.487 49.9667 74.5402 49.9225 74.6022 49.8966C74.6642 49.8707 74.7322 49.8644 74.7977 49.8783C74.8632 49.8923 74.9233 49.9259 74.9703 49.975C75.0173 50.0241 75.0492 50.0864 75.062 50.1542C75.0747 50.222 75.0678 50.2921 75.042 50.3558C75.0163 50.4196 74.9728 50.474 74.9172 50.5122C74.8615 50.5505 74.7961 50.571 74.7293 50.571C74.6843 50.5715 74.6396 50.5627 74.598 50.5451C74.5564 50.5274 74.5187 50.5013 74.487 50.4683C74.4554 50.4352 74.4305 50.396 74.4139 50.3528C74.3973 50.3097 74.3892 50.2635 74.3903 50.2171Z" fill="#E0E0E0"/>
<path d="M75.3043 50.2171C75.3043 50.1243 75.34 50.0353 75.4035 49.9697C75.4671 49.9041 75.5533 49.8672 75.6432 49.8672C75.7331 49.8672 75.8193 49.9041 75.8829 49.9697C75.9465 50.0353 75.9822 50.1243 75.9822 50.2171C75.9822 50.2631 75.9734 50.3086 75.9564 50.351C75.9394 50.3935 75.9144 50.4321 75.8829 50.4646C75.8514 50.4971 75.8141 50.5228 75.7729 50.5404C75.7318 50.558 75.6877 50.5671 75.6432 50.5671C75.5987 50.5671 75.5546 50.558 75.5135 50.5404C75.4724 50.5228 75.435 50.4971 75.4035 50.4646C75.3721 50.4321 75.3471 50.3935 75.3301 50.351C75.313 50.3086 75.3043 50.2631 75.3043 50.2171Z" fill="#E0E0E0"/>
<path d="M42.3659 63.5409C42.3659 63.6005 38.7528 63.6443 34.2999 63.6443C29.8471 63.6443 26.2339 63.6005 26.2339 63.5409C26.2339 63.4812 29.8432 63.4375 34.2999 63.4375C38.7567 63.4375 42.3659 63.4932 42.3659 63.5409Z" fill="black"/>
<path d="M42.9977 68.3125H26.2339V85.6183H42.9977V68.3125Z" fill="#FF725E"/>
<path d="M144.861 72.3924C144.861 72.4481 124.061 72.4958 98.3914 72.4958C72.722 72.4958 51.9175 72.4481 51.9175 72.3924C51.9175 72.3368 72.7181 72.2891 98.3914 72.2891C124.065 72.2891 144.861 72.3328 144.861 72.3924Z" fill="black"/>
<path d="M77.3418 78.9042C77.3418 78.9638 71.8566 79.0076 65.0965 79.0076C58.3363 79.0076 52.8472 78.9638 52.8472 78.9042C52.8472 78.8445 58.3286 78.8008 65.0965 78.8008C71.8643 78.8008 77.3418 78.8485 77.3418 78.9042Z" fill="black"/>
<path d="M130.01 84.9472C130.01 85.0029 112.734 85.0506 91.4284 85.0506C70.1233 85.0506 52.8472 85.0029 52.8472 84.9472C52.8472 84.8915 70.1194 84.8398 91.4284 84.8398C112.737 84.8398 130.01 84.8876 130.01 84.9472Z" fill="#E0E0E0"/>
<path d="M42.3659 94.5643C42.3659 94.62 38.7528 94.6677 34.2999 94.6677C29.8471 94.6677 26.2339 94.62 26.2339 94.5643C26.2339 94.5087 29.8432 94.4609 34.2999 94.4609C38.7567 94.4609 42.3659 94.4967 42.3659 94.5643Z" fill="black"/>
<path d="M42.9977 99.3125H26.2339V116.618H42.9977V99.3125Z" fill="#FF725E"/>
<path d="M150.385 103.389C150.385 103.448 128.34 103.492 101.153 103.492C73.9661 103.492 51.9175 103.448 51.9175 103.389C51.9175 103.329 73.9584 103.285 101.153 103.285C128.348 103.285 150.385 103.333 150.385 103.389Z" fill="black"/>
<path d="M77.3418 109.9C77.3418 109.956 71.8566 110.004 65.0965 110.004C58.3363 110.004 52.8472 109.956 52.8472 109.9C52.8472 109.845 58.3286 109.797 65.0965 109.797C71.8643 109.797 77.3418 109.845 77.3418 109.9Z" fill="black"/>
<path d="M143.445 115.943C143.445 116.003 123.165 116.047 98.1501 116.047C73.1355 116.047 52.8472 116.003 52.8472 115.943C52.8472 115.884 73.1278 115.84 98.1501 115.84C123.172 115.84 143.445 115.888 143.445 115.943Z" fill="#E0E0E0"/>
<path d="M164.654 126.122C164.654 125.438 164.623 84.4482 164.573 19.6428L164.654 19.7263H14.1117L14.2118 19.6229C14.2118 57.6305 14.2118 93.7413 14.2118 126.102L14.1194 126.007L164.673 126.102L14.1194 126.194H14.0269V126.102C14.0269 93.7413 14.0269 57.6305 14.0269 19.6229V19.5195H14.1386H164.681H164.762V19.603C164.689 84.4482 164.654 125.438 164.654 126.122Z" fill="#263238"/>
<path d="M66.2626 27.3573C66.2626 27.4169 60.9469 27.4607 54.3908 27.4607C47.8348 27.4607 42.5191 27.4169 42.5191 27.3573C42.5191 27.2976 47.8348 27.2539 54.3908 27.2539C60.9469 27.2539 66.2626 27.3016 66.2626 27.3573Z" fill="black"/>
<path d="M44.8469 46.9336H23.7613V53.4909H44.8469V46.9336Z" fill="#455A64"/>
<path d="M82.1846 64.1034C82.1846 64.163 75.6363 64.2068 67.5472 64.2068C59.4581 64.2068 52.9097 64.163 52.9097 64.1034C52.9097 64.0437 59.4581 64 67.5472 64C75.6363 64 82.1846 64.0477 82.1846 64.1034Z" fill="#FF725E"/>
<path d="M82.1846 94.5643C82.1846 94.62 75.6363 94.6677 67.5472 94.6677C59.4581 94.6677 52.9097 94.62 52.9097 94.5643C52.9097 94.5087 59.4581 94.4609 67.5472 94.4609C75.6363 94.4609 82.1846 94.4967 82.1846 94.5643Z" fill="#FF725E"/>
<path d="M145.981 50.9214C145.496 50.9222 145.022 50.7744 144.618 50.4969C144.215 50.2193 143.9 49.8243 143.714 49.362C143.528 48.8997 143.479 48.3909 143.574 47.8999C143.668 47.409 143.902 46.958 144.244 46.604C144.587 46.2501 145.024 46.0091 145.5 45.9117C145.975 45.8142 146.468 45.8646 146.916 46.0566C147.364 46.2485 147.746 46.5732 148.015 46.9898C148.284 47.4063 148.427 47.8958 148.427 48.3963C148.426 49.0657 148.168 49.7074 147.709 50.1807C147.251 50.654 146.629 50.9204 145.981 50.9214ZM145.981 46.2649C145.572 46.2641 145.173 46.3885 144.833 46.6222C144.492 46.8559 144.227 47.1885 144.07 47.5779C143.914 47.9673 143.872 48.396 143.951 48.8097C144.031 49.2234 144.227 49.6036 144.515 49.9021C144.804 50.2005 145.172 50.4039 145.573 50.4865C145.973 50.5691 146.388 50.5271 146.766 50.3659C147.143 50.2047 147.466 49.9315 147.693 49.5809C147.92 49.2303 148.041 48.818 148.041 48.3963C148.041 47.8317 147.824 47.2902 147.438 46.8906C147.052 46.491 146.528 46.266 145.981 46.2649Z" fill="#FF725E"/>
<path d="M148.993 52.0426C148.941 52.0425 148.891 52.021 148.854 51.983L147.259 50.3486C147.241 50.3301 147.227 50.3081 147.217 50.2839C147.208 50.2596 147.203 50.2337 147.203 50.2075C147.203 50.1812 147.208 50.1553 147.217 50.1311C147.227 50.1068 147.241 50.0848 147.259 50.0663C147.277 50.0477 147.299 50.033 147.322 50.023C147.346 50.013 147.371 50.0078 147.396 50.0078C147.421 50.0078 147.447 50.013 147.47 50.023C147.494 50.033 147.515 50.0477 147.533 50.0663L149.128 51.7006C149.153 51.7289 149.171 51.7643 149.178 51.8026C149.185 51.8408 149.181 51.8804 149.167 51.9164C149.153 51.9525 149.129 51.9836 149.098 52.0059C149.067 52.0283 149.03 52.0411 148.993 52.0426Z" fill="#FF725E"/>
<path d="M108.552 78.4628C108.552 78.5184 102.246 78.5662 94.465 78.5662C86.6841 78.5662 80.3746 78.5184 80.3746 78.4628C80.3746 78.4071 86.6841 78.3594 94.465 78.3594C102.246 78.3594 108.552 78.4031 108.552 78.4628Z" fill="black"/>
<path d="M126.757 78.0096C126.757 78.0693 123.456 78.113 119.388 78.113C115.32 78.113 112.015 78.0693 112.015 78.0096C112.015 77.95 115.316 77.9062 119.388 77.9062C123.459 77.9062 126.757 77.954 126.757 78.0096Z" fill="black"/>
<path d="M108.415 109.9C108.415 109.956 102.109 110.004 94.3284 110.004C86.5474 110.004 80.2418 109.956 80.2418 109.9C80.2418 109.845 86.5474 109.797 94.3284 109.797C102.109 109.797 108.415 109.845 108.415 109.9Z" fill="black"/>
<path d="M32.7972 118.086C29.6694 119.756 27.2735 122.635 25.5517 125.804C23.8298 128.974 22.7166 132.445 21.6188 135.917L20.6558 153.72C24.2921 147.333 27.2042 139.826 27.9977 132.461L25.5786 132.238C27.2003 131.984 28.5639 130.771 29.4306 129.332C30.2973 127.892 30.7403 126.234 31.1755 124.599L28.2249 125.053C30.5601 123.424 32.1976 120.929 32.7972 118.086Z" fill="#455A64"/>
<g opacity="0.3">
<path d="M32.7937 118.085C29.6659 119.755 27.27 122.634 25.5482 125.803C23.8264 128.973 22.7131 132.444 21.6153 135.916L20.6523 153.719C24.2886 147.332 27.2007 139.825 27.9942 132.46L25.5751 132.237C27.1968 131.983 28.5604 130.77 29.4271 129.331C30.2938 127.891 30.7368 126.233 31.172 124.599L28.2214 125.052C30.5566 123.423 32.1941 120.928 32.7937 118.085Z" fill="black"/>
</g>
<path d="M20.1163 157.866C20.1163 157.866 12.2236 148.115 12.3161 138.806H15.5017C15.5017 138.806 12.0349 136.452 12.3122 135.136C12.5896 133.82 12.6974 128.837 12.6974 128.837L15.6134 129.589C15.6134 129.589 13.4255 128.459 13.152 126.674C12.8785 124.888 13.7914 116.609 13.7914 116.609C13.7914 116.609 17.3429 120.467 18.4369 124.415C19.5308 128.364 22.3813 132.973 21.5415 145.01C20.7018 157.047 20.1163 157.866 20.1163 157.866Z" fill="#455A64"/>
<path d="M24.1159 158.788C24.1159 158.788 32.6673 152.907 34.5663 145.403L32.0009 144.664C32.0009 144.664 35.2866 143.558 35.3444 142.437C35.4022 141.316 36.3844 137.287 36.3844 137.287L33.8807 137.236C33.8807 137.236 35.8798 136.838 36.4769 135.446C37.0739 134.054 38.0985 127.215 38.0985 127.215C38.0985 127.215 34.4238 129.509 32.7058 132.44C30.9878 135.371 27.6983 138.425 25.8301 148.294C23.9619 158.164 24.1159 158.788 24.1159 158.788Z" fill="#455A64"/>
<path d="M15.9254 125.113C15.939 125.145 15.9493 125.179 15.9562 125.213L16.0255 125.511C16.0871 125.793 16.1719 126.179 16.2836 126.668C16.5031 127.674 16.7959 129.134 17.1272 130.943C17.8013 134.558 18.5986 139.584 19.2265 145.167C19.8544 150.75 20.1856 155.832 20.3281 159.514C20.4013 161.355 20.4398 162.843 20.4476 163.888C20.4476 164.393 20.4476 164.787 20.4476 165.081C20.4476 165.209 20.4476 165.308 20.4476 165.391C20.4533 165.426 20.4533 165.461 20.4476 165.495C20.4422 165.461 20.4422 165.426 20.4476 165.391C20.4476 165.312 20.4476 165.209 20.4476 165.085C20.4476 164.795 20.4244 164.401 20.4052 163.892C20.3744 162.862 20.3127 161.375 20.2203 159.538C20.0431 155.86 19.6849 150.79 19.0647 145.223C18.4445 139.655 17.6664 134.621 17.027 130.999C16.7112 129.189 16.4415 127.726 16.2566 126.716C16.1642 126.223 16.091 125.833 16.0371 125.555C16.0178 125.427 15.9985 125.328 15.987 125.248C15.957 125.209 15.936 125.162 15.9254 125.113Z" fill="#263238"/>
<path d="M19.0214 163.84C19.0214 163.84 11.799 155.401 9.55327 150.264L11.2481 149.52C10.0194 149.727 8.76362 149.182 7.81219 148.355C6.8982 147.481 6.1119 146.475 5.4779 145.369L7.70818 144.971C5.66015 144.37 3.9143 142.979 2.8316 141.086C5.46634 141.531 7.83915 143.023 9.8075 144.887C11.3695 146.434 12.7881 148.127 14.0447 149.946C14.6731 150.82 15.2224 151.751 15.6856 152.729C16.8912 155.322 19.0252 160.734 19.0214 163.84Z" fill="#455A64"/>
<path d="M34.6808 132.152C34.6749 132.183 34.6645 132.212 34.65 132.24L34.5421 132.486L34.1069 133.429C33.7217 134.224 33.1785 135.417 32.516 136.892C31.1909 139.823 29.4344 143.919 27.7165 148.524C25.9985 153.128 24.6349 157.371 23.6873 160.453C23.2212 162 22.8553 163.237 22.6088 164.124L22.3122 165.13L22.2313 165.388C22.2313 165.444 22.2004 165.476 22.1966 165.472C22.1927 165.468 22.1966 165.44 22.1966 165.38L22.2582 165.118L22.5125 164.108C22.7359 163.233 23.0825 161.972 23.5332 160.421C24.4307 157.316 25.7828 153.061 27.5084 148.448C29.2341 143.835 31.0099 139.747 32.3696 136.829C33.0476 135.369 33.6138 134.196 34.0183 133.393L34.4882 132.466L34.6153 132.232C34.6341 132.203 34.656 132.176 34.6808 132.152Z" fill="#263238"/>
<path d="M19.6321 167.467C19.576 167.269 19.5373 167.067 19.5165 166.862C19.4587 166.464 19.3624 165.912 19.2276 165.22C18.8734 163.421 18.3827 161.654 17.76 159.935C17.1275 158.218 16.3637 156.556 15.4758 154.964C15.133 154.356 14.8479 153.867 14.6399 153.537C14.5264 153.368 14.4272 153.19 14.3433 153.004C14.4779 153.154 14.5991 153.316 14.7054 153.489C14.9327 153.811 15.2408 154.284 15.5991 154.893C16.5277 156.471 17.3142 158.133 17.9488 159.859C18.5784 161.588 19.0529 163.373 19.3663 165.192C19.4818 165.892 19.5589 166.456 19.5935 166.854C19.6229 167.057 19.6358 167.262 19.6321 167.467Z" fill="#263238"/>
<path d="M29.1596 165.473H13.3511V168.801H29.1596V165.473Z" fill="#FF725E"/>
<path d="M14.8629 168.809L16.5731 180.003H26.126L27.7207 168.809H14.8629Z" fill="#FF725E"/>
<path d="M28.1902 168.807C28.1902 168.862 25.2011 168.91 21.511 168.91C17.8208 168.91 14.8355 168.862 14.8355 168.807C14.8355 168.751 17.8246 168.703 21.511 168.703C25.1973 168.703 28.1902 168.747 28.1902 168.807Z" fill="#263238"/>
<path d="M97.0386 171.739V179.994L113.171 179.914C113.055 178.24 104.199 174.9 104.199 174.9L104.377 171.719L97.0386 171.739Z" fill="#455A64"/>
<g opacity="0.6">
<path d="M99.654 174.149C99.4969 174.208 99.3659 174.324 99.2852 174.476C99.2045 174.627 99.1795 174.803 99.2148 174.972C99.2517 175.138 99.3503 175.282 99.4894 175.374C99.6285 175.465 99.797 175.497 99.9583 175.461C100.125 175.396 100.263 175.272 100.348 175.111C100.433 174.949 100.459 174.762 100.421 174.582C100.392 174.5 100.348 174.424 100.291 174.36C100.234 174.295 100.166 174.243 100.089 174.206C100.012 174.169 99.9291 174.148 99.8445 174.144C99.76 174.141 99.6756 174.154 99.5962 174.185" fill="white"/>
</g>
<path d="M97.0386 179.992V178.676L112.446 178.863C112.446 178.863 113.248 179.36 113.174 179.912L97.0386 179.992Z" fill="#263238"/>
<path d="M104.207 175.061C104.207 175.148 103.822 175.192 103.437 175.459C103.051 175.725 102.855 176.103 102.782 176.071C102.709 176.039 102.82 175.538 103.286 175.208C103.753 174.878 104.222 174.981 104.207 175.061Z" fill="#263238"/>
<path d="M106.323 175.821C106.323 175.905 106.003 176.056 105.741 176.422C105.479 176.787 105.41 177.173 105.333 177.169C105.256 177.165 105.198 176.684 105.529 176.235C105.86 175.785 106.319 175.742 106.323 175.821Z" fill="#263238"/>
<path d="M107.274 177.924C107.201 177.944 107.085 177.526 107.274 177.045C107.463 176.564 107.833 176.381 107.867 176.452C107.902 176.524 107.679 176.779 107.524 177.168C107.37 177.558 107.351 177.916 107.274 177.924Z" fill="#263238"/>
<path d="M104.048 172.706C104.017 172.786 103.663 172.674 103.212 172.706C102.762 172.738 102.442 172.905 102.388 172.829C102.334 172.754 102.673 172.432 103.193 172.408C103.713 172.384 104.087 172.638 104.048 172.706Z" fill="#263238"/>
<path d="M104.145 175.429C104.188 175.264 104.2 175.093 104.18 174.924C104.144 174.46 103.997 174.013 103.752 173.624C103.584 173.356 103.37 173.123 103.12 172.936C103.047 172.87 102.957 172.827 102.862 172.809C102.766 172.792 102.668 172.801 102.577 172.836C102.483 172.891 102.404 172.969 102.347 173.065C102.291 173.16 102.26 173.269 102.257 173.381C102.282 173.812 102.43 174.225 102.682 174.569C102.935 174.913 103.28 175.172 103.675 175.314C104.061 175.44 104.476 175.444 104.864 175.325C105.253 175.206 105.598 174.969 105.855 174.645C105.981 174.496 106.079 174.323 106.144 174.136C106.177 174.029 106.177 173.914 106.144 173.806C106.126 173.753 106.097 173.704 106.059 173.663C106.021 173.621 105.975 173.589 105.924 173.568C105.757 173.517 105.578 173.535 105.424 173.62C105.29 173.682 105.161 173.755 105.038 173.838C104.676 174.089 104.364 174.409 104.118 174.781C104.017 174.912 103.942 175.062 103.894 175.222C104.229 174.738 104.645 174.32 105.123 173.989C105.339 173.862 105.624 173.679 105.851 173.763C105.951 173.802 105.99 173.926 105.944 174.069C105.885 174.224 105.799 174.367 105.689 174.49C105.456 174.776 105.147 174.984 104.799 175.089C104.451 175.193 104.082 175.188 103.737 175.075C103.392 174.949 103.088 174.724 102.863 174.427C102.637 174.13 102.498 173.773 102.462 173.397C102.459 173.325 102.475 173.254 102.508 173.191C102.541 173.128 102.59 173.075 102.65 173.039C102.712 173.019 102.777 173.015 102.84 173.027C102.903 173.04 102.963 173.068 103.012 173.111C103.245 173.277 103.448 173.486 103.609 173.727C103.852 174.083 104.014 174.491 104.083 174.92C104.133 175.25 104.126 175.429 104.145 175.429Z" fill="#263238"/>
<path d="M91.1509 172.928L91.4244 175.056L91.2433 179.848L85.1958 179.999L84.98 175.056L85.6657 172.117L91.1509 172.928Z" fill="#455A64"/>
<path d="M88.2547 179.487C88.2162 179.487 88.3048 178.024 88.4473 176.214C88.5898 174.405 88.74 172.934 88.7747 172.93C88.8094 172.926 88.7246 174.397 88.5821 176.206C88.4396 178.016 88.2894 179.487 88.2547 179.487Z" fill="#263238"/>
<path d="M91.265 179.051L85.1558 179.126V180.001L91.2689 179.997L91.265 179.051Z" fill="#263238"/>
<path d="M85.1754 176.295C85.1754 176.295 85.2177 176.195 85.3294 176.044C85.4896 175.828 85.6702 175.628 85.8687 175.448C86.1603 175.175 86.4886 174.948 86.8433 174.772C87.4635 174.459 88.1649 174.359 88.8439 174.489C89.5229 174.619 90.1436 174.97 90.6143 175.492C90.7922 175.696 90.9413 175.925 91.0573 176.172C91.1064 176.259 91.1391 176.354 91.1536 176.454C90.9657 176.147 90.7544 175.856 90.5219 175.583C89.917 174.968 89.1023 174.622 88.2531 174.621C87.4019 174.647 86.5855 174.976 85.9419 175.551C85.445 175.977 85.1985 176.319 85.1754 176.295Z" fill="#263238"/>
<path d="M88.2255 39.1836L88.1793 60.7602L97.1505 61.2016L97.4124 55.9526C97.4124 55.9526 100.598 56.6047 101.418 53.5667C101.946 51.6142 101.804 36.5312 101.804 36.5312L88.2255 39.1836Z" fill="#B78876"/>
<path d="M102.979 38.0408C101.565 38.4584 101.257 40.8244 101.257 40.8244L99.0421 45.8786C97.9135 44.9679 96.3958 45.0196 96.1108 47.0715C95.9028 48.5508 97.6862 48.849 97.6862 48.849C96.6462 50.6743 95.9452 52.1495 94.4313 53.8833C92.8058 55.7722 91.8813 55.9591 90.1094 55.9829H88.1526C88.1526 55.9829 87.1935 52.7739 85.4216 44.7532C83.4571 35.8538 93.6494 36.999 95.5407 34.7284C98.6184 31.0342 107.443 36.7246 102.979 38.0408Z" fill="#263238"/>
<path d="M105.462 36.1023C105.384 35.6277 105.145 35.1974 104.786 34.889C104.428 34.5806 103.975 34.4144 103.509 34.4202C103.655 34.1666 103.709 33.868 103.663 33.5771C103.616 33.2861 103.472 33.0214 103.255 32.8296C103.03 32.6469 102.769 32.5168 102.49 32.4482C102.212 32.3795 101.922 32.374 101.641 32.4319C101.079 32.5493 100.537 32.7502 100.031 33.0284C99.8418 32.4517 99.4769 31.9536 98.9909 31.6088C98.4677 31.2923 97.867 31.139 97.2613 31.1674C94.5072 31.1674 93.0588 33.1119 91.5797 35.0962C91.3639 35.4659 91.0551 35.7682 90.686 35.971C90.4175 36.0525 90.1372 36.0848 89.8579 36.0665C88.8056 36.1009 87.7807 36.4212 86.8867 36.9951C85.9926 37.569 85.261 38.3762 84.7656 39.3352C83.8026 41.2558 83.0823 45.6976 85.5783 48.4812L87.0806 51.9447L101.46 40.1822C101.564 40.2378 102.465 40.6912 103.159 40.3174C104.88 39.3789 104.156 37.8201 104.156 37.8201C104.295 37.7207 105.609 37.0566 105.462 36.1023Z" fill="#263238"/>
<path d="M92.1585 47.6797C92.2786 48.2212 92.2614 48.7854 92.1085 49.318C92.0275 49.8678 91.8084 50.3861 91.4729 50.8211C91.4113 50.7893 91.7001 50.1292 91.885 49.2663C92.0699 48.4034 92.0931 47.6797 92.1585 47.6797Z" fill="#455A64"/>
<path d="M93.2378 46.6133C93.313 47.144 93.2842 47.6849 93.1531 48.2039C93.0957 48.733 92.9345 49.2444 92.6793 49.707C92.7171 49.1846 92.8009 48.6669 92.9296 48.1601C92.9848 47.6356 93.088 47.1177 93.2378 46.6133Z" fill="#455A64"/>
<path d="M96.3437 43.0547C96.3668 43.0865 96.1126 43.2774 95.789 43.6671C95.3766 44.1833 95.0499 44.7664 94.8222 45.3929C94.6012 46.0264 94.4223 46.6748 94.2868 47.3334C94.2488 47.608 94.1736 47.8758 94.0633 48.1287C94.0471 47.8446 94.0691 47.5596 94.1288 47.2817C94.2201 46.6031 94.3815 45.9366 94.6103 45.2935C94.8448 44.6412 95.2066 44.0456 95.6735 43.5438C95.8561 43.3282 96.0859 43.1605 96.3437 43.0547Z" fill="#455A64"/>
<path d="M97.6012 40.6289C97.6282 40.6289 97.7207 40.8357 97.7784 41.2095C97.8434 41.702 97.816 42.2029 97.6975 42.6848C97.5848 43.1675 97.3791 43.6219 97.0928 44.0209C96.8732 44.3271 96.7076 44.4742 96.6729 44.4543C96.6383 44.4344 97.2238 43.7107 97.478 42.6291C97.7322 41.5475 97.5319 40.6369 97.6012 40.6289Z" fill="#455A64"/>
<path d="M86.8968 46.0205C86.866 46.0802 86.5925 45.9807 86.2843 45.8018C85.9762 45.6229 85.7489 45.436 85.7797 45.3763C85.8105 45.3167 86.084 45.4201 86.3922 45.599C86.7003 45.7779 86.9276 45.9648 86.8968 46.0205Z" fill="#455A64"/>
<path d="M91.232 43.7153C91.2671 44.0502 91.1761 44.3862 90.9778 44.6538C90.7004 45.127 90.3268 45.3735 90.2883 45.3258C90.2498 45.2781 90.531 44.9679 90.7813 44.5305C91.0317 44.0931 91.1665 43.6994 91.232 43.7153Z" fill="#455A64"/>
<path d="M92.5627 42.9766C92.5581 43.3841 92.4226 43.7785 92.1775 44.0979C91.8193 44.6626 91.3686 44.9648 91.334 44.8932C91.2993 44.8217 91.6537 44.4956 91.9888 43.9508C92.1617 43.6148 92.3533 43.2895 92.5627 42.9766Z" fill="#455A64"/>
<path d="M99.1864 33.9312C99.1864 33.9312 99.0169 33.8 98.6933 33.6091C98.2301 33.3556 97.7152 33.2193 97.191 33.2115C96.4139 33.1902 95.6473 33.4015 94.9839 33.8199C94.187 34.3603 93.5404 35.1059 93.108 35.9831C92.7769 36.6251 92.5184 37.3042 92.3376 38.0072L92.2991 38.1424L92.1797 38.0748C91.5619 37.7411 90.8775 37.56 90.1805 37.5459C89.6272 37.5329 89.0759 37.619 88.5511 37.8004C88.084 37.9792 87.6372 38.2099 87.2183 38.4883C87.3047 38.382 87.406 38.2895 87.5188 38.214C87.8216 37.9863 88.1534 37.8029 88.5049 37.6692C89.0399 37.4588 89.608 37.3523 90.1805 37.355C90.9117 37.3531 91.6328 37.5318 92.2837 37.876L92.1257 37.9475C92.3037 37.2271 92.5623 36.5305 92.8961 35.8718C93.347 34.9586 94.0267 34.1869 94.8645 33.637C95.5613 33.2084 96.3655 33.0022 97.1756 33.0445C97.7213 33.0686 98.2519 33.237 98.7164 33.5336C98.8403 33.6145 98.9553 33.7092 99.0592 33.8159C99.1555 33.8875 99.1902 33.9273 99.1864 33.9312Z" fill="#455A64"/>
<path d="M103.907 35.1128C103.888 35.1128 104.153 35.0412 104.419 35.3514C104.496 35.444 104.554 35.5515 104.59 35.6676C104.625 35.7837 104.638 35.9061 104.627 36.0274C104.604 36.1891 104.544 36.343 104.453 36.4769C104.362 36.6108 104.243 36.721 104.103 36.7988C103.773 36.9925 103.382 37.048 103.013 36.9539C102.607 36.8436 102.226 36.6517 101.892 36.3893C101.542 36.1005 101.174 35.8348 100.791 35.594C100.376 35.3626 99.929 35.2002 99.4655 35.1128C98.5653 34.9454 97.6389 35.011 96.7692 35.3037C96.055 35.5466 95.3808 35.9006 94.77 36.3535C93.7223 37.1289 93.2061 37.781 93.1714 37.7452C93.2751 37.5803 93.3951 37.4271 93.5297 37.288C93.8824 36.8956 94.2692 36.5376 94.6853 36.2183C95.2994 35.7346 95.9848 35.356 96.7153 35.0969C97.6198 34.7803 98.5874 34.7064 99.5272 34.8822C100.014 34.9746 100.483 35.1464 100.918 35.3911C101.305 35.6311 101.677 35.8967 102.031 36.1865C102.341 36.438 102.695 36.6245 103.075 36.7352C103.4 36.8275 103.747 36.7891 104.046 36.6278C104.166 36.5642 104.272 36.4732 104.354 36.3617C104.436 36.2501 104.492 36.1209 104.519 35.9836C104.547 35.7709 104.493 35.5555 104.369 35.3832C104.251 35.2393 104.087 35.1435 103.907 35.1128Z" fill="#455A64"/>
<path d="M145.699 51.6698C145.36 51.3596 140.791 53.3359 140.791 53.3359C140.791 53.3359 137.382 56.1195 135.98 57.73L135.114 58.4736L122.148 68.8801L106.201 62.0326L102.734 71.2144C102.734 71.2144 120.638 78.5749 123.365 77.3143C126.327 75.9464 137.363 64.0208 137.39 63.9811L138.985 62.3905C138.985 62.3905 139.828 62.3905 140.468 62.3348C141.107 62.2791 142.979 61.0106 142.979 61.0106C143.157 60.6577 143.279 60.2778 143.341 59.8852C143.38 59.7289 143.368 59.5635 143.305 59.4157C143.242 59.2678 143.133 59.1461 142.995 59.0701C143.06 58.7644 143.07 58.4491 143.025 58.1395C142.952 57.6146 142.255 57.0062 142.255 57.0062C142.472 56.7776 142.621 56.489 142.683 56.1752C142.837 55.5667 142.078 54.9822 142.078 54.9822C142.078 54.9822 144.732 53.1212 145.375 52.7911C146.018 52.4611 146.038 51.9799 145.699 51.6698Z" fill="#B78876"/>
<path d="M108.55 145.733C108.604 145.129 108.631 144.663 108.631 144.373L110.434 114.696C110.434 114.696 108.92 106.027 108.204 103.729L101.767 101.156L93.1886 104.604C93.1347 103.892 93.1 103.451 93.1 103.451L80.4771 107.96C80.4771 107.96 80.1497 116.856 80.4771 119.564C80.585 120.434 80.9124 122.681 81.313 125.33C81.313 125.33 81.7213 131.084 81.806 131.406C82.1104 132.579 82.1912 135.454 82.1912 138.333C82.1912 141.991 82.3838 146.345 82.6073 148.413C82.8307 150.481 82.9347 173.243 82.9347 173.243H92.2564L93.4544 136.993C93.6547 133.108 93.9551 127.167 94.1477 122.868L96.3356 136.253C96.3356 136.742 97.6684 144.397 97.6684 144.397C97.3607 146.806 97.1704 149.229 97.0983 151.658C96.9442 158.418 96.1777 173.243 96.1777 173.243H105.299C105.299 173.243 108.042 151.817 108.573 145.733H108.55Z" fill="#263238"/>
<path d="M110.138 112.913C109.838 112.797 109.555 112.64 109.294 112.448C108.647 112.02 108.043 111.525 107.491 110.973C106.94 110.421 106.442 109.815 106.005 109.164C105.808 108.904 105.648 108.616 105.531 108.309C105.742 108.551 105.938 108.807 106.116 109.076C106.581 109.696 107.087 110.282 107.63 110.83C108.174 111.371 108.754 111.872 109.367 112.329C109.637 112.504 109.895 112.7 110.138 112.913Z" fill="#455A64"/>
<path d="M93.8524 118.308C93.7793 118.219 93.7195 118.12 93.6752 118.013C93.532 117.734 93.4034 117.448 93.29 117.154C92.8999 116.189 92.6143 115.182 92.4387 114.152C92.2673 113.122 92.2053 112.075 92.2538 111.031C92.2769 110.633 92.3077 110.311 92.3424 110.088C92.3492 109.971 92.3739 109.855 92.4156 109.746C92.4464 109.746 92.4156 110.243 92.3963 111.034C92.3848 112.067 92.4647 113.099 92.6352 114.116C92.8053 115.133 93.0631 116.133 93.4056 117.103C93.679 117.846 93.8794 118.292 93.8524 118.308Z" fill="#455A64"/>
<path d="M95.2033 129.485C95.1464 129.317 95.1064 129.144 95.0839 128.968C95.0171 128.591 94.9324 128.118 94.8297 127.548C94.6294 126.303 94.3597 124.665 94.0593 122.852C93.5431 119.524 93.1926 117.257 93.0308 116.203C93.2402 116.826 93.3873 117.47 93.4699 118.124C93.6934 119.317 93.9707 120.983 94.2634 122.816C94.5562 124.649 94.7989 126.319 94.9684 127.524C95.0415 128.097 95.107 128.574 95.1571 128.956C95.1915 129.13 95.207 129.307 95.2033 129.485Z" fill="#455A64"/>
<path d="M73.209 79.9844C73.209 79.9844 71.9802 88.9276 71.7491 92.0611C71.6104 93.9499 73.4671 96.4352 74.8846 96.6381C76.3021 96.8409 81.0785 97.1152 81.0785 97.1152L81.4637 91.5044L81.3405 90.387L79.8575 90.1006L80.3043 81.2012L73.209 79.9844Z" fill="#B78876"/>
<path d="M80.1184 81.5C80.1566 81.6587 80.176 81.8216 80.1762 81.9851C80.1993 82.2993 80.2147 82.7526 80.2263 83.3173C80.2532 84.4387 80.2263 85.9935 80.1338 87.6914C80.0414 89.3894 79.9066 90.9522 79.8026 92.0656C79.7448 92.6223 79.6986 93.0757 79.66 93.3858C79.6514 93.5489 79.6242 93.7104 79.5791 93.867C79.5616 93.7045 79.5616 93.5404 79.5791 93.3779C79.5984 93.02 79.6254 92.5826 79.6562 92.0497C79.7294 90.8846 79.8218 89.3616 79.9258 87.6755C80.0298 85.9895 80.0683 84.4227 80.0799 83.3014C80.0799 82.7765 80.0799 82.3311 80.0799 81.9732C80.0767 81.8145 80.0896 81.6559 80.1184 81.5Z" fill="#AA6550"/>
<g opacity="0.3">
<path d="M80.5888 108.125C83.0155 109.055 85.6734 109.131 88.2504 108.9C90.8273 108.669 93.3773 108.133 95.9543 107.882C99.8597 107.505 103.798 107.774 107.622 108.677C107.889 108.761 108.169 108.788 108.446 108.757C108.584 108.739 108.713 108.678 108.817 108.583C108.92 108.488 108.994 108.363 109.028 108.224C109.097 107.779 108.623 107.468 108.223 107.297C103.814 105.415 99.0742 104.5 94.3044 104.609C89.5346 104.719 84.839 105.851 80.5156 107.934" fill="black"/>
</g>
<path d="M117.743 66.1022L104.061 59.0717C101.904 58.8104 99.7305 58.712 97.559 58.7774H88.5031C88.5031 58.7774 77.5327 62.1177 75.7184 65.1995L71.0152 79.7536L80.3138 81.201L81.4694 91.6593C81.4694 91.6593 80.3138 103.768 80.3138 105.525C80.2886 106.339 80.3363 107.154 80.4563 107.959C80.4563 107.959 99.0613 105.04 103.641 106.579C108.221 108.118 109.458 107.959 109.458 107.959C109.458 107.959 109.073 102.933 108.737 100.006L107.682 85.4122L106.912 74.2779L115.521 76.9978L117.743 66.1022Z" fill="#FF725E"/>
<path d="M80.2279 81.3143C80.1932 81.3143 80.1008 80.7138 79.8966 79.7435C79.6247 78.4815 79.2642 77.2415 78.8181 76.0334C78.3625 74.8162 77.8298 73.6313 77.2234 72.4864L76.661 71.4445C76.5814 71.3211 76.5179 71.1874 76.4722 71.0469C76.5728 71.1537 76.6607 71.2725 76.7342 71.4008C76.8921 71.6354 77.1194 71.9814 77.3543 72.4188C78.0046 73.5493 78.5613 74.7346 79.0184 75.9619C79.469 77.1786 79.8119 78.435 80.043 79.7157C80.1277 80.2048 80.1817 80.6025 80.2086 80.8808C80.2324 81.0239 80.2388 81.1695 80.2279 81.3143Z" fill="#263238"/>
<path d="M97.7751 85.4492C97.7679 85.5164 97.751 85.582 97.725 85.6441L97.5517 86.1809C97.4747 86.4155 97.3784 86.6978 97.2513 87.0239C97.1241 87.35 96.9893 87.7238 96.8121 88.1214C96.477 88.9167 96.0417 89.8791 95.4948 90.905C94.9478 91.931 94.3007 93.0205 93.5688 94.126C92.8369 95.2315 92.028 96.2296 91.3 97.1124C90.572 97.9952 89.8439 98.7388 89.2199 99.3432C88.9156 99.6534 88.619 99.9118 88.3686 100.138C88.1183 100.365 87.891 100.568 87.7061 100.723L87.2747 101.073C87.2261 101.117 87.1732 101.156 87.1168 101.188C87.1168 101.188 87.1591 101.133 87.2516 101.041L87.656 100.644C87.8332 100.484 88.0412 100.282 88.2955 100.039C88.5497 99.7965 88.827 99.5341 89.1236 99.2199C89.7322 98.6075 90.4256 97.844 91.1613 96.9692C91.897 96.0944 92.6597 95.0843 93.407 93.9908C94.1543 92.8973 94.7937 91.8037 95.333 90.8096C95.8723 89.8154 96.3306 88.8611 96.6812 88.0618C96.8661 87.6641 97.0086 87.2943 97.1434 86.9762C97.2782 86.6581 97.3899 86.3797 97.4785 86.1491C97.5671 85.9185 97.6287 85.7514 97.6865 85.6242C97.7089 85.5623 97.7387 85.5035 97.7751 85.4492Z" fill="#263238"/>
<path d="M104.092 60.0352C103.732 60.5665 103.486 61.1712 103.372 61.8087C103.256 62.4995 103.256 63.2056 103.372 63.8964C103.521 64.7467 103.714 65.5882 103.95 66.4175C104.423 68.199 104.92 69.7856 105.302 70.9308C105.483 71.4716 105.633 71.925 105.756 72.2868C105.82 72.4501 105.869 72.6192 105.902 72.7918C105.813 72.641 105.738 72.4811 105.679 72.3147C105.552 72.0045 105.371 71.5512 105.163 70.9825C104.747 69.8492 104.223 68.2586 103.749 66.4731C103.519 65.6404 103.335 64.7946 103.198 63.9401C103.085 63.2294 103.096 62.5037 103.229 61.7968C103.324 61.3197 103.504 60.8652 103.761 60.4567C103.845 60.2965 103.958 60.1537 104.092 60.0352Z" fill="#263238"/>
<path d="M78.2766 75.352C78.0737 75.5784 77.8234 75.7538 77.5448 75.865C76.8902 76.1751 76.162 76.2805 75.45 76.1682C74.7381 76.0558 74.0736 75.7306 73.5387 75.2327C73.3056 75.0422 73.1184 74.7986 72.9918 74.5209C73.0187 74.4971 73.219 74.7794 73.6312 75.1214C74.1674 75.5689 74.8092 75.861 75.4908 75.968C76.1725 76.0749 76.8694 75.9927 77.5101 75.7298C77.9839 75.531 78.2574 75.3242 78.2766 75.352Z" fill="white"/>
<path d="M104.496 68.7891C104.469 68.8948 104.432 68.9974 104.385 69.0953C104.3 69.2941 104.169 69.5804 103.98 69.9383C103.438 70.9533 102.753 71.8793 101.946 72.6861C100.741 73.8935 99.2384 74.7366 97.6014 75.1237C96.6364 75.352 95.639 75.3965 94.6585 75.2549C93.6093 75.0826 92.5999 74.7118 91.681 74.1613C89.7897 73.0718 88.1911 71.6919 86.4423 71.0318C84.8954 70.4415 83.2122 70.3459 81.6119 70.7574C80.5319 71.025 79.5127 71.5072 78.6113 72.1771C77.9795 72.6582 77.6829 72.9962 77.6675 72.9724C77.9372 72.6537 78.238 72.3645 78.565 72.1095C79.6833 71.2346 80.9951 70.6612 82.3818 70.4412C83.7686 70.2211 85.1866 70.3612 86.5078 70.8489C88.2989 71.517 89.9091 72.9008 91.7773 73.9745C92.674 74.5198 93.6595 74.8917 94.6855 75.072C95.6438 75.2111 96.6185 75.1707 97.5629 74.9527C99.1709 74.5807 100.651 73.7658 101.846 72.5946C102.655 71.8079 103.351 70.9053 103.911 69.9144C104.107 69.5645 104.254 69.2822 104.346 69.0913C104.389 68.9866 104.439 68.8856 104.496 68.7891Z" fill="white"/>
<path d="M113.068 63.6875C113.144 63.8337 113.204 63.9885 113.245 64.1488C113.372 64.579 113.447 65.0238 113.469 65.473C113.543 66.9791 113.082 68.4615 112.171 69.6404C111.641 70.2453 111.067 70.8064 110.453 71.3184C109.971 71.736 109.577 72.2518 109.297 72.8335C109.108 73.2253 109.019 73.6607 109.039 74.098C109.062 74.4082 109.128 74.5752 109.108 74.5792C109.089 74.5832 109.081 74.5434 109.05 74.4639C109.007 74.3488 108.977 74.2286 108.962 74.106C108.909 73.651 108.98 73.1898 109.166 72.7739C109.437 72.1646 109.831 71.6222 110.322 71.1832C110.919 70.6688 111.482 70.1121 112.005 69.5171C112.885 68.3721 113.349 66.9459 113.318 65.4849C113.289 64.8791 113.205 64.2774 113.068 63.6875Z" fill="white"/>
<path d="M90.8164 97.2122C90.6951 97.2792 90.5655 97.3287 90.4312 97.3594C90.0599 97.4691 89.6814 97.5515 89.2987 97.6059C88.722 97.7047 88.1311 97.6694 87.5692 97.5025C87.2359 97.3932 86.9279 97.2146 86.664 96.9776C86.3988 96.7176 86.1516 96.4385 85.9244 96.1426C85.7016 95.8608 85.4424 95.6119 85.154 95.4029C84.8796 95.2182 84.5831 95.0712 84.2719 94.9655C83.7388 94.7896 83.1752 94.734 82.6195 94.8025C82.2427 94.8453 81.8756 94.9528 81.5332 95.1206C81.4097 95.1919 81.2809 95.2531 81.148 95.3035C81.2489 95.1991 81.3661 95.1131 81.4947 95.049C81.8356 94.8457 82.2107 94.7107 82.6002 94.6514C83.177 94.5559 83.7673 94.5981 84.3259 94.7746C84.657 94.8796 84.9721 95.0322 85.2619 95.228C85.5697 95.4419 85.8449 95.7019 86.0785 95.9994C86.2996 96.2872 86.539 96.5595 86.795 96.8146C87.0393 97.0362 87.3233 97.2064 87.6309 97.3156C88.1677 97.4796 88.7317 97.5269 89.2872 97.4548C90.2232 97.3395 90.8087 97.1765 90.8164 97.2122Z" fill="white"/>
<path d="M108.53 96.3675C108.494 96.4084 108.452 96.4445 108.407 96.4748C108.284 96.5702 108.155 96.6578 108.022 96.7373C107.543 97.0388 107.024 97.2653 106.481 97.4093C105.665 97.6259 104.816 97.6773 103.981 97.5604C102.951 97.4166 101.973 97.0062 101.138 96.3675C100.345 95.7059 99.5863 95.0011 98.8657 94.2559C98.2762 93.6644 97.5937 93.1803 96.8473 92.8244C96.3463 92.5848 95.8009 92.46 95.2488 92.4586C94.8636 92.4586 94.6401 92.5262 94.6363 92.5023C94.6854 92.4785 94.7371 92.4612 94.7904 92.4506C94.9389 92.4092 95.0913 92.3839 95.2449 92.375C95.8142 92.3485 96.3819 92.4559 96.9051 92.6892C97.6757 93.0347 98.3812 93.5179 98.989 94.1168C99.6939 94.761 100.395 95.5443 101.258 96.2005C102.066 96.8142 103.01 97.2105 104.004 97.3537C104.817 97.4752 105.645 97.4415 106.446 97.2542C106.983 97.1226 107.5 96.9208 107.987 96.6538C108.162 96.5469 108.344 96.4513 108.53 96.3675Z" fill="white"/>
<path d="M141.272 39.7011C138.474 38.3196 136.032 36.2754 134.145 33.735C132.257 31.1946 130.977 28.2299 130.41 25.0823C129.843 21.9348 130.003 18.6933 130.879 15.6221C131.755 12.5508 133.321 9.73653 135.45 7.40848C137.579 5.08042 140.211 3.30441 143.131 2.2251C146.05 1.14578 149.176 0.793689 152.252 1.19749C155.329 1.60129 158.27 2.74957 160.835 4.54881C163.4 6.34804 165.518 8.74734 167.014 11.5513C169.03 15.3221 169.834 19.6565 169.309 23.9293C168.784 28.2021 166.958 32.1922 164.094 35.324C161.23 38.4559 157.476 40.5675 153.374 41.3542C149.272 42.1409 145.034 41.562 141.272 39.7011ZM157.689 4.25439C153.737 2.3072 149.242 1.8814 145.013 3.05376C140.785 4.22613 137.101 6.91952 134.626 10.6483C132.151 14.3772 131.048 18.8961 131.516 23.3903C131.984 27.8846 133.991 32.0585 137.177 35.1595C140.363 38.2605 144.517 40.0846 148.89 40.3029C153.263 40.5212 157.568 39.1194 161.029 36.3502C164.49 33.5809 166.878 29.6264 167.764 25.1997C168.649 20.773 167.974 16.1654 165.859 12.2074C164.007 8.74072 161.15 5.95962 157.689 4.25439Z" fill="#263238"/>
<path d="M174.506 61.9502C173.953 62.3012 173.287 62.4116 172.656 62.2574C172.024 62.1031 171.477 61.6967 171.135 61.1271L158.258 39.5783C158.199 39.4807 158.181 39.3631 158.206 39.2513C158.231 39.1394 158.298 39.0425 158.393 38.9818L161.139 37.2322C161.233 37.1731 161.345 37.1538 161.452 37.1783C161.559 37.2028 161.653 37.2691 161.713 37.3634L175.257 58.3714C175.443 58.6547 175.571 58.9741 175.635 59.3103C175.698 59.6464 175.694 59.9923 175.624 60.3269C175.554 60.6615 175.418 60.978 175.226 61.257C175.034 61.536 174.789 61.7719 174.506 61.9502Z" fill="#263238"/>
<path d="M141.747 38.6774C138.947 37.2966 136.504 35.2526 134.614 32.7119C132.725 30.1712 131.444 27.2057 130.876 24.0571C130.307 20.9084 130.468 17.6656 131.343 14.593C132.219 11.5203 133.786 8.70475 135.915 6.37561C138.045 4.04647 140.678 2.26968 143.599 1.19001C146.519 0.110339 149.646 -0.241668 152.724 0.162669C155.802 0.567006 158.743 1.71625 161.309 3.51676C163.875 5.31727 165.993 7.71811 167.489 10.5237C169.504 14.2947 170.307 18.6288 169.781 22.901C169.256 27.1732 167.43 31.1628 164.566 34.2945C161.703 37.4262 157.95 39.5382 153.849 40.3259C149.747 41.1136 145.51 40.5364 141.747 38.6774ZM158.164 3.23072C154.212 1.28352 149.717 0.857724 145.488 2.03009C141.26 3.20245 137.576 5.89585 135.101 9.62466C132.626 13.3535 131.523 17.8724 131.991 22.3666C132.459 26.8609 134.466 31.0348 137.652 34.1358C140.838 37.2368 144.992 39.0609 149.365 39.2793C153.738 39.4976 158.043 38.0957 161.504 35.3265C164.965 32.5572 167.353 28.6028 168.239 24.1761C169.124 19.7494 168.449 15.1417 166.334 11.1838C164.482 7.71705 161.625 4.93595 158.164 3.23072Z" fill="#455A64"/>
<path d="M158.514 38.1552L161.966 35.9567L175.66 58.8723C175.928 59.3211 176.012 59.8614 175.895 60.3746C175.777 60.8877 175.466 61.3315 175.032 61.6083L174.832 61.7357C174.397 62.0125 173.874 62.0998 173.377 61.9782C172.879 61.8566 172.45 61.5362 172.181 61.0874L158.488 38.1719L158.514 38.1552Z" fill="#455A64"/>
<path d="M135.535 15.511C135.553 15.2987 135.589 15.0885 135.643 14.8827C135.688 14.6378 135.749 14.3961 135.824 14.159C135.911 13.8396 136.014 13.5251 136.132 13.2165L136.328 12.6797C136.401 12.4928 136.498 12.3099 136.586 12.1111C136.76 11.7134 136.995 11.3158 137.23 10.8982C137.776 10.0027 138.408 9.16605 139.117 8.40097C139.839 7.65094 140.631 6.97691 141.482 6.38885C141.856 6.13705 142.242 5.9048 142.638 5.69296C142.823 5.59354 143 5.49015 143.177 5.40665L143.693 5.17999C143.987 5.0494 144.288 4.93524 144.595 4.838C144.822 4.75334 145.055 4.68426 145.292 4.63123C145.49 4.57312 145.692 4.52927 145.896 4.5C145.707 4.58279 145.511 4.65059 145.311 4.7028C145.079 4.76867 144.852 4.84833 144.629 4.94139C144.329 5.04715 144.035 5.16927 143.747 5.30723L143.243 5.54185C143.065 5.62536 142.892 5.73272 142.711 5.83213C142.326 6.02698 141.971 6.28148 141.575 6.53598C140.744 7.1204 139.97 7.78624 139.263 8.52424C138.564 9.27867 137.936 10.1002 137.388 10.9778C137.153 11.3754 136.914 11.7731 136.737 12.1707C136.648 12.3616 136.548 12.5405 136.471 12.7234L136.255 13.2523C136.109 13.5824 136.02 13.9005 135.924 14.1749C135.841 14.4078 135.772 14.6454 135.716 14.8867C135.672 15.0994 135.611 15.3082 135.535 15.511Z" fill="#E0E0E0"/>
</svg>
