<svg width="200" height="200" viewBox="0 0 200 200" fill="none" xmlns="http://www.w3.org/2000/svg">
<path d="M31.2867 23.084C31.2967 20.5966 30.75 18.1405 29.6892 15.9071C28.6284 13.6737 27.0821 11.7235 25.1711 10.2085C23.26 8.69351 21.0358 7.65474 18.6719 7.17319C16.308 6.69164 13.8682 6.78033 11.5429 7.43233C9.21768 8.08434 7.06974 9.28203 5.26663 10.932C3.46353 12.582 2.05401 14.6397 1.148 16.9446C0.241995 19.2494 -0.136015 21.7392 0.0434574 24.2197C0.22293 26.7002 0.955031 29.1044 2.18267 31.2448L2.22975 31.3022C2.82895 32.3494 3.57795 33.0696 4.33979 34.1918L13.4219 46.6075C13.6848 46.9679 14.0252 47.2604 14.4162 47.4618C14.8073 47.6632 15.2383 47.7681 15.6754 47.7681C16.1124 47.7681 16.5434 47.6632 16.9345 47.4618C17.3256 47.2604 17.666 46.9679 17.9288 46.6075L26.8312 34.3951C27.6418 33.408 28.3991 32.3755 29.0996 31.3022L29.1338 31.258C30.5478 28.7817 31.2914 25.9586 31.2867 23.084ZM15.6433 30.1181C14.2812 30.1181 12.9498 29.7011 11.8173 28.92C10.6848 28.1388 9.80218 27.0285 9.28095 25.7295C8.75973 24.4305 8.62335 23.001 8.88907 21.622C9.15479 20.2429 9.81067 18.9762 10.7738 17.982C11.7369 16.9877 12.9639 16.3107 14.2998 16.0363C15.6356 15.762 17.0203 15.9028 18.2786 16.4409C19.537 16.979 20.6125 17.8902 21.3692 19.0593C22.1259 20.2284 22.5298 21.6029 22.5298 23.0089C22.5304 23.9427 22.3526 24.8674 22.0067 25.7302C21.6609 26.593 21.1536 27.3769 20.514 28.0372C19.8744 28.6974 19.1151 29.2211 18.2793 29.5781C17.4435 29.9352 16.5478 30.1187 15.6433 30.1181Z" fill="#F5F5F5"/>
<path d="M200 121.021C200.001 119.926 199.758 118.846 199.29 117.865C198.821 116.883 198.139 116.026 197.297 115.361C196.456 114.695 195.477 114.239 194.436 114.028C193.396 113.816 192.323 113.855 191.299 114.142C190.276 114.429 189.331 114.955 188.537 115.68C187.743 116.405 187.121 117.31 186.721 118.323C186.32 119.337 186.152 120.432 186.228 121.523C186.304 122.615 186.623 123.674 187.16 124.617V124.644C187.425 125.086 187.759 125.435 188.093 125.916L192.095 131.391C192.211 131.55 192.361 131.679 192.534 131.768C192.707 131.857 192.897 131.903 193.09 131.903C193.283 131.903 193.473 131.857 193.646 131.768C193.819 131.679 193.969 131.55 194.085 131.391L198.018 126.009C198.377 125.572 198.711 125.115 199.02 124.64V124.617C199.654 123.532 199.993 122.289 200 121.021ZM193.105 124.114C192.505 124.114 191.918 123.93 191.419 123.586C190.92 123.242 190.531 122.752 190.302 122.18C190.072 121.608 190.012 120.978 190.129 120.37C190.246 119.762 190.535 119.204 190.959 118.766C191.384 118.328 191.924 118.03 192.513 117.909C193.102 117.788 193.712 117.85 194.266 118.087C194.821 118.324 195.295 118.726 195.628 119.241C195.962 119.756 196.14 120.362 196.14 120.981C196.14 121.393 196.062 121.801 195.91 122.182C195.758 122.563 195.534 122.909 195.253 123.201C194.971 123.492 194.636 123.724 194.268 123.882C193.899 124.04 193.504 124.122 193.105 124.123V124.114Z" fill="#F5F5F5"/>
<path d="M176.225 177.166C182.967 170.205 182.967 158.92 176.225 151.959C169.482 144.999 158.55 144.999 151.808 151.959C145.065 158.92 145.065 170.205 151.808 177.166C158.55 184.127 169.482 184.127 176.225 177.166Z" fill="#F5F5F5"/>
<path d="M164.018 179.403C161.175 179.404 158.396 178.534 156.032 176.904C153.668 175.275 151.825 172.958 150.737 170.247C149.648 167.536 149.363 164.552 149.917 161.674C150.471 158.796 151.84 156.152 153.85 154.076C155.859 152.001 158.42 150.587 161.208 150.014C163.996 149.441 166.886 149.735 169.513 150.858C172.139 151.981 174.384 153.882 175.964 156.322C177.543 158.762 178.386 161.631 178.386 164.566C178.383 168.499 176.868 172.27 174.174 175.052C171.481 177.833 167.828 179.398 164.018 179.403ZM164.018 152.269C161.662 152.269 159.359 152.991 157.401 154.342C155.442 155.693 153.915 157.613 153.014 159.86C152.112 162.107 151.876 164.579 152.336 166.965C152.795 169.35 153.93 171.541 155.596 173.261C157.261 174.98 159.384 176.151 161.694 176.626C164.005 177.1 166.4 176.857 168.576 175.926C170.753 174.995 172.613 173.419 173.922 171.397C175.231 169.375 175.929 166.998 175.929 164.566C175.926 161.306 174.67 158.18 172.437 155.875C170.204 153.57 167.176 152.273 164.018 152.269Z" fill="white"/>
<path d="M163.919 169.636C162.872 169.636 161.848 169.316 160.978 168.715C160.107 168.114 159.428 167.26 159.028 166.261C158.627 165.262 158.522 164.163 158.727 163.103C158.932 162.043 159.436 161.069 160.177 160.305C160.918 159.54 161.862 159.02 162.889 158.81C163.916 158.599 164.981 158.708 165.948 159.123C166.916 159.537 167.742 160.238 168.324 161.138C168.905 162.037 169.215 163.094 169.214 164.175C169.213 165.624 168.654 167.013 167.662 168.037C166.669 169.061 165.323 169.636 163.919 169.636ZM163.919 161.241C163.359 161.241 162.811 161.413 162.345 161.734C161.879 162.056 161.516 162.513 161.302 163.047C161.087 163.582 161.031 164.17 161.14 164.737C161.25 165.304 161.52 165.826 161.916 166.235C162.312 166.644 162.817 166.922 163.367 167.035C163.916 167.148 164.486 167.09 165.004 166.869C165.521 166.647 165.964 166.272 166.275 165.791C166.587 165.31 166.753 164.745 166.753 164.166C166.749 163.393 166.449 162.652 165.919 162.105C165.388 161.559 164.669 161.251 163.919 161.25V161.241Z" fill="white"/>
<path d="M163.92 164.176H157.23L158.398 166.305L142.652 173.755L143.183 174.669L158.981 167.304L160.063 169.42L163.92 164.176Z" fill="#E0E0E0"/>
<path d="M142.652 173.755L142.486 173.587C142.08 173.179 141.577 172.889 141.027 172.748C140.477 172.606 139.901 172.619 139.357 172.783L133.078 174.67L136.575 176.256L135.171 180.113L141.065 177.966C141.711 177.727 142.266 177.28 142.648 176.69C143.029 176.101 143.217 175.4 143.183 174.692L142.652 173.755Z" fill="#E0E0E0"/>
<path d="M66.4598 177.494L66.5882 177.45L66.9605 177.339L68.3901 176.898L73.7443 175.347L73.693 175.439C73.4191 174.49 73.1109 173.429 72.7856 172.289V172.241L72.8284 172.201C74.3113 170.918 75.5732 169.385 76.5606 167.668C77.1107 166.7 77.5311 165.659 77.8103 164.575C78.1033 163.422 78.1717 162.22 78.0115 161.04C77.6231 158.475 76.3787 156.131 74.4933 154.412C72.4552 152.575 69.9108 151.442 67.2173 151.174C65.1953 150.996 63.1662 151.416 61.3666 152.384C59.6323 153.255 58.1339 154.556 57.0053 156.171C55.9655 157.692 55.3202 159.463 55.1306 161.314C55.1049 161.756 55.0407 162.198 55.0493 162.639C55.0579 163.081 55.0707 163.523 55.0835 163.93C55.1515 164.759 55.2948 165.58 55.5115 166.382C55.7243 167.135 56.0111 167.863 56.3675 168.556C56.7166 169.201 57.1297 169.806 57.6002 170.363C58.4586 171.356 59.4711 172.195 60.5962 172.846C62.2379 173.807 64.0369 174.448 65.9034 174.737H65.9333V174.763L66.3613 176.769C66.4041 176.99 66.4384 177.163 66.4598 177.286C66.4812 177.41 66.494 177.463 66.494 177.468C66.4737 177.416 66.4593 177.363 66.4512 177.308L66.3314 176.805L65.8691 174.781L65.9077 174.816C64.0206 174.552 62.1985 173.924 60.5363 172.965C59.3956 172.314 58.3685 171.47 57.4975 170.469C57.0087 169.906 56.5783 169.291 56.2135 168.635C55.841 167.933 55.5398 167.192 55.3147 166.426C55.1 165.612 54.9568 164.779 54.8867 163.938L54.8481 162.613C54.8481 162.171 54.9038 161.729 54.9295 161.287C55.1163 159.398 55.7707 157.591 56.8298 156.038C57.977 154.39 59.5018 153.06 61.2681 152.168C63.1109 151.176 65.1898 150.748 67.2601 150.935C70.007 151.204 72.6021 152.359 74.6774 154.236C75.6555 155.124 76.4691 156.188 77.0785 157.377C77.241 157.661 77.384 157.956 77.5065 158.261C77.6388 158.546 77.7503 158.842 77.8403 159.144C77.9302 159.454 78.0286 159.754 78.1099 160.059C78.1913 160.364 78.2169 160.682 78.2726 160.991C78.4317 162.201 78.3575 163.43 78.0543 164.61C77.7666 165.711 77.3347 166.767 76.7703 167.747C75.7636 169.479 74.48 171.022 72.9739 172.311L73.0039 172.223L73.8899 175.373L73.9113 175.444L73.8428 175.466L68.4286 176.951L67.0033 177.335L66.6438 177.428L66.4598 177.494Z" fill="#E0E0E0"/>
<path d="M74.4418 177.497C73.2263 177.968 71.9843 178.362 70.7225 178.677C69.4809 179.069 68.2174 179.383 66.939 179.618C68.1558 179.152 69.3976 178.76 70.6583 178.443C71.9002 178.05 73.1636 177.734 74.4418 177.497Z" fill="#E0E0E0"/>
<path d="M72.7685 181.112C72.3862 181.391 71.9469 181.576 71.4845 181.651C71.0387 181.8 70.566 181.842 70.1021 181.775C70.531 181.607 70.9756 181.486 71.4289 181.413C71.8647 181.267 72.3134 181.166 72.7685 181.112Z" fill="#E0E0E0"/>
<path d="M67.9877 177.082C67.968 177.043 67.9536 177.001 67.9449 176.958C67.9192 176.861 67.8892 176.737 67.8464 176.582C67.7608 176.232 67.641 175.75 67.4869 175.138C67.1788 173.861 66.7422 172.045 66.2029 169.805C65.9333 168.678 65.6422 167.445 65.3469 166.124C65.2839 165.798 65.1572 165.488 64.9746 165.214C64.8974 165.079 64.7757 164.978 64.6318 164.928C64.4878 164.879 64.3314 164.884 64.1913 164.944C64.0585 165.036 63.9513 165.163 63.8807 165.311C63.8101 165.459 63.7785 165.624 63.789 165.788C63.7992 166.142 63.9348 166.48 64.1699 166.738C64.4228 167.008 64.7352 167.21 65.0803 167.328C65.4254 167.445 65.7929 167.475 66.1516 167.414C66.5277 167.355 66.8836 167.2 67.187 166.964C67.4905 166.727 67.7318 166.415 67.8892 166.058C68.2389 165.314 68.3267 164.467 68.1375 163.663C68.0645 163.256 67.8787 162.88 67.6025 162.581C67.4706 162.445 67.2993 162.357 67.1147 162.331C66.9301 162.304 66.7422 162.341 66.5796 162.435C66.4395 162.565 66.3447 162.738 66.3099 162.929C66.2751 163.12 66.3022 163.317 66.387 163.491C66.5747 163.851 66.8488 164.155 67.183 164.374C67.8139 164.892 68.5735 165.215 69.3744 165.307C69.7561 165.342 70.1405 165.283 70.4958 165.134C70.8311 164.974 71.1245 164.733 71.3518 164.432C71.5808 164.139 71.7182 163.782 71.7455 163.407C71.7597 163.227 71.7382 163.046 71.6822 162.875C71.6263 162.704 71.5372 162.547 71.4202 162.413C71.3199 162.284 71.1865 162.186 71.0352 162.131C70.8838 162.077 70.7207 162.067 70.5642 162.103C70.4114 162.161 70.2733 162.254 70.1605 162.375C70.0478 162.496 69.9633 162.642 69.9137 162.802C69.704 163.451 69.888 164.176 69.965 164.843C70.1705 166.168 70.393 167.432 70.6199 168.568C71.0479 170.83 71.4202 172.663 71.6728 173.949C71.7926 174.572 71.891 175.063 71.9595 175.412C71.9852 175.571 72.0109 175.694 72.028 175.796C72.0322 175.84 72.0322 175.884 72.028 175.929C72.0104 175.888 71.9975 175.845 71.9895 175.8C71.9638 175.703 71.9338 175.579 71.8953 175.425C71.814 175.076 71.707 174.59 71.5658 173.971C71.2876 172.708 70.8895 170.878 70.4401 168.603C70.2176 167.467 69.9736 166.221 69.7553 164.874C69.7082 164.534 69.6526 164.193 69.6184 163.835C69.5684 163.465 69.5976 163.088 69.704 162.731C69.7645 162.539 69.8665 162.365 70.0022 162.22C70.1379 162.075 70.3038 161.964 70.4872 161.896C70.6854 161.843 70.8939 161.85 71.0885 161.915C71.2832 161.98 71.4561 162.1 71.5872 162.262C71.722 162.419 71.8251 162.601 71.8905 162.799C71.9559 162.997 71.9823 163.207 71.9681 163.416C71.9439 163.838 71.7945 164.242 71.5401 164.573C71.2854 164.91 70.9548 165.177 70.5771 165.351C70.188 165.514 69.7673 165.581 69.3487 165.545C68.5052 165.449 67.7046 165.111 67.0375 164.569C66.6707 164.319 66.3752 163.973 66.1815 163.566C66.0584 163.347 66.0185 163.09 66.0697 162.842C66.1209 162.595 66.2595 162.377 66.4584 162.229C66.6573 162.082 66.9022 162.016 67.1454 162.045C67.3886 162.074 67.6126 162.196 67.7737 162.386C68.0807 162.719 68.2886 163.136 68.3729 163.588C68.574 164.447 68.4786 165.352 68.1032 166.146C67.9274 166.536 67.6612 166.875 67.3283 167.133C66.9953 167.391 66.6059 167.561 66.1944 167.626C65.7994 167.692 65.3949 167.657 65.016 167.525C64.6371 167.392 64.2952 167.166 64.0201 166.866C63.7502 166.567 63.5976 166.175 63.5921 165.766C63.5808 165.562 63.6234 165.358 63.7153 165.177C63.8073 164.996 63.9452 164.844 64.1143 164.737C64.2058 164.691 64.3052 164.665 64.4066 164.66C64.508 164.655 64.6094 164.67 64.7049 164.706C64.8785 164.781 65.0271 164.907 65.1329 165.068C65.3281 165.368 65.466 165.704 65.5395 166.058C65.8434 167.383 66.1259 168.621 66.3955 169.752L67.5939 175.093C67.7266 175.712 67.8336 176.198 67.9106 176.552C67.9406 176.706 67.9663 176.83 67.9877 176.932C67.9967 176.981 67.9967 177.032 67.9877 177.082Z" fill="#E0E0E0"/>
<path d="M74.1467 179.15C73.1734 179.554 72.1718 179.88 71.1507 180.127C70.1449 180.45 69.1179 180.698 68.0776 180.869C69.0509 180.466 70.0525 180.139 71.0736 179.893C72.0795 179.57 73.1065 179.322 74.1467 179.15Z" fill="#E0E0E0"/>
<path d="M190.49 199.555C190.49 199.617 149.646 199.67 99.2702 199.67C48.8946 199.67 8.04199 199.617 8.04199 199.555C8.04199 199.493 48.8775 199.44 99.2702 199.44C149.663 199.44 190.49 199.489 190.49 199.555Z" fill="#263238"/>
<path d="M182.953 21.8196H15.6689V32.8832H182.953V21.8196Z" fill="#E0E0E0"/>
<path d="M182.927 43.0449H15.6436V139.896H182.927V43.0449Z" fill="white"/>
<path d="M15.6689 32.7986H38.6397L40.9124 25.959H78.1484L80.4211 32.7986H182.953V43.279H15.6689V32.7986Z" fill="#EBEBEB"/>
<path d="M21.1905 26.2337C21.1905 26.4906 21.1167 26.7418 20.9784 26.9554C20.8401 27.169 20.6436 27.3355 20.4137 27.4338C20.1838 27.5321 19.9308 27.5579 19.6867 27.5077C19.4426 27.4576 19.2184 27.3339 19.0424 27.1522C18.8664 26.9706 18.7466 26.7391 18.698 26.4871C18.6495 26.2351 18.6744 25.974 18.7696 25.7366C18.8649 25.4992 19.0261 25.2964 19.2331 25.1536C19.44 25.0109 19.6833 24.9347 19.9321 24.9347C20.0976 24.9341 20.2614 24.9673 20.4144 25.0324C20.5673 25.0975 20.7062 25.1931 20.8232 25.3139C20.9401 25.4346 21.0328 25.578 21.0958 25.7359C21.1589 25.8938 21.191 26.063 21.1905 26.2337Z" fill="#263238"/>
<path d="M25.0811 26.2337C25.0811 26.4906 25.0073 26.7418 24.869 26.9554C24.7308 27.169 24.5342 27.3355 24.3043 27.4338C24.0744 27.5321 23.8214 27.5579 23.5773 27.5077C23.3332 27.4576 23.109 27.3339 22.933 27.1522C22.757 26.9706 22.6372 26.7391 22.5886 26.4871C22.5401 26.2351 22.565 25.974 22.6602 25.7366C22.7555 25.4992 22.9168 25.2964 23.1237 25.1536C23.3306 25.0109 23.5739 24.9347 23.8228 24.9347C23.9882 24.9341 24.1521 24.9673 24.305 25.0324C24.4579 25.0975 24.5968 25.1931 24.7138 25.3139C24.8308 25.4346 24.9234 25.578 24.9865 25.7359C25.0495 25.8938 25.0817 26.063 25.0811 26.2337Z" fill="#263238"/>
<path d="M28.9712 26.2337C28.9712 26.4906 28.8974 26.7418 28.7592 26.9554C28.6209 27.169 28.4244 27.3355 28.1944 27.4338C27.9645 27.5321 27.7115 27.5579 27.4674 27.5077C27.2233 27.4576 26.9991 27.3339 26.8231 27.1522C26.6472 26.9706 26.5273 26.7391 26.4788 26.4871C26.4302 26.2351 26.4551 25.974 26.5504 25.7366C26.6456 25.4992 26.8069 25.2964 27.0138 25.1536C27.2208 25.0109 27.464 24.9347 27.7129 24.9347C27.8783 24.9341 28.0422 24.9673 28.1951 25.0324C28.348 25.0975 28.487 25.1931 28.6039 25.3139C28.7209 25.4346 28.8136 25.578 28.8766 25.7359C28.9396 25.8938 28.9718 26.063 28.9712 26.2337Z" fill="#263238"/>
<path d="M164.463 41.1934H49.6951C48.8505 41.1934 48.0406 40.8471 47.4434 40.2306C46.8462 39.6141 46.5107 38.778 46.5107 37.9062C46.5107 37.0343 46.8462 36.1982 47.4434 35.5817C48.0406 34.9652 48.8505 34.6189 49.6951 34.6189H164.463C165.308 34.6189 166.118 34.9652 166.715 35.5817C167.312 36.1982 167.648 37.0343 167.648 37.9062C167.648 38.778 167.312 39.6141 166.715 40.2306C166.118 40.8471 165.308 41.1934 164.463 41.1934Z" fill="#FAFAFA"/>
<path d="M52.4432 38.3445V39.4579H51.8996V38.4329C51.8996 38.1192 51.7584 37.991 51.5187 37.991C51.279 37.991 51.065 38.1589 51.065 38.5124V39.4756H50.5215V36.7804H51.065V37.7171C51.2285 37.5635 51.4433 37.4812 51.6642 37.4873C51.7729 37.4798 51.8818 37.4973 51.9831 37.5385C52.0845 37.5798 52.1757 37.6437 52.2502 37.7256C52.3247 37.8076 52.3807 37.9057 52.414 38.0127C52.4474 38.1197 52.4574 38.233 52.4432 38.3445Z" fill="#E0E0E0"/>
<path d="M54.1465 39.3611C54.019 39.4453 53.87 39.4884 53.7185 39.4848C53.6256 39.498 53.531 39.4892 53.4418 39.4592C53.3526 39.4292 53.2712 39.3787 53.2036 39.3115C53.136 39.2443 53.0841 39.1621 53.0517 39.0712C53.0193 38.9804 53.0073 38.8831 53.0166 38.7867V37.9914H52.7256V37.5495H53.0166V37.0768H53.5602V37.5495H54.0267V37.9914H53.5602V38.7867C53.5555 38.8203 53.5583 38.8546 53.5683 38.8869C53.5783 38.9193 53.5953 38.9489 53.6179 38.9736C53.6405 38.9982 53.6683 39.0172 53.699 39.0293C53.7298 39.0413 53.7628 39.046 53.7956 39.043C53.8745 39.044 53.9514 39.0175 54.0139 38.9679L54.1465 39.3611Z" fill="#E0E0E0"/>
<path d="M55.6104 39.3611C55.4824 39.4444 55.3337 39.4873 55.1824 39.4848C55.0895 39.498 54.9949 39.4892 54.9057 39.4592C54.8165 39.4292 54.735 39.3787 54.6675 39.3115C54.5999 39.2443 54.548 39.1621 54.5156 39.0712C54.4832 38.9804 54.4712 38.8831 54.4805 38.7867V37.9914H54.1895V37.5495H54.4805V37.0768H55.0241V37.5495H55.4949V37.9914H55.0241V38.7867C55.0202 38.8202 55.0236 38.8541 55.0339 38.8861C55.0441 38.9181 55.0611 38.9473 55.0836 38.9718C55.106 38.9962 55.1334 39.0153 55.1638 39.0276C55.1942 39.0399 55.2269 39.0451 55.2595 39.043C55.3396 39.0439 55.4179 39.0175 55.482 38.9679L55.6104 39.3611Z" fill="#E0E0E0"/>
<path d="M57.9814 38.4864C57.9892 38.617 57.9705 38.7479 57.9266 38.8706C57.8826 38.9933 57.8144 39.1052 57.7262 39.1992C57.638 39.2932 57.5317 39.3671 57.4143 39.4163C57.2968 39.4655 57.1708 39.4889 57.0441 39.485C56.9391 39.4901 56.8344 39.4718 56.7369 39.4314C56.6394 39.391 56.5515 39.3294 56.4791 39.2508V40.1345H55.9355V37.4835H56.4663V37.7088C56.5403 37.6239 56.6317 37.5573 56.7339 37.5137C56.8361 37.4701 56.9465 37.4507 57.0569 37.4569C57.1853 37.4545 57.3127 37.48 57.4308 37.5319C57.5489 37.5838 57.6551 37.6609 57.7423 37.7581C57.8296 37.8553 57.896 37.9704 57.9372 38.0959C57.9784 38.2214 57.9935 38.3545 57.9814 38.4864ZM57.4293 38.4864C57.421 38.3909 57.386 38.2999 57.3285 38.2246C57.2711 38.1492 57.1936 38.0927 57.1056 38.0619C57.0176 38.0312 56.9229 38.0274 56.8329 38.0512C56.7429 38.075 56.6615 38.1253 56.5987 38.196C56.5359 38.2666 56.4943 38.3546 56.479 38.4492C56.4637 38.5438 56.4754 38.6409 56.5126 38.7288C56.5498 38.8167 56.6109 38.8915 56.6886 38.9442C56.7662 38.9968 56.857 39.0251 56.9499 39.0255C57.0168 39.0264 57.0832 39.0128 57.1446 38.9854C57.2061 38.9581 57.2612 38.9176 57.3065 38.8667C57.3518 38.8159 57.3861 38.7557 57.4072 38.6901C57.4284 38.6246 57.4359 38.5552 57.4293 38.4864Z" fill="#E0E0E0"/>
<path d="M58.2126 37.8364C58.222 37.75 58.2619 37.6702 58.3247 37.6123C58.3874 37.5544 58.4687 37.5223 58.5528 37.5223C58.637 37.5223 58.7183 37.5544 58.781 37.6123C58.8438 37.6702 58.8837 37.75 58.8931 37.8364C58.8985 37.8858 58.8937 37.9358 58.8791 37.9832C58.8644 38.0306 58.8402 38.0743 58.8081 38.1114C58.776 38.1485 58.7367 38.1781 58.6927 38.1985C58.6487 38.2188 58.601 38.2293 58.5528 38.2293C58.5047 38.2293 58.457 38.2188 58.413 38.1985C58.369 38.1781 58.3297 38.1485 58.2976 38.1114C58.2655 38.0743 58.2413 38.0306 58.2266 37.9832C58.212 37.9358 58.2072 37.8858 58.2126 37.8364ZM58.2126 39.1309C58.222 39.0446 58.2619 38.9648 58.3247 38.9069C58.3874 38.8489 58.4687 38.8169 58.5528 38.8169C58.637 38.8169 58.7183 38.8489 58.781 38.9069C58.8438 38.9648 58.8837 39.0446 58.8931 39.1309C58.8985 39.1804 58.8937 39.2304 58.8791 39.2778C58.8644 39.3252 58.8402 39.3689 58.8081 39.406C58.776 39.4431 58.7367 39.4727 58.6927 39.493C58.6487 39.5134 58.601 39.5239 58.5528 39.5239C58.5047 39.5239 58.457 39.5134 58.413 39.493C58.369 39.4727 58.3297 39.4431 58.2976 39.406C58.2655 39.3689 58.2413 39.3252 58.2266 39.2778C58.212 39.2304 58.2072 39.1804 58.2126 39.1309Z" fill="#E0E0E0"/>
<path d="M60.2324 36.4175H60.7203L59.5647 39.8152H59.0811L60.2324 36.4175Z" fill="#E0E0E0"/>
<path d="M61.3494 36.4175H61.8331L60.6818 39.8152H60.1938L61.3494 36.4175Z" fill="#E0E0E0"/>
<path d="M164.361 60.4632H64.367C62.8698 60.4632 61.4339 59.8492 60.3752 58.7562C59.3164 57.6633 58.7217 56.181 58.7217 54.6353C58.7228 53.0901 59.3179 51.6084 60.3764 50.5157C61.4349 49.423 62.8701 48.8087 64.367 48.8075H164.361C165.858 48.8087 167.293 49.423 168.351 50.5157C169.41 51.6084 170.005 53.0901 170.006 54.6353C170.006 56.181 169.411 57.6633 168.352 58.7562C167.294 59.8492 165.858 60.4632 164.361 60.4632Z" fill="#FAFAFA"/>
<path d="M164.361 60.4627C165.158 60.4449 165.944 60.2616 166.672 59.9236C167.388 59.5835 168.027 59.0937 168.55 58.4853C169.073 57.8769 169.468 57.163 169.711 56.3889C169.913 55.6982 169.992 54.9748 169.942 54.2549C169.889 53.4489 169.673 52.6633 169.308 51.9485C168.9 51.1654 168.325 50.4884 167.626 49.969C166.862 49.4009 165.971 49.0421 165.037 48.9263C164.54 48.8824 164.041 48.8676 163.543 48.8821H161.985H147.609L64.3754 48.913C63.376 48.916 62.3958 49.1968 61.5378 49.726C60.6948 50.2456 60.0008 50.9874 59.5272 51.8752C59.0535 52.7631 58.8172 53.765 58.8425 54.7783C58.8678 55.7915 59.1537 56.7796 59.671 57.6411C60.1882 58.5026 60.9182 59.2065 61.786 59.6806C62.6432 60.1392 63.5986 60.3672 64.5637 60.3434H92.4608L129.881 60.3699L155.133 60.4052H161.981H163.766C164.168 60.4052 164.373 60.4052 164.373 60.4052H163.766H161.981H155.133L129.881 60.445L92.4608 60.4671H70.3589H64.5637C63.5625 60.4938 62.5711 60.2565 61.6833 59.7778C60.5468 59.1574 59.6441 58.1621 59.1193 56.9505C58.5944 55.7389 58.4775 54.3808 58.7872 53.0927C59.097 51.8046 59.8155 50.6606 60.8283 49.843C61.841 49.0254 63.0898 48.5814 64.3754 48.5817L147.63 48.7275H162.007H163.564C164.069 48.7148 164.573 48.731 165.075 48.7761C166.027 48.8982 166.932 49.2676 167.707 49.8497C168.387 50.3526 168.95 51.0051 169.356 51.7601C169.761 52.515 170 53.3536 170.053 54.2151C170.098 54.9463 170.014 55.6799 169.805 56.3801C169.611 56.9913 169.321 57.5658 168.949 58.0812C168.368 58.8936 167.594 59.5374 166.702 59.9502C166.158 60.197 165.58 60.3565 164.99 60.4229C164.566 60.4627 164.361 60.4627 164.361 60.4627Z" fill="#263238"/>
<path d="M66.6611 55.8767L66.8708 55.3907C67.1357 55.578 67.4486 55.6796 67.7697 55.6823C68.142 55.6823 68.2918 55.5542 68.2918 55.3819C68.2918 54.8561 66.7125 55.2184 66.7125 54.1756C66.7125 53.6985 67.0848 53.292 67.8595 53.292C68.1892 53.2854 68.5146 53.3709 68.8011 53.5394L68.6085 54.0343C68.3804 53.8939 68.1207 53.8178 67.8553 53.8133C67.4829 53.8133 67.3374 53.9592 67.3374 54.1359C67.3374 54.6528 68.9167 54.2949 68.9167 55.3244C68.9167 55.7928 68.54 56.2081 67.7654 56.2081C67.373 56.2174 66.9875 56.1017 66.6611 55.8767Z" fill="#E0E0E0"/>
<path d="M71.339 55.2535H69.7597C69.7911 55.3894 69.8691 55.509 69.9792 55.5902C70.0893 55.6714 70.2242 55.7088 70.3589 55.6953C70.4553 55.6984 70.5514 55.6812 70.6411 55.6448C70.7309 55.6083 70.8125 55.5534 70.8811 55.4833L71.2021 55.8456C71.0388 56.0077 70.835 56.1194 70.6135 56.1683C70.3921 56.2172 70.1618 56.2012 69.9486 56.1222C69.7355 56.0432 69.5479 55.9043 69.4072 55.7211C69.2664 55.538 69.178 55.3179 69.1519 55.0856C69.15 54.936 69.1778 54.7876 69.2335 54.6495C69.2893 54.5115 69.3718 54.3866 69.4761 54.2827C69.5803 54.1788 69.7041 54.0981 69.8397 54.0454C69.9754 53.9928 70.12 53.9693 70.2648 53.9766C70.4091 53.969 70.5533 53.9927 70.6883 54.0462C70.8232 54.0996 70.9458 54.1816 71.0482 54.2869C71.1506 54.3922 71.2305 54.5184 71.2828 54.6575C71.3351 54.7966 71.3586 54.9454 71.3519 55.0944C71.3519 55.1342 71.3433 55.2005 71.339 55.2535ZM69.7511 54.8868H70.7784C70.7563 54.7627 70.6929 54.6506 70.599 54.5699C70.5052 54.4891 70.3869 54.4449 70.2648 54.4449C70.1426 54.4449 70.0243 54.4891 69.9305 54.5699C69.8366 54.6506 69.7732 54.7627 69.7511 54.8868Z" fill="#E0E0E0"/>
<path d="M73.5432 54.9221V56.1549H72.9782V55.8853C72.9077 55.9897 72.8113 56.0727 72.6991 56.1255C72.5869 56.1784 72.4631 56.1992 72.3405 56.1858C71.8526 56.1858 71.5615 55.903 71.5615 55.5319C71.5615 55.1607 71.8226 54.8868 72.456 54.8868H72.9397C72.9397 54.6217 72.7813 54.445 72.456 54.445C72.2408 54.443 72.0307 54.5128 71.8568 54.6438L71.6386 54.2019C71.9066 54.0253 72.2194 53.9346 72.5374 53.9413C73.158 53.9678 73.5432 54.2726 73.5432 54.9221ZM72.9397 55.4744V55.2535H72.5117C72.2292 55.2535 72.1393 55.3596 72.1393 55.5054C72.1393 55.6512 72.2677 55.7661 72.4774 55.7661C72.5747 55.776 72.6725 55.7529 72.7559 55.7002C72.8393 55.6476 72.9038 55.5683 72.9397 55.4744Z" fill="#E0E0E0"/>
<path d="M75.3882 53.9675V54.5419H75.2512C75.1752 54.5354 75.0988 54.5465 75.0275 54.5743C74.9562 54.6021 74.8918 54.6459 74.839 54.7026C74.7861 54.7592 74.7461 54.8274 74.7219 54.902C74.6977 54.9766 74.6899 55.0558 74.6991 55.1339V56.1546H74.0913V53.9984H74.6691V54.2812C74.7563 54.1738 74.867 54.0893 74.992 54.0348C75.117 53.9802 75.2528 53.9572 75.3882 53.9675Z" fill="#E0E0E0"/>
<path d="M75.5762 55.0776C75.5763 54.924 75.6072 54.7721 75.6669 54.6315C75.7267 54.4908 75.814 54.3644 75.9233 54.2602C76.0326 54.1561 76.1617 54.0764 76.3023 54.0262C76.4429 53.976 76.592 53.9564 76.7403 53.9686C76.9311 53.9528 77.1221 53.9966 77.2885 54.0943C77.4549 54.192 77.589 54.3391 77.6734 54.5165L77.2026 54.7772C77.1594 54.6877 77.0928 54.6126 77.0103 54.5603C76.9279 54.508 76.8328 54.4805 76.7361 54.4811C76.5828 54.4811 76.4358 54.544 76.3275 54.6558C76.2191 54.7677 76.1583 54.9194 76.1583 55.0776C76.1583 55.2358 76.2191 55.3875 76.3275 55.4994C76.4358 55.6113 76.5828 55.6741 76.7361 55.6741C76.8331 55.6757 76.9285 55.6488 77.0111 55.5963C77.0938 55.5439 77.1602 55.4682 77.2026 55.3781L77.6734 55.6432C77.5875 55.819 77.4529 55.9645 77.2868 56.0612C77.1207 56.158 76.9305 56.2016 76.7403 56.1866C76.592 56.1988 76.4429 56.1792 76.3023 56.129C76.1617 56.0788 76.0326 55.9991 75.9233 55.895C75.814 55.7908 75.7267 55.6644 75.6669 55.5238C75.6072 55.3831 75.5763 55.2312 75.5762 55.0776Z" fill="#E0E0E0"/>
<path d="M80.1433 54.9216V56.1544H79.5355V55.0144C79.5355 54.6654 79.3815 54.5063 79.1075 54.5063C78.8336 54.5063 78.6068 54.6919 78.6068 55.0895V56.1544H77.999V53.1808H78.6068V54.2235C78.6953 54.1375 78.7996 54.0705 78.9135 54.0265C79.0274 53.9825 79.1487 53.9624 79.2702 53.9673C79.3917 53.9576 79.5139 53.976 79.6276 54.0214C79.7413 54.0667 79.8438 54.1377 79.9275 54.2292C80.0112 54.3207 80.074 54.4304 80.1114 54.5502C80.1487 54.67 80.1596 54.7969 80.1433 54.9216Z" fill="#E0E0E0"/>
<path d="M81.6411 55.7935C81.6411 55.6904 81.6808 55.5915 81.7514 55.5185C81.8221 55.4456 81.9179 55.4047 82.0177 55.4047C82.1176 55.4047 82.2134 55.4456 82.2841 55.5185C82.3547 55.5915 82.3944 55.6904 82.3944 55.7935C82.3944 55.8966 82.3547 55.9955 82.2841 56.0684C82.2134 56.1413 82.1176 56.1823 82.0177 56.1823C81.9179 56.1823 81.8221 56.1413 81.7514 56.0684C81.6808 55.9955 81.6411 55.8966 81.6411 55.7935Z" fill="#E0E0E0"/>
<path d="M82.6598 55.7931C82.6606 55.7164 82.6834 55.6416 82.7253 55.5783C82.7672 55.5149 82.8263 55.4658 82.8952 55.437C82.9641 55.4083 83.0397 55.4012 83.1125 55.4167C83.1852 55.4322 83.252 55.4696 83.3042 55.5241C83.3565 55.5787 83.3919 55.648 83.4061 55.7233C83.4203 55.7986 83.4126 55.8765 83.384 55.9473C83.3553 56.0181 83.307 56.0786 83.2452 56.1211C83.1834 56.1636 83.1107 56.1863 83.0364 56.1863C82.9864 56.1869 82.9368 56.1771 82.8906 56.1575C82.8443 56.1379 82.8024 56.1089 82.7673 56.0722C82.7321 56.0355 82.7045 55.9919 82.686 55.9439C82.6675 55.896 82.6586 55.8447 82.6598 55.7931Z" fill="#E0E0E0"/>
<path d="M83.6743 55.7935C83.6743 55.6904 83.714 55.5915 83.7846 55.5185C83.8553 55.4456 83.9511 55.4047 84.051 55.4047C84.1508 55.4047 84.2466 55.4456 84.3173 55.5185C84.3879 55.5915 84.4276 55.6904 84.4276 55.7935C84.4276 55.8445 84.4179 55.8951 84.3989 55.9423C84.38 55.9895 84.3523 56.0323 84.3173 56.0684C84.2823 56.1045 84.2408 56.1332 84.1951 56.1527C84.1494 56.1722 84.1004 56.1823 84.051 56.1823C84.0015 56.1823 83.9525 56.1722 83.9068 56.1527C83.8611 56.1332 83.8196 56.1045 83.7846 56.0684C83.7497 56.0323 83.7219 55.9895 83.703 55.9423C83.6841 55.8951 83.6743 55.8445 83.6743 55.7935Z" fill="#E0E0E0"/>
<path d="M47.0799 70.5973C47.0799 70.6636 43.0653 70.7122 38.1176 70.7122C33.1699 70.7122 29.1553 70.6636 29.1553 70.5973C29.1553 70.531 33.1656 70.4824 38.1176 70.4824C43.0696 70.4824 47.0799 70.5443 47.0799 70.5973Z" fill="black"/>
<path d="M47.7818 75.8961H29.1553V95.1249H47.7818V75.8961Z" fill="#FF725E"/>
<path d="M160.963 80.4287C160.963 80.4906 137.851 80.5436 109.329 80.5436C80.8067 80.5436 57.6904 80.4906 57.6904 80.4287C57.6904 80.3669 80.8024 80.3138 109.329 80.3138C137.855 80.3138 160.963 80.3624 160.963 80.4287Z" fill="black"/>
<path d="M85.9382 87.6671C85.9382 87.7334 79.8435 87.782 72.3321 87.782C64.8207 87.782 58.7217 87.7334 58.7217 87.6671C58.7217 87.6009 64.8121 87.5522 72.3321 87.5522C79.852 87.5522 85.9382 87.6053 85.9382 87.6671Z" fill="black"/>
<path d="M144.459 94.3817C144.459 94.4436 125.263 94.4966 101.59 94.4966C77.9175 94.4966 58.7217 94.4436 58.7217 94.3817C58.7217 94.3199 77.9132 94.2625 101.59 94.2625C125.267 94.2625 144.459 94.3155 144.459 94.3817Z" fill="#E0E0E0"/>
<path d="M47.0799 105.062C47.0799 105.123 43.0653 105.176 38.1176 105.176C33.1699 105.176 29.1553 105.123 29.1553 105.062C29.1553 105 33.1656 104.947 38.1176 104.947C43.0696 104.947 47.0799 104.986 47.0799 105.062Z" fill="black"/>
<path d="M47.7818 110.338H29.1553V129.567H47.7818V110.338Z" fill="#FF725E"/>
<path d="M167.1 114.867C167.1 114.933 142.606 114.982 112.397 114.982C82.1891 114.982 57.6904 114.933 57.6904 114.867C57.6904 114.8 82.1806 114.752 112.397 114.752C142.614 114.752 167.1 114.805 167.1 114.867Z" fill="black"/>
<path d="M85.9382 122.107C85.9382 122.169 79.8435 122.222 72.3321 122.222C64.8207 122.222 58.7217 122.169 58.7217 122.107C58.7217 122.045 64.8121 121.992 72.3321 121.992C79.852 121.992 85.9382 122.045 85.9382 122.107Z" fill="black"/>
<path d="M159.387 128.819C159.387 128.886 136.853 128.934 109.059 128.934C81.2644 128.934 58.7217 128.886 58.7217 128.819C58.7217 128.753 81.2559 128.704 109.059 128.704C136.862 128.704 159.387 128.757 159.387 128.819Z" fill="#E0E0E0"/>
<path d="M182.953 140.13C182.953 139.37 182.919 93.8258 182.863 21.8195L182.953 21.9122H15.682L15.7933 21.7974C15.7933 64.0283 15.7933 104.152 15.7933 140.108L15.6906 140.002L182.974 140.108L15.6906 140.21H15.5879V140.108C15.5879 104.152 15.5879 64.0283 15.5879 21.7974V21.6825H15.712H182.983H183.073V21.7753C182.992 93.8258 182.953 139.37 182.953 140.13Z" fill="#263238"/>
<path d="M73.629 30.3908C73.629 30.457 67.7226 30.5056 60.438 30.5056C53.1535 30.5056 47.2471 30.457 47.2471 30.3908C47.2471 30.3245 53.1535 30.2759 60.438 30.2759C67.7226 30.2759 73.629 30.3289 73.629 30.3908Z" fill="black"/>
<path d="M49.832 52.1383H26.4033V59.4242H49.832V52.1383Z" fill="#455A64"/>
<path d="M91.318 71.2223C91.318 71.2886 84.042 71.3372 75.054 71.3372C66.066 71.3372 58.79 71.2886 58.79 71.2223C58.79 71.156 66.066 71.1074 75.054 71.1074C84.042 71.1074 91.318 71.1604 91.318 71.2223Z" fill="#FF725E"/>
<path d="M91.318 105.062C91.318 105.123 84.042 105.176 75.054 105.176C66.066 105.176 58.79 105.123 58.79 105.062C58.79 105 66.066 104.947 75.054 104.947C84.042 104.947 91.318 104.986 91.318 105.062Z" fill="#FF725E"/>
<path d="M162.208 56.575C161.669 56.5759 161.142 56.4117 160.694 56.1033C160.246 55.7948 159.896 55.356 159.689 54.8423C159.483 54.3287 159.429 53.7633 159.534 53.2178C159.638 52.6723 159.898 52.1712 160.279 51.7779C160.66 51.3846 161.145 51.1169 161.674 51.0086C162.202 50.9003 162.75 50.9563 163.247 51.1696C163.745 51.3828 164.17 51.7437 164.469 52.2065C164.767 52.6693 164.926 53.2132 164.926 53.7693C164.924 54.5131 164.638 55.226 164.128 55.752C163.619 56.2779 162.928 56.5738 162.208 56.575ZM162.208 51.4011C161.754 51.4002 161.31 51.5384 160.932 51.7981C160.554 52.0578 160.26 52.4273 160.085 52.86C159.911 53.2926 159.865 53.769 159.953 54.2286C160.041 54.6883 160.259 55.1107 160.58 55.4424C160.901 55.774 161.309 56 161.754 56.0918C162.2 56.1835 162.661 56.1369 163.08 55.9577C163.5 55.7786 163.858 55.4751 164.111 55.0855C164.363 54.696 164.498 54.2379 164.498 53.7693C164.498 53.142 164.256 52.5403 163.827 52.0963C163.398 51.6523 162.815 51.4023 162.208 51.4011Z" fill="#FF725E"/>
<path d="M165.55 57.8208C165.493 57.8207 165.437 57.7969 165.396 57.7546L163.624 55.9386C163.605 55.918 163.589 55.8936 163.578 55.8666C163.567 55.8397 163.562 55.8109 163.562 55.7818C163.562 55.7526 163.567 55.7238 163.578 55.6969C163.589 55.67 163.605 55.6455 163.624 55.6249C163.644 55.6043 163.668 55.588 163.694 55.5768C163.72 55.5657 163.748 55.5599 163.776 55.5599C163.805 55.5599 163.833 55.5657 163.859 55.5768C163.885 55.588 163.908 55.6043 163.928 55.6249L165.7 57.4409C165.729 57.4723 165.748 57.5116 165.756 57.5541C165.764 57.5967 165.76 57.6406 165.744 57.6806C165.728 57.7207 165.701 57.7552 165.667 57.7801C165.633 57.805 165.592 57.8191 165.55 57.8208Z" fill="#FF725E"/>
<path d="M120.615 87.1711C120.615 87.233 113.608 87.286 104.963 87.286C96.3173 87.286 89.3066 87.233 89.3066 87.1711C89.3066 87.1093 96.3173 87.0563 104.963 87.0563C113.608 87.0563 120.615 87.1049 120.615 87.1711Z" fill="black"/>
<path d="M140.846 86.6731C140.846 86.7394 137.178 86.788 132.659 86.788C128.139 86.788 124.467 86.7394 124.467 86.6731C124.467 86.6068 128.135 86.5582 132.659 86.5582C137.183 86.5582 140.846 86.6113 140.846 86.6731Z" fill="black"/>
<path d="M120.465 122.107C120.465 122.169 113.459 122.222 104.813 122.222C96.1675 122.222 89.1611 122.169 89.1611 122.107C89.1611 122.045 96.1675 121.992 104.813 121.992C113.459 121.992 120.465 122.045 120.465 122.107Z" fill="black"/>
<path d="M36.4442 131.201C32.9688 133.056 30.3067 136.255 28.3935 139.777C26.4803 143.298 25.2434 147.155 24.0236 151.013L22.9536 170.794C26.9939 163.698 30.2296 155.356 31.1113 147.173L28.4235 146.926C30.2253 146.643 31.7405 145.295 32.7035 143.696C33.6665 142.096 34.1587 140.254 34.6423 138.438L31.3638 138.942C33.9585 137.132 35.7779 134.359 36.4442 131.201Z" fill="#455A64"/>
<g opacity="0.3">
<path d="M36.4442 131.201C32.9688 133.056 30.3067 136.255 28.3935 139.777C26.4803 143.298 25.2434 147.155 24.0236 151.013L22.9536 170.794C26.9939 163.698 30.2296 155.356 31.1113 147.173L28.4235 146.926C30.2253 146.643 31.7405 145.295 32.7035 143.696C33.6665 142.096 34.1587 140.254 34.6423 138.438L31.3638 138.942C33.9585 137.132 35.7779 134.359 36.4442 131.201Z" fill="black"/>
</g>
<path d="M22.3544 175.402C22.3544 175.402 13.5846 164.568 13.6874 154.225H17.2269C17.2269 154.225 13.3749 151.609 13.6831 150.147C13.9912 148.684 14.1111 143.148 14.1111 143.148L17.351 143.983C17.351 143.983 14.92 142.728 14.6161 140.744C14.3122 138.76 15.3266 129.561 15.3266 129.561C15.3266 129.561 19.2728 133.847 20.4883 138.235C21.7038 142.622 24.871 147.743 23.938 161.117C23.0049 174.492 22.3544 175.402 22.3544 175.402Z" fill="#455A64"/>
<path d="M26.8013 176.426C26.8013 176.426 36.3029 169.892 38.4129 161.554L35.5624 160.732C35.5624 160.732 39.2133 159.504 39.2775 158.258C39.3417 157.012 40.4331 152.536 40.4331 152.536L37.6511 152.479C37.6511 152.479 39.8724 152.037 40.5358 150.49C41.1992 148.944 42.3377 141.344 42.3377 141.344C42.3377 141.344 38.2546 143.894 36.3457 147.15C34.4368 150.406 30.7817 153.8 28.7059 164.766C26.6301 175.733 26.8013 176.426 26.8013 176.426Z" fill="#455A64"/>
<path d="M17.7021 139.012C17.7173 139.047 17.7287 139.084 17.7364 139.122L17.8134 139.453C17.8819 139.767 17.9761 140.196 18.1002 140.739C18.3441 141.857 18.6694 143.479 19.0375 145.489C19.7865 149.505 20.6725 155.09 21.3701 161.293C22.0677 167.497 22.4358 173.144 22.5942 177.235C22.6755 179.281 22.7183 180.933 22.7269 182.095C22.7269 182.656 22.7269 183.094 22.7269 183.421C22.7269 183.562 22.7269 183.673 22.7269 183.765C22.7333 183.803 22.7333 183.842 22.7269 183.88C22.7209 183.842 22.7209 183.803 22.7269 183.765C22.7269 183.677 22.7269 183.562 22.7269 183.425C22.7269 183.103 22.7012 182.665 22.6798 182.1C22.6455 180.955 22.5771 179.303 22.4743 177.262C22.2775 173.175 21.8794 167.541 21.1903 161.355C20.5013 155.17 19.6367 149.576 18.9262 145.551C18.5753 143.54 18.2757 141.914 18.0702 140.792C17.9675 140.244 17.8862 139.811 17.8263 139.502C17.8049 139.361 17.7835 139.25 17.7706 139.162C17.7374 139.118 17.714 139.066 17.7021 139.012Z" fill="#263238"/>
<path d="M21.1387 182.039C21.1387 182.039 13.1137 172.663 10.6185 166.954L12.5017 166.128C11.1364 166.358 9.7411 165.753 8.68394 164.834C7.66839 163.863 6.79472 162.745 6.09026 161.515L8.56838 161.074C6.29276 160.405 4.35291 158.86 3.1499 156.757C6.07742 157.252 8.7139 158.909 10.901 160.981C12.6366 162.699 14.2128 164.58 15.609 166.601C16.3073 167.572 16.9176 168.607 17.4323 169.694C18.7719 172.575 21.143 178.588 21.1387 182.039Z" fill="#455A64"/>
<path d="M38.537 146.833C38.5304 146.867 38.5189 146.899 38.5027 146.93L38.3829 147.204L37.8992 148.251C37.4712 149.135 36.8678 150.46 36.1316 152.099C34.6593 155.356 32.7076 159.907 30.7987 165.023C28.8898 170.14 27.3747 174.854 26.3218 178.278C25.804 179.997 25.3974 181.371 25.1234 182.356L24.7939 183.474L24.704 183.761C24.704 183.823 24.6698 183.859 24.6655 183.854C24.6612 183.85 24.6655 183.819 24.6655 183.753L24.734 183.461L25.0164 182.339C25.2647 181.367 25.6499 179.966 26.1506 178.243C27.1479 174.792 28.6502 170.064 30.5676 164.939C32.485 159.814 34.4581 155.272 35.969 152.029C36.7222 150.407 37.3514 149.104 37.8008 148.211L38.323 147.182L38.4642 146.921C38.485 146.889 38.5095 146.859 38.537 146.833Z" fill="#263238"/>
<path d="M21.8193 186.067C21.7571 185.848 21.7141 185.623 21.6909 185.396C21.6267 184.954 21.5197 184.34 21.3699 183.571C20.9764 181.572 20.4311 179.609 19.7392 177.699C19.0365 175.791 18.1878 173.945 17.2012 172.176C16.8203 171.5 16.5036 170.956 16.2724 170.59C16.1463 170.403 16.0361 170.204 15.9429 169.998C16.0924 170.165 16.227 170.345 16.3452 170.537C16.5977 170.895 16.9401 171.42 17.3382 172.096C18.37 173.85 19.2439 175.697 19.949 177.615C20.6485 179.536 21.1758 181.519 21.524 183.54C21.6524 184.318 21.738 184.945 21.7765 185.387C21.8091 185.612 21.8234 185.84 21.8193 186.067Z" fill="#263238"/>
<path d="M32.4079 183.854H14.8428V187.552H32.4079V183.854Z" fill="#FF725E"/>
<path d="M16.5161 187.557L18.4164 199.995H29.0308L30.8028 187.557H16.5161Z" fill="#FF725E"/>
<path d="M31.3295 187.557C31.3295 187.619 28.0082 187.672 23.908 187.672C19.8077 187.672 16.4907 187.619 16.4907 187.557C16.4907 187.496 19.812 187.443 23.908 187.443C28.0039 187.443 31.3295 187.491 31.3295 187.557Z" fill="#263238"/>
<path d="M107.826 190.819V199.991L125.75 199.903C125.622 198.043 115.782 194.331 115.782 194.331L115.979 190.797L107.826 190.819Z" fill="#455A64"/>
<g opacity="0.6">
<path d="M110.732 193.502C110.557 193.568 110.412 193.697 110.322 193.865C110.232 194.033 110.205 194.229 110.244 194.417C110.285 194.601 110.394 194.762 110.549 194.863C110.704 194.965 110.891 195 111.07 194.96C111.255 194.889 111.409 194.75 111.503 194.571C111.598 194.392 111.626 194.183 111.584 193.984C111.552 193.892 111.503 193.808 111.44 193.737C111.377 193.665 111.3 193.607 111.215 193.565C111.13 193.524 111.038 193.501 110.944 193.497C110.85 193.493 110.756 193.508 110.668 193.542" fill="white"/>
</g>
<path d="M107.826 199.992V198.529L124.946 198.737C124.946 198.737 125.836 199.289 125.755 199.903L107.826 199.992Z" fill="#263238"/>
<path d="M115.791 194.509C115.791 194.607 115.363 194.655 114.935 194.951C114.507 195.247 114.289 195.667 114.207 195.632C114.126 195.596 114.25 195.04 114.768 194.673C115.286 194.306 115.808 194.421 115.791 194.509Z" fill="#263238"/>
<path d="M118.141 195.357C118.141 195.45 117.786 195.618 117.494 196.024C117.203 196.431 117.126 196.859 117.041 196.855C116.955 196.85 116.891 196.316 117.259 195.816C117.627 195.317 118.136 195.268 118.141 195.357Z" fill="#263238"/>
<path d="M119.198 197.694C119.117 197.716 118.988 197.253 119.198 196.718C119.408 196.183 119.819 195.98 119.857 196.06C119.896 196.139 119.647 196.422 119.476 196.855C119.305 197.288 119.284 197.686 119.198 197.694Z" fill="#263238"/>
<path d="M115.616 191.898C115.581 191.986 115.188 191.863 114.687 191.898C114.186 191.933 113.831 192.119 113.771 192.035C113.711 191.951 114.088 191.593 114.665 191.567C115.243 191.54 115.658 191.823 115.616 191.898Z" fill="#263238"/>
<path d="M115.718 194.92C115.767 194.738 115.78 194.547 115.757 194.359C115.718 193.844 115.554 193.348 115.282 192.915C115.095 192.617 114.857 192.358 114.58 192.15C114.498 192.078 114.399 192.029 114.293 192.01C114.187 191.991 114.077 192.001 113.976 192.04C113.871 192.1 113.783 192.188 113.721 192.294C113.659 192.4 113.624 192.521 113.621 192.645C113.649 193.124 113.813 193.583 114.093 193.965C114.374 194.347 114.757 194.635 115.196 194.792C115.626 194.933 116.086 194.937 116.518 194.805C116.95 194.673 117.333 194.41 117.619 194.05C117.759 193.884 117.868 193.692 117.94 193.484C117.976 193.365 117.976 193.237 117.94 193.118C117.92 193.058 117.888 193.004 117.845 192.958C117.803 192.912 117.752 192.876 117.696 192.853C117.51 192.796 117.31 192.817 117.139 192.91C116.991 192.98 116.848 193.061 116.711 193.153C116.309 193.432 115.961 193.787 115.688 194.2C115.577 194.346 115.493 194.513 115.44 194.691C115.811 194.153 116.274 193.689 116.805 193.321C117.045 193.18 117.362 192.976 117.614 193.069C117.726 193.113 117.768 193.25 117.717 193.409C117.652 193.582 117.556 193.741 117.435 193.878C117.176 194.195 116.831 194.427 116.445 194.542C116.059 194.658 115.648 194.653 115.265 194.527C114.881 194.387 114.544 194.138 114.294 193.808C114.043 193.477 113.888 193.08 113.848 192.663C113.845 192.583 113.863 192.504 113.9 192.434C113.937 192.364 113.991 192.306 114.058 192.265C114.126 192.242 114.198 192.238 114.269 192.252C114.339 192.266 114.405 192.298 114.46 192.345C114.719 192.53 114.944 192.762 115.123 193.029C115.393 193.425 115.573 193.878 115.65 194.355C115.705 194.722 115.697 194.92 115.718 194.92Z" fill="#263238"/>
<path d="M101.282 192.146L101.586 194.509L101.385 199.834L94.665 200.001L94.4253 194.509L95.1871 191.244L101.282 192.146Z" fill="#455A64"/>
<path d="M98.0633 199.431C98.0205 199.431 98.1189 197.805 98.2773 195.795C98.4356 193.785 98.6025 192.15 98.641 192.146C98.6796 192.141 98.5854 193.776 98.427 195.786C98.2687 197.797 98.1018 199.431 98.0633 199.431Z" fill="#263238"/>
<path d="M101.41 198.944L94.6221 199.028V200L101.414 199.996L101.41 198.944Z" fill="#263238"/>
<path d="M94.6392 195.883C94.6392 195.883 94.6862 195.773 94.8104 195.605C94.9883 195.364 95.189 195.142 95.4096 194.942C95.7336 194.639 96.0983 194.386 96.4924 194.191C97.1816 193.843 97.9609 193.733 98.7154 193.877C99.4698 194.021 100.159 194.411 100.683 194.991C100.88 195.217 101.046 195.472 101.175 195.746C101.229 195.843 101.266 195.949 101.282 196.06C101.073 195.719 100.838 195.395 100.58 195.092C99.9077 194.408 99.0025 194.024 98.0589 194.023C97.1131 194.052 96.206 194.417 95.4909 195.057C94.9388 195.53 94.6648 195.91 94.6392 195.883Z" fill="#263238"/>
<path d="M98.0333 43.5331L97.9819 67.5073L107.95 67.9977L108.241 62.1654C108.241 62.1654 111.781 62.89 112.692 59.5144C113.279 57.345 113.12 40.5861 113.12 40.5861L98.0333 43.5331Z" fill="#B78876"/>
<path d="M114.421 42.2683C112.851 42.7322 112.508 45.3612 112.508 45.3612L110.047 50.9769C108.793 49.9651 107.107 50.0226 106.79 52.3024C106.559 53.9461 108.541 54.2775 108.541 54.2775C107.385 56.3055 106.606 57.9447 104.924 59.8711C103.118 61.9699 102.091 62.1775 100.122 62.204H97.9477C97.9477 62.204 96.882 58.6384 94.9132 49.7265C92.7304 39.8382 104.055 41.1107 106.157 38.5878C109.576 34.4831 119.382 40.8058 114.421 42.2683Z" fill="#263238"/>
<path d="M117.186 40.1129C117.099 39.5855 116.833 39.1075 116.435 38.7648C116.038 38.4222 115.534 38.2374 115.016 38.2439C115.178 37.9621 115.239 37.6304 115.187 37.3071C115.135 36.9838 114.975 36.6897 114.734 36.4766C114.483 36.2736 114.194 36.1291 113.884 36.0528C113.574 35.9765 113.252 35.9704 112.94 36.0347C112.316 36.1651 111.713 36.3884 111.151 36.6975C110.941 36.0567 110.536 35.5033 109.996 35.1201C109.415 34.7685 108.747 34.5982 108.074 34.6297C105.014 34.6297 103.405 36.7903 101.761 38.995C101.521 39.4058 101.178 39.7417 100.768 39.9671C100.47 40.0576 100.158 40.0935 99.8479 40.0731C98.6787 40.1114 97.5399 40.4673 96.5465 41.1049C95.5531 41.7426 94.7402 42.6395 94.1897 43.705C93.1197 45.8391 92.3194 50.7744 95.0928 53.8673L96.762 57.7157L112.739 44.6462C112.855 44.708 113.856 45.2117 114.627 44.7964C116.54 43.7536 115.735 42.0216 115.735 42.0216C115.889 41.9112 117.349 41.1733 117.186 40.1129Z" fill="#263238"/>
<path d="M102.399 52.9741C102.532 53.5758 102.513 54.2027 102.343 54.7945C102.253 55.4054 102.01 55.9812 101.637 56.4646C101.568 56.4293 101.889 55.6958 102.095 54.7371C102.3 53.7783 102.326 52.9741 102.399 52.9741Z" fill="#455A64"/>
<path d="M103.605 51.7946C103.689 52.3842 103.657 52.9852 103.511 53.5619C103.448 54.1498 103.268 54.7181 102.985 55.2321C103.027 54.6516 103.12 54.0763 103.263 53.5133C103.324 52.9305 103.439 52.355 103.605 51.7946Z" fill="#455A64"/>
<path d="M107.056 47.8367C107.081 47.872 106.799 48.0841 106.439 48.5171C105.981 49.0906 105.618 49.7386 105.365 50.4347C105.119 51.1386 104.921 51.859 104.77 52.5908C104.728 52.896 104.644 53.1934 104.522 53.4745C104.504 53.1589 104.528 52.8421 104.595 52.5334C104.696 51.7794 104.875 51.0388 105.13 50.3242C105.39 49.5994 105.792 48.9377 106.311 48.3801C106.514 48.1405 106.769 47.9543 107.056 47.8367Z" fill="#455A64"/>
<path d="M108.451 45.1449C108.481 45.1449 108.583 45.3747 108.647 45.79C108.72 46.3373 108.689 46.8938 108.558 47.4292C108.432 47.9656 108.204 48.4704 107.886 48.9138C107.642 49.254 107.458 49.4175 107.419 49.3954C107.381 49.3733 108.031 48.5691 108.314 47.3673C108.596 46.1655 108.374 45.1537 108.451 45.1449Z" fill="#455A64"/>
<path d="M96.5568 51.1319C96.5226 51.1982 96.2187 51.0878 95.8763 50.8889C95.5339 50.6901 95.2814 50.4824 95.3156 50.4162C95.3498 50.3499 95.6537 50.4648 95.9961 50.6636C96.3385 50.8624 96.591 51.0701 96.5568 51.1319Z" fill="#455A64"/>
<path d="M101.371 48.573C101.41 48.9452 101.309 49.3185 101.089 49.6158C100.781 50.1415 100.366 50.4155 100.323 50.3625C100.28 50.3094 100.592 49.9648 100.871 49.4788C101.149 48.9928 101.299 48.5554 101.371 48.573Z" fill="#455A64"/>
<path d="M102.852 47.752C102.847 48.2047 102.697 48.643 102.424 48.9979C102.026 49.6253 101.526 49.9611 101.487 49.8816C101.448 49.8021 101.842 49.4398 102.215 48.8345C102.407 48.4612 102.62 48.0997 102.852 47.752Z" fill="#455A64"/>
<path d="M110.214 37.7041C110.214 37.7041 110.026 37.5583 109.666 37.3462C109.151 37.0645 108.579 36.913 107.997 36.9044C107.133 36.8807 106.282 37.1155 105.545 37.5804C104.659 38.1808 103.941 39.0093 103.46 39.984C103.092 40.6973 102.805 41.4519 102.604 42.2329L102.561 42.3831L102.429 42.308C101.742 41.9373 100.982 41.7361 100.207 41.7204C99.5926 41.7059 98.98 41.8016 98.3969 42.0032C97.8779 42.2019 97.3814 42.4582 96.916 42.7675C97.012 42.6494 97.1245 42.5466 97.2499 42.4627C97.5863 42.2097 97.955 42.006 98.3455 41.8574C98.94 41.6237 99.5712 41.5053 100.207 41.5083C101.02 41.5062 101.821 41.7047 102.544 42.0871L102.369 42.1666C102.567 41.3662 102.854 40.5922 103.225 39.8603C103.726 38.8456 104.481 37.9882 105.412 37.3771C106.186 36.9009 107.08 36.6718 107.98 36.7188C108.586 36.7456 109.176 36.9327 109.692 37.2622C109.829 37.3522 109.957 37.4574 110.073 37.5759C110.18 37.6555 110.218 37.6997 110.214 37.7041Z" fill="#455A64"/>
<path d="M115.457 39.0122C115.436 39.0122 115.731 38.9326 116.026 39.2773C116.112 39.3801 116.176 39.4996 116.216 39.6286C116.255 39.7577 116.27 39.8936 116.258 40.0284C116.232 40.2081 116.165 40.3791 116.064 40.5279C115.963 40.6766 115.83 40.7991 115.675 40.8856C115.308 41.1008 114.874 41.1625 114.464 41.0579C114.013 40.9353 113.59 40.7221 113.219 40.4305C112.829 40.1096 112.42 39.8144 111.995 39.5468C111.534 39.2897 111.037 39.1093 110.522 39.0122C109.522 38.8262 108.493 38.8991 107.526 39.2242C106.733 39.4942 105.984 39.8876 105.305 40.3907C104.141 41.2523 103.567 41.9769 103.529 41.9371C103.644 41.7539 103.777 41.5836 103.927 41.429C104.319 40.9931 104.749 40.5953 105.211 40.2405C105.893 39.7031 106.655 39.2824 107.466 38.9945C108.471 38.6427 109.547 38.5606 110.591 38.7559C111.132 38.8586 111.653 39.0495 112.136 39.3215C112.566 39.588 112.979 39.8832 113.373 40.2051C113.717 40.4847 114.111 40.6918 114.533 40.8149C114.894 40.9174 115.279 40.8747 115.611 40.6956C115.746 40.6248 115.863 40.5238 115.954 40.3998C116.045 40.2759 116.108 40.1323 116.138 39.9798C116.168 39.7434 116.109 39.504 115.971 39.3126C115.839 39.1528 115.657 39.0463 115.457 39.0122Z" fill="#455A64"/>
<path d="M161.895 57.4144C161.518 57.0698 156.442 59.2657 156.442 59.2657C156.442 59.2657 152.654 62.3586 151.096 64.148L150.133 64.9742L135.727 76.5371L118.008 68.9287L114.156 79.1307C114.156 79.1307 134.049 87.3092 137.079 85.9085C140.371 84.3886 152.633 71.1379 152.663 71.0937L154.435 69.3263C154.435 69.3263 155.372 69.3263 156.083 69.2645C156.793 69.2026 158.873 67.7932 158.873 67.7932C159.071 67.401 159.206 66.9789 159.276 66.5428C159.319 66.3691 159.305 66.1853 159.235 66.021C159.165 65.8567 159.044 65.7215 158.89 65.637C158.963 65.2974 158.974 64.947 158.925 64.6031C158.843 64.0199 158.069 63.3439 158.069 63.3439C158.31 63.0899 158.475 62.7691 158.544 62.4204C158.715 61.7444 157.872 61.0949 157.872 61.0949C157.872 61.0949 160.821 59.0271 161.535 58.6604C162.25 58.2936 162.272 57.759 161.895 57.4144Z" fill="#B78876"/>
<path d="M120.615 161.924C120.675 161.252 120.704 160.735 120.704 160.413L122.708 127.438C122.708 127.438 121.025 117.806 120.229 115.252L113.077 112.394L103.546 116.225C103.486 115.434 103.447 114.943 103.447 114.943L89.4219 119.954C89.4219 119.954 89.0581 129.838 89.4219 132.846C89.5418 133.814 89.9056 136.31 90.3507 139.253C90.3507 139.253 90.8044 145.647 90.8985 146.004C91.2367 147.308 91.3265 150.502 91.3265 153.701C91.3265 157.766 91.5405 162.604 91.7888 164.902C92.037 167.199 92.1526 192.49 92.1526 192.49H102.51L103.841 152.212C104.064 147.895 104.398 141.294 104.612 136.518L107.043 151.39C107.043 151.934 108.524 160.439 108.524 160.439C108.182 163.116 107.97 165.809 107.89 168.507C107.719 176.018 106.867 192.49 106.867 192.49H117.002C117.002 192.49 120.05 168.684 120.64 161.924H120.615Z" fill="#263238"/>
<path d="M122.378 125.462C122.045 125.333 121.73 125.159 121.44 124.945C120.721 124.469 120.05 123.92 119.437 123.306C118.824 122.693 118.271 122.02 117.785 121.296C117.566 121.007 117.389 120.687 117.259 120.346C117.494 120.615 117.711 120.9 117.909 121.199C118.425 121.888 118.987 122.539 119.591 123.147C120.196 123.749 120.841 124.306 121.522 124.813C121.822 125.008 122.108 125.225 122.378 125.462Z" fill="#455A64"/>
<path d="M104.282 131.454C104.201 131.355 104.135 131.245 104.085 131.127C103.926 130.817 103.783 130.498 103.657 130.172C103.224 129.1 102.907 127.981 102.711 126.836C102.521 125.691 102.452 124.528 102.506 123.368C102.532 122.926 102.566 122.568 102.604 122.321C102.612 122.19 102.639 122.062 102.686 121.941C102.72 121.941 102.686 122.493 102.664 123.372C102.652 124.52 102.74 125.666 102.93 126.797C103.119 127.927 103.405 129.037 103.786 130.115C104.09 130.941 104.312 131.436 104.282 131.454Z" fill="#455A64"/>
<path d="M105.788 143.87C105.725 143.684 105.681 143.491 105.656 143.296C105.582 142.877 105.487 142.352 105.373 141.718C105.151 140.335 104.851 138.515 104.517 136.5C103.944 132.802 103.554 130.284 103.375 129.113C103.607 129.805 103.771 130.52 103.862 131.247C104.111 132.572 104.419 134.424 104.744 136.46C105.069 138.497 105.339 140.353 105.527 141.692C105.609 142.328 105.681 142.858 105.737 143.282C105.775 143.476 105.793 143.673 105.788 143.87Z" fill="#455A64"/>
<path d="M81.3456 88.8699C81.3456 88.8699 79.9803 98.8068 79.7235 102.288C79.5694 104.387 81.6324 107.149 83.2074 107.374C84.7824 107.599 90.0896 107.904 90.0896 107.904L90.5176 101.67L90.3807 100.428L88.7329 100.11L89.2294 90.2219L81.3456 88.8699Z" fill="#B78876"/>
<path d="M89.024 90.5575C89.0664 90.7338 89.088 90.9148 89.0882 91.0965C89.1139 91.4456 89.131 91.9493 89.1438 92.5767C89.1738 93.8227 89.1438 95.5503 89.0411 97.4369C88.9384 99.3236 88.7886 101.06 88.673 102.297C88.6088 102.916 88.5575 103.419 88.5147 103.764C88.505 103.945 88.4749 104.125 88.4248 104.299C88.4053 104.118 88.4053 103.936 88.4248 103.755C88.4462 103.358 88.4761 102.872 88.5104 102.279C88.5917 100.985 88.6944 99.2926 88.81 97.4192C88.9255 95.5458 88.9683 93.805 88.9812 92.559C88.9812 91.9758 88.9812 91.4809 88.9812 91.0833C88.9776 90.907 88.992 90.7307 89.024 90.5575Z" fill="#AA6550"/>
<g opacity="0.3">
<path d="M89.5457 120.134C92.2421 121.168 95.1953 121.251 98.0586 120.995C100.922 120.739 103.755 120.142 106.619 119.864C110.958 119.445 115.334 119.744 119.583 120.748C119.879 120.841 120.191 120.871 120.499 120.836C120.652 120.816 120.795 120.749 120.91 120.643C121.026 120.538 121.107 120.398 121.145 120.244C121.222 119.749 120.696 119.405 120.25 119.215C115.352 117.123 110.085 116.106 104.785 116.228C99.4856 116.349 94.2682 117.607 89.4644 119.922" fill="black"/>
</g>
<path d="M130.831 73.446L115.628 65.6343C113.231 65.3439 110.816 65.2346 108.404 65.3073H98.3414C98.3414 65.3073 86.1519 69.0187 84.136 72.443L78.9102 88.6143L89.2421 90.2225L90.5261 101.843C90.5261 101.843 89.2421 115.297 89.2421 117.25C89.2141 118.154 89.2671 119.059 89.4004 119.954C89.4004 119.954 110.073 116.711 115.162 118.421C120.251 120.131 121.625 119.954 121.625 119.954C121.625 119.954 121.197 114.369 120.824 111.117L119.651 94.9016L118.795 82.5301L128.361 85.5523L130.831 73.446Z" fill="#FF725E"/>
<path d="M89.1481 90.3499C89.1096 90.3499 89.0069 89.6827 88.78 88.6046C88.4779 87.2024 88.0773 85.8246 87.5816 84.4823C87.0754 83.1298 86.4835 81.8133 85.8097 80.5411L85.1848 79.3835C85.0964 79.2464 85.0258 79.0978 84.9751 78.9417C85.0869 79.0604 85.1846 79.1924 85.2661 79.3349C85.4416 79.5956 85.6941 79.98 85.9552 80.466C86.6778 81.7222 87.2963 83.0391 87.8042 84.4028C88.3049 85.7547 88.6859 87.1508 88.9427 88.5737C89.0368 89.1172 89.0967 89.559 89.1267 89.8683C89.1531 90.0273 89.1603 90.1891 89.1481 90.3499Z" fill="#263238"/>
<path d="M108.644 94.9409C108.636 95.0155 108.617 95.0885 108.588 95.1574L108.395 95.7539C108.31 96.0146 108.203 96.3283 108.061 96.6906C107.92 97.0529 107.77 97.4682 107.574 97.9101C107.201 98.7937 106.718 99.863 106.11 101.003C105.502 102.143 104.783 103.354 103.97 104.582C103.157 105.81 102.258 106.919 101.449 107.9C100.64 108.881 99.831 109.707 99.1377 110.379C98.7995 110.723 98.47 111.011 98.1918 111.262C97.9136 111.514 97.6611 111.74 97.4556 111.912L96.9763 112.301C96.9223 112.35 96.8635 112.393 96.8008 112.429C96.8008 112.429 96.8479 112.367 96.9506 112.265L97.4 111.824C97.5969 111.647 97.828 111.421 98.1105 111.152C98.3929 110.882 98.7011 110.591 99.0307 110.242C99.7069 109.561 100.477 108.713 101.295 107.741C102.112 106.769 102.96 105.647 103.79 104.432C104.62 103.217 105.331 102.001 105.93 100.897C106.529 99.7923 107.039 98.7319 107.428 97.8438C107.633 97.402 107.792 96.991 107.942 96.6376C108.091 96.2841 108.216 95.9748 108.314 95.7186C108.412 95.4623 108.481 95.2767 108.545 95.1353C108.57 95.0666 108.603 95.0012 108.644 94.9409Z" fill="#263238"/>
<path d="M115.667 66.7029C115.267 67.2932 114.994 67.9652 114.866 68.6735C114.738 69.441 114.738 70.2256 114.866 70.9931C115.032 71.9379 115.247 72.873 115.508 73.7944C116.035 75.7738 116.587 77.5368 117.011 78.8092C117.212 79.4101 117.379 79.9138 117.516 80.3159C117.587 80.4974 117.641 80.6852 117.678 80.877C117.578 80.7094 117.495 80.5318 117.43 80.3468C117.289 80.0022 117.088 79.4985 116.857 78.8667C116.394 77.6075 115.812 75.8401 115.286 73.8562C115.03 72.9309 114.826 71.9912 114.674 71.0417C114.548 70.2521 114.56 69.4457 114.708 68.6602C114.813 68.1302 115.013 67.6251 115.299 67.1712C115.393 66.9933 115.517 66.8346 115.667 66.7029Z" fill="#263238"/>
<path d="M86.982 83.7259C86.7566 83.9774 86.4784 84.1723 86.1688 84.2959C85.4415 84.6405 84.6324 84.7576 83.8413 84.6327C83.0503 84.5079 82.312 84.1465 81.7176 83.5934C81.4586 83.3817 81.2506 83.111 81.1099 82.8025C81.1398 82.776 81.3624 83.0897 81.8203 83.4696C82.4161 83.9668 83.1292 84.2915 83.8866 84.4103C84.644 84.5291 85.4184 84.4377 86.1303 84.1457C86.6567 83.9247 86.9606 83.695 86.982 83.7259Z" fill="white"/>
<path d="M116.116 76.4314C116.086 76.5489 116.045 76.6629 115.992 76.7716C115.898 76.9925 115.753 77.3107 115.543 77.7083C114.94 78.8361 114.179 79.865 113.283 80.7614C111.944 82.103 110.274 83.0398 108.455 83.4699C107.383 83.7236 106.275 83.773 105.185 83.6157C104.019 83.4242 102.898 83.0123 101.877 82.4006C99.7753 81.19 97.9991 79.6568 96.056 78.9234C94.3372 78.2675 92.467 78.1612 90.6889 78.6185C89.4888 78.9158 88.3563 79.4515 87.3548 80.1959C86.6528 80.7305 86.3233 81.106 86.3062 81.0795C86.6058 80.7254 86.94 80.4041 87.3034 80.1207C88.5459 79.1487 90.0034 78.5116 91.5443 78.2671C93.0852 78.0225 94.6608 78.1782 96.1288 78.7201C98.119 79.4624 99.908 81 101.984 82.193C102.98 82.7989 104.075 83.2121 105.215 83.4124C106.28 83.5671 107.363 83.5222 108.412 83.2799C110.199 82.8666 111.844 81.9611 113.172 80.6598C114.071 79.7857 114.843 78.7828 115.466 77.6818C115.684 77.293 115.847 76.9793 115.949 76.7672C115.996 76.6509 116.052 76.5386 116.116 76.4314Z" fill="white"/>
<path d="M125.635 70.7637C125.72 70.9261 125.786 71.0981 125.832 71.2762C125.973 71.7542 126.056 72.2484 126.08 72.7475C126.163 74.4211 125.65 76.0681 124.638 77.378C124.05 78.0501 123.412 78.6735 122.729 79.2425C122.193 79.7065 121.756 80.2796 121.445 80.9259C121.235 81.3613 121.136 81.845 121.158 82.331C121.184 82.6756 121.257 82.8612 121.235 82.8656C121.214 82.87 121.205 82.8259 121.171 82.7375C121.123 82.6096 121.09 82.476 121.073 82.3398C121.014 81.8343 121.092 81.3218 121.299 80.8597C121.6 80.1827 122.038 79.5801 122.583 79.0923C123.248 78.5207 123.873 77.9021 124.454 77.241C125.431 75.9688 125.947 74.3841 125.913 72.7608C125.88 72.0876 125.787 71.4191 125.635 70.7637Z" fill="white"/>
<path d="M100.909 108.014C100.775 108.088 100.631 108.143 100.481 108.177C100.069 108.299 99.6482 108.391 99.223 108.451C98.5821 108.561 97.9256 108.522 97.3013 108.336C96.9309 108.215 96.5886 108.016 96.2955 107.753C96.0007 107.464 95.7261 107.154 95.4737 106.825C95.2261 106.512 94.9381 106.236 94.6177 106.003C94.3128 105.798 93.9833 105.635 93.6376 105.517C93.0452 105.322 92.419 105.26 91.8015 105.336C91.3829 105.384 90.9749 105.503 90.5945 105.69C90.4572 105.769 90.3141 105.837 90.1665 105.893C90.2786 105.777 90.4088 105.681 90.5517 105.61C90.9305 105.384 91.3473 105.234 91.7801 105.168C92.421 105.062 93.0769 105.109 93.6975 105.305C94.0654 105.422 94.4155 105.591 94.7375 105.809C95.0795 106.047 95.3853 106.335 95.6449 106.666C95.8906 106.986 96.1565 107.288 96.441 107.572C96.7125 107.818 97.028 108.007 97.3697 108.129C97.9663 108.311 98.5929 108.363 99.2101 108.283C100.25 108.155 100.901 107.974 100.909 108.014Z" fill="white"/>
<path d="M120.593 107.073C120.553 107.119 120.507 107.159 120.456 107.193C120.319 107.299 120.176 107.396 120.028 107.484C119.497 107.819 118.92 108.071 118.316 108.231C117.41 108.472 116.466 108.529 115.539 108.399C114.394 108.239 113.308 107.783 112.38 107.073C111.498 106.338 110.655 105.555 109.855 104.727C109.2 104.07 108.441 103.532 107.612 103.137C107.055 102.87 106.449 102.732 105.836 102.73C105.408 102.73 105.16 102.805 105.155 102.779C105.21 102.752 105.267 102.733 105.326 102.721C105.492 102.675 105.661 102.647 105.832 102.637C106.464 102.608 107.095 102.727 107.676 102.986C108.532 103.37 109.316 103.907 109.992 104.573C110.775 105.288 111.554 106.159 112.513 106.888C113.411 107.57 114.46 108.01 115.564 108.169C116.468 108.304 117.387 108.267 118.278 108.059C118.874 107.912 119.449 107.688 119.99 107.391C120.184 107.273 120.386 107.167 120.593 107.073Z" fill="white"/>
<path d="M156.973 44.1157C153.864 42.5807 151.151 40.3093 149.054 37.4866C146.956 34.664 145.535 31.3699 144.904 27.8725C144.274 24.3752 144.452 20.7736 145.426 17.3611C146.399 13.9486 148.139 10.8216 150.505 8.23482C152.87 5.64808 155.794 3.67472 159.038 2.47548C162.283 1.27624 165.755 0.885022 169.174 1.33369C172.592 1.78237 175.86 3.05824 178.71 5.0574C181.56 7.05655 183.913 9.72246 185.576 12.838C187.816 17.0278 188.709 21.8439 188.126 26.5914C187.542 31.3389 185.513 35.7724 182.331 39.2523C179.149 42.7321 174.978 45.0783 170.42 45.9525C165.862 46.8266 161.154 46.1834 156.973 44.1157ZM175.214 4.73027C170.824 2.5667 165.829 2.09359 161.13 3.39623C156.432 4.69886 152.339 7.69153 149.589 11.8347C146.839 15.9778 145.613 20.9989 146.133 25.9925C146.653 30.9861 148.883 35.6238 152.423 39.0694C155.963 42.515 160.578 44.5418 165.438 44.7844C170.297 45.027 175.081 43.4694 178.926 40.3924C182.771 37.3154 185.425 32.9216 186.409 28.003C187.393 23.0844 186.642 17.9647 184.292 13.567C182.234 9.7151 179.06 6.62497 175.214 4.73027Z" fill="#263238"/>
<path d="M193.901 68.8314C193.286 69.2214 192.547 69.3441 191.845 69.1727C191.143 69.0012 190.536 68.5496 190.156 67.9168L175.848 43.9736C175.783 43.8652 175.762 43.7345 175.79 43.6102C175.818 43.486 175.893 43.3783 175.998 43.3108L179.049 41.3667C179.153 41.3012 179.278 41.2797 179.396 41.3069C179.515 41.3341 179.619 41.4078 179.687 41.5125L194.735 64.8549C194.942 65.1697 195.085 65.5246 195.155 65.8981C195.225 66.2716 195.221 66.6559 195.143 67.0277C195.065 67.3995 194.915 67.7511 194.701 68.0611C194.488 68.3712 194.215 68.6332 193.901 68.8314Z" fill="#263238"/>
<path d="M157.499 42.9752C154.389 41.4409 151.673 39.1698 149.574 36.3468C147.475 33.5237 146.052 30.2287 145.42 26.7302C144.789 23.2317 144.967 19.6286 145.94 16.2145C146.913 12.8004 148.654 9.67199 151.02 7.08405C153.386 4.4961 156.311 2.52188 159.557 1.32224C162.802 0.1226 166.277 -0.268521 169.696 0.180744C173.116 0.63001 176.385 1.90695 179.236 3.90753C182.087 5.90811 184.44 8.57572 186.103 11.693C188.341 15.883 189.233 20.6987 188.649 25.4457C188.065 30.1926 186.036 34.6255 182.855 38.1052C179.673 41.5849 175.503 43.9316 170.946 44.8068C166.389 45.6821 161.68 45.0407 157.499 42.9752ZM175.741 3.58971C171.35 1.42614 166.355 0.953032 161.657 2.25567C156.958 3.5583 152.865 6.55097 150.115 10.6941C147.365 14.8373 146.14 19.8583 146.659 24.8519C147.179 29.8456 149.41 34.4833 152.949 37.9289C156.489 41.3745 161.105 43.4013 165.964 43.6438C170.823 43.8864 175.607 42.3288 179.452 39.2518C183.297 36.1749 185.951 31.781 186.935 26.8624C187.919 21.9439 187.168 16.8242 184.819 12.4265C182.761 8.57454 179.586 5.48441 175.741 3.58971Z" fill="#455A64"/>
<path d="M176.129 42.3938L179.965 39.9511L195.18 65.4129C195.478 65.9116 195.572 66.512 195.441 67.0821C195.31 67.6523 194.965 68.1454 194.482 68.453L194.26 68.5945C193.777 68.9021 193.195 68.999 192.643 68.864C192.091 68.7289 191.613 68.3728 191.315 67.8742L176.1 42.4124L176.129 42.3938Z" fill="#455A64"/>
<path d="M150.6 17.2349C150.62 16.999 150.66 16.7654 150.72 16.5368C150.77 16.2646 150.838 15.996 150.921 15.7326C151.018 15.3778 151.132 15.0283 151.263 14.6855L151.482 14.089C151.563 13.8813 151.67 13.6781 151.768 13.4571C151.961 13.0153 152.222 12.5735 152.483 12.1095C153.09 11.1145 153.793 10.1849 154.58 9.3348C155.382 8.50143 156.263 7.75251 157.208 7.0991C157.623 6.81932 158.052 6.56126 158.492 6.32588C158.698 6.21542 158.894 6.10054 159.091 6.00776L159.665 5.75591C159.992 5.61081 160.326 5.48397 160.666 5.37593C160.919 5.28185 161.178 5.2051 161.441 5.14617C161.662 5.08161 161.886 5.03289 162.113 5.00037C161.902 5.09236 161.685 5.16769 161.462 5.2257C161.205 5.29889 160.952 5.38741 160.705 5.49081C160.371 5.60832 160.044 5.74401 159.725 5.8973L159.164 6.15798C158.967 6.25077 158.775 6.37006 158.573 6.48052C158.145 6.69702 157.752 6.9798 157.311 7.26258C156.388 7.91194 155.528 8.65177 154.743 9.47177C153.966 10.31 153.268 11.2229 152.659 12.1979C152.397 12.6397 152.132 13.0816 151.935 13.5234C151.837 13.7355 151.725 13.9343 151.64 14.1376L151.4 14.7252C151.238 15.0919 151.139 15.4454 151.032 15.7503C150.94 16.009 150.863 16.2731 150.801 16.5412C150.752 16.7776 150.685 17.0096 150.6 17.2349Z" fill="#E0E0E0"/>
</svg>
